G04 EAGLE Gerber RS-274X export*
G75*
%MOMM*%
%FSLAX34Y34*%
%LPD*%
%INTop Copper*%
%IPPOS*%
%AMOC8*
5,1,8,0,0,1.08239X$1,22.5*%
G01*
%ADD10C,0.137500*%
%ADD11R,3.987800X1.498600*%
%ADD12R,0.517200X0.896100*%
%ADD13R,1.524000X1.524000*%
%ADD14P,1.649562X8X292.500000*%
%ADD15R,1.000000X1.100000*%
%ADD16R,0.800000X0.800000*%
%ADD17R,0.700000X0.900000*%
%ADD18R,1.100000X1.000000*%
%ADD19R,6.451600X3.251200*%
%ADD20R,1.800000X1.600000*%
%ADD21R,1.500000X1.300000*%
%ADD22R,0.354800X1.454900*%
%ADD23R,6.502400X2.870200*%
%ADD24R,1.524000X1.524000*%
%ADD25P,1.649562X8X247.500000*%
%ADD26C,0.304800*%
%ADD27C,0.756400*%
%ADD28C,0.254000*%
%ADD29C,2.540000*%
%ADD30C,0.508000*%
%ADD31C,0.812800*%
%ADD32C,1.270000*%

G36*
X408320Y11133D02*
X408320Y11133D01*
X408344Y11136D01*
X408368Y11134D01*
X408516Y11156D01*
X408666Y11174D01*
X408689Y11182D01*
X408713Y11186D01*
X408852Y11241D01*
X408994Y11292D01*
X409014Y11305D01*
X409037Y11314D01*
X409160Y11400D01*
X409286Y11482D01*
X409303Y11499D01*
X409323Y11513D01*
X409423Y11625D01*
X409528Y11733D01*
X409540Y11754D01*
X409556Y11772D01*
X409629Y11903D01*
X409706Y12032D01*
X409713Y12056D01*
X409725Y12077D01*
X409766Y12222D01*
X409811Y12365D01*
X409813Y12389D01*
X409820Y12412D01*
X409839Y12656D01*
X409839Y428316D01*
X409836Y428342D01*
X409838Y428368D01*
X409816Y428515D01*
X409799Y428662D01*
X409791Y428687D01*
X409787Y428713D01*
X409732Y428851D01*
X409682Y428990D01*
X409668Y429012D01*
X409658Y429037D01*
X409573Y429158D01*
X409493Y429283D01*
X409474Y429301D01*
X409459Y429323D01*
X409349Y429422D01*
X409242Y429525D01*
X409220Y429539D01*
X409200Y429556D01*
X409070Y429628D01*
X408943Y429704D01*
X408918Y429712D01*
X408895Y429725D01*
X408752Y429765D01*
X408611Y429810D01*
X408585Y429812D01*
X408560Y429820D01*
X408316Y429839D01*
X11684Y429839D01*
X11658Y429836D01*
X11632Y429838D01*
X11485Y429816D01*
X11338Y429799D01*
X11313Y429791D01*
X11287Y429787D01*
X11149Y429732D01*
X11010Y429682D01*
X10988Y429668D01*
X10963Y429658D01*
X10842Y429573D01*
X10717Y429493D01*
X10699Y429474D01*
X10677Y429459D01*
X10578Y429349D01*
X10475Y429242D01*
X10461Y429220D01*
X10444Y429200D01*
X10372Y429070D01*
X10296Y428943D01*
X10288Y428918D01*
X10275Y428895D01*
X10235Y428752D01*
X10190Y428611D01*
X10188Y428585D01*
X10180Y428560D01*
X10161Y428316D01*
X10161Y99404D01*
X10164Y99378D01*
X10162Y99352D01*
X10184Y99205D01*
X10201Y99058D01*
X10209Y99033D01*
X10213Y99007D01*
X10268Y98869D01*
X10318Y98730D01*
X10332Y98708D01*
X10342Y98683D01*
X10427Y98562D01*
X10507Y98437D01*
X10526Y98419D01*
X10541Y98397D01*
X10651Y98298D01*
X10758Y98195D01*
X10780Y98181D01*
X10800Y98164D01*
X10930Y98092D01*
X11057Y98016D01*
X11082Y98008D01*
X11105Y97995D01*
X11248Y97955D01*
X11389Y97910D01*
X11415Y97908D01*
X11440Y97900D01*
X11684Y97881D01*
X39212Y97881D01*
X39238Y97884D01*
X39264Y97882D01*
X39411Y97904D01*
X39558Y97921D01*
X39583Y97929D01*
X39609Y97933D01*
X39747Y97988D01*
X39886Y98038D01*
X39908Y98052D01*
X39933Y98062D01*
X40054Y98147D01*
X40179Y98227D01*
X40197Y98246D01*
X40219Y98261D01*
X40318Y98371D01*
X40421Y98478D01*
X40435Y98500D01*
X40452Y98520D01*
X40524Y98650D01*
X40600Y98777D01*
X40608Y98802D01*
X40621Y98825D01*
X40661Y98968D01*
X40706Y99109D01*
X40708Y99135D01*
X40716Y99160D01*
X40735Y99404D01*
X40735Y156484D01*
X47316Y163065D01*
X48952Y163065D01*
X48978Y163068D01*
X49004Y163066D01*
X49151Y163088D01*
X49298Y163105D01*
X49323Y163113D01*
X49349Y163117D01*
X49487Y163172D01*
X49626Y163222D01*
X49648Y163236D01*
X49673Y163246D01*
X49794Y163331D01*
X49919Y163411D01*
X49937Y163430D01*
X49959Y163445D01*
X50058Y163555D01*
X50161Y163662D01*
X50175Y163684D01*
X50192Y163704D01*
X50264Y163834D01*
X50340Y163961D01*
X50348Y163986D01*
X50361Y164009D01*
X50401Y164152D01*
X50446Y164293D01*
X50448Y164319D01*
X50456Y164344D01*
X50475Y164588D01*
X50475Y167632D01*
X51368Y168525D01*
X70632Y168525D01*
X70923Y168233D01*
X70943Y168217D01*
X70960Y168197D01*
X71080Y168109D01*
X71196Y168017D01*
X71220Y168006D01*
X71241Y167990D01*
X71377Y167931D01*
X71511Y167868D01*
X71537Y167862D01*
X71561Y167852D01*
X71707Y167826D01*
X71852Y167794D01*
X71878Y167795D01*
X71904Y167790D01*
X72052Y167798D01*
X72200Y167800D01*
X72226Y167807D01*
X72252Y167808D01*
X72394Y167849D01*
X72538Y167885D01*
X72561Y167897D01*
X72587Y167905D01*
X72716Y167977D01*
X72848Y168045D01*
X72868Y168062D01*
X72891Y168075D01*
X73077Y168233D01*
X73368Y168525D01*
X78428Y168525D01*
X78454Y168528D01*
X78480Y168526D01*
X78627Y168548D01*
X78774Y168565D01*
X78799Y168573D01*
X78825Y168577D01*
X78963Y168632D01*
X79102Y168682D01*
X79124Y168696D01*
X79149Y168706D01*
X79270Y168791D01*
X79395Y168871D01*
X79413Y168890D01*
X79435Y168905D01*
X79534Y169015D01*
X79637Y169122D01*
X79651Y169144D01*
X79668Y169164D01*
X79740Y169294D01*
X79816Y169421D01*
X79824Y169446D01*
X79837Y169469D01*
X79877Y169612D01*
X79922Y169753D01*
X79924Y169779D01*
X79932Y169804D01*
X79951Y170048D01*
X79951Y196263D01*
X84247Y200559D01*
X84326Y200658D01*
X84410Y200752D01*
X84434Y200794D01*
X84464Y200832D01*
X84518Y200946D01*
X84579Y201057D01*
X84592Y201103D01*
X84613Y201147D01*
X84639Y201270D01*
X84674Y201392D01*
X84679Y201453D01*
X84686Y201488D01*
X84685Y201536D01*
X84693Y201636D01*
X84693Y203056D01*
X85501Y205006D01*
X86994Y206499D01*
X88944Y207307D01*
X90364Y207307D01*
X90490Y207321D01*
X90616Y207328D01*
X90662Y207341D01*
X90710Y207347D01*
X90829Y207389D01*
X90951Y207424D01*
X90993Y207448D01*
X91039Y207464D01*
X91145Y207533D01*
X91255Y207594D01*
X91301Y207634D01*
X91331Y207653D01*
X91365Y207688D01*
X91441Y207753D01*
X91737Y208049D01*
X116452Y208049D01*
X116478Y208052D01*
X116504Y208050D01*
X116651Y208072D01*
X116798Y208089D01*
X116823Y208097D01*
X116849Y208101D01*
X116987Y208156D01*
X117126Y208206D01*
X117148Y208220D01*
X117173Y208230D01*
X117294Y208315D01*
X117419Y208395D01*
X117437Y208414D01*
X117459Y208429D01*
X117558Y208539D01*
X117661Y208646D01*
X117675Y208668D01*
X117692Y208688D01*
X117764Y208818D01*
X117840Y208945D01*
X117848Y208970D01*
X117861Y208993D01*
X117901Y209136D01*
X117946Y209277D01*
X117948Y209303D01*
X117956Y209328D01*
X117975Y209572D01*
X117975Y210632D01*
X118868Y211525D01*
X122142Y211525D01*
X122241Y211536D01*
X122342Y211538D01*
X122414Y211556D01*
X122488Y211565D01*
X122582Y211599D01*
X122680Y211623D01*
X122746Y211657D01*
X122816Y211682D01*
X122900Y211737D01*
X122990Y211783D01*
X123046Y211831D01*
X123109Y211871D01*
X123178Y211943D01*
X123255Y212008D01*
X123299Y212068D01*
X123351Y212122D01*
X123402Y212208D01*
X123462Y212289D01*
X123492Y212357D01*
X123530Y212421D01*
X123560Y212517D01*
X123600Y212609D01*
X123613Y212682D01*
X123636Y212753D01*
X123644Y212853D01*
X123662Y212952D01*
X123658Y213026D01*
X123664Y213100D01*
X123649Y213200D01*
X123644Y213300D01*
X123623Y213371D01*
X123612Y213445D01*
X123575Y213538D01*
X123547Y213635D01*
X123511Y213700D01*
X123483Y213769D01*
X123426Y213851D01*
X123377Y213939D01*
X123312Y214015D01*
X123285Y214055D01*
X123258Y214079D01*
X123219Y214125D01*
X122475Y214868D01*
X122475Y225132D01*
X123368Y226025D01*
X131632Y226025D01*
X132923Y224733D01*
X132943Y224717D01*
X132960Y224697D01*
X133080Y224609D01*
X133196Y224517D01*
X133220Y224506D01*
X133241Y224490D01*
X133377Y224431D01*
X133511Y224368D01*
X133537Y224362D01*
X133561Y224352D01*
X133707Y224326D01*
X133852Y224294D01*
X133878Y224295D01*
X133904Y224290D01*
X134052Y224298D01*
X134200Y224300D01*
X134226Y224307D01*
X134252Y224308D01*
X134394Y224349D01*
X134538Y224385D01*
X134561Y224397D01*
X134587Y224405D01*
X134716Y224477D01*
X134848Y224545D01*
X134868Y224562D01*
X134891Y224575D01*
X135077Y224733D01*
X136483Y226139D01*
X136602Y226182D01*
X136624Y226196D01*
X136649Y226206D01*
X136770Y226291D01*
X136895Y226371D01*
X136913Y226390D01*
X136935Y226405D01*
X137034Y226515D01*
X137137Y226622D01*
X137151Y226644D01*
X137168Y226664D01*
X137240Y226794D01*
X137316Y226921D01*
X137324Y226946D01*
X137337Y226969D01*
X137377Y227112D01*
X137422Y227253D01*
X137424Y227279D01*
X137432Y227304D01*
X137451Y227548D01*
X137451Y231682D01*
X137448Y231708D01*
X137450Y231734D01*
X137428Y231881D01*
X137411Y232028D01*
X137403Y232053D01*
X137399Y232079D01*
X137344Y232217D01*
X137294Y232356D01*
X137280Y232378D01*
X137270Y232403D01*
X137185Y232524D01*
X137105Y232649D01*
X137086Y232667D01*
X137071Y232689D01*
X136961Y232788D01*
X136854Y232891D01*
X136832Y232905D01*
X136812Y232922D01*
X136682Y232994D01*
X136555Y233070D01*
X136530Y233078D01*
X136507Y233091D01*
X136364Y233131D01*
X136223Y233176D01*
X136197Y233178D01*
X136172Y233186D01*
X135928Y233205D01*
X116548Y233205D01*
X116522Y233202D01*
X116496Y233204D01*
X116349Y233182D01*
X116202Y233165D01*
X116177Y233157D01*
X116151Y233153D01*
X116013Y233098D01*
X115874Y233048D01*
X115852Y233034D01*
X115827Y233024D01*
X115706Y232939D01*
X115581Y232859D01*
X115563Y232840D01*
X115541Y232825D01*
X115442Y232715D01*
X115339Y232608D01*
X115325Y232586D01*
X115308Y232566D01*
X115236Y232436D01*
X115160Y232309D01*
X115152Y232284D01*
X115139Y232261D01*
X115099Y232118D01*
X115054Y231977D01*
X115052Y231951D01*
X115044Y231926D01*
X115025Y231682D01*
X115025Y229868D01*
X114132Y228975D01*
X102868Y228975D01*
X101975Y229868D01*
X101975Y242132D01*
X102868Y243025D01*
X114132Y243025D01*
X115025Y242132D01*
X115025Y240318D01*
X115028Y240292D01*
X115026Y240266D01*
X115048Y240119D01*
X115065Y239972D01*
X115073Y239947D01*
X115077Y239921D01*
X115132Y239783D01*
X115182Y239644D01*
X115196Y239622D01*
X115206Y239597D01*
X115291Y239476D01*
X115371Y239351D01*
X115390Y239333D01*
X115405Y239311D01*
X115515Y239212D01*
X115622Y239109D01*
X115644Y239095D01*
X115664Y239078D01*
X115794Y239006D01*
X115921Y238930D01*
X115946Y238922D01*
X115969Y238909D01*
X116112Y238869D01*
X116253Y238824D01*
X116279Y238822D01*
X116304Y238814D01*
X116548Y238795D01*
X135928Y238795D01*
X135954Y238798D01*
X135980Y238796D01*
X136127Y238818D01*
X136274Y238835D01*
X136299Y238843D01*
X136325Y238847D01*
X136463Y238902D01*
X136602Y238952D01*
X136624Y238966D01*
X136649Y238976D01*
X136770Y239061D01*
X136895Y239141D01*
X136913Y239160D01*
X136935Y239175D01*
X137034Y239285D01*
X137137Y239392D01*
X137151Y239414D01*
X137168Y239434D01*
X137240Y239564D01*
X137316Y239691D01*
X137324Y239716D01*
X137337Y239739D01*
X137377Y239882D01*
X137422Y240023D01*
X137424Y240049D01*
X137432Y240074D01*
X137451Y240318D01*
X137451Y240413D01*
X137437Y240539D01*
X137430Y240665D01*
X137417Y240711D01*
X137411Y240759D01*
X137369Y240878D01*
X137334Y241000D01*
X137310Y241042D01*
X137294Y241087D01*
X137225Y241193D01*
X137164Y241304D01*
X137124Y241350D01*
X137105Y241380D01*
X137070Y241414D01*
X137005Y241490D01*
X135501Y242994D01*
X134693Y244944D01*
X134693Y247056D01*
X135501Y249006D01*
X136505Y250010D01*
X136584Y250109D01*
X136668Y250203D01*
X136692Y250245D01*
X136722Y250283D01*
X136776Y250397D01*
X136837Y250508D01*
X136850Y250554D01*
X136871Y250598D01*
X136897Y250721D01*
X136932Y250843D01*
X136937Y250904D01*
X136944Y250939D01*
X136943Y250987D01*
X136951Y251087D01*
X136951Y252152D01*
X136948Y252178D01*
X136950Y252204D01*
X136928Y252351D01*
X136911Y252498D01*
X136903Y252523D01*
X136899Y252549D01*
X136844Y252687D01*
X136794Y252826D01*
X136780Y252848D01*
X136770Y252873D01*
X136685Y252994D01*
X136605Y253119D01*
X136586Y253137D01*
X136571Y253159D01*
X136461Y253258D01*
X136354Y253361D01*
X136332Y253375D01*
X136312Y253392D01*
X136182Y253464D01*
X136055Y253540D01*
X136030Y253548D01*
X136007Y253561D01*
X135864Y253601D01*
X135723Y253646D01*
X135697Y253648D01*
X135672Y253656D01*
X135428Y253675D01*
X134368Y253675D01*
X133475Y254568D01*
X133475Y263186D01*
X133464Y263286D01*
X133462Y263386D01*
X133444Y263459D01*
X133435Y263532D01*
X133401Y263627D01*
X133377Y263724D01*
X133343Y263790D01*
X133318Y263861D01*
X133263Y263945D01*
X133217Y264034D01*
X133169Y264091D01*
X133129Y264153D01*
X133057Y264223D01*
X132992Y264300D01*
X132932Y264344D01*
X132878Y264396D01*
X132792Y264447D01*
X132711Y264507D01*
X132643Y264536D01*
X132579Y264574D01*
X132484Y264605D01*
X132391Y264645D01*
X132318Y264658D01*
X132247Y264681D01*
X132147Y264689D01*
X132048Y264706D01*
X131974Y264703D01*
X131900Y264709D01*
X131800Y264694D01*
X131700Y264689D01*
X131629Y264668D01*
X131555Y264657D01*
X131462Y264620D01*
X131365Y264592D01*
X131300Y264556D01*
X131231Y264528D01*
X131149Y264471D01*
X131061Y264422D01*
X130985Y264357D01*
X130945Y264329D01*
X130921Y264303D01*
X130875Y264263D01*
X129971Y263359D01*
X129892Y263260D01*
X129808Y263166D01*
X129784Y263124D01*
X129754Y263086D01*
X129700Y262972D01*
X129639Y262861D01*
X129626Y262815D01*
X129605Y262771D01*
X129579Y262648D01*
X129544Y262526D01*
X129539Y262465D01*
X129532Y262430D01*
X129533Y262382D01*
X129525Y262282D01*
X129525Y254568D01*
X128632Y253675D01*
X117368Y253675D01*
X116527Y254517D01*
X116507Y254533D01*
X116490Y254553D01*
X116370Y254641D01*
X116254Y254733D01*
X116230Y254744D01*
X116209Y254760D01*
X116073Y254819D01*
X115939Y254882D01*
X115913Y254888D01*
X115889Y254898D01*
X115743Y254924D01*
X115598Y254956D01*
X115572Y254955D01*
X115546Y254960D01*
X115398Y254952D01*
X115250Y254950D01*
X115224Y254943D01*
X115198Y254942D01*
X115056Y254901D01*
X114912Y254865D01*
X114889Y254853D01*
X114863Y254845D01*
X114734Y254773D01*
X114602Y254705D01*
X114582Y254688D01*
X114559Y254675D01*
X114373Y254517D01*
X113532Y253675D01*
X102268Y253675D01*
X101375Y254568D01*
X101375Y266832D01*
X102268Y267725D01*
X113532Y267725D01*
X114373Y266883D01*
X114393Y266867D01*
X114410Y266847D01*
X114530Y266759D01*
X114646Y266667D01*
X114670Y266656D01*
X114691Y266640D01*
X114827Y266581D01*
X114961Y266518D01*
X114987Y266512D01*
X115011Y266502D01*
X115157Y266476D01*
X115302Y266444D01*
X115328Y266445D01*
X115354Y266440D01*
X115502Y266448D01*
X115650Y266450D01*
X115676Y266457D01*
X115702Y266458D01*
X115844Y266499D01*
X115988Y266535D01*
X116011Y266547D01*
X116037Y266555D01*
X116166Y266627D01*
X116298Y266695D01*
X116318Y266712D01*
X116341Y266725D01*
X116527Y266883D01*
X117368Y267725D01*
X125082Y267725D01*
X125208Y267739D01*
X125334Y267746D01*
X125380Y267759D01*
X125428Y267765D01*
X125547Y267807D01*
X125669Y267842D01*
X125711Y267866D01*
X125757Y267882D01*
X125863Y267951D01*
X125973Y268012D01*
X126019Y268052D01*
X126049Y268071D01*
X126083Y268106D01*
X126159Y268171D01*
X178037Y320049D01*
X189633Y320049D01*
X193872Y315810D01*
X193892Y315794D01*
X193909Y315774D01*
X194029Y315686D01*
X194145Y315594D01*
X194169Y315582D01*
X194190Y315567D01*
X194326Y315508D01*
X194460Y315445D01*
X194486Y315439D01*
X194510Y315429D01*
X194656Y315402D01*
X194801Y315371D01*
X194827Y315372D01*
X194853Y315367D01*
X195001Y315375D01*
X195149Y315377D01*
X195175Y315384D01*
X195201Y315385D01*
X195343Y315426D01*
X195487Y315462D01*
X195510Y315474D01*
X195536Y315482D01*
X195665Y315554D01*
X195797Y315622D01*
X195817Y315639D01*
X195840Y315652D01*
X196026Y315810D01*
X200562Y320346D01*
X200676Y320363D01*
X200824Y320380D01*
X200848Y320389D01*
X200874Y320393D01*
X201012Y320448D01*
X201152Y320498D01*
X201174Y320512D01*
X201198Y320522D01*
X201320Y320606D01*
X201444Y320687D01*
X201463Y320706D01*
X201484Y320721D01*
X201583Y320831D01*
X201687Y320938D01*
X201700Y320960D01*
X201718Y320980D01*
X201789Y321109D01*
X201865Y321237D01*
X201873Y321262D01*
X201886Y321285D01*
X201927Y321428D01*
X201972Y321569D01*
X201974Y321595D01*
X201981Y321620D01*
X201994Y321778D01*
X203821Y323605D01*
X203883Y323683D01*
X203953Y323756D01*
X203991Y323820D01*
X204037Y323878D01*
X204080Y323969D01*
X204132Y324055D01*
X204155Y324126D01*
X204186Y324193D01*
X204207Y324291D01*
X204238Y324387D01*
X204244Y324461D01*
X204260Y324534D01*
X204258Y324634D01*
X204266Y324734D01*
X204255Y324808D01*
X204254Y324882D01*
X204229Y324979D01*
X204214Y325079D01*
X204187Y325148D01*
X204169Y325220D01*
X204123Y325309D01*
X204086Y325403D01*
X204043Y325464D01*
X204009Y325530D01*
X203944Y325606D01*
X203887Y325689D01*
X203832Y325739D01*
X203783Y325795D01*
X203702Y325855D01*
X203628Y325922D01*
X203563Y325958D01*
X203503Y326003D01*
X203411Y326042D01*
X203323Y326091D01*
X203251Y326111D01*
X203183Y326141D01*
X203084Y326158D01*
X202988Y326186D01*
X202887Y326194D01*
X202840Y326202D01*
X202804Y326200D01*
X202744Y326205D01*
X165668Y326205D01*
X165642Y326202D01*
X165616Y326204D01*
X165469Y326182D01*
X165322Y326165D01*
X165297Y326157D01*
X165271Y326153D01*
X165133Y326098D01*
X164994Y326048D01*
X164972Y326034D01*
X164947Y326024D01*
X164826Y325939D01*
X164701Y325859D01*
X164683Y325840D01*
X164661Y325825D01*
X164562Y325715D01*
X164459Y325608D01*
X164445Y325586D01*
X164428Y325566D01*
X164356Y325436D01*
X164336Y325404D01*
X158788Y319855D01*
X151212Y319855D01*
X145855Y325212D01*
X145855Y332788D01*
X151212Y338145D01*
X158788Y338145D01*
X164320Y332613D01*
X164326Y332597D01*
X164411Y332476D01*
X164491Y332351D01*
X164510Y332333D01*
X164525Y332311D01*
X164635Y332212D01*
X164742Y332109D01*
X164764Y332095D01*
X164784Y332078D01*
X164914Y332006D01*
X165041Y331930D01*
X165066Y331922D01*
X165089Y331909D01*
X165232Y331869D01*
X165373Y331824D01*
X165399Y331822D01*
X165424Y331814D01*
X165668Y331795D01*
X171516Y331795D01*
X171616Y331806D01*
X171716Y331808D01*
X171789Y331826D01*
X171862Y331835D01*
X171957Y331868D01*
X172054Y331893D01*
X172121Y331927D01*
X172191Y331952D01*
X172275Y332007D01*
X172364Y332053D01*
X172421Y332101D01*
X172483Y332141D01*
X172553Y332213D01*
X172630Y332278D01*
X172674Y332338D01*
X172726Y332392D01*
X172777Y332478D01*
X172837Y332559D01*
X172866Y332627D01*
X172904Y332691D01*
X172935Y332787D01*
X172975Y332879D01*
X172988Y332952D01*
X173011Y333023D01*
X173019Y333123D01*
X173036Y333222D01*
X173033Y333296D01*
X173039Y333370D01*
X173024Y333470D01*
X173019Y333570D01*
X172998Y333641D01*
X172987Y333715D01*
X172950Y333808D01*
X172922Y333905D01*
X172886Y333970D01*
X172858Y334039D01*
X172801Y334121D01*
X172752Y334209D01*
X172687Y334285D01*
X172659Y334325D01*
X172633Y334349D01*
X172593Y334395D01*
X160659Y346329D01*
X160659Y347592D01*
X172329Y359262D01*
X173592Y359262D01*
X182652Y350201D01*
X182751Y350123D01*
X182845Y350038D01*
X182887Y350015D01*
X182925Y349985D01*
X183039Y349931D01*
X183150Y349870D01*
X183197Y349856D01*
X183240Y349836D01*
X183364Y349809D01*
X183486Y349775D01*
X183546Y349770D01*
X183581Y349762D01*
X183629Y349763D01*
X183729Y349755D01*
X228197Y349755D01*
X255795Y322158D01*
X255795Y316641D01*
X255806Y316541D01*
X255808Y316440D01*
X255826Y316368D01*
X255835Y316294D01*
X255868Y316200D01*
X255893Y316102D01*
X255927Y316036D01*
X255952Y315966D01*
X256007Y315882D01*
X256053Y315793D01*
X256101Y315736D01*
X256141Y315673D01*
X256213Y315604D01*
X256278Y315527D01*
X256338Y315483D01*
X256392Y315431D01*
X256478Y315380D01*
X256559Y315320D01*
X256627Y315291D01*
X256691Y315252D01*
X256787Y315222D01*
X256879Y315182D01*
X256952Y315169D01*
X257023Y315146D01*
X257123Y315138D01*
X257222Y315120D01*
X257296Y315124D01*
X257370Y315118D01*
X257470Y315133D01*
X257570Y315138D01*
X257641Y315159D01*
X257715Y315170D01*
X257808Y315207D01*
X257905Y315235D01*
X257970Y315271D01*
X258039Y315299D01*
X258121Y315356D01*
X258209Y315405D01*
X258285Y315470D01*
X258325Y315498D01*
X258349Y315524D01*
X258395Y315563D01*
X261505Y318674D01*
X261584Y318773D01*
X261668Y318866D01*
X261692Y318909D01*
X261722Y318947D01*
X261776Y319061D01*
X261837Y319171D01*
X261850Y319218D01*
X261871Y319262D01*
X261897Y319385D01*
X261932Y319507D01*
X261937Y319568D01*
X261944Y319602D01*
X261943Y319650D01*
X261951Y319751D01*
X261951Y324106D01*
X261937Y324232D01*
X261930Y324358D01*
X261917Y324404D01*
X261911Y324452D01*
X261869Y324571D01*
X261834Y324693D01*
X261810Y324735D01*
X261794Y324781D01*
X261725Y324887D01*
X261664Y324997D01*
X261624Y325043D01*
X261605Y325073D01*
X261570Y325107D01*
X261505Y325183D01*
X211183Y375505D01*
X211084Y375584D01*
X210990Y375668D01*
X210948Y375692D01*
X210910Y375722D01*
X210796Y375776D01*
X210685Y375837D01*
X210639Y375850D01*
X210595Y375871D01*
X210472Y375897D01*
X210350Y375932D01*
X210289Y375937D01*
X210254Y375944D01*
X210206Y375943D01*
X210106Y375951D01*
X182237Y375951D01*
X180005Y378183D01*
X171659Y386529D01*
X171560Y386608D01*
X171466Y386692D01*
X171424Y386716D01*
X171386Y386746D01*
X171272Y386800D01*
X171161Y386861D01*
X171115Y386874D01*
X171071Y386895D01*
X170948Y386921D01*
X170826Y386956D01*
X170765Y386961D01*
X170731Y386968D01*
X170683Y386967D01*
X170582Y386975D01*
X165368Y386975D01*
X164475Y387868D01*
X164475Y397132D01*
X165368Y398025D01*
X174632Y398025D01*
X175525Y397132D01*
X175525Y391918D01*
X175527Y391902D01*
X175526Y391890D01*
X175535Y391825D01*
X175539Y391792D01*
X175546Y391666D01*
X175559Y391620D01*
X175565Y391572D01*
X175607Y391453D01*
X175642Y391331D01*
X175666Y391289D01*
X175682Y391243D01*
X175751Y391137D01*
X175812Y391027D01*
X175852Y390981D01*
X175871Y390951D01*
X175906Y390917D01*
X175971Y390841D01*
X184317Y382495D01*
X184416Y382416D01*
X184510Y382332D01*
X184552Y382308D01*
X184590Y382278D01*
X184704Y382224D01*
X184815Y382163D01*
X184861Y382150D01*
X184905Y382129D01*
X185028Y382103D01*
X185150Y382068D01*
X185211Y382063D01*
X185246Y382056D01*
X185294Y382057D01*
X185394Y382049D01*
X213263Y382049D01*
X215495Y379817D01*
X264351Y330961D01*
X264429Y330898D01*
X264502Y330828D01*
X264566Y330790D01*
X264624Y330744D01*
X264715Y330701D01*
X264801Y330650D01*
X264872Y330627D01*
X264939Y330595D01*
X265037Y330574D01*
X265133Y330543D01*
X265207Y330537D01*
X265280Y330522D01*
X265380Y330523D01*
X265480Y330515D01*
X265554Y330526D01*
X265628Y330528D01*
X265725Y330552D01*
X265825Y330567D01*
X265894Y330595D01*
X265966Y330613D01*
X266056Y330659D01*
X266149Y330696D01*
X266210Y330738D01*
X266276Y330772D01*
X266353Y330838D01*
X266435Y330895D01*
X266485Y330950D01*
X266541Y330998D01*
X266601Y331079D01*
X266668Y331154D01*
X266704Y331219D01*
X266749Y331278D01*
X266788Y331371D01*
X266837Y331459D01*
X266857Y331530D01*
X266887Y331598D01*
X266904Y331697D01*
X266932Y331794D01*
X266940Y331894D01*
X266948Y331941D01*
X266946Y331977D01*
X266951Y332038D01*
X266951Y335106D01*
X266937Y335232D01*
X266930Y335358D01*
X266917Y335404D01*
X266911Y335452D01*
X266869Y335571D01*
X266834Y335693D01*
X266810Y335735D01*
X266794Y335781D01*
X266725Y335887D01*
X266664Y335997D01*
X266624Y336043D01*
X266605Y336073D01*
X266570Y336107D01*
X266505Y336183D01*
X213683Y389005D01*
X213584Y389084D01*
X213490Y389168D01*
X213448Y389192D01*
X213410Y389222D01*
X213296Y389276D01*
X213185Y389337D01*
X213139Y389350D01*
X213095Y389371D01*
X212972Y389397D01*
X212850Y389432D01*
X212789Y389437D01*
X212754Y389444D01*
X212706Y389443D01*
X212606Y389451D01*
X207048Y389451D01*
X207022Y389448D01*
X206996Y389450D01*
X206849Y389428D01*
X206702Y389411D01*
X206677Y389403D01*
X206651Y389399D01*
X206513Y389344D01*
X206374Y389294D01*
X206352Y389280D01*
X206327Y389270D01*
X206206Y389185D01*
X206081Y389105D01*
X206063Y389086D01*
X206041Y389071D01*
X205942Y388961D01*
X205839Y388854D01*
X205825Y388832D01*
X205808Y388812D01*
X205736Y388682D01*
X205660Y388555D01*
X205652Y388530D01*
X205639Y388507D01*
X205599Y388364D01*
X205554Y388223D01*
X205552Y388197D01*
X205544Y388172D01*
X205525Y387928D01*
X205525Y387868D01*
X204632Y386975D01*
X195368Y386975D01*
X194475Y387868D01*
X194475Y397132D01*
X195368Y398025D01*
X204632Y398025D01*
X205525Y397132D01*
X205525Y397072D01*
X205528Y397046D01*
X205526Y397020D01*
X205548Y396873D01*
X205565Y396726D01*
X205573Y396701D01*
X205577Y396675D01*
X205632Y396537D01*
X205682Y396398D01*
X205696Y396376D01*
X205706Y396351D01*
X205791Y396230D01*
X205871Y396105D01*
X205890Y396087D01*
X205905Y396065D01*
X206015Y395966D01*
X206122Y395863D01*
X206144Y395849D01*
X206164Y395832D01*
X206294Y395760D01*
X206421Y395684D01*
X206446Y395676D01*
X206469Y395663D01*
X206612Y395623D01*
X206753Y395578D01*
X206779Y395576D01*
X206804Y395568D01*
X207048Y395549D01*
X215763Y395549D01*
X217995Y393317D01*
X221875Y389437D01*
X221953Y389374D01*
X222026Y389304D01*
X222090Y389266D01*
X222148Y389220D01*
X222239Y389177D01*
X222325Y389126D01*
X222396Y389103D01*
X222463Y389071D01*
X222561Y389050D01*
X222657Y389019D01*
X222731Y389013D01*
X222804Y388998D01*
X222904Y388999D01*
X223004Y388991D01*
X223078Y389002D01*
X223152Y389004D01*
X223249Y389028D01*
X223349Y389043D01*
X223418Y389071D01*
X223490Y389089D01*
X223580Y389135D01*
X223673Y389172D01*
X223734Y389214D01*
X223800Y389248D01*
X223877Y389314D01*
X223959Y389371D01*
X224009Y389426D01*
X224065Y389474D01*
X224125Y389555D01*
X224192Y389630D01*
X224228Y389695D01*
X224273Y389754D01*
X224312Y389847D01*
X224361Y389935D01*
X224381Y390006D01*
X224411Y390074D01*
X224428Y390173D01*
X224456Y390270D01*
X224464Y390370D01*
X224472Y390417D01*
X224470Y390453D01*
X224475Y390514D01*
X224475Y397132D01*
X225368Y398025D01*
X234632Y398025D01*
X235525Y397132D01*
X235525Y391918D01*
X235527Y391902D01*
X235526Y391890D01*
X235535Y391825D01*
X235539Y391792D01*
X235546Y391666D01*
X235559Y391620D01*
X235565Y391572D01*
X235607Y391453D01*
X235642Y391331D01*
X235666Y391289D01*
X235682Y391243D01*
X235751Y391137D01*
X235812Y391027D01*
X235852Y390981D01*
X235871Y390951D01*
X235906Y390917D01*
X235971Y390841D01*
X276817Y349995D01*
X279049Y347763D01*
X279049Y304967D01*
X278782Y304700D01*
X278689Y304582D01*
X278591Y304467D01*
X278580Y304446D01*
X278565Y304427D01*
X278501Y304290D01*
X278433Y304157D01*
X278427Y304134D01*
X278416Y304112D01*
X278385Y303964D01*
X278348Y303819D01*
X278348Y303795D01*
X278343Y303771D01*
X278346Y303621D01*
X278343Y303470D01*
X278349Y303447D01*
X278349Y303423D01*
X278386Y303277D01*
X278418Y303130D01*
X278428Y303108D01*
X278434Y303085D01*
X278503Y302951D01*
X278567Y302815D01*
X278582Y302796D01*
X278594Y302775D01*
X278691Y302660D01*
X278785Y302543D01*
X278804Y302528D01*
X278819Y302509D01*
X278940Y302420D01*
X279058Y302327D01*
X279084Y302314D01*
X279100Y302302D01*
X279143Y302283D01*
X279276Y302215D01*
X281006Y301499D01*
X282499Y300006D01*
X283307Y298056D01*
X283307Y295944D01*
X282499Y293994D01*
X281006Y292501D01*
X279056Y291693D01*
X277720Y291693D01*
X277594Y291679D01*
X277468Y291672D01*
X277422Y291659D01*
X277374Y291653D01*
X277255Y291611D01*
X277133Y291576D01*
X277091Y291552D01*
X277046Y291536D01*
X276939Y291467D01*
X276829Y291406D01*
X276783Y291366D01*
X276753Y291347D01*
X276719Y291312D01*
X276643Y291247D01*
X274267Y288871D01*
X274251Y288851D01*
X274231Y288834D01*
X274142Y288714D01*
X274050Y288598D01*
X274039Y288575D01*
X274024Y288553D01*
X273965Y288417D01*
X273902Y288283D01*
X273896Y288257D01*
X273886Y288233D01*
X273859Y288087D01*
X273828Y287942D01*
X273829Y287916D01*
X273824Y287890D01*
X273832Y287742D01*
X273834Y287594D01*
X273841Y287569D01*
X273842Y287542D01*
X273883Y287400D01*
X273919Y287256D01*
X273931Y287233D01*
X273938Y287207D01*
X274011Y287078D01*
X274079Y286946D01*
X274096Y286926D01*
X274109Y286903D01*
X274267Y286717D01*
X278797Y282187D01*
X278797Y280354D01*
X267320Y268877D01*
X267304Y268857D01*
X267284Y268840D01*
X267196Y268720D01*
X267104Y268604D01*
X267093Y268580D01*
X267077Y268559D01*
X267018Y268423D01*
X266955Y268289D01*
X266949Y268263D01*
X266939Y268239D01*
X266913Y268093D01*
X266882Y267948D01*
X266882Y267922D01*
X266877Y267896D01*
X266885Y267748D01*
X266888Y267600D01*
X266894Y267574D01*
X266895Y267548D01*
X266936Y267406D01*
X266973Y267262D01*
X266985Y267238D01*
X266992Y267213D01*
X267064Y267084D01*
X267132Y266952D01*
X267149Y266932D01*
X267162Y266909D01*
X267320Y266723D01*
X278797Y255246D01*
X278797Y254143D01*
X278812Y254017D01*
X278818Y253891D01*
X278832Y253845D01*
X278837Y253797D01*
X278880Y253678D01*
X278915Y253556D01*
X278938Y253514D01*
X278955Y253469D01*
X279023Y253362D01*
X279085Y253252D01*
X279124Y253206D01*
X279144Y253176D01*
X279179Y253142D01*
X279244Y253066D01*
X299249Y233061D01*
X299249Y195137D01*
X290671Y186559D01*
X290592Y186460D01*
X290508Y186366D01*
X290484Y186324D01*
X290454Y186286D01*
X290400Y186172D01*
X290339Y186061D01*
X290326Y186015D01*
X290305Y185971D01*
X290279Y185848D01*
X290244Y185726D01*
X290239Y185665D01*
X290232Y185630D01*
X290233Y185582D01*
X290225Y185482D01*
X290225Y177768D01*
X289332Y176875D01*
X277068Y176875D01*
X276175Y177768D01*
X276175Y189032D01*
X277068Y189925D01*
X284782Y189925D01*
X284908Y189939D01*
X285034Y189946D01*
X285080Y189959D01*
X285128Y189965D01*
X285247Y190007D01*
X285369Y190042D01*
X285411Y190066D01*
X285457Y190082D01*
X285563Y190151D01*
X285673Y190212D01*
X285719Y190252D01*
X285749Y190271D01*
X285783Y190306D01*
X285859Y190371D01*
X292705Y197217D01*
X292784Y197316D01*
X292868Y197410D01*
X292892Y197452D01*
X292922Y197490D01*
X292976Y197604D01*
X293037Y197715D01*
X293050Y197761D01*
X293071Y197805D01*
X293097Y197928D01*
X293132Y198050D01*
X293137Y198111D01*
X293144Y198146D01*
X293143Y198194D01*
X293151Y198294D01*
X293151Y229904D01*
X293137Y230030D01*
X293130Y230156D01*
X293117Y230202D01*
X293111Y230250D01*
X293069Y230369D01*
X293034Y230491D01*
X293010Y230533D01*
X292994Y230578D01*
X292925Y230685D01*
X292864Y230795D01*
X292824Y230841D01*
X292805Y230871D01*
X292770Y230905D01*
X292705Y230981D01*
X290664Y233022D01*
X290625Y233054D01*
X290591Y233091D01*
X290488Y233162D01*
X290391Y233239D01*
X290346Y233260D01*
X290304Y233289D01*
X290189Y233335D01*
X290076Y233388D01*
X290027Y233398D01*
X289980Y233417D01*
X289857Y233435D01*
X289735Y233461D01*
X289685Y233460D01*
X289635Y233468D01*
X289511Y233457D01*
X289387Y233455D01*
X289338Y233443D01*
X289288Y233439D01*
X289169Y233401D01*
X289049Y233370D01*
X289004Y233347D01*
X288956Y233332D01*
X288850Y233268D01*
X288739Y233211D01*
X288701Y233178D01*
X288658Y233152D01*
X288568Y233065D01*
X288474Y232985D01*
X288444Y232944D01*
X288408Y232909D01*
X288340Y232805D01*
X288266Y232704D01*
X288246Y232658D01*
X288219Y232616D01*
X288178Y232499D01*
X288128Y232384D01*
X288120Y232335D01*
X288103Y232287D01*
X288089Y232164D01*
X288067Y232041D01*
X288069Y231991D01*
X288064Y231941D01*
X288078Y231818D01*
X288085Y231693D01*
X288099Y231645D01*
X288105Y231595D01*
X288180Y231362D01*
X288307Y231056D01*
X288307Y228944D01*
X287499Y226994D01*
X286495Y225990D01*
X286416Y225891D01*
X286332Y225797D01*
X286308Y225755D01*
X286278Y225717D01*
X286224Y225603D01*
X286163Y225492D01*
X286150Y225446D01*
X286129Y225402D01*
X286103Y225279D01*
X286068Y225157D01*
X286063Y225096D01*
X286056Y225061D01*
X286057Y225013D01*
X286049Y224913D01*
X286049Y208737D01*
X283817Y206505D01*
X269011Y191699D01*
X268995Y191679D01*
X268975Y191662D01*
X268886Y191543D01*
X268794Y191426D01*
X268783Y191403D01*
X268768Y191382D01*
X268709Y191245D01*
X268645Y191111D01*
X268640Y191086D01*
X268630Y191062D01*
X268603Y190915D01*
X268572Y190771D01*
X268573Y190745D01*
X268568Y190719D01*
X268576Y190570D01*
X268578Y190422D01*
X268584Y190397D01*
X268586Y190371D01*
X268627Y190228D01*
X268663Y190084D01*
X268675Y190061D01*
X268682Y190036D01*
X268755Y189907D01*
X268823Y189774D01*
X268840Y189754D01*
X268853Y189732D01*
X269011Y189545D01*
X269525Y189032D01*
X269525Y177768D01*
X268632Y176875D01*
X256368Y176875D01*
X255475Y177768D01*
X255475Y188486D01*
X255464Y188586D01*
X255462Y188686D01*
X255444Y188759D01*
X255435Y188832D01*
X255402Y188927D01*
X255377Y189024D01*
X255343Y189091D01*
X255318Y189161D01*
X255263Y189245D01*
X255217Y189334D01*
X255169Y189391D01*
X255129Y189453D01*
X255057Y189523D01*
X254992Y189600D01*
X254932Y189644D01*
X254878Y189696D01*
X254792Y189747D01*
X254711Y189807D01*
X254643Y189836D01*
X254579Y189874D01*
X254483Y189905D01*
X254391Y189945D01*
X254318Y189958D01*
X254247Y189981D01*
X254147Y189989D01*
X254048Y190006D01*
X253974Y190003D01*
X253900Y190009D01*
X253800Y189994D01*
X253700Y189989D01*
X253629Y189968D01*
X253555Y189957D01*
X253462Y189920D01*
X253365Y189892D01*
X253300Y189856D01*
X253231Y189828D01*
X253149Y189771D01*
X253061Y189722D01*
X252985Y189657D01*
X252945Y189629D01*
X252921Y189603D01*
X252875Y189563D01*
X243753Y180441D01*
X243674Y180342D01*
X243590Y180248D01*
X243566Y180206D01*
X243536Y180168D01*
X243482Y180054D01*
X243421Y179943D01*
X243408Y179897D01*
X243387Y179853D01*
X243361Y179730D01*
X243326Y179608D01*
X243321Y179547D01*
X243314Y179512D01*
X243315Y179464D01*
X243307Y179364D01*
X243307Y177944D01*
X242499Y175994D01*
X241006Y174501D01*
X239056Y173693D01*
X236944Y173693D01*
X234994Y174501D01*
X233501Y175994D01*
X232693Y177944D01*
X232693Y180056D01*
X233501Y182006D01*
X234994Y183499D01*
X236944Y184307D01*
X238364Y184307D01*
X238490Y184321D01*
X238616Y184328D01*
X238662Y184341D01*
X238710Y184347D01*
X238829Y184389D01*
X238951Y184424D01*
X238993Y184448D01*
X239039Y184464D01*
X239145Y184533D01*
X239255Y184594D01*
X239301Y184634D01*
X239331Y184653D01*
X239365Y184688D01*
X239441Y184753D01*
X266101Y211413D01*
X266180Y211512D01*
X266265Y211606D01*
X266288Y211648D01*
X266318Y211686D01*
X266372Y211800D01*
X266433Y211911D01*
X266446Y211957D01*
X266467Y212001D01*
X266493Y212124D01*
X266528Y212246D01*
X266533Y212307D01*
X266540Y212342D01*
X266539Y212390D01*
X266547Y212490D01*
X266547Y213913D01*
X266536Y214013D01*
X266534Y214113D01*
X266516Y214185D01*
X266508Y214259D01*
X266474Y214354D01*
X266449Y214451D01*
X266415Y214517D01*
X266390Y214587D01*
X266336Y214672D01*
X266290Y214761D01*
X266241Y214818D01*
X266201Y214880D01*
X266129Y214950D01*
X266064Y215026D01*
X266004Y215071D01*
X265950Y215122D01*
X265864Y215174D01*
X265783Y215233D01*
X265715Y215263D01*
X265651Y215301D01*
X265556Y215332D01*
X265463Y215371D01*
X265390Y215385D01*
X265319Y215407D01*
X265219Y215415D01*
X265120Y215433D01*
X265046Y215429D01*
X264972Y215435D01*
X264873Y215420D01*
X264772Y215415D01*
X264701Y215395D01*
X264627Y215384D01*
X264534Y215347D01*
X264438Y215319D01*
X264372Y215282D01*
X264303Y215255D01*
X264221Y215198D01*
X264133Y215149D01*
X264057Y215083D01*
X264017Y215056D01*
X263994Y215030D01*
X263947Y214990D01*
X262671Y213714D01*
X262092Y213379D01*
X261445Y213206D01*
X260776Y213206D01*
X260130Y213379D01*
X259551Y213714D01*
X257369Y215895D01*
X261481Y220007D01*
X261497Y220027D01*
X261517Y220044D01*
X261605Y220164D01*
X261697Y220280D01*
X261709Y220304D01*
X261724Y220325D01*
X261783Y220461D01*
X261846Y220595D01*
X261852Y220621D01*
X261862Y220645D01*
X261888Y220791D01*
X261920Y220936D01*
X261919Y220962D01*
X261924Y220988D01*
X261916Y221136D01*
X261914Y221284D01*
X261907Y221310D01*
X261906Y221336D01*
X261865Y221478D01*
X261829Y221622D01*
X261817Y221645D01*
X261809Y221671D01*
X261737Y221800D01*
X261669Y221932D01*
X261652Y221952D01*
X261639Y221975D01*
X261481Y222161D01*
X261161Y222481D01*
X261141Y222497D01*
X261124Y222517D01*
X261004Y222605D01*
X260888Y222697D01*
X260864Y222709D01*
X260843Y222724D01*
X260707Y222783D01*
X260573Y222846D01*
X260547Y222852D01*
X260523Y222862D01*
X260377Y222889D01*
X260232Y222920D01*
X260206Y222919D01*
X260180Y222924D01*
X260032Y222916D01*
X259884Y222914D01*
X259858Y222907D01*
X259832Y222906D01*
X259690Y222865D01*
X259546Y222829D01*
X259523Y222817D01*
X259497Y222809D01*
X259368Y222737D01*
X259236Y222669D01*
X259216Y222652D01*
X259193Y222639D01*
X259007Y222481D01*
X254895Y218369D01*
X252714Y220551D01*
X252379Y221130D01*
X252206Y221776D01*
X252206Y222445D01*
X252337Y222933D01*
X252355Y223057D01*
X252382Y223179D01*
X252381Y223228D01*
X252388Y223278D01*
X252378Y223402D01*
X252376Y223527D01*
X252363Y223576D01*
X252359Y223625D01*
X252321Y223744D01*
X252291Y223865D01*
X252268Y223910D01*
X252253Y223957D01*
X252188Y224064D01*
X252131Y224175D01*
X252099Y224213D01*
X252073Y224256D01*
X251986Y224345D01*
X251905Y224441D01*
X251865Y224470D01*
X251831Y224506D01*
X251725Y224573D01*
X251625Y224648D01*
X251579Y224667D01*
X251537Y224694D01*
X251420Y224736D01*
X251305Y224786D01*
X251256Y224794D01*
X251209Y224811D01*
X251085Y224825D01*
X250962Y224847D01*
X250912Y224845D01*
X250863Y224850D01*
X250739Y224836D01*
X250614Y224829D01*
X250566Y224816D01*
X250517Y224810D01*
X250399Y224768D01*
X250279Y224733D01*
X250236Y224709D01*
X250189Y224692D01*
X250084Y224624D01*
X249975Y224563D01*
X249927Y224522D01*
X249896Y224502D01*
X249863Y224468D01*
X249788Y224404D01*
X246295Y220910D01*
X246181Y220893D01*
X246033Y220876D01*
X246009Y220868D01*
X245983Y220864D01*
X245845Y220809D01*
X245705Y220759D01*
X245683Y220745D01*
X245659Y220735D01*
X245537Y220650D01*
X245412Y220570D01*
X245394Y220551D01*
X245373Y220536D01*
X245274Y220426D01*
X245170Y220319D01*
X245157Y220297D01*
X245139Y220277D01*
X245067Y220147D01*
X244991Y220020D01*
X244983Y219995D01*
X244971Y219972D01*
X244930Y219829D01*
X244885Y219688D01*
X244883Y219662D01*
X244876Y219637D01*
X244863Y219479D01*
X240638Y215254D01*
X240524Y215237D01*
X240376Y215220D01*
X240352Y215211D01*
X240326Y215207D01*
X240188Y215152D01*
X240048Y215102D01*
X240026Y215088D01*
X240002Y215078D01*
X239880Y214994D01*
X239756Y214913D01*
X239737Y214894D01*
X239716Y214879D01*
X239617Y214769D01*
X239513Y214662D01*
X239500Y214640D01*
X239482Y214620D01*
X239411Y214490D01*
X239335Y214363D01*
X239327Y214338D01*
X239314Y214315D01*
X239273Y214172D01*
X239228Y214031D01*
X239226Y214005D01*
X239219Y213980D01*
X239206Y213822D01*
X234987Y209603D01*
X233154Y209603D01*
X221677Y221080D01*
X221657Y221096D01*
X221640Y221116D01*
X221520Y221204D01*
X221404Y221296D01*
X221380Y221307D01*
X221359Y221323D01*
X221223Y221382D01*
X221089Y221445D01*
X221063Y221451D01*
X221039Y221461D01*
X220893Y221487D01*
X220748Y221518D01*
X220722Y221518D01*
X220696Y221523D01*
X220548Y221515D01*
X220400Y221512D01*
X220374Y221506D01*
X220348Y221505D01*
X220206Y221464D01*
X220062Y221427D01*
X220038Y221415D01*
X220013Y221408D01*
X219884Y221336D01*
X219752Y221268D01*
X219732Y221251D01*
X219709Y221238D01*
X219523Y221080D01*
X208046Y209603D01*
X206213Y209603D01*
X201995Y213821D01*
X201978Y213935D01*
X201961Y214082D01*
X201952Y214107D01*
X201948Y214133D01*
X201893Y214271D01*
X201843Y214410D01*
X201829Y214433D01*
X201819Y214457D01*
X201735Y214578D01*
X201654Y214703D01*
X201635Y214722D01*
X201620Y214743D01*
X201510Y214842D01*
X201404Y214945D01*
X201381Y214959D01*
X201362Y214977D01*
X201232Y215048D01*
X201104Y215124D01*
X201079Y215132D01*
X201056Y215145D01*
X200914Y215185D01*
X200772Y215231D01*
X200746Y215233D01*
X200721Y215240D01*
X200563Y215252D01*
X196338Y219478D01*
X196321Y219592D01*
X196304Y219739D01*
X196295Y219764D01*
X196291Y219790D01*
X196236Y219928D01*
X196186Y220067D01*
X196172Y220089D01*
X196162Y220114D01*
X196078Y220235D01*
X195997Y220360D01*
X195978Y220378D01*
X195963Y220400D01*
X195854Y220499D01*
X195747Y220602D01*
X195724Y220616D01*
X195705Y220633D01*
X195575Y220705D01*
X195448Y220781D01*
X195423Y220789D01*
X195400Y220802D01*
X195257Y220842D01*
X195116Y220887D01*
X195090Y220889D01*
X195064Y220897D01*
X194906Y220909D01*
X190681Y225135D01*
X190664Y225249D01*
X190647Y225396D01*
X190638Y225421D01*
X190634Y225447D01*
X190579Y225585D01*
X190529Y225724D01*
X190515Y225746D01*
X190506Y225771D01*
X190421Y225892D01*
X190340Y226017D01*
X190322Y226035D01*
X190307Y226057D01*
X190197Y226156D01*
X190090Y226259D01*
X190067Y226273D01*
X190048Y226290D01*
X189918Y226362D01*
X189791Y226438D01*
X189766Y226446D01*
X189743Y226459D01*
X189600Y226499D01*
X189459Y226544D01*
X189433Y226546D01*
X189407Y226554D01*
X189250Y226566D01*
X185024Y230792D01*
X185007Y230906D01*
X184990Y231053D01*
X184981Y231078D01*
X184977Y231104D01*
X184923Y231241D01*
X184873Y231381D01*
X184858Y231403D01*
X184849Y231427D01*
X184764Y231549D01*
X184684Y231674D01*
X184665Y231692D01*
X184650Y231714D01*
X184540Y231813D01*
X184433Y231916D01*
X184410Y231930D01*
X184391Y231947D01*
X184261Y232019D01*
X184134Y232095D01*
X184109Y232103D01*
X184086Y232116D01*
X183943Y232156D01*
X183802Y232201D01*
X183776Y232203D01*
X183751Y232210D01*
X183593Y232223D01*
X179056Y236760D01*
X179035Y236777D01*
X179018Y236797D01*
X178898Y236885D01*
X178783Y236977D01*
X178759Y236988D01*
X178738Y237004D01*
X178601Y237063D01*
X178467Y237126D01*
X178442Y237131D01*
X178418Y237142D01*
X178271Y237168D01*
X178127Y237199D01*
X178101Y237199D01*
X178075Y237203D01*
X177926Y237196D01*
X177778Y237193D01*
X177753Y237187D01*
X177727Y237186D01*
X177584Y237144D01*
X177440Y237108D01*
X177417Y237096D01*
X177392Y237089D01*
X177262Y237017D01*
X177130Y236949D01*
X177110Y236932D01*
X177088Y236919D01*
X176901Y236760D01*
X157092Y216951D01*
X147048Y216951D01*
X147022Y216948D01*
X146996Y216950D01*
X146849Y216928D01*
X146702Y216911D01*
X146677Y216903D01*
X146651Y216899D01*
X146513Y216844D01*
X146374Y216794D01*
X146352Y216780D01*
X146327Y216770D01*
X146206Y216685D01*
X146081Y216605D01*
X146063Y216586D01*
X146041Y216571D01*
X145942Y216461D01*
X145839Y216354D01*
X145825Y216332D01*
X145808Y216312D01*
X145736Y216182D01*
X145660Y216055D01*
X145652Y216030D01*
X145639Y216007D01*
X145599Y215864D01*
X145554Y215723D01*
X145552Y215697D01*
X145544Y215672D01*
X145525Y215428D01*
X145525Y214868D01*
X144781Y214125D01*
X144719Y214046D01*
X144649Y213974D01*
X144611Y213910D01*
X144565Y213852D01*
X144522Y213761D01*
X144470Y213675D01*
X144448Y213604D01*
X144416Y213537D01*
X144395Y213439D01*
X144364Y213343D01*
X144358Y213269D01*
X144342Y213196D01*
X144344Y213096D01*
X144336Y212996D01*
X144347Y212922D01*
X144348Y212848D01*
X144373Y212751D01*
X144388Y212651D01*
X144415Y212582D01*
X144433Y212510D01*
X144479Y212421D01*
X144517Y212327D01*
X144559Y212266D01*
X144593Y212200D01*
X144658Y212124D01*
X144715Y212041D01*
X144771Y211991D01*
X144819Y211935D01*
X144900Y211875D01*
X144974Y211808D01*
X145039Y211772D01*
X145099Y211727D01*
X145191Y211688D01*
X145279Y211639D01*
X145351Y211619D01*
X145419Y211589D01*
X145518Y211572D01*
X145615Y211544D01*
X145715Y211536D01*
X145762Y211528D01*
X145798Y211530D01*
X145858Y211525D01*
X148132Y211525D01*
X149025Y210632D01*
X149025Y199368D01*
X148132Y198475D01*
X135868Y198475D01*
X134577Y199767D01*
X134557Y199783D01*
X134540Y199803D01*
X134420Y199891D01*
X134304Y199983D01*
X134280Y199994D01*
X134259Y200010D01*
X134123Y200069D01*
X133989Y200132D01*
X133963Y200138D01*
X133939Y200148D01*
X133793Y200174D01*
X133648Y200206D01*
X133622Y200205D01*
X133596Y200210D01*
X133448Y200202D01*
X133300Y200200D01*
X133274Y200193D01*
X133248Y200192D01*
X133106Y200151D01*
X132962Y200115D01*
X132939Y200103D01*
X132913Y200095D01*
X132784Y200023D01*
X132652Y199955D01*
X132632Y199938D01*
X132609Y199925D01*
X132423Y199767D01*
X131132Y198475D01*
X125358Y198475D01*
X125259Y198464D01*
X125158Y198462D01*
X125086Y198444D01*
X125012Y198435D01*
X124918Y198401D01*
X124820Y198377D01*
X124754Y198343D01*
X124684Y198318D01*
X124600Y198263D01*
X124510Y198217D01*
X124454Y198169D01*
X124391Y198129D01*
X124322Y198057D01*
X124245Y197992D01*
X124201Y197932D01*
X124149Y197878D01*
X124098Y197792D01*
X124038Y197711D01*
X124008Y197643D01*
X123970Y197579D01*
X123940Y197483D01*
X123900Y197391D01*
X123887Y197318D01*
X123864Y197247D01*
X123856Y197147D01*
X123838Y197048D01*
X123842Y196974D01*
X123836Y196900D01*
X123851Y196800D01*
X123856Y196700D01*
X123877Y196629D01*
X123888Y196555D01*
X123925Y196462D01*
X123953Y196365D01*
X123989Y196300D01*
X124017Y196231D01*
X124074Y196149D01*
X124123Y196061D01*
X124188Y195985D01*
X124215Y195945D01*
X124242Y195921D01*
X124281Y195875D01*
X125025Y195132D01*
X125025Y194072D01*
X125028Y194046D01*
X125026Y194020D01*
X125048Y193873D01*
X125065Y193726D01*
X125073Y193701D01*
X125077Y193675D01*
X125132Y193537D01*
X125182Y193398D01*
X125196Y193376D01*
X125206Y193351D01*
X125291Y193229D01*
X125371Y193105D01*
X125390Y193087D01*
X125405Y193065D01*
X125515Y192966D01*
X125622Y192863D01*
X125644Y192849D01*
X125664Y192832D01*
X125794Y192760D01*
X125921Y192684D01*
X125946Y192676D01*
X125969Y192663D01*
X126112Y192623D01*
X126253Y192578D01*
X126279Y192576D01*
X126304Y192568D01*
X126548Y192549D01*
X164606Y192549D01*
X164732Y192563D01*
X164858Y192570D01*
X164904Y192583D01*
X164952Y192589D01*
X165071Y192631D01*
X165193Y192666D01*
X165235Y192690D01*
X165281Y192706D01*
X165387Y192775D01*
X165497Y192836D01*
X165543Y192876D01*
X165573Y192895D01*
X165607Y192930D01*
X165683Y192995D01*
X172247Y199559D01*
X172326Y199658D01*
X172410Y199752D01*
X172434Y199794D01*
X172464Y199832D01*
X172518Y199946D01*
X172579Y200057D01*
X172592Y200103D01*
X172613Y200147D01*
X172639Y200270D01*
X172674Y200392D01*
X172679Y200453D01*
X172686Y200488D01*
X172685Y200536D01*
X172693Y200636D01*
X172693Y202056D01*
X173501Y204006D01*
X174994Y205499D01*
X176944Y206307D01*
X179056Y206307D01*
X181006Y205499D01*
X182499Y204006D01*
X183307Y202056D01*
X183307Y199944D01*
X182499Y197994D01*
X181006Y196501D01*
X179056Y195693D01*
X177636Y195693D01*
X177510Y195679D01*
X177384Y195672D01*
X177338Y195659D01*
X177290Y195653D01*
X177171Y195611D01*
X177049Y195576D01*
X177007Y195552D01*
X176961Y195536D01*
X176855Y195467D01*
X176745Y195406D01*
X176699Y195366D01*
X176669Y195347D01*
X176635Y195312D01*
X176559Y195247D01*
X167763Y186451D01*
X126548Y186451D01*
X126522Y186448D01*
X126496Y186450D01*
X126349Y186428D01*
X126202Y186411D01*
X126177Y186403D01*
X126151Y186399D01*
X126013Y186344D01*
X125874Y186294D01*
X125852Y186280D01*
X125827Y186270D01*
X125706Y186185D01*
X125581Y186105D01*
X125563Y186086D01*
X125541Y186071D01*
X125442Y185961D01*
X125339Y185854D01*
X125325Y185832D01*
X125308Y185812D01*
X125236Y185682D01*
X125160Y185555D01*
X125152Y185530D01*
X125139Y185507D01*
X125099Y185364D01*
X125054Y185223D01*
X125052Y185197D01*
X125044Y185172D01*
X125025Y184928D01*
X125025Y183868D01*
X124132Y182975D01*
X111868Y182975D01*
X111085Y183759D01*
X110985Y183838D01*
X110892Y183922D01*
X110849Y183946D01*
X110812Y183976D01*
X110697Y184030D01*
X110587Y184091D01*
X110540Y184104D01*
X110497Y184125D01*
X110373Y184151D01*
X110251Y184186D01*
X110191Y184191D01*
X110156Y184198D01*
X110108Y184197D01*
X110008Y184205D01*
X102341Y184205D01*
X102215Y184191D01*
X102089Y184184D01*
X102043Y184171D01*
X101995Y184165D01*
X101876Y184123D01*
X101754Y184088D01*
X101712Y184064D01*
X101667Y184048D01*
X101561Y183979D01*
X101450Y183918D01*
X101404Y183878D01*
X101374Y183859D01*
X101340Y183824D01*
X101264Y183759D01*
X100006Y182501D01*
X98056Y181693D01*
X95944Y181693D01*
X93994Y182501D01*
X92501Y183994D01*
X91693Y185944D01*
X91693Y188056D01*
X92501Y190006D01*
X93994Y191499D01*
X95944Y192307D01*
X98056Y192307D01*
X100006Y191499D01*
X101264Y190241D01*
X101363Y190162D01*
X101457Y190078D01*
X101499Y190054D01*
X101537Y190024D01*
X101651Y189970D01*
X101762Y189909D01*
X101808Y189896D01*
X101852Y189875D01*
X101975Y189849D01*
X102097Y189814D01*
X102158Y189809D01*
X102193Y189802D01*
X102241Y189803D01*
X102341Y189795D01*
X109452Y189795D01*
X109478Y189798D01*
X109504Y189796D01*
X109651Y189818D01*
X109798Y189835D01*
X109823Y189843D01*
X109849Y189847D01*
X109987Y189902D01*
X110126Y189952D01*
X110148Y189966D01*
X110173Y189976D01*
X110294Y190061D01*
X110419Y190141D01*
X110437Y190160D01*
X110459Y190175D01*
X110558Y190285D01*
X110661Y190392D01*
X110675Y190414D01*
X110692Y190434D01*
X110764Y190564D01*
X110840Y190691D01*
X110848Y190716D01*
X110861Y190739D01*
X110901Y190882D01*
X110946Y191023D01*
X110948Y191049D01*
X110956Y191074D01*
X110975Y191318D01*
X110975Y195132D01*
X111868Y196025D01*
X117642Y196025D01*
X117741Y196036D01*
X117842Y196038D01*
X117914Y196056D01*
X117988Y196065D01*
X118082Y196099D01*
X118180Y196123D01*
X118246Y196157D01*
X118316Y196182D01*
X118400Y196237D01*
X118490Y196283D01*
X118546Y196331D01*
X118609Y196371D01*
X118678Y196443D01*
X118755Y196508D01*
X118799Y196568D01*
X118851Y196622D01*
X118902Y196708D01*
X118962Y196789D01*
X118992Y196857D01*
X119030Y196921D01*
X119060Y197017D01*
X119100Y197109D01*
X119113Y197182D01*
X119136Y197253D01*
X119144Y197353D01*
X119162Y197452D01*
X119158Y197526D01*
X119164Y197600D01*
X119149Y197700D01*
X119144Y197800D01*
X119123Y197871D01*
X119112Y197945D01*
X119075Y198038D01*
X119047Y198135D01*
X119011Y198200D01*
X118983Y198269D01*
X118926Y198351D01*
X118877Y198439D01*
X118812Y198515D01*
X118785Y198555D01*
X118758Y198579D01*
X118719Y198625D01*
X117975Y199368D01*
X117975Y200428D01*
X117972Y200454D01*
X117974Y200480D01*
X117952Y200627D01*
X117935Y200774D01*
X117927Y200799D01*
X117923Y200825D01*
X117868Y200963D01*
X117818Y201102D01*
X117804Y201124D01*
X117794Y201149D01*
X117709Y201270D01*
X117629Y201395D01*
X117610Y201413D01*
X117595Y201435D01*
X117485Y201534D01*
X117378Y201637D01*
X117356Y201651D01*
X117336Y201668D01*
X117206Y201740D01*
X117079Y201816D01*
X117054Y201824D01*
X117031Y201837D01*
X116888Y201877D01*
X116747Y201922D01*
X116721Y201924D01*
X116696Y201932D01*
X116452Y201951D01*
X96742Y201951D01*
X96666Y201943D01*
X96589Y201944D01*
X96493Y201923D01*
X96395Y201911D01*
X96323Y201886D01*
X96249Y201869D01*
X96160Y201827D01*
X96067Y201794D01*
X96003Y201752D01*
X95934Y201720D01*
X95857Y201658D01*
X95774Y201605D01*
X95721Y201550D01*
X95662Y201502D01*
X95601Y201425D01*
X95532Y201354D01*
X95493Y201289D01*
X95446Y201229D01*
X95378Y201095D01*
X95353Y201055D01*
X95348Y201037D01*
X95334Y201011D01*
X94499Y198994D01*
X93006Y197501D01*
X91056Y196693D01*
X89636Y196693D01*
X89510Y196679D01*
X89384Y196672D01*
X89338Y196659D01*
X89290Y196653D01*
X89171Y196611D01*
X89049Y196576D01*
X89007Y196552D01*
X88961Y196536D01*
X88855Y196467D01*
X88745Y196406D01*
X88699Y196366D01*
X88669Y196347D01*
X88635Y196312D01*
X88559Y196247D01*
X86495Y194183D01*
X86416Y194084D01*
X86332Y193990D01*
X86308Y193948D01*
X86278Y193910D01*
X86224Y193796D01*
X86163Y193685D01*
X86150Y193639D01*
X86129Y193595D01*
X86103Y193472D01*
X86068Y193350D01*
X86063Y193289D01*
X86056Y193254D01*
X86057Y193206D01*
X86049Y193106D01*
X86049Y170048D01*
X86052Y170022D01*
X86050Y169996D01*
X86072Y169849D01*
X86089Y169702D01*
X86097Y169677D01*
X86101Y169651D01*
X86156Y169513D01*
X86206Y169374D01*
X86220Y169352D01*
X86230Y169327D01*
X86315Y169206D01*
X86395Y169081D01*
X86414Y169063D01*
X86429Y169041D01*
X86539Y168942D01*
X86646Y168839D01*
X86668Y168825D01*
X86688Y168808D01*
X86818Y168736D01*
X86945Y168660D01*
X86970Y168652D01*
X86993Y168639D01*
X87136Y168599D01*
X87277Y168554D01*
X87303Y168552D01*
X87328Y168544D01*
X87572Y168525D01*
X92632Y168525D01*
X93525Y167632D01*
X93525Y164588D01*
X93528Y164562D01*
X93526Y164536D01*
X93548Y164389D01*
X93565Y164242D01*
X93573Y164217D01*
X93577Y164191D01*
X93632Y164053D01*
X93682Y163914D01*
X93696Y163892D01*
X93706Y163867D01*
X93791Y163746D01*
X93871Y163621D01*
X93890Y163603D01*
X93905Y163581D01*
X94015Y163482D01*
X94122Y163379D01*
X94144Y163365D01*
X94164Y163348D01*
X94294Y163276D01*
X94421Y163200D01*
X94446Y163192D01*
X94469Y163179D01*
X94612Y163139D01*
X94753Y163094D01*
X94779Y163092D01*
X94804Y163084D01*
X95048Y163065D01*
X105121Y163065D01*
X105247Y163079D01*
X105373Y163086D01*
X105405Y163095D01*
X111072Y163095D01*
X111171Y163106D01*
X111272Y163108D01*
X111344Y163126D01*
X111418Y163135D01*
X111512Y163168D01*
X111610Y163193D01*
X111676Y163227D01*
X111746Y163252D01*
X111830Y163307D01*
X111920Y163353D01*
X111976Y163401D01*
X112039Y163441D01*
X112108Y163513D01*
X112185Y163578D01*
X112229Y163638D01*
X112281Y163692D01*
X112332Y163778D01*
X112392Y163859D01*
X112422Y163927D01*
X112460Y163991D01*
X112490Y164087D01*
X112530Y164179D01*
X112543Y164252D01*
X112566Y164323D01*
X112574Y164423D01*
X112592Y164522D01*
X112588Y164596D01*
X112594Y164670D01*
X112579Y164770D01*
X112574Y164870D01*
X112553Y164941D01*
X112542Y165015D01*
X112505Y165108D01*
X112477Y165205D01*
X112441Y165270D01*
X112413Y165339D01*
X112356Y165421D01*
X112307Y165509D01*
X112242Y165585D01*
X112215Y165625D01*
X112188Y165649D01*
X112149Y165695D01*
X110975Y166868D01*
X110975Y178132D01*
X111868Y179025D01*
X124132Y179025D01*
X125025Y178132D01*
X125025Y166868D01*
X124867Y166711D01*
X124805Y166633D01*
X124735Y166560D01*
X124697Y166496D01*
X124651Y166438D01*
X124608Y166347D01*
X124556Y166261D01*
X124534Y166190D01*
X124502Y166123D01*
X124481Y166025D01*
X124450Y165929D01*
X124444Y165855D01*
X124428Y165782D01*
X124430Y165682D01*
X124422Y165582D01*
X124433Y165508D01*
X124434Y165434D01*
X124459Y165337D01*
X124474Y165237D01*
X124501Y165168D01*
X124519Y165096D01*
X124565Y165007D01*
X124603Y164913D01*
X124645Y164852D01*
X124679Y164786D01*
X124744Y164709D01*
X124801Y164627D01*
X124857Y164577D01*
X124905Y164521D01*
X124986Y164461D01*
X125060Y164394D01*
X125125Y164358D01*
X125185Y164313D01*
X125277Y164274D01*
X125365Y164225D01*
X125437Y164205D01*
X125505Y164175D01*
X125604Y164158D01*
X125701Y164130D01*
X125801Y164122D01*
X125848Y164114D01*
X125884Y164116D01*
X125944Y164111D01*
X126477Y164111D01*
X126477Y157090D01*
X126477Y157089D01*
X126477Y150068D01*
X125079Y150068D01*
X124433Y150241D01*
X123854Y150576D01*
X123609Y150821D01*
X123588Y150838D01*
X123571Y150858D01*
X123452Y150946D01*
X123336Y151038D01*
X123312Y151049D01*
X123291Y151065D01*
X123155Y151123D01*
X123021Y151187D01*
X122995Y151192D01*
X122971Y151203D01*
X122825Y151229D01*
X122680Y151260D01*
X122654Y151260D01*
X122628Y151264D01*
X122480Y151257D01*
X122331Y151254D01*
X122306Y151248D01*
X122280Y151246D01*
X122137Y151205D01*
X121993Y151169D01*
X121970Y151157D01*
X121945Y151150D01*
X121828Y151084D01*
X115282Y151084D01*
X114827Y151540D01*
X114807Y151556D01*
X114790Y151576D01*
X114671Y151664D01*
X114554Y151756D01*
X114530Y151767D01*
X114509Y151783D01*
X114373Y151842D01*
X114239Y151905D01*
X114213Y151911D01*
X114189Y151921D01*
X114043Y151947D01*
X113898Y151979D01*
X113872Y151978D01*
X113846Y151983D01*
X113698Y151975D01*
X113550Y151973D01*
X113524Y151966D01*
X113498Y151965D01*
X113356Y151924D01*
X113212Y151888D01*
X113189Y151876D01*
X113163Y151868D01*
X113034Y151796D01*
X112902Y151728D01*
X112882Y151711D01*
X112859Y151698D01*
X112673Y151540D01*
X112218Y151084D01*
X105782Y151084D01*
X104889Y151977D01*
X104889Y153412D01*
X104886Y153438D01*
X104888Y153464D01*
X104866Y153611D01*
X104849Y153758D01*
X104841Y153783D01*
X104837Y153809D01*
X104782Y153947D01*
X104732Y154086D01*
X104718Y154108D01*
X104708Y154133D01*
X104623Y154254D01*
X104543Y154379D01*
X104524Y154397D01*
X104509Y154419D01*
X104399Y154518D01*
X104292Y154621D01*
X104270Y154635D01*
X104250Y154652D01*
X104120Y154724D01*
X103993Y154800D01*
X103968Y154808D01*
X103945Y154821D01*
X103802Y154861D01*
X103661Y154906D01*
X103635Y154908D01*
X103610Y154916D01*
X103366Y154935D01*
X95048Y154935D01*
X95022Y154932D01*
X94996Y154934D01*
X94849Y154912D01*
X94702Y154895D01*
X94677Y154887D01*
X94651Y154883D01*
X94513Y154828D01*
X94374Y154778D01*
X94352Y154764D01*
X94327Y154754D01*
X94206Y154669D01*
X94081Y154589D01*
X94063Y154570D01*
X94041Y154555D01*
X93942Y154445D01*
X93839Y154338D01*
X93825Y154316D01*
X93808Y154296D01*
X93736Y154166D01*
X93660Y154039D01*
X93652Y154014D01*
X93639Y153991D01*
X93599Y153848D01*
X93554Y153707D01*
X93552Y153681D01*
X93544Y153656D01*
X93525Y153412D01*
X93525Y150368D01*
X92632Y149475D01*
X73368Y149475D01*
X73077Y149767D01*
X73057Y149783D01*
X73040Y149803D01*
X72920Y149891D01*
X72804Y149983D01*
X72780Y149994D01*
X72759Y150010D01*
X72623Y150069D01*
X72489Y150132D01*
X72463Y150138D01*
X72439Y150148D01*
X72293Y150174D01*
X72148Y150206D01*
X72122Y150205D01*
X72096Y150210D01*
X71948Y150202D01*
X71800Y150200D01*
X71774Y150193D01*
X71748Y150192D01*
X71606Y150151D01*
X71462Y150115D01*
X71438Y150102D01*
X71413Y150095D01*
X71284Y150023D01*
X71152Y149955D01*
X71132Y149938D01*
X71109Y149925D01*
X70923Y149767D01*
X70632Y149475D01*
X51351Y149475D01*
X51314Y149511D01*
X51250Y149549D01*
X51192Y149595D01*
X51101Y149638D01*
X51015Y149690D01*
X50944Y149712D01*
X50877Y149744D01*
X50779Y149765D01*
X50683Y149796D01*
X50609Y149802D01*
X50536Y149818D01*
X50436Y149816D01*
X50336Y149824D01*
X50262Y149813D01*
X50188Y149812D01*
X50090Y149787D01*
X49991Y149772D01*
X49922Y149745D01*
X49850Y149727D01*
X49761Y149681D01*
X49667Y149643D01*
X49606Y149601D01*
X49540Y149567D01*
X49464Y149502D01*
X49381Y149445D01*
X49331Y149389D01*
X49275Y149341D01*
X49215Y149260D01*
X49148Y149186D01*
X49112Y149121D01*
X49067Y149061D01*
X49028Y148969D01*
X48979Y148881D01*
X48959Y148809D01*
X48929Y148741D01*
X48912Y148642D01*
X48884Y148545D01*
X48876Y148445D01*
X48868Y148398D01*
X48870Y148362D01*
X48865Y148302D01*
X48865Y141698D01*
X48876Y141599D01*
X48878Y141498D01*
X48896Y141426D01*
X48905Y141352D01*
X48938Y141258D01*
X48963Y141160D01*
X48997Y141094D01*
X49022Y141024D01*
X49077Y140940D01*
X49123Y140850D01*
X49171Y140794D01*
X49211Y140731D01*
X49283Y140662D01*
X49348Y140585D01*
X49408Y140541D01*
X49462Y140489D01*
X49548Y140438D01*
X49629Y140378D01*
X49697Y140348D01*
X49761Y140310D01*
X49856Y140280D01*
X49949Y140240D01*
X50022Y140227D01*
X50093Y140204D01*
X50193Y140196D01*
X50292Y140178D01*
X50366Y140182D01*
X50440Y140176D01*
X50539Y140191D01*
X50640Y140196D01*
X50711Y140217D01*
X50785Y140228D01*
X50878Y140265D01*
X50975Y140293D01*
X51040Y140329D01*
X51109Y140357D01*
X51191Y140414D01*
X51279Y140463D01*
X51352Y140525D01*
X70632Y140525D01*
X70923Y140233D01*
X70943Y140217D01*
X70960Y140197D01*
X71080Y140109D01*
X71196Y140017D01*
X71220Y140006D01*
X71241Y139990D01*
X71377Y139931D01*
X71511Y139868D01*
X71537Y139862D01*
X71561Y139852D01*
X71707Y139826D01*
X71852Y139794D01*
X71878Y139795D01*
X71904Y139790D01*
X72052Y139798D01*
X72200Y139800D01*
X72226Y139807D01*
X72252Y139808D01*
X72394Y139849D01*
X72538Y139885D01*
X72561Y139897D01*
X72587Y139905D01*
X72716Y139977D01*
X72848Y140045D01*
X72868Y140062D01*
X72891Y140075D01*
X73077Y140233D01*
X73368Y140525D01*
X92632Y140525D01*
X93525Y139632D01*
X93525Y136588D01*
X93528Y136562D01*
X93526Y136536D01*
X93548Y136389D01*
X93565Y136242D01*
X93573Y136217D01*
X93577Y136191D01*
X93632Y136053D01*
X93682Y135914D01*
X93696Y135892D01*
X93706Y135867D01*
X93791Y135746D01*
X93871Y135621D01*
X93890Y135603D01*
X93905Y135581D01*
X94015Y135482D01*
X94122Y135379D01*
X94144Y135365D01*
X94164Y135348D01*
X94294Y135276D01*
X94421Y135200D01*
X94446Y135192D01*
X94469Y135179D01*
X94612Y135139D01*
X94753Y135094D01*
X94779Y135092D01*
X94804Y135084D01*
X95048Y135065D01*
X103366Y135065D01*
X103392Y135068D01*
X103418Y135066D01*
X103565Y135088D01*
X103712Y135105D01*
X103737Y135113D01*
X103763Y135117D01*
X103901Y135172D01*
X104040Y135222D01*
X104062Y135236D01*
X104087Y135246D01*
X104208Y135331D01*
X104333Y135411D01*
X104351Y135430D01*
X104373Y135445D01*
X104472Y135555D01*
X104575Y135662D01*
X104589Y135684D01*
X104606Y135704D01*
X104678Y135834D01*
X104754Y135961D01*
X104762Y135986D01*
X104775Y136009D01*
X104814Y136147D01*
X105782Y137116D01*
X112503Y137116D01*
X112521Y137112D01*
X112617Y137081D01*
X112691Y137075D01*
X112763Y137059D01*
X112864Y137061D01*
X112964Y137053D01*
X113038Y137064D01*
X113112Y137065D01*
X113209Y137090D01*
X113309Y137105D01*
X113378Y137132D01*
X113450Y137150D01*
X113539Y137196D01*
X113633Y137234D01*
X113694Y137276D01*
X113760Y137310D01*
X113836Y137375D01*
X113919Y137432D01*
X113969Y137488D01*
X114025Y137536D01*
X114085Y137617D01*
X114152Y137691D01*
X114188Y137756D01*
X114232Y137816D01*
X114272Y137908D01*
X114321Y137996D01*
X114341Y138068D01*
X114370Y138136D01*
X114388Y138235D01*
X114416Y138332D01*
X114424Y138431D01*
X114432Y138479D01*
X114430Y138515D01*
X114435Y138575D01*
X114435Y139184D01*
X121316Y146065D01*
X163384Y146065D01*
X166585Y142864D01*
X166684Y142785D01*
X166777Y142701D01*
X166820Y142677D01*
X166858Y142647D01*
X166972Y142593D01*
X167082Y142532D01*
X167129Y142519D01*
X167173Y142498D01*
X167296Y142472D01*
X167418Y142437D01*
X167479Y142432D01*
X167513Y142425D01*
X167561Y142426D01*
X167662Y142418D01*
X190871Y142418D01*
X191764Y141525D01*
X191764Y125275D01*
X190871Y124382D01*
X149729Y124382D01*
X148836Y125275D01*
X148836Y136412D01*
X148833Y136438D01*
X148835Y136464D01*
X148813Y136611D01*
X148796Y136758D01*
X148788Y136783D01*
X148784Y136809D01*
X148729Y136947D01*
X148679Y137086D01*
X148665Y137108D01*
X148655Y137133D01*
X148570Y137254D01*
X148490Y137379D01*
X148471Y137397D01*
X148456Y137419D01*
X148346Y137518D01*
X148239Y137621D01*
X148217Y137635D01*
X148197Y137652D01*
X148067Y137724D01*
X147940Y137800D01*
X147915Y137808D01*
X147892Y137821D01*
X147749Y137861D01*
X147608Y137906D01*
X147582Y137908D01*
X147557Y137916D01*
X147313Y137935D01*
X133634Y137935D01*
X133608Y137932D01*
X133582Y137934D01*
X133435Y137912D01*
X133288Y137895D01*
X133263Y137887D01*
X133237Y137883D01*
X133099Y137828D01*
X132960Y137778D01*
X132938Y137764D01*
X132913Y137754D01*
X132792Y137669D01*
X132667Y137589D01*
X132649Y137570D01*
X132627Y137555D01*
X132528Y137445D01*
X132425Y137338D01*
X132411Y137316D01*
X132394Y137296D01*
X132322Y137166D01*
X132246Y137039D01*
X132238Y137014D01*
X132225Y136991D01*
X132185Y136848D01*
X132140Y136707D01*
X132138Y136681D01*
X132130Y136656D01*
X132111Y136412D01*
X132111Y125998D01*
X131495Y125383D01*
X131416Y125283D01*
X131332Y125190D01*
X131308Y125148D01*
X131278Y125110D01*
X131224Y124995D01*
X131163Y124885D01*
X131150Y124838D01*
X131129Y124795D01*
X131103Y124671D01*
X131068Y124549D01*
X131063Y124489D01*
X131056Y124454D01*
X131057Y124406D01*
X131049Y124306D01*
X131049Y118548D01*
X131052Y118522D01*
X131050Y118496D01*
X131072Y118349D01*
X131089Y118202D01*
X131097Y118177D01*
X131101Y118151D01*
X131156Y118013D01*
X131206Y117874D01*
X131220Y117852D01*
X131230Y117827D01*
X131315Y117706D01*
X131395Y117581D01*
X131414Y117563D01*
X131429Y117541D01*
X131539Y117442D01*
X131646Y117339D01*
X131668Y117325D01*
X131688Y117308D01*
X131818Y117236D01*
X131945Y117160D01*
X131970Y117152D01*
X131993Y117139D01*
X132136Y117099D01*
X132277Y117054D01*
X132303Y117052D01*
X132328Y117044D01*
X132572Y117025D01*
X134132Y117025D01*
X135025Y116132D01*
X135025Y105868D01*
X134132Y104975D01*
X125868Y104975D01*
X124577Y106267D01*
X124557Y106283D01*
X124540Y106303D01*
X124420Y106391D01*
X124304Y106483D01*
X124280Y106494D01*
X124259Y106510D01*
X124123Y106569D01*
X123989Y106632D01*
X123963Y106638D01*
X123939Y106648D01*
X123793Y106674D01*
X123648Y106706D01*
X123622Y106705D01*
X123596Y106710D01*
X123448Y106702D01*
X123300Y106700D01*
X123274Y106693D01*
X123248Y106692D01*
X123106Y106651D01*
X122962Y106615D01*
X122939Y106603D01*
X122913Y106595D01*
X122784Y106523D01*
X122652Y106455D01*
X122632Y106438D01*
X122609Y106425D01*
X122423Y106267D01*
X121132Y104975D01*
X112868Y104975D01*
X111975Y105868D01*
X111975Y116132D01*
X112868Y117025D01*
X113928Y117025D01*
X113954Y117028D01*
X113980Y117026D01*
X114127Y117048D01*
X114274Y117065D01*
X114299Y117073D01*
X114325Y117077D01*
X114463Y117132D01*
X114602Y117182D01*
X114624Y117196D01*
X114649Y117206D01*
X114770Y117291D01*
X114895Y117371D01*
X114913Y117390D01*
X114935Y117405D01*
X115034Y117515D01*
X115137Y117622D01*
X115151Y117644D01*
X115168Y117664D01*
X115240Y117794D01*
X115316Y117921D01*
X115324Y117946D01*
X115337Y117969D01*
X115377Y118112D01*
X115422Y118253D01*
X115424Y118279D01*
X115432Y118304D01*
X115451Y118548D01*
X115451Y124305D01*
X115437Y124431D01*
X115430Y124557D01*
X115417Y124604D01*
X115411Y124652D01*
X115369Y124771D01*
X115334Y124892D01*
X115310Y124934D01*
X115294Y124980D01*
X115225Y125086D01*
X115164Y125196D01*
X115124Y125243D01*
X115105Y125273D01*
X115070Y125306D01*
X115005Y125383D01*
X114827Y125561D01*
X114807Y125577D01*
X114790Y125597D01*
X114670Y125685D01*
X114554Y125777D01*
X114530Y125788D01*
X114509Y125804D01*
X114373Y125863D01*
X114239Y125926D01*
X114213Y125932D01*
X114189Y125942D01*
X114043Y125968D01*
X113898Y126000D01*
X113872Y125999D01*
X113846Y126004D01*
X113698Y125996D01*
X113550Y125994D01*
X113524Y125987D01*
X113498Y125986D01*
X113356Y125945D01*
X113212Y125909D01*
X113188Y125896D01*
X113163Y125889D01*
X113034Y125817D01*
X112902Y125749D01*
X112882Y125732D01*
X112859Y125719D01*
X112673Y125561D01*
X112218Y125105D01*
X105782Y125105D01*
X104605Y126282D01*
X104543Y126379D01*
X104524Y126397D01*
X104509Y126419D01*
X104399Y126518D01*
X104292Y126621D01*
X104270Y126635D01*
X104250Y126652D01*
X104120Y126724D01*
X103993Y126800D01*
X103968Y126808D01*
X103945Y126821D01*
X103802Y126861D01*
X103661Y126906D01*
X103635Y126908D01*
X103610Y126916D01*
X103366Y126935D01*
X95048Y126935D01*
X95022Y126932D01*
X94996Y126934D01*
X94849Y126912D01*
X94702Y126895D01*
X94677Y126887D01*
X94651Y126883D01*
X94513Y126828D01*
X94374Y126778D01*
X94352Y126764D01*
X94327Y126754D01*
X94206Y126669D01*
X94081Y126589D01*
X94063Y126570D01*
X94041Y126555D01*
X93942Y126445D01*
X93839Y126338D01*
X93825Y126316D01*
X93808Y126296D01*
X93736Y126166D01*
X93660Y126039D01*
X93652Y126014D01*
X93639Y125991D01*
X93599Y125848D01*
X93554Y125707D01*
X93552Y125681D01*
X93544Y125656D01*
X93525Y125412D01*
X93525Y122368D01*
X92632Y121475D01*
X73368Y121475D01*
X73077Y121767D01*
X73057Y121783D01*
X73040Y121803D01*
X72920Y121891D01*
X72804Y121983D01*
X72780Y121994D01*
X72759Y122010D01*
X72623Y122069D01*
X72489Y122132D01*
X72463Y122138D01*
X72439Y122148D01*
X72293Y122174D01*
X72148Y122206D01*
X72122Y122205D01*
X72096Y122210D01*
X71948Y122202D01*
X71800Y122200D01*
X71774Y122193D01*
X71748Y122192D01*
X71606Y122151D01*
X71462Y122115D01*
X71438Y122102D01*
X71413Y122095D01*
X71284Y122023D01*
X71152Y121955D01*
X71132Y121938D01*
X71109Y121925D01*
X70923Y121767D01*
X70632Y121475D01*
X66588Y121475D01*
X66562Y121472D01*
X66536Y121474D01*
X66389Y121452D01*
X66242Y121435D01*
X66217Y121427D01*
X66191Y121423D01*
X66053Y121368D01*
X65914Y121318D01*
X65892Y121304D01*
X65867Y121294D01*
X65746Y121209D01*
X65621Y121129D01*
X65603Y121110D01*
X65581Y121095D01*
X65482Y120985D01*
X65379Y120878D01*
X65365Y120856D01*
X65348Y120836D01*
X65276Y120706D01*
X65200Y120579D01*
X65192Y120554D01*
X65179Y120531D01*
X65139Y120388D01*
X65094Y120247D01*
X65092Y120221D01*
X65084Y120196D01*
X65065Y119952D01*
X65065Y116071D01*
X65079Y115945D01*
X65086Y115819D01*
X65099Y115773D01*
X65105Y115725D01*
X65147Y115606D01*
X65182Y115484D01*
X65206Y115442D01*
X65222Y115397D01*
X65291Y115291D01*
X65352Y115180D01*
X65392Y115134D01*
X65411Y115104D01*
X65446Y115070D01*
X65497Y115010D01*
X66307Y113056D01*
X66307Y110944D01*
X65499Y108994D01*
X64006Y107501D01*
X62056Y106693D01*
X59944Y106693D01*
X57994Y107501D01*
X56501Y108994D01*
X55693Y110944D01*
X55693Y113056D01*
X56504Y115013D01*
X56568Y115093D01*
X56652Y115187D01*
X56676Y115229D01*
X56706Y115267D01*
X56760Y115381D01*
X56821Y115492D01*
X56834Y115538D01*
X56855Y115582D01*
X56881Y115705D01*
X56916Y115827D01*
X56921Y115888D01*
X56928Y115923D01*
X56927Y115971D01*
X56935Y116071D01*
X56935Y119952D01*
X56932Y119978D01*
X56934Y120004D01*
X56912Y120151D01*
X56895Y120298D01*
X56887Y120323D01*
X56883Y120349D01*
X56828Y120487D01*
X56778Y120626D01*
X56764Y120648D01*
X56754Y120673D01*
X56669Y120794D01*
X56589Y120919D01*
X56570Y120937D01*
X56555Y120959D01*
X56445Y121058D01*
X56338Y121161D01*
X56316Y121175D01*
X56296Y121192D01*
X56166Y121264D01*
X56039Y121340D01*
X56014Y121348D01*
X55991Y121361D01*
X55848Y121401D01*
X55707Y121446D01*
X55681Y121448D01*
X55656Y121456D01*
X55412Y121475D01*
X51351Y121475D01*
X51314Y121511D01*
X51250Y121549D01*
X51192Y121595D01*
X51101Y121638D01*
X51015Y121690D01*
X50944Y121712D01*
X50877Y121744D01*
X50779Y121765D01*
X50683Y121796D01*
X50609Y121802D01*
X50536Y121818D01*
X50436Y121816D01*
X50336Y121824D01*
X50262Y121813D01*
X50188Y121812D01*
X50090Y121787D01*
X49991Y121772D01*
X49922Y121745D01*
X49850Y121727D01*
X49761Y121681D01*
X49667Y121643D01*
X49606Y121601D01*
X49540Y121567D01*
X49464Y121502D01*
X49381Y121445D01*
X49331Y121389D01*
X49275Y121341D01*
X49215Y121260D01*
X49148Y121186D01*
X49112Y121121D01*
X49067Y121061D01*
X49028Y120969D01*
X48979Y120881D01*
X48959Y120809D01*
X48929Y120741D01*
X48912Y120642D01*
X48884Y120545D01*
X48876Y120445D01*
X48868Y120398D01*
X48870Y120362D01*
X48865Y120302D01*
X48865Y99404D01*
X48868Y99378D01*
X48866Y99352D01*
X48888Y99205D01*
X48905Y99058D01*
X48913Y99033D01*
X48917Y99007D01*
X48972Y98869D01*
X49022Y98730D01*
X49036Y98708D01*
X49046Y98683D01*
X49131Y98562D01*
X49211Y98437D01*
X49230Y98419D01*
X49245Y98397D01*
X49355Y98298D01*
X49462Y98195D01*
X49484Y98181D01*
X49504Y98164D01*
X49634Y98092D01*
X49761Y98016D01*
X49786Y98008D01*
X49809Y97995D01*
X49952Y97955D01*
X50093Y97910D01*
X50119Y97908D01*
X50144Y97900D01*
X50388Y97881D01*
X77690Y97881D01*
X78583Y96988D01*
X78583Y95848D01*
X78586Y95822D01*
X78584Y95796D01*
X78606Y95649D01*
X78623Y95502D01*
X78631Y95477D01*
X78635Y95451D01*
X78690Y95313D01*
X78740Y95174D01*
X78754Y95152D01*
X78764Y95127D01*
X78849Y95006D01*
X78929Y94881D01*
X78948Y94863D01*
X78963Y94841D01*
X79073Y94742D01*
X79180Y94639D01*
X79202Y94625D01*
X79222Y94608D01*
X79352Y94536D01*
X79479Y94460D01*
X79504Y94452D01*
X79527Y94439D01*
X79670Y94399D01*
X79811Y94354D01*
X79837Y94352D01*
X79862Y94344D01*
X80106Y94325D01*
X157577Y94325D01*
X157703Y94339D01*
X157829Y94346D01*
X157875Y94359D01*
X157923Y94365D01*
X158042Y94407D01*
X158164Y94442D01*
X158206Y94466D01*
X158251Y94482D01*
X158358Y94551D01*
X158468Y94612D01*
X158514Y94652D01*
X158544Y94671D01*
X158578Y94706D01*
X158654Y94771D01*
X182942Y119059D01*
X188171Y121225D01*
X243574Y121225D01*
X243700Y121239D01*
X243826Y121246D01*
X243873Y121259D01*
X243921Y121265D01*
X244040Y121307D01*
X244161Y121342D01*
X244203Y121366D01*
X244249Y121382D01*
X244355Y121451D01*
X244465Y121512D01*
X244512Y121552D01*
X244542Y121571D01*
X244575Y121606D01*
X244652Y121671D01*
X245795Y122814D01*
X245857Y122893D01*
X245927Y122965D01*
X245965Y123029D01*
X246011Y123087D01*
X246054Y123178D01*
X246106Y123264D01*
X246128Y123335D01*
X246160Y123402D01*
X246181Y123500D01*
X246212Y123596D01*
X246218Y123670D01*
X246234Y123743D01*
X246232Y123843D01*
X246240Y123943D01*
X246229Y124017D01*
X246228Y124091D01*
X246203Y124188D01*
X246188Y124288D01*
X246161Y124357D01*
X246143Y124429D01*
X246097Y124518D01*
X246059Y124612D01*
X246017Y124673D01*
X245983Y124739D01*
X245918Y124815D01*
X245861Y124898D01*
X245805Y124948D01*
X245757Y125004D01*
X245676Y125064D01*
X245602Y125131D01*
X245537Y125167D01*
X245477Y125211D01*
X245385Y125251D01*
X245297Y125300D01*
X245225Y125320D01*
X245157Y125350D01*
X245058Y125367D01*
X244961Y125395D01*
X244861Y125403D01*
X244814Y125411D01*
X244778Y125409D01*
X244718Y125414D01*
X240844Y125414D01*
X239951Y126307D01*
X239951Y142120D01*
X240844Y143013D01*
X245726Y143013D01*
X245741Y143002D01*
X245877Y142943D01*
X246011Y142880D01*
X246037Y142874D01*
X246061Y142864D01*
X246207Y142838D01*
X246352Y142806D01*
X246378Y142807D01*
X246404Y142802D01*
X246552Y142810D01*
X246700Y142812D01*
X246726Y142819D01*
X246752Y142820D01*
X246894Y142861D01*
X247038Y142897D01*
X247061Y142909D01*
X247087Y142917D01*
X247216Y142989D01*
X247262Y143013D01*
X252226Y143013D01*
X252241Y143002D01*
X252377Y142943D01*
X252511Y142880D01*
X252537Y142874D01*
X252561Y142864D01*
X252707Y142838D01*
X252852Y142806D01*
X252878Y142807D01*
X252904Y142802D01*
X253052Y142810D01*
X253200Y142812D01*
X253226Y142819D01*
X253252Y142820D01*
X253394Y142861D01*
X253538Y142897D01*
X253561Y142909D01*
X253587Y142917D01*
X253716Y142989D01*
X253762Y143013D01*
X258726Y143013D01*
X258741Y143002D01*
X258877Y142943D01*
X259011Y142880D01*
X259037Y142874D01*
X259061Y142864D01*
X259207Y142838D01*
X259352Y142806D01*
X259378Y142807D01*
X259404Y142802D01*
X259552Y142810D01*
X259700Y142812D01*
X259726Y142819D01*
X259752Y142820D01*
X259894Y142861D01*
X260038Y142897D01*
X260061Y142909D01*
X260087Y142917D01*
X260216Y142989D01*
X260262Y143013D01*
X265226Y143013D01*
X265241Y143002D01*
X265377Y142943D01*
X265511Y142880D01*
X265537Y142874D01*
X265561Y142864D01*
X265707Y142838D01*
X265852Y142806D01*
X265878Y142807D01*
X265904Y142802D01*
X266052Y142810D01*
X266200Y142812D01*
X266226Y142819D01*
X266252Y142820D01*
X266394Y142861D01*
X266538Y142897D01*
X266561Y142909D01*
X266587Y142917D01*
X266716Y142989D01*
X266762Y143013D01*
X271726Y143013D01*
X271741Y143002D01*
X271877Y142943D01*
X272011Y142880D01*
X272037Y142874D01*
X272061Y142864D01*
X272207Y142838D01*
X272352Y142806D01*
X272378Y142807D01*
X272404Y142802D01*
X272552Y142810D01*
X272700Y142812D01*
X272726Y142819D01*
X272752Y142820D01*
X272894Y142861D01*
X273038Y142897D01*
X273061Y142909D01*
X273087Y142917D01*
X273216Y142989D01*
X273262Y143013D01*
X274998Y143013D01*
X275098Y143024D01*
X275198Y143026D01*
X275271Y143044D01*
X275345Y143053D01*
X275439Y143086D01*
X275536Y143111D01*
X275603Y143145D01*
X275673Y143170D01*
X275757Y143225D01*
X275846Y143271D01*
X275903Y143319D01*
X275965Y143359D01*
X276035Y143431D01*
X276112Y143496D01*
X276156Y143556D01*
X276208Y143610D01*
X276259Y143696D01*
X276319Y143777D01*
X276348Y143845D01*
X276386Y143909D01*
X276417Y144004D01*
X276457Y144097D01*
X276470Y144170D01*
X276493Y144241D01*
X276501Y144341D01*
X276519Y144440D01*
X276515Y144514D01*
X276521Y144588D01*
X276506Y144687D01*
X276501Y144788D01*
X276480Y144859D01*
X276469Y144933D01*
X276432Y145026D01*
X276404Y145123D01*
X276368Y145188D01*
X276340Y145257D01*
X276283Y145339D01*
X276234Y145427D01*
X276169Y145503D01*
X276141Y145543D01*
X276115Y145567D01*
X276075Y145613D01*
X274183Y147505D01*
X274084Y147584D01*
X273990Y147668D01*
X273948Y147692D01*
X273910Y147722D01*
X273796Y147776D01*
X273685Y147837D01*
X273639Y147850D01*
X273595Y147871D01*
X273472Y147897D01*
X273350Y147932D01*
X273289Y147937D01*
X273254Y147944D01*
X273206Y147943D01*
X273106Y147951D01*
X268737Y147951D01*
X259451Y157237D01*
X259451Y158352D01*
X259448Y158378D01*
X259450Y158404D01*
X259428Y158551D01*
X259411Y158698D01*
X259403Y158723D01*
X259399Y158749D01*
X259344Y158887D01*
X259294Y159026D01*
X259280Y159048D01*
X259270Y159073D01*
X259185Y159194D01*
X259105Y159319D01*
X259086Y159337D01*
X259071Y159359D01*
X258961Y159458D01*
X258854Y159561D01*
X258832Y159575D01*
X258812Y159592D01*
X258682Y159664D01*
X258555Y159740D01*
X258530Y159748D01*
X258507Y159761D01*
X258364Y159801D01*
X258223Y159846D01*
X258197Y159848D01*
X258172Y159856D01*
X257928Y159875D01*
X256368Y159875D01*
X255475Y160768D01*
X255475Y172032D01*
X256368Y172925D01*
X268632Y172925D01*
X269525Y172032D01*
X269525Y160768D01*
X268494Y159737D01*
X268439Y159718D01*
X268355Y159663D01*
X268266Y159617D01*
X268209Y159569D01*
X268147Y159529D01*
X268077Y159457D01*
X268000Y159392D01*
X267956Y159332D01*
X267904Y159278D01*
X267853Y159192D01*
X267793Y159111D01*
X267764Y159043D01*
X267726Y158979D01*
X267695Y158883D01*
X267655Y158791D01*
X267642Y158718D01*
X267619Y158647D01*
X267611Y158547D01*
X267594Y158448D01*
X267597Y158374D01*
X267591Y158300D01*
X267606Y158200D01*
X267611Y158100D01*
X267632Y158029D01*
X267643Y157955D01*
X267680Y157862D01*
X267708Y157765D01*
X267744Y157700D01*
X267772Y157631D01*
X267829Y157549D01*
X267878Y157461D01*
X267943Y157385D01*
X267971Y157345D01*
X267997Y157321D01*
X268037Y157275D01*
X270817Y154495D01*
X270916Y154416D01*
X271010Y154332D01*
X271052Y154308D01*
X271090Y154278D01*
X271204Y154224D01*
X271315Y154163D01*
X271361Y154150D01*
X271405Y154129D01*
X271528Y154103D01*
X271650Y154068D01*
X271711Y154063D01*
X271746Y154056D01*
X271794Y154057D01*
X271894Y154049D01*
X276263Y154049D01*
X277893Y152418D01*
X277988Y152343D01*
X278077Y152262D01*
X278124Y152235D01*
X278166Y152202D01*
X278275Y152150D01*
X278381Y152091D01*
X278433Y152076D01*
X278482Y152053D01*
X278599Y152027D01*
X278715Y151994D01*
X278769Y151991D01*
X278822Y151979D01*
X278942Y151981D01*
X279063Y151975D01*
X279117Y151984D01*
X279171Y151985D01*
X279288Y152015D01*
X279406Y152036D01*
X279456Y152057D01*
X279509Y152070D01*
X279616Y152126D01*
X279727Y152173D01*
X279770Y152205D01*
X279818Y152230D01*
X279910Y152308D01*
X280008Y152379D01*
X280043Y152421D01*
X280084Y152456D01*
X280156Y152553D01*
X280234Y152644D01*
X280259Y152692D01*
X280291Y152736D01*
X280339Y152847D01*
X280394Y152954D01*
X280408Y153006D01*
X280429Y153056D01*
X280450Y153175D01*
X280480Y153292D01*
X280484Y153360D01*
X280491Y153399D01*
X280488Y153445D01*
X280493Y153536D01*
X280364Y158393D01*
X280363Y158398D01*
X280363Y158404D01*
X280338Y158570D01*
X280315Y158738D01*
X280313Y158743D01*
X280312Y158749D01*
X280250Y158905D01*
X280188Y159063D01*
X280185Y159067D01*
X280183Y159073D01*
X280088Y159209D01*
X279992Y159350D01*
X279987Y159354D01*
X279984Y159359D01*
X279860Y159470D01*
X279735Y159586D01*
X279730Y159588D01*
X279725Y159592D01*
X279579Y159673D01*
X279431Y159756D01*
X279425Y159758D01*
X279420Y159761D01*
X279259Y159806D01*
X279096Y159854D01*
X279090Y159854D01*
X279085Y159856D01*
X278841Y159875D01*
X277068Y159875D01*
X276175Y160768D01*
X276175Y172032D01*
X277068Y172925D01*
X289332Y172925D01*
X290225Y172032D01*
X290225Y160768D01*
X289332Y159875D01*
X287988Y159875D01*
X287942Y159870D01*
X287895Y159872D01*
X287769Y159850D01*
X287642Y159835D01*
X287598Y159820D01*
X287552Y159812D01*
X287435Y159761D01*
X287314Y159718D01*
X287275Y159693D01*
X287232Y159674D01*
X287129Y159598D01*
X287021Y159529D01*
X286989Y159495D01*
X286951Y159468D01*
X286868Y159370D01*
X286779Y159278D01*
X286755Y159238D01*
X286725Y159203D01*
X286666Y159089D01*
X286600Y158979D01*
X286586Y158935D01*
X286564Y158893D01*
X286533Y158769D01*
X286494Y158647D01*
X286490Y158601D01*
X286479Y158556D01*
X286465Y158311D01*
X286599Y153303D01*
X286614Y153198D01*
X286619Y153092D01*
X286638Y153026D01*
X286648Y152958D01*
X286687Y152859D01*
X286716Y152757D01*
X286749Y152697D01*
X286774Y152634D01*
X286834Y152546D01*
X286886Y152453D01*
X286945Y152384D01*
X286971Y152346D01*
X287000Y152319D01*
X287045Y152267D01*
X288093Y151219D01*
X288171Y151156D01*
X288244Y151086D01*
X288308Y151048D01*
X288366Y151002D01*
X288457Y150959D01*
X288543Y150908D01*
X288614Y150885D01*
X288681Y150853D01*
X288779Y150832D01*
X288875Y150801D01*
X288949Y150795D01*
X289022Y150780D01*
X289122Y150781D01*
X289222Y150773D01*
X289296Y150784D01*
X289370Y150786D01*
X289467Y150810D01*
X289567Y150825D01*
X289636Y150853D01*
X289708Y150871D01*
X289798Y150917D01*
X289891Y150954D01*
X289952Y150996D01*
X290018Y151030D01*
X290095Y151096D01*
X290177Y151153D01*
X290227Y151208D01*
X290283Y151256D01*
X290343Y151337D01*
X290410Y151412D01*
X290446Y151477D01*
X290491Y151536D01*
X290530Y151629D01*
X290579Y151717D01*
X290599Y151788D01*
X290629Y151856D01*
X290646Y151955D01*
X290674Y152052D01*
X290682Y152152D01*
X290690Y152199D01*
X290688Y152235D01*
X290693Y152296D01*
X290693Y153056D01*
X291501Y155006D01*
X292994Y156499D01*
X294944Y157307D01*
X297056Y157307D01*
X299006Y156499D01*
X300499Y155006D01*
X301307Y153056D01*
X301307Y150944D01*
X300499Y148994D01*
X298921Y147416D01*
X298878Y147377D01*
X298815Y147333D01*
X298750Y147261D01*
X298677Y147195D01*
X298633Y147132D01*
X298582Y147075D01*
X298534Y146989D01*
X298478Y146908D01*
X298450Y146837D01*
X298413Y146770D01*
X298386Y146675D01*
X298350Y146584D01*
X298339Y146508D01*
X298318Y146434D01*
X298306Y146286D01*
X298300Y146239D01*
X298301Y146220D01*
X298299Y146190D01*
X298299Y144536D01*
X298302Y144510D01*
X298300Y144484D01*
X298322Y144337D01*
X298339Y144190D01*
X298347Y144165D01*
X298351Y144139D01*
X298406Y144001D01*
X298456Y143862D01*
X298470Y143840D01*
X298480Y143815D01*
X298565Y143694D01*
X298645Y143569D01*
X298664Y143551D01*
X298679Y143529D01*
X298789Y143430D01*
X298896Y143327D01*
X298918Y143313D01*
X298938Y143296D01*
X299068Y143224D01*
X299195Y143148D01*
X299220Y143140D01*
X299243Y143127D01*
X299386Y143087D01*
X299527Y143042D01*
X299553Y143039D01*
X299578Y143032D01*
X299822Y143013D01*
X304226Y143013D01*
X304241Y143002D01*
X304377Y142943D01*
X304511Y142880D01*
X304537Y142874D01*
X304561Y142864D01*
X304707Y142838D01*
X304852Y142806D01*
X304878Y142807D01*
X304904Y142802D01*
X305052Y142810D01*
X305200Y142812D01*
X305226Y142819D01*
X305252Y142820D01*
X305394Y142861D01*
X305538Y142897D01*
X305561Y142909D01*
X305587Y142917D01*
X305716Y142989D01*
X305762Y143013D01*
X310726Y143013D01*
X310741Y143002D01*
X310877Y142943D01*
X311011Y142880D01*
X311037Y142874D01*
X311061Y142864D01*
X311207Y142838D01*
X311352Y142806D01*
X311378Y142807D01*
X311404Y142802D01*
X311552Y142810D01*
X311700Y142812D01*
X311726Y142819D01*
X311752Y142820D01*
X311894Y142861D01*
X312038Y142897D01*
X312062Y142910D01*
X312087Y142917D01*
X312216Y142989D01*
X312262Y143013D01*
X317156Y143013D01*
X318049Y142120D01*
X318049Y126307D01*
X317156Y125414D01*
X313282Y125414D01*
X313183Y125403D01*
X313082Y125401D01*
X313010Y125383D01*
X312936Y125374D01*
X312842Y125341D01*
X312744Y125316D01*
X312678Y125282D01*
X312608Y125257D01*
X312524Y125202D01*
X312435Y125156D01*
X312378Y125108D01*
X312315Y125068D01*
X312246Y124996D01*
X312169Y124931D01*
X312125Y124871D01*
X312073Y124817D01*
X312022Y124731D01*
X311962Y124650D01*
X311933Y124582D01*
X311894Y124518D01*
X311864Y124422D01*
X311824Y124330D01*
X311811Y124257D01*
X311788Y124186D01*
X311780Y124086D01*
X311762Y123987D01*
X311766Y123913D01*
X311760Y123839D01*
X311775Y123739D01*
X311780Y123639D01*
X311801Y123568D01*
X311812Y123494D01*
X311849Y123401D01*
X311877Y123304D01*
X311913Y123239D01*
X311941Y123170D01*
X311998Y123088D01*
X312047Y123000D01*
X312112Y122924D01*
X312139Y122884D01*
X312166Y122860D01*
X312180Y122844D01*
X312180Y122843D01*
X312205Y122814D01*
X313037Y121983D01*
X313037Y92017D01*
X312205Y91186D01*
X312143Y91107D01*
X312073Y91035D01*
X312035Y90971D01*
X311989Y90913D01*
X311946Y90822D01*
X311894Y90736D01*
X311872Y90665D01*
X311840Y90598D01*
X311819Y90500D01*
X311788Y90404D01*
X311782Y90330D01*
X311766Y90257D01*
X311768Y90157D01*
X311760Y90057D01*
X311771Y89983D01*
X311772Y89909D01*
X311797Y89812D01*
X311812Y89712D01*
X311839Y89643D01*
X311857Y89571D01*
X311903Y89482D01*
X311941Y89388D01*
X311983Y89327D01*
X312017Y89261D01*
X312082Y89185D01*
X312139Y89102D01*
X312195Y89052D01*
X312243Y88996D01*
X312324Y88936D01*
X312398Y88869D01*
X312463Y88833D01*
X312523Y88789D01*
X312615Y88749D01*
X312703Y88700D01*
X312775Y88680D01*
X312843Y88650D01*
X312942Y88633D01*
X313039Y88605D01*
X313139Y88597D01*
X313186Y88589D01*
X313222Y88591D01*
X313282Y88586D01*
X317156Y88586D01*
X318084Y87658D01*
X318089Y87615D01*
X318114Y87543D01*
X318131Y87469D01*
X318173Y87380D01*
X318206Y87287D01*
X318248Y87223D01*
X318280Y87154D01*
X318342Y87077D01*
X318395Y86994D01*
X318450Y86941D01*
X318498Y86882D01*
X318575Y86821D01*
X318646Y86752D01*
X318711Y86713D01*
X318771Y86666D01*
X318904Y86598D01*
X318945Y86573D01*
X318963Y86568D01*
X318989Y86554D01*
X319142Y86491D01*
X319144Y86490D01*
X319146Y86489D01*
X319313Y86442D01*
X319478Y86395D01*
X319480Y86395D01*
X319482Y86394D01*
X319725Y86375D01*
X337494Y86375D01*
X337520Y86378D01*
X337546Y86376D01*
X337693Y86398D01*
X337840Y86415D01*
X337865Y86423D01*
X337891Y86427D01*
X338029Y86482D01*
X338168Y86532D01*
X338190Y86546D01*
X338215Y86556D01*
X338336Y86641D01*
X338461Y86721D01*
X338479Y86740D01*
X338501Y86755D01*
X338600Y86865D01*
X338703Y86972D01*
X338717Y86994D01*
X338734Y87014D01*
X338806Y87144D01*
X338882Y87271D01*
X338890Y87296D01*
X338903Y87319D01*
X338943Y87462D01*
X338988Y87603D01*
X338990Y87629D01*
X338998Y87654D01*
X339017Y87898D01*
X339017Y95388D01*
X339910Y96281D01*
X405690Y96281D01*
X406583Y95388D01*
X406583Y61612D01*
X405690Y60719D01*
X339910Y60719D01*
X339017Y61612D01*
X339017Y69102D01*
X339014Y69128D01*
X339016Y69154D01*
X338994Y69301D01*
X338977Y69448D01*
X338969Y69473D01*
X338965Y69499D01*
X338910Y69637D01*
X338860Y69776D01*
X338846Y69798D01*
X338836Y69823D01*
X338751Y69944D01*
X338671Y70069D01*
X338652Y70087D01*
X338637Y70109D01*
X338527Y70208D01*
X338420Y70311D01*
X338398Y70325D01*
X338378Y70342D01*
X338248Y70414D01*
X338121Y70490D01*
X338096Y70498D01*
X338073Y70511D01*
X337930Y70551D01*
X337789Y70596D01*
X337763Y70598D01*
X337738Y70606D01*
X337494Y70625D01*
X314470Y70625D01*
X313876Y70871D01*
X313874Y70872D01*
X313872Y70873D01*
X313705Y70920D01*
X313541Y70967D01*
X313539Y70967D01*
X313537Y70968D01*
X313293Y70987D01*
X312274Y70987D01*
X312259Y70998D01*
X312123Y71057D01*
X311989Y71120D01*
X311963Y71126D01*
X311939Y71136D01*
X311793Y71162D01*
X311648Y71194D01*
X311622Y71193D01*
X311596Y71198D01*
X311448Y71190D01*
X311300Y71188D01*
X311274Y71181D01*
X311248Y71180D01*
X311106Y71139D01*
X310962Y71103D01*
X310938Y71091D01*
X310913Y71083D01*
X310784Y71011D01*
X310738Y70987D01*
X305774Y70987D01*
X305759Y70998D01*
X305623Y71057D01*
X305489Y71120D01*
X305463Y71126D01*
X305439Y71136D01*
X305293Y71162D01*
X305148Y71194D01*
X305122Y71193D01*
X305096Y71198D01*
X304948Y71190D01*
X304800Y71188D01*
X304774Y71181D01*
X304748Y71180D01*
X304606Y71139D01*
X304462Y71103D01*
X304439Y71091D01*
X304413Y71083D01*
X304284Y71011D01*
X304238Y70987D01*
X299274Y70987D01*
X299259Y70998D01*
X299123Y71057D01*
X298989Y71120D01*
X298963Y71126D01*
X298939Y71136D01*
X298793Y71162D01*
X298648Y71194D01*
X298622Y71193D01*
X298596Y71198D01*
X298448Y71190D01*
X298300Y71188D01*
X298274Y71181D01*
X298248Y71180D01*
X298106Y71139D01*
X297962Y71103D01*
X297939Y71091D01*
X297913Y71083D01*
X297784Y71011D01*
X297738Y70987D01*
X292774Y70987D01*
X292759Y70998D01*
X292623Y71057D01*
X292489Y71120D01*
X292463Y71126D01*
X292439Y71136D01*
X292293Y71162D01*
X292148Y71194D01*
X292122Y71193D01*
X292096Y71198D01*
X291948Y71190D01*
X291800Y71188D01*
X291774Y71181D01*
X291748Y71180D01*
X291606Y71139D01*
X291462Y71103D01*
X291439Y71091D01*
X291413Y71083D01*
X291284Y71011D01*
X291238Y70987D01*
X286274Y70987D01*
X286259Y70998D01*
X286123Y71057D01*
X285989Y71120D01*
X285963Y71126D01*
X285939Y71136D01*
X285793Y71162D01*
X285648Y71194D01*
X285622Y71193D01*
X285596Y71198D01*
X285448Y71190D01*
X285300Y71188D01*
X285274Y71181D01*
X285248Y71180D01*
X285106Y71139D01*
X284962Y71103D01*
X284939Y71091D01*
X284913Y71083D01*
X284784Y71011D01*
X284738Y70987D01*
X279774Y70987D01*
X279759Y70998D01*
X279623Y71057D01*
X279489Y71120D01*
X279463Y71126D01*
X279439Y71136D01*
X279293Y71162D01*
X279148Y71194D01*
X279122Y71193D01*
X279096Y71198D01*
X278948Y71190D01*
X278800Y71188D01*
X278774Y71181D01*
X278748Y71180D01*
X278606Y71139D01*
X278462Y71103D01*
X278439Y71091D01*
X278413Y71083D01*
X278284Y71011D01*
X278238Y70987D01*
X273274Y70987D01*
X273259Y70998D01*
X273123Y71057D01*
X272989Y71120D01*
X272963Y71126D01*
X272939Y71136D01*
X272793Y71162D01*
X272648Y71194D01*
X272622Y71193D01*
X272596Y71198D01*
X272448Y71190D01*
X272300Y71188D01*
X272274Y71181D01*
X272248Y71180D01*
X272106Y71139D01*
X271962Y71103D01*
X271938Y71090D01*
X271913Y71083D01*
X271784Y71011D01*
X271738Y70987D01*
X266774Y70987D01*
X266759Y70998D01*
X266623Y71057D01*
X266489Y71120D01*
X266463Y71126D01*
X266439Y71136D01*
X266293Y71162D01*
X266148Y71194D01*
X266122Y71193D01*
X266096Y71198D01*
X265948Y71190D01*
X265800Y71188D01*
X265774Y71181D01*
X265748Y71180D01*
X265606Y71139D01*
X265462Y71103D01*
X265438Y71090D01*
X265413Y71083D01*
X265284Y71011D01*
X265238Y70987D01*
X260274Y70987D01*
X260259Y70998D01*
X260123Y71057D01*
X259989Y71120D01*
X259963Y71126D01*
X259939Y71136D01*
X259793Y71162D01*
X259648Y71194D01*
X259622Y71193D01*
X259596Y71198D01*
X259448Y71190D01*
X259300Y71188D01*
X259274Y71181D01*
X259248Y71180D01*
X259106Y71139D01*
X258962Y71103D01*
X258938Y71090D01*
X258913Y71083D01*
X258784Y71011D01*
X258738Y70987D01*
X253774Y70987D01*
X253759Y70998D01*
X253623Y71057D01*
X253489Y71120D01*
X253463Y71126D01*
X253439Y71136D01*
X253293Y71162D01*
X253148Y71194D01*
X253122Y71193D01*
X253096Y71198D01*
X252948Y71190D01*
X252800Y71188D01*
X252774Y71181D01*
X252748Y71180D01*
X252606Y71139D01*
X252462Y71103D01*
X252438Y71090D01*
X252413Y71083D01*
X252284Y71011D01*
X252238Y70987D01*
X247274Y70987D01*
X247259Y70998D01*
X247123Y71057D01*
X246989Y71120D01*
X246963Y71126D01*
X246939Y71136D01*
X246793Y71162D01*
X246648Y71194D01*
X246622Y71193D01*
X246596Y71198D01*
X246448Y71190D01*
X246300Y71188D01*
X246274Y71181D01*
X246248Y71180D01*
X246106Y71139D01*
X245962Y71103D01*
X245938Y71090D01*
X245913Y71083D01*
X245784Y71011D01*
X245738Y70987D01*
X240844Y70987D01*
X239951Y71880D01*
X239951Y74551D01*
X239937Y74676D01*
X239930Y74802D01*
X239917Y74849D01*
X239911Y74897D01*
X239869Y75016D01*
X239834Y75137D01*
X239810Y75179D01*
X239794Y75225D01*
X239725Y75331D01*
X239664Y75442D01*
X239624Y75488D01*
X239605Y75518D01*
X239570Y75551D01*
X239505Y75628D01*
X238512Y76621D01*
X237661Y78675D01*
X237661Y80898D01*
X238512Y82952D01*
X239505Y83945D01*
X239584Y84044D01*
X239668Y84138D01*
X239692Y84180D01*
X239722Y84218D01*
X239776Y84332D01*
X239837Y84443D01*
X239850Y84490D01*
X239871Y84533D01*
X239897Y84657D01*
X239932Y84779D01*
X239937Y84839D01*
X239944Y84874D01*
X239943Y84922D01*
X239951Y85022D01*
X239951Y87693D01*
X240844Y88586D01*
X244718Y88586D01*
X244817Y88597D01*
X244918Y88599D01*
X244990Y88617D01*
X245064Y88626D01*
X245158Y88660D01*
X245256Y88684D01*
X245322Y88718D01*
X245392Y88743D01*
X245476Y88798D01*
X245565Y88844D01*
X245622Y88892D01*
X245685Y88932D01*
X245754Y89004D01*
X245831Y89069D01*
X245875Y89129D01*
X245927Y89183D01*
X245978Y89269D01*
X246038Y89350D01*
X246067Y89418D01*
X246106Y89482D01*
X246136Y89578D01*
X246176Y89670D01*
X246189Y89743D01*
X246212Y89814D01*
X246220Y89914D01*
X246238Y90013D01*
X246234Y90087D01*
X246240Y90161D01*
X246225Y90261D01*
X246220Y90361D01*
X246199Y90432D01*
X246188Y90506D01*
X246151Y90599D01*
X246123Y90696D01*
X246087Y90761D01*
X246059Y90830D01*
X246002Y90912D01*
X245953Y91000D01*
X245888Y91076D01*
X245861Y91116D01*
X245834Y91140D01*
X245795Y91186D01*
X244652Y92329D01*
X244552Y92408D01*
X244459Y92492D01*
X244416Y92516D01*
X244379Y92546D01*
X244264Y92600D01*
X244154Y92661D01*
X244107Y92674D01*
X244063Y92695D01*
X243940Y92721D01*
X243818Y92756D01*
X243758Y92761D01*
X243723Y92768D01*
X243674Y92767D01*
X243574Y92775D01*
X197523Y92775D01*
X197397Y92761D01*
X197271Y92754D01*
X197225Y92741D01*
X197177Y92735D01*
X197058Y92693D01*
X196936Y92658D01*
X196894Y92634D01*
X196849Y92618D01*
X196742Y92549D01*
X196632Y92488D01*
X196586Y92448D01*
X196556Y92429D01*
X196522Y92394D01*
X196446Y92329D01*
X172158Y68041D01*
X166929Y65875D01*
X80106Y65875D01*
X80080Y65872D01*
X80054Y65874D01*
X79907Y65852D01*
X79760Y65835D01*
X79735Y65827D01*
X79709Y65823D01*
X79571Y65768D01*
X79432Y65718D01*
X79410Y65704D01*
X79385Y65694D01*
X79264Y65609D01*
X79139Y65529D01*
X79121Y65510D01*
X79099Y65495D01*
X79000Y65385D01*
X78897Y65278D01*
X78883Y65256D01*
X78866Y65236D01*
X78794Y65106D01*
X78718Y64979D01*
X78710Y64954D01*
X78697Y64931D01*
X78657Y64788D01*
X78612Y64647D01*
X78610Y64621D01*
X78602Y64596D01*
X78583Y64352D01*
X78583Y63212D01*
X77690Y62319D01*
X11684Y62319D01*
X11658Y62316D01*
X11632Y62318D01*
X11485Y62296D01*
X11338Y62279D01*
X11313Y62271D01*
X11287Y62267D01*
X11149Y62212D01*
X11010Y62162D01*
X10988Y62148D01*
X10963Y62138D01*
X10842Y62053D01*
X10717Y61973D01*
X10699Y61954D01*
X10677Y61939D01*
X10578Y61829D01*
X10475Y61722D01*
X10461Y61700D01*
X10444Y61680D01*
X10372Y61550D01*
X10296Y61423D01*
X10288Y61398D01*
X10275Y61375D01*
X10235Y61232D01*
X10190Y61091D01*
X10188Y61065D01*
X10180Y61040D01*
X10161Y60796D01*
X10161Y50004D01*
X10164Y49978D01*
X10162Y49952D01*
X10184Y49805D01*
X10201Y49658D01*
X10209Y49633D01*
X10213Y49607D01*
X10268Y49469D01*
X10318Y49330D01*
X10332Y49308D01*
X10342Y49283D01*
X10427Y49162D01*
X10507Y49037D01*
X10526Y49019D01*
X10541Y48997D01*
X10651Y48898D01*
X10758Y48795D01*
X10780Y48781D01*
X10800Y48764D01*
X10930Y48692D01*
X11057Y48616D01*
X11082Y48608D01*
X11105Y48595D01*
X11248Y48555D01*
X11389Y48510D01*
X11415Y48508D01*
X11440Y48500D01*
X11684Y48481D01*
X77690Y48481D01*
X78583Y47588D01*
X78583Y46448D01*
X78586Y46422D01*
X78584Y46396D01*
X78606Y46249D01*
X78623Y46102D01*
X78631Y46077D01*
X78635Y46051D01*
X78690Y45913D01*
X78740Y45774D01*
X78754Y45752D01*
X78764Y45727D01*
X78849Y45606D01*
X78929Y45481D01*
X78948Y45463D01*
X78963Y45441D01*
X79073Y45342D01*
X79180Y45239D01*
X79202Y45225D01*
X79222Y45208D01*
X79352Y45136D01*
X79479Y45060D01*
X79504Y45052D01*
X79527Y45039D01*
X79670Y44999D01*
X79811Y44954D01*
X79837Y44952D01*
X79862Y44944D01*
X80106Y44925D01*
X88412Y44925D01*
X88438Y44928D01*
X88464Y44926D01*
X88611Y44948D01*
X88758Y44965D01*
X88783Y44973D01*
X88809Y44977D01*
X88947Y45032D01*
X89086Y45082D01*
X89108Y45096D01*
X89133Y45106D01*
X89254Y45191D01*
X89379Y45271D01*
X89397Y45290D01*
X89419Y45305D01*
X89518Y45415D01*
X89621Y45522D01*
X89635Y45544D01*
X89652Y45564D01*
X89724Y45694D01*
X89800Y45821D01*
X89808Y45846D01*
X89821Y45869D01*
X89861Y46012D01*
X89906Y46153D01*
X89908Y46179D01*
X89916Y46204D01*
X89935Y46448D01*
X89935Y50929D01*
X89921Y51055D01*
X89914Y51181D01*
X89901Y51227D01*
X89895Y51275D01*
X89853Y51394D01*
X89818Y51516D01*
X89794Y51558D01*
X89778Y51603D01*
X89709Y51709D01*
X89648Y51820D01*
X89608Y51866D01*
X89589Y51896D01*
X89554Y51930D01*
X89503Y51990D01*
X88693Y53944D01*
X88693Y56056D01*
X89501Y58006D01*
X90994Y59499D01*
X92944Y60307D01*
X95056Y60307D01*
X97006Y59499D01*
X98499Y58006D01*
X99307Y56056D01*
X99307Y53944D01*
X98496Y51987D01*
X98432Y51907D01*
X98348Y51813D01*
X98324Y51771D01*
X98294Y51733D01*
X98240Y51619D01*
X98179Y51508D01*
X98166Y51462D01*
X98145Y51418D01*
X98119Y51295D01*
X98084Y51173D01*
X98079Y51112D01*
X98072Y51077D01*
X98073Y51029D01*
X98065Y50929D01*
X98065Y46448D01*
X98068Y46422D01*
X98066Y46396D01*
X98088Y46249D01*
X98105Y46102D01*
X98113Y46077D01*
X98117Y46051D01*
X98172Y45913D01*
X98222Y45774D01*
X98236Y45752D01*
X98246Y45727D01*
X98331Y45606D01*
X98411Y45481D01*
X98430Y45463D01*
X98445Y45441D01*
X98555Y45342D01*
X98662Y45239D01*
X98684Y45225D01*
X98704Y45208D01*
X98834Y45136D01*
X98961Y45060D01*
X98986Y45052D01*
X99009Y45039D01*
X99152Y44999D01*
X99293Y44954D01*
X99319Y44952D01*
X99344Y44944D01*
X99588Y44925D01*
X287845Y44925D01*
X287971Y44939D01*
X288097Y44946D01*
X288144Y44959D01*
X288192Y44965D01*
X288311Y45007D01*
X288432Y45042D01*
X288474Y45066D01*
X288520Y45082D01*
X288626Y45151D01*
X288736Y45212D01*
X288783Y45252D01*
X288813Y45271D01*
X288846Y45306D01*
X288922Y45371D01*
X291489Y47938D01*
X291568Y48037D01*
X291652Y48130D01*
X291676Y48173D01*
X291706Y48211D01*
X291760Y48325D01*
X291821Y48435D01*
X291834Y48482D01*
X291855Y48526D01*
X291881Y48649D01*
X291916Y48771D01*
X291921Y48832D01*
X291928Y48866D01*
X291927Y48914D01*
X291935Y49015D01*
X291935Y54929D01*
X291921Y55055D01*
X291914Y55181D01*
X291901Y55227D01*
X291895Y55275D01*
X291853Y55394D01*
X291818Y55516D01*
X291794Y55558D01*
X291778Y55603D01*
X291709Y55709D01*
X291648Y55820D01*
X291608Y55866D01*
X291589Y55896D01*
X291554Y55930D01*
X291503Y55990D01*
X290693Y57944D01*
X290693Y60056D01*
X291501Y62006D01*
X292994Y63499D01*
X294944Y64307D01*
X297056Y64307D01*
X299006Y63499D01*
X300499Y62006D01*
X301307Y60056D01*
X301307Y57944D01*
X300496Y55987D01*
X300432Y55907D01*
X300348Y55813D01*
X300324Y55771D01*
X300294Y55733D01*
X300240Y55619D01*
X300179Y55508D01*
X300166Y55462D01*
X300145Y55418D01*
X300119Y55295D01*
X300084Y55173D01*
X300079Y55112D01*
X300072Y55077D01*
X300073Y55029D01*
X300065Y54929D01*
X300065Y46448D01*
X300068Y46422D01*
X300066Y46396D01*
X300088Y46249D01*
X300105Y46102D01*
X300113Y46077D01*
X300117Y46051D01*
X300172Y45913D01*
X300222Y45774D01*
X300236Y45752D01*
X300246Y45727D01*
X300331Y45606D01*
X300411Y45481D01*
X300430Y45463D01*
X300445Y45441D01*
X300555Y45342D01*
X300662Y45239D01*
X300684Y45225D01*
X300704Y45208D01*
X300834Y45136D01*
X300961Y45060D01*
X300986Y45052D01*
X301009Y45039D01*
X301152Y44999D01*
X301293Y44954D01*
X301319Y44952D01*
X301344Y44944D01*
X301588Y44925D01*
X336494Y44925D01*
X336520Y44928D01*
X336546Y44926D01*
X336693Y44948D01*
X336840Y44965D01*
X336865Y44973D01*
X336891Y44977D01*
X337029Y45032D01*
X337168Y45082D01*
X337190Y45096D01*
X337215Y45106D01*
X337336Y45191D01*
X337461Y45271D01*
X337479Y45290D01*
X337501Y45305D01*
X337600Y45415D01*
X337703Y45522D01*
X337717Y45544D01*
X337734Y45564D01*
X337806Y45694D01*
X337882Y45821D01*
X337890Y45846D01*
X337903Y45869D01*
X337943Y46012D01*
X337988Y46153D01*
X337990Y46179D01*
X337998Y46204D01*
X338017Y46448D01*
X338017Y46788D01*
X338910Y47681D01*
X404690Y47681D01*
X405583Y46788D01*
X405583Y12653D01*
X405586Y12625D01*
X405584Y12597D01*
X405606Y12453D01*
X405623Y12307D01*
X405632Y12281D01*
X405636Y12253D01*
X405691Y12117D01*
X405740Y11979D01*
X405755Y11955D01*
X405766Y11929D01*
X405850Y11809D01*
X405929Y11686D01*
X405949Y11667D01*
X405965Y11644D01*
X406074Y11546D01*
X406180Y11444D01*
X406204Y11430D01*
X406225Y11411D01*
X406353Y11340D01*
X406479Y11265D01*
X406506Y11257D01*
X406530Y11243D01*
X406671Y11204D01*
X406811Y11159D01*
X406839Y11157D01*
X406866Y11149D01*
X407110Y11130D01*
X408320Y11133D01*
G37*
%LPC*%
G36*
X20412Y285855D02*
X20412Y285855D01*
X15055Y291212D01*
X15055Y298788D01*
X20412Y304145D01*
X27988Y304145D01*
X33638Y298495D01*
X33737Y298416D01*
X33831Y298332D01*
X33873Y298308D01*
X33911Y298278D01*
X34025Y298224D01*
X34136Y298163D01*
X34182Y298150D01*
X34226Y298129D01*
X34349Y298103D01*
X34471Y298068D01*
X34532Y298063D01*
X34567Y298056D01*
X34615Y298057D01*
X34715Y298049D01*
X40452Y298049D01*
X40478Y298052D01*
X40504Y298050D01*
X40651Y298072D01*
X40798Y298089D01*
X40823Y298097D01*
X40849Y298101D01*
X40987Y298156D01*
X41126Y298206D01*
X41148Y298220D01*
X41173Y298230D01*
X41294Y298315D01*
X41419Y298395D01*
X41437Y298414D01*
X41459Y298429D01*
X41558Y298539D01*
X41661Y298646D01*
X41675Y298668D01*
X41692Y298688D01*
X41764Y298818D01*
X41840Y298945D01*
X41848Y298970D01*
X41861Y298993D01*
X41901Y299136D01*
X41946Y299277D01*
X41948Y299303D01*
X41956Y299328D01*
X41975Y299572D01*
X41975Y303632D01*
X42673Y304329D01*
X42705Y304370D01*
X42743Y304404D01*
X42813Y304505D01*
X42890Y304602D01*
X42912Y304649D01*
X42941Y304691D01*
X42986Y304806D01*
X43039Y304918D01*
X43049Y304967D01*
X43068Y305015D01*
X43086Y305137D01*
X43112Y305258D01*
X43111Y305309D01*
X43119Y305360D01*
X43108Y305483D01*
X43106Y305607D01*
X43094Y305656D01*
X43089Y305707D01*
X43051Y305825D01*
X43021Y305945D01*
X42998Y305990D01*
X42982Y306039D01*
X42918Y306145D01*
X42861Y306254D01*
X42828Y306293D01*
X42802Y306337D01*
X42716Y306426D01*
X42636Y306520D01*
X42595Y306550D01*
X42559Y306587D01*
X42358Y306726D01*
X41940Y306967D01*
X41467Y307440D01*
X41132Y308019D01*
X40959Y308665D01*
X40959Y312453D01*
X49476Y312453D01*
X49502Y312456D01*
X49528Y312454D01*
X49675Y312476D01*
X49822Y312493D01*
X49847Y312501D01*
X49873Y312505D01*
X50011Y312560D01*
X50150Y312610D01*
X50172Y312624D01*
X50197Y312634D01*
X50318Y312719D01*
X50443Y312799D01*
X50461Y312818D01*
X50483Y312833D01*
X50582Y312943D01*
X50685Y313050D01*
X50699Y313072D01*
X50716Y313092D01*
X50788Y313222D01*
X50864Y313349D01*
X50872Y313374D01*
X50885Y313397D01*
X50925Y313540D01*
X50970Y313681D01*
X50972Y313707D01*
X50980Y313732D01*
X50999Y313976D01*
X50999Y315501D01*
X51001Y315501D01*
X51001Y313976D01*
X51004Y313950D01*
X51002Y313924D01*
X51024Y313777D01*
X51041Y313630D01*
X51050Y313605D01*
X51053Y313579D01*
X51108Y313441D01*
X51158Y313302D01*
X51172Y313280D01*
X51182Y313255D01*
X51267Y313134D01*
X51347Y313009D01*
X51366Y312991D01*
X51381Y312969D01*
X51491Y312870D01*
X51598Y312767D01*
X51620Y312753D01*
X51640Y312736D01*
X51770Y312664D01*
X51897Y312588D01*
X51922Y312580D01*
X51945Y312567D01*
X52088Y312527D01*
X52229Y312482D01*
X52255Y312480D01*
X52280Y312472D01*
X52524Y312453D01*
X70476Y312453D01*
X70502Y312456D01*
X70528Y312454D01*
X70675Y312476D01*
X70822Y312493D01*
X70847Y312501D01*
X70873Y312505D01*
X71011Y312560D01*
X71150Y312610D01*
X71172Y312624D01*
X71197Y312634D01*
X71318Y312719D01*
X71443Y312799D01*
X71461Y312818D01*
X71483Y312833D01*
X71582Y312943D01*
X71685Y313050D01*
X71699Y313072D01*
X71716Y313092D01*
X71788Y313222D01*
X71864Y313349D01*
X71872Y313374D01*
X71885Y313397D01*
X71925Y313540D01*
X71970Y313681D01*
X71972Y313707D01*
X71980Y313732D01*
X71999Y313976D01*
X71999Y315501D01*
X72001Y315501D01*
X72001Y313976D01*
X72004Y313950D01*
X72002Y313924D01*
X72024Y313777D01*
X72041Y313630D01*
X72050Y313605D01*
X72053Y313579D01*
X72108Y313441D01*
X72158Y313302D01*
X72172Y313280D01*
X72182Y313255D01*
X72267Y313134D01*
X72347Y313009D01*
X72366Y312991D01*
X72381Y312969D01*
X72491Y312870D01*
X72598Y312767D01*
X72620Y312753D01*
X72640Y312736D01*
X72770Y312664D01*
X72897Y312588D01*
X72922Y312580D01*
X72945Y312567D01*
X73088Y312527D01*
X73229Y312482D01*
X73255Y312480D01*
X73280Y312472D01*
X73524Y312453D01*
X82041Y312453D01*
X82041Y308665D01*
X81868Y308019D01*
X81533Y307440D01*
X81060Y306967D01*
X80642Y306726D01*
X80601Y306695D01*
X80556Y306672D01*
X80462Y306592D01*
X80362Y306518D01*
X80329Y306479D01*
X80291Y306446D01*
X80217Y306347D01*
X80137Y306252D01*
X80114Y306207D01*
X80083Y306166D01*
X80034Y306052D01*
X79978Y305942D01*
X79966Y305893D01*
X79945Y305846D01*
X79924Y305724D01*
X79894Y305604D01*
X79893Y305553D01*
X79884Y305503D01*
X79890Y305379D01*
X79888Y305256D01*
X79899Y305206D01*
X79902Y305155D01*
X79936Y305036D01*
X79962Y304915D01*
X79984Y304869D01*
X79998Y304820D01*
X80059Y304712D01*
X80112Y304600D01*
X80143Y304560D01*
X80168Y304516D01*
X80327Y304329D01*
X81025Y303632D01*
X81025Y289368D01*
X80132Y288475D01*
X63868Y288475D01*
X62577Y289767D01*
X62557Y289783D01*
X62540Y289803D01*
X62420Y289891D01*
X62304Y289983D01*
X62280Y289994D01*
X62259Y290010D01*
X62123Y290069D01*
X61989Y290132D01*
X61963Y290138D01*
X61939Y290148D01*
X61793Y290174D01*
X61648Y290206D01*
X61622Y290205D01*
X61596Y290210D01*
X61448Y290202D01*
X61300Y290200D01*
X61274Y290193D01*
X61248Y290192D01*
X61106Y290151D01*
X60962Y290115D01*
X60939Y290103D01*
X60913Y290095D01*
X60784Y290023D01*
X60652Y289955D01*
X60632Y289938D01*
X60609Y289925D01*
X60423Y289767D01*
X59132Y288475D01*
X42868Y288475D01*
X41975Y289368D01*
X41975Y290428D01*
X41972Y290454D01*
X41974Y290480D01*
X41952Y290627D01*
X41935Y290774D01*
X41927Y290799D01*
X41923Y290825D01*
X41868Y290963D01*
X41818Y291102D01*
X41804Y291124D01*
X41794Y291149D01*
X41709Y291270D01*
X41629Y291395D01*
X41610Y291413D01*
X41595Y291435D01*
X41485Y291534D01*
X41378Y291637D01*
X41356Y291651D01*
X41336Y291668D01*
X41206Y291740D01*
X41079Y291816D01*
X41054Y291824D01*
X41031Y291837D01*
X40888Y291877D01*
X40747Y291922D01*
X40721Y291924D01*
X40696Y291932D01*
X40452Y291951D01*
X34715Y291951D01*
X34589Y291937D01*
X34463Y291930D01*
X34417Y291917D01*
X34369Y291911D01*
X34250Y291869D01*
X34128Y291834D01*
X34086Y291810D01*
X34041Y291794D01*
X33934Y291725D01*
X33824Y291664D01*
X33778Y291624D01*
X33748Y291605D01*
X33714Y291570D01*
X33638Y291505D01*
X27988Y285855D01*
X20412Y285855D01*
G37*
%LPD*%
%LPC*%
G36*
X108868Y400375D02*
X108868Y400375D01*
X107975Y401268D01*
X107975Y413532D01*
X108868Y414425D01*
X120132Y414425D01*
X121025Y413532D01*
X121025Y411972D01*
X121028Y411946D01*
X121026Y411920D01*
X121048Y411773D01*
X121065Y411626D01*
X121073Y411601D01*
X121077Y411575D01*
X121132Y411437D01*
X121182Y411298D01*
X121196Y411276D01*
X121206Y411251D01*
X121291Y411130D01*
X121371Y411005D01*
X121390Y410987D01*
X121405Y410965D01*
X121515Y410866D01*
X121622Y410763D01*
X121644Y410749D01*
X121664Y410732D01*
X121794Y410660D01*
X121921Y410584D01*
X121946Y410576D01*
X121969Y410563D01*
X122112Y410523D01*
X122253Y410478D01*
X122279Y410476D01*
X122304Y410468D01*
X122548Y410449D01*
X132952Y410449D01*
X132978Y410452D01*
X133004Y410450D01*
X133151Y410472D01*
X133298Y410489D01*
X133323Y410497D01*
X133349Y410501D01*
X133487Y410556D01*
X133626Y410606D01*
X133648Y410620D01*
X133673Y410630D01*
X133794Y410715D01*
X133919Y410795D01*
X133937Y410814D01*
X133959Y410829D01*
X134058Y410939D01*
X134161Y411046D01*
X134175Y411068D01*
X134192Y411088D01*
X134264Y411218D01*
X134340Y411345D01*
X134348Y411370D01*
X134361Y411393D01*
X134401Y411536D01*
X134446Y411677D01*
X134448Y411703D01*
X134456Y411728D01*
X134475Y411972D01*
X134475Y412132D01*
X135368Y413025D01*
X144632Y413025D01*
X145525Y412132D01*
X145525Y412072D01*
X145528Y412046D01*
X145526Y412020D01*
X145548Y411873D01*
X145565Y411726D01*
X145573Y411701D01*
X145577Y411675D01*
X145632Y411537D01*
X145682Y411398D01*
X145696Y411376D01*
X145706Y411351D01*
X145791Y411230D01*
X145871Y411105D01*
X145890Y411087D01*
X145905Y411065D01*
X146015Y410966D01*
X146122Y410863D01*
X146144Y410849D01*
X146164Y410832D01*
X146294Y410760D01*
X146421Y410684D01*
X146446Y410676D01*
X146469Y410663D01*
X146612Y410623D01*
X146753Y410578D01*
X146779Y410576D01*
X146804Y410568D01*
X147048Y410549D01*
X162952Y410549D01*
X162978Y410552D01*
X163004Y410550D01*
X163151Y410572D01*
X163298Y410589D01*
X163323Y410597D01*
X163349Y410601D01*
X163487Y410656D01*
X163626Y410706D01*
X163648Y410720D01*
X163673Y410730D01*
X163794Y410815D01*
X163919Y410895D01*
X163937Y410914D01*
X163959Y410929D01*
X164058Y411039D01*
X164161Y411146D01*
X164175Y411168D01*
X164192Y411188D01*
X164264Y411318D01*
X164340Y411445D01*
X164348Y411470D01*
X164361Y411493D01*
X164401Y411636D01*
X164446Y411777D01*
X164448Y411803D01*
X164456Y411828D01*
X164475Y412072D01*
X164475Y412132D01*
X165368Y413025D01*
X174632Y413025D01*
X175525Y412132D01*
X175525Y412072D01*
X175528Y412046D01*
X175526Y412020D01*
X175548Y411873D01*
X175565Y411726D01*
X175573Y411701D01*
X175577Y411675D01*
X175632Y411537D01*
X175682Y411398D01*
X175696Y411376D01*
X175706Y411351D01*
X175791Y411230D01*
X175871Y411105D01*
X175890Y411087D01*
X175905Y411065D01*
X176015Y410966D01*
X176122Y410863D01*
X176144Y410849D01*
X176164Y410832D01*
X176294Y410760D01*
X176421Y410684D01*
X176446Y410676D01*
X176469Y410663D01*
X176612Y410623D01*
X176753Y410578D01*
X176779Y410576D01*
X176804Y410568D01*
X177048Y410549D01*
X192952Y410549D01*
X192978Y410552D01*
X193004Y410550D01*
X193151Y410572D01*
X193298Y410589D01*
X193323Y410597D01*
X193349Y410601D01*
X193487Y410656D01*
X193626Y410706D01*
X193648Y410720D01*
X193673Y410730D01*
X193794Y410815D01*
X193919Y410895D01*
X193937Y410914D01*
X193959Y410929D01*
X194058Y411039D01*
X194161Y411146D01*
X194175Y411168D01*
X194192Y411188D01*
X194264Y411318D01*
X194340Y411445D01*
X194348Y411470D01*
X194361Y411493D01*
X194401Y411636D01*
X194446Y411777D01*
X194448Y411803D01*
X194456Y411828D01*
X194475Y412072D01*
X194475Y412132D01*
X195368Y413025D01*
X204632Y413025D01*
X205525Y412132D01*
X205525Y411072D01*
X205528Y411046D01*
X205526Y411020D01*
X205548Y410873D01*
X205565Y410726D01*
X205573Y410701D01*
X205577Y410675D01*
X205632Y410537D01*
X205682Y410398D01*
X205696Y410376D01*
X205706Y410351D01*
X205791Y410230D01*
X205871Y410105D01*
X205890Y410087D01*
X205905Y410065D01*
X206015Y409966D01*
X206122Y409863D01*
X206144Y409849D01*
X206164Y409832D01*
X206294Y409760D01*
X206421Y409684D01*
X206446Y409676D01*
X206469Y409663D01*
X206612Y409623D01*
X206753Y409578D01*
X206779Y409576D01*
X206804Y409568D01*
X207048Y409549D01*
X222952Y409549D01*
X222978Y409552D01*
X223004Y409550D01*
X223151Y409572D01*
X223298Y409589D01*
X223323Y409597D01*
X223349Y409601D01*
X223487Y409656D01*
X223626Y409706D01*
X223648Y409720D01*
X223673Y409730D01*
X223794Y409815D01*
X223919Y409895D01*
X223937Y409914D01*
X223959Y409929D01*
X224058Y410039D01*
X224161Y410146D01*
X224175Y410168D01*
X224192Y410188D01*
X224264Y410318D01*
X224340Y410445D01*
X224348Y410470D01*
X224361Y410493D01*
X224401Y410636D01*
X224446Y410777D01*
X224448Y410803D01*
X224456Y410828D01*
X224475Y411072D01*
X224475Y412132D01*
X225368Y413025D01*
X234632Y413025D01*
X235525Y412132D01*
X235525Y402868D01*
X234632Y401975D01*
X225368Y401975D01*
X224339Y403005D01*
X224240Y403084D01*
X224146Y403168D01*
X224103Y403192D01*
X224066Y403222D01*
X223951Y403276D01*
X223841Y403337D01*
X223794Y403350D01*
X223750Y403371D01*
X223627Y403397D01*
X223505Y403432D01*
X223445Y403437D01*
X223410Y403444D01*
X223362Y403443D01*
X223261Y403451D01*
X206739Y403451D01*
X206613Y403437D01*
X206487Y403430D01*
X206440Y403417D01*
X206392Y403411D01*
X206273Y403369D01*
X206152Y403334D01*
X206110Y403310D01*
X206064Y403294D01*
X205958Y403225D01*
X205848Y403164D01*
X205801Y403124D01*
X205771Y403105D01*
X205738Y403070D01*
X205661Y403005D01*
X204632Y401975D01*
X195368Y401975D01*
X194475Y402868D01*
X194475Y402928D01*
X194472Y402954D01*
X194474Y402980D01*
X194452Y403127D01*
X194435Y403274D01*
X194427Y403299D01*
X194423Y403325D01*
X194368Y403463D01*
X194318Y403602D01*
X194304Y403624D01*
X194294Y403649D01*
X194209Y403770D01*
X194129Y403895D01*
X194110Y403913D01*
X194095Y403935D01*
X193985Y404034D01*
X193878Y404137D01*
X193856Y404151D01*
X193836Y404168D01*
X193706Y404240D01*
X193579Y404316D01*
X193554Y404324D01*
X193531Y404337D01*
X193388Y404377D01*
X193247Y404422D01*
X193221Y404424D01*
X193196Y404432D01*
X192952Y404451D01*
X177048Y404451D01*
X177022Y404448D01*
X176996Y404450D01*
X176849Y404428D01*
X176702Y404411D01*
X176677Y404403D01*
X176651Y404399D01*
X176513Y404344D01*
X176374Y404294D01*
X176352Y404280D01*
X176327Y404270D01*
X176206Y404185D01*
X176081Y404105D01*
X176063Y404086D01*
X176041Y404071D01*
X175942Y403961D01*
X175839Y403854D01*
X175825Y403832D01*
X175808Y403812D01*
X175736Y403682D01*
X175660Y403555D01*
X175652Y403530D01*
X175639Y403507D01*
X175599Y403364D01*
X175554Y403223D01*
X175552Y403197D01*
X175544Y403172D01*
X175525Y402928D01*
X175525Y402868D01*
X174632Y401975D01*
X165368Y401975D01*
X164475Y402868D01*
X164475Y402928D01*
X164472Y402954D01*
X164474Y402980D01*
X164452Y403127D01*
X164435Y403274D01*
X164427Y403299D01*
X164423Y403325D01*
X164368Y403463D01*
X164318Y403602D01*
X164304Y403624D01*
X164294Y403649D01*
X164209Y403770D01*
X164129Y403895D01*
X164110Y403913D01*
X164095Y403935D01*
X163985Y404034D01*
X163878Y404137D01*
X163856Y404151D01*
X163836Y404168D01*
X163706Y404240D01*
X163579Y404316D01*
X163554Y404324D01*
X163531Y404337D01*
X163388Y404377D01*
X163247Y404422D01*
X163221Y404424D01*
X163196Y404432D01*
X162952Y404451D01*
X147048Y404451D01*
X147022Y404448D01*
X146996Y404450D01*
X146849Y404428D01*
X146702Y404411D01*
X146677Y404403D01*
X146651Y404399D01*
X146513Y404344D01*
X146374Y404294D01*
X146352Y404280D01*
X146327Y404270D01*
X146206Y404185D01*
X146081Y404105D01*
X146063Y404086D01*
X146041Y404071D01*
X145942Y403961D01*
X145839Y403854D01*
X145825Y403832D01*
X145808Y403812D01*
X145736Y403682D01*
X145660Y403555D01*
X145652Y403530D01*
X145639Y403507D01*
X145599Y403364D01*
X145554Y403223D01*
X145552Y403197D01*
X145544Y403172D01*
X145525Y402928D01*
X145525Y402868D01*
X144632Y401975D01*
X135368Y401975D01*
X134474Y402870D01*
X134474Y402880D01*
X134452Y403027D01*
X134435Y403174D01*
X134427Y403199D01*
X134423Y403225D01*
X134368Y403363D01*
X134318Y403502D01*
X134304Y403524D01*
X134294Y403549D01*
X134209Y403670D01*
X134129Y403795D01*
X134110Y403813D01*
X134095Y403835D01*
X133985Y403934D01*
X133878Y404037D01*
X133856Y404051D01*
X133836Y404068D01*
X133706Y404140D01*
X133579Y404216D01*
X133554Y404224D01*
X133531Y404237D01*
X133388Y404277D01*
X133247Y404322D01*
X133221Y404324D01*
X133196Y404332D01*
X132952Y404351D01*
X122548Y404351D01*
X122522Y404348D01*
X122496Y404350D01*
X122349Y404328D01*
X122202Y404311D01*
X122177Y404303D01*
X122151Y404299D01*
X122013Y404244D01*
X121874Y404194D01*
X121852Y404180D01*
X121827Y404170D01*
X121706Y404085D01*
X121581Y404005D01*
X121563Y403986D01*
X121541Y403971D01*
X121442Y403861D01*
X121339Y403754D01*
X121325Y403732D01*
X121308Y403712D01*
X121236Y403582D01*
X121160Y403455D01*
X121152Y403430D01*
X121139Y403407D01*
X121099Y403264D01*
X121054Y403123D01*
X121052Y403097D01*
X121044Y403072D01*
X121025Y402828D01*
X121025Y401268D01*
X120132Y400375D01*
X108868Y400375D01*
G37*
%LPD*%
%LPC*%
G36*
X20612Y226755D02*
X20612Y226755D01*
X15255Y232112D01*
X15255Y239688D01*
X20612Y245045D01*
X28188Y245045D01*
X33720Y239513D01*
X33726Y239497D01*
X33811Y239376D01*
X33891Y239251D01*
X33910Y239233D01*
X33925Y239211D01*
X34035Y239112D01*
X34142Y239009D01*
X34164Y238995D01*
X34184Y238978D01*
X34314Y238906D01*
X34441Y238830D01*
X34466Y238822D01*
X34489Y238809D01*
X34632Y238769D01*
X34773Y238724D01*
X34799Y238722D01*
X34824Y238714D01*
X35068Y238695D01*
X83452Y238695D01*
X83478Y238698D01*
X83504Y238696D01*
X83651Y238718D01*
X83798Y238735D01*
X83823Y238743D01*
X83849Y238747D01*
X83987Y238802D01*
X84126Y238852D01*
X84148Y238866D01*
X84173Y238876D01*
X84294Y238961D01*
X84419Y239041D01*
X84437Y239060D01*
X84459Y239075D01*
X84558Y239185D01*
X84661Y239292D01*
X84675Y239314D01*
X84692Y239334D01*
X84764Y239464D01*
X84840Y239591D01*
X84848Y239616D01*
X84861Y239639D01*
X84901Y239782D01*
X84946Y239923D01*
X84948Y239949D01*
X84956Y239974D01*
X84975Y240218D01*
X84975Y242132D01*
X85868Y243025D01*
X97132Y243025D01*
X98025Y242132D01*
X98025Y229868D01*
X97132Y228975D01*
X85868Y228975D01*
X84975Y229868D01*
X84975Y231582D01*
X84972Y231608D01*
X84974Y231634D01*
X84952Y231781D01*
X84935Y231928D01*
X84927Y231953D01*
X84923Y231979D01*
X84868Y232117D01*
X84818Y232256D01*
X84804Y232278D01*
X84794Y232303D01*
X84709Y232424D01*
X84629Y232549D01*
X84610Y232567D01*
X84595Y232589D01*
X84485Y232688D01*
X84378Y232791D01*
X84356Y232805D01*
X84336Y232822D01*
X84206Y232894D01*
X84079Y232970D01*
X84054Y232978D01*
X84031Y232991D01*
X83888Y233031D01*
X83747Y233076D01*
X83721Y233078D01*
X83696Y233086D01*
X83452Y233105D01*
X35068Y233105D01*
X35042Y233102D01*
X35016Y233104D01*
X34869Y233082D01*
X34722Y233065D01*
X34697Y233057D01*
X34671Y233053D01*
X34533Y232998D01*
X34394Y232948D01*
X34372Y232934D01*
X34347Y232924D01*
X34226Y232839D01*
X34101Y232759D01*
X34083Y232740D01*
X34061Y232725D01*
X33962Y232615D01*
X33859Y232508D01*
X33845Y232486D01*
X33828Y232466D01*
X33756Y232336D01*
X33736Y232304D01*
X28188Y226755D01*
X20612Y226755D01*
G37*
%LPD*%
%LPC*%
G36*
X19944Y390693D02*
X19944Y390693D01*
X17994Y391501D01*
X16501Y392994D01*
X15693Y394944D01*
X15693Y397056D01*
X16501Y399006D01*
X17994Y400499D01*
X19944Y401307D01*
X21364Y401307D01*
X21490Y401321D01*
X21616Y401328D01*
X21662Y401341D01*
X21710Y401347D01*
X21829Y401389D01*
X21951Y401424D01*
X21993Y401448D01*
X22039Y401464D01*
X22145Y401533D01*
X22255Y401594D01*
X22301Y401634D01*
X22331Y401653D01*
X22365Y401688D01*
X22441Y401753D01*
X31137Y410449D01*
X89452Y410449D01*
X89478Y410452D01*
X89504Y410450D01*
X89651Y410472D01*
X89798Y410489D01*
X89823Y410497D01*
X89849Y410501D01*
X89987Y410556D01*
X90126Y410606D01*
X90148Y410620D01*
X90173Y410630D01*
X90294Y410715D01*
X90419Y410795D01*
X90437Y410814D01*
X90459Y410829D01*
X90558Y410939D01*
X90661Y411046D01*
X90675Y411068D01*
X90692Y411088D01*
X90764Y411218D01*
X90840Y411345D01*
X90848Y411370D01*
X90861Y411393D01*
X90901Y411536D01*
X90946Y411677D01*
X90948Y411703D01*
X90956Y411728D01*
X90975Y411972D01*
X90975Y413532D01*
X91868Y414425D01*
X103132Y414425D01*
X104025Y413532D01*
X104025Y401268D01*
X103132Y400375D01*
X91868Y400375D01*
X90975Y401268D01*
X90975Y402828D01*
X90972Y402854D01*
X90974Y402880D01*
X90952Y403027D01*
X90935Y403174D01*
X90927Y403199D01*
X90923Y403225D01*
X90868Y403363D01*
X90818Y403502D01*
X90804Y403524D01*
X90794Y403549D01*
X90709Y403670D01*
X90629Y403795D01*
X90610Y403813D01*
X90595Y403835D01*
X90485Y403934D01*
X90378Y404037D01*
X90356Y404051D01*
X90336Y404068D01*
X90206Y404140D01*
X90079Y404216D01*
X90054Y404224D01*
X90031Y404237D01*
X89888Y404277D01*
X89747Y404322D01*
X89721Y404324D01*
X89696Y404332D01*
X89452Y404351D01*
X34294Y404351D01*
X34168Y404337D01*
X34042Y404330D01*
X33996Y404317D01*
X33948Y404311D01*
X33829Y404269D01*
X33707Y404234D01*
X33665Y404210D01*
X33619Y404194D01*
X33513Y404125D01*
X33403Y404064D01*
X33357Y404024D01*
X33327Y404005D01*
X33293Y403970D01*
X33217Y403905D01*
X26753Y397441D01*
X26674Y397342D01*
X26590Y397248D01*
X26566Y397206D01*
X26536Y397168D01*
X26482Y397054D01*
X26421Y396943D01*
X26408Y396897D01*
X26387Y396853D01*
X26361Y396730D01*
X26326Y396608D01*
X26321Y396547D01*
X26314Y396512D01*
X26315Y396464D01*
X26307Y396364D01*
X26307Y394944D01*
X25499Y392994D01*
X24006Y391501D01*
X22056Y390693D01*
X19944Y390693D01*
G37*
%LPD*%
%LPC*%
G36*
X284944Y260693D02*
X284944Y260693D01*
X282994Y261501D01*
X281501Y262994D01*
X280693Y264944D01*
X280693Y267056D01*
X281501Y269006D01*
X282994Y270499D01*
X284944Y271307D01*
X286364Y271307D01*
X286490Y271321D01*
X286616Y271328D01*
X286662Y271341D01*
X286710Y271347D01*
X286829Y271389D01*
X286951Y271424D01*
X286993Y271448D01*
X287039Y271464D01*
X287145Y271533D01*
X287255Y271594D01*
X287301Y271634D01*
X287331Y271653D01*
X287365Y271688D01*
X287441Y271753D01*
X299335Y283647D01*
X299414Y283746D01*
X299498Y283840D01*
X299522Y283882D01*
X299552Y283920D01*
X299606Y284034D01*
X299667Y284145D01*
X299680Y284191D01*
X299701Y284235D01*
X299727Y284358D01*
X299762Y284480D01*
X299767Y284541D01*
X299774Y284576D01*
X299773Y284624D01*
X299781Y284724D01*
X299781Y319935D01*
X299767Y320061D01*
X299760Y320187D01*
X299747Y320233D01*
X299741Y320282D01*
X299699Y320401D01*
X299664Y320522D01*
X299640Y320564D01*
X299624Y320610D01*
X299555Y320716D01*
X299494Y320826D01*
X299454Y320872D01*
X299435Y320902D01*
X299400Y320936D01*
X299335Y321012D01*
X290300Y330047D01*
X290201Y330126D01*
X290108Y330210D01*
X290065Y330234D01*
X290027Y330264D01*
X289913Y330318D01*
X289803Y330379D01*
X289756Y330392D01*
X289712Y330413D01*
X289589Y330439D01*
X289467Y330474D01*
X289406Y330479D01*
X289372Y330486D01*
X289324Y330485D01*
X289223Y330493D01*
X287804Y330493D01*
X285853Y331301D01*
X284360Y332794D01*
X283552Y334744D01*
X283552Y336856D01*
X284360Y338806D01*
X285853Y340299D01*
X287804Y341107D01*
X289915Y341107D01*
X291865Y340299D01*
X293358Y338806D01*
X294166Y336856D01*
X294166Y335436D01*
X294180Y335310D01*
X294187Y335184D01*
X294200Y335138D01*
X294206Y335090D01*
X294248Y334971D01*
X294283Y334849D01*
X294307Y334807D01*
X294323Y334761D01*
X294392Y334655D01*
X294454Y334545D01*
X294493Y334499D01*
X294512Y334469D01*
X294547Y334435D01*
X294612Y334359D01*
X305879Y323092D01*
X305879Y281567D01*
X291753Y267441D01*
X291674Y267342D01*
X291590Y267248D01*
X291566Y267206D01*
X291536Y267168D01*
X291482Y267054D01*
X291421Y266943D01*
X291408Y266897D01*
X291387Y266853D01*
X291361Y266730D01*
X291326Y266608D01*
X291321Y266547D01*
X291314Y266512D01*
X291315Y266464D01*
X291307Y266364D01*
X291307Y264944D01*
X290499Y262994D01*
X289006Y261501D01*
X287056Y260693D01*
X284944Y260693D01*
G37*
%LPD*%
%LPC*%
G36*
X16148Y252155D02*
X16148Y252155D01*
X15255Y253048D01*
X15255Y269552D01*
X16148Y270445D01*
X32652Y270445D01*
X33545Y269552D01*
X33545Y265872D01*
X33548Y265846D01*
X33546Y265820D01*
X33568Y265673D01*
X33585Y265526D01*
X33593Y265501D01*
X33597Y265475D01*
X33652Y265337D01*
X33702Y265198D01*
X33716Y265176D01*
X33726Y265151D01*
X33811Y265030D01*
X33891Y264905D01*
X33910Y264887D01*
X33925Y264865D01*
X34035Y264766D01*
X34142Y264663D01*
X34164Y264649D01*
X34184Y264632D01*
X34314Y264560D01*
X34441Y264484D01*
X34466Y264476D01*
X34489Y264463D01*
X34632Y264423D01*
X34773Y264378D01*
X34799Y264376D01*
X34824Y264368D01*
X35068Y264349D01*
X47452Y264349D01*
X47478Y264352D01*
X47504Y264350D01*
X47651Y264372D01*
X47798Y264389D01*
X47823Y264397D01*
X47849Y264401D01*
X47987Y264456D01*
X48126Y264506D01*
X48148Y264520D01*
X48173Y264530D01*
X48294Y264615D01*
X48419Y264695D01*
X48437Y264714D01*
X48459Y264729D01*
X48558Y264839D01*
X48661Y264946D01*
X48675Y264968D01*
X48692Y264988D01*
X48764Y265118D01*
X48840Y265245D01*
X48848Y265270D01*
X48861Y265293D01*
X48901Y265436D01*
X48946Y265577D01*
X48948Y265603D01*
X48956Y265628D01*
X48975Y265872D01*
X48975Y267132D01*
X49868Y268025D01*
X61132Y268025D01*
X62025Y267132D01*
X62025Y254868D01*
X61132Y253975D01*
X49868Y253975D01*
X48975Y254868D01*
X48975Y256728D01*
X48972Y256754D01*
X48974Y256780D01*
X48952Y256927D01*
X48935Y257074D01*
X48927Y257099D01*
X48923Y257125D01*
X48868Y257263D01*
X48818Y257402D01*
X48804Y257424D01*
X48794Y257449D01*
X48709Y257570D01*
X48629Y257695D01*
X48610Y257713D01*
X48595Y257735D01*
X48485Y257834D01*
X48378Y257937D01*
X48356Y257951D01*
X48336Y257968D01*
X48206Y258040D01*
X48079Y258116D01*
X48054Y258124D01*
X48031Y258137D01*
X47888Y258177D01*
X47747Y258222D01*
X47721Y258224D01*
X47696Y258232D01*
X47452Y258251D01*
X35068Y258251D01*
X35042Y258248D01*
X35016Y258250D01*
X34869Y258228D01*
X34722Y258211D01*
X34697Y258203D01*
X34671Y258199D01*
X34533Y258144D01*
X34394Y258094D01*
X34372Y258080D01*
X34347Y258070D01*
X34226Y257985D01*
X34101Y257905D01*
X34083Y257886D01*
X34061Y257871D01*
X33962Y257761D01*
X33859Y257654D01*
X33845Y257632D01*
X33828Y257612D01*
X33756Y257482D01*
X33680Y257355D01*
X33672Y257330D01*
X33659Y257307D01*
X33619Y257164D01*
X33574Y257023D01*
X33572Y256997D01*
X33564Y256972D01*
X33545Y256728D01*
X33545Y253048D01*
X32652Y252155D01*
X16148Y252155D01*
G37*
%LPD*%
%LPC*%
G36*
X15948Y336655D02*
X15948Y336655D01*
X15055Y337548D01*
X15055Y354052D01*
X15948Y354945D01*
X32452Y354945D01*
X33345Y354052D01*
X33345Y350372D01*
X33348Y350346D01*
X33346Y350320D01*
X33368Y350173D01*
X33385Y350026D01*
X33393Y350001D01*
X33397Y349975D01*
X33452Y349837D01*
X33502Y349698D01*
X33516Y349676D01*
X33526Y349651D01*
X33611Y349530D01*
X33691Y349405D01*
X33710Y349387D01*
X33725Y349365D01*
X33835Y349266D01*
X33942Y349163D01*
X33964Y349149D01*
X33984Y349132D01*
X34114Y349060D01*
X34241Y348984D01*
X34266Y348976D01*
X34289Y348963D01*
X34432Y348923D01*
X34573Y348878D01*
X34599Y348876D01*
X34624Y348868D01*
X34868Y348849D01*
X44252Y348849D01*
X44278Y348852D01*
X44304Y348850D01*
X44451Y348872D01*
X44598Y348889D01*
X44623Y348897D01*
X44649Y348901D01*
X44787Y348956D01*
X44926Y349006D01*
X44948Y349020D01*
X44973Y349030D01*
X45094Y349115D01*
X45219Y349195D01*
X45237Y349214D01*
X45259Y349229D01*
X45358Y349339D01*
X45461Y349446D01*
X45475Y349468D01*
X45492Y349488D01*
X45564Y349618D01*
X45640Y349745D01*
X45648Y349770D01*
X45661Y349793D01*
X45701Y349936D01*
X45746Y350077D01*
X45748Y350103D01*
X45756Y350128D01*
X45775Y350372D01*
X45775Y351932D01*
X46668Y352825D01*
X57932Y352825D01*
X58825Y351932D01*
X58825Y339668D01*
X57932Y338775D01*
X46668Y338775D01*
X45775Y339668D01*
X45775Y341228D01*
X45772Y341254D01*
X45774Y341280D01*
X45752Y341427D01*
X45735Y341574D01*
X45727Y341599D01*
X45723Y341625D01*
X45668Y341763D01*
X45618Y341902D01*
X45604Y341924D01*
X45594Y341949D01*
X45509Y342070D01*
X45429Y342195D01*
X45410Y342213D01*
X45395Y342235D01*
X45285Y342334D01*
X45178Y342437D01*
X45156Y342451D01*
X45136Y342468D01*
X45006Y342540D01*
X44879Y342616D01*
X44854Y342624D01*
X44831Y342637D01*
X44688Y342677D01*
X44547Y342722D01*
X44521Y342724D01*
X44496Y342732D01*
X44252Y342751D01*
X34868Y342751D01*
X34842Y342748D01*
X34816Y342750D01*
X34669Y342728D01*
X34522Y342711D01*
X34497Y342703D01*
X34471Y342699D01*
X34333Y342644D01*
X34194Y342594D01*
X34172Y342580D01*
X34147Y342570D01*
X34026Y342485D01*
X33901Y342405D01*
X33883Y342386D01*
X33861Y342371D01*
X33762Y342261D01*
X33659Y342154D01*
X33645Y342132D01*
X33628Y342112D01*
X33556Y341982D01*
X33480Y341855D01*
X33472Y341830D01*
X33459Y341807D01*
X33419Y341664D01*
X33374Y341523D01*
X33372Y341497D01*
X33364Y341472D01*
X33345Y341228D01*
X33345Y337548D01*
X32452Y336655D01*
X15948Y336655D01*
G37*
%LPD*%
%LPC*%
G36*
X85268Y253675D02*
X85268Y253675D01*
X84375Y254568D01*
X84375Y256428D01*
X84372Y256454D01*
X84374Y256480D01*
X84352Y256627D01*
X84335Y256774D01*
X84327Y256799D01*
X84323Y256825D01*
X84268Y256963D01*
X84218Y257102D01*
X84204Y257124D01*
X84194Y257149D01*
X84109Y257270D01*
X84029Y257395D01*
X84010Y257413D01*
X83995Y257435D01*
X83885Y257534D01*
X83778Y257637D01*
X83756Y257651D01*
X83736Y257668D01*
X83606Y257740D01*
X83479Y257816D01*
X83454Y257824D01*
X83431Y257837D01*
X83288Y257877D01*
X83147Y257922D01*
X83121Y257924D01*
X83096Y257932D01*
X82852Y257951D01*
X80548Y257951D01*
X80522Y257948D01*
X80496Y257950D01*
X80349Y257928D01*
X80202Y257911D01*
X80177Y257903D01*
X80151Y257899D01*
X80013Y257844D01*
X79874Y257794D01*
X79852Y257780D01*
X79827Y257770D01*
X79706Y257685D01*
X79581Y257605D01*
X79563Y257586D01*
X79541Y257571D01*
X79442Y257461D01*
X79339Y257354D01*
X79325Y257332D01*
X79308Y257312D01*
X79236Y257182D01*
X79160Y257055D01*
X79152Y257030D01*
X79139Y257007D01*
X79099Y256864D01*
X79054Y256723D01*
X79052Y256697D01*
X79044Y256672D01*
X79025Y256428D01*
X79025Y254868D01*
X78132Y253975D01*
X66868Y253975D01*
X65975Y254868D01*
X65975Y267132D01*
X66868Y268025D01*
X78132Y268025D01*
X79025Y267132D01*
X79025Y265572D01*
X79028Y265546D01*
X79026Y265520D01*
X79048Y265373D01*
X79065Y265226D01*
X79073Y265201D01*
X79077Y265175D01*
X79132Y265037D01*
X79182Y264898D01*
X79196Y264876D01*
X79206Y264851D01*
X79291Y264730D01*
X79371Y264605D01*
X79390Y264587D01*
X79405Y264565D01*
X79515Y264466D01*
X79622Y264363D01*
X79644Y264349D01*
X79664Y264332D01*
X79794Y264260D01*
X79921Y264184D01*
X79946Y264176D01*
X79969Y264163D01*
X80112Y264123D01*
X80253Y264078D01*
X80279Y264076D01*
X80304Y264068D01*
X80548Y264049D01*
X82852Y264049D01*
X82878Y264052D01*
X82904Y264050D01*
X83051Y264072D01*
X83198Y264089D01*
X83223Y264097D01*
X83249Y264101D01*
X83387Y264156D01*
X83526Y264206D01*
X83548Y264220D01*
X83573Y264230D01*
X83694Y264315D01*
X83819Y264395D01*
X83837Y264414D01*
X83859Y264429D01*
X83958Y264539D01*
X84061Y264646D01*
X84075Y264668D01*
X84092Y264688D01*
X84164Y264818D01*
X84240Y264945D01*
X84248Y264970D01*
X84261Y264993D01*
X84301Y265136D01*
X84346Y265277D01*
X84348Y265303D01*
X84356Y265328D01*
X84375Y265572D01*
X84375Y266832D01*
X85268Y267725D01*
X85428Y267725D01*
X85454Y267728D01*
X85480Y267726D01*
X85627Y267748D01*
X85774Y267765D01*
X85799Y267773D01*
X85825Y267777D01*
X85963Y267832D01*
X86102Y267882D01*
X86124Y267896D01*
X86149Y267906D01*
X86270Y267991D01*
X86395Y268071D01*
X86413Y268090D01*
X86435Y268105D01*
X86534Y268215D01*
X86637Y268322D01*
X86651Y268344D01*
X86668Y268364D01*
X86740Y268494D01*
X86816Y268621D01*
X86824Y268646D01*
X86837Y268669D01*
X86877Y268812D01*
X86922Y268953D01*
X86924Y268979D01*
X86932Y269004D01*
X86951Y269248D01*
X86951Y271913D01*
X86937Y272039D01*
X86930Y272165D01*
X86917Y272211D01*
X86911Y272259D01*
X86869Y272378D01*
X86834Y272500D01*
X86810Y272542D01*
X86794Y272587D01*
X86725Y272693D01*
X86664Y272804D01*
X86624Y272850D01*
X86605Y272880D01*
X86570Y272914D01*
X86505Y272990D01*
X85501Y273994D01*
X84693Y275944D01*
X84693Y278056D01*
X85501Y280006D01*
X86994Y281499D01*
X88944Y282307D01*
X91056Y282307D01*
X93006Y281499D01*
X94499Y280006D01*
X95307Y278056D01*
X95307Y275944D01*
X94499Y273994D01*
X93495Y272990D01*
X93416Y272891D01*
X93332Y272797D01*
X93308Y272755D01*
X93278Y272717D01*
X93224Y272603D01*
X93163Y272492D01*
X93150Y272446D01*
X93129Y272402D01*
X93103Y272279D01*
X93068Y272157D01*
X93063Y272096D01*
X93056Y272061D01*
X93057Y272013D01*
X93049Y271913D01*
X93049Y269248D01*
X93052Y269222D01*
X93050Y269196D01*
X93072Y269049D01*
X93089Y268902D01*
X93097Y268877D01*
X93101Y268851D01*
X93156Y268713D01*
X93206Y268574D01*
X93220Y268552D01*
X93230Y268527D01*
X93315Y268406D01*
X93395Y268281D01*
X93414Y268263D01*
X93429Y268241D01*
X93539Y268142D01*
X93646Y268039D01*
X93668Y268025D01*
X93688Y268008D01*
X93818Y267936D01*
X93945Y267860D01*
X93970Y267852D01*
X93993Y267839D01*
X94136Y267799D01*
X94277Y267754D01*
X94303Y267752D01*
X94328Y267744D01*
X94572Y267725D01*
X96532Y267725D01*
X97425Y266832D01*
X97425Y254568D01*
X96532Y253675D01*
X85268Y253675D01*
G37*
%LPD*%
%LPC*%
G36*
X139944Y356693D02*
X139944Y356693D01*
X137994Y357501D01*
X136501Y358994D01*
X135693Y360944D01*
X135693Y363056D01*
X136501Y365006D01*
X136759Y365264D01*
X136838Y365363D01*
X136922Y365457D01*
X136946Y365499D01*
X136976Y365537D01*
X137030Y365651D01*
X137091Y365762D01*
X137104Y365808D01*
X137125Y365852D01*
X137151Y365975D01*
X137186Y366097D01*
X137191Y366158D01*
X137198Y366193D01*
X137197Y366241D01*
X137205Y366341D01*
X137205Y385452D01*
X137202Y385478D01*
X137204Y385504D01*
X137182Y385651D01*
X137165Y385798D01*
X137157Y385823D01*
X137153Y385849D01*
X137098Y385987D01*
X137048Y386126D01*
X137034Y386148D01*
X137024Y386173D01*
X136939Y386294D01*
X136859Y386419D01*
X136840Y386437D01*
X136825Y386459D01*
X136715Y386558D01*
X136608Y386661D01*
X136586Y386675D01*
X136566Y386692D01*
X136436Y386764D01*
X136309Y386840D01*
X136284Y386848D01*
X136261Y386861D01*
X136118Y386901D01*
X135977Y386946D01*
X135951Y386948D01*
X135926Y386956D01*
X135682Y386975D01*
X135368Y386975D01*
X134475Y387868D01*
X134475Y397132D01*
X135368Y398025D01*
X144632Y398025D01*
X145525Y397132D01*
X145525Y387868D01*
X144632Y386975D01*
X144318Y386975D01*
X144292Y386972D01*
X144266Y386974D01*
X144119Y386952D01*
X143972Y386935D01*
X143947Y386927D01*
X143921Y386923D01*
X143783Y386868D01*
X143644Y386818D01*
X143622Y386804D01*
X143597Y386794D01*
X143476Y386709D01*
X143351Y386629D01*
X143333Y386610D01*
X143311Y386595D01*
X143212Y386485D01*
X143109Y386378D01*
X143095Y386356D01*
X143078Y386336D01*
X143006Y386206D01*
X142930Y386079D01*
X142922Y386054D01*
X142909Y386031D01*
X142869Y385888D01*
X142824Y385747D01*
X142822Y385721D01*
X142814Y385696D01*
X142795Y385452D01*
X142795Y368018D01*
X142803Y367943D01*
X142802Y367866D01*
X142823Y367770D01*
X142835Y367672D01*
X142860Y367600D01*
X142877Y367526D01*
X142919Y367437D01*
X142952Y367344D01*
X142994Y367280D01*
X143026Y367211D01*
X143088Y367134D01*
X143141Y367051D01*
X143196Y366998D01*
X143244Y366938D01*
X143321Y366877D01*
X143392Y366809D01*
X143457Y366770D01*
X143517Y366722D01*
X143650Y366654D01*
X143691Y366630D01*
X143709Y366624D01*
X143735Y366611D01*
X144006Y366499D01*
X145499Y365006D01*
X146307Y363056D01*
X146307Y360944D01*
X145499Y358994D01*
X144006Y357501D01*
X142056Y356693D01*
X139944Y356693D01*
G37*
%LPD*%
%LPC*%
G36*
X63668Y338775D02*
X63668Y338775D01*
X62775Y339668D01*
X62775Y351932D01*
X63668Y352825D01*
X74932Y352825D01*
X75825Y351932D01*
X75825Y350372D01*
X75828Y350346D01*
X75826Y350320D01*
X75848Y350173D01*
X75865Y350026D01*
X75873Y350001D01*
X75877Y349975D01*
X75932Y349837D01*
X75982Y349698D01*
X75996Y349676D01*
X76006Y349651D01*
X76091Y349530D01*
X76171Y349405D01*
X76190Y349387D01*
X76205Y349365D01*
X76315Y349266D01*
X76422Y349163D01*
X76444Y349149D01*
X76464Y349132D01*
X76594Y349060D01*
X76721Y348984D01*
X76746Y348976D01*
X76769Y348963D01*
X76912Y348923D01*
X77053Y348878D01*
X77079Y348876D01*
X77104Y348868D01*
X77348Y348849D01*
X84713Y348849D01*
X84839Y348863D01*
X84965Y348870D01*
X85011Y348883D01*
X85059Y348889D01*
X85178Y348931D01*
X85300Y348966D01*
X85342Y348990D01*
X85387Y349006D01*
X85493Y349075D01*
X85604Y349136D01*
X85650Y349176D01*
X85680Y349195D01*
X85714Y349230D01*
X85790Y349295D01*
X85994Y349499D01*
X87944Y350307D01*
X90056Y350307D01*
X92006Y349499D01*
X93499Y348006D01*
X94307Y346056D01*
X94307Y343944D01*
X93499Y341994D01*
X92006Y340501D01*
X90056Y339693D01*
X87944Y339693D01*
X85994Y340501D01*
X84443Y342052D01*
X84408Y342115D01*
X84356Y342172D01*
X84313Y342235D01*
X84240Y342301D01*
X84174Y342374D01*
X84111Y342417D01*
X84054Y342468D01*
X83968Y342516D01*
X83887Y342572D01*
X83816Y342600D01*
X83749Y342637D01*
X83654Y342664D01*
X83563Y342700D01*
X83487Y342711D01*
X83413Y342732D01*
X83265Y342744D01*
X83218Y342750D01*
X83199Y342749D01*
X83170Y342751D01*
X77348Y342751D01*
X77322Y342748D01*
X77296Y342750D01*
X77149Y342728D01*
X77002Y342711D01*
X76977Y342703D01*
X76951Y342699D01*
X76813Y342644D01*
X76674Y342594D01*
X76652Y342580D01*
X76627Y342570D01*
X76506Y342485D01*
X76381Y342405D01*
X76363Y342386D01*
X76341Y342371D01*
X76242Y342261D01*
X76139Y342154D01*
X76125Y342132D01*
X76108Y342112D01*
X76036Y341982D01*
X75960Y341855D01*
X75952Y341830D01*
X75939Y341807D01*
X75899Y341664D01*
X75854Y341523D01*
X75852Y341497D01*
X75844Y341472D01*
X75825Y341228D01*
X75825Y339668D01*
X74932Y338775D01*
X63668Y338775D01*
G37*
%LPD*%
%LPC*%
G36*
X20612Y201355D02*
X20612Y201355D01*
X15255Y206712D01*
X15255Y214288D01*
X20612Y219645D01*
X28188Y219645D01*
X33545Y214288D01*
X33545Y206712D01*
X28188Y201355D01*
X20612Y201355D01*
G37*
%LPD*%
%LPC*%
G36*
X384212Y220455D02*
X384212Y220455D01*
X378855Y225812D01*
X378855Y233388D01*
X384212Y238745D01*
X391788Y238745D01*
X397145Y233388D01*
X397145Y225812D01*
X391788Y220455D01*
X384212Y220455D01*
G37*
%LPD*%
%LPC*%
G36*
X384212Y245855D02*
X384212Y245855D01*
X378855Y251212D01*
X378855Y258788D01*
X384212Y264145D01*
X391788Y264145D01*
X397145Y258788D01*
X397145Y251212D01*
X391788Y245855D01*
X384212Y245855D01*
G37*
%LPD*%
%LPC*%
G36*
X133252Y301895D02*
X133252Y301895D01*
X127895Y307252D01*
X127895Y314827D01*
X133252Y320184D01*
X140827Y320184D01*
X146184Y314827D01*
X146184Y307252D01*
X140827Y301895D01*
X133252Y301895D01*
G37*
%LPD*%
%LPC*%
G36*
X147820Y172447D02*
X147820Y172447D01*
X147820Y177228D01*
X147993Y177874D01*
X148328Y178453D01*
X148801Y178926D01*
X149380Y179261D01*
X150026Y179434D01*
X167253Y179434D01*
X167253Y172447D01*
X147820Y172447D01*
G37*
%LPD*%
%LPC*%
G36*
X173347Y172447D02*
X173347Y172447D01*
X173347Y179434D01*
X190574Y179434D01*
X191220Y179261D01*
X191799Y178926D01*
X192272Y178453D01*
X192607Y177874D01*
X192780Y177228D01*
X192780Y172447D01*
X173347Y172447D01*
G37*
%LPD*%
%LPC*%
G36*
X173347Y159366D02*
X173347Y159366D01*
X173347Y166353D01*
X192780Y166353D01*
X192780Y161572D01*
X192607Y160926D01*
X192272Y160347D01*
X191799Y159874D01*
X191220Y159539D01*
X190574Y159366D01*
X173347Y159366D01*
G37*
%LPD*%
%LPC*%
G36*
X150026Y159366D02*
X150026Y159366D01*
X149380Y159539D01*
X148801Y159874D01*
X148328Y160347D01*
X147993Y160926D01*
X147820Y161572D01*
X147820Y166353D01*
X167253Y166353D01*
X167253Y159366D01*
X150026Y159366D01*
G37*
%LPD*%
G36*
X247381Y233902D02*
X247381Y233902D01*
X247528Y233905D01*
X247554Y233911D01*
X247580Y233912D01*
X247722Y233953D01*
X247866Y233990D01*
X247890Y234002D01*
X247915Y234009D01*
X248044Y234081D01*
X248176Y234149D01*
X248196Y234166D01*
X248219Y234179D01*
X248405Y234337D01*
X248406Y234338D01*
X248422Y234358D01*
X248442Y234375D01*
X248530Y234495D01*
X248622Y234611D01*
X248633Y234634D01*
X248649Y234656D01*
X248708Y234792D01*
X248771Y234926D01*
X248777Y234952D01*
X248787Y234976D01*
X248813Y235122D01*
X248845Y235267D01*
X248844Y235293D01*
X248849Y235319D01*
X248841Y235467D01*
X248839Y235615D01*
X248832Y235640D01*
X248831Y235667D01*
X248790Y235809D01*
X248754Y235953D01*
X248742Y235976D01*
X248734Y236002D01*
X248662Y236131D01*
X248594Y236263D01*
X248577Y236283D01*
X248564Y236306D01*
X248406Y236492D01*
X240952Y243945D01*
X241634Y244627D01*
X242370Y245052D01*
X243254Y245289D01*
X243337Y245293D01*
X243383Y245306D01*
X243431Y245312D01*
X243550Y245354D01*
X243672Y245389D01*
X243714Y245413D01*
X243759Y245429D01*
X243866Y245498D01*
X243976Y245560D01*
X244022Y245599D01*
X244052Y245618D01*
X244086Y245653D01*
X244162Y245718D01*
X248674Y250230D01*
X248691Y250251D01*
X248711Y250268D01*
X248799Y250388D01*
X248891Y250503D01*
X248902Y250527D01*
X248918Y250548D01*
X248977Y250684D01*
X249040Y250818D01*
X249046Y250844D01*
X249056Y250868D01*
X249082Y251014D01*
X249113Y251159D01*
X249113Y251185D01*
X249118Y251211D01*
X249110Y251360D01*
X249107Y251508D01*
X249101Y251533D01*
X249100Y251559D01*
X249059Y251702D01*
X249022Y251846D01*
X249010Y251869D01*
X249003Y251894D01*
X248931Y252023D01*
X248863Y252155D01*
X248846Y252175D01*
X248833Y252198D01*
X248674Y252385D01*
X248554Y252505D01*
X248454Y252584D01*
X248361Y252668D01*
X248319Y252692D01*
X248281Y252722D01*
X248166Y252776D01*
X248056Y252837D01*
X248009Y252850D01*
X247966Y252871D01*
X247842Y252897D01*
X247721Y252932D01*
X247660Y252937D01*
X247625Y252944D01*
X247577Y252943D01*
X247477Y252951D01*
X247087Y252951D01*
X246961Y252937D01*
X246835Y252930D01*
X246789Y252917D01*
X246741Y252911D01*
X246622Y252869D01*
X246500Y252834D01*
X246458Y252810D01*
X246413Y252794D01*
X246307Y252725D01*
X246196Y252664D01*
X246150Y252624D01*
X246120Y252605D01*
X246086Y252570D01*
X246010Y252505D01*
X245006Y251501D01*
X243056Y250693D01*
X240944Y250693D01*
X239132Y251444D01*
X239035Y251472D01*
X238942Y251508D01*
X238869Y251519D01*
X238797Y251540D01*
X238697Y251545D01*
X238597Y251559D01*
X238523Y251553D01*
X238449Y251557D01*
X238350Y251539D01*
X238250Y251530D01*
X238179Y251507D01*
X238106Y251494D01*
X238014Y251454D01*
X237918Y251423D01*
X237854Y251385D01*
X237786Y251355D01*
X237706Y251295D01*
X237620Y251244D01*
X237566Y251192D01*
X237507Y251147D01*
X237442Y251071D01*
X237370Y251001D01*
X237329Y250938D01*
X237281Y250881D01*
X237236Y250792D01*
X237181Y250707D01*
X237157Y250637D01*
X237123Y250571D01*
X237098Y250474D01*
X237065Y250379D01*
X237056Y250305D01*
X237039Y250233D01*
X237037Y250133D01*
X237026Y250033D01*
X237035Y249959D01*
X237033Y249884D01*
X237055Y249786D01*
X237067Y249687D01*
X237097Y249591D01*
X237108Y249544D01*
X237123Y249511D01*
X237142Y249454D01*
X237307Y249056D01*
X237307Y246944D01*
X236499Y244994D01*
X235495Y243990D01*
X235416Y243891D01*
X235332Y243797D01*
X235308Y243755D01*
X235278Y243717D01*
X235224Y243603D01*
X235163Y243492D01*
X235150Y243446D01*
X235129Y243402D01*
X235103Y243279D01*
X235068Y243157D01*
X235063Y243096D01*
X235056Y243061D01*
X235057Y243013D01*
X235049Y242913D01*
X235049Y241481D01*
X235063Y241356D01*
X235069Y241231D01*
X235083Y241184D01*
X235089Y241134D01*
X235131Y241017D01*
X235165Y240896D01*
X235189Y240853D01*
X235206Y240806D01*
X235274Y240701D01*
X235335Y240592D01*
X235368Y240555D01*
X235395Y240514D01*
X235485Y240427D01*
X235569Y240334D01*
X235610Y240306D01*
X235646Y240271D01*
X235753Y240207D01*
X235856Y240136D01*
X235902Y240118D01*
X235945Y240092D01*
X236064Y240054D01*
X236180Y240009D01*
X236230Y240001D01*
X236277Y239986D01*
X236401Y239976D01*
X236525Y239958D01*
X236575Y239962D01*
X236624Y239958D01*
X236748Y239977D01*
X236873Y239987D01*
X236920Y240003D01*
X236969Y240010D01*
X237085Y240056D01*
X237204Y240095D01*
X237247Y240120D01*
X237293Y240139D01*
X237395Y240210D01*
X237503Y240275D01*
X237538Y240309D01*
X237579Y240338D01*
X237663Y240430D01*
X237752Y240518D01*
X237788Y240569D01*
X237812Y240596D01*
X237835Y240638D01*
X237891Y240719D01*
X238116Y241109D01*
X238798Y241791D01*
X246251Y234337D01*
X246272Y234321D01*
X246289Y234301D01*
X246408Y234213D01*
X246524Y234121D01*
X246548Y234110D01*
X246569Y234094D01*
X246705Y234035D01*
X246839Y233972D01*
X246865Y233966D01*
X246889Y233956D01*
X247035Y233930D01*
X247180Y233899D01*
X247206Y233899D01*
X247232Y233894D01*
X247381Y233902D01*
G37*
%LPC*%
G36*
X23944Y184693D02*
X23944Y184693D01*
X21994Y185501D01*
X20501Y186994D01*
X19693Y188944D01*
X19693Y191056D01*
X20501Y193006D01*
X21994Y194499D01*
X23944Y195307D01*
X26056Y195307D01*
X28006Y194499D01*
X29499Y193006D01*
X30307Y191056D01*
X30307Y188944D01*
X29499Y186994D01*
X28006Y185501D01*
X26056Y184693D01*
X23944Y184693D01*
G37*
%LPD*%
%LPC*%
G36*
X54047Y318547D02*
X54047Y318547D01*
X54047Y324541D01*
X58835Y324541D01*
X59481Y324368D01*
X60060Y324033D01*
X60423Y323670D01*
X60443Y323654D01*
X60460Y323634D01*
X60580Y323546D01*
X60696Y323454D01*
X60720Y323442D01*
X60741Y323427D01*
X60877Y323368D01*
X61011Y323305D01*
X61037Y323299D01*
X61061Y323289D01*
X61207Y323263D01*
X61352Y323231D01*
X61378Y323232D01*
X61404Y323227D01*
X61552Y323235D01*
X61700Y323237D01*
X61726Y323244D01*
X61752Y323245D01*
X61894Y323286D01*
X62038Y323322D01*
X62061Y323334D01*
X62087Y323342D01*
X62216Y323414D01*
X62348Y323482D01*
X62368Y323499D01*
X62391Y323512D01*
X62577Y323670D01*
X62940Y324033D01*
X63519Y324368D01*
X64165Y324541D01*
X68953Y324541D01*
X68953Y318547D01*
X54047Y318547D01*
G37*
%LPD*%
%LPC*%
G36*
X390539Y282939D02*
X390539Y282939D01*
X390539Y290561D01*
X395955Y290561D01*
X396601Y290388D01*
X397180Y290053D01*
X397653Y289580D01*
X397988Y289001D01*
X398161Y288355D01*
X398161Y282939D01*
X390539Y282939D01*
G37*
%LPD*%
%LPC*%
G36*
X377839Y282939D02*
X377839Y282939D01*
X377839Y288355D01*
X378012Y289001D01*
X378347Y289580D01*
X378820Y290053D01*
X379399Y290388D01*
X380045Y290561D01*
X385461Y290561D01*
X385461Y282939D01*
X377839Y282939D01*
G37*
%LPD*%
%LPC*%
G36*
X390539Y270239D02*
X390539Y270239D01*
X390539Y277861D01*
X398161Y277861D01*
X398161Y272445D01*
X397988Y271799D01*
X397653Y271220D01*
X397180Y270747D01*
X396601Y270412D01*
X395955Y270239D01*
X390539Y270239D01*
G37*
%LPD*%
%LPC*%
G36*
X380045Y270239D02*
X380045Y270239D01*
X379399Y270412D01*
X378820Y270747D01*
X378347Y271220D01*
X378012Y271799D01*
X377839Y272445D01*
X377839Y277861D01*
X385461Y277861D01*
X385461Y270239D01*
X380045Y270239D01*
G37*
%LPD*%
%LPC*%
G36*
X75047Y318547D02*
X75047Y318547D01*
X75047Y324541D01*
X79835Y324541D01*
X80481Y324368D01*
X81060Y324033D01*
X81533Y323560D01*
X81868Y322981D01*
X82041Y322335D01*
X82041Y318547D01*
X75047Y318547D01*
G37*
%LPD*%
%LPC*%
G36*
X40959Y318547D02*
X40959Y318547D01*
X40959Y322335D01*
X41132Y322981D01*
X41467Y323560D01*
X41940Y324033D01*
X42519Y324368D01*
X43165Y324541D01*
X47953Y324541D01*
X47953Y318547D01*
X40959Y318547D01*
G37*
%LPD*%
%LPC*%
G36*
X26739Y322939D02*
X26739Y322939D01*
X26739Y330561D01*
X28409Y330561D01*
X34361Y324609D01*
X34361Y322939D01*
X26739Y322939D01*
G37*
%LPD*%
%LPC*%
G36*
X14039Y322939D02*
X14039Y322939D01*
X14039Y324609D01*
X19991Y330561D01*
X21661Y330561D01*
X21661Y322939D01*
X14039Y322939D01*
G37*
%LPD*%
%LPC*%
G36*
X26739Y310239D02*
X26739Y310239D01*
X26739Y317861D01*
X34361Y317861D01*
X34361Y316191D01*
X28409Y310239D01*
X26739Y310239D01*
G37*
%LPD*%
%LPC*%
G36*
X19991Y310239D02*
X19991Y310239D01*
X14039Y316191D01*
X14039Y317861D01*
X21661Y317861D01*
X21661Y310239D01*
X19991Y310239D01*
G37*
%LPD*%
%LPC*%
G36*
X129523Y158613D02*
X129523Y158613D01*
X129523Y164111D01*
X130921Y164111D01*
X131567Y163938D01*
X132146Y163603D01*
X132619Y163130D01*
X132954Y162551D01*
X133127Y161905D01*
X133127Y158613D01*
X129523Y158613D01*
G37*
%LPD*%
%LPC*%
G36*
X129523Y150068D02*
X129523Y150068D01*
X129523Y155566D01*
X133127Y155566D01*
X133127Y152274D01*
X132954Y151628D01*
X132619Y151049D01*
X132146Y150576D01*
X131567Y150241D01*
X130921Y150068D01*
X129523Y150068D01*
G37*
%LPD*%
%LPC*%
G36*
X170299Y169399D02*
X170299Y169399D01*
X170299Y169401D01*
X170301Y169401D01*
X170301Y169399D01*
X170299Y169399D01*
G37*
%LPD*%
D10*
X214554Y310527D02*
X204213Y320868D01*
X207130Y323785D01*
X217471Y313444D01*
X214554Y310527D01*
X215860Y311833D02*
X213248Y311833D01*
X211942Y313139D02*
X217166Y313139D01*
X216470Y314445D02*
X210636Y314445D01*
X209330Y315751D02*
X215164Y315751D01*
X213858Y317057D02*
X208024Y317057D01*
X206718Y318363D02*
X212552Y318363D01*
X211246Y319669D02*
X205412Y319669D01*
X204320Y320975D02*
X209940Y320975D01*
X208634Y322281D02*
X205626Y322281D01*
X206932Y323587D02*
X207328Y323587D01*
X198556Y315211D02*
X208897Y304870D01*
X198556Y315211D02*
X201473Y318128D01*
X211814Y307787D01*
X208897Y304870D01*
X210203Y306176D02*
X207591Y306176D01*
X206285Y307482D02*
X211509Y307482D01*
X210813Y308788D02*
X204979Y308788D01*
X203673Y310094D02*
X209507Y310094D01*
X208201Y311400D02*
X202367Y311400D01*
X201061Y312706D02*
X206895Y312706D01*
X205589Y314012D02*
X199755Y314012D01*
X198663Y315318D02*
X204283Y315318D01*
X202977Y316624D02*
X199969Y316624D01*
X201275Y317930D02*
X201671Y317930D01*
X192899Y309554D02*
X203240Y299213D01*
X192899Y309554D02*
X195816Y312471D01*
X206157Y302130D01*
X203240Y299213D01*
X204546Y300519D02*
X201934Y300519D01*
X200628Y301825D02*
X205852Y301825D01*
X205156Y303131D02*
X199322Y303131D01*
X198016Y304437D02*
X203850Y304437D01*
X202544Y305743D02*
X196710Y305743D01*
X195404Y307049D02*
X201238Y307049D01*
X199932Y308355D02*
X194098Y308355D01*
X193006Y309661D02*
X198626Y309661D01*
X197320Y310967D02*
X194312Y310967D01*
X195618Y312273D02*
X196014Y312273D01*
X187242Y303897D02*
X197583Y293556D01*
X187242Y303897D02*
X190159Y306814D01*
X200500Y296473D01*
X197583Y293556D01*
X198889Y294862D02*
X196277Y294862D01*
X194971Y296168D02*
X200195Y296168D01*
X199499Y297474D02*
X193665Y297474D01*
X192359Y298780D02*
X198193Y298780D01*
X196887Y300086D02*
X191053Y300086D01*
X189747Y301392D02*
X195581Y301392D01*
X194275Y302698D02*
X188441Y302698D01*
X187349Y304004D02*
X192969Y304004D01*
X191663Y305310D02*
X188655Y305310D01*
X189961Y306616D02*
X190357Y306616D01*
X181586Y298241D02*
X191927Y287900D01*
X181586Y298241D02*
X184503Y301158D01*
X194844Y290817D01*
X191927Y287900D01*
X193233Y289206D02*
X190621Y289206D01*
X189315Y290512D02*
X194539Y290512D01*
X193843Y291818D02*
X188009Y291818D01*
X186703Y293124D02*
X192537Y293124D01*
X191231Y294430D02*
X185397Y294430D01*
X184091Y295736D02*
X189925Y295736D01*
X188619Y297042D02*
X182785Y297042D01*
X181693Y298348D02*
X187313Y298348D01*
X186007Y299654D02*
X182999Y299654D01*
X184305Y300960D02*
X184701Y300960D01*
X175929Y292584D02*
X186270Y282243D01*
X175929Y292584D02*
X178846Y295501D01*
X189187Y285160D01*
X186270Y282243D01*
X187576Y283549D02*
X184964Y283549D01*
X183658Y284855D02*
X188882Y284855D01*
X188186Y286161D02*
X182352Y286161D01*
X181046Y287467D02*
X186880Y287467D01*
X185574Y288773D02*
X179740Y288773D01*
X178434Y290079D02*
X184268Y290079D01*
X182962Y291385D02*
X177128Y291385D01*
X176036Y292691D02*
X181656Y292691D01*
X180350Y293997D02*
X177342Y293997D01*
X178648Y295303D02*
X179044Y295303D01*
X170272Y286927D02*
X180613Y276586D01*
X170272Y286927D02*
X173189Y289844D01*
X183530Y279503D01*
X180613Y276586D01*
X181919Y277892D02*
X179307Y277892D01*
X178001Y279198D02*
X183225Y279198D01*
X182529Y280504D02*
X176695Y280504D01*
X175389Y281810D02*
X181223Y281810D01*
X179917Y283116D02*
X174083Y283116D01*
X172777Y284422D02*
X178611Y284422D01*
X177305Y285728D02*
X171471Y285728D01*
X170379Y287034D02*
X175999Y287034D01*
X174693Y288340D02*
X171685Y288340D01*
X172991Y289646D02*
X173387Y289646D01*
X164615Y281270D02*
X174956Y270929D01*
X164615Y281270D02*
X167532Y284187D01*
X177873Y273846D01*
X174956Y270929D01*
X176262Y272235D02*
X173650Y272235D01*
X172344Y273541D02*
X177568Y273541D01*
X176872Y274847D02*
X171038Y274847D01*
X169732Y276153D02*
X175566Y276153D01*
X174260Y277459D02*
X168426Y277459D01*
X167120Y278765D02*
X172954Y278765D01*
X171648Y280071D02*
X165814Y280071D01*
X164722Y281377D02*
X170342Y281377D01*
X169036Y282683D02*
X166028Y282683D01*
X167334Y283989D02*
X167730Y283989D01*
X223729Y222156D02*
X234070Y211815D01*
X223729Y222156D02*
X226646Y225073D01*
X236987Y214732D01*
X234070Y211815D01*
X235376Y213121D02*
X232764Y213121D01*
X231458Y214427D02*
X236682Y214427D01*
X235986Y215733D02*
X230152Y215733D01*
X228846Y217039D02*
X234680Y217039D01*
X233374Y218345D02*
X227540Y218345D01*
X226234Y219651D02*
X232068Y219651D01*
X230762Y220957D02*
X224928Y220957D01*
X223836Y222263D02*
X229456Y222263D01*
X228150Y223569D02*
X225142Y223569D01*
X226448Y224875D02*
X226844Y224875D01*
X229386Y227813D02*
X239727Y217472D01*
X229386Y227813D02*
X232303Y230730D01*
X242644Y220389D01*
X239727Y217472D01*
X241033Y218778D02*
X238421Y218778D01*
X237115Y220084D02*
X242339Y220084D01*
X241643Y221390D02*
X235809Y221390D01*
X234503Y222696D02*
X240337Y222696D01*
X239031Y224002D02*
X233197Y224002D01*
X231891Y225308D02*
X237725Y225308D01*
X236419Y226614D02*
X230585Y226614D01*
X229493Y227920D02*
X235113Y227920D01*
X233807Y229226D02*
X230799Y229226D01*
X232105Y230532D02*
X232501Y230532D01*
X235043Y233470D02*
X245384Y223129D01*
X235043Y233470D02*
X237960Y236387D01*
X248301Y226046D01*
X245384Y223129D01*
X246690Y224435D02*
X244078Y224435D01*
X242772Y225741D02*
X247996Y225741D01*
X247300Y227047D02*
X241466Y227047D01*
X240160Y228353D02*
X245994Y228353D01*
X244688Y229659D02*
X238854Y229659D01*
X237548Y230965D02*
X243382Y230965D01*
X242076Y232271D02*
X236242Y232271D01*
X235150Y233577D02*
X240770Y233577D01*
X239464Y234883D02*
X236456Y234883D01*
X237762Y236189D02*
X238158Y236189D01*
X240700Y239127D02*
X251041Y228786D01*
X240700Y239127D02*
X243617Y242044D01*
X253958Y231703D01*
X251041Y228786D01*
X252347Y230092D02*
X249735Y230092D01*
X248429Y231398D02*
X253653Y231398D01*
X252957Y232704D02*
X247123Y232704D01*
X245817Y234010D02*
X251651Y234010D01*
X250345Y235316D02*
X244511Y235316D01*
X243205Y236622D02*
X249039Y236622D01*
X247733Y237928D02*
X241899Y237928D01*
X240807Y239234D02*
X246427Y239234D01*
X245121Y240540D02*
X242113Y240540D01*
X243419Y241846D02*
X243815Y241846D01*
X246356Y244783D02*
X256697Y234442D01*
X246356Y244783D02*
X249273Y247700D01*
X259614Y237359D01*
X256697Y234442D01*
X258003Y235748D02*
X255391Y235748D01*
X254085Y237054D02*
X259309Y237054D01*
X258613Y238360D02*
X252779Y238360D01*
X251473Y239666D02*
X257307Y239666D01*
X256001Y240972D02*
X250167Y240972D01*
X248861Y242278D02*
X254695Y242278D01*
X253389Y243584D02*
X247555Y243584D01*
X246463Y244890D02*
X252083Y244890D01*
X250777Y246196D02*
X247769Y246196D01*
X249075Y247502D02*
X249471Y247502D01*
X252013Y250440D02*
X262354Y240099D01*
X252013Y250440D02*
X254930Y253357D01*
X265271Y243016D01*
X262354Y240099D01*
X263660Y241405D02*
X261048Y241405D01*
X259742Y242711D02*
X264966Y242711D01*
X264270Y244017D02*
X258436Y244017D01*
X257130Y245323D02*
X262964Y245323D01*
X261658Y246629D02*
X255824Y246629D01*
X254518Y247935D02*
X260352Y247935D01*
X259046Y249241D02*
X253212Y249241D01*
X252120Y250547D02*
X257740Y250547D01*
X256434Y251853D02*
X253426Y251853D01*
X254732Y253159D02*
X255128Y253159D01*
X257670Y256097D02*
X268011Y245756D01*
X257670Y256097D02*
X260587Y259014D01*
X270928Y248673D01*
X268011Y245756D01*
X269317Y247062D02*
X266705Y247062D01*
X265399Y248368D02*
X270623Y248368D01*
X269927Y249674D02*
X264093Y249674D01*
X262787Y250980D02*
X268621Y250980D01*
X267315Y252286D02*
X261481Y252286D01*
X260175Y253592D02*
X266009Y253592D01*
X264703Y254898D02*
X258869Y254898D01*
X257777Y256204D02*
X263397Y256204D01*
X262091Y257510D02*
X259083Y257510D01*
X260389Y258816D02*
X260785Y258816D01*
X263327Y261754D02*
X273668Y251413D01*
X263327Y261754D02*
X266244Y264671D01*
X276585Y254330D01*
X273668Y251413D01*
X274974Y252719D02*
X272362Y252719D01*
X271056Y254025D02*
X276280Y254025D01*
X275584Y255331D02*
X269750Y255331D01*
X268444Y256637D02*
X274278Y256637D01*
X272972Y257943D02*
X267138Y257943D01*
X265832Y259249D02*
X271666Y259249D01*
X270360Y260555D02*
X264526Y260555D01*
X263434Y261861D02*
X269054Y261861D01*
X267748Y263167D02*
X264740Y263167D01*
X266046Y264473D02*
X266442Y264473D01*
X263327Y273846D02*
X273668Y284187D01*
X276585Y281270D01*
X266244Y270929D01*
X263327Y273846D01*
X264938Y272235D02*
X267550Y272235D01*
X268856Y273541D02*
X263632Y273541D01*
X264328Y274847D02*
X270162Y274847D01*
X271468Y276153D02*
X265634Y276153D01*
X266940Y277459D02*
X272774Y277459D01*
X274080Y278765D02*
X268246Y278765D01*
X269552Y280071D02*
X275386Y280071D01*
X276478Y281377D02*
X270858Y281377D01*
X272164Y282683D02*
X275172Y282683D01*
X273866Y283989D02*
X273470Y283989D01*
X268011Y289844D02*
X257670Y279503D01*
X268011Y289844D02*
X270928Y286927D01*
X260587Y276586D01*
X257670Y279503D01*
X259281Y277892D02*
X261893Y277892D01*
X263199Y279198D02*
X257975Y279198D01*
X258671Y280504D02*
X264505Y280504D01*
X265811Y281810D02*
X259977Y281810D01*
X261283Y283116D02*
X267117Y283116D01*
X268423Y284422D02*
X262589Y284422D01*
X263895Y285728D02*
X269729Y285728D01*
X270821Y287034D02*
X265201Y287034D01*
X266507Y288340D02*
X269515Y288340D01*
X268209Y289646D02*
X267813Y289646D01*
X262354Y295501D02*
X252013Y285160D01*
X262354Y295501D02*
X265271Y292584D01*
X254930Y282243D01*
X252013Y285160D01*
X253624Y283549D02*
X256236Y283549D01*
X257542Y284855D02*
X252318Y284855D01*
X253014Y286161D02*
X258848Y286161D01*
X260154Y287467D02*
X254320Y287467D01*
X255626Y288773D02*
X261460Y288773D01*
X262766Y290079D02*
X256932Y290079D01*
X258238Y291385D02*
X264072Y291385D01*
X265164Y292691D02*
X259544Y292691D01*
X260850Y293997D02*
X263858Y293997D01*
X262552Y295303D02*
X262156Y295303D01*
X256697Y301158D02*
X246356Y290817D01*
X256697Y301158D02*
X259614Y298241D01*
X249273Y287900D01*
X246356Y290817D01*
X247967Y289206D02*
X250579Y289206D01*
X251885Y290512D02*
X246661Y290512D01*
X247357Y291818D02*
X253191Y291818D01*
X254497Y293124D02*
X248663Y293124D01*
X249969Y294430D02*
X255803Y294430D01*
X257109Y295736D02*
X251275Y295736D01*
X252581Y297042D02*
X258415Y297042D01*
X259507Y298348D02*
X253887Y298348D01*
X255193Y299654D02*
X258201Y299654D01*
X256895Y300960D02*
X256499Y300960D01*
X251041Y306814D02*
X240700Y296473D01*
X251041Y306814D02*
X253958Y303897D01*
X243617Y293556D01*
X240700Y296473D01*
X242311Y294862D02*
X244923Y294862D01*
X246229Y296168D02*
X241005Y296168D01*
X241701Y297474D02*
X247535Y297474D01*
X248841Y298780D02*
X243007Y298780D01*
X244313Y300086D02*
X250147Y300086D01*
X251453Y301392D02*
X245619Y301392D01*
X246925Y302698D02*
X252759Y302698D01*
X253851Y304004D02*
X248231Y304004D01*
X249537Y305310D02*
X252545Y305310D01*
X251239Y306616D02*
X250843Y306616D01*
X245384Y312471D02*
X235043Y302130D01*
X245384Y312471D02*
X248301Y309554D01*
X237960Y299213D01*
X235043Y302130D01*
X236654Y300519D02*
X239266Y300519D01*
X240572Y301825D02*
X235348Y301825D01*
X236044Y303131D02*
X241878Y303131D01*
X243184Y304437D02*
X237350Y304437D01*
X238656Y305743D02*
X244490Y305743D01*
X245796Y307049D02*
X239962Y307049D01*
X241268Y308355D02*
X247102Y308355D01*
X248194Y309661D02*
X242574Y309661D01*
X243880Y310967D02*
X246888Y310967D01*
X245582Y312273D02*
X245186Y312273D01*
X239727Y318128D02*
X229386Y307787D01*
X239727Y318128D02*
X242644Y315211D01*
X232303Y304870D01*
X229386Y307787D01*
X230997Y306176D02*
X233609Y306176D01*
X234915Y307482D02*
X229691Y307482D01*
X230387Y308788D02*
X236221Y308788D01*
X237527Y310094D02*
X231693Y310094D01*
X232999Y311400D02*
X238833Y311400D01*
X240139Y312706D02*
X234305Y312706D01*
X235611Y314012D02*
X241445Y314012D01*
X242537Y315318D02*
X236917Y315318D01*
X238223Y316624D02*
X241231Y316624D01*
X239925Y317930D02*
X239529Y317930D01*
X234070Y323785D02*
X223729Y313444D01*
X234070Y323785D02*
X236987Y320868D01*
X226646Y310527D01*
X223729Y313444D01*
X225340Y311833D02*
X227952Y311833D01*
X229258Y313139D02*
X224034Y313139D01*
X224730Y314445D02*
X230564Y314445D01*
X231870Y315751D02*
X226036Y315751D01*
X227342Y317057D02*
X233176Y317057D01*
X234482Y318363D02*
X228648Y318363D01*
X229954Y319669D02*
X235788Y319669D01*
X236880Y320975D02*
X231260Y320975D01*
X232566Y322281D02*
X235574Y322281D01*
X234268Y323587D02*
X233872Y323587D01*
X174956Y264671D02*
X164615Y254330D01*
X174956Y264671D02*
X177873Y261754D01*
X167532Y251413D01*
X164615Y254330D01*
X166226Y252719D02*
X168838Y252719D01*
X170144Y254025D02*
X164920Y254025D01*
X165616Y255331D02*
X171450Y255331D01*
X172756Y256637D02*
X166922Y256637D01*
X168228Y257943D02*
X174062Y257943D01*
X175368Y259249D02*
X169534Y259249D01*
X170840Y260555D02*
X176674Y260555D01*
X177766Y261861D02*
X172146Y261861D01*
X173452Y263167D02*
X176460Y263167D01*
X175154Y264473D02*
X174758Y264473D01*
X180613Y259014D02*
X170272Y248673D01*
X180613Y259014D02*
X183530Y256097D01*
X173189Y245756D01*
X170272Y248673D01*
X171883Y247062D02*
X174495Y247062D01*
X175801Y248368D02*
X170577Y248368D01*
X171273Y249674D02*
X177107Y249674D01*
X178413Y250980D02*
X172579Y250980D01*
X173885Y252286D02*
X179719Y252286D01*
X181025Y253592D02*
X175191Y253592D01*
X176497Y254898D02*
X182331Y254898D01*
X183423Y256204D02*
X177803Y256204D01*
X179109Y257510D02*
X182117Y257510D01*
X180811Y258816D02*
X180415Y258816D01*
X186270Y253357D02*
X175929Y243016D01*
X186270Y253357D02*
X189187Y250440D01*
X178846Y240099D01*
X175929Y243016D01*
X177540Y241405D02*
X180152Y241405D01*
X181458Y242711D02*
X176234Y242711D01*
X176930Y244017D02*
X182764Y244017D01*
X184070Y245323D02*
X178236Y245323D01*
X179542Y246629D02*
X185376Y246629D01*
X186682Y247935D02*
X180848Y247935D01*
X182154Y249241D02*
X187988Y249241D01*
X189080Y250547D02*
X183460Y250547D01*
X184766Y251853D02*
X187774Y251853D01*
X186468Y253159D02*
X186072Y253159D01*
X191927Y247700D02*
X181586Y237359D01*
X191927Y247700D02*
X194844Y244783D01*
X184503Y234442D01*
X181586Y237359D01*
X183197Y235748D02*
X185809Y235748D01*
X187115Y237054D02*
X181891Y237054D01*
X182587Y238360D02*
X188421Y238360D01*
X189727Y239666D02*
X183893Y239666D01*
X185199Y240972D02*
X191033Y240972D01*
X192339Y242278D02*
X186505Y242278D01*
X187811Y243584D02*
X193645Y243584D01*
X194737Y244890D02*
X189117Y244890D01*
X190423Y246196D02*
X193431Y246196D01*
X192125Y247502D02*
X191729Y247502D01*
X197583Y242044D02*
X187242Y231703D01*
X197583Y242044D02*
X200500Y239127D01*
X190159Y228786D01*
X187242Y231703D01*
X188853Y230092D02*
X191465Y230092D01*
X192771Y231398D02*
X187547Y231398D01*
X188243Y232704D02*
X194077Y232704D01*
X195383Y234010D02*
X189549Y234010D01*
X190855Y235316D02*
X196689Y235316D01*
X197995Y236622D02*
X192161Y236622D01*
X193467Y237928D02*
X199301Y237928D01*
X200393Y239234D02*
X194773Y239234D01*
X196079Y240540D02*
X199087Y240540D01*
X197781Y241846D02*
X197385Y241846D01*
X203240Y236387D02*
X192899Y226046D01*
X203240Y236387D02*
X206157Y233470D01*
X195816Y223129D01*
X192899Y226046D01*
X194510Y224435D02*
X197122Y224435D01*
X198428Y225741D02*
X193204Y225741D01*
X193900Y227047D02*
X199734Y227047D01*
X201040Y228353D02*
X195206Y228353D01*
X196512Y229659D02*
X202346Y229659D01*
X203652Y230965D02*
X197818Y230965D01*
X199124Y232271D02*
X204958Y232271D01*
X206050Y233577D02*
X200430Y233577D01*
X201736Y234883D02*
X204744Y234883D01*
X203438Y236189D02*
X203042Y236189D01*
X208897Y230730D02*
X198556Y220389D01*
X208897Y230730D02*
X211814Y227813D01*
X201473Y217472D01*
X198556Y220389D01*
X200167Y218778D02*
X202779Y218778D01*
X204085Y220084D02*
X198861Y220084D01*
X199557Y221390D02*
X205391Y221390D01*
X206697Y222696D02*
X200863Y222696D01*
X202169Y224002D02*
X208003Y224002D01*
X209309Y225308D02*
X203475Y225308D01*
X204781Y226614D02*
X210615Y226614D01*
X211707Y227920D02*
X206087Y227920D01*
X207393Y229226D02*
X210401Y229226D01*
X209095Y230532D02*
X208699Y230532D01*
X214554Y225073D02*
X204213Y214732D01*
X214554Y225073D02*
X217471Y222156D01*
X207130Y211815D01*
X204213Y214732D01*
X205824Y213121D02*
X208436Y213121D01*
X209742Y214427D02*
X204518Y214427D01*
X205214Y215733D02*
X211048Y215733D01*
X212354Y217039D02*
X206520Y217039D01*
X207826Y218345D02*
X213660Y218345D01*
X214966Y219651D02*
X209132Y219651D01*
X210438Y220957D02*
X216272Y220957D01*
X217364Y222263D02*
X211744Y222263D01*
X213050Y223569D02*
X216058Y223569D01*
X214752Y224875D02*
X214356Y224875D01*
D11*
X170300Y169400D03*
X170300Y133400D03*
D12*
X128000Y157090D03*
X118500Y157090D03*
X109000Y157090D03*
X109000Y131111D03*
X118500Y131111D03*
X128000Y131111D03*
D13*
X24400Y261300D03*
D14*
X24400Y235900D03*
X24400Y210500D03*
D15*
X97500Y407400D03*
X114500Y407400D03*
D16*
X230000Y407500D03*
X230000Y392500D03*
X200000Y407500D03*
X200000Y392500D03*
X170000Y407500D03*
X170000Y392500D03*
X140000Y407500D03*
X140000Y392500D03*
D17*
X117000Y111000D03*
X130000Y111000D03*
D15*
X52300Y345800D03*
X69300Y345800D03*
X107900Y260700D03*
X90900Y260700D03*
X140000Y260700D03*
X123000Y260700D03*
D18*
X283200Y166400D03*
X283200Y183400D03*
X262500Y166400D03*
X262500Y183400D03*
D13*
X24200Y345800D03*
D14*
X24200Y320400D03*
X24200Y295000D03*
D19*
X44800Y80100D03*
X371800Y29900D03*
X372800Y78500D03*
X44800Y30700D03*
D20*
X61000Y131000D03*
X61000Y159000D03*
D17*
X140500Y220000D03*
X127500Y220000D03*
D20*
X83000Y131000D03*
X83000Y159000D03*
D18*
X142000Y205000D03*
X125000Y205000D03*
D15*
X55500Y261000D03*
X72500Y261000D03*
D21*
X51000Y315500D03*
X51000Y296500D03*
X72000Y315500D03*
X72000Y296500D03*
D17*
G36*
X263940Y231303D02*
X268889Y236252D01*
X275252Y229889D01*
X270303Y224940D01*
X263940Y231303D01*
G37*
G36*
X254748Y222111D02*
X259697Y227060D01*
X266060Y220697D01*
X261111Y215748D01*
X254748Y222111D01*
G37*
D22*
X314750Y134213D03*
X308250Y134213D03*
X301750Y134213D03*
X295250Y134213D03*
X288750Y134213D03*
X282250Y134213D03*
X275750Y134213D03*
X269250Y134213D03*
X262750Y134213D03*
X256250Y134213D03*
X249750Y134213D03*
X243250Y134213D03*
X243250Y79787D03*
X249750Y79787D03*
X256250Y79787D03*
X262750Y79787D03*
X269250Y79787D03*
X275750Y79787D03*
X282250Y79787D03*
X288750Y79787D03*
X295250Y79787D03*
X301750Y79787D03*
X308250Y79787D03*
X314750Y79787D03*
D23*
X279000Y107000D03*
D18*
X118000Y189500D03*
X118000Y172500D03*
D15*
X108500Y236000D03*
X91500Y236000D03*
D13*
X388000Y280400D03*
D14*
X388000Y255000D03*
X388000Y229600D03*
D24*
G36*
X162185Y346961D02*
X172961Y357737D01*
X183737Y346961D01*
X172961Y336185D01*
X162185Y346961D01*
G37*
D25*
X155000Y329000D03*
X137039Y311039D03*
D26*
X118000Y189500D02*
X166500Y189500D01*
X178000Y201000D01*
D27*
X178000Y201000D03*
X217000Y266000D03*
D26*
X258398Y266000D01*
X269956Y277558D01*
D28*
X118000Y189500D02*
X115500Y187000D01*
X97000Y187000D01*
D27*
X97000Y187000D03*
D28*
X91400Y235900D02*
X24400Y235900D01*
X91400Y235900D02*
X91500Y236000D01*
D29*
X97000Y30700D02*
X44800Y30700D01*
X97000Y30700D02*
X280000Y30700D01*
X371000Y30700D01*
X371800Y29900D01*
D30*
X108890Y131000D02*
X83000Y131000D01*
X108890Y131000D02*
X109000Y131111D01*
X83000Y131000D02*
X61000Y131000D01*
X94000Y33700D02*
X97000Y30700D01*
X94000Y33700D02*
X94000Y55000D01*
D27*
X94000Y55000D03*
X61000Y112000D03*
D30*
X61000Y131000D01*
X280000Y30700D02*
X296000Y46700D01*
X296000Y59000D01*
D27*
X296000Y59000D03*
X296000Y152000D03*
D26*
X295250Y151250D01*
X295250Y134213D01*
X254929Y241071D02*
X252985Y241071D01*
X254929Y241071D02*
X261000Y235000D01*
X265192Y235000D01*
X269596Y230596D01*
X97500Y407400D02*
X32400Y407400D01*
X21000Y396000D01*
D27*
X21000Y396000D03*
X25000Y190000D03*
D26*
X140000Y246000D02*
X140000Y260700D01*
D27*
X140000Y246000D03*
D26*
X72000Y296500D02*
X51000Y296500D01*
X49500Y295000D01*
X24200Y295000D01*
X269596Y230596D02*
X269596Y210596D01*
X238000Y179000D01*
D27*
X238000Y179000D03*
D26*
X140500Y206500D02*
X140500Y220000D01*
X140500Y206500D02*
X142000Y205000D01*
X140500Y220000D02*
X155829Y220000D01*
X182558Y246728D01*
X140500Y245500D02*
X140000Y246000D01*
X140500Y245500D02*
X140500Y236000D01*
X140500Y220000D01*
D28*
X140500Y236000D02*
X108500Y236000D01*
D30*
X140311Y169400D02*
X128000Y157090D01*
X140311Y169400D02*
X170300Y169400D01*
D26*
X247329Y235415D02*
X260404Y222339D01*
X260404Y221404D01*
X245000Y206000D01*
X208400Y169400D01*
X170300Y169400D01*
X245000Y206000D02*
X248000Y206000D01*
X251000Y203000D01*
D27*
X251000Y203000D03*
D26*
X72000Y315500D02*
X51000Y315500D01*
X29100Y315500D01*
X24200Y320400D01*
X170300Y182300D02*
X170300Y169400D01*
X170300Y182300D02*
X172000Y184000D01*
D27*
X172000Y184000D03*
X91000Y313000D03*
D26*
X74500Y313000D01*
X72000Y315500D01*
X200000Y407500D02*
X201000Y406500D01*
X230000Y407500D02*
X231000Y409500D01*
X230000Y407500D02*
X229000Y406500D01*
X201000Y406500D01*
X200000Y407500D02*
X170000Y407500D01*
X140000Y407500D01*
X139900Y407400D01*
X114500Y407400D01*
D27*
X286000Y266000D03*
D26*
X302830Y282830D02*
X302830Y321829D01*
X302830Y282830D02*
X286000Y266000D01*
X302830Y321829D02*
X288859Y335800D01*
D27*
X242000Y256000D03*
D26*
X249371Y256000D01*
X258642Y246728D01*
X88200Y345800D02*
X69300Y345800D01*
X88200Y345800D02*
X89000Y345000D01*
D27*
X89000Y345000D03*
X288859Y335800D03*
D26*
X52300Y345800D02*
X24200Y345800D01*
D29*
X44800Y80100D02*
X164100Y80100D01*
X191000Y107000D02*
X279000Y107000D01*
X191000Y107000D02*
X164100Y80100D01*
D30*
X83000Y159000D02*
X61000Y159000D01*
X83000Y159000D02*
X107090Y159000D01*
X109000Y157090D01*
X44800Y154800D02*
X44800Y80100D01*
X44800Y154800D02*
X49000Y159000D01*
X61000Y159000D01*
D26*
X72500Y261000D02*
X90600Y261000D01*
X90900Y260700D01*
X83000Y195000D02*
X83000Y159000D01*
X83000Y195000D02*
X90000Y202000D01*
D27*
X90000Y202000D03*
X90000Y277000D03*
D26*
X90000Y261600D01*
X90600Y261000D01*
X93000Y205000D02*
X90000Y202000D01*
X93000Y205000D02*
X125000Y205000D01*
X127500Y207500D02*
X127500Y220000D01*
X127500Y207500D02*
X125000Y205000D01*
X258642Y288872D02*
X276000Y306229D01*
X276000Y346500D02*
X230000Y392500D01*
X276000Y346500D02*
X276000Y306229D01*
X270000Y311543D02*
X252985Y294529D01*
X270000Y311543D02*
X270000Y337000D01*
X214500Y392500D01*
X200000Y392500D01*
X265000Y317857D02*
X247329Y300185D01*
X265000Y317857D02*
X265000Y326000D01*
X212000Y379000D01*
X183500Y379000D02*
X170000Y392500D01*
X183500Y379000D02*
X212000Y379000D01*
D28*
X230358Y317156D02*
X221000Y307798D01*
X221000Y288000D01*
D27*
X221000Y288000D03*
X141000Y362000D03*
D28*
X140000Y363000D01*
X140000Y392500D01*
D26*
X123000Y260700D02*
X107900Y260700D01*
X123000Y260700D02*
X179300Y317000D01*
X188371Y317000D02*
X199528Y305842D01*
X188371Y317000D02*
X179300Y317000D01*
X118500Y131111D02*
X118500Y112500D01*
X117000Y111000D01*
X118500Y137500D02*
X119500Y138500D01*
D30*
X118500Y137500D02*
X118500Y131111D01*
X119500Y138500D02*
X123000Y142000D01*
X161700Y142000D01*
X170300Y133400D01*
D26*
X128000Y131111D02*
X128000Y113000D01*
X130000Y111000D01*
X262500Y183400D02*
X262500Y189500D01*
X283000Y210000D01*
X283000Y230000D01*
D27*
X283000Y230000D03*
X278000Y297000D03*
D26*
X278000Y296916D01*
X264299Y283215D01*
X288750Y146250D02*
X288750Y134213D01*
X283600Y151400D02*
X283200Y166400D01*
X283600Y151400D02*
X288750Y146250D01*
X296200Y196400D02*
X296200Y231798D01*
X296200Y196400D02*
X283200Y183400D01*
X296200Y231798D02*
X269956Y258042D01*
D31*
X249750Y79787D02*
X243250Y79787D01*
X249750Y79787D02*
X256250Y79787D01*
X262750Y79787D01*
X269250Y79787D01*
X275750Y79787D01*
X282250Y79787D01*
X288750Y79787D01*
X295250Y79787D01*
X301750Y79787D01*
X308250Y79787D01*
X314750Y79787D01*
D32*
X316037Y78500D02*
X372800Y78500D01*
X316037Y78500D02*
X314750Y79787D01*
D26*
X241672Y229758D02*
X232000Y239429D01*
X232000Y248000D01*
D27*
X232000Y248000D03*
D26*
X55200Y261300D02*
X24400Y261300D01*
X55200Y261300D02*
X55500Y261000D01*
X282250Y143750D02*
X282250Y134213D01*
X275000Y151000D02*
X270000Y151000D01*
X262500Y158500D01*
X262500Y166400D01*
X275000Y151000D02*
X282250Y143750D01*
X118500Y157090D02*
X118000Y157590D01*
X118000Y172500D01*
D28*
X241672Y305842D02*
X253000Y317171D01*
X253000Y321000D01*
X227040Y346961D01*
X172961Y346961D01*
X236015Y311499D02*
X243000Y318484D01*
X243000Y323000D01*
X237000Y329000D01*
X155000Y329000D01*
M02*
