G04 EAGLE Gerber RS-274X export*
G75*
%MOMM*%
%FSLAX34Y34*%
%LPD*%
%INBottom Copper*%
%IPPOS*%
%AMOC8*
5,1,8,0,0,1.08239X$1,22.5*%
G01*
%ADD10R,1.524000X1.524000*%
%ADD11P,1.649562X8X292.500000*%
%ADD12R,1.524000X1.524000*%
%ADD13P,1.649562X8X247.500000*%
%ADD14C,0.756400*%
%ADD15C,0.304800*%
%ADD16C,0.254000*%
%ADD17C,0.508000*%

G36*
X408320Y11133D02*
X408320Y11133D01*
X408344Y11136D01*
X408368Y11134D01*
X408516Y11156D01*
X408666Y11174D01*
X408689Y11182D01*
X408713Y11186D01*
X408852Y11241D01*
X408994Y11292D01*
X409014Y11305D01*
X409037Y11314D01*
X409160Y11400D01*
X409286Y11482D01*
X409303Y11499D01*
X409323Y11513D01*
X409423Y11624D01*
X409528Y11733D01*
X409540Y11754D01*
X409556Y11772D01*
X409629Y11903D01*
X409706Y12032D01*
X409713Y12056D01*
X409725Y12077D01*
X409766Y12222D01*
X409811Y12365D01*
X409813Y12389D01*
X409820Y12412D01*
X409839Y12656D01*
X409839Y428316D01*
X409836Y428342D01*
X409838Y428368D01*
X409816Y428515D01*
X409799Y428662D01*
X409791Y428687D01*
X409787Y428713D01*
X409732Y428851D01*
X409682Y428990D01*
X409668Y429012D01*
X409658Y429037D01*
X409573Y429158D01*
X409493Y429283D01*
X409474Y429301D01*
X409459Y429323D01*
X409349Y429422D01*
X409242Y429525D01*
X409220Y429539D01*
X409200Y429556D01*
X409070Y429628D01*
X408943Y429704D01*
X408918Y429712D01*
X408895Y429725D01*
X408752Y429765D01*
X408611Y429810D01*
X408585Y429812D01*
X408560Y429820D01*
X408316Y429839D01*
X11684Y429839D01*
X11658Y429836D01*
X11632Y429838D01*
X11485Y429816D01*
X11338Y429799D01*
X11313Y429791D01*
X11287Y429787D01*
X11149Y429732D01*
X11010Y429682D01*
X10988Y429668D01*
X10963Y429658D01*
X10842Y429573D01*
X10717Y429493D01*
X10699Y429474D01*
X10677Y429459D01*
X10578Y429349D01*
X10475Y429242D01*
X10461Y429220D01*
X10444Y429200D01*
X10372Y429070D01*
X10296Y428943D01*
X10288Y428918D01*
X10275Y428895D01*
X10235Y428752D01*
X10190Y428611D01*
X10188Y428585D01*
X10180Y428560D01*
X10161Y428316D01*
X10161Y11712D01*
X10164Y11684D01*
X10162Y11656D01*
X10184Y11511D01*
X10201Y11366D01*
X10210Y11339D01*
X10214Y11311D01*
X10269Y11176D01*
X10318Y11038D01*
X10333Y11014D01*
X10344Y10988D01*
X10427Y10868D01*
X10507Y10745D01*
X10527Y10725D01*
X10543Y10702D01*
X10652Y10605D01*
X10758Y10503D01*
X10782Y10488D01*
X10803Y10469D01*
X10931Y10399D01*
X11057Y10324D01*
X11084Y10315D01*
X11108Y10302D01*
X11249Y10262D01*
X11389Y10217D01*
X11417Y10215D01*
X11444Y10208D01*
X11688Y10189D01*
X408320Y11133D01*
G37*
%LPC*%
G36*
X170944Y178693D02*
X170944Y178693D01*
X168994Y179501D01*
X167501Y180994D01*
X166693Y182944D01*
X166693Y185056D01*
X167501Y187006D01*
X168505Y188010D01*
X168584Y188109D01*
X168668Y188203D01*
X168692Y188245D01*
X168722Y188283D01*
X168776Y188397D01*
X168837Y188508D01*
X168850Y188554D01*
X168871Y188598D01*
X168897Y188721D01*
X168932Y188843D01*
X168937Y188904D01*
X168944Y188939D01*
X168943Y188987D01*
X168951Y189087D01*
X168951Y195447D01*
X168937Y195573D01*
X168930Y195699D01*
X168917Y195745D01*
X168911Y195793D01*
X168869Y195912D01*
X168834Y196034D01*
X168810Y196076D01*
X168794Y196121D01*
X168725Y196228D01*
X168664Y196338D01*
X168624Y196384D01*
X168605Y196414D01*
X168570Y196448D01*
X168505Y196524D01*
X168121Y196908D01*
X168121Y230936D01*
X168107Y231062D01*
X168100Y231188D01*
X168087Y231234D01*
X168081Y231282D01*
X168039Y231401D01*
X168004Y231523D01*
X167980Y231565D01*
X167964Y231611D01*
X167895Y231717D01*
X167834Y231827D01*
X167794Y231873D01*
X167775Y231903D01*
X167740Y231937D01*
X167675Y232013D01*
X92441Y307247D01*
X92342Y307326D01*
X92248Y307410D01*
X92206Y307434D01*
X92168Y307464D01*
X92054Y307518D01*
X91943Y307579D01*
X91897Y307592D01*
X91853Y307613D01*
X91730Y307639D01*
X91608Y307674D01*
X91547Y307679D01*
X91512Y307686D01*
X91464Y307685D01*
X91364Y307693D01*
X89944Y307693D01*
X87994Y308501D01*
X86501Y309994D01*
X85693Y311944D01*
X85693Y314056D01*
X86501Y316006D01*
X87994Y317499D01*
X89944Y318307D01*
X92056Y318307D01*
X94006Y317499D01*
X95499Y316006D01*
X96307Y314056D01*
X96307Y312636D01*
X96321Y312510D01*
X96328Y312384D01*
X96341Y312338D01*
X96347Y312290D01*
X96389Y312171D01*
X96424Y312049D01*
X96448Y312007D01*
X96464Y311961D01*
X96533Y311855D01*
X96594Y311745D01*
X96634Y311699D01*
X96653Y311669D01*
X96688Y311635D01*
X96753Y311559D01*
X174219Y234093D01*
X174219Y207457D01*
X174236Y207308D01*
X174248Y207158D01*
X174256Y207135D01*
X174259Y207111D01*
X174309Y206969D01*
X174356Y206827D01*
X174368Y206806D01*
X174376Y206783D01*
X174458Y206656D01*
X174535Y206528D01*
X174552Y206511D01*
X174565Y206490D01*
X174674Y206385D01*
X174778Y206278D01*
X174798Y206265D01*
X174816Y206248D01*
X174945Y206171D01*
X175071Y206090D01*
X175094Y206082D01*
X175115Y206069D01*
X175258Y206023D01*
X175400Y205973D01*
X175424Y205970D01*
X175447Y205963D01*
X175596Y205951D01*
X175746Y205934D01*
X175770Y205937D01*
X175794Y205935D01*
X175943Y205957D01*
X176092Y205975D01*
X176120Y205984D01*
X176139Y205987D01*
X176183Y206004D01*
X176325Y206050D01*
X176944Y206307D01*
X178364Y206307D01*
X178490Y206321D01*
X178616Y206328D01*
X178662Y206341D01*
X178710Y206347D01*
X178829Y206389D01*
X178951Y206424D01*
X178993Y206448D01*
X179039Y206464D01*
X179145Y206533D01*
X179255Y206594D01*
X179301Y206634D01*
X179331Y206653D01*
X179365Y206688D01*
X179441Y206753D01*
X213505Y240817D01*
X213584Y240916D01*
X213668Y241010D01*
X213692Y241052D01*
X213722Y241090D01*
X213776Y241204D01*
X213837Y241315D01*
X213850Y241361D01*
X213871Y241405D01*
X213897Y241528D01*
X213932Y241650D01*
X213937Y241711D01*
X213944Y241746D01*
X213943Y241794D01*
X213951Y241894D01*
X213951Y260913D01*
X213937Y261039D01*
X213930Y261165D01*
X213917Y261211D01*
X213911Y261259D01*
X213869Y261378D01*
X213834Y261500D01*
X213810Y261542D01*
X213794Y261587D01*
X213725Y261693D01*
X213664Y261804D01*
X213624Y261850D01*
X213605Y261880D01*
X213570Y261914D01*
X213505Y261990D01*
X212501Y262994D01*
X211693Y264944D01*
X211693Y267056D01*
X212501Y269006D01*
X213994Y270499D01*
X215944Y271307D01*
X218056Y271307D01*
X220006Y270499D01*
X221499Y269006D01*
X222307Y267056D01*
X222307Y264944D01*
X221499Y262994D01*
X220495Y261990D01*
X220416Y261891D01*
X220332Y261797D01*
X220308Y261755D01*
X220278Y261717D01*
X220224Y261603D01*
X220163Y261492D01*
X220150Y261446D01*
X220129Y261402D01*
X220103Y261279D01*
X220068Y261157D01*
X220063Y261096D01*
X220056Y261061D01*
X220057Y261013D01*
X220049Y260913D01*
X220049Y256697D01*
X220060Y256597D01*
X220062Y256497D01*
X220080Y256425D01*
X220089Y256351D01*
X220122Y256256D01*
X220147Y256159D01*
X220181Y256093D01*
X220206Y256023D01*
X220261Y255938D01*
X220307Y255849D01*
X220355Y255792D01*
X220395Y255730D01*
X220467Y255660D01*
X220532Y255583D01*
X220592Y255539D01*
X220646Y255488D01*
X220732Y255436D01*
X220813Y255376D01*
X220881Y255347D01*
X220945Y255309D01*
X221041Y255278D01*
X221133Y255238D01*
X221206Y255225D01*
X221277Y255202D01*
X221377Y255194D01*
X221476Y255177D01*
X221550Y255180D01*
X221624Y255175D01*
X221724Y255189D01*
X221824Y255195D01*
X221895Y255215D01*
X221969Y255226D01*
X222062Y255263D01*
X222159Y255291D01*
X222224Y255327D01*
X222293Y255355D01*
X222375Y255412D01*
X222463Y255461D01*
X222539Y255526D01*
X222579Y255554D01*
X222603Y255580D01*
X222649Y255620D01*
X273908Y306879D01*
X282092Y306879D01*
X305076Y283895D01*
X305175Y283816D01*
X305269Y283732D01*
X305311Y283708D01*
X305349Y283678D01*
X305463Y283624D01*
X305574Y283563D01*
X305620Y283550D01*
X305664Y283529D01*
X305787Y283503D01*
X305909Y283468D01*
X305970Y283463D01*
X306005Y283456D01*
X306053Y283457D01*
X306153Y283449D01*
X377332Y283449D01*
X377358Y283452D01*
X377384Y283450D01*
X377531Y283472D01*
X377678Y283489D01*
X377703Y283497D01*
X377729Y283501D01*
X377867Y283556D01*
X378006Y283606D01*
X378028Y283620D01*
X378053Y283630D01*
X378174Y283715D01*
X378299Y283795D01*
X378317Y283814D01*
X378339Y283829D01*
X378438Y283939D01*
X378541Y284046D01*
X378555Y284068D01*
X378572Y284088D01*
X378644Y284218D01*
X378720Y284345D01*
X378728Y284370D01*
X378741Y284393D01*
X378781Y284536D01*
X378826Y284677D01*
X378828Y284703D01*
X378836Y284728D01*
X378855Y284972D01*
X378855Y288652D01*
X379748Y289545D01*
X396252Y289545D01*
X397145Y288652D01*
X397145Y272148D01*
X396252Y271255D01*
X379748Y271255D01*
X378855Y272148D01*
X378855Y275828D01*
X378852Y275854D01*
X378854Y275880D01*
X378832Y276027D01*
X378815Y276174D01*
X378807Y276199D01*
X378803Y276225D01*
X378748Y276363D01*
X378698Y276502D01*
X378684Y276524D01*
X378674Y276549D01*
X378589Y276670D01*
X378509Y276795D01*
X378490Y276813D01*
X378475Y276835D01*
X378365Y276934D01*
X378258Y277037D01*
X378236Y277051D01*
X378216Y277068D01*
X378086Y277140D01*
X377959Y277216D01*
X377934Y277224D01*
X377911Y277237D01*
X377768Y277277D01*
X377627Y277322D01*
X377601Y277324D01*
X377576Y277332D01*
X377332Y277351D01*
X305638Y277351D01*
X305538Y277340D01*
X305438Y277338D01*
X305365Y277320D01*
X305292Y277311D01*
X305197Y277278D01*
X305100Y277253D01*
X305033Y277219D01*
X304963Y277194D01*
X304879Y277139D01*
X304790Y277093D01*
X304733Y277045D01*
X304671Y277005D01*
X304601Y276933D01*
X304524Y276868D01*
X304480Y276808D01*
X304428Y276754D01*
X304377Y276668D01*
X304317Y276587D01*
X304288Y276519D01*
X304250Y276455D01*
X304219Y276359D01*
X304179Y276267D01*
X304166Y276194D01*
X304143Y276123D01*
X304135Y276023D01*
X304118Y275924D01*
X304121Y275850D01*
X304115Y275776D01*
X304130Y275676D01*
X304135Y275576D01*
X304156Y275505D01*
X304167Y275431D01*
X304204Y275338D01*
X304232Y275241D01*
X304268Y275176D01*
X304296Y275107D01*
X304353Y275025D01*
X304402Y274937D01*
X304467Y274861D01*
X304495Y274821D01*
X304521Y274797D01*
X304561Y274751D01*
X306049Y273263D01*
X306049Y248737D01*
X288753Y231441D01*
X288674Y231342D01*
X288590Y231248D01*
X288566Y231206D01*
X288536Y231168D01*
X288482Y231054D01*
X288421Y230943D01*
X288408Y230897D01*
X288387Y230853D01*
X288361Y230730D01*
X288326Y230608D01*
X288321Y230547D01*
X288314Y230512D01*
X288315Y230464D01*
X288307Y230364D01*
X288307Y228944D01*
X287565Y227155D01*
X287524Y227010D01*
X287478Y226867D01*
X287476Y226843D01*
X287470Y226820D01*
X287462Y226669D01*
X287450Y226520D01*
X287454Y226496D01*
X287453Y226472D01*
X287480Y226324D01*
X287502Y226175D01*
X287511Y226153D01*
X287515Y226129D01*
X287575Y225991D01*
X287631Y225851D01*
X287645Y225831D01*
X287654Y225809D01*
X287744Y225688D01*
X287830Y225565D01*
X287848Y225549D01*
X287862Y225529D01*
X287977Y225432D01*
X288089Y225332D01*
X288110Y225320D01*
X288128Y225304D01*
X288262Y225236D01*
X288394Y225163D01*
X288417Y225157D01*
X288438Y225146D01*
X288584Y225109D01*
X288729Y225068D01*
X288758Y225066D01*
X288777Y225061D01*
X288824Y225061D01*
X288973Y225049D01*
X353106Y225049D01*
X353232Y225063D01*
X353358Y225070D01*
X353404Y225083D01*
X353452Y225089D01*
X353571Y225131D01*
X353693Y225166D01*
X353735Y225190D01*
X353781Y225206D01*
X353887Y225275D01*
X353997Y225336D01*
X354043Y225376D01*
X354073Y225395D01*
X354107Y225430D01*
X354183Y225495D01*
X378409Y249721D01*
X378488Y249820D01*
X378572Y249914D01*
X378596Y249956D01*
X378626Y249994D01*
X378680Y250108D01*
X378741Y250219D01*
X378754Y250265D01*
X378775Y250309D01*
X378801Y250432D01*
X378836Y250554D01*
X378841Y250615D01*
X378848Y250649D01*
X378847Y250697D01*
X378855Y250798D01*
X378855Y258788D01*
X384212Y264145D01*
X391788Y264145D01*
X397145Y258788D01*
X397145Y251212D01*
X391788Y245855D01*
X383798Y245855D01*
X383672Y245841D01*
X383546Y245834D01*
X383500Y245821D01*
X383452Y245815D01*
X383333Y245773D01*
X383211Y245738D01*
X383169Y245714D01*
X383123Y245698D01*
X383017Y245629D01*
X382907Y245568D01*
X382861Y245528D01*
X382831Y245509D01*
X382797Y245474D01*
X382721Y245409D01*
X356263Y218951D01*
X256737Y218951D01*
X256649Y219039D01*
X256571Y219102D01*
X256498Y219172D01*
X256434Y219210D01*
X256376Y219256D01*
X256285Y219299D01*
X256199Y219350D01*
X256128Y219373D01*
X256061Y219405D01*
X255963Y219426D01*
X255867Y219457D01*
X255793Y219463D01*
X255720Y219478D01*
X255620Y219477D01*
X255520Y219485D01*
X255446Y219474D01*
X255372Y219472D01*
X255274Y219448D01*
X255175Y219433D01*
X255106Y219405D01*
X255034Y219387D01*
X254945Y219341D01*
X254851Y219304D01*
X254790Y219262D01*
X254724Y219228D01*
X254648Y219163D01*
X254565Y219105D01*
X254515Y219050D01*
X254459Y219002D01*
X254399Y218921D01*
X254332Y218846D01*
X254296Y218781D01*
X254251Y218722D01*
X254212Y218629D01*
X254163Y218541D01*
X254143Y218470D01*
X254113Y218402D01*
X254096Y218303D01*
X254068Y218206D01*
X254060Y218106D01*
X254052Y218059D01*
X254054Y218023D01*
X254049Y217962D01*
X254049Y208087D01*
X254063Y207961D01*
X254070Y207835D01*
X254083Y207789D01*
X254089Y207741D01*
X254131Y207622D01*
X254166Y207500D01*
X254190Y207458D01*
X254206Y207413D01*
X254275Y207307D01*
X254336Y207196D01*
X254376Y207150D01*
X254395Y207120D01*
X254430Y207086D01*
X254495Y207010D01*
X255499Y206006D01*
X256307Y204056D01*
X256307Y201944D01*
X255499Y199994D01*
X254006Y198501D01*
X252056Y197693D01*
X249944Y197693D01*
X247994Y198501D01*
X246501Y199994D01*
X245693Y201944D01*
X245693Y204056D01*
X246501Y206006D01*
X247505Y207010D01*
X247584Y207109D01*
X247668Y207203D01*
X247692Y207245D01*
X247722Y207283D01*
X247776Y207397D01*
X247837Y207508D01*
X247850Y207554D01*
X247871Y207598D01*
X247897Y207721D01*
X247932Y207843D01*
X247937Y207904D01*
X247944Y207939D01*
X247943Y207987D01*
X247951Y208087D01*
X247951Y217447D01*
X247937Y217573D01*
X247930Y217699D01*
X247917Y217745D01*
X247911Y217793D01*
X247869Y217912D01*
X247834Y218034D01*
X247810Y218076D01*
X247794Y218121D01*
X247725Y218228D01*
X247664Y218338D01*
X247624Y218384D01*
X247605Y218414D01*
X247570Y218448D01*
X247505Y218524D01*
X224353Y241676D01*
X222649Y243380D01*
X222570Y243443D01*
X222498Y243512D01*
X222434Y243551D01*
X222376Y243597D01*
X222285Y243640D01*
X222199Y243691D01*
X222128Y243714D01*
X222061Y243746D01*
X221963Y243767D01*
X221867Y243798D01*
X221793Y243803D01*
X221720Y243819D01*
X221620Y243817D01*
X221520Y243825D01*
X221446Y243814D01*
X221372Y243813D01*
X221275Y243789D01*
X221175Y243774D01*
X221106Y243746D01*
X221034Y243728D01*
X220945Y243682D01*
X220851Y243645D01*
X220790Y243603D01*
X220724Y243569D01*
X220648Y243503D01*
X220565Y243446D01*
X220515Y243391D01*
X220459Y243343D01*
X220399Y243262D01*
X220332Y243187D01*
X220296Y243122D01*
X220251Y243062D01*
X220212Y242970D01*
X220163Y242882D01*
X220143Y242811D01*
X220113Y242742D01*
X220096Y242644D01*
X220068Y242547D01*
X220060Y242447D01*
X220052Y242399D01*
X220054Y242364D01*
X220049Y242303D01*
X220049Y238737D01*
X183753Y202441D01*
X183674Y202342D01*
X183590Y202248D01*
X183566Y202206D01*
X183536Y202168D01*
X183482Y202054D01*
X183421Y201943D01*
X183408Y201897D01*
X183387Y201853D01*
X183361Y201730D01*
X183326Y201608D01*
X183321Y201547D01*
X183314Y201512D01*
X183315Y201464D01*
X183307Y201364D01*
X183307Y199944D01*
X182499Y197994D01*
X181006Y196501D01*
X179056Y195693D01*
X176866Y195693D01*
X176843Y195695D01*
X176820Y195702D01*
X176669Y195709D01*
X176520Y195721D01*
X176496Y195718D01*
X176472Y195719D01*
X176324Y195692D01*
X176175Y195669D01*
X176153Y195661D01*
X176129Y195656D01*
X175991Y195596D01*
X175851Y195541D01*
X175832Y195527D01*
X175810Y195517D01*
X175689Y195428D01*
X175565Y195342D01*
X175549Y195324D01*
X175530Y195310D01*
X175432Y195195D01*
X175332Y195083D01*
X175320Y195062D01*
X175305Y195044D01*
X175236Y194910D01*
X175163Y194778D01*
X175157Y194755D01*
X175146Y194733D01*
X175109Y194588D01*
X175068Y194443D01*
X175066Y194414D01*
X175061Y194395D01*
X175061Y194348D01*
X175049Y194199D01*
X175049Y189087D01*
X175063Y188961D01*
X175070Y188835D01*
X175083Y188789D01*
X175089Y188741D01*
X175131Y188622D01*
X175166Y188500D01*
X175190Y188458D01*
X175206Y188413D01*
X175275Y188307D01*
X175336Y188196D01*
X175376Y188150D01*
X175395Y188120D01*
X175430Y188086D01*
X175495Y188010D01*
X176499Y187006D01*
X177307Y185056D01*
X177307Y182944D01*
X176499Y180994D01*
X175006Y179501D01*
X173056Y178693D01*
X170944Y178693D01*
G37*
%LPD*%
%LPC*%
G36*
X219944Y282693D02*
X219944Y282693D01*
X217994Y283501D01*
X216501Y284994D01*
X215693Y286944D01*
X215693Y288723D01*
X215679Y288849D01*
X215672Y288975D01*
X215659Y289022D01*
X215653Y289070D01*
X215611Y289189D01*
X215576Y289310D01*
X215552Y289352D01*
X215536Y289398D01*
X215467Y289504D01*
X215406Y289614D01*
X215366Y289661D01*
X215347Y289691D01*
X215312Y289724D01*
X215247Y289801D01*
X189205Y315842D01*
X189205Y353211D01*
X189191Y353337D01*
X189184Y353463D01*
X189171Y353510D01*
X189165Y353558D01*
X189123Y353677D01*
X189088Y353798D01*
X189064Y353840D01*
X189048Y353886D01*
X188979Y353992D01*
X188918Y354102D01*
X188878Y354149D01*
X188859Y354179D01*
X188824Y354212D01*
X188759Y354289D01*
X184289Y358759D01*
X184190Y358838D01*
X184096Y358922D01*
X184053Y358946D01*
X184016Y358976D01*
X183901Y359030D01*
X183791Y359091D01*
X183744Y359104D01*
X183700Y359125D01*
X183577Y359151D01*
X183455Y359186D01*
X183394Y359191D01*
X183360Y359198D01*
X183312Y359197D01*
X183211Y359205D01*
X177326Y359205D01*
X177226Y359194D01*
X177126Y359192D01*
X177053Y359174D01*
X176980Y359165D01*
X176885Y359132D01*
X176788Y359107D01*
X176721Y359073D01*
X176651Y359048D01*
X176567Y358993D01*
X176478Y358947D01*
X176421Y358899D01*
X176359Y358859D01*
X176289Y358787D01*
X176212Y358722D01*
X176168Y358662D01*
X176116Y358608D01*
X176065Y358522D01*
X176005Y358441D01*
X175976Y358373D01*
X175938Y358309D01*
X175907Y358213D01*
X175867Y358121D01*
X175854Y358048D01*
X175831Y357977D01*
X175823Y357877D01*
X175806Y357778D01*
X175809Y357704D01*
X175803Y357630D01*
X175818Y357530D01*
X175823Y357430D01*
X175844Y357359D01*
X175855Y357285D01*
X175892Y357192D01*
X175920Y357095D01*
X175956Y357030D01*
X175984Y356961D01*
X176041Y356879D01*
X176090Y356791D01*
X176155Y356715D01*
X176183Y356675D01*
X176209Y356651D01*
X176249Y356605D01*
X185262Y347592D01*
X185262Y346329D01*
X173592Y334659D01*
X172329Y334659D01*
X160659Y346329D01*
X160659Y347592D01*
X169672Y356605D01*
X169735Y356683D01*
X169805Y356756D01*
X169843Y356820D01*
X169889Y356878D01*
X169932Y356969D01*
X169983Y357055D01*
X170006Y357126D01*
X170038Y357193D01*
X170059Y357291D01*
X170090Y357387D01*
X170096Y357461D01*
X170111Y357534D01*
X170110Y357634D01*
X170118Y357734D01*
X170107Y357808D01*
X170105Y357882D01*
X170081Y357979D01*
X170066Y358079D01*
X170038Y358148D01*
X170020Y358220D01*
X169974Y358310D01*
X169937Y358403D01*
X169895Y358464D01*
X169861Y358530D01*
X169795Y358607D01*
X169738Y358689D01*
X169683Y358739D01*
X169635Y358795D01*
X169554Y358855D01*
X169479Y358922D01*
X169414Y358958D01*
X169355Y359003D01*
X169262Y359042D01*
X169174Y359091D01*
X169103Y359111D01*
X169035Y359141D01*
X168936Y359158D01*
X168839Y359186D01*
X168739Y359194D01*
X168692Y359202D01*
X168656Y359200D01*
X168595Y359205D01*
X146341Y359205D01*
X146215Y359191D01*
X146089Y359184D01*
X146043Y359171D01*
X145995Y359165D01*
X145876Y359123D01*
X145754Y359088D01*
X145712Y359064D01*
X145667Y359048D01*
X145561Y358979D01*
X145450Y358918D01*
X145404Y358878D01*
X145374Y358859D01*
X145340Y358824D01*
X145264Y358759D01*
X144006Y357501D01*
X142056Y356693D01*
X139944Y356693D01*
X137994Y357501D01*
X136501Y358994D01*
X135693Y360944D01*
X135693Y363056D01*
X136501Y365006D01*
X137994Y366499D01*
X139254Y367021D01*
X139298Y367045D01*
X139345Y367062D01*
X139450Y367130D01*
X139559Y367190D01*
X139596Y367224D01*
X139638Y367251D01*
X139725Y367341D01*
X139817Y367424D01*
X139845Y367466D01*
X139880Y367502D01*
X139944Y367609D01*
X140015Y367711D01*
X140033Y367758D01*
X140059Y367801D01*
X140097Y367919D01*
X140143Y368035D01*
X140150Y368085D01*
X140165Y368133D01*
X140175Y368257D01*
X140194Y368380D01*
X140189Y368430D01*
X140193Y368480D01*
X140175Y368603D01*
X140165Y368727D01*
X140149Y368775D01*
X140142Y368825D01*
X140096Y368940D01*
X140058Y369059D01*
X140032Y369102D01*
X140013Y369149D01*
X139942Y369251D01*
X139878Y369357D01*
X139843Y369394D01*
X139814Y369435D01*
X139722Y369518D01*
X139635Y369607D01*
X139593Y369635D01*
X139555Y369668D01*
X139446Y369728D01*
X139342Y369796D01*
X139294Y369813D01*
X139250Y369837D01*
X139130Y369871D01*
X139013Y369912D01*
X138963Y369918D01*
X138915Y369932D01*
X138671Y369951D01*
X118894Y369951D01*
X118768Y369937D01*
X118642Y369930D01*
X118596Y369917D01*
X118548Y369911D01*
X118429Y369869D01*
X118307Y369834D01*
X118265Y369810D01*
X118219Y369794D01*
X118113Y369725D01*
X118003Y369664D01*
X117957Y369624D01*
X117927Y369605D01*
X117893Y369570D01*
X117817Y369505D01*
X94753Y346441D01*
X94674Y346342D01*
X94590Y346248D01*
X94566Y346206D01*
X94536Y346168D01*
X94482Y346054D01*
X94421Y345943D01*
X94408Y345897D01*
X94387Y345853D01*
X94361Y345730D01*
X94326Y345608D01*
X94321Y345547D01*
X94314Y345512D01*
X94315Y345464D01*
X94307Y345364D01*
X94307Y343944D01*
X93499Y341994D01*
X92006Y340501D01*
X90056Y339693D01*
X87944Y339693D01*
X85994Y340501D01*
X84501Y341994D01*
X83693Y343944D01*
X83693Y346056D01*
X84501Y348006D01*
X85994Y349499D01*
X87944Y350307D01*
X89364Y350307D01*
X89490Y350321D01*
X89616Y350328D01*
X89662Y350341D01*
X89710Y350347D01*
X89829Y350389D01*
X89951Y350424D01*
X89993Y350448D01*
X90039Y350464D01*
X90145Y350533D01*
X90255Y350594D01*
X90301Y350634D01*
X90331Y350653D01*
X90365Y350688D01*
X90441Y350753D01*
X115737Y376049D01*
X252922Y376049D01*
X287418Y341553D01*
X287517Y341474D01*
X287611Y341390D01*
X287653Y341366D01*
X287691Y341336D01*
X287805Y341282D01*
X287916Y341221D01*
X287962Y341208D01*
X288006Y341187D01*
X288129Y341161D01*
X288251Y341126D01*
X288312Y341121D01*
X288347Y341114D01*
X288395Y341115D01*
X288495Y341107D01*
X289915Y341107D01*
X291865Y340299D01*
X293358Y338806D01*
X294166Y336856D01*
X294166Y334744D01*
X293358Y332794D01*
X291865Y331301D01*
X289915Y330493D01*
X287804Y330493D01*
X285853Y331301D01*
X284360Y332794D01*
X283552Y334744D01*
X283552Y336164D01*
X283549Y336190D01*
X283551Y336216D01*
X283537Y336316D01*
X283531Y336416D01*
X283518Y336462D01*
X283513Y336510D01*
X283504Y336535D01*
X283500Y336561D01*
X283463Y336654D01*
X283435Y336751D01*
X283411Y336793D01*
X283395Y336839D01*
X283381Y336861D01*
X283371Y336885D01*
X283314Y336967D01*
X283265Y337055D01*
X283225Y337101D01*
X283206Y337131D01*
X283187Y337150D01*
X283172Y337171D01*
X283146Y337194D01*
X283106Y337241D01*
X250842Y369505D01*
X250743Y369584D01*
X250650Y369668D01*
X250607Y369692D01*
X250569Y369722D01*
X250455Y369776D01*
X250345Y369837D01*
X250298Y369850D01*
X250254Y369871D01*
X250131Y369897D01*
X250009Y369932D01*
X249948Y369937D01*
X249914Y369944D01*
X249866Y369943D01*
X249765Y369951D01*
X143329Y369951D01*
X143279Y369946D01*
X143229Y369948D01*
X143106Y369926D01*
X142983Y369911D01*
X142935Y369894D01*
X142886Y369885D01*
X142772Y369836D01*
X142655Y369794D01*
X142612Y369767D01*
X142566Y369747D01*
X142466Y369672D01*
X142362Y369605D01*
X142327Y369569D01*
X142286Y369539D01*
X142206Y369444D01*
X142120Y369354D01*
X142094Y369311D01*
X142061Y369273D01*
X142005Y369162D01*
X141941Y369055D01*
X141925Y369007D01*
X141902Y368962D01*
X141872Y368842D01*
X141835Y368723D01*
X141831Y368673D01*
X141818Y368624D01*
X141817Y368500D01*
X141807Y368376D01*
X141814Y368326D01*
X141813Y368276D01*
X141840Y368154D01*
X141858Y368031D01*
X141877Y367984D01*
X141888Y367935D01*
X141941Y367823D01*
X141987Y367707D01*
X142016Y367666D01*
X142037Y367620D01*
X142115Y367523D01*
X142186Y367421D01*
X142223Y367387D01*
X142255Y367348D01*
X142352Y367271D01*
X142445Y367188D01*
X142489Y367163D01*
X142528Y367132D01*
X142746Y367021D01*
X144006Y366499D01*
X145264Y365241D01*
X145363Y365162D01*
X145457Y365078D01*
X145499Y365054D01*
X145537Y365024D01*
X145651Y364970D01*
X145762Y364909D01*
X145808Y364896D01*
X145852Y364875D01*
X145975Y364849D01*
X146097Y364814D01*
X146158Y364809D01*
X146193Y364802D01*
X146241Y364803D01*
X146341Y364795D01*
X186158Y364795D01*
X194795Y356158D01*
X194795Y318789D01*
X194809Y318663D01*
X194816Y318537D01*
X194829Y318490D01*
X194835Y318442D01*
X194877Y318323D01*
X194912Y318202D01*
X194936Y318160D01*
X194952Y318114D01*
X195021Y318008D01*
X195082Y317898D01*
X195122Y317851D01*
X195141Y317821D01*
X195176Y317788D01*
X195241Y317711D01*
X219199Y293753D01*
X219298Y293674D01*
X219392Y293590D01*
X219435Y293566D01*
X219472Y293536D01*
X219587Y293482D01*
X219697Y293421D01*
X219744Y293408D01*
X219788Y293387D01*
X219911Y293361D01*
X220033Y293326D01*
X220094Y293321D01*
X220128Y293314D01*
X220176Y293315D01*
X220277Y293307D01*
X222056Y293307D01*
X224006Y292499D01*
X225499Y291006D01*
X226307Y289056D01*
X226307Y286944D01*
X225499Y284994D01*
X224006Y283501D01*
X222056Y282693D01*
X219944Y282693D01*
G37*
%LPD*%
%LPC*%
G36*
X95944Y181693D02*
X95944Y181693D01*
X93994Y182501D01*
X92736Y183759D01*
X92637Y183838D01*
X92543Y183922D01*
X92501Y183946D01*
X92463Y183976D01*
X92349Y184030D01*
X92238Y184091D01*
X92192Y184104D01*
X92148Y184125D01*
X92025Y184151D01*
X91903Y184186D01*
X91842Y184191D01*
X91807Y184198D01*
X91759Y184197D01*
X91659Y184205D01*
X86542Y184205D01*
X38089Y232659D01*
X37990Y232738D01*
X37896Y232822D01*
X37853Y232846D01*
X37816Y232876D01*
X37701Y232930D01*
X37591Y232991D01*
X37544Y233004D01*
X37501Y233025D01*
X37377Y233051D01*
X37255Y233086D01*
X37195Y233091D01*
X37160Y233098D01*
X37112Y233097D01*
X37012Y233105D01*
X35068Y233105D01*
X35042Y233102D01*
X35016Y233104D01*
X34869Y233082D01*
X34722Y233065D01*
X34697Y233057D01*
X34671Y233053D01*
X34533Y232998D01*
X34394Y232948D01*
X34372Y232934D01*
X34347Y232924D01*
X34226Y232839D01*
X34101Y232759D01*
X34083Y232740D01*
X34061Y232725D01*
X33962Y232615D01*
X33859Y232508D01*
X33845Y232486D01*
X33828Y232466D01*
X33756Y232336D01*
X33736Y232304D01*
X28188Y226755D01*
X20612Y226755D01*
X15255Y232112D01*
X15255Y239688D01*
X20612Y245045D01*
X28188Y245045D01*
X33720Y239513D01*
X33726Y239497D01*
X33811Y239376D01*
X33891Y239251D01*
X33910Y239233D01*
X33925Y239211D01*
X34035Y239112D01*
X34142Y239009D01*
X34164Y238995D01*
X34184Y238978D01*
X34314Y238906D01*
X34441Y238830D01*
X34466Y238822D01*
X34489Y238809D01*
X34632Y238769D01*
X34773Y238724D01*
X34799Y238722D01*
X34824Y238714D01*
X35068Y238695D01*
X39958Y238695D01*
X88412Y190241D01*
X88511Y190162D01*
X88604Y190078D01*
X88647Y190054D01*
X88685Y190024D01*
X88799Y189970D01*
X88910Y189909D01*
X88956Y189896D01*
X89000Y189875D01*
X89123Y189849D01*
X89245Y189814D01*
X89306Y189809D01*
X89340Y189802D01*
X89388Y189803D01*
X89489Y189795D01*
X91659Y189795D01*
X91785Y189809D01*
X91911Y189816D01*
X91957Y189829D01*
X92005Y189835D01*
X92124Y189877D01*
X92246Y189912D01*
X92288Y189936D01*
X92333Y189952D01*
X92439Y190021D01*
X92550Y190082D01*
X92596Y190122D01*
X92626Y190141D01*
X92660Y190176D01*
X92736Y190241D01*
X93994Y191499D01*
X95944Y192307D01*
X98056Y192307D01*
X100006Y191499D01*
X101499Y190006D01*
X102307Y188056D01*
X102307Y185944D01*
X101499Y183994D01*
X100006Y182501D01*
X98056Y181693D01*
X95944Y181693D01*
G37*
%LPD*%
%LPC*%
G36*
X88944Y196693D02*
X88944Y196693D01*
X86994Y197501D01*
X85501Y198994D01*
X84693Y200944D01*
X84693Y203056D01*
X85501Y205006D01*
X86505Y206010D01*
X86584Y206109D01*
X86668Y206203D01*
X86692Y206245D01*
X86722Y206283D01*
X86776Y206397D01*
X86837Y206508D01*
X86850Y206554D01*
X86871Y206598D01*
X86897Y206721D01*
X86932Y206843D01*
X86937Y206904D01*
X86944Y206939D01*
X86943Y206987D01*
X86951Y207087D01*
X86951Y271913D01*
X86937Y272039D01*
X86930Y272165D01*
X86917Y272211D01*
X86911Y272259D01*
X86869Y272378D01*
X86834Y272500D01*
X86810Y272542D01*
X86794Y272587D01*
X86725Y272693D01*
X86664Y272804D01*
X86624Y272850D01*
X86605Y272880D01*
X86570Y272914D01*
X86505Y272990D01*
X85501Y273994D01*
X84693Y275944D01*
X84693Y278056D01*
X85501Y280006D01*
X86994Y281499D01*
X88944Y282307D01*
X91056Y282307D01*
X93006Y281499D01*
X94499Y280006D01*
X95307Y278056D01*
X95307Y275944D01*
X94499Y273994D01*
X93495Y272990D01*
X93416Y272891D01*
X93332Y272797D01*
X93308Y272755D01*
X93278Y272717D01*
X93224Y272603D01*
X93163Y272492D01*
X93150Y272446D01*
X93129Y272402D01*
X93103Y272279D01*
X93068Y272157D01*
X93063Y272096D01*
X93056Y272061D01*
X93057Y272013D01*
X93049Y271913D01*
X93049Y207087D01*
X93063Y206961D01*
X93070Y206835D01*
X93083Y206789D01*
X93089Y206741D01*
X93131Y206622D01*
X93166Y206500D01*
X93190Y206458D01*
X93206Y206413D01*
X93275Y206307D01*
X93336Y206196D01*
X93376Y206150D01*
X93395Y206120D01*
X93430Y206086D01*
X93495Y206010D01*
X94499Y205006D01*
X95307Y203056D01*
X95307Y200944D01*
X94499Y198994D01*
X93006Y197501D01*
X91056Y196693D01*
X88944Y196693D01*
G37*
%LPD*%
%LPC*%
G36*
X15948Y336655D02*
X15948Y336655D01*
X15055Y337548D01*
X15055Y354052D01*
X15948Y354945D01*
X32452Y354945D01*
X33345Y354052D01*
X33345Y337548D01*
X32452Y336655D01*
X15948Y336655D01*
G37*
%LPD*%
%LPC*%
G36*
X16148Y252155D02*
X16148Y252155D01*
X15255Y253048D01*
X15255Y269552D01*
X16148Y270445D01*
X32652Y270445D01*
X33545Y269552D01*
X33545Y253048D01*
X32652Y252155D01*
X16148Y252155D01*
G37*
%LPD*%
%LPC*%
G36*
X20412Y311255D02*
X20412Y311255D01*
X15055Y316612D01*
X15055Y324188D01*
X20412Y329545D01*
X27988Y329545D01*
X33345Y324188D01*
X33345Y316612D01*
X27988Y311255D01*
X20412Y311255D01*
G37*
%LPD*%
%LPC*%
G36*
X20612Y201355D02*
X20612Y201355D01*
X15255Y206712D01*
X15255Y214288D01*
X20612Y219645D01*
X28188Y219645D01*
X33545Y214288D01*
X33545Y206712D01*
X28188Y201355D01*
X20612Y201355D01*
G37*
%LPD*%
%LPC*%
G36*
X151212Y319855D02*
X151212Y319855D01*
X145855Y325212D01*
X145855Y332788D01*
X151212Y338145D01*
X158788Y338145D01*
X164145Y332788D01*
X164145Y325212D01*
X158788Y319855D01*
X151212Y319855D01*
G37*
%LPD*%
%LPC*%
G36*
X26739Y297539D02*
X26739Y297539D01*
X26739Y305161D01*
X28409Y305161D01*
X34361Y299209D01*
X34361Y297539D01*
X26739Y297539D01*
G37*
%LPD*%
%LPC*%
G36*
X390539Y232139D02*
X390539Y232139D01*
X390539Y239761D01*
X392209Y239761D01*
X398161Y233809D01*
X398161Y232139D01*
X390539Y232139D01*
G37*
%LPD*%
%LPC*%
G36*
X14039Y297539D02*
X14039Y297539D01*
X14039Y299209D01*
X19991Y305161D01*
X21661Y305161D01*
X21661Y297539D01*
X14039Y297539D01*
G37*
%LPD*%
%LPC*%
G36*
X26739Y284839D02*
X26739Y284839D01*
X26739Y292461D01*
X34361Y292461D01*
X34361Y290791D01*
X28409Y284839D01*
X26739Y284839D01*
G37*
%LPD*%
%LPC*%
G36*
X377839Y232139D02*
X377839Y232139D01*
X377839Y233809D01*
X383791Y239761D01*
X385461Y239761D01*
X385461Y232139D01*
X377839Y232139D01*
G37*
%LPD*%
%LPC*%
G36*
X390539Y219439D02*
X390539Y219439D01*
X390539Y227061D01*
X398161Y227061D01*
X398161Y225391D01*
X392209Y219439D01*
X390539Y219439D01*
G37*
%LPD*%
%LPC*%
G36*
X19991Y284839D02*
X19991Y284839D01*
X14039Y290791D01*
X14039Y292461D01*
X21661Y292461D01*
X21661Y284839D01*
X19991Y284839D01*
G37*
%LPD*%
%LPC*%
G36*
X383791Y219439D02*
X383791Y219439D01*
X377839Y225391D01*
X377839Y227061D01*
X385461Y227061D01*
X385461Y219439D01*
X383791Y219439D01*
G37*
%LPD*%
%LPC*%
G36*
X131650Y320020D02*
X131650Y320020D01*
X132831Y321200D01*
X141248Y321200D01*
X142429Y320020D01*
X137039Y314631D01*
X131650Y320020D01*
G37*
%LPD*%
%LPC*%
G36*
X140631Y311039D02*
X140631Y311039D01*
X146020Y316429D01*
X147200Y315248D01*
X147200Y306831D01*
X146020Y305650D01*
X140631Y311039D01*
G37*
%LPD*%
%LPC*%
G36*
X126879Y306831D02*
X126879Y306831D01*
X126879Y315248D01*
X128059Y316429D01*
X133448Y311039D01*
X128059Y305650D01*
X126879Y306831D01*
G37*
%LPD*%
%LPC*%
G36*
X132831Y300879D02*
X132831Y300879D01*
X131650Y302059D01*
X137039Y307448D01*
X142429Y302059D01*
X141248Y300879D01*
X132831Y300879D01*
G37*
%LPD*%
D10*
X24400Y261300D03*
D11*
X24400Y235900D03*
X24400Y210500D03*
D10*
X24200Y345800D03*
D11*
X24200Y320400D03*
X24200Y295000D03*
D10*
X388000Y280400D03*
D11*
X388000Y255000D03*
X388000Y229600D03*
D12*
G36*
X162185Y346961D02*
X172961Y357737D01*
X183737Y346961D01*
X172961Y336185D01*
X162185Y346961D01*
G37*
D13*
X155000Y329000D03*
X137039Y311039D03*
D14*
X178000Y201000D03*
D15*
X217000Y240000D01*
X217000Y266000D01*
D14*
X217000Y266000D03*
X97000Y187000D03*
D16*
X87700Y187000D01*
X38800Y235900D01*
X24400Y235900D01*
D14*
X94000Y55000D03*
D17*
X61000Y88000D01*
X61000Y112000D01*
D14*
X61000Y112000D03*
X296000Y59000D03*
D17*
X296000Y152000D01*
D14*
X296000Y152000D03*
D15*
X310400Y152000D01*
X388000Y229600D01*
D14*
X21000Y396000D03*
D15*
X21000Y362151D01*
X13532Y354683D01*
X13532Y305668D02*
X24200Y295000D01*
X13532Y305668D02*
X13532Y354683D01*
X24200Y295000D02*
X24200Y280651D01*
X13732Y270183D01*
X13732Y159268D02*
X61000Y112000D01*
X13732Y190000D02*
X13732Y270183D01*
X13732Y190000D02*
X13732Y159268D01*
D14*
X25000Y190000D03*
D15*
X13732Y190000D01*
D14*
X140000Y246000D03*
D15*
X157000Y229000D01*
X157000Y186000D01*
X83000Y112000D01*
X61000Y112000D01*
D14*
X238000Y179000D03*
D15*
X265000Y152000D01*
X296000Y152000D01*
D16*
X140000Y246000D02*
X75000Y311000D01*
X75000Y324000D01*
X80000Y329000D01*
X119079Y329000D02*
X137039Y311039D01*
X119079Y329000D02*
X80000Y329000D01*
D14*
X251000Y203000D03*
D15*
X275171Y303830D02*
X280829Y303830D01*
X251000Y219341D02*
X251000Y203000D01*
X304259Y280400D02*
X388000Y280400D01*
X251000Y219341D02*
X225170Y245171D01*
X280829Y303830D02*
X304259Y280400D01*
X225170Y253829D02*
X225170Y245171D01*
X225170Y253829D02*
X275171Y303830D01*
D14*
X172000Y184000D03*
X91000Y313000D03*
D15*
X172000Y197341D02*
X172000Y184000D01*
X172000Y197341D02*
X171170Y198171D01*
X171170Y232830D02*
X91000Y313000D01*
X171170Y232830D02*
X171170Y198171D01*
D14*
X286000Y266000D03*
D15*
X276000Y256000D01*
X242000Y256000D01*
D14*
X242000Y256000D03*
X89000Y345000D03*
D15*
X117000Y373000D01*
X251659Y373000D01*
X288859Y335800D01*
D14*
X288859Y335800D03*
X90000Y202000D03*
D15*
X90000Y277000D01*
D14*
X90000Y277000D03*
X221000Y288000D03*
D16*
X192000Y317000D01*
X192000Y355000D01*
X185000Y362000D01*
X141000Y362000D01*
D14*
X141000Y362000D03*
X283000Y230000D03*
D15*
X303000Y272000D02*
X278000Y297000D01*
X303000Y272000D02*
X303000Y250000D01*
X283000Y230000D01*
D14*
X278000Y297000D03*
D15*
X258000Y222000D02*
X355000Y222000D01*
X388000Y255000D01*
D14*
X232000Y248000D03*
D15*
X258000Y222000D01*
M02*
