M48
;GenerationSoftware,Autodesk,EAGLE,9.6.2*%
;CreationDate,2024-06-03T01:05:10Z*%
FMAT,2
ICI,OFF
METRIC,TZ,000.000
T2C0.350
T1C1.016
%
G90
M71
T1
X13704Y31104
X2440Y26130
X2440Y23590
X2440Y21050
X2420Y34580
X2420Y32040
X2420Y29500
X38800Y28040
X38800Y25500
X38800Y22960
X17296Y34696
X15500Y32900
T2
X17200Y18400
X9100Y31300
X28600Y26600
X24200Y25600
X8900Y34500
X28886Y33580
X17800Y20100
X9000Y27700
X22100Y28800
X14100Y36200
X28300Y23000
X27800Y29700
X23200Y24800
X21700Y26600
X9700Y18700
X9400Y5500
X6100Y11200
X29600Y5900
X29600Y15200
X2100Y39600
X2500Y19000
X14000Y24600
X23800Y17900
X25100Y20300
X9000Y20200
M30