G04 EAGLE Gerber RS-274X export*
G75*
%MOMM*%
%FSLAX34Y34*%
%LPD*%
%INSilkscreen Top*%
%IPPOS*%
%AMOC8*
5,1,8,0,0,1.08239X$1,22.5*%
G01*
%ADD10C,0.152400*%
%ADD11C,0.050800*%
%ADD12C,0.200000*%
%ADD13C,0.127000*%
%ADD14C,0.076200*%
%ADD15C,0.101600*%
%ADD16R,0.225000X0.250000*%
%ADD17C,0.406400*%

G36*
X354519Y135269D02*
X354519Y135269D01*
X354572Y135268D01*
X354595Y135279D01*
X354606Y135281D01*
X354616Y135289D01*
X354646Y135303D01*
X359727Y138773D01*
X362514Y137319D01*
X362547Y137313D01*
X362577Y137297D01*
X362615Y137299D01*
X362652Y137292D01*
X362684Y137304D01*
X362717Y137306D01*
X362748Y137328D01*
X362784Y137342D01*
X362804Y137369D01*
X362831Y137389D01*
X362864Y137450D01*
X362868Y137455D01*
X362868Y137457D01*
X362870Y137460D01*
X366426Y147620D01*
X366430Y147690D01*
X366434Y147760D01*
X366434Y147761D01*
X366400Y147821D01*
X366366Y147883D01*
X366365Y147884D01*
X366363Y147885D01*
X366300Y147930D01*
X365062Y148550D01*
X364007Y149403D01*
X363848Y149601D01*
X363158Y150462D01*
X362556Y151678D01*
X362229Y152995D01*
X362191Y154352D01*
X362444Y155685D01*
X362977Y156933D01*
X363765Y158038D01*
X364771Y158949D01*
X365949Y159623D01*
X367243Y160030D01*
X368596Y160149D01*
X369904Y159989D01*
X371152Y159565D01*
X372288Y158895D01*
X373264Y158007D01*
X374037Y156940D01*
X374577Y155737D01*
X374861Y154449D01*
X374875Y153131D01*
X374621Y151837D01*
X374108Y150622D01*
X373358Y149537D01*
X372403Y148628D01*
X371261Y147919D01*
X371218Y147872D01*
X371173Y147827D01*
X371171Y147820D01*
X371166Y147815D01*
X371155Y147752D01*
X371141Y147690D01*
X371143Y147681D01*
X371142Y147676D01*
X371146Y147666D01*
X371159Y147610D01*
X375096Y137704D01*
X375107Y137690D01*
X375111Y137673D01*
X375149Y137636D01*
X375182Y137593D01*
X375199Y137587D01*
X375212Y137575D01*
X375264Y137564D01*
X375315Y137545D01*
X375332Y137549D01*
X375349Y137545D01*
X375428Y137564D01*
X376952Y138199D01*
X376962Y138207D01*
X376995Y138222D01*
X378376Y139142D01*
X383314Y135686D01*
X383367Y135668D01*
X383417Y135643D01*
X383432Y135645D01*
X383447Y135640D01*
X383501Y135653D01*
X383557Y135659D01*
X383575Y135671D01*
X383584Y135673D01*
X383593Y135682D01*
X383626Y135702D01*
X384642Y136591D01*
X384645Y136596D01*
X384654Y136603D01*
X385543Y137492D01*
X385546Y137496D01*
X385553Y137503D01*
X386569Y138646D01*
X386572Y138651D01*
X386580Y138659D01*
X387469Y139802D01*
X387487Y139846D01*
X387512Y139887D01*
X387512Y139910D01*
X387521Y139932D01*
X387512Y139980D01*
X387512Y140028D01*
X387497Y140059D01*
X387495Y140071D01*
X387488Y140079D01*
X387477Y140101D01*
X383886Y145302D01*
X384694Y146687D01*
X384697Y146700D01*
X384715Y146735D01*
X385223Y148259D01*
X385224Y148266D01*
X385229Y148278D01*
X385697Y150151D01*
X391760Y151265D01*
X391816Y151293D01*
X391874Y151318D01*
X391879Y151324D01*
X391886Y151328D01*
X391919Y151382D01*
X391954Y151434D01*
X391956Y151444D01*
X391959Y151449D01*
X391958Y151460D01*
X391967Y151514D01*
X391967Y154435D01*
X391965Y154442D01*
X391966Y154458D01*
X391839Y155855D01*
X391839Y155856D01*
X391839Y155857D01*
X391712Y157127D01*
X391693Y157175D01*
X391682Y157224D01*
X391667Y157239D01*
X391660Y157258D01*
X391618Y157288D01*
X391582Y157324D01*
X391555Y157334D01*
X391545Y157340D01*
X391534Y157341D01*
X391506Y157351D01*
X385434Y158466D01*
X384971Y159970D01*
X384966Y159979D01*
X384960Y160001D01*
X384325Y161398D01*
X384319Y161404D01*
X384313Y161421D01*
X383428Y162938D01*
X383373Y163048D01*
X386840Y167876D01*
X386857Y167925D01*
X386882Y167971D01*
X386880Y167991D01*
X386887Y168009D01*
X386875Y168060D01*
X386872Y168111D01*
X386858Y168135D01*
X386856Y168147D01*
X386847Y168155D01*
X386832Y168182D01*
X385816Y169452D01*
X385808Y169457D01*
X385797Y169473D01*
X384527Y170743D01*
X384522Y170746D01*
X384515Y170755D01*
X383499Y171644D01*
X383491Y171647D01*
X383479Y171659D01*
X382590Y172294D01*
X382548Y172309D01*
X382511Y172332D01*
X382483Y172332D01*
X382457Y172341D01*
X382414Y172331D01*
X382370Y172330D01*
X382332Y172312D01*
X382320Y172309D01*
X382314Y172303D01*
X382297Y172295D01*
X377220Y168704D01*
X376216Y169261D01*
X376209Y169263D01*
X376196Y169271D01*
X373910Y170287D01*
X373897Y170289D01*
X373862Y170303D01*
X372883Y170521D01*
X371770Y176579D01*
X371746Y176626D01*
X371730Y176676D01*
X371715Y176688D01*
X371707Y176705D01*
X371662Y176732D01*
X371621Y176766D01*
X371596Y176772D01*
X371586Y176778D01*
X371574Y176777D01*
X371542Y176785D01*
X370018Y176912D01*
X370011Y176911D01*
X369997Y176913D01*
X367076Y176913D01*
X367068Y176911D01*
X367051Y176912D01*
X365781Y176785D01*
X365732Y176765D01*
X365680Y176753D01*
X365667Y176739D01*
X365650Y176733D01*
X365619Y176690D01*
X365582Y176652D01*
X365574Y176627D01*
X365568Y176618D01*
X365567Y176606D01*
X365556Y176575D01*
X364565Y170629D01*
X362805Y170042D01*
X362801Y170039D01*
X362791Y170037D01*
X361521Y169529D01*
X361513Y169523D01*
X361489Y169514D01*
X359853Y168579D01*
X354906Y172166D01*
X354858Y172183D01*
X354813Y172208D01*
X354793Y172207D01*
X354773Y172214D01*
X354723Y172203D01*
X354673Y172200D01*
X354647Y172186D01*
X354635Y172183D01*
X354627Y172175D01*
X354602Y172161D01*
X353459Y171272D01*
X353453Y171264D01*
X353435Y171251D01*
X352165Y169981D01*
X352162Y169977D01*
X352155Y169970D01*
X351143Y168833D01*
X350514Y168203D01*
X350484Y168148D01*
X350450Y168096D01*
X350450Y168087D01*
X350446Y168080D01*
X350450Y168017D01*
X350449Y167955D01*
X350454Y167945D01*
X350454Y167939D01*
X350461Y167930D01*
X350484Y167881D01*
X353948Y162808D01*
X353270Y161677D01*
X353268Y161669D01*
X353257Y161653D01*
X352495Y160002D01*
X352493Y159990D01*
X352481Y159963D01*
X352104Y158583D01*
X351785Y157838D01*
X345699Y156844D01*
X345640Y156816D01*
X345580Y156790D01*
X345577Y156786D01*
X345572Y156783D01*
X345537Y156728D01*
X345500Y156674D01*
X345499Y156667D01*
X345497Y156664D01*
X345497Y156655D01*
X345487Y156594D01*
X345487Y151006D01*
X345505Y150943D01*
X345521Y150880D01*
X345524Y150876D01*
X345526Y150871D01*
X345575Y150827D01*
X345622Y150782D01*
X345629Y150780D01*
X345631Y150777D01*
X345640Y150776D01*
X345699Y150756D01*
X351764Y149766D01*
X352228Y148142D01*
X352228Y148141D01*
X352228Y148139D01*
X352609Y146869D01*
X352616Y146859D01*
X352626Y146829D01*
X353134Y145813D01*
X353137Y145809D01*
X353141Y145798D01*
X353947Y144417D01*
X350361Y139471D01*
X350341Y139415D01*
X350316Y139362D01*
X350318Y139350D01*
X350313Y139338D01*
X350325Y139284D01*
X350325Y139280D01*
X350327Y139275D01*
X350333Y139222D01*
X350342Y139208D01*
X350344Y139200D01*
X350353Y139191D01*
X350377Y139154D01*
X351393Y138011D01*
X351397Y138008D01*
X351403Y138000D01*
X352292Y137111D01*
X352296Y137108D01*
X352303Y137101D01*
X353446Y136085D01*
X353447Y136084D01*
X353449Y136082D01*
X354338Y135320D01*
X354387Y135298D01*
X354431Y135269D01*
X354450Y135269D01*
X354466Y135261D01*
X354519Y135269D01*
G37*
G36*
X258157Y143903D02*
X258157Y143903D01*
X258159Y143902D01*
X258202Y143922D01*
X258246Y143940D01*
X258246Y143942D01*
X258248Y143943D01*
X258281Y144028D01*
X258281Y146568D01*
X258280Y146570D01*
X258281Y146572D01*
X258261Y146615D01*
X258243Y146659D01*
X258241Y146659D01*
X258240Y146661D01*
X258155Y146694D01*
X254345Y146694D01*
X254343Y146693D01*
X254341Y146694D01*
X254298Y146674D01*
X254254Y146656D01*
X254254Y146654D01*
X254252Y146653D01*
X254219Y146568D01*
X254219Y144028D01*
X254220Y144026D01*
X254219Y144024D01*
X254239Y143981D01*
X254257Y143937D01*
X254259Y143937D01*
X254260Y143935D01*
X254345Y143902D01*
X258155Y143902D01*
X258157Y143903D01*
G37*
G36*
X290657Y67307D02*
X290657Y67307D01*
X290659Y67306D01*
X290702Y67326D01*
X290746Y67344D01*
X290746Y67346D01*
X290748Y67347D01*
X290781Y67432D01*
X290781Y69972D01*
X290780Y69974D01*
X290781Y69976D01*
X290761Y70019D01*
X290743Y70063D01*
X290741Y70063D01*
X290740Y70065D01*
X290655Y70098D01*
X286845Y70098D01*
X286843Y70097D01*
X286841Y70098D01*
X286798Y70078D01*
X286754Y70060D01*
X286754Y70058D01*
X286752Y70057D01*
X286719Y69972D01*
X286719Y67432D01*
X286720Y67430D01*
X286719Y67428D01*
X286739Y67385D01*
X286757Y67341D01*
X286759Y67341D01*
X286760Y67339D01*
X286845Y67306D01*
X290655Y67306D01*
X290657Y67307D01*
G37*
D10*
X152298Y342343D02*
X152298Y358599D01*
X156814Y358599D01*
X156918Y358597D01*
X157021Y358591D01*
X157125Y358581D01*
X157228Y358567D01*
X157330Y358549D01*
X157431Y358528D01*
X157532Y358502D01*
X157631Y358473D01*
X157730Y358440D01*
X157827Y358403D01*
X157922Y358362D01*
X158016Y358318D01*
X158108Y358270D01*
X158198Y358219D01*
X158287Y358164D01*
X158373Y358106D01*
X158456Y358044D01*
X158538Y357980D01*
X158616Y357912D01*
X158692Y357842D01*
X158766Y357769D01*
X158836Y357692D01*
X158904Y357614D01*
X158968Y357532D01*
X159030Y357449D01*
X159088Y357363D01*
X159143Y357274D01*
X159194Y357184D01*
X159242Y357092D01*
X159286Y356998D01*
X159327Y356903D01*
X159364Y356806D01*
X159397Y356707D01*
X159426Y356608D01*
X159452Y356507D01*
X159473Y356406D01*
X159491Y356304D01*
X159505Y356201D01*
X159515Y356097D01*
X159521Y355994D01*
X159523Y355890D01*
X159523Y350471D01*
X159521Y350370D01*
X159515Y350269D01*
X159506Y350168D01*
X159493Y350067D01*
X159476Y349967D01*
X159455Y349868D01*
X159431Y349770D01*
X159403Y349673D01*
X159371Y349576D01*
X159336Y349481D01*
X159297Y349388D01*
X159255Y349296D01*
X159209Y349205D01*
X159160Y349117D01*
X159108Y349030D01*
X159052Y348945D01*
X158994Y348862D01*
X158932Y348782D01*
X158867Y348704D01*
X158800Y348628D01*
X158730Y348555D01*
X158657Y348485D01*
X158581Y348418D01*
X158503Y348353D01*
X158423Y348291D01*
X158340Y348233D01*
X158255Y348177D01*
X158169Y348125D01*
X158080Y348076D01*
X157989Y348030D01*
X157897Y347988D01*
X157804Y347949D01*
X157709Y347914D01*
X157612Y347882D01*
X157515Y347854D01*
X157417Y347830D01*
X157318Y347809D01*
X157218Y347792D01*
X157117Y347779D01*
X157016Y347770D01*
X156915Y347764D01*
X156814Y347762D01*
X152298Y347762D01*
X165772Y351374D02*
X165772Y354987D01*
X165774Y355106D01*
X165780Y355226D01*
X165790Y355345D01*
X165804Y355463D01*
X165821Y355582D01*
X165843Y355699D01*
X165868Y355816D01*
X165898Y355931D01*
X165931Y356046D01*
X165968Y356160D01*
X166008Y356272D01*
X166053Y356383D01*
X166101Y356492D01*
X166152Y356600D01*
X166207Y356706D01*
X166266Y356810D01*
X166328Y356912D01*
X166393Y357012D01*
X166462Y357110D01*
X166534Y357206D01*
X166609Y357299D01*
X166686Y357389D01*
X166767Y357477D01*
X166851Y357562D01*
X166938Y357644D01*
X167027Y357724D01*
X167119Y357800D01*
X167213Y357874D01*
X167310Y357944D01*
X167408Y358011D01*
X167509Y358075D01*
X167613Y358135D01*
X167718Y358192D01*
X167825Y358245D01*
X167933Y358295D01*
X168043Y358341D01*
X168155Y358383D01*
X168268Y358422D01*
X168382Y358457D01*
X168497Y358488D01*
X168614Y358516D01*
X168731Y358539D01*
X168848Y358559D01*
X168967Y358575D01*
X169086Y358587D01*
X169205Y358595D01*
X169324Y358599D01*
X169444Y358599D01*
X169563Y358595D01*
X169682Y358587D01*
X169801Y358575D01*
X169920Y358559D01*
X170037Y358539D01*
X170154Y358516D01*
X170271Y358488D01*
X170386Y358457D01*
X170500Y358422D01*
X170613Y358383D01*
X170725Y358341D01*
X170835Y358295D01*
X170943Y358245D01*
X171050Y358192D01*
X171155Y358135D01*
X171259Y358075D01*
X171360Y358011D01*
X171458Y357944D01*
X171555Y357874D01*
X171649Y357800D01*
X171741Y357724D01*
X171830Y357644D01*
X171917Y357562D01*
X172001Y357477D01*
X172082Y357389D01*
X172159Y357299D01*
X172234Y357206D01*
X172306Y357110D01*
X172375Y357012D01*
X172440Y356912D01*
X172502Y356810D01*
X172561Y356706D01*
X172616Y356600D01*
X172667Y356492D01*
X172715Y356383D01*
X172760Y356272D01*
X172800Y356160D01*
X172837Y356046D01*
X172870Y355931D01*
X172900Y355816D01*
X172925Y355699D01*
X172947Y355582D01*
X172964Y355463D01*
X172978Y355345D01*
X172988Y355226D01*
X172994Y355106D01*
X172996Y354987D01*
X172997Y354987D02*
X172997Y351374D01*
X172996Y351374D02*
X172994Y351255D01*
X172988Y351135D01*
X172978Y351016D01*
X172964Y350898D01*
X172947Y350779D01*
X172925Y350662D01*
X172900Y350545D01*
X172870Y350430D01*
X172837Y350315D01*
X172800Y350201D01*
X172760Y350089D01*
X172715Y349978D01*
X172667Y349869D01*
X172616Y349761D01*
X172561Y349655D01*
X172502Y349551D01*
X172440Y349449D01*
X172375Y349349D01*
X172306Y349251D01*
X172234Y349155D01*
X172159Y349062D01*
X172082Y348972D01*
X172001Y348884D01*
X171917Y348799D01*
X171830Y348717D01*
X171741Y348637D01*
X171649Y348561D01*
X171555Y348487D01*
X171458Y348417D01*
X171360Y348350D01*
X171259Y348286D01*
X171155Y348226D01*
X171050Y348169D01*
X170943Y348116D01*
X170835Y348066D01*
X170725Y348020D01*
X170613Y347978D01*
X170500Y347939D01*
X170386Y347904D01*
X170271Y347873D01*
X170154Y347845D01*
X170037Y347822D01*
X169920Y347802D01*
X169801Y347786D01*
X169682Y347774D01*
X169563Y347766D01*
X169444Y347762D01*
X169324Y347762D01*
X169205Y347766D01*
X169086Y347774D01*
X168967Y347786D01*
X168848Y347802D01*
X168731Y347822D01*
X168614Y347845D01*
X168497Y347873D01*
X168382Y347904D01*
X168268Y347939D01*
X168155Y347978D01*
X168043Y348020D01*
X167933Y348066D01*
X167825Y348116D01*
X167718Y348169D01*
X167613Y348226D01*
X167509Y348286D01*
X167408Y348350D01*
X167310Y348417D01*
X167213Y348487D01*
X167119Y348561D01*
X167027Y348637D01*
X166938Y348717D01*
X166851Y348799D01*
X166767Y348884D01*
X166686Y348972D01*
X166609Y349062D01*
X166534Y349155D01*
X166462Y349251D01*
X166393Y349349D01*
X166328Y349449D01*
X166266Y349551D01*
X166207Y349655D01*
X166152Y349761D01*
X166101Y349869D01*
X166053Y349978D01*
X166008Y350089D01*
X165968Y350201D01*
X165931Y350315D01*
X165898Y350430D01*
X165868Y350545D01*
X165843Y350662D01*
X165821Y350779D01*
X165804Y350898D01*
X165790Y351016D01*
X165780Y351135D01*
X165774Y351255D01*
X165772Y351374D01*
X179925Y347762D02*
X179925Y358599D01*
X185344Y358599D01*
X185344Y356793D01*
X202210Y364018D02*
X202210Y347762D01*
X197694Y364018D02*
X206725Y364018D01*
X214854Y347762D02*
X219369Y347762D01*
X214854Y347762D02*
X214753Y347764D01*
X214652Y347770D01*
X214551Y347779D01*
X214450Y347792D01*
X214350Y347809D01*
X214251Y347830D01*
X214153Y347854D01*
X214056Y347882D01*
X213959Y347914D01*
X213864Y347949D01*
X213771Y347988D01*
X213679Y348030D01*
X213588Y348076D01*
X213500Y348125D01*
X213413Y348177D01*
X213328Y348233D01*
X213245Y348291D01*
X213165Y348353D01*
X213087Y348418D01*
X213011Y348485D01*
X212938Y348555D01*
X212868Y348628D01*
X212801Y348704D01*
X212736Y348782D01*
X212674Y348862D01*
X212616Y348945D01*
X212560Y349030D01*
X212508Y349117D01*
X212459Y349205D01*
X212413Y349296D01*
X212371Y349388D01*
X212332Y349481D01*
X212297Y349576D01*
X212265Y349673D01*
X212237Y349770D01*
X212213Y349868D01*
X212192Y349967D01*
X212175Y350067D01*
X212162Y350168D01*
X212153Y350269D01*
X212147Y350370D01*
X212145Y350471D01*
X212145Y354987D01*
X212147Y355106D01*
X212153Y355226D01*
X212163Y355345D01*
X212177Y355463D01*
X212194Y355582D01*
X212216Y355699D01*
X212241Y355816D01*
X212271Y355931D01*
X212304Y356046D01*
X212341Y356160D01*
X212381Y356272D01*
X212426Y356383D01*
X212474Y356492D01*
X212525Y356600D01*
X212580Y356706D01*
X212639Y356810D01*
X212701Y356912D01*
X212766Y357012D01*
X212835Y357110D01*
X212907Y357206D01*
X212982Y357299D01*
X213059Y357389D01*
X213140Y357477D01*
X213224Y357562D01*
X213311Y357644D01*
X213400Y357724D01*
X213492Y357800D01*
X213586Y357874D01*
X213683Y357944D01*
X213781Y358011D01*
X213882Y358075D01*
X213986Y358135D01*
X214091Y358192D01*
X214198Y358245D01*
X214306Y358295D01*
X214416Y358341D01*
X214528Y358383D01*
X214641Y358422D01*
X214755Y358457D01*
X214870Y358488D01*
X214987Y358516D01*
X215104Y358539D01*
X215221Y358559D01*
X215340Y358575D01*
X215459Y358587D01*
X215578Y358595D01*
X215697Y358599D01*
X215817Y358599D01*
X215936Y358595D01*
X216055Y358587D01*
X216174Y358575D01*
X216293Y358559D01*
X216410Y358539D01*
X216527Y358516D01*
X216644Y358488D01*
X216759Y358457D01*
X216873Y358422D01*
X216986Y358383D01*
X217098Y358341D01*
X217208Y358295D01*
X217316Y358245D01*
X217423Y358192D01*
X217528Y358135D01*
X217632Y358075D01*
X217733Y358011D01*
X217831Y357944D01*
X217928Y357874D01*
X218022Y357800D01*
X218114Y357724D01*
X218203Y357644D01*
X218290Y357562D01*
X218374Y357477D01*
X218455Y357389D01*
X218532Y357299D01*
X218607Y357206D01*
X218679Y357110D01*
X218748Y357012D01*
X218813Y356912D01*
X218875Y356810D01*
X218934Y356706D01*
X218989Y356600D01*
X219040Y356492D01*
X219088Y356383D01*
X219133Y356272D01*
X219173Y356160D01*
X219210Y356046D01*
X219243Y355931D01*
X219273Y355816D01*
X219298Y355699D01*
X219320Y355582D01*
X219337Y355463D01*
X219351Y355345D01*
X219361Y355226D01*
X219367Y355106D01*
X219369Y354987D01*
X219369Y353181D01*
X212145Y353181D01*
X228779Y354084D02*
X232843Y354084D01*
X228779Y354084D02*
X228667Y354082D01*
X228556Y354076D01*
X228445Y354066D01*
X228334Y354053D01*
X228224Y354035D01*
X228115Y354013D01*
X228006Y353988D01*
X227898Y353959D01*
X227792Y353926D01*
X227686Y353889D01*
X227582Y353849D01*
X227480Y353805D01*
X227379Y353757D01*
X227280Y353706D01*
X227182Y353651D01*
X227087Y353593D01*
X226994Y353532D01*
X226903Y353467D01*
X226814Y353399D01*
X226728Y353328D01*
X226645Y353255D01*
X226564Y353178D01*
X226485Y353098D01*
X226410Y353016D01*
X226338Y352931D01*
X226268Y352844D01*
X226202Y352754D01*
X226139Y352662D01*
X226079Y352567D01*
X226023Y352471D01*
X225970Y352373D01*
X225921Y352273D01*
X225875Y352171D01*
X225833Y352068D01*
X225794Y351963D01*
X225759Y351857D01*
X225728Y351750D01*
X225701Y351642D01*
X225677Y351533D01*
X225658Y351423D01*
X225642Y351313D01*
X225630Y351202D01*
X225622Y351090D01*
X225618Y350979D01*
X225618Y350867D01*
X225622Y350756D01*
X225630Y350644D01*
X225642Y350533D01*
X225658Y350423D01*
X225677Y350313D01*
X225701Y350204D01*
X225728Y350096D01*
X225759Y349989D01*
X225794Y349883D01*
X225833Y349778D01*
X225875Y349675D01*
X225921Y349573D01*
X225970Y349473D01*
X226023Y349375D01*
X226079Y349279D01*
X226139Y349184D01*
X226202Y349092D01*
X226268Y349002D01*
X226338Y348915D01*
X226410Y348830D01*
X226485Y348748D01*
X226564Y348668D01*
X226645Y348591D01*
X226728Y348518D01*
X226814Y348447D01*
X226903Y348379D01*
X226994Y348314D01*
X227087Y348253D01*
X227182Y348195D01*
X227280Y348140D01*
X227379Y348089D01*
X227480Y348041D01*
X227582Y347997D01*
X227686Y347957D01*
X227792Y347920D01*
X227898Y347887D01*
X228006Y347858D01*
X228115Y347833D01*
X228224Y347811D01*
X228334Y347793D01*
X228445Y347780D01*
X228556Y347770D01*
X228667Y347764D01*
X228779Y347762D01*
X232843Y347762D01*
X232843Y355890D01*
X232841Y355991D01*
X232835Y356092D01*
X232826Y356193D01*
X232813Y356294D01*
X232796Y356394D01*
X232775Y356493D01*
X232751Y356591D01*
X232723Y356688D01*
X232691Y356785D01*
X232656Y356880D01*
X232617Y356973D01*
X232575Y357065D01*
X232529Y357156D01*
X232480Y357245D01*
X232428Y357331D01*
X232372Y357416D01*
X232314Y357499D01*
X232252Y357579D01*
X232187Y357657D01*
X232120Y357733D01*
X232050Y357806D01*
X231977Y357876D01*
X231901Y357943D01*
X231823Y358008D01*
X231743Y358070D01*
X231660Y358128D01*
X231575Y358184D01*
X231489Y358236D01*
X231400Y358285D01*
X231309Y358331D01*
X231217Y358373D01*
X231124Y358412D01*
X231029Y358447D01*
X230932Y358479D01*
X230835Y358507D01*
X230737Y358531D01*
X230638Y358552D01*
X230538Y358569D01*
X230437Y358582D01*
X230336Y358591D01*
X230235Y358597D01*
X230134Y358599D01*
X226521Y358599D01*
X240559Y358599D02*
X240559Y347762D01*
X240559Y358599D02*
X248687Y358599D01*
X248788Y358597D01*
X248889Y358591D01*
X248990Y358582D01*
X249091Y358569D01*
X249191Y358552D01*
X249290Y358531D01*
X249388Y358507D01*
X249485Y358479D01*
X249582Y358447D01*
X249677Y358412D01*
X249770Y358373D01*
X249862Y358331D01*
X249953Y358285D01*
X250042Y358236D01*
X250128Y358184D01*
X250213Y358128D01*
X250296Y358070D01*
X250376Y358008D01*
X250454Y357943D01*
X250530Y357876D01*
X250603Y357806D01*
X250673Y357733D01*
X250740Y357657D01*
X250805Y357579D01*
X250867Y357499D01*
X250925Y357416D01*
X250981Y357331D01*
X251033Y357245D01*
X251082Y357156D01*
X251128Y357065D01*
X251170Y356973D01*
X251209Y356880D01*
X251244Y356785D01*
X251276Y356688D01*
X251304Y356591D01*
X251328Y356493D01*
X251349Y356394D01*
X251366Y356294D01*
X251379Y356193D01*
X251388Y356092D01*
X251394Y355991D01*
X251396Y355890D01*
X251396Y347762D01*
X245977Y347762D02*
X245977Y358599D01*
X271890Y347762D02*
X272008Y347764D01*
X272126Y347770D01*
X272244Y347779D01*
X272361Y347793D01*
X272478Y347810D01*
X272595Y347831D01*
X272710Y347856D01*
X272825Y347885D01*
X272939Y347918D01*
X273051Y347954D01*
X273162Y347994D01*
X273272Y348037D01*
X273381Y348084D01*
X273488Y348134D01*
X273593Y348189D01*
X273696Y348246D01*
X273797Y348307D01*
X273897Y348371D01*
X273994Y348438D01*
X274089Y348508D01*
X274181Y348582D01*
X274272Y348658D01*
X274359Y348738D01*
X274444Y348820D01*
X274526Y348905D01*
X274606Y348992D01*
X274682Y349083D01*
X274756Y349175D01*
X274826Y349270D01*
X274893Y349367D01*
X274957Y349467D01*
X275018Y349568D01*
X275075Y349671D01*
X275130Y349776D01*
X275180Y349883D01*
X275227Y349992D01*
X275270Y350102D01*
X275310Y350213D01*
X275346Y350325D01*
X275379Y350439D01*
X275408Y350554D01*
X275433Y350669D01*
X275454Y350786D01*
X275471Y350903D01*
X275485Y351020D01*
X275494Y351138D01*
X275500Y351256D01*
X275502Y351374D01*
X271890Y347762D02*
X271707Y347764D01*
X271525Y347771D01*
X271343Y347782D01*
X271161Y347797D01*
X270979Y347817D01*
X270798Y347840D01*
X270618Y347869D01*
X270438Y347901D01*
X270259Y347938D01*
X270082Y347979D01*
X269905Y348025D01*
X269729Y348074D01*
X269555Y348128D01*
X269381Y348186D01*
X269210Y348248D01*
X269040Y348314D01*
X268871Y348385D01*
X268704Y348459D01*
X268539Y348537D01*
X268376Y348619D01*
X268215Y348705D01*
X268056Y348795D01*
X267899Y348889D01*
X267745Y348986D01*
X267593Y349087D01*
X267443Y349192D01*
X267296Y349300D01*
X267152Y349411D01*
X267010Y349526D01*
X266871Y349645D01*
X266735Y349767D01*
X266602Y349892D01*
X266472Y350020D01*
X266924Y360406D02*
X266926Y360524D01*
X266932Y360642D01*
X266941Y360760D01*
X266955Y360877D01*
X266972Y360994D01*
X266993Y361111D01*
X267018Y361226D01*
X267047Y361341D01*
X267080Y361455D01*
X267116Y361567D01*
X267156Y361678D01*
X267199Y361788D01*
X267246Y361897D01*
X267296Y362004D01*
X267351Y362109D01*
X267408Y362212D01*
X267469Y362313D01*
X267533Y362413D01*
X267600Y362510D01*
X267670Y362605D01*
X267744Y362697D01*
X267820Y362788D01*
X267900Y362875D01*
X267982Y362960D01*
X268067Y363042D01*
X268154Y363122D01*
X268245Y363198D01*
X268337Y363272D01*
X268432Y363342D01*
X268529Y363409D01*
X268629Y363473D01*
X268730Y363534D01*
X268833Y363592D01*
X268938Y363646D01*
X269045Y363696D01*
X269154Y363743D01*
X269264Y363787D01*
X269375Y363826D01*
X269488Y363862D01*
X269601Y363895D01*
X269716Y363924D01*
X269831Y363949D01*
X269948Y363970D01*
X270065Y363987D01*
X270182Y364001D01*
X270300Y364010D01*
X270418Y364016D01*
X270536Y364018D01*
X270697Y364016D01*
X270859Y364010D01*
X271020Y364001D01*
X271181Y363987D01*
X271341Y363970D01*
X271501Y363949D01*
X271661Y363924D01*
X271820Y363895D01*
X271978Y363863D01*
X272135Y363827D01*
X272291Y363787D01*
X272447Y363743D01*
X272601Y363695D01*
X272754Y363644D01*
X272906Y363590D01*
X273057Y363531D01*
X273206Y363470D01*
X273353Y363404D01*
X273499Y363335D01*
X273644Y363263D01*
X273786Y363187D01*
X273927Y363108D01*
X274066Y363026D01*
X274202Y362940D01*
X274337Y362851D01*
X274470Y362759D01*
X274600Y362663D01*
X268729Y357245D02*
X268628Y357307D01*
X268528Y357372D01*
X268431Y357441D01*
X268336Y357513D01*
X268243Y357587D01*
X268153Y357665D01*
X268065Y357746D01*
X267980Y357829D01*
X267898Y357915D01*
X267819Y358004D01*
X267742Y358095D01*
X267669Y358189D01*
X267598Y358285D01*
X267531Y358383D01*
X267467Y358483D01*
X267406Y358586D01*
X267349Y358690D01*
X267295Y358796D01*
X267245Y358904D01*
X267198Y359013D01*
X267154Y359124D01*
X267114Y359236D01*
X267078Y359350D01*
X267046Y359464D01*
X267017Y359580D01*
X266992Y359696D01*
X266971Y359813D01*
X266954Y359931D01*
X266940Y360049D01*
X266931Y360168D01*
X266925Y360287D01*
X266923Y360406D01*
X273697Y354535D02*
X273798Y354473D01*
X273898Y354408D01*
X273995Y354339D01*
X274090Y354267D01*
X274183Y354193D01*
X274273Y354115D01*
X274361Y354034D01*
X274446Y353951D01*
X274528Y353865D01*
X274607Y353776D01*
X274684Y353685D01*
X274757Y353591D01*
X274828Y353495D01*
X274895Y353397D01*
X274959Y353297D01*
X275020Y353194D01*
X275077Y353090D01*
X275131Y352984D01*
X275181Y352876D01*
X275228Y352767D01*
X275272Y352656D01*
X275312Y352544D01*
X275348Y352430D01*
X275380Y352316D01*
X275409Y352200D01*
X275434Y352084D01*
X275455Y351967D01*
X275472Y351849D01*
X275486Y351731D01*
X275495Y351612D01*
X275501Y351493D01*
X275503Y351374D01*
X273697Y354535D02*
X268730Y357245D01*
X281443Y354987D02*
X281443Y351374D01*
X281443Y354987D02*
X281445Y355106D01*
X281451Y355226D01*
X281461Y355345D01*
X281475Y355463D01*
X281492Y355582D01*
X281514Y355699D01*
X281539Y355816D01*
X281569Y355931D01*
X281602Y356046D01*
X281639Y356160D01*
X281679Y356272D01*
X281724Y356383D01*
X281772Y356492D01*
X281823Y356600D01*
X281878Y356706D01*
X281937Y356810D01*
X281999Y356912D01*
X282064Y357012D01*
X282133Y357110D01*
X282205Y357206D01*
X282280Y357299D01*
X282357Y357389D01*
X282438Y357477D01*
X282522Y357562D01*
X282609Y357644D01*
X282698Y357724D01*
X282790Y357800D01*
X282884Y357874D01*
X282981Y357944D01*
X283079Y358011D01*
X283180Y358075D01*
X283284Y358135D01*
X283389Y358192D01*
X283496Y358245D01*
X283604Y358295D01*
X283714Y358341D01*
X283826Y358383D01*
X283939Y358422D01*
X284053Y358457D01*
X284168Y358488D01*
X284285Y358516D01*
X284402Y358539D01*
X284519Y358559D01*
X284638Y358575D01*
X284757Y358587D01*
X284876Y358595D01*
X284995Y358599D01*
X285115Y358599D01*
X285234Y358595D01*
X285353Y358587D01*
X285472Y358575D01*
X285591Y358559D01*
X285708Y358539D01*
X285825Y358516D01*
X285942Y358488D01*
X286057Y358457D01*
X286171Y358422D01*
X286284Y358383D01*
X286396Y358341D01*
X286506Y358295D01*
X286614Y358245D01*
X286721Y358192D01*
X286826Y358135D01*
X286930Y358075D01*
X287031Y358011D01*
X287129Y357944D01*
X287226Y357874D01*
X287320Y357800D01*
X287412Y357724D01*
X287501Y357644D01*
X287588Y357562D01*
X287672Y357477D01*
X287753Y357389D01*
X287830Y357299D01*
X287905Y357206D01*
X287977Y357110D01*
X288046Y357012D01*
X288111Y356912D01*
X288173Y356810D01*
X288232Y356706D01*
X288287Y356600D01*
X288338Y356492D01*
X288386Y356383D01*
X288431Y356272D01*
X288471Y356160D01*
X288508Y356046D01*
X288541Y355931D01*
X288571Y355816D01*
X288596Y355699D01*
X288618Y355582D01*
X288635Y355463D01*
X288649Y355345D01*
X288659Y355226D01*
X288665Y355106D01*
X288667Y354987D01*
X288668Y354987D02*
X288668Y351374D01*
X288667Y351374D02*
X288665Y351255D01*
X288659Y351135D01*
X288649Y351016D01*
X288635Y350898D01*
X288618Y350779D01*
X288596Y350662D01*
X288571Y350545D01*
X288541Y350430D01*
X288508Y350315D01*
X288471Y350201D01*
X288431Y350089D01*
X288386Y349978D01*
X288338Y349869D01*
X288287Y349761D01*
X288232Y349655D01*
X288173Y349551D01*
X288111Y349449D01*
X288046Y349349D01*
X287977Y349251D01*
X287905Y349155D01*
X287830Y349062D01*
X287753Y348972D01*
X287672Y348884D01*
X287588Y348799D01*
X287501Y348717D01*
X287412Y348637D01*
X287320Y348561D01*
X287226Y348487D01*
X287129Y348417D01*
X287031Y348350D01*
X286930Y348286D01*
X286826Y348226D01*
X286721Y348169D01*
X286614Y348116D01*
X286506Y348066D01*
X286396Y348020D01*
X286284Y347978D01*
X286171Y347939D01*
X286057Y347904D01*
X285942Y347873D01*
X285825Y347845D01*
X285708Y347822D01*
X285591Y347802D01*
X285472Y347786D01*
X285353Y347774D01*
X285234Y347766D01*
X285115Y347762D01*
X284995Y347762D01*
X284876Y347766D01*
X284757Y347774D01*
X284638Y347786D01*
X284519Y347802D01*
X284402Y347822D01*
X284285Y347845D01*
X284168Y347873D01*
X284053Y347904D01*
X283939Y347939D01*
X283826Y347978D01*
X283714Y348020D01*
X283604Y348066D01*
X283496Y348116D01*
X283389Y348169D01*
X283284Y348226D01*
X283180Y348286D01*
X283079Y348350D01*
X282981Y348417D01*
X282884Y348487D01*
X282790Y348561D01*
X282698Y348637D01*
X282609Y348717D01*
X282522Y348799D01*
X282438Y348884D01*
X282357Y348972D01*
X282280Y349062D01*
X282205Y349155D01*
X282133Y349251D01*
X282064Y349349D01*
X281999Y349449D01*
X281937Y349551D01*
X281878Y349655D01*
X281823Y349761D01*
X281772Y349869D01*
X281724Y349978D01*
X281679Y350089D01*
X281639Y350201D01*
X281602Y350315D01*
X281569Y350430D01*
X281539Y350545D01*
X281514Y350662D01*
X281492Y350779D01*
X281475Y350898D01*
X281461Y351016D01*
X281451Y351135D01*
X281445Y351255D01*
X281443Y351374D01*
X295227Y350471D02*
X295227Y364018D01*
X295227Y350471D02*
X295229Y350370D01*
X295235Y350269D01*
X295244Y350168D01*
X295257Y350067D01*
X295274Y349967D01*
X295295Y349868D01*
X295319Y349770D01*
X295347Y349673D01*
X295379Y349576D01*
X295414Y349481D01*
X295453Y349388D01*
X295495Y349296D01*
X295541Y349205D01*
X295590Y349117D01*
X295642Y349030D01*
X295698Y348945D01*
X295756Y348862D01*
X295818Y348782D01*
X295883Y348704D01*
X295950Y348628D01*
X296020Y348555D01*
X296093Y348485D01*
X296169Y348418D01*
X296247Y348353D01*
X296327Y348291D01*
X296410Y348233D01*
X296495Y348177D01*
X296582Y348125D01*
X296670Y348076D01*
X296761Y348030D01*
X296853Y347988D01*
X296946Y347949D01*
X297041Y347914D01*
X297138Y347882D01*
X297235Y347854D01*
X297333Y347830D01*
X297432Y347809D01*
X297532Y347792D01*
X297633Y347779D01*
X297734Y347770D01*
X297835Y347764D01*
X297936Y347762D01*
X312415Y347762D02*
X312415Y364018D01*
X316930Y364018D01*
X317063Y364016D01*
X317195Y364010D01*
X317327Y364000D01*
X317459Y363987D01*
X317591Y363969D01*
X317721Y363948D01*
X317852Y363923D01*
X317981Y363894D01*
X318109Y363861D01*
X318237Y363825D01*
X318363Y363785D01*
X318488Y363741D01*
X318612Y363693D01*
X318734Y363642D01*
X318855Y363587D01*
X318974Y363529D01*
X319092Y363467D01*
X319207Y363402D01*
X319321Y363333D01*
X319432Y363262D01*
X319541Y363186D01*
X319648Y363108D01*
X319753Y363027D01*
X319855Y362942D01*
X319955Y362855D01*
X320052Y362765D01*
X320147Y362672D01*
X320238Y362576D01*
X320327Y362478D01*
X320413Y362377D01*
X320496Y362273D01*
X320576Y362167D01*
X320652Y362059D01*
X320726Y361949D01*
X320796Y361836D01*
X320863Y361722D01*
X320926Y361605D01*
X320986Y361487D01*
X321043Y361367D01*
X321096Y361245D01*
X321145Y361122D01*
X321191Y360998D01*
X321233Y360872D01*
X321271Y360745D01*
X321306Y360617D01*
X321337Y360488D01*
X321364Y360359D01*
X321387Y360228D01*
X321407Y360097D01*
X321422Y359965D01*
X321434Y359833D01*
X321442Y359701D01*
X321446Y359568D01*
X321446Y359436D01*
X321442Y359303D01*
X321434Y359171D01*
X321422Y359039D01*
X321407Y358907D01*
X321387Y358776D01*
X321364Y358645D01*
X321337Y358516D01*
X321306Y358387D01*
X321271Y358259D01*
X321233Y358132D01*
X321191Y358006D01*
X321145Y357882D01*
X321096Y357759D01*
X321043Y357637D01*
X320986Y357517D01*
X320926Y357399D01*
X320863Y357282D01*
X320796Y357168D01*
X320726Y357055D01*
X320652Y356945D01*
X320576Y356837D01*
X320496Y356731D01*
X320413Y356627D01*
X320327Y356526D01*
X320238Y356428D01*
X320147Y356332D01*
X320052Y356239D01*
X319955Y356149D01*
X319855Y356062D01*
X319753Y355977D01*
X319648Y355896D01*
X319541Y355818D01*
X319432Y355742D01*
X319321Y355671D01*
X319207Y355602D01*
X319092Y355537D01*
X318974Y355475D01*
X318855Y355417D01*
X318734Y355362D01*
X318612Y355311D01*
X318488Y355263D01*
X318363Y355219D01*
X318237Y355179D01*
X318109Y355143D01*
X317981Y355110D01*
X317852Y355081D01*
X317721Y355056D01*
X317591Y355035D01*
X317459Y355017D01*
X317327Y355004D01*
X317195Y354994D01*
X317063Y354988D01*
X316930Y354986D01*
X316930Y354987D02*
X312415Y354987D01*
X317834Y354987D02*
X321446Y347762D01*
X327816Y351374D02*
X327816Y354987D01*
X327818Y355106D01*
X327824Y355226D01*
X327834Y355345D01*
X327848Y355463D01*
X327865Y355582D01*
X327887Y355699D01*
X327912Y355816D01*
X327942Y355931D01*
X327975Y356046D01*
X328012Y356160D01*
X328052Y356272D01*
X328097Y356383D01*
X328145Y356492D01*
X328196Y356600D01*
X328251Y356706D01*
X328310Y356810D01*
X328372Y356912D01*
X328437Y357012D01*
X328506Y357110D01*
X328578Y357206D01*
X328653Y357299D01*
X328730Y357389D01*
X328811Y357477D01*
X328895Y357562D01*
X328982Y357644D01*
X329071Y357724D01*
X329163Y357800D01*
X329257Y357874D01*
X329354Y357944D01*
X329452Y358011D01*
X329553Y358075D01*
X329657Y358135D01*
X329762Y358192D01*
X329869Y358245D01*
X329977Y358295D01*
X330087Y358341D01*
X330199Y358383D01*
X330312Y358422D01*
X330426Y358457D01*
X330541Y358488D01*
X330658Y358516D01*
X330775Y358539D01*
X330892Y358559D01*
X331011Y358575D01*
X331130Y358587D01*
X331249Y358595D01*
X331368Y358599D01*
X331488Y358599D01*
X331607Y358595D01*
X331726Y358587D01*
X331845Y358575D01*
X331964Y358559D01*
X332081Y358539D01*
X332198Y358516D01*
X332315Y358488D01*
X332430Y358457D01*
X332544Y358422D01*
X332657Y358383D01*
X332769Y358341D01*
X332879Y358295D01*
X332987Y358245D01*
X333094Y358192D01*
X333199Y358135D01*
X333303Y358075D01*
X333404Y358011D01*
X333502Y357944D01*
X333599Y357874D01*
X333693Y357800D01*
X333785Y357724D01*
X333874Y357644D01*
X333961Y357562D01*
X334045Y357477D01*
X334126Y357389D01*
X334203Y357299D01*
X334278Y357206D01*
X334350Y357110D01*
X334419Y357012D01*
X334484Y356912D01*
X334546Y356810D01*
X334605Y356706D01*
X334660Y356600D01*
X334711Y356492D01*
X334759Y356383D01*
X334804Y356272D01*
X334844Y356160D01*
X334881Y356046D01*
X334914Y355931D01*
X334944Y355816D01*
X334969Y355699D01*
X334991Y355582D01*
X335008Y355463D01*
X335022Y355345D01*
X335032Y355226D01*
X335038Y355106D01*
X335040Y354987D01*
X335041Y354987D02*
X335041Y351374D01*
X335040Y351374D02*
X335038Y351255D01*
X335032Y351135D01*
X335022Y351016D01*
X335008Y350898D01*
X334991Y350779D01*
X334969Y350662D01*
X334944Y350545D01*
X334914Y350430D01*
X334881Y350315D01*
X334844Y350201D01*
X334804Y350089D01*
X334759Y349978D01*
X334711Y349869D01*
X334660Y349761D01*
X334605Y349655D01*
X334546Y349551D01*
X334484Y349449D01*
X334419Y349349D01*
X334350Y349251D01*
X334278Y349155D01*
X334203Y349062D01*
X334126Y348972D01*
X334045Y348884D01*
X333961Y348799D01*
X333874Y348717D01*
X333785Y348637D01*
X333693Y348561D01*
X333599Y348487D01*
X333502Y348417D01*
X333404Y348350D01*
X333303Y348286D01*
X333199Y348226D01*
X333094Y348169D01*
X332987Y348116D01*
X332879Y348066D01*
X332769Y348020D01*
X332657Y347978D01*
X332544Y347939D01*
X332430Y347904D01*
X332315Y347873D01*
X332198Y347845D01*
X332081Y347822D01*
X331964Y347802D01*
X331845Y347786D01*
X331726Y347774D01*
X331607Y347766D01*
X331488Y347762D01*
X331368Y347762D01*
X331249Y347766D01*
X331130Y347774D01*
X331011Y347786D01*
X330892Y347802D01*
X330775Y347822D01*
X330658Y347845D01*
X330541Y347873D01*
X330426Y347904D01*
X330312Y347939D01*
X330199Y347978D01*
X330087Y348020D01*
X329977Y348066D01*
X329869Y348116D01*
X329762Y348169D01*
X329657Y348226D01*
X329553Y348286D01*
X329452Y348350D01*
X329354Y348417D01*
X329257Y348487D01*
X329163Y348561D01*
X329071Y348637D01*
X328982Y348717D01*
X328895Y348799D01*
X328811Y348884D01*
X328730Y348972D01*
X328653Y349062D01*
X328578Y349155D01*
X328506Y349251D01*
X328437Y349349D01*
X328372Y349449D01*
X328310Y349551D01*
X328251Y349655D01*
X328196Y349761D01*
X328145Y349869D01*
X328097Y349978D01*
X328052Y350089D01*
X328012Y350201D01*
X327975Y350315D01*
X327942Y350430D01*
X327912Y350545D01*
X327887Y350662D01*
X327865Y350779D01*
X327848Y350898D01*
X327834Y351016D01*
X327824Y351135D01*
X327818Y351255D01*
X327816Y351374D01*
X341957Y347762D02*
X341957Y364018D01*
X341957Y347762D02*
X346473Y347762D01*
X346577Y347764D01*
X346680Y347770D01*
X346784Y347780D01*
X346887Y347794D01*
X346989Y347812D01*
X347090Y347833D01*
X347191Y347859D01*
X347290Y347888D01*
X347389Y347921D01*
X347486Y347958D01*
X347581Y347999D01*
X347675Y348043D01*
X347767Y348091D01*
X347857Y348142D01*
X347946Y348197D01*
X348032Y348255D01*
X348115Y348317D01*
X348197Y348381D01*
X348275Y348449D01*
X348351Y348519D01*
X348425Y348592D01*
X348495Y348669D01*
X348563Y348747D01*
X348627Y348829D01*
X348689Y348912D01*
X348747Y348998D01*
X348802Y349087D01*
X348853Y349177D01*
X348901Y349269D01*
X348945Y349363D01*
X348986Y349458D01*
X349023Y349555D01*
X349056Y349654D01*
X349085Y349753D01*
X349111Y349854D01*
X349132Y349955D01*
X349150Y350057D01*
X349164Y350160D01*
X349174Y350264D01*
X349180Y350367D01*
X349182Y350471D01*
X349182Y355890D01*
X349180Y355991D01*
X349174Y356092D01*
X349165Y356193D01*
X349152Y356294D01*
X349135Y356394D01*
X349114Y356493D01*
X349090Y356591D01*
X349062Y356688D01*
X349030Y356785D01*
X348995Y356880D01*
X348956Y356973D01*
X348914Y357065D01*
X348868Y357156D01*
X348819Y357245D01*
X348767Y357331D01*
X348711Y357416D01*
X348653Y357499D01*
X348591Y357579D01*
X348526Y357657D01*
X348459Y357733D01*
X348389Y357806D01*
X348316Y357876D01*
X348240Y357943D01*
X348162Y358008D01*
X348082Y358070D01*
X347999Y358128D01*
X347914Y358184D01*
X347828Y358236D01*
X347739Y358285D01*
X347648Y358331D01*
X347556Y358373D01*
X347463Y358412D01*
X347368Y358447D01*
X347271Y358479D01*
X347174Y358507D01*
X347076Y358531D01*
X346977Y358552D01*
X346877Y358569D01*
X346776Y358582D01*
X346675Y358591D01*
X346574Y358597D01*
X346473Y358599D01*
X341957Y358599D01*
X355431Y354987D02*
X355431Y351374D01*
X355431Y354987D02*
X355433Y355106D01*
X355439Y355226D01*
X355449Y355345D01*
X355463Y355463D01*
X355480Y355582D01*
X355502Y355699D01*
X355527Y355816D01*
X355557Y355931D01*
X355590Y356046D01*
X355627Y356160D01*
X355667Y356272D01*
X355712Y356383D01*
X355760Y356492D01*
X355811Y356600D01*
X355866Y356706D01*
X355925Y356810D01*
X355987Y356912D01*
X356052Y357012D01*
X356121Y357110D01*
X356193Y357206D01*
X356268Y357299D01*
X356345Y357389D01*
X356426Y357477D01*
X356510Y357562D01*
X356597Y357644D01*
X356686Y357724D01*
X356778Y357800D01*
X356872Y357874D01*
X356969Y357944D01*
X357067Y358011D01*
X357168Y358075D01*
X357272Y358135D01*
X357377Y358192D01*
X357484Y358245D01*
X357592Y358295D01*
X357702Y358341D01*
X357814Y358383D01*
X357927Y358422D01*
X358041Y358457D01*
X358156Y358488D01*
X358273Y358516D01*
X358390Y358539D01*
X358507Y358559D01*
X358626Y358575D01*
X358745Y358587D01*
X358864Y358595D01*
X358983Y358599D01*
X359103Y358599D01*
X359222Y358595D01*
X359341Y358587D01*
X359460Y358575D01*
X359579Y358559D01*
X359696Y358539D01*
X359813Y358516D01*
X359930Y358488D01*
X360045Y358457D01*
X360159Y358422D01*
X360272Y358383D01*
X360384Y358341D01*
X360494Y358295D01*
X360602Y358245D01*
X360709Y358192D01*
X360814Y358135D01*
X360918Y358075D01*
X361019Y358011D01*
X361117Y357944D01*
X361214Y357874D01*
X361308Y357800D01*
X361400Y357724D01*
X361489Y357644D01*
X361576Y357562D01*
X361660Y357477D01*
X361741Y357389D01*
X361818Y357299D01*
X361893Y357206D01*
X361965Y357110D01*
X362034Y357012D01*
X362099Y356912D01*
X362161Y356810D01*
X362220Y356706D01*
X362275Y356600D01*
X362326Y356492D01*
X362374Y356383D01*
X362419Y356272D01*
X362459Y356160D01*
X362496Y356046D01*
X362529Y355931D01*
X362559Y355816D01*
X362584Y355699D01*
X362606Y355582D01*
X362623Y355463D01*
X362637Y355345D01*
X362647Y355226D01*
X362653Y355106D01*
X362655Y354987D01*
X362656Y354987D02*
X362656Y351374D01*
X362655Y351374D02*
X362653Y351255D01*
X362647Y351135D01*
X362637Y351016D01*
X362623Y350898D01*
X362606Y350779D01*
X362584Y350662D01*
X362559Y350545D01*
X362529Y350430D01*
X362496Y350315D01*
X362459Y350201D01*
X362419Y350089D01*
X362374Y349978D01*
X362326Y349869D01*
X362275Y349761D01*
X362220Y349655D01*
X362161Y349551D01*
X362099Y349449D01*
X362034Y349349D01*
X361965Y349251D01*
X361893Y349155D01*
X361818Y349062D01*
X361741Y348972D01*
X361660Y348884D01*
X361576Y348799D01*
X361489Y348717D01*
X361400Y348637D01*
X361308Y348561D01*
X361214Y348487D01*
X361117Y348417D01*
X361019Y348350D01*
X360918Y348286D01*
X360814Y348226D01*
X360709Y348169D01*
X360602Y348116D01*
X360494Y348066D01*
X360384Y348020D01*
X360272Y347978D01*
X360159Y347939D01*
X360045Y347904D01*
X359930Y347873D01*
X359813Y347845D01*
X359696Y347822D01*
X359579Y347802D01*
X359460Y347786D01*
X359341Y347774D01*
X359222Y347766D01*
X359103Y347762D01*
X358983Y347762D01*
X358864Y347766D01*
X358745Y347774D01*
X358626Y347786D01*
X358507Y347802D01*
X358390Y347822D01*
X358273Y347845D01*
X358156Y347873D01*
X358041Y347904D01*
X357927Y347939D01*
X357814Y347978D01*
X357702Y348020D01*
X357592Y348066D01*
X357484Y348116D01*
X357377Y348169D01*
X357272Y348226D01*
X357168Y348286D01*
X357067Y348350D01*
X356969Y348417D01*
X356872Y348487D01*
X356778Y348561D01*
X356686Y348637D01*
X356597Y348717D01*
X356510Y348799D01*
X356426Y348884D01*
X356345Y348972D01*
X356268Y349062D01*
X356193Y349155D01*
X356121Y349251D01*
X356052Y349349D01*
X355987Y349449D01*
X355925Y349551D01*
X355866Y349655D01*
X355811Y349761D01*
X355760Y349869D01*
X355712Y349978D01*
X355667Y350089D01*
X355627Y350201D01*
X355590Y350315D01*
X355557Y350430D01*
X355527Y350545D01*
X355502Y350662D01*
X355480Y350779D01*
X355463Y350898D01*
X355449Y351016D01*
X355439Y351135D01*
X355433Y351255D01*
X355431Y351374D01*
X367681Y358599D02*
X373099Y358599D01*
X369487Y364018D02*
X369487Y350471D01*
X369489Y350370D01*
X369495Y350269D01*
X369504Y350168D01*
X369517Y350067D01*
X369534Y349967D01*
X369555Y349868D01*
X369579Y349770D01*
X369607Y349673D01*
X369639Y349576D01*
X369674Y349481D01*
X369713Y349388D01*
X369755Y349296D01*
X369801Y349205D01*
X369850Y349117D01*
X369902Y349030D01*
X369958Y348945D01*
X370016Y348862D01*
X370078Y348782D01*
X370143Y348704D01*
X370210Y348628D01*
X370280Y348555D01*
X370353Y348485D01*
X370429Y348418D01*
X370507Y348353D01*
X370587Y348291D01*
X370670Y348233D01*
X370755Y348177D01*
X370842Y348125D01*
X370930Y348076D01*
X371021Y348030D01*
X371113Y347988D01*
X371206Y347949D01*
X371301Y347914D01*
X371398Y347882D01*
X371495Y347854D01*
X371593Y347830D01*
X371692Y347809D01*
X371792Y347792D01*
X371893Y347779D01*
X371994Y347770D01*
X372095Y347764D01*
X372196Y347762D01*
X373099Y347762D01*
X378843Y347762D02*
X378843Y358599D01*
X378391Y363115D02*
X378391Y364018D01*
X379294Y364018D01*
X379294Y363115D01*
X378391Y363115D01*
X387857Y347762D02*
X391469Y347762D01*
X387857Y347762D02*
X387756Y347764D01*
X387655Y347770D01*
X387554Y347779D01*
X387453Y347792D01*
X387353Y347809D01*
X387254Y347830D01*
X387156Y347854D01*
X387059Y347882D01*
X386962Y347914D01*
X386867Y347949D01*
X386774Y347988D01*
X386682Y348030D01*
X386591Y348076D01*
X386503Y348125D01*
X386416Y348177D01*
X386331Y348233D01*
X386248Y348291D01*
X386168Y348353D01*
X386090Y348418D01*
X386014Y348485D01*
X385941Y348555D01*
X385871Y348628D01*
X385804Y348704D01*
X385739Y348782D01*
X385677Y348862D01*
X385619Y348945D01*
X385563Y349030D01*
X385511Y349117D01*
X385462Y349205D01*
X385416Y349296D01*
X385374Y349388D01*
X385335Y349481D01*
X385300Y349576D01*
X385268Y349673D01*
X385240Y349770D01*
X385216Y349868D01*
X385195Y349967D01*
X385178Y350067D01*
X385165Y350168D01*
X385156Y350269D01*
X385150Y350370D01*
X385148Y350471D01*
X385148Y355890D01*
X385150Y355991D01*
X385156Y356092D01*
X385165Y356193D01*
X385178Y356294D01*
X385195Y356394D01*
X385216Y356493D01*
X385240Y356591D01*
X385268Y356688D01*
X385300Y356785D01*
X385335Y356880D01*
X385374Y356973D01*
X385416Y357065D01*
X385462Y357156D01*
X385511Y357245D01*
X385563Y357331D01*
X385619Y357416D01*
X385677Y357499D01*
X385739Y357579D01*
X385804Y357657D01*
X385871Y357733D01*
X385941Y357806D01*
X386014Y357876D01*
X386090Y357943D01*
X386168Y358008D01*
X386248Y358070D01*
X386331Y358128D01*
X386416Y358184D01*
X386503Y358236D01*
X386591Y358285D01*
X386682Y358331D01*
X386774Y358373D01*
X386867Y358412D01*
X386962Y358447D01*
X387059Y358479D01*
X387156Y358507D01*
X387254Y358531D01*
X387353Y358552D01*
X387453Y358569D01*
X387554Y358582D01*
X387655Y358591D01*
X387756Y358597D01*
X387857Y358599D01*
X391469Y358599D01*
X398469Y354084D02*
X402984Y352278D01*
X398468Y354084D02*
X398380Y354121D01*
X398294Y354162D01*
X398209Y354206D01*
X398126Y354254D01*
X398046Y354305D01*
X397967Y354359D01*
X397891Y354417D01*
X397817Y354477D01*
X397745Y354541D01*
X397677Y354607D01*
X397611Y354677D01*
X397548Y354748D01*
X397487Y354823D01*
X397430Y354899D01*
X397377Y354978D01*
X397326Y355059D01*
X397279Y355142D01*
X397235Y355227D01*
X397195Y355314D01*
X397158Y355402D01*
X397125Y355492D01*
X397095Y355583D01*
X397070Y355675D01*
X397048Y355768D01*
X397030Y355862D01*
X397015Y355956D01*
X397005Y356051D01*
X396999Y356147D01*
X396996Y356242D01*
X396997Y356338D01*
X397003Y356433D01*
X397012Y356529D01*
X397025Y356623D01*
X397041Y356717D01*
X397062Y356811D01*
X397087Y356903D01*
X397115Y356994D01*
X397147Y357084D01*
X397182Y357173D01*
X397221Y357260D01*
X397264Y357346D01*
X397310Y357430D01*
X397360Y357511D01*
X397412Y357591D01*
X397468Y357669D01*
X397528Y357744D01*
X397590Y357816D01*
X397655Y357886D01*
X397723Y357954D01*
X397793Y358018D01*
X397866Y358080D01*
X397942Y358138D01*
X398020Y358194D01*
X398100Y358246D01*
X398182Y358295D01*
X398266Y358340D01*
X398352Y358382D01*
X398439Y358421D01*
X398528Y358456D01*
X398619Y358487D01*
X398710Y358514D01*
X398803Y358538D01*
X398896Y358558D01*
X398990Y358574D01*
X399085Y358586D01*
X399180Y358595D01*
X399276Y358599D01*
X399371Y358600D01*
X399618Y358593D01*
X399864Y358581D01*
X400110Y358563D01*
X400356Y358538D01*
X400600Y358508D01*
X400844Y358472D01*
X401087Y358431D01*
X401329Y358383D01*
X401570Y358329D01*
X401809Y358270D01*
X402047Y358205D01*
X402283Y358134D01*
X402518Y358058D01*
X402751Y357976D01*
X402981Y357888D01*
X403209Y357795D01*
X403436Y357697D01*
X402985Y352277D02*
X403073Y352240D01*
X403159Y352199D01*
X403244Y352155D01*
X403327Y352107D01*
X403407Y352056D01*
X403486Y352002D01*
X403562Y351944D01*
X403636Y351884D01*
X403708Y351820D01*
X403776Y351754D01*
X403842Y351684D01*
X403905Y351613D01*
X403966Y351538D01*
X404023Y351462D01*
X404076Y351383D01*
X404127Y351302D01*
X404174Y351219D01*
X404218Y351134D01*
X404258Y351047D01*
X404295Y350959D01*
X404328Y350869D01*
X404358Y350778D01*
X404383Y350686D01*
X404405Y350593D01*
X404423Y350499D01*
X404438Y350405D01*
X404448Y350310D01*
X404454Y350214D01*
X404457Y350119D01*
X404456Y350023D01*
X404450Y349928D01*
X404441Y349832D01*
X404428Y349738D01*
X404412Y349644D01*
X404391Y349550D01*
X404366Y349458D01*
X404338Y349367D01*
X404306Y349277D01*
X404271Y349188D01*
X404232Y349101D01*
X404189Y349015D01*
X404143Y348931D01*
X404093Y348850D01*
X404041Y348770D01*
X403985Y348692D01*
X403925Y348617D01*
X403863Y348545D01*
X403798Y348475D01*
X403730Y348407D01*
X403660Y348343D01*
X403587Y348281D01*
X403511Y348223D01*
X403433Y348167D01*
X403353Y348115D01*
X403271Y348066D01*
X403187Y348021D01*
X403101Y347979D01*
X403014Y347940D01*
X402925Y347905D01*
X402834Y347874D01*
X402743Y347847D01*
X402650Y347823D01*
X402557Y347803D01*
X402463Y347787D01*
X402368Y347775D01*
X402273Y347766D01*
X402177Y347762D01*
X402082Y347761D01*
X402081Y347762D02*
X401719Y347771D01*
X401357Y347789D01*
X400996Y347816D01*
X400636Y347851D01*
X400276Y347894D01*
X399917Y347946D01*
X399560Y348007D01*
X399205Y348076D01*
X398851Y348153D01*
X398499Y348239D01*
X398149Y348333D01*
X397801Y348436D01*
X397456Y348546D01*
X397114Y348665D01*
D11*
X337931Y129275D02*
X337931Y127694D01*
X337932Y129275D02*
X337934Y129354D01*
X337940Y129432D01*
X337950Y129510D01*
X337963Y129588D01*
X337981Y129665D01*
X338002Y129741D01*
X338027Y129815D01*
X338056Y129889D01*
X338088Y129961D01*
X338124Y130031D01*
X338164Y130099D01*
X338207Y130165D01*
X338253Y130229D01*
X338302Y130291D01*
X338354Y130350D01*
X338409Y130406D01*
X338467Y130460D01*
X338527Y130510D01*
X338590Y130558D01*
X338655Y130602D01*
X338722Y130643D01*
X338791Y130681D01*
X338862Y130715D01*
X338935Y130746D01*
X339009Y130773D01*
X339084Y130796D01*
X339160Y130815D01*
X339238Y130831D01*
X339316Y130843D01*
X339394Y130851D01*
X339473Y130855D01*
X339551Y130855D01*
X339630Y130851D01*
X339708Y130843D01*
X339786Y130831D01*
X339864Y130815D01*
X339940Y130796D01*
X340015Y130773D01*
X340089Y130746D01*
X340162Y130715D01*
X340233Y130681D01*
X340302Y130643D01*
X340369Y130602D01*
X340434Y130558D01*
X340497Y130510D01*
X340557Y130460D01*
X340615Y130406D01*
X340670Y130350D01*
X340722Y130291D01*
X340771Y130229D01*
X340817Y130165D01*
X340860Y130099D01*
X340900Y130031D01*
X340936Y129961D01*
X340968Y129889D01*
X340997Y129815D01*
X341022Y129741D01*
X341043Y129665D01*
X341061Y129588D01*
X341074Y129510D01*
X341084Y129432D01*
X341090Y129354D01*
X341092Y129275D01*
X341092Y127694D01*
X341090Y127615D01*
X341084Y127537D01*
X341074Y127459D01*
X341061Y127381D01*
X341043Y127304D01*
X341022Y127228D01*
X340997Y127154D01*
X340968Y127080D01*
X340936Y127008D01*
X340900Y126938D01*
X340860Y126870D01*
X340817Y126804D01*
X340771Y126740D01*
X340722Y126678D01*
X340670Y126619D01*
X340615Y126563D01*
X340557Y126509D01*
X340497Y126459D01*
X340434Y126411D01*
X340369Y126367D01*
X340302Y126326D01*
X340233Y126288D01*
X340162Y126254D01*
X340089Y126223D01*
X340015Y126196D01*
X339940Y126173D01*
X339864Y126154D01*
X339786Y126138D01*
X339708Y126126D01*
X339630Y126118D01*
X339551Y126114D01*
X339473Y126114D01*
X339394Y126118D01*
X339316Y126126D01*
X339238Y126138D01*
X339160Y126154D01*
X339084Y126173D01*
X339009Y126196D01*
X338935Y126223D01*
X338862Y126254D01*
X338791Y126288D01*
X338722Y126326D01*
X338655Y126367D01*
X338590Y126411D01*
X338527Y126459D01*
X338467Y126509D01*
X338409Y126563D01*
X338354Y126619D01*
X338302Y126678D01*
X338253Y126740D01*
X338207Y126804D01*
X338164Y126870D01*
X338124Y126938D01*
X338088Y127008D01*
X338056Y127080D01*
X338027Y127154D01*
X338002Y127228D01*
X337981Y127304D01*
X337963Y127381D01*
X337950Y127459D01*
X337940Y127537D01*
X337934Y127615D01*
X337932Y127694D01*
X344136Y130855D02*
X344136Y123743D01*
X344136Y130855D02*
X346111Y130855D01*
X346177Y130853D01*
X346244Y130848D01*
X346309Y130838D01*
X346375Y130825D01*
X346439Y130809D01*
X346502Y130789D01*
X346564Y130765D01*
X346625Y130738D01*
X346684Y130707D01*
X346741Y130673D01*
X346797Y130636D01*
X346850Y130596D01*
X346901Y130554D01*
X346949Y130508D01*
X346995Y130460D01*
X347037Y130409D01*
X347077Y130356D01*
X347114Y130300D01*
X347148Y130243D01*
X347179Y130184D01*
X347206Y130124D01*
X347229Y130061D01*
X347250Y129998D01*
X347266Y129934D01*
X347279Y129869D01*
X347289Y129803D01*
X347294Y129736D01*
X347296Y129670D01*
X347297Y129670D02*
X347297Y127299D01*
X347296Y127299D02*
X347294Y127233D01*
X347289Y127166D01*
X347279Y127101D01*
X347266Y127035D01*
X347250Y126971D01*
X347230Y126908D01*
X347206Y126846D01*
X347179Y126785D01*
X347148Y126726D01*
X347114Y126669D01*
X347077Y126613D01*
X347037Y126560D01*
X346995Y126509D01*
X346949Y126461D01*
X346901Y126415D01*
X346850Y126373D01*
X346797Y126333D01*
X346741Y126296D01*
X346684Y126262D01*
X346625Y126231D01*
X346564Y126204D01*
X346502Y126180D01*
X346439Y126160D01*
X346375Y126144D01*
X346309Y126131D01*
X346244Y126121D01*
X346177Y126116D01*
X346111Y126114D01*
X344136Y126114D01*
X351232Y126114D02*
X353208Y126114D01*
X351232Y126114D02*
X351166Y126116D01*
X351099Y126121D01*
X351034Y126131D01*
X350968Y126144D01*
X350904Y126160D01*
X350841Y126180D01*
X350779Y126204D01*
X350718Y126231D01*
X350659Y126262D01*
X350602Y126296D01*
X350546Y126333D01*
X350493Y126373D01*
X350442Y126415D01*
X350394Y126461D01*
X350348Y126509D01*
X350306Y126560D01*
X350266Y126613D01*
X350229Y126669D01*
X350195Y126726D01*
X350164Y126785D01*
X350137Y126846D01*
X350113Y126908D01*
X350093Y126971D01*
X350077Y127035D01*
X350064Y127101D01*
X350054Y127166D01*
X350049Y127233D01*
X350047Y127299D01*
X350047Y129275D01*
X350048Y129275D02*
X350050Y129354D01*
X350056Y129432D01*
X350066Y129510D01*
X350079Y129588D01*
X350097Y129665D01*
X350118Y129741D01*
X350143Y129815D01*
X350172Y129889D01*
X350204Y129961D01*
X350240Y130031D01*
X350280Y130099D01*
X350323Y130165D01*
X350369Y130229D01*
X350418Y130291D01*
X350470Y130350D01*
X350525Y130406D01*
X350583Y130460D01*
X350643Y130510D01*
X350706Y130558D01*
X350771Y130602D01*
X350838Y130643D01*
X350907Y130681D01*
X350978Y130715D01*
X351051Y130746D01*
X351125Y130773D01*
X351200Y130796D01*
X351276Y130815D01*
X351354Y130831D01*
X351432Y130843D01*
X351510Y130851D01*
X351589Y130855D01*
X351667Y130855D01*
X351746Y130851D01*
X351824Y130843D01*
X351902Y130831D01*
X351980Y130815D01*
X352056Y130796D01*
X352131Y130773D01*
X352205Y130746D01*
X352278Y130715D01*
X352349Y130681D01*
X352418Y130643D01*
X352485Y130602D01*
X352550Y130558D01*
X352613Y130510D01*
X352673Y130460D01*
X352731Y130406D01*
X352786Y130350D01*
X352838Y130291D01*
X352887Y130229D01*
X352933Y130165D01*
X352976Y130099D01*
X353016Y130031D01*
X353052Y129961D01*
X353084Y129889D01*
X353113Y129815D01*
X353138Y129741D01*
X353159Y129665D01*
X353177Y129588D01*
X353190Y129510D01*
X353200Y129432D01*
X353206Y129354D01*
X353208Y129275D01*
X353208Y128485D01*
X350047Y128485D01*
X356219Y126114D02*
X356219Y130855D01*
X358195Y130855D01*
X358261Y130853D01*
X358328Y130848D01*
X358393Y130838D01*
X358459Y130825D01*
X358523Y130809D01*
X358586Y130789D01*
X358648Y130765D01*
X358709Y130738D01*
X358768Y130707D01*
X358825Y130673D01*
X358881Y130636D01*
X358934Y130596D01*
X358985Y130554D01*
X359033Y130508D01*
X359079Y130460D01*
X359121Y130409D01*
X359161Y130356D01*
X359198Y130300D01*
X359232Y130243D01*
X359263Y130184D01*
X359290Y130124D01*
X359313Y130061D01*
X359334Y129998D01*
X359350Y129934D01*
X359363Y129869D01*
X359373Y129803D01*
X359378Y129736D01*
X359380Y129670D01*
X359380Y126114D01*
X366642Y128880D02*
X368617Y128090D01*
X366642Y128880D02*
X366584Y128905D01*
X366528Y128934D01*
X366473Y128966D01*
X366421Y129002D01*
X366371Y129041D01*
X366324Y129082D01*
X366279Y129127D01*
X366237Y129174D01*
X366198Y129223D01*
X366162Y129275D01*
X366129Y129329D01*
X366100Y129385D01*
X366074Y129443D01*
X366052Y129502D01*
X366034Y129563D01*
X366019Y129624D01*
X366008Y129686D01*
X366001Y129749D01*
X365998Y129812D01*
X365999Y129875D01*
X366004Y129938D01*
X366012Y130001D01*
X366025Y130063D01*
X366041Y130124D01*
X366061Y130184D01*
X366084Y130242D01*
X366111Y130299D01*
X366142Y130354D01*
X366176Y130408D01*
X366213Y130459D01*
X366253Y130507D01*
X366296Y130554D01*
X366342Y130597D01*
X366391Y130637D01*
X366442Y130675D01*
X366495Y130709D01*
X366550Y130740D01*
X366607Y130767D01*
X366665Y130791D01*
X366725Y130811D01*
X366786Y130827D01*
X366848Y130840D01*
X366911Y130849D01*
X366973Y130854D01*
X367037Y130855D01*
X367037Y130856D02*
X367168Y130852D01*
X367299Y130844D01*
X367429Y130833D01*
X367559Y130818D01*
X367689Y130798D01*
X367818Y130776D01*
X367946Y130749D01*
X368074Y130719D01*
X368200Y130685D01*
X368326Y130647D01*
X368450Y130606D01*
X368573Y130561D01*
X368695Y130512D01*
X368815Y130460D01*
X368617Y128089D02*
X368675Y128064D01*
X368731Y128035D01*
X368786Y128003D01*
X368838Y127967D01*
X368888Y127928D01*
X368935Y127887D01*
X368980Y127842D01*
X369022Y127795D01*
X369061Y127746D01*
X369097Y127694D01*
X369130Y127640D01*
X369159Y127584D01*
X369185Y127526D01*
X369207Y127467D01*
X369225Y127406D01*
X369240Y127345D01*
X369251Y127283D01*
X369258Y127220D01*
X369261Y127157D01*
X369260Y127094D01*
X369255Y127031D01*
X369247Y126968D01*
X369234Y126906D01*
X369218Y126845D01*
X369198Y126785D01*
X369175Y126727D01*
X369148Y126670D01*
X369117Y126615D01*
X369083Y126561D01*
X369046Y126510D01*
X369006Y126462D01*
X368963Y126415D01*
X368917Y126372D01*
X368868Y126332D01*
X368817Y126294D01*
X368764Y126260D01*
X368709Y126229D01*
X368652Y126202D01*
X368594Y126178D01*
X368534Y126158D01*
X368473Y126142D01*
X368411Y126129D01*
X368348Y126120D01*
X368286Y126115D01*
X368222Y126114D01*
X368064Y126118D01*
X367906Y126126D01*
X367748Y126137D01*
X367590Y126153D01*
X367432Y126172D01*
X367276Y126195D01*
X367119Y126221D01*
X366964Y126251D01*
X366809Y126285D01*
X366655Y126323D01*
X366502Y126364D01*
X366350Y126409D01*
X366199Y126457D01*
X366049Y126509D01*
X371993Y127694D02*
X371993Y129275D01*
X371995Y129354D01*
X372001Y129432D01*
X372011Y129510D01*
X372024Y129588D01*
X372042Y129665D01*
X372063Y129741D01*
X372088Y129815D01*
X372117Y129889D01*
X372149Y129961D01*
X372185Y130031D01*
X372225Y130099D01*
X372268Y130165D01*
X372314Y130229D01*
X372363Y130291D01*
X372415Y130350D01*
X372470Y130406D01*
X372528Y130460D01*
X372588Y130510D01*
X372651Y130558D01*
X372716Y130602D01*
X372783Y130643D01*
X372852Y130681D01*
X372923Y130715D01*
X372996Y130746D01*
X373070Y130773D01*
X373145Y130796D01*
X373221Y130815D01*
X373299Y130831D01*
X373377Y130843D01*
X373455Y130851D01*
X373534Y130855D01*
X373612Y130855D01*
X373691Y130851D01*
X373769Y130843D01*
X373847Y130831D01*
X373925Y130815D01*
X374001Y130796D01*
X374076Y130773D01*
X374150Y130746D01*
X374223Y130715D01*
X374294Y130681D01*
X374363Y130643D01*
X374430Y130602D01*
X374495Y130558D01*
X374558Y130510D01*
X374618Y130460D01*
X374676Y130406D01*
X374731Y130350D01*
X374783Y130291D01*
X374832Y130229D01*
X374878Y130165D01*
X374921Y130099D01*
X374961Y130031D01*
X374997Y129961D01*
X375029Y129889D01*
X375058Y129815D01*
X375083Y129741D01*
X375104Y129665D01*
X375122Y129588D01*
X375135Y129510D01*
X375145Y129432D01*
X375151Y129354D01*
X375153Y129275D01*
X375153Y127694D01*
X375151Y127615D01*
X375145Y127537D01*
X375135Y127459D01*
X375122Y127381D01*
X375104Y127304D01*
X375083Y127228D01*
X375058Y127154D01*
X375029Y127080D01*
X374997Y127008D01*
X374961Y126938D01*
X374921Y126870D01*
X374878Y126804D01*
X374832Y126740D01*
X374783Y126678D01*
X374731Y126619D01*
X374676Y126563D01*
X374618Y126509D01*
X374558Y126459D01*
X374495Y126411D01*
X374430Y126367D01*
X374363Y126326D01*
X374294Y126288D01*
X374223Y126254D01*
X374150Y126223D01*
X374076Y126196D01*
X374001Y126173D01*
X373925Y126154D01*
X373847Y126138D01*
X373769Y126126D01*
X373691Y126118D01*
X373612Y126114D01*
X373534Y126114D01*
X373455Y126118D01*
X373377Y126126D01*
X373299Y126138D01*
X373221Y126154D01*
X373145Y126173D01*
X373070Y126196D01*
X372996Y126223D01*
X372923Y126254D01*
X372852Y126288D01*
X372783Y126326D01*
X372716Y126367D01*
X372651Y126411D01*
X372588Y126459D01*
X372528Y126509D01*
X372470Y126563D01*
X372415Y126619D01*
X372363Y126678D01*
X372314Y126740D01*
X372268Y126804D01*
X372225Y126870D01*
X372185Y126938D01*
X372149Y127008D01*
X372117Y127080D01*
X372088Y127154D01*
X372063Y127228D01*
X372042Y127304D01*
X372024Y127381D01*
X372011Y127459D01*
X372001Y127537D01*
X371995Y127615D01*
X371993Y127694D01*
X378165Y127299D02*
X378165Y130855D01*
X378165Y127299D02*
X378167Y127233D01*
X378172Y127166D01*
X378182Y127101D01*
X378195Y127035D01*
X378211Y126971D01*
X378231Y126908D01*
X378255Y126846D01*
X378282Y126785D01*
X378313Y126726D01*
X378347Y126669D01*
X378384Y126613D01*
X378424Y126560D01*
X378466Y126509D01*
X378512Y126461D01*
X378560Y126415D01*
X378611Y126373D01*
X378664Y126333D01*
X378720Y126296D01*
X378777Y126262D01*
X378836Y126231D01*
X378897Y126204D01*
X378959Y126180D01*
X379022Y126160D01*
X379086Y126144D01*
X379152Y126131D01*
X379217Y126121D01*
X379284Y126116D01*
X379350Y126114D01*
X381326Y126114D01*
X381326Y130855D01*
X384602Y130855D02*
X384602Y126114D01*
X384602Y130855D02*
X386973Y130855D01*
X386973Y130065D01*
X390330Y126114D02*
X391910Y126114D01*
X390330Y126114D02*
X390264Y126116D01*
X390197Y126121D01*
X390132Y126131D01*
X390066Y126144D01*
X390002Y126160D01*
X389939Y126180D01*
X389877Y126204D01*
X389816Y126231D01*
X389757Y126262D01*
X389700Y126296D01*
X389644Y126333D01*
X389591Y126373D01*
X389540Y126415D01*
X389492Y126461D01*
X389446Y126509D01*
X389404Y126560D01*
X389364Y126613D01*
X389327Y126669D01*
X389293Y126726D01*
X389262Y126785D01*
X389235Y126846D01*
X389211Y126908D01*
X389191Y126971D01*
X389175Y127035D01*
X389162Y127101D01*
X389152Y127166D01*
X389147Y127233D01*
X389145Y127299D01*
X389145Y129670D01*
X389147Y129736D01*
X389152Y129803D01*
X389162Y129868D01*
X389175Y129934D01*
X389191Y129998D01*
X389211Y130061D01*
X389235Y130123D01*
X389262Y130184D01*
X389293Y130243D01*
X389327Y130300D01*
X389364Y130356D01*
X389404Y130409D01*
X389446Y130460D01*
X389492Y130508D01*
X389540Y130554D01*
X389591Y130596D01*
X389644Y130636D01*
X389700Y130673D01*
X389757Y130707D01*
X389816Y130738D01*
X389877Y130765D01*
X389939Y130789D01*
X390002Y130809D01*
X390066Y130825D01*
X390132Y130838D01*
X390197Y130848D01*
X390264Y130853D01*
X390330Y130855D01*
X391910Y130855D01*
X395580Y126114D02*
X397556Y126114D01*
X395580Y126114D02*
X395514Y126116D01*
X395447Y126121D01*
X395382Y126131D01*
X395316Y126144D01*
X395252Y126160D01*
X395189Y126180D01*
X395127Y126204D01*
X395066Y126231D01*
X395007Y126262D01*
X394950Y126296D01*
X394894Y126333D01*
X394841Y126373D01*
X394790Y126415D01*
X394742Y126461D01*
X394696Y126509D01*
X394654Y126560D01*
X394614Y126613D01*
X394577Y126669D01*
X394543Y126726D01*
X394512Y126785D01*
X394485Y126846D01*
X394461Y126908D01*
X394441Y126971D01*
X394425Y127035D01*
X394412Y127101D01*
X394402Y127166D01*
X394397Y127233D01*
X394395Y127299D01*
X394395Y129275D01*
X394396Y129275D02*
X394398Y129354D01*
X394404Y129432D01*
X394414Y129510D01*
X394427Y129588D01*
X394445Y129665D01*
X394466Y129741D01*
X394491Y129815D01*
X394520Y129889D01*
X394552Y129961D01*
X394588Y130031D01*
X394628Y130099D01*
X394671Y130165D01*
X394717Y130229D01*
X394766Y130291D01*
X394818Y130350D01*
X394873Y130406D01*
X394931Y130460D01*
X394991Y130510D01*
X395054Y130558D01*
X395119Y130602D01*
X395186Y130643D01*
X395255Y130681D01*
X395326Y130715D01*
X395399Y130746D01*
X395473Y130773D01*
X395548Y130796D01*
X395624Y130815D01*
X395702Y130831D01*
X395780Y130843D01*
X395858Y130851D01*
X395937Y130855D01*
X396015Y130855D01*
X396094Y130851D01*
X396172Y130843D01*
X396250Y130831D01*
X396328Y130815D01*
X396404Y130796D01*
X396479Y130773D01*
X396553Y130746D01*
X396626Y130715D01*
X396697Y130681D01*
X396766Y130643D01*
X396833Y130602D01*
X396898Y130558D01*
X396961Y130510D01*
X397021Y130460D01*
X397079Y130406D01*
X397134Y130350D01*
X397186Y130291D01*
X397235Y130229D01*
X397281Y130165D01*
X397324Y130099D01*
X397364Y130031D01*
X397400Y129961D01*
X397432Y129889D01*
X397461Y129815D01*
X397486Y129741D01*
X397507Y129665D01*
X397525Y129588D01*
X397538Y129510D01*
X397548Y129432D01*
X397554Y129354D01*
X397556Y129275D01*
X397556Y128485D01*
X394395Y128485D01*
X346618Y121796D02*
X346618Y114684D01*
X346618Y119425D02*
X348594Y119425D01*
X348660Y119423D01*
X348727Y119418D01*
X348792Y119408D01*
X348858Y119395D01*
X348922Y119379D01*
X348985Y119359D01*
X349047Y119335D01*
X349108Y119308D01*
X349167Y119277D01*
X349224Y119243D01*
X349280Y119206D01*
X349333Y119166D01*
X349384Y119124D01*
X349432Y119078D01*
X349478Y119030D01*
X349520Y118979D01*
X349560Y118926D01*
X349597Y118870D01*
X349631Y118813D01*
X349662Y118754D01*
X349689Y118694D01*
X349712Y118631D01*
X349733Y118568D01*
X349749Y118504D01*
X349762Y118439D01*
X349772Y118373D01*
X349777Y118306D01*
X349779Y118240D01*
X349779Y114684D01*
X354141Y117450D02*
X355919Y117450D01*
X354141Y117450D02*
X354067Y117448D01*
X353994Y117442D01*
X353921Y117432D01*
X353849Y117419D01*
X353777Y117401D01*
X353707Y117380D01*
X353637Y117355D01*
X353570Y117326D01*
X353503Y117294D01*
X353439Y117259D01*
X353376Y117219D01*
X353316Y117177D01*
X353258Y117132D01*
X353203Y117083D01*
X353150Y117032D01*
X353100Y116978D01*
X353053Y116921D01*
X353009Y116862D01*
X352969Y116801D01*
X352931Y116737D01*
X352897Y116672D01*
X352867Y116605D01*
X352840Y116536D01*
X352817Y116466D01*
X352798Y116395D01*
X352782Y116323D01*
X352770Y116251D01*
X352762Y116177D01*
X352758Y116104D01*
X352758Y116030D01*
X352762Y115957D01*
X352770Y115883D01*
X352782Y115811D01*
X352798Y115739D01*
X352817Y115668D01*
X352840Y115598D01*
X352867Y115529D01*
X352897Y115462D01*
X352931Y115397D01*
X352969Y115333D01*
X353009Y115272D01*
X353053Y115213D01*
X353100Y115156D01*
X353150Y115102D01*
X353203Y115051D01*
X353258Y115002D01*
X353316Y114957D01*
X353376Y114915D01*
X353439Y114875D01*
X353503Y114840D01*
X353570Y114808D01*
X353637Y114779D01*
X353707Y114754D01*
X353777Y114733D01*
X353849Y114715D01*
X353921Y114702D01*
X353994Y114692D01*
X354067Y114686D01*
X354141Y114684D01*
X355919Y114684D01*
X355919Y118240D01*
X355918Y118240D02*
X355916Y118306D01*
X355911Y118373D01*
X355901Y118438D01*
X355888Y118504D01*
X355872Y118568D01*
X355852Y118631D01*
X355828Y118693D01*
X355801Y118754D01*
X355770Y118813D01*
X355736Y118870D01*
X355699Y118926D01*
X355659Y118979D01*
X355617Y119030D01*
X355571Y119078D01*
X355523Y119124D01*
X355472Y119166D01*
X355419Y119206D01*
X355363Y119243D01*
X355306Y119277D01*
X355247Y119308D01*
X355186Y119335D01*
X355124Y119359D01*
X355061Y119379D01*
X354997Y119395D01*
X354931Y119408D01*
X354866Y119418D01*
X354799Y119423D01*
X354733Y119425D01*
X353153Y119425D01*
X359228Y119425D02*
X359228Y114684D01*
X359228Y119425D02*
X361598Y119425D01*
X361598Y118635D01*
X366891Y121796D02*
X366891Y114684D01*
X364916Y114684D01*
X364850Y114686D01*
X364783Y114691D01*
X364718Y114701D01*
X364652Y114714D01*
X364588Y114730D01*
X364525Y114750D01*
X364463Y114774D01*
X364402Y114801D01*
X364343Y114832D01*
X364286Y114866D01*
X364230Y114903D01*
X364177Y114943D01*
X364126Y114985D01*
X364078Y115031D01*
X364032Y115079D01*
X363990Y115130D01*
X363950Y115183D01*
X363913Y115239D01*
X363879Y115296D01*
X363848Y115355D01*
X363821Y115416D01*
X363797Y115478D01*
X363777Y115541D01*
X363761Y115605D01*
X363748Y115671D01*
X363738Y115736D01*
X363733Y115803D01*
X363731Y115869D01*
X363731Y118240D01*
X363733Y118306D01*
X363738Y118373D01*
X363748Y118438D01*
X363761Y118504D01*
X363777Y118568D01*
X363797Y118631D01*
X363821Y118693D01*
X363848Y118754D01*
X363879Y118813D01*
X363913Y118870D01*
X363950Y118926D01*
X363990Y118979D01*
X364032Y119030D01*
X364078Y119078D01*
X364126Y119124D01*
X364177Y119166D01*
X364230Y119206D01*
X364286Y119243D01*
X364343Y119277D01*
X364402Y119308D01*
X364463Y119335D01*
X364525Y119359D01*
X364588Y119379D01*
X364652Y119395D01*
X364718Y119408D01*
X364783Y119418D01*
X364850Y119423D01*
X364916Y119425D01*
X366891Y119425D01*
X369831Y119425D02*
X371016Y114684D01*
X372201Y117845D01*
X373387Y114684D01*
X374572Y119425D01*
X378601Y117450D02*
X380379Y117450D01*
X378601Y117450D02*
X378527Y117448D01*
X378454Y117442D01*
X378381Y117432D01*
X378309Y117419D01*
X378237Y117401D01*
X378167Y117380D01*
X378097Y117355D01*
X378030Y117326D01*
X377963Y117294D01*
X377899Y117259D01*
X377836Y117219D01*
X377776Y117177D01*
X377718Y117132D01*
X377663Y117083D01*
X377610Y117032D01*
X377560Y116978D01*
X377513Y116921D01*
X377469Y116862D01*
X377429Y116801D01*
X377391Y116737D01*
X377357Y116672D01*
X377327Y116605D01*
X377300Y116536D01*
X377277Y116466D01*
X377258Y116395D01*
X377242Y116323D01*
X377230Y116251D01*
X377222Y116177D01*
X377218Y116104D01*
X377218Y116030D01*
X377222Y115957D01*
X377230Y115883D01*
X377242Y115811D01*
X377258Y115739D01*
X377277Y115668D01*
X377300Y115598D01*
X377327Y115529D01*
X377357Y115462D01*
X377391Y115397D01*
X377429Y115333D01*
X377469Y115272D01*
X377513Y115213D01*
X377560Y115156D01*
X377610Y115102D01*
X377663Y115051D01*
X377718Y115002D01*
X377776Y114957D01*
X377836Y114915D01*
X377899Y114875D01*
X377963Y114840D01*
X378030Y114808D01*
X378097Y114779D01*
X378167Y114754D01*
X378237Y114733D01*
X378309Y114715D01*
X378381Y114702D01*
X378454Y114692D01*
X378527Y114686D01*
X378601Y114684D01*
X380379Y114684D01*
X380379Y118240D01*
X380378Y118240D02*
X380376Y118306D01*
X380371Y118373D01*
X380361Y118438D01*
X380348Y118504D01*
X380332Y118568D01*
X380312Y118631D01*
X380288Y118693D01*
X380261Y118754D01*
X380230Y118813D01*
X380196Y118870D01*
X380159Y118926D01*
X380119Y118979D01*
X380077Y119030D01*
X380031Y119078D01*
X379983Y119124D01*
X379932Y119166D01*
X379879Y119206D01*
X379823Y119243D01*
X379766Y119277D01*
X379707Y119308D01*
X379646Y119335D01*
X379584Y119359D01*
X379521Y119379D01*
X379457Y119395D01*
X379391Y119408D01*
X379326Y119418D01*
X379259Y119423D01*
X379193Y119425D01*
X377613Y119425D01*
X383688Y119425D02*
X383688Y114684D01*
X383688Y119425D02*
X386058Y119425D01*
X386058Y118635D01*
X389408Y114684D02*
X391384Y114684D01*
X389408Y114684D02*
X389342Y114686D01*
X389275Y114691D01*
X389210Y114701D01*
X389144Y114714D01*
X389080Y114730D01*
X389017Y114750D01*
X388955Y114774D01*
X388894Y114801D01*
X388835Y114832D01*
X388778Y114866D01*
X388722Y114903D01*
X388669Y114943D01*
X388618Y114985D01*
X388570Y115031D01*
X388524Y115079D01*
X388482Y115130D01*
X388442Y115183D01*
X388405Y115239D01*
X388371Y115296D01*
X388340Y115355D01*
X388313Y115416D01*
X388289Y115478D01*
X388269Y115541D01*
X388253Y115605D01*
X388240Y115671D01*
X388230Y115736D01*
X388225Y115803D01*
X388223Y115869D01*
X388223Y117845D01*
X388225Y117924D01*
X388231Y118002D01*
X388241Y118080D01*
X388254Y118158D01*
X388272Y118235D01*
X388293Y118311D01*
X388318Y118385D01*
X388347Y118459D01*
X388379Y118531D01*
X388415Y118601D01*
X388455Y118669D01*
X388498Y118735D01*
X388544Y118799D01*
X388593Y118861D01*
X388645Y118920D01*
X388700Y118976D01*
X388758Y119030D01*
X388818Y119080D01*
X388881Y119128D01*
X388946Y119172D01*
X389013Y119213D01*
X389082Y119251D01*
X389153Y119285D01*
X389226Y119316D01*
X389300Y119343D01*
X389375Y119366D01*
X389451Y119385D01*
X389529Y119401D01*
X389607Y119413D01*
X389685Y119421D01*
X389764Y119425D01*
X389842Y119425D01*
X389921Y119421D01*
X389999Y119413D01*
X390077Y119401D01*
X390155Y119385D01*
X390231Y119366D01*
X390306Y119343D01*
X390380Y119316D01*
X390453Y119285D01*
X390524Y119251D01*
X390593Y119213D01*
X390660Y119172D01*
X390725Y119128D01*
X390788Y119080D01*
X390848Y119030D01*
X390906Y118976D01*
X390961Y118920D01*
X391013Y118861D01*
X391062Y118799D01*
X391108Y118735D01*
X391151Y118669D01*
X391191Y118601D01*
X391227Y118531D01*
X391259Y118459D01*
X391288Y118385D01*
X391313Y118311D01*
X391334Y118235D01*
X391352Y118158D01*
X391365Y118080D01*
X391375Y118002D01*
X391381Y117924D01*
X391383Y117845D01*
X391384Y117845D02*
X391384Y117055D01*
X388223Y117055D01*
D12*
X281684Y290286D02*
X281686Y290349D01*
X281692Y290411D01*
X281702Y290473D01*
X281715Y290535D01*
X281733Y290595D01*
X281754Y290654D01*
X281779Y290712D01*
X281808Y290768D01*
X281840Y290822D01*
X281875Y290874D01*
X281913Y290923D01*
X281955Y290971D01*
X281999Y291015D01*
X282047Y291057D01*
X282096Y291095D01*
X282148Y291130D01*
X282202Y291162D01*
X282258Y291191D01*
X282316Y291216D01*
X282375Y291237D01*
X282435Y291255D01*
X282497Y291268D01*
X282559Y291278D01*
X282621Y291284D01*
X282684Y291286D01*
X282747Y291284D01*
X282809Y291278D01*
X282871Y291268D01*
X282933Y291255D01*
X282993Y291237D01*
X283052Y291216D01*
X283110Y291191D01*
X283166Y291162D01*
X283220Y291130D01*
X283272Y291095D01*
X283321Y291057D01*
X283369Y291015D01*
X283413Y290971D01*
X283455Y290923D01*
X283493Y290874D01*
X283528Y290822D01*
X283560Y290768D01*
X283589Y290712D01*
X283614Y290654D01*
X283635Y290595D01*
X283653Y290535D01*
X283666Y290473D01*
X283676Y290411D01*
X283682Y290349D01*
X283684Y290286D01*
X283682Y290223D01*
X283676Y290161D01*
X283666Y290099D01*
X283653Y290037D01*
X283635Y289977D01*
X283614Y289918D01*
X283589Y289860D01*
X283560Y289804D01*
X283528Y289750D01*
X283493Y289698D01*
X283455Y289649D01*
X283413Y289601D01*
X283369Y289557D01*
X283321Y289515D01*
X283272Y289477D01*
X283220Y289442D01*
X283166Y289410D01*
X283110Y289381D01*
X283052Y289356D01*
X282993Y289335D01*
X282933Y289317D01*
X282871Y289304D01*
X282809Y289294D01*
X282747Y289288D01*
X282684Y289286D01*
X282621Y289288D01*
X282559Y289294D01*
X282497Y289304D01*
X282435Y289317D01*
X282375Y289335D01*
X282316Y289356D01*
X282258Y289381D01*
X282202Y289410D01*
X282148Y289442D01*
X282096Y289477D01*
X282047Y289515D01*
X281999Y289557D01*
X281955Y289601D01*
X281913Y289649D01*
X281875Y289698D01*
X281840Y289750D01*
X281808Y289804D01*
X281779Y289860D01*
X281754Y289918D01*
X281733Y289977D01*
X281715Y290037D01*
X281702Y290099D01*
X281692Y290161D01*
X281686Y290223D01*
X281684Y290286D01*
D13*
X171491Y268896D02*
X170395Y267800D01*
X220600Y217595D02*
X221696Y218691D01*
X219504Y316909D02*
X220600Y318005D01*
X270805Y267800D02*
X269709Y266704D01*
X171491Y266704D02*
X170395Y267800D01*
X219504Y218691D02*
X220600Y217595D01*
X221696Y316909D02*
X220600Y318005D01*
X269709Y268896D02*
X270805Y267800D01*
D10*
X193668Y167402D02*
X196208Y164862D01*
X146932Y167402D02*
X144392Y164862D01*
X144392Y137938D01*
X146932Y135398D01*
X193668Y135398D02*
X196208Y137938D01*
X196208Y164862D01*
D14*
X166603Y187757D02*
X162624Y187757D01*
X159639Y185436D01*
X162624Y187757D02*
X159639Y190079D01*
X162624Y187757D02*
X163950Y184110D01*
X162624Y187757D02*
X163950Y191405D01*
D10*
X102244Y153752D02*
X102244Y134448D01*
X134756Y134448D02*
X134756Y153752D01*
D14*
X136986Y161407D02*
X140965Y161407D01*
X136986Y161407D02*
X134001Y159086D01*
X136986Y161407D02*
X134001Y163729D01*
X136986Y161407D02*
X138312Y157760D01*
X136986Y161407D02*
X138312Y165055D01*
D10*
X37100Y254950D02*
X37100Y267650D01*
X37100Y254950D02*
X30750Y248600D01*
X18050Y248600D01*
X11700Y254950D01*
X30750Y248600D02*
X37100Y242250D01*
X37100Y229550D01*
X30750Y223200D01*
X18050Y223200D01*
X11700Y229550D01*
X11700Y242250D01*
X18050Y248600D01*
X18050Y274000D02*
X30750Y274000D01*
X37100Y267650D01*
X18050Y274000D02*
X11700Y267650D01*
X11700Y254950D01*
X30750Y223200D02*
X37100Y216850D01*
X37100Y204150D01*
X30750Y197800D01*
X18050Y197800D01*
X11700Y204150D01*
X11700Y216850D01*
X18050Y223200D01*
D15*
X233500Y398000D02*
X233500Y402000D01*
X226500Y402000D02*
X226500Y398000D01*
D16*
X232875Y401250D03*
D15*
X203500Y402000D02*
X203500Y398000D01*
X196500Y398000D02*
X196500Y402000D01*
D16*
X202875Y401250D03*
D15*
X173500Y402000D02*
X173500Y398000D01*
X166500Y398000D02*
X166500Y402000D01*
D16*
X172875Y401250D03*
D15*
X143500Y402000D02*
X143500Y398000D01*
X136500Y398000D02*
X136500Y402000D01*
D16*
X142875Y401250D03*
D10*
X36900Y352150D02*
X36900Y339450D01*
X30550Y333100D01*
X17850Y333100D01*
X11500Y339450D01*
X30550Y333100D02*
X36900Y326750D01*
X36900Y314050D01*
X30550Y307700D01*
X17850Y307700D01*
X11500Y314050D01*
X11500Y326750D01*
X17850Y333100D01*
X17850Y358500D02*
X30550Y358500D01*
X36900Y352150D01*
X17850Y358500D02*
X11500Y352150D01*
X11500Y339450D01*
X30550Y307700D02*
X36900Y301350D01*
X36900Y288650D01*
X30550Y282300D01*
X17850Y282300D01*
X11500Y288650D01*
X11500Y301350D01*
X17850Y307700D01*
D17*
X14800Y100100D02*
X64800Y100100D01*
X14800Y100100D02*
X14800Y60100D01*
X64800Y60100D01*
X64800Y100100D01*
X351800Y9900D02*
X401800Y9900D01*
X401800Y49900D01*
X351800Y49900D01*
X351800Y9900D01*
X352800Y58500D02*
X402800Y58500D01*
X402800Y98500D01*
X352800Y98500D01*
X352800Y58500D01*
X64800Y50700D02*
X14800Y50700D01*
X14800Y10700D01*
X64800Y10700D01*
X64800Y50700D01*
D10*
X234042Y85664D02*
X234042Y128336D01*
X234042Y85664D02*
X238106Y85664D01*
X323958Y85664D02*
X323958Y128336D01*
X319894Y128336D01*
X238106Y128336D02*
X234042Y128336D01*
X319894Y85664D02*
X323958Y85664D01*
D14*
X322124Y138531D02*
X326103Y138531D01*
X322124Y138531D02*
X319139Y136210D01*
X322124Y138531D02*
X319139Y140853D01*
X322124Y138531D02*
X323450Y134884D01*
X322124Y138531D02*
X323450Y142179D01*
D10*
X400700Y274050D02*
X400700Y286750D01*
X400700Y274050D02*
X394350Y267700D01*
X381650Y267700D01*
X375300Y274050D01*
X394350Y267700D02*
X400700Y261350D01*
X400700Y248650D01*
X394350Y242300D01*
X381650Y242300D01*
X375300Y248650D01*
X375300Y261350D01*
X381650Y267700D01*
X381650Y293100D02*
X394350Y293100D01*
X400700Y286750D01*
X381650Y293100D02*
X375300Y286750D01*
X375300Y274050D01*
X394350Y242300D02*
X400700Y235950D01*
X400700Y223250D01*
X394350Y216900D01*
X381650Y216900D01*
X375300Y223250D01*
X375300Y235950D01*
X381650Y242300D01*
X186431Y342470D02*
X177451Y333490D01*
X168470Y333490D01*
X159490Y342470D01*
X159490Y351451D01*
X168470Y333490D02*
X168470Y324510D01*
X159490Y315530D01*
X150510Y315530D01*
X141530Y324510D01*
X141530Y333490D01*
X150510Y342470D01*
X159490Y342470D01*
X177451Y360431D02*
X186431Y351451D01*
X186431Y342470D01*
X177451Y360431D02*
X168470Y360431D01*
X159490Y351451D01*
X150510Y315530D02*
X150510Y306549D01*
X141530Y297569D01*
X132549Y297569D01*
X123569Y306549D01*
X123569Y315530D01*
X132549Y324510D01*
X141530Y324510D01*
D13*
X179014Y326253D02*
X185300Y319967D01*
X185369Y319895D01*
X185435Y319821D01*
X185499Y319743D01*
X185559Y319664D01*
X185616Y319582D01*
X185670Y319498D01*
X185720Y319412D01*
X185767Y319324D01*
X185811Y319234D01*
X185851Y319143D01*
X185887Y319050D01*
X185920Y318956D01*
X185949Y318860D01*
X185974Y318764D01*
X185995Y318667D01*
X186013Y318568D01*
X186026Y318470D01*
X186036Y318370D01*
X186042Y318271D01*
X186044Y318171D01*
X186042Y318071D01*
X186036Y317972D01*
X186026Y317872D01*
X186013Y317774D01*
X185995Y317675D01*
X185974Y317578D01*
X185949Y317482D01*
X185920Y317386D01*
X185887Y317292D01*
X185851Y317199D01*
X185811Y317108D01*
X185767Y317018D01*
X185720Y316930D01*
X185670Y316844D01*
X185616Y316760D01*
X185559Y316678D01*
X185499Y316599D01*
X185435Y316521D01*
X185369Y316447D01*
X185300Y316375D01*
X184402Y315477D01*
X191325Y322399D02*
X183243Y330482D01*
X185488Y332727D01*
X185569Y332805D01*
X185652Y332880D01*
X185738Y332952D01*
X185826Y333021D01*
X185917Y333086D01*
X186010Y333149D01*
X186105Y333208D01*
X186202Y333264D01*
X186302Y333316D01*
X186402Y333365D01*
X186505Y333410D01*
X186609Y333451D01*
X186715Y333489D01*
X186821Y333523D01*
X186929Y333554D01*
X187038Y333580D01*
X187148Y333603D01*
X187258Y333621D01*
X187370Y333636D01*
X187481Y333647D01*
X187593Y333654D01*
X187705Y333657D01*
X187817Y333656D01*
X187929Y333651D01*
X188041Y333642D01*
X188152Y333629D01*
X188263Y333612D01*
X188373Y333592D01*
X188482Y333567D01*
X188591Y333539D01*
X188698Y333507D01*
X188804Y333471D01*
X188909Y333431D01*
X189012Y333388D01*
X189114Y333341D01*
X189214Y333290D01*
X189312Y333236D01*
X189409Y333179D01*
X189503Y333118D01*
X189595Y333054D01*
X189684Y332987D01*
X189771Y332916D01*
X189856Y332843D01*
X189938Y332766D01*
X190017Y332687D01*
X190094Y332605D01*
X190167Y332520D01*
X190238Y332433D01*
X190305Y332344D01*
X190369Y332252D01*
X190430Y332158D01*
X190487Y332061D01*
X190541Y331963D01*
X190592Y331863D01*
X190639Y331761D01*
X190682Y331658D01*
X190722Y331553D01*
X190758Y331447D01*
X190790Y331340D01*
X190818Y331231D01*
X190843Y331122D01*
X190863Y331012D01*
X190880Y330901D01*
X190893Y330790D01*
X190902Y330678D01*
X190907Y330566D01*
X190908Y330454D01*
X190905Y330342D01*
X190898Y330230D01*
X190887Y330119D01*
X190872Y330007D01*
X190854Y329897D01*
X190831Y329787D01*
X190805Y329678D01*
X190774Y329570D01*
X190740Y329464D01*
X190702Y329358D01*
X190661Y329254D01*
X190616Y329151D01*
X190567Y329051D01*
X190515Y328951D01*
X190459Y328854D01*
X190400Y328759D01*
X190337Y328666D01*
X190272Y328575D01*
X190203Y328487D01*
X190131Y328401D01*
X190056Y328318D01*
X189978Y328237D01*
X187733Y325992D01*
X197207Y331874D02*
X192717Y339956D01*
X197207Y331874D02*
X201697Y336364D01*
X198554Y336813D02*
X202146Y333221D01*
M02*
