G04 EAGLE Gerber RS-274X export*
G75*
%MOMM*%
%FSLAX34Y34*%
%LPD*%
%INBottom Copper*%
%IPPOS*%
%AMOC8*
5,1,8,0,0,1.08239X$1,22.5*%
G01*
%ADD10R,1.524000X1.524000*%
%ADD11P,1.649562X8X22.500000*%
%ADD12R,1.000000X1.100000*%
%ADD13P,1.649562X8X202.500000*%
%ADD14R,1.600000X1.800000*%
%ADD15C,0.756400*%
%ADD16C,0.254000*%
%ADD17C,0.508000*%

G36*
X222368Y10177D02*
X222368Y10177D01*
X222487Y10189D01*
X222508Y10197D01*
X222530Y10201D01*
X222638Y10249D01*
X222749Y10293D01*
X222767Y10307D01*
X222787Y10317D01*
X222877Y10394D01*
X222971Y10467D01*
X222984Y10485D01*
X223002Y10500D01*
X223067Y10600D01*
X223136Y10696D01*
X223144Y10717D01*
X223156Y10736D01*
X223191Y10849D01*
X223230Y10961D01*
X223232Y10984D01*
X223238Y11006D01*
X223240Y11124D01*
X223247Y11243D01*
X223242Y11264D01*
X223242Y11288D01*
X223192Y11467D01*
X223174Y11542D01*
X222677Y12742D01*
X222677Y14520D01*
X222664Y14615D01*
X222659Y14711D01*
X222644Y14754D01*
X222637Y14799D01*
X222598Y14886D01*
X222566Y14977D01*
X222541Y15012D01*
X222521Y15056D01*
X222438Y15153D01*
X222385Y15226D01*
X219008Y18603D01*
X218931Y18660D01*
X218860Y18725D01*
X218819Y18745D01*
X218783Y18772D01*
X218693Y18806D01*
X218606Y18848D01*
X218564Y18854D01*
X218519Y18871D01*
X218391Y18881D01*
X218302Y18895D01*
X193764Y18895D01*
X191239Y21420D01*
X189993Y22667D01*
X189916Y22724D01*
X189845Y22789D01*
X189804Y22809D01*
X189767Y22836D01*
X189677Y22870D01*
X189591Y22912D01*
X189549Y22918D01*
X189503Y22935D01*
X189376Y22945D01*
X189286Y22959D01*
X178448Y22959D01*
X176959Y24448D01*
X176959Y26190D01*
X176951Y26250D01*
X176951Y26277D01*
X176951Y26279D01*
X176951Y26318D01*
X176930Y26393D01*
X176919Y26469D01*
X176893Y26528D01*
X176876Y26590D01*
X176835Y26656D01*
X176803Y26726D01*
X176761Y26775D01*
X176728Y26830D01*
X176670Y26882D01*
X176620Y26940D01*
X176566Y26976D01*
X176518Y27019D01*
X176449Y27052D01*
X176384Y27095D01*
X176322Y27114D01*
X176265Y27142D01*
X176195Y27153D01*
X176114Y27177D01*
X176029Y27178D01*
X175960Y27189D01*
X135422Y27189D01*
X132897Y29714D01*
X101984Y60627D01*
X101907Y60684D01*
X101836Y60749D01*
X101795Y60769D01*
X101759Y60796D01*
X101669Y60830D01*
X101582Y60872D01*
X101540Y60878D01*
X101495Y60895D01*
X101367Y60905D01*
X101278Y60919D01*
X73275Y60919D01*
X73180Y60906D01*
X73084Y60901D01*
X73041Y60886D01*
X72996Y60879D01*
X72908Y60840D01*
X72817Y60808D01*
X72783Y60783D01*
X72739Y60763D01*
X72641Y60680D01*
X72593Y60645D01*
X70258Y59677D01*
X67742Y59677D01*
X65418Y60640D01*
X63640Y62418D01*
X62677Y64742D01*
X62677Y67258D01*
X63640Y69582D01*
X65418Y71360D01*
X67742Y72323D01*
X70258Y72323D01*
X72591Y71356D01*
X72645Y71316D01*
X72716Y71251D01*
X72757Y71231D01*
X72794Y71204D01*
X72884Y71170D01*
X72970Y71128D01*
X73012Y71122D01*
X73058Y71105D01*
X73185Y71095D01*
X73275Y71081D01*
X124482Y71081D01*
X124577Y71094D01*
X124673Y71099D01*
X124716Y71114D01*
X124761Y71121D01*
X124848Y71160D01*
X124939Y71192D01*
X124974Y71217D01*
X125018Y71237D01*
X125115Y71320D01*
X125188Y71373D01*
X198108Y144293D01*
X198160Y144362D01*
X198219Y144426D01*
X198244Y144475D01*
X198277Y144518D01*
X198308Y144600D01*
X198347Y144677D01*
X198357Y144731D01*
X198376Y144782D01*
X198383Y144869D01*
X198399Y144954D01*
X198394Y145009D01*
X198398Y145063D01*
X198380Y145148D01*
X198372Y145235D01*
X198352Y145286D01*
X198341Y145340D01*
X198300Y145416D01*
X198268Y145497D01*
X198234Y145540D01*
X198208Y145589D01*
X198148Y145651D01*
X198094Y145719D01*
X198050Y145751D01*
X198011Y145791D01*
X197936Y145833D01*
X197865Y145884D01*
X197814Y145903D01*
X197766Y145930D01*
X197681Y145950D01*
X197600Y145979D01*
X197545Y145982D01*
X197492Y145995D01*
X197405Y145990D01*
X197318Y145995D01*
X197269Y145983D01*
X197210Y145980D01*
X197102Y145943D01*
X197019Y145923D01*
X197011Y145919D01*
X183540Y145919D01*
X183476Y145910D01*
X183412Y145911D01*
X183337Y145890D01*
X183261Y145879D01*
X183202Y145853D01*
X183140Y145836D01*
X183074Y145795D01*
X183004Y145763D01*
X182955Y145721D01*
X182900Y145688D01*
X182848Y145630D01*
X182790Y145580D01*
X182754Y145526D01*
X182711Y145478D01*
X182678Y145409D01*
X182635Y145344D01*
X182616Y145282D01*
X182588Y145225D01*
X182577Y145155D01*
X182553Y145074D01*
X182552Y144989D01*
X182541Y144920D01*
X182541Y140948D01*
X181052Y139459D01*
X162948Y139459D01*
X161459Y140948D01*
X161459Y181052D01*
X162948Y182541D01*
X172736Y182541D01*
X172800Y182550D01*
X172864Y182549D01*
X172939Y182570D01*
X173015Y182581D01*
X173074Y182607D01*
X173136Y182624D01*
X173202Y182665D01*
X173272Y182697D01*
X173321Y182739D01*
X173376Y182772D01*
X173428Y182830D01*
X173487Y182880D01*
X173522Y182934D01*
X173565Y182982D01*
X173599Y183051D01*
X173641Y183116D01*
X173660Y183178D01*
X173688Y183235D01*
X173699Y183305D01*
X173720Y183374D01*
X174698Y185736D01*
X176476Y187514D01*
X178800Y188477D01*
X181316Y188477D01*
X183650Y187510D01*
X183703Y187470D01*
X183775Y187405D01*
X183816Y187385D01*
X183852Y187358D01*
X183942Y187324D01*
X184028Y187282D01*
X184070Y187276D01*
X184116Y187259D01*
X184243Y187249D01*
X184333Y187235D01*
X197857Y187235D01*
X199724Y186461D01*
X212570Y173615D01*
X212647Y173558D01*
X212718Y173493D01*
X212759Y173473D01*
X212795Y173446D01*
X212885Y173412D01*
X212972Y173370D01*
X213014Y173364D01*
X213059Y173347D01*
X213187Y173337D01*
X213246Y173327D01*
X215582Y172360D01*
X217360Y170582D01*
X218323Y168258D01*
X218323Y165742D01*
X217356Y163409D01*
X217316Y163355D01*
X217251Y163284D01*
X217231Y163243D01*
X217204Y163206D01*
X217170Y163116D01*
X217128Y163030D01*
X217122Y162988D01*
X217105Y162942D01*
X217095Y162815D01*
X217081Y162725D01*
X217081Y154722D01*
X217094Y154627D01*
X217099Y154531D01*
X217114Y154488D01*
X217121Y154443D01*
X217160Y154356D01*
X217192Y154265D01*
X217217Y154230D01*
X217237Y154186D01*
X217320Y154089D01*
X217374Y154016D01*
X217460Y153929D01*
X217555Y153858D01*
X217646Y153783D01*
X217667Y153774D01*
X217686Y153760D01*
X217796Y153718D01*
X217905Y153671D01*
X217928Y153668D01*
X217950Y153660D01*
X218068Y153651D01*
X218185Y153637D01*
X218208Y153640D01*
X218231Y153639D01*
X218347Y153663D01*
X218464Y153682D01*
X218484Y153692D01*
X218507Y153696D01*
X218611Y153752D01*
X218718Y153803D01*
X218736Y153818D01*
X218756Y153829D01*
X218841Y153911D01*
X218929Y153990D01*
X218941Y154009D01*
X218958Y154026D01*
X219050Y154188D01*
X219090Y154253D01*
X219640Y155582D01*
X221418Y157360D01*
X223742Y158323D01*
X226258Y158323D01*
X228582Y157360D01*
X230360Y155582D01*
X231323Y153258D01*
X231323Y151480D01*
X231336Y151385D01*
X231341Y151289D01*
X231356Y151246D01*
X231363Y151201D01*
X231402Y151114D01*
X231434Y151023D01*
X231459Y150988D01*
X231479Y150944D01*
X231562Y150847D01*
X231615Y150774D01*
X257811Y124578D01*
X257811Y107545D01*
X257824Y107450D01*
X257829Y107354D01*
X257844Y107311D01*
X257851Y107266D01*
X257890Y107178D01*
X257922Y107087D01*
X257947Y107053D01*
X257967Y107009D01*
X258050Y106911D01*
X258103Y106838D01*
X259360Y105582D01*
X260323Y103258D01*
X260323Y100742D01*
X259340Y98370D01*
X259324Y98308D01*
X259299Y98249D01*
X259289Y98172D01*
X259270Y98097D01*
X259272Y98033D01*
X259264Y97969D01*
X259277Y97893D01*
X259279Y97815D01*
X259299Y97754D01*
X259309Y97691D01*
X259343Y97621D01*
X259367Y97547D01*
X259403Y97494D01*
X259430Y97436D01*
X259482Y97378D01*
X259525Y97314D01*
X259575Y97273D01*
X259618Y97225D01*
X259678Y97189D01*
X259743Y97135D01*
X259821Y97101D01*
X259881Y97065D01*
X261582Y96360D01*
X263360Y94582D01*
X264323Y92258D01*
X264323Y89742D01*
X263360Y87418D01*
X262103Y86162D01*
X262046Y86085D01*
X261981Y86014D01*
X261961Y85973D01*
X261934Y85936D01*
X261900Y85846D01*
X261858Y85760D01*
X261852Y85718D01*
X261835Y85672D01*
X261825Y85545D01*
X261811Y85455D01*
X261811Y60192D01*
X261824Y60097D01*
X261829Y60001D01*
X261844Y59958D01*
X261851Y59913D01*
X261890Y59826D01*
X261922Y59735D01*
X261947Y59700D01*
X261967Y59656D01*
X262050Y59559D01*
X262103Y59486D01*
X268956Y52633D01*
X269033Y52576D01*
X269104Y52511D01*
X269145Y52491D01*
X269181Y52464D01*
X269271Y52430D01*
X269358Y52388D01*
X269400Y52382D01*
X269445Y52365D01*
X269573Y52355D01*
X269662Y52341D01*
X277952Y52341D01*
X278243Y52050D01*
X278295Y52011D01*
X278340Y51965D01*
X278407Y51927D01*
X278469Y51880D01*
X278529Y51858D01*
X278585Y51826D01*
X278660Y51808D01*
X278733Y51781D01*
X278797Y51776D01*
X278859Y51761D01*
X278937Y51765D01*
X279014Y51759D01*
X279077Y51772D01*
X279141Y51775D01*
X279214Y51801D01*
X279290Y51817D01*
X279347Y51847D01*
X279408Y51868D01*
X279464Y51909D01*
X279539Y51949D01*
X279600Y52008D01*
X279657Y52050D01*
X279948Y52341D01*
X292052Y52341D01*
X293541Y50852D01*
X293541Y50564D01*
X293542Y50554D01*
X293541Y50543D01*
X293562Y50414D01*
X293581Y50285D01*
X293585Y50275D01*
X293587Y50265D01*
X293643Y50147D01*
X293697Y50028D01*
X293704Y50020D01*
X293708Y50010D01*
X293795Y49913D01*
X293880Y49814D01*
X293889Y49808D01*
X293896Y49800D01*
X294007Y49731D01*
X294116Y49659D01*
X294126Y49656D01*
X294136Y49651D01*
X294261Y49615D01*
X294386Y49577D01*
X294397Y49577D01*
X294407Y49574D01*
X294538Y49575D01*
X294668Y49573D01*
X294678Y49576D01*
X294689Y49576D01*
X294814Y49614D01*
X294940Y49649D01*
X294949Y49654D01*
X294959Y49657D01*
X295069Y49728D01*
X295180Y49797D01*
X295187Y49805D01*
X295196Y49811D01*
X295282Y49910D01*
X295369Y50006D01*
X295373Y50016D01*
X295380Y50024D01*
X295413Y50098D01*
X295492Y50260D01*
X295495Y50284D01*
X295505Y50306D01*
X295632Y50781D01*
X295967Y51360D01*
X296440Y51833D01*
X297019Y52168D01*
X297665Y52341D01*
X301001Y52341D01*
X301001Y45300D01*
X301010Y45236D01*
X301009Y45172D01*
X301030Y45098D01*
X301041Y45021D01*
X301067Y44962D01*
X301084Y44900D01*
X301125Y44834D01*
X301157Y44764D01*
X301199Y44715D01*
X301232Y44660D01*
X301290Y44609D01*
X301340Y44550D01*
X301394Y44514D01*
X301442Y44471D01*
X301511Y44438D01*
X301576Y44395D01*
X301638Y44376D01*
X301695Y44348D01*
X301765Y44338D01*
X301846Y44313D01*
X301931Y44312D01*
X302000Y44301D01*
X303001Y44301D01*
X303001Y44299D01*
X302000Y44299D01*
X301936Y44290D01*
X301872Y44291D01*
X301797Y44270D01*
X301721Y44259D01*
X301662Y44233D01*
X301600Y44216D01*
X301534Y44175D01*
X301464Y44143D01*
X301415Y44101D01*
X301360Y44068D01*
X301308Y44010D01*
X301250Y43960D01*
X301214Y43906D01*
X301171Y43858D01*
X301138Y43789D01*
X301095Y43724D01*
X301076Y43662D01*
X301048Y43604D01*
X301038Y43535D01*
X301013Y43454D01*
X301012Y43369D01*
X301001Y43300D01*
X301001Y36259D01*
X297665Y36259D01*
X297019Y36432D01*
X296440Y36767D01*
X295967Y37240D01*
X295632Y37819D01*
X295505Y38294D01*
X295501Y38304D01*
X295499Y38315D01*
X295446Y38434D01*
X295394Y38554D01*
X295388Y38562D01*
X295383Y38572D01*
X295298Y38671D01*
X295216Y38772D01*
X295207Y38778D01*
X295200Y38786D01*
X295091Y38857D01*
X294983Y38931D01*
X294973Y38935D01*
X294964Y38941D01*
X294839Y38979D01*
X294715Y39019D01*
X294704Y39020D01*
X294694Y39023D01*
X294563Y39025D01*
X294433Y39029D01*
X294423Y39026D01*
X294412Y39027D01*
X294286Y38992D01*
X294160Y38960D01*
X294151Y38954D01*
X294140Y38951D01*
X294029Y38883D01*
X293917Y38817D01*
X293910Y38809D01*
X293900Y38803D01*
X293813Y38706D01*
X293723Y38612D01*
X293719Y38602D01*
X293711Y38594D01*
X293655Y38477D01*
X293595Y38361D01*
X293593Y38350D01*
X293588Y38340D01*
X293576Y38261D01*
X293542Y38084D01*
X293544Y38060D01*
X293541Y38036D01*
X293541Y37748D01*
X292052Y36259D01*
X279948Y36259D01*
X279657Y36550D01*
X279605Y36589D01*
X279560Y36635D01*
X279493Y36673D01*
X279431Y36720D01*
X279371Y36742D01*
X279315Y36774D01*
X279240Y36792D01*
X279167Y36819D01*
X279103Y36824D01*
X279040Y36839D01*
X278963Y36835D01*
X278886Y36841D01*
X278823Y36828D01*
X278759Y36824D01*
X278686Y36799D01*
X278610Y36783D01*
X278553Y36753D01*
X278492Y36732D01*
X278436Y36691D01*
X278361Y36651D01*
X278300Y36592D01*
X278243Y36550D01*
X277952Y36259D01*
X265848Y36259D01*
X264107Y38000D01*
X264055Y38039D01*
X264010Y38085D01*
X263943Y38123D01*
X263881Y38170D01*
X263821Y38192D01*
X263765Y38224D01*
X263690Y38242D01*
X263617Y38269D01*
X263553Y38274D01*
X263491Y38289D01*
X263413Y38285D01*
X263336Y38291D01*
X263273Y38278D01*
X263209Y38275D01*
X263136Y38249D01*
X263060Y38233D01*
X263003Y38203D01*
X262942Y38182D01*
X262886Y38141D01*
X262811Y38101D01*
X262750Y38042D01*
X262693Y38000D01*
X261998Y37305D01*
X261959Y37253D01*
X261913Y37208D01*
X261875Y37141D01*
X261828Y37079D01*
X261806Y37019D01*
X261774Y36963D01*
X261756Y36888D01*
X261729Y36815D01*
X261724Y36751D01*
X261709Y36689D01*
X261713Y36611D01*
X261707Y36534D01*
X261720Y36471D01*
X261723Y36407D01*
X261749Y36334D01*
X261765Y36258D01*
X261795Y36201D01*
X261816Y36140D01*
X261857Y36084D01*
X261897Y36009D01*
X261956Y35948D01*
X261998Y35891D01*
X268036Y29853D01*
X268113Y29796D01*
X268184Y29731D01*
X268225Y29711D01*
X268261Y29684D01*
X268351Y29650D01*
X268438Y29608D01*
X268480Y29602D01*
X268525Y29585D01*
X268653Y29575D01*
X268742Y29561D01*
X277309Y29561D01*
X283261Y23609D01*
X283261Y15191D01*
X279936Y11867D01*
X279917Y11841D01*
X279892Y11820D01*
X279832Y11728D01*
X279767Y11641D01*
X279755Y11611D01*
X279738Y11584D01*
X279706Y11479D01*
X279667Y11377D01*
X279665Y11345D01*
X279655Y11314D01*
X279654Y11205D01*
X279645Y11096D01*
X279652Y11064D01*
X279652Y11032D01*
X279681Y10927D01*
X279703Y10820D01*
X279718Y10791D01*
X279727Y10760D01*
X279784Y10667D01*
X279835Y10571D01*
X279858Y10548D01*
X279875Y10520D01*
X279956Y10447D01*
X280032Y10369D01*
X280060Y10353D01*
X280084Y10331D01*
X280182Y10284D01*
X280278Y10230D01*
X280309Y10222D01*
X280338Y10208D01*
X280427Y10194D01*
X280552Y10165D01*
X280601Y10167D01*
X280643Y10161D01*
X290957Y10161D01*
X290989Y10165D01*
X291022Y10163D01*
X291128Y10185D01*
X291237Y10201D01*
X291266Y10214D01*
X291298Y10220D01*
X291394Y10272D01*
X291494Y10317D01*
X291518Y10338D01*
X291547Y10353D01*
X291625Y10429D01*
X291708Y10500D01*
X291726Y10527D01*
X291749Y10550D01*
X291802Y10645D01*
X291862Y10736D01*
X291872Y10767D01*
X291888Y10795D01*
X291913Y10901D01*
X291945Y11006D01*
X291945Y11038D01*
X291953Y11069D01*
X291947Y11179D01*
X291948Y11288D01*
X291940Y11319D01*
X291938Y11351D01*
X291902Y11454D01*
X291873Y11560D01*
X291856Y11587D01*
X291846Y11618D01*
X291792Y11691D01*
X291725Y11800D01*
X291689Y11832D01*
X291664Y11867D01*
X288339Y15191D01*
X288339Y23609D01*
X294291Y29561D01*
X302709Y29561D01*
X308661Y23609D01*
X308661Y15191D01*
X305336Y11867D01*
X305317Y11841D01*
X305292Y11820D01*
X305232Y11728D01*
X305167Y11641D01*
X305155Y11611D01*
X305138Y11584D01*
X305106Y11479D01*
X305067Y11377D01*
X305065Y11345D01*
X305055Y11314D01*
X305054Y11205D01*
X305045Y11096D01*
X305052Y11064D01*
X305052Y11032D01*
X305081Y10927D01*
X305103Y10820D01*
X305118Y10791D01*
X305127Y10760D01*
X305184Y10667D01*
X305235Y10571D01*
X305258Y10548D01*
X305275Y10520D01*
X305356Y10447D01*
X305432Y10369D01*
X305460Y10353D01*
X305484Y10331D01*
X305582Y10284D01*
X305678Y10230D01*
X305709Y10222D01*
X305738Y10208D01*
X305827Y10194D01*
X305952Y10165D01*
X306001Y10167D01*
X306043Y10161D01*
X356040Y10161D01*
X356104Y10170D01*
X356168Y10169D01*
X356243Y10190D01*
X356319Y10201D01*
X356378Y10227D01*
X356440Y10244D01*
X356506Y10285D01*
X356576Y10317D01*
X356625Y10359D01*
X356680Y10392D01*
X356732Y10450D01*
X356790Y10500D01*
X356826Y10554D01*
X356869Y10602D01*
X356902Y10671D01*
X356945Y10736D01*
X356964Y10798D01*
X356992Y10855D01*
X357003Y10925D01*
X357027Y11006D01*
X357028Y11091D01*
X357039Y11160D01*
X357039Y14685D01*
X357035Y14717D01*
X357037Y14749D01*
X357015Y14856D01*
X356999Y14964D01*
X356986Y14994D01*
X356980Y15025D01*
X356928Y15122D01*
X356883Y15221D01*
X356862Y15246D01*
X356847Y15274D01*
X356771Y15353D01*
X356700Y15436D01*
X356673Y15453D01*
X356650Y15476D01*
X356555Y15530D01*
X356464Y15590D01*
X356433Y15600D01*
X356405Y15615D01*
X356299Y15641D01*
X356194Y15672D01*
X356162Y15673D01*
X356131Y15680D01*
X356021Y15675D01*
X355912Y15676D01*
X355881Y15668D01*
X355849Y15666D01*
X355746Y15630D01*
X355640Y15601D01*
X355613Y15584D01*
X355582Y15574D01*
X355509Y15520D01*
X355400Y15453D01*
X355368Y15417D01*
X355333Y15392D01*
X353582Y13640D01*
X351258Y12677D01*
X348742Y12677D01*
X346418Y13640D01*
X344640Y15418D01*
X343677Y17742D01*
X343677Y20258D01*
X344644Y22591D01*
X344684Y22645D01*
X344749Y22716D01*
X344769Y22757D01*
X344796Y22794D01*
X344830Y22884D01*
X344872Y22970D01*
X344878Y23012D01*
X344895Y23058D01*
X344905Y23185D01*
X344919Y23275D01*
X344919Y66284D01*
X344903Y66402D01*
X344891Y66520D01*
X344883Y66541D01*
X344879Y66563D01*
X344831Y66671D01*
X344787Y66782D01*
X344773Y66800D01*
X344763Y66820D01*
X344686Y66910D01*
X344613Y67004D01*
X344595Y67017D01*
X344580Y67035D01*
X344480Y67100D01*
X344384Y67169D01*
X344363Y67177D01*
X344344Y67189D01*
X344230Y67224D01*
X344119Y67264D01*
X344096Y67265D01*
X344074Y67272D01*
X343956Y67273D01*
X343837Y67280D01*
X343816Y67275D01*
X343792Y67275D01*
X343613Y67226D01*
X343538Y67207D01*
X342258Y66677D01*
X340810Y66677D01*
X340746Y66668D01*
X340682Y66669D01*
X340607Y66648D01*
X340531Y66637D01*
X340472Y66611D01*
X340410Y66594D01*
X340344Y66553D01*
X340274Y66521D01*
X340225Y66479D01*
X340170Y66446D01*
X340118Y66388D01*
X340060Y66338D01*
X340024Y66284D01*
X339981Y66236D01*
X339948Y66167D01*
X339905Y66102D01*
X339886Y66040D01*
X339858Y65983D01*
X339847Y65913D01*
X339823Y65832D01*
X339822Y65747D01*
X339811Y65678D01*
X339811Y53545D01*
X339824Y53450D01*
X339829Y53354D01*
X339844Y53311D01*
X339851Y53266D01*
X339890Y53178D01*
X339922Y53087D01*
X339947Y53053D01*
X339967Y53009D01*
X340050Y52911D01*
X340103Y52838D01*
X341360Y51582D01*
X342323Y49258D01*
X342323Y46742D01*
X341360Y44418D01*
X339582Y42640D01*
X337258Y41677D01*
X334742Y41677D01*
X332418Y42640D01*
X330640Y44418D01*
X329677Y46742D01*
X329677Y49258D01*
X330640Y51582D01*
X331897Y52838D01*
X331954Y52915D01*
X332019Y52986D01*
X332039Y53027D01*
X332066Y53064D01*
X332100Y53154D01*
X332142Y53240D01*
X332148Y53282D01*
X332165Y53328D01*
X332175Y53455D01*
X332189Y53545D01*
X332189Y66008D01*
X332176Y66103D01*
X332171Y66199D01*
X332156Y66242D01*
X332149Y66287D01*
X332110Y66374D01*
X332078Y66465D01*
X332053Y66500D01*
X332033Y66544D01*
X331950Y66641D01*
X331897Y66714D01*
X311226Y87385D01*
X311149Y87442D01*
X311078Y87507D01*
X311037Y87527D01*
X311001Y87554D01*
X310911Y87588D01*
X310824Y87630D01*
X310782Y87636D01*
X310737Y87653D01*
X310609Y87663D01*
X310520Y87677D01*
X308742Y87677D01*
X306418Y88640D01*
X304640Y90418D01*
X303677Y92742D01*
X303677Y95258D01*
X304640Y97582D01*
X304852Y97793D01*
X304890Y97845D01*
X304936Y97890D01*
X304975Y97957D01*
X305021Y98019D01*
X305044Y98079D01*
X305075Y98135D01*
X305093Y98210D01*
X305121Y98283D01*
X305126Y98347D01*
X305140Y98410D01*
X305136Y98487D01*
X305142Y98564D01*
X305129Y98627D01*
X305126Y98691D01*
X305101Y98764D01*
X305085Y98840D01*
X305055Y98897D01*
X305033Y98958D01*
X304992Y99014D01*
X304952Y99089D01*
X304893Y99150D01*
X304852Y99207D01*
X303640Y100418D01*
X302677Y102742D01*
X302677Y104678D01*
X302668Y104742D01*
X302669Y104806D01*
X302648Y104881D01*
X302637Y104957D01*
X302611Y105016D01*
X302594Y105078D01*
X302553Y105144D01*
X302521Y105214D01*
X302479Y105263D01*
X302446Y105318D01*
X302388Y105370D01*
X302338Y105428D01*
X302284Y105464D01*
X302236Y105507D01*
X302167Y105540D01*
X302102Y105583D01*
X302040Y105602D01*
X301983Y105630D01*
X301913Y105641D01*
X301832Y105665D01*
X301747Y105666D01*
X301678Y105677D01*
X300742Y105677D01*
X298418Y106640D01*
X296640Y108418D01*
X295677Y110742D01*
X295677Y113258D01*
X296640Y115582D01*
X298418Y117360D01*
X300742Y118323D01*
X303258Y118323D01*
X305582Y117360D01*
X306838Y116103D01*
X306915Y116046D01*
X306986Y115981D01*
X307027Y115961D01*
X307064Y115934D01*
X307154Y115900D01*
X307240Y115858D01*
X307282Y115852D01*
X307328Y115835D01*
X307455Y115825D01*
X307545Y115811D01*
X325008Y115811D01*
X325103Y115824D01*
X325199Y115829D01*
X325242Y115844D01*
X325287Y115851D01*
X325374Y115890D01*
X325465Y115922D01*
X325500Y115947D01*
X325544Y115967D01*
X325641Y116050D01*
X325714Y116103D01*
X333385Y123774D01*
X333442Y123851D01*
X333507Y123922D01*
X333527Y123963D01*
X333554Y123999D01*
X333588Y124089D01*
X333630Y124176D01*
X333636Y124218D01*
X333653Y124263D01*
X333663Y124391D01*
X333677Y124480D01*
X333677Y126258D01*
X334640Y128582D01*
X336418Y130360D01*
X338742Y131323D01*
X341258Y131323D01*
X342538Y130793D01*
X342652Y130763D01*
X342766Y130728D01*
X342789Y130728D01*
X342811Y130722D01*
X342929Y130726D01*
X343048Y130725D01*
X343070Y130731D01*
X343093Y130732D01*
X343205Y130768D01*
X343320Y130800D01*
X343339Y130812D01*
X343361Y130819D01*
X343459Y130886D01*
X343560Y130948D01*
X343575Y130965D01*
X343594Y130978D01*
X343669Y131069D01*
X343749Y131157D01*
X343759Y131178D01*
X343773Y131196D01*
X343820Y131305D01*
X343872Y131411D01*
X343875Y131432D01*
X343885Y131455D01*
X343907Y131639D01*
X343919Y131716D01*
X343919Y160011D01*
X344601Y161657D01*
X344612Y161697D01*
X344630Y161735D01*
X344643Y161819D01*
X344665Y161893D01*
X344665Y161908D01*
X344671Y161930D01*
X344669Y161989D01*
X344677Y162039D01*
X344677Y162258D01*
X345107Y163296D01*
X345137Y163410D01*
X345171Y163524D01*
X345172Y163547D01*
X345177Y163569D01*
X345173Y163687D01*
X345175Y163806D01*
X345169Y163828D01*
X345168Y163851D01*
X345132Y163963D01*
X345100Y164078D01*
X345088Y164097D01*
X345081Y164119D01*
X345014Y164217D01*
X344952Y164318D01*
X344935Y164333D01*
X344922Y164352D01*
X344830Y164427D01*
X344742Y164507D01*
X344722Y164517D01*
X344704Y164531D01*
X344595Y164578D01*
X344489Y164630D01*
X344467Y164633D01*
X344445Y164643D01*
X344260Y164665D01*
X344184Y164677D01*
X341742Y164677D01*
X339418Y165640D01*
X338162Y166897D01*
X338085Y166954D01*
X338014Y167019D01*
X337973Y167039D01*
X337936Y167066D01*
X337846Y167100D01*
X337760Y167142D01*
X337718Y167148D01*
X337672Y167165D01*
X337545Y167175D01*
X337455Y167189D01*
X336992Y167189D01*
X336897Y167176D01*
X336801Y167171D01*
X336758Y167156D01*
X336713Y167149D01*
X336626Y167110D01*
X336535Y167078D01*
X336500Y167053D01*
X336456Y167033D01*
X336359Y166950D01*
X336286Y166897D01*
X291599Y122209D01*
X291574Y122176D01*
X291542Y122148D01*
X291498Y122075D01*
X291429Y121984D01*
X291408Y121929D01*
X291382Y121885D01*
X290360Y119418D01*
X288582Y117640D01*
X286258Y116677D01*
X283742Y116677D01*
X281418Y117640D01*
X279640Y119418D01*
X278677Y121742D01*
X278677Y124258D01*
X279640Y126582D01*
X281352Y128293D01*
X281390Y128345D01*
X281436Y128390D01*
X281475Y128457D01*
X281521Y128519D01*
X281544Y128579D01*
X281575Y128635D01*
X281593Y128710D01*
X281621Y128783D01*
X281626Y128847D01*
X281640Y128910D01*
X281636Y128987D01*
X281642Y129064D01*
X281629Y129127D01*
X281626Y129191D01*
X281601Y129264D01*
X281585Y129340D01*
X281555Y129397D01*
X281533Y129458D01*
X281492Y129514D01*
X281452Y129589D01*
X281393Y129650D01*
X281352Y129707D01*
X279640Y131418D01*
X278677Y133742D01*
X278677Y136258D01*
X279644Y138591D01*
X279684Y138645D01*
X279749Y138716D01*
X279769Y138757D01*
X279796Y138794D01*
X279830Y138884D01*
X279872Y138970D01*
X279878Y139012D01*
X279895Y139058D01*
X279905Y139185D01*
X279919Y139275D01*
X279919Y170565D01*
X279915Y170597D01*
X279917Y170629D01*
X279895Y170736D01*
X279879Y170844D01*
X279866Y170874D01*
X279860Y170905D01*
X279808Y171002D01*
X279763Y171101D01*
X279742Y171126D01*
X279727Y171154D01*
X279651Y171233D01*
X279580Y171316D01*
X279553Y171333D01*
X279530Y171356D01*
X279435Y171410D01*
X279344Y171470D01*
X279313Y171480D01*
X279285Y171495D01*
X279179Y171521D01*
X279074Y171552D01*
X279042Y171553D01*
X279011Y171560D01*
X278901Y171555D01*
X278792Y171556D01*
X278761Y171548D01*
X278729Y171546D01*
X278626Y171510D01*
X278520Y171481D01*
X278493Y171464D01*
X278462Y171454D01*
X278389Y171400D01*
X278280Y171333D01*
X278248Y171297D01*
X278213Y171272D01*
X277582Y170640D01*
X275258Y169677D01*
X273480Y169677D01*
X273385Y169664D01*
X273289Y169659D01*
X273246Y169644D01*
X273201Y169637D01*
X273114Y169598D01*
X273023Y169566D01*
X272988Y169541D01*
X272944Y169521D01*
X272847Y169438D01*
X272774Y169385D01*
X259615Y156226D01*
X259558Y156149D01*
X259493Y156078D01*
X259473Y156037D01*
X259446Y156001D01*
X259412Y155911D01*
X259370Y155824D01*
X259364Y155782D01*
X259347Y155737D01*
X259337Y155609D01*
X259323Y155520D01*
X259323Y154742D01*
X258360Y152418D01*
X256582Y150640D01*
X254258Y149677D01*
X251742Y149677D01*
X249418Y150640D01*
X247640Y152418D01*
X246677Y154742D01*
X246677Y157258D01*
X247640Y159582D01*
X249418Y161360D01*
X251742Y162323D01*
X254343Y162323D01*
X254392Y162310D01*
X254401Y162311D01*
X254411Y162308D01*
X254543Y162315D01*
X254673Y162319D01*
X254683Y162322D01*
X254692Y162323D01*
X254817Y162366D01*
X254942Y162407D01*
X254950Y162412D01*
X254959Y162415D01*
X255021Y162461D01*
X255175Y162565D01*
X255190Y162584D01*
X255208Y162597D01*
X267385Y174774D01*
X267442Y174851D01*
X267507Y174922D01*
X267527Y174963D01*
X267554Y174999D01*
X267588Y175089D01*
X267630Y175176D01*
X267636Y175218D01*
X267653Y175263D01*
X267663Y175391D01*
X267677Y175480D01*
X267677Y177258D01*
X268640Y179582D01*
X270418Y181360D01*
X272742Y182323D01*
X275258Y182323D01*
X277582Y181360D01*
X278213Y180728D01*
X278239Y180709D01*
X278260Y180684D01*
X278352Y180624D01*
X278439Y180559D01*
X278469Y180548D01*
X278496Y180530D01*
X278601Y180498D01*
X278703Y180459D01*
X278735Y180457D01*
X278766Y180448D01*
X278875Y180446D01*
X278984Y180438D01*
X279016Y180444D01*
X279048Y180444D01*
X279153Y180473D01*
X279260Y180495D01*
X279289Y180510D01*
X279320Y180519D01*
X279413Y180576D01*
X279509Y180628D01*
X279532Y180650D01*
X279560Y180667D01*
X279633Y180748D01*
X279711Y180824D01*
X279727Y180852D01*
X279749Y180876D01*
X279796Y180975D01*
X279850Y181070D01*
X279858Y181101D01*
X279872Y181130D01*
X279886Y181220D01*
X279915Y181344D01*
X279913Y181393D01*
X279919Y181435D01*
X279919Y187497D01*
X279906Y187592D01*
X279901Y187689D01*
X279886Y187732D01*
X279879Y187777D01*
X279840Y187864D01*
X279808Y187955D01*
X279783Y187989D01*
X279763Y188034D01*
X279680Y188131D01*
X279627Y188204D01*
X277239Y190591D01*
X277239Y197362D01*
X277226Y197457D01*
X277221Y197553D01*
X277206Y197596D01*
X277199Y197641D01*
X277160Y197728D01*
X277128Y197819D01*
X277103Y197854D01*
X277083Y197898D01*
X277000Y197995D01*
X276947Y198068D01*
X273088Y201927D01*
X273011Y201984D01*
X272940Y202049D01*
X272899Y202069D01*
X272863Y202096D01*
X272773Y202130D01*
X272686Y202172D01*
X272644Y202178D01*
X272599Y202195D01*
X272471Y202205D01*
X272382Y202219D01*
X271363Y202219D01*
X271331Y202215D01*
X271298Y202217D01*
X271192Y202195D01*
X271083Y202179D01*
X271054Y202166D01*
X271022Y202160D01*
X270926Y202108D01*
X270826Y202063D01*
X270802Y202042D01*
X270773Y202027D01*
X270695Y201951D01*
X270612Y201880D01*
X270594Y201853D01*
X270571Y201830D01*
X270518Y201735D01*
X270458Y201644D01*
X270448Y201613D01*
X270432Y201585D01*
X270407Y201479D01*
X270375Y201374D01*
X270375Y201342D01*
X270367Y201311D01*
X270373Y201201D01*
X270372Y201092D01*
X270380Y201061D01*
X270382Y201029D01*
X270418Y200926D01*
X270447Y200820D01*
X270464Y200793D01*
X270474Y200762D01*
X270528Y200689D01*
X270595Y200580D01*
X270631Y200548D01*
X270656Y200513D01*
X272161Y199009D01*
X272161Y196799D01*
X263000Y196799D01*
X262937Y196790D01*
X262872Y196791D01*
X262798Y196770D01*
X262721Y196759D01*
X262662Y196733D01*
X262600Y196716D01*
X262534Y196675D01*
X262464Y196643D01*
X262415Y196601D01*
X262360Y196568D01*
X262309Y196510D01*
X262250Y196460D01*
X262214Y196406D01*
X262171Y196358D01*
X262138Y196289D01*
X262095Y196224D01*
X262076Y196162D01*
X262048Y196105D01*
X262038Y196035D01*
X262013Y195954D01*
X262012Y195869D01*
X262001Y195800D01*
X262001Y194799D01*
X261999Y194799D01*
X261999Y195800D01*
X261990Y195864D01*
X261991Y195928D01*
X261970Y196003D01*
X261959Y196079D01*
X261933Y196138D01*
X261916Y196200D01*
X261875Y196266D01*
X261843Y196336D01*
X261801Y196385D01*
X261768Y196440D01*
X261710Y196492D01*
X261660Y196550D01*
X261606Y196586D01*
X261558Y196629D01*
X261489Y196662D01*
X261424Y196705D01*
X261362Y196724D01*
X261304Y196752D01*
X261235Y196762D01*
X261154Y196787D01*
X261069Y196788D01*
X261000Y196799D01*
X251839Y196799D01*
X251839Y199009D01*
X253344Y200513D01*
X253363Y200539D01*
X253388Y200560D01*
X253448Y200652D01*
X253513Y200739D01*
X253525Y200769D01*
X253542Y200796D01*
X253574Y200901D01*
X253613Y201003D01*
X253615Y201035D01*
X253625Y201066D01*
X253626Y201175D01*
X253635Y201284D01*
X253628Y201316D01*
X253628Y201348D01*
X253599Y201453D01*
X253577Y201560D01*
X253562Y201589D01*
X253553Y201620D01*
X253496Y201713D01*
X253445Y201809D01*
X253422Y201832D01*
X253405Y201860D01*
X253324Y201933D01*
X253248Y202011D01*
X253220Y202027D01*
X253196Y202049D01*
X253098Y202096D01*
X253002Y202150D01*
X252971Y202158D01*
X252942Y202172D01*
X252853Y202186D01*
X252728Y202215D01*
X252679Y202213D01*
X252637Y202219D01*
X247818Y202219D01*
X247723Y202206D01*
X247627Y202201D01*
X247584Y202186D01*
X247539Y202179D01*
X247452Y202140D01*
X247361Y202108D01*
X247326Y202083D01*
X247282Y202063D01*
X247185Y201980D01*
X247112Y201927D01*
X244878Y199693D01*
X243011Y198919D01*
X140275Y198919D01*
X140180Y198906D01*
X140084Y198901D01*
X140041Y198886D01*
X139996Y198879D01*
X139908Y198840D01*
X139817Y198808D01*
X139783Y198783D01*
X139739Y198763D01*
X139641Y198680D01*
X139593Y198645D01*
X137258Y197677D01*
X134742Y197677D01*
X132418Y198640D01*
X130640Y200418D01*
X129677Y202742D01*
X129677Y205258D01*
X130640Y207582D01*
X131192Y208133D01*
X131211Y208159D01*
X131236Y208180D01*
X131296Y208272D01*
X131361Y208359D01*
X131372Y208389D01*
X131390Y208416D01*
X131422Y208521D01*
X131461Y208623D01*
X131463Y208655D01*
X131472Y208686D01*
X131474Y208795D01*
X131482Y208904D01*
X131476Y208936D01*
X131476Y208968D01*
X131447Y209073D01*
X131425Y209180D01*
X131410Y209209D01*
X131401Y209240D01*
X131344Y209333D01*
X131292Y209429D01*
X131270Y209452D01*
X131253Y209480D01*
X131172Y209553D01*
X131096Y209631D01*
X131068Y209647D01*
X131044Y209669D01*
X130945Y209716D01*
X130850Y209770D01*
X130819Y209778D01*
X130790Y209792D01*
X130700Y209806D01*
X130576Y209835D01*
X130527Y209833D01*
X130485Y209839D01*
X11160Y209839D01*
X11096Y209830D01*
X11032Y209831D01*
X10957Y209810D01*
X10881Y209799D01*
X10822Y209773D01*
X10760Y209756D01*
X10694Y209715D01*
X10624Y209683D01*
X10575Y209641D01*
X10520Y209608D01*
X10468Y209550D01*
X10410Y209500D01*
X10374Y209446D01*
X10331Y209398D01*
X10298Y209329D01*
X10255Y209264D01*
X10236Y209202D01*
X10208Y209145D01*
X10197Y209075D01*
X10173Y208994D01*
X10172Y208909D01*
X10161Y208840D01*
X10161Y11160D01*
X10170Y11096D01*
X10169Y11032D01*
X10190Y10957D01*
X10201Y10881D01*
X10227Y10822D01*
X10244Y10760D01*
X10285Y10694D01*
X10317Y10624D01*
X10359Y10575D01*
X10392Y10520D01*
X10450Y10468D01*
X10500Y10410D01*
X10554Y10374D01*
X10602Y10331D01*
X10671Y10298D01*
X10736Y10255D01*
X10798Y10236D01*
X10855Y10208D01*
X10925Y10197D01*
X11006Y10173D01*
X11091Y10172D01*
X11160Y10161D01*
X222251Y10161D01*
X222368Y10177D01*
G37*
%LPC*%
G36*
X240742Y162677D02*
X240742Y162677D01*
X238418Y163640D01*
X237162Y164897D01*
X237085Y164954D01*
X237014Y165019D01*
X236973Y165039D01*
X236936Y165066D01*
X236846Y165100D01*
X236760Y165142D01*
X236718Y165148D01*
X236672Y165165D01*
X236545Y165175D01*
X236455Y165189D01*
X232422Y165189D01*
X221226Y176385D01*
X221149Y176442D01*
X221078Y176507D01*
X221037Y176527D01*
X221001Y176554D01*
X220911Y176588D01*
X220824Y176630D01*
X220782Y176636D01*
X220737Y176653D01*
X220609Y176663D01*
X220520Y176677D01*
X218742Y176677D01*
X216418Y177640D01*
X214640Y179418D01*
X213677Y181742D01*
X213677Y184258D01*
X214640Y186582D01*
X216418Y188360D01*
X218742Y189323D01*
X221258Y189323D01*
X223582Y188360D01*
X225360Y186582D01*
X226323Y184258D01*
X226323Y182480D01*
X226336Y182385D01*
X226341Y182289D01*
X226356Y182246D01*
X226363Y182201D01*
X226402Y182114D01*
X226434Y182023D01*
X226459Y181988D01*
X226479Y181944D01*
X226562Y181847D01*
X226615Y181774D01*
X235286Y173103D01*
X235363Y173046D01*
X235434Y172981D01*
X235475Y172961D01*
X235511Y172934D01*
X235601Y172900D01*
X235688Y172858D01*
X235730Y172852D01*
X235775Y172835D01*
X235903Y172825D01*
X235992Y172811D01*
X236455Y172811D01*
X236550Y172824D01*
X236646Y172829D01*
X236689Y172844D01*
X236734Y172851D01*
X236822Y172890D01*
X236913Y172922D01*
X236947Y172947D01*
X236991Y172967D01*
X237089Y173050D01*
X237162Y173103D01*
X238418Y174360D01*
X240742Y175323D01*
X243258Y175323D01*
X245582Y174360D01*
X247360Y172582D01*
X248323Y170258D01*
X248323Y167742D01*
X247360Y165418D01*
X245582Y163640D01*
X243258Y162677D01*
X240742Y162677D01*
G37*
%LPD*%
%LPC*%
G36*
X145999Y152999D02*
X145999Y152999D01*
X145999Y169001D01*
X154541Y169001D01*
X154541Y161666D01*
X154432Y161259D01*
X154426Y161215D01*
X154422Y161202D01*
X154422Y161179D01*
X154419Y161153D01*
X154399Y161048D01*
X154402Y161015D01*
X154398Y160979D01*
X154422Y160832D01*
X154432Y160741D01*
X154541Y160334D01*
X154541Y152999D01*
X145999Y152999D01*
G37*
%LPD*%
%LPC*%
G36*
X133459Y152999D02*
X133459Y152999D01*
X133459Y160334D01*
X133568Y160741D01*
X133581Y160847D01*
X133601Y160952D01*
X133598Y160985D01*
X133602Y161021D01*
X133581Y161150D01*
X133581Y161175D01*
X133575Y161200D01*
X133568Y161259D01*
X133459Y161666D01*
X133459Y169001D01*
X142001Y169001D01*
X142001Y152999D01*
X133459Y152999D01*
G37*
%LPD*%
%LPC*%
G36*
X145999Y172999D02*
X145999Y172999D01*
X145999Y182541D01*
X152335Y182541D01*
X152981Y182368D01*
X153560Y182033D01*
X154033Y181560D01*
X154368Y180981D01*
X154541Y180335D01*
X154541Y172999D01*
X145999Y172999D01*
G37*
%LPD*%
%LPC*%
G36*
X145999Y139459D02*
X145999Y139459D01*
X145999Y149001D01*
X154541Y149001D01*
X154541Y141665D01*
X154368Y141019D01*
X154033Y140440D01*
X153560Y139967D01*
X152981Y139632D01*
X152335Y139459D01*
X145999Y139459D01*
G37*
%LPD*%
%LPC*%
G36*
X133459Y172999D02*
X133459Y172999D01*
X133459Y180335D01*
X133632Y180981D01*
X133967Y181560D01*
X134440Y182033D01*
X135019Y182368D01*
X135665Y182541D01*
X142001Y182541D01*
X142001Y172999D01*
X133459Y172999D01*
G37*
%LPD*%
%LPC*%
G36*
X135665Y139459D02*
X135665Y139459D01*
X135019Y139632D01*
X134440Y139967D01*
X133967Y140440D01*
X133632Y141019D01*
X133459Y141665D01*
X133459Y149001D01*
X142001Y149001D01*
X142001Y139459D01*
X135665Y139459D01*
G37*
%LPD*%
%LPC*%
G36*
X263999Y184639D02*
X263999Y184639D01*
X263999Y192801D01*
X272161Y192801D01*
X272161Y190591D01*
X266209Y184639D01*
X263999Y184639D01*
G37*
%LPD*%
%LPC*%
G36*
X257791Y184639D02*
X257791Y184639D01*
X251839Y190591D01*
X251839Y192801D01*
X260001Y192801D01*
X260001Y184639D01*
X257791Y184639D01*
G37*
%LPD*%
%LPC*%
G36*
X304999Y46299D02*
X304999Y46299D01*
X304999Y52341D01*
X308335Y52341D01*
X308981Y52168D01*
X309560Y51833D01*
X310033Y51360D01*
X310368Y50781D01*
X310541Y50135D01*
X310541Y46299D01*
X304999Y46299D01*
G37*
%LPD*%
%LPC*%
G36*
X304999Y36259D02*
X304999Y36259D01*
X304999Y42301D01*
X310541Y42301D01*
X310541Y38465D01*
X310368Y37819D01*
X310033Y37240D01*
X309560Y36767D01*
X308981Y36432D01*
X308335Y36259D01*
X304999Y36259D01*
G37*
%LPD*%
%LPC*%
G36*
X143999Y170999D02*
X143999Y170999D01*
X143999Y171001D01*
X144001Y171001D01*
X144001Y170999D01*
X143999Y170999D01*
G37*
%LPD*%
%LPC*%
G36*
X143999Y150999D02*
X143999Y150999D01*
X143999Y151001D01*
X144001Y151001D01*
X144001Y150999D01*
X143999Y150999D01*
G37*
%LPD*%
D10*
X247700Y19400D03*
D11*
X273100Y19400D03*
X298500Y19400D03*
D12*
X271900Y44300D03*
X254900Y44300D03*
X303000Y44300D03*
X286000Y44300D03*
D10*
X312800Y194800D03*
D13*
X287400Y194800D03*
X262000Y194800D03*
D14*
X144000Y151000D03*
X172000Y151000D03*
X144000Y171000D03*
X172000Y171000D03*
D12*
X201500Y31000D03*
X184500Y31000D03*
D15*
X253000Y156000D03*
D16*
X254000Y156000D02*
X274000Y176000D01*
X254000Y156000D02*
X253000Y156000D01*
D15*
X274000Y176000D03*
X71000Y121000D03*
D17*
X127000Y177000D01*
X127000Y186000D01*
D15*
X127000Y186000D03*
D17*
X144000Y171000D02*
X144000Y151000D01*
X144000Y169000D01*
X127000Y186000D01*
X71000Y121000D02*
X71000Y107000D01*
X50000Y86000D01*
X50000Y52000D01*
X81000Y21000D02*
X122000Y21000D01*
D15*
X122000Y21000D03*
D17*
X81000Y21000D02*
X50000Y52000D01*
D15*
X324000Y49000D03*
D17*
X163000Y190000D02*
X144000Y171000D01*
X163000Y190000D02*
X197000Y190000D01*
X199000Y192000D02*
X263500Y127500D01*
X261000Y193800D02*
X262000Y194800D01*
X261000Y193800D02*
X200800Y193800D01*
X199000Y192000D01*
X197000Y190000D01*
D16*
X303000Y44300D02*
X319300Y44300D01*
X324000Y49000D01*
D17*
X263500Y106500D02*
X263500Y127500D01*
X321000Y49000D02*
X324000Y49000D01*
X271000Y99000D02*
X263500Y106500D01*
X271000Y99000D02*
X321000Y49000D01*
D15*
X333000Y157000D03*
D17*
X275000Y99000D01*
X271000Y99000D01*
D15*
X136000Y204000D03*
D17*
X242000Y204000D01*
X245300Y207300D01*
X274900Y207300D01*
X287400Y194800D01*
D15*
X285000Y135000D03*
D17*
X285000Y192400D01*
X287400Y194800D01*
D15*
X352000Y68000D03*
D17*
X352000Y107000D01*
X349000Y110000D01*
D15*
X349000Y110000D03*
D17*
X349000Y159000D01*
X351000Y161000D01*
D15*
X351000Y161000D03*
D17*
X351000Y194058D01*
X339000Y206058D01*
D15*
X339000Y206058D03*
X350000Y19000D03*
D17*
X350000Y33000D01*
X350000Y66000D01*
X352000Y68000D01*
D15*
X69000Y66000D03*
D17*
X85000Y66000D01*
X127000Y66000D01*
X212000Y151000D02*
X212000Y167000D01*
X212000Y151000D02*
X127000Y66000D01*
D15*
X212000Y167000D03*
D17*
X196000Y151000D01*
X172000Y151000D01*
X172000Y171000D01*
D16*
X102000Y66000D02*
X85000Y66000D01*
X137000Y31000D02*
X184500Y31000D01*
X137000Y31000D02*
X102000Y66000D01*
X212000Y154000D02*
X212000Y167000D01*
X212000Y154000D02*
X245900Y120100D01*
X245900Y53300D01*
X254900Y44300D01*
D15*
X180058Y182154D03*
D17*
X196846Y182154D01*
X212000Y167000D01*
D15*
X229000Y73000D03*
D16*
X256494Y36006D02*
X273100Y19400D01*
X256494Y36006D02*
X248743Y36006D01*
X229000Y55749D01*
X229000Y73000D01*
D15*
X220000Y183000D03*
D16*
X234000Y169000D01*
X242000Y169000D01*
D15*
X242000Y169000D03*
X254000Y102000D03*
D16*
X254000Y123000D01*
X225000Y152000D01*
D15*
X225000Y152000D03*
X285000Y123000D03*
D16*
X287000Y123000D02*
X335000Y171000D01*
X287000Y123000D02*
X285000Y123000D01*
X335000Y171000D02*
X343000Y171000D01*
D15*
X343000Y171000D03*
X302000Y112000D03*
D16*
X327000Y112000D01*
X340000Y125000D01*
D15*
X340000Y125000D03*
X309000Y104000D03*
X341000Y73000D03*
D16*
X341000Y77300D01*
X314300Y104000D02*
X309000Y104000D01*
X314300Y104000D02*
X341000Y77300D01*
D15*
X310000Y94000D03*
D16*
X336000Y68000D01*
X336000Y48000D01*
D15*
X336000Y48000D03*
D16*
X286000Y44300D02*
X271900Y44300D01*
X258000Y58200D01*
X258000Y91000D01*
D15*
X258000Y91000D03*
X208000Y51000D03*
X224000Y48000D03*
D16*
X211000Y48000D01*
X208000Y51000D01*
D15*
X226000Y129000D03*
X229000Y14000D03*
D16*
X195343Y22706D02*
X193706Y24343D01*
X193706Y96706D02*
X226000Y129000D01*
X193706Y96706D02*
X193706Y24343D01*
X220294Y22706D02*
X229000Y14000D01*
X220294Y22706D02*
X195343Y22706D01*
X236100Y31000D02*
X247700Y19400D01*
X236100Y31000D02*
X201500Y31000D01*
M02*
