G04 EAGLE Gerber RS-274X export*
G75*
%MOMM*%
%FSLAX34Y34*%
%LPD*%
%INSilkscreen Bottom*%
%IPPOS*%
%AMOC8*
5,1,8,0,0,1.08239X$1,22.5*%
G01*
%ADD10C,0.050800*%

G36*
X170540Y39272D02*
X170540Y39272D01*
X170592Y39277D01*
X170614Y39291D01*
X170625Y39293D01*
X170633Y39302D01*
X170662Y39320D01*
X171551Y40082D01*
X171552Y40083D01*
X171554Y40085D01*
X172697Y41101D01*
X172700Y41105D01*
X172708Y41111D01*
X173597Y42000D01*
X173600Y42004D01*
X173607Y42011D01*
X174623Y43154D01*
X174639Y43186D01*
X174653Y43202D01*
X174655Y43218D01*
X174679Y43257D01*
X174679Y43270D01*
X174684Y43281D01*
X174677Y43340D01*
X174676Y43398D01*
X174668Y43413D01*
X174667Y43421D01*
X174659Y43431D01*
X174639Y43471D01*
X171053Y48417D01*
X171859Y49798D01*
X171860Y49804D01*
X171867Y49813D01*
X172375Y50829D01*
X172377Y50841D01*
X172391Y50869D01*
X172772Y52139D01*
X172772Y52140D01*
X172773Y52142D01*
X173236Y53766D01*
X179301Y54756D01*
X179360Y54784D01*
X179420Y54810D01*
X179423Y54814D01*
X179428Y54817D01*
X179463Y54872D01*
X179500Y54926D01*
X179501Y54933D01*
X179503Y54936D01*
X179503Y54945D01*
X179513Y55006D01*
X179513Y60594D01*
X179495Y60657D01*
X179479Y60721D01*
X179476Y60724D01*
X179474Y60729D01*
X179425Y60773D01*
X179378Y60818D01*
X179371Y60820D01*
X179369Y60823D01*
X179360Y60824D01*
X179301Y60844D01*
X173215Y61838D01*
X172896Y62583D01*
X172519Y63963D01*
X172513Y63973D01*
X172505Y64002D01*
X171743Y65653D01*
X171737Y65660D01*
X171730Y65677D01*
X171052Y66808D01*
X174516Y71881D01*
X174536Y71940D01*
X174559Y71999D01*
X174557Y72007D01*
X174560Y72015D01*
X174545Y72076D01*
X174534Y72137D01*
X174527Y72146D01*
X174526Y72152D01*
X174517Y72160D01*
X174486Y72203D01*
X173857Y72833D01*
X172845Y73970D01*
X172841Y73973D01*
X172835Y73981D01*
X171565Y75251D01*
X171556Y75256D01*
X171541Y75272D01*
X170398Y76161D01*
X170351Y76180D01*
X170308Y76206D01*
X170287Y76205D01*
X170268Y76213D01*
X170218Y76204D01*
X170167Y76203D01*
X170141Y76189D01*
X170129Y76187D01*
X170120Y76179D01*
X170094Y76166D01*
X165147Y72579D01*
X163511Y73514D01*
X163500Y73516D01*
X163479Y73529D01*
X162209Y74037D01*
X162204Y74038D01*
X162195Y74042D01*
X160435Y74629D01*
X159444Y80575D01*
X159421Y80622D01*
X159405Y80673D01*
X159391Y80685D01*
X159383Y80702D01*
X159338Y80730D01*
X159298Y80764D01*
X159273Y80771D01*
X159263Y80777D01*
X159251Y80776D01*
X159219Y80785D01*
X157949Y80912D01*
X157941Y80911D01*
X157924Y80913D01*
X155003Y80913D01*
X154996Y80911D01*
X154982Y80912D01*
X153458Y80785D01*
X153408Y80766D01*
X153357Y80755D01*
X153344Y80742D01*
X153326Y80735D01*
X153295Y80693D01*
X153257Y80655D01*
X153249Y80631D01*
X153242Y80622D01*
X153241Y80610D01*
X153230Y80579D01*
X152117Y74521D01*
X151138Y74303D01*
X151127Y74297D01*
X151090Y74287D01*
X148804Y73271D01*
X148798Y73267D01*
X148784Y73261D01*
X147780Y72704D01*
X142703Y76295D01*
X142661Y76309D01*
X142624Y76332D01*
X142596Y76332D01*
X142570Y76341D01*
X142527Y76331D01*
X142483Y76330D01*
X142445Y76312D01*
X142433Y76309D01*
X142427Y76302D01*
X142410Y76294D01*
X141521Y75659D01*
X141516Y75653D01*
X141501Y75644D01*
X140485Y74755D01*
X140482Y74750D01*
X140473Y74743D01*
X139203Y73473D01*
X139199Y73465D01*
X139184Y73452D01*
X138168Y72182D01*
X138148Y72134D01*
X138121Y72090D01*
X138122Y72070D01*
X138114Y72052D01*
X138123Y72001D01*
X138124Y71949D01*
X138136Y71924D01*
X138138Y71913D01*
X138146Y71904D01*
X138160Y71876D01*
X141627Y67048D01*
X141572Y66938D01*
X140687Y65421D01*
X140685Y65412D01*
X140675Y65398D01*
X140040Y64001D01*
X140039Y63991D01*
X140029Y63970D01*
X139566Y62466D01*
X133494Y61351D01*
X133449Y61328D01*
X133400Y61313D01*
X133387Y61297D01*
X133368Y61288D01*
X133342Y61244D01*
X133309Y61206D01*
X133301Y61178D01*
X133295Y61167D01*
X133296Y61156D01*
X133288Y61127D01*
X133161Y59857D01*
X133161Y59856D01*
X133161Y59855D01*
X133034Y58458D01*
X133035Y58450D01*
X133033Y58435D01*
X133033Y55514D01*
X133050Y55453D01*
X133064Y55392D01*
X133070Y55386D01*
X133072Y55379D01*
X133119Y55337D01*
X133164Y55292D01*
X133173Y55289D01*
X133177Y55285D01*
X133188Y55283D01*
X133240Y55265D01*
X139303Y54151D01*
X139771Y52278D01*
X139775Y52272D01*
X139777Y52259D01*
X140285Y50735D01*
X140292Y50724D01*
X140306Y50687D01*
X141114Y49302D01*
X137523Y44101D01*
X137507Y44055D01*
X137484Y44013D01*
X137485Y43990D01*
X137478Y43967D01*
X137489Y43921D01*
X137492Y43873D01*
X137509Y43843D01*
X137512Y43830D01*
X137519Y43823D01*
X137531Y43802D01*
X138420Y42659D01*
X138425Y42655D01*
X138431Y42646D01*
X139447Y41503D01*
X139451Y41500D01*
X139457Y41492D01*
X140346Y40603D01*
X140351Y40600D01*
X140358Y40591D01*
X141374Y39702D01*
X141425Y39679D01*
X141472Y39649D01*
X141488Y39649D01*
X141502Y39643D01*
X141557Y39650D01*
X141613Y39650D01*
X141632Y39659D01*
X141642Y39661D01*
X141652Y39669D01*
X141686Y39686D01*
X146624Y43142D01*
X148005Y42222D01*
X148017Y42218D01*
X148048Y42199D01*
X149572Y41564D01*
X149589Y41562D01*
X149605Y41553D01*
X149658Y41554D01*
X149712Y41548D01*
X149728Y41556D01*
X149745Y41557D01*
X149790Y41586D01*
X149838Y41610D01*
X149848Y41625D01*
X149863Y41635D01*
X149904Y41704D01*
X153841Y51610D01*
X153847Y51674D01*
X153857Y51737D01*
X153854Y51743D01*
X153855Y51751D01*
X153826Y51808D01*
X153801Y51866D01*
X153794Y51872D01*
X153791Y51877D01*
X153782Y51882D01*
X153740Y51919D01*
X152597Y52628D01*
X151642Y53537D01*
X150892Y54622D01*
X150379Y55837D01*
X150125Y57131D01*
X150139Y58449D01*
X150423Y59737D01*
X150963Y60940D01*
X151737Y62007D01*
X152712Y62895D01*
X153848Y63565D01*
X155096Y63989D01*
X156404Y64149D01*
X157757Y64030D01*
X159052Y63623D01*
X160229Y62949D01*
X161235Y62038D01*
X162023Y60933D01*
X162556Y59685D01*
X162809Y58352D01*
X162771Y56995D01*
X162444Y55678D01*
X161842Y54462D01*
X160993Y53403D01*
X159938Y52550D01*
X158700Y51930D01*
X158649Y51883D01*
X158597Y51836D01*
X158597Y51835D01*
X158596Y51835D01*
X158578Y51767D01*
X158560Y51700D01*
X158560Y51699D01*
X158560Y51697D01*
X158574Y51620D01*
X162130Y41460D01*
X162150Y41433D01*
X162160Y41401D01*
X162190Y41377D01*
X162212Y41346D01*
X162243Y41333D01*
X162269Y41311D01*
X162307Y41307D01*
X162342Y41292D01*
X162375Y41298D01*
X162409Y41294D01*
X162475Y41316D01*
X162481Y41317D01*
X162482Y41318D01*
X162486Y41319D01*
X165273Y42773D01*
X170354Y39303D01*
X170405Y39286D01*
X170452Y39263D01*
X170471Y39265D01*
X170488Y39259D01*
X170540Y39272D01*
G37*
D10*
X187069Y31694D02*
X187069Y33275D01*
X187068Y33275D02*
X187066Y33354D01*
X187060Y33432D01*
X187050Y33510D01*
X187037Y33588D01*
X187019Y33665D01*
X186998Y33741D01*
X186973Y33815D01*
X186944Y33889D01*
X186912Y33961D01*
X186876Y34031D01*
X186836Y34099D01*
X186793Y34165D01*
X186747Y34229D01*
X186698Y34291D01*
X186646Y34350D01*
X186591Y34406D01*
X186533Y34460D01*
X186473Y34510D01*
X186410Y34558D01*
X186345Y34602D01*
X186278Y34643D01*
X186209Y34681D01*
X186138Y34715D01*
X186065Y34746D01*
X185991Y34773D01*
X185916Y34796D01*
X185840Y34815D01*
X185762Y34831D01*
X185684Y34843D01*
X185606Y34851D01*
X185527Y34855D01*
X185449Y34855D01*
X185370Y34851D01*
X185292Y34843D01*
X185214Y34831D01*
X185136Y34815D01*
X185060Y34796D01*
X184985Y34773D01*
X184911Y34746D01*
X184838Y34715D01*
X184767Y34681D01*
X184698Y34643D01*
X184631Y34602D01*
X184566Y34558D01*
X184503Y34510D01*
X184443Y34460D01*
X184385Y34406D01*
X184330Y34350D01*
X184278Y34291D01*
X184229Y34229D01*
X184183Y34165D01*
X184140Y34099D01*
X184100Y34031D01*
X184064Y33961D01*
X184032Y33889D01*
X184003Y33815D01*
X183978Y33741D01*
X183957Y33665D01*
X183939Y33588D01*
X183926Y33510D01*
X183916Y33432D01*
X183910Y33354D01*
X183908Y33275D01*
X183908Y31694D01*
X183910Y31615D01*
X183916Y31537D01*
X183926Y31459D01*
X183939Y31381D01*
X183957Y31304D01*
X183978Y31228D01*
X184003Y31154D01*
X184032Y31080D01*
X184064Y31008D01*
X184100Y30938D01*
X184140Y30870D01*
X184183Y30804D01*
X184229Y30740D01*
X184278Y30678D01*
X184330Y30619D01*
X184385Y30563D01*
X184443Y30509D01*
X184503Y30459D01*
X184566Y30411D01*
X184631Y30367D01*
X184698Y30326D01*
X184767Y30288D01*
X184838Y30254D01*
X184911Y30223D01*
X184985Y30196D01*
X185060Y30173D01*
X185136Y30154D01*
X185214Y30138D01*
X185292Y30126D01*
X185370Y30118D01*
X185449Y30114D01*
X185527Y30114D01*
X185606Y30118D01*
X185684Y30126D01*
X185762Y30138D01*
X185840Y30154D01*
X185916Y30173D01*
X185991Y30196D01*
X186065Y30223D01*
X186138Y30254D01*
X186209Y30288D01*
X186278Y30326D01*
X186345Y30367D01*
X186410Y30411D01*
X186473Y30459D01*
X186533Y30509D01*
X186591Y30563D01*
X186646Y30619D01*
X186698Y30678D01*
X186747Y30740D01*
X186793Y30804D01*
X186836Y30870D01*
X186876Y30938D01*
X186912Y31008D01*
X186944Y31080D01*
X186973Y31154D01*
X186998Y31228D01*
X187019Y31304D01*
X187037Y31381D01*
X187050Y31459D01*
X187060Y31537D01*
X187066Y31615D01*
X187068Y31694D01*
X180864Y34855D02*
X180864Y27743D01*
X180864Y34855D02*
X178889Y34855D01*
X178823Y34853D01*
X178756Y34848D01*
X178691Y34838D01*
X178625Y34825D01*
X178561Y34809D01*
X178498Y34789D01*
X178436Y34765D01*
X178375Y34738D01*
X178316Y34707D01*
X178259Y34673D01*
X178203Y34636D01*
X178150Y34596D01*
X178099Y34554D01*
X178051Y34508D01*
X178005Y34460D01*
X177963Y34409D01*
X177923Y34356D01*
X177886Y34300D01*
X177852Y34243D01*
X177821Y34184D01*
X177794Y34124D01*
X177771Y34061D01*
X177750Y33998D01*
X177734Y33934D01*
X177721Y33869D01*
X177711Y33803D01*
X177706Y33737D01*
X177704Y33670D01*
X177703Y33670D02*
X177703Y31299D01*
X177704Y31299D02*
X177706Y31233D01*
X177711Y31166D01*
X177721Y31101D01*
X177734Y31035D01*
X177750Y30971D01*
X177771Y30908D01*
X177794Y30846D01*
X177821Y30785D01*
X177852Y30726D01*
X177886Y30669D01*
X177923Y30613D01*
X177963Y30560D01*
X178005Y30509D01*
X178051Y30461D01*
X178099Y30415D01*
X178150Y30373D01*
X178203Y30333D01*
X178259Y30296D01*
X178316Y30262D01*
X178375Y30231D01*
X178436Y30204D01*
X178498Y30180D01*
X178561Y30160D01*
X178625Y30144D01*
X178691Y30131D01*
X178756Y30121D01*
X178823Y30116D01*
X178889Y30114D01*
X180864Y30114D01*
X173768Y30114D02*
X171792Y30114D01*
X173768Y30114D02*
X173834Y30116D01*
X173901Y30121D01*
X173966Y30131D01*
X174032Y30144D01*
X174096Y30160D01*
X174159Y30180D01*
X174221Y30204D01*
X174282Y30231D01*
X174341Y30262D01*
X174398Y30296D01*
X174454Y30333D01*
X174507Y30373D01*
X174558Y30415D01*
X174606Y30461D01*
X174652Y30509D01*
X174694Y30560D01*
X174734Y30613D01*
X174771Y30669D01*
X174805Y30726D01*
X174836Y30785D01*
X174863Y30846D01*
X174887Y30908D01*
X174907Y30971D01*
X174923Y31035D01*
X174936Y31101D01*
X174946Y31166D01*
X174951Y31233D01*
X174953Y31299D01*
X174953Y33275D01*
X174951Y33354D01*
X174945Y33432D01*
X174935Y33510D01*
X174922Y33588D01*
X174904Y33665D01*
X174883Y33741D01*
X174858Y33815D01*
X174829Y33889D01*
X174797Y33961D01*
X174761Y34031D01*
X174721Y34099D01*
X174678Y34165D01*
X174632Y34229D01*
X174583Y34291D01*
X174531Y34350D01*
X174476Y34406D01*
X174418Y34460D01*
X174358Y34510D01*
X174295Y34558D01*
X174230Y34602D01*
X174163Y34643D01*
X174094Y34681D01*
X174023Y34715D01*
X173950Y34746D01*
X173876Y34773D01*
X173801Y34796D01*
X173725Y34815D01*
X173647Y34831D01*
X173569Y34843D01*
X173491Y34851D01*
X173412Y34855D01*
X173334Y34855D01*
X173255Y34851D01*
X173177Y34843D01*
X173099Y34831D01*
X173021Y34815D01*
X172945Y34796D01*
X172870Y34773D01*
X172796Y34746D01*
X172723Y34715D01*
X172652Y34681D01*
X172583Y34643D01*
X172516Y34602D01*
X172451Y34558D01*
X172388Y34510D01*
X172328Y34460D01*
X172270Y34406D01*
X172215Y34350D01*
X172163Y34291D01*
X172114Y34229D01*
X172068Y34165D01*
X172025Y34099D01*
X171985Y34031D01*
X171949Y33961D01*
X171917Y33889D01*
X171888Y33815D01*
X171863Y33741D01*
X171842Y33665D01*
X171824Y33588D01*
X171811Y33510D01*
X171801Y33432D01*
X171795Y33354D01*
X171793Y33275D01*
X171792Y33275D02*
X171792Y32485D01*
X174953Y32485D01*
X168781Y30114D02*
X168781Y34855D01*
X166805Y34855D01*
X166739Y34853D01*
X166672Y34848D01*
X166607Y34838D01*
X166541Y34825D01*
X166477Y34809D01*
X166414Y34789D01*
X166352Y34765D01*
X166291Y34738D01*
X166232Y34707D01*
X166175Y34673D01*
X166119Y34636D01*
X166066Y34596D01*
X166015Y34554D01*
X165967Y34508D01*
X165921Y34460D01*
X165879Y34409D01*
X165839Y34356D01*
X165802Y34300D01*
X165768Y34243D01*
X165737Y34184D01*
X165710Y34124D01*
X165687Y34061D01*
X165666Y33998D01*
X165650Y33934D01*
X165637Y33869D01*
X165627Y33803D01*
X165622Y33737D01*
X165620Y33670D01*
X165620Y30114D01*
X158358Y32880D02*
X156383Y32090D01*
X158358Y32880D02*
X158416Y32905D01*
X158472Y32934D01*
X158527Y32966D01*
X158579Y33002D01*
X158629Y33041D01*
X158676Y33082D01*
X158721Y33127D01*
X158763Y33174D01*
X158802Y33223D01*
X158838Y33275D01*
X158871Y33329D01*
X158900Y33385D01*
X158926Y33443D01*
X158948Y33502D01*
X158966Y33563D01*
X158981Y33624D01*
X158992Y33686D01*
X158999Y33749D01*
X159002Y33812D01*
X159001Y33875D01*
X158996Y33938D01*
X158988Y34001D01*
X158975Y34063D01*
X158959Y34124D01*
X158939Y34184D01*
X158916Y34242D01*
X158889Y34299D01*
X158858Y34354D01*
X158824Y34408D01*
X158787Y34459D01*
X158747Y34507D01*
X158704Y34554D01*
X158658Y34597D01*
X158609Y34637D01*
X158558Y34675D01*
X158505Y34709D01*
X158450Y34740D01*
X158393Y34767D01*
X158335Y34791D01*
X158275Y34811D01*
X158214Y34827D01*
X158152Y34840D01*
X158089Y34849D01*
X158027Y34854D01*
X157963Y34855D01*
X157963Y34856D02*
X157832Y34852D01*
X157701Y34844D01*
X157571Y34833D01*
X157441Y34818D01*
X157311Y34798D01*
X157182Y34776D01*
X157054Y34749D01*
X156926Y34719D01*
X156800Y34685D01*
X156674Y34647D01*
X156550Y34606D01*
X156427Y34561D01*
X156305Y34512D01*
X156185Y34460D01*
X156383Y32089D02*
X156325Y32064D01*
X156269Y32035D01*
X156214Y32003D01*
X156162Y31967D01*
X156112Y31928D01*
X156065Y31887D01*
X156020Y31842D01*
X155978Y31795D01*
X155939Y31746D01*
X155903Y31694D01*
X155870Y31640D01*
X155841Y31584D01*
X155815Y31526D01*
X155793Y31467D01*
X155775Y31406D01*
X155760Y31345D01*
X155749Y31283D01*
X155742Y31220D01*
X155739Y31157D01*
X155740Y31094D01*
X155745Y31031D01*
X155753Y30968D01*
X155766Y30906D01*
X155782Y30845D01*
X155802Y30785D01*
X155825Y30727D01*
X155852Y30670D01*
X155883Y30615D01*
X155917Y30561D01*
X155954Y30510D01*
X155994Y30462D01*
X156037Y30415D01*
X156083Y30372D01*
X156132Y30332D01*
X156183Y30294D01*
X156236Y30260D01*
X156291Y30229D01*
X156348Y30202D01*
X156406Y30178D01*
X156466Y30158D01*
X156527Y30142D01*
X156589Y30129D01*
X156652Y30120D01*
X156714Y30115D01*
X156778Y30114D01*
X156936Y30118D01*
X157094Y30126D01*
X157252Y30137D01*
X157410Y30153D01*
X157568Y30172D01*
X157724Y30195D01*
X157881Y30221D01*
X158036Y30251D01*
X158191Y30285D01*
X158345Y30323D01*
X158498Y30364D01*
X158650Y30409D01*
X158801Y30457D01*
X158951Y30509D01*
X153008Y31694D02*
X153008Y33275D01*
X153007Y33275D02*
X153005Y33354D01*
X152999Y33432D01*
X152989Y33510D01*
X152976Y33588D01*
X152958Y33665D01*
X152937Y33741D01*
X152912Y33815D01*
X152883Y33889D01*
X152851Y33961D01*
X152815Y34031D01*
X152775Y34099D01*
X152732Y34165D01*
X152686Y34229D01*
X152637Y34291D01*
X152585Y34350D01*
X152530Y34406D01*
X152472Y34460D01*
X152412Y34510D01*
X152349Y34558D01*
X152284Y34602D01*
X152217Y34643D01*
X152148Y34681D01*
X152077Y34715D01*
X152004Y34746D01*
X151930Y34773D01*
X151855Y34796D01*
X151779Y34815D01*
X151701Y34831D01*
X151623Y34843D01*
X151545Y34851D01*
X151466Y34855D01*
X151388Y34855D01*
X151309Y34851D01*
X151231Y34843D01*
X151153Y34831D01*
X151075Y34815D01*
X150999Y34796D01*
X150924Y34773D01*
X150850Y34746D01*
X150777Y34715D01*
X150706Y34681D01*
X150637Y34643D01*
X150570Y34602D01*
X150505Y34558D01*
X150442Y34510D01*
X150382Y34460D01*
X150324Y34406D01*
X150269Y34350D01*
X150217Y34291D01*
X150168Y34229D01*
X150122Y34165D01*
X150079Y34099D01*
X150039Y34031D01*
X150003Y33961D01*
X149971Y33889D01*
X149942Y33815D01*
X149917Y33741D01*
X149896Y33665D01*
X149878Y33588D01*
X149865Y33510D01*
X149855Y33432D01*
X149849Y33354D01*
X149847Y33275D01*
X149847Y31694D01*
X149849Y31615D01*
X149855Y31537D01*
X149865Y31459D01*
X149878Y31381D01*
X149896Y31304D01*
X149917Y31228D01*
X149942Y31154D01*
X149971Y31080D01*
X150003Y31008D01*
X150039Y30938D01*
X150079Y30870D01*
X150122Y30804D01*
X150168Y30740D01*
X150217Y30678D01*
X150269Y30619D01*
X150324Y30563D01*
X150382Y30509D01*
X150442Y30459D01*
X150505Y30411D01*
X150570Y30367D01*
X150637Y30326D01*
X150706Y30288D01*
X150777Y30254D01*
X150850Y30223D01*
X150924Y30196D01*
X150999Y30173D01*
X151075Y30154D01*
X151153Y30138D01*
X151231Y30126D01*
X151309Y30118D01*
X151388Y30114D01*
X151466Y30114D01*
X151545Y30118D01*
X151623Y30126D01*
X151701Y30138D01*
X151779Y30154D01*
X151855Y30173D01*
X151930Y30196D01*
X152004Y30223D01*
X152077Y30254D01*
X152148Y30288D01*
X152217Y30326D01*
X152284Y30367D01*
X152349Y30411D01*
X152412Y30459D01*
X152472Y30509D01*
X152530Y30563D01*
X152585Y30619D01*
X152637Y30678D01*
X152686Y30740D01*
X152732Y30804D01*
X152775Y30870D01*
X152815Y30938D01*
X152851Y31008D01*
X152883Y31080D01*
X152912Y31154D01*
X152937Y31228D01*
X152958Y31304D01*
X152976Y31381D01*
X152989Y31459D01*
X152999Y31537D01*
X153005Y31615D01*
X153007Y31694D01*
X146835Y31299D02*
X146835Y34855D01*
X146835Y31299D02*
X146833Y31233D01*
X146828Y31166D01*
X146818Y31101D01*
X146805Y31035D01*
X146789Y30971D01*
X146769Y30908D01*
X146745Y30846D01*
X146718Y30785D01*
X146687Y30726D01*
X146653Y30669D01*
X146616Y30613D01*
X146576Y30560D01*
X146534Y30509D01*
X146488Y30461D01*
X146440Y30415D01*
X146389Y30373D01*
X146336Y30333D01*
X146280Y30296D01*
X146223Y30262D01*
X146164Y30231D01*
X146103Y30204D01*
X146041Y30180D01*
X145978Y30160D01*
X145914Y30144D01*
X145848Y30131D01*
X145783Y30121D01*
X145716Y30116D01*
X145650Y30114D01*
X143674Y30114D01*
X143674Y34855D01*
X140398Y34855D02*
X140398Y30114D01*
X140398Y34855D02*
X138027Y34855D01*
X138027Y34065D01*
X134670Y30114D02*
X133090Y30114D01*
X134670Y30114D02*
X134736Y30116D01*
X134803Y30121D01*
X134868Y30131D01*
X134934Y30144D01*
X134998Y30160D01*
X135061Y30180D01*
X135123Y30204D01*
X135184Y30231D01*
X135243Y30262D01*
X135300Y30296D01*
X135356Y30333D01*
X135409Y30373D01*
X135460Y30415D01*
X135508Y30461D01*
X135554Y30509D01*
X135596Y30560D01*
X135636Y30613D01*
X135673Y30669D01*
X135707Y30726D01*
X135738Y30785D01*
X135765Y30846D01*
X135789Y30908D01*
X135809Y30971D01*
X135825Y31035D01*
X135838Y31101D01*
X135848Y31166D01*
X135853Y31233D01*
X135855Y31299D01*
X135855Y33670D01*
X135853Y33736D01*
X135848Y33803D01*
X135838Y33868D01*
X135825Y33934D01*
X135809Y33998D01*
X135789Y34061D01*
X135765Y34123D01*
X135738Y34184D01*
X135707Y34243D01*
X135673Y34300D01*
X135636Y34356D01*
X135596Y34409D01*
X135554Y34460D01*
X135508Y34508D01*
X135460Y34554D01*
X135409Y34596D01*
X135356Y34636D01*
X135300Y34673D01*
X135243Y34707D01*
X135184Y34738D01*
X135123Y34765D01*
X135061Y34789D01*
X134998Y34809D01*
X134934Y34825D01*
X134868Y34838D01*
X134803Y34848D01*
X134736Y34853D01*
X134670Y34855D01*
X133090Y34855D01*
X129420Y30114D02*
X127444Y30114D01*
X129420Y30114D02*
X129486Y30116D01*
X129553Y30121D01*
X129618Y30131D01*
X129684Y30144D01*
X129748Y30160D01*
X129811Y30180D01*
X129873Y30204D01*
X129934Y30231D01*
X129993Y30262D01*
X130050Y30296D01*
X130106Y30333D01*
X130159Y30373D01*
X130210Y30415D01*
X130258Y30461D01*
X130304Y30509D01*
X130346Y30560D01*
X130386Y30613D01*
X130423Y30669D01*
X130457Y30726D01*
X130488Y30785D01*
X130515Y30846D01*
X130539Y30908D01*
X130559Y30971D01*
X130575Y31035D01*
X130588Y31101D01*
X130598Y31166D01*
X130603Y31233D01*
X130605Y31299D01*
X130605Y33275D01*
X130604Y33275D02*
X130602Y33354D01*
X130596Y33432D01*
X130586Y33510D01*
X130573Y33588D01*
X130555Y33665D01*
X130534Y33741D01*
X130509Y33815D01*
X130480Y33889D01*
X130448Y33961D01*
X130412Y34031D01*
X130372Y34099D01*
X130329Y34165D01*
X130283Y34229D01*
X130234Y34291D01*
X130182Y34350D01*
X130127Y34406D01*
X130069Y34460D01*
X130009Y34510D01*
X129946Y34558D01*
X129881Y34602D01*
X129814Y34643D01*
X129745Y34681D01*
X129674Y34715D01*
X129601Y34746D01*
X129527Y34773D01*
X129452Y34796D01*
X129376Y34815D01*
X129298Y34831D01*
X129220Y34843D01*
X129142Y34851D01*
X129063Y34855D01*
X128985Y34855D01*
X128906Y34851D01*
X128828Y34843D01*
X128750Y34831D01*
X128672Y34815D01*
X128596Y34796D01*
X128521Y34773D01*
X128447Y34746D01*
X128374Y34715D01*
X128303Y34681D01*
X128234Y34643D01*
X128167Y34602D01*
X128102Y34558D01*
X128039Y34510D01*
X127979Y34460D01*
X127921Y34406D01*
X127866Y34350D01*
X127814Y34291D01*
X127765Y34229D01*
X127719Y34165D01*
X127676Y34099D01*
X127636Y34031D01*
X127600Y33961D01*
X127568Y33889D01*
X127539Y33815D01*
X127514Y33741D01*
X127493Y33665D01*
X127475Y33588D01*
X127462Y33510D01*
X127452Y33432D01*
X127446Y33354D01*
X127444Y33275D01*
X127444Y32485D01*
X130605Y32485D01*
X178382Y25796D02*
X178382Y18684D01*
X178382Y23425D02*
X176406Y23425D01*
X176340Y23423D01*
X176273Y23418D01*
X176208Y23408D01*
X176142Y23395D01*
X176078Y23379D01*
X176015Y23359D01*
X175953Y23335D01*
X175892Y23308D01*
X175833Y23277D01*
X175776Y23243D01*
X175720Y23206D01*
X175667Y23166D01*
X175616Y23124D01*
X175568Y23078D01*
X175522Y23030D01*
X175480Y22979D01*
X175440Y22926D01*
X175403Y22870D01*
X175369Y22813D01*
X175338Y22754D01*
X175311Y22694D01*
X175288Y22631D01*
X175267Y22568D01*
X175251Y22504D01*
X175238Y22439D01*
X175228Y22373D01*
X175223Y22307D01*
X175221Y22240D01*
X175221Y18684D01*
X170859Y21450D02*
X169081Y21450D01*
X170859Y21450D02*
X170933Y21448D01*
X171006Y21442D01*
X171079Y21432D01*
X171151Y21419D01*
X171223Y21401D01*
X171293Y21380D01*
X171363Y21355D01*
X171430Y21326D01*
X171497Y21294D01*
X171561Y21259D01*
X171624Y21219D01*
X171684Y21177D01*
X171742Y21132D01*
X171797Y21083D01*
X171850Y21032D01*
X171900Y20978D01*
X171947Y20921D01*
X171991Y20862D01*
X172031Y20801D01*
X172069Y20737D01*
X172103Y20672D01*
X172133Y20605D01*
X172160Y20536D01*
X172183Y20466D01*
X172202Y20395D01*
X172218Y20323D01*
X172230Y20251D01*
X172238Y20177D01*
X172242Y20104D01*
X172242Y20030D01*
X172238Y19957D01*
X172230Y19883D01*
X172218Y19811D01*
X172202Y19739D01*
X172183Y19668D01*
X172160Y19598D01*
X172133Y19529D01*
X172103Y19462D01*
X172069Y19397D01*
X172031Y19333D01*
X171991Y19272D01*
X171947Y19213D01*
X171900Y19156D01*
X171850Y19102D01*
X171797Y19051D01*
X171742Y19002D01*
X171684Y18957D01*
X171624Y18915D01*
X171561Y18875D01*
X171497Y18840D01*
X171430Y18808D01*
X171363Y18779D01*
X171293Y18754D01*
X171223Y18733D01*
X171151Y18715D01*
X171079Y18702D01*
X171006Y18692D01*
X170933Y18686D01*
X170859Y18684D01*
X169081Y18684D01*
X169081Y22240D01*
X169082Y22240D02*
X169084Y22306D01*
X169089Y22373D01*
X169099Y22438D01*
X169112Y22504D01*
X169128Y22568D01*
X169149Y22631D01*
X169172Y22693D01*
X169199Y22754D01*
X169230Y22813D01*
X169264Y22870D01*
X169301Y22926D01*
X169341Y22979D01*
X169383Y23030D01*
X169429Y23078D01*
X169477Y23124D01*
X169528Y23166D01*
X169581Y23206D01*
X169637Y23243D01*
X169694Y23277D01*
X169753Y23308D01*
X169814Y23335D01*
X169876Y23359D01*
X169939Y23379D01*
X170003Y23395D01*
X170069Y23408D01*
X170134Y23418D01*
X170201Y23423D01*
X170267Y23425D01*
X171847Y23425D01*
X165773Y23425D02*
X165773Y18684D01*
X165773Y23425D02*
X163402Y23425D01*
X163402Y22635D01*
X158109Y25796D02*
X158109Y18684D01*
X160084Y18684D01*
X160150Y18686D01*
X160217Y18691D01*
X160282Y18701D01*
X160348Y18714D01*
X160412Y18730D01*
X160475Y18750D01*
X160537Y18774D01*
X160598Y18801D01*
X160657Y18832D01*
X160714Y18866D01*
X160770Y18903D01*
X160823Y18943D01*
X160874Y18985D01*
X160922Y19031D01*
X160968Y19079D01*
X161010Y19130D01*
X161050Y19183D01*
X161087Y19239D01*
X161121Y19296D01*
X161152Y19355D01*
X161179Y19416D01*
X161203Y19478D01*
X161223Y19541D01*
X161239Y19605D01*
X161252Y19671D01*
X161262Y19736D01*
X161267Y19803D01*
X161269Y19869D01*
X161269Y22240D01*
X161267Y22306D01*
X161262Y22373D01*
X161252Y22438D01*
X161239Y22504D01*
X161223Y22568D01*
X161203Y22631D01*
X161179Y22693D01*
X161152Y22754D01*
X161121Y22813D01*
X161087Y22870D01*
X161050Y22926D01*
X161010Y22979D01*
X160968Y23030D01*
X160922Y23078D01*
X160874Y23124D01*
X160823Y23166D01*
X160770Y23206D01*
X160714Y23243D01*
X160657Y23277D01*
X160598Y23308D01*
X160537Y23335D01*
X160475Y23359D01*
X160412Y23379D01*
X160348Y23395D01*
X160282Y23408D01*
X160217Y23418D01*
X160150Y23423D01*
X160084Y23425D01*
X158109Y23425D01*
X155169Y23425D02*
X153984Y18684D01*
X152799Y21845D01*
X151613Y18684D01*
X150428Y23425D01*
X146399Y21450D02*
X144621Y21450D01*
X146399Y21450D02*
X146473Y21448D01*
X146546Y21442D01*
X146619Y21432D01*
X146691Y21419D01*
X146763Y21401D01*
X146833Y21380D01*
X146903Y21355D01*
X146970Y21326D01*
X147037Y21294D01*
X147101Y21259D01*
X147164Y21219D01*
X147224Y21177D01*
X147282Y21132D01*
X147337Y21083D01*
X147390Y21032D01*
X147440Y20978D01*
X147487Y20921D01*
X147531Y20862D01*
X147571Y20801D01*
X147609Y20737D01*
X147643Y20672D01*
X147673Y20605D01*
X147700Y20536D01*
X147723Y20466D01*
X147742Y20395D01*
X147758Y20323D01*
X147770Y20251D01*
X147778Y20177D01*
X147782Y20104D01*
X147782Y20030D01*
X147778Y19957D01*
X147770Y19883D01*
X147758Y19811D01*
X147742Y19739D01*
X147723Y19668D01*
X147700Y19598D01*
X147673Y19529D01*
X147643Y19462D01*
X147609Y19397D01*
X147571Y19333D01*
X147531Y19272D01*
X147487Y19213D01*
X147440Y19156D01*
X147390Y19102D01*
X147337Y19051D01*
X147282Y19002D01*
X147224Y18957D01*
X147164Y18915D01*
X147101Y18875D01*
X147037Y18840D01*
X146970Y18808D01*
X146903Y18779D01*
X146833Y18754D01*
X146763Y18733D01*
X146691Y18715D01*
X146619Y18702D01*
X146546Y18692D01*
X146473Y18686D01*
X146399Y18684D01*
X144621Y18684D01*
X144621Y22240D01*
X144622Y22240D02*
X144624Y22306D01*
X144629Y22373D01*
X144639Y22438D01*
X144652Y22504D01*
X144668Y22568D01*
X144689Y22631D01*
X144712Y22693D01*
X144739Y22754D01*
X144770Y22813D01*
X144804Y22870D01*
X144841Y22926D01*
X144881Y22979D01*
X144923Y23030D01*
X144969Y23078D01*
X145017Y23124D01*
X145068Y23166D01*
X145121Y23206D01*
X145177Y23243D01*
X145234Y23277D01*
X145293Y23308D01*
X145354Y23335D01*
X145416Y23359D01*
X145479Y23379D01*
X145543Y23395D01*
X145609Y23408D01*
X145674Y23418D01*
X145741Y23423D01*
X145807Y23425D01*
X147387Y23425D01*
X141313Y23425D02*
X141313Y18684D01*
X141313Y23425D02*
X138942Y23425D01*
X138942Y22635D01*
X135592Y18684D02*
X133616Y18684D01*
X135592Y18684D02*
X135658Y18686D01*
X135725Y18691D01*
X135790Y18701D01*
X135856Y18714D01*
X135920Y18730D01*
X135983Y18750D01*
X136045Y18774D01*
X136106Y18801D01*
X136165Y18832D01*
X136222Y18866D01*
X136278Y18903D01*
X136331Y18943D01*
X136382Y18985D01*
X136430Y19031D01*
X136476Y19079D01*
X136518Y19130D01*
X136558Y19183D01*
X136595Y19239D01*
X136629Y19296D01*
X136660Y19355D01*
X136687Y19416D01*
X136711Y19478D01*
X136731Y19541D01*
X136747Y19605D01*
X136760Y19671D01*
X136770Y19736D01*
X136775Y19803D01*
X136777Y19869D01*
X136777Y21845D01*
X136775Y21924D01*
X136769Y22002D01*
X136759Y22080D01*
X136746Y22158D01*
X136728Y22235D01*
X136707Y22311D01*
X136682Y22385D01*
X136653Y22459D01*
X136621Y22531D01*
X136585Y22601D01*
X136545Y22669D01*
X136502Y22735D01*
X136456Y22799D01*
X136407Y22861D01*
X136355Y22920D01*
X136300Y22976D01*
X136242Y23030D01*
X136182Y23080D01*
X136119Y23128D01*
X136054Y23172D01*
X135987Y23213D01*
X135918Y23251D01*
X135847Y23285D01*
X135774Y23316D01*
X135700Y23343D01*
X135625Y23366D01*
X135549Y23385D01*
X135471Y23401D01*
X135393Y23413D01*
X135315Y23421D01*
X135236Y23425D01*
X135158Y23425D01*
X135079Y23421D01*
X135001Y23413D01*
X134923Y23401D01*
X134845Y23385D01*
X134769Y23366D01*
X134694Y23343D01*
X134620Y23316D01*
X134547Y23285D01*
X134476Y23251D01*
X134407Y23213D01*
X134340Y23172D01*
X134275Y23128D01*
X134212Y23080D01*
X134152Y23030D01*
X134094Y22976D01*
X134039Y22920D01*
X133987Y22861D01*
X133938Y22799D01*
X133892Y22735D01*
X133849Y22669D01*
X133809Y22601D01*
X133773Y22531D01*
X133741Y22459D01*
X133712Y22385D01*
X133687Y22311D01*
X133666Y22235D01*
X133648Y22158D01*
X133635Y22080D01*
X133625Y22002D01*
X133619Y21924D01*
X133617Y21845D01*
X133616Y21845D02*
X133616Y21055D01*
X136777Y21055D01*
M02*
