G04 EAGLE Gerber RS-274X export*
G75*
%MOMM*%
%FSLAX34Y34*%
%LPD*%
%INSilkscreen Top*%
%IPPOS*%
%AMOC8*
5,1,8,0,0,1.08239X$1,22.5*%
G01*
%ADD10C,0.203200*%
%ADD11C,0.101600*%
%ADD12C,0.200000*%
%ADD13C,0.127000*%
%ADD14C,0.152400*%
%ADD15C,0.076200*%
%ADD16R,0.225000X0.250000*%
%ADD17C,0.406400*%

G36*
X141410Y99887D02*
X141410Y99887D01*
X141412Y99886D01*
X141455Y99906D01*
X141499Y99924D01*
X141500Y99926D01*
X141502Y99927D01*
X141534Y100012D01*
X141534Y102552D01*
X141534Y102554D01*
X141534Y102556D01*
X141514Y102599D01*
X141496Y102643D01*
X141494Y102643D01*
X141493Y102645D01*
X141408Y102678D01*
X137598Y102678D01*
X137596Y102677D01*
X137594Y102678D01*
X137551Y102658D01*
X137507Y102640D01*
X137507Y102638D01*
X137505Y102637D01*
X137472Y102552D01*
X137472Y100012D01*
X137473Y100010D01*
X137472Y100008D01*
X137492Y99965D01*
X137510Y99921D01*
X137512Y99921D01*
X137513Y99919D01*
X137598Y99886D01*
X141408Y99886D01*
X141410Y99887D01*
G37*
D10*
X251449Y186884D02*
X209751Y186884D01*
X209751Y163516D01*
X251449Y163516D01*
X251449Y186884D01*
D11*
X240101Y171660D02*
X240103Y171776D01*
X240109Y171891D01*
X240119Y172006D01*
X240133Y172121D01*
X240151Y172235D01*
X240173Y172349D01*
X240198Y172461D01*
X240228Y172573D01*
X240261Y172684D01*
X240299Y172793D01*
X240340Y172901D01*
X240384Y173008D01*
X240433Y173113D01*
X240485Y173216D01*
X240540Y173318D01*
X240599Y173417D01*
X240661Y173515D01*
X240727Y173610D01*
X240796Y173703D01*
X240868Y173793D01*
X240943Y173881D01*
X241021Y173966D01*
X241102Y174048D01*
X241186Y174128D01*
X241273Y174205D01*
X241362Y174278D01*
X241454Y174349D01*
X241548Y174416D01*
X241644Y174480D01*
X241742Y174541D01*
X241843Y174598D01*
X241945Y174652D01*
X242049Y174702D01*
X242155Y174749D01*
X242262Y174791D01*
X242371Y174830D01*
X242481Y174866D01*
X242593Y174897D01*
X242705Y174925D01*
X242818Y174949D01*
X242932Y174969D01*
X243046Y174985D01*
X243161Y174997D01*
X243277Y175005D01*
X243392Y175009D01*
X243508Y175009D01*
X243623Y175005D01*
X243739Y174997D01*
X243854Y174985D01*
X243968Y174969D01*
X244082Y174949D01*
X244195Y174925D01*
X244307Y174897D01*
X244419Y174866D01*
X244529Y174830D01*
X244638Y174791D01*
X244745Y174749D01*
X244851Y174702D01*
X244955Y174652D01*
X245057Y174598D01*
X245158Y174541D01*
X245256Y174480D01*
X245352Y174416D01*
X245446Y174349D01*
X245538Y174278D01*
X245627Y174205D01*
X245714Y174128D01*
X245798Y174048D01*
X245879Y173966D01*
X245957Y173881D01*
X246032Y173793D01*
X246104Y173703D01*
X246173Y173610D01*
X246239Y173515D01*
X246301Y173417D01*
X246360Y173318D01*
X246415Y173216D01*
X246467Y173113D01*
X246516Y173008D01*
X246560Y172901D01*
X246601Y172793D01*
X246639Y172684D01*
X246672Y172573D01*
X246702Y172461D01*
X246727Y172349D01*
X246749Y172235D01*
X246767Y172121D01*
X246781Y172006D01*
X246791Y171891D01*
X246797Y171776D01*
X246799Y171660D01*
X246797Y171544D01*
X246791Y171429D01*
X246781Y171314D01*
X246767Y171199D01*
X246749Y171085D01*
X246727Y170971D01*
X246702Y170859D01*
X246672Y170747D01*
X246639Y170636D01*
X246601Y170527D01*
X246560Y170419D01*
X246516Y170312D01*
X246467Y170207D01*
X246415Y170104D01*
X246360Y170002D01*
X246301Y169903D01*
X246239Y169805D01*
X246173Y169710D01*
X246104Y169617D01*
X246032Y169527D01*
X245957Y169439D01*
X245879Y169354D01*
X245798Y169272D01*
X245714Y169192D01*
X245627Y169115D01*
X245538Y169042D01*
X245446Y168971D01*
X245352Y168904D01*
X245256Y168840D01*
X245158Y168779D01*
X245057Y168722D01*
X244955Y168668D01*
X244851Y168618D01*
X244745Y168571D01*
X244638Y168529D01*
X244529Y168490D01*
X244419Y168454D01*
X244307Y168423D01*
X244195Y168395D01*
X244082Y168371D01*
X243968Y168351D01*
X243854Y168335D01*
X243739Y168323D01*
X243623Y168315D01*
X243508Y168311D01*
X243392Y168311D01*
X243277Y168315D01*
X243161Y168323D01*
X243046Y168335D01*
X242932Y168351D01*
X242818Y168371D01*
X242705Y168395D01*
X242593Y168423D01*
X242481Y168454D01*
X242371Y168490D01*
X242262Y168529D01*
X242155Y168571D01*
X242049Y168618D01*
X241945Y168668D01*
X241843Y168722D01*
X241742Y168779D01*
X241644Y168840D01*
X241548Y168904D01*
X241454Y168971D01*
X241362Y169042D01*
X241273Y169115D01*
X241186Y169192D01*
X241102Y169272D01*
X241021Y169354D01*
X240943Y169439D01*
X240868Y169527D01*
X240796Y169617D01*
X240727Y169710D01*
X240661Y169805D01*
X240599Y169903D01*
X240540Y170002D01*
X240485Y170104D01*
X240433Y170207D01*
X240384Y170312D01*
X240340Y170419D01*
X240299Y170527D01*
X240261Y170636D01*
X240228Y170747D01*
X240198Y170859D01*
X240173Y170971D01*
X240151Y171085D01*
X240133Y171199D01*
X240119Y171314D01*
X240109Y171429D01*
X240103Y171544D01*
X240101Y171660D01*
D12*
X260714Y162684D02*
X260716Y162747D01*
X260722Y162809D01*
X260732Y162871D01*
X260745Y162933D01*
X260763Y162993D01*
X260784Y163052D01*
X260809Y163110D01*
X260838Y163166D01*
X260870Y163220D01*
X260905Y163272D01*
X260943Y163321D01*
X260985Y163369D01*
X261029Y163413D01*
X261077Y163455D01*
X261126Y163493D01*
X261178Y163528D01*
X261232Y163560D01*
X261288Y163589D01*
X261346Y163614D01*
X261405Y163635D01*
X261465Y163653D01*
X261527Y163666D01*
X261589Y163676D01*
X261651Y163682D01*
X261714Y163684D01*
X261777Y163682D01*
X261839Y163676D01*
X261901Y163666D01*
X261963Y163653D01*
X262023Y163635D01*
X262082Y163614D01*
X262140Y163589D01*
X262196Y163560D01*
X262250Y163528D01*
X262302Y163493D01*
X262351Y163455D01*
X262399Y163413D01*
X262443Y163369D01*
X262485Y163321D01*
X262523Y163272D01*
X262558Y163220D01*
X262590Y163166D01*
X262619Y163110D01*
X262644Y163052D01*
X262665Y162993D01*
X262683Y162933D01*
X262696Y162871D01*
X262706Y162809D01*
X262712Y162747D01*
X262714Y162684D01*
X262712Y162621D01*
X262706Y162559D01*
X262696Y162497D01*
X262683Y162435D01*
X262665Y162375D01*
X262644Y162316D01*
X262619Y162258D01*
X262590Y162202D01*
X262558Y162148D01*
X262523Y162096D01*
X262485Y162047D01*
X262443Y161999D01*
X262399Y161955D01*
X262351Y161913D01*
X262302Y161875D01*
X262250Y161840D01*
X262196Y161808D01*
X262140Y161779D01*
X262082Y161754D01*
X262023Y161733D01*
X261963Y161715D01*
X261901Y161702D01*
X261839Y161692D01*
X261777Y161686D01*
X261714Y161684D01*
X261651Y161686D01*
X261589Y161692D01*
X261527Y161702D01*
X261465Y161715D01*
X261405Y161733D01*
X261346Y161754D01*
X261288Y161779D01*
X261232Y161808D01*
X261178Y161840D01*
X261126Y161875D01*
X261077Y161913D01*
X261029Y161955D01*
X260985Y161999D01*
X260943Y162047D01*
X260905Y162096D01*
X260870Y162148D01*
X260838Y162202D01*
X260809Y162258D01*
X260784Y162316D01*
X260763Y162375D01*
X260745Y162435D01*
X260732Y162497D01*
X260722Y162559D01*
X260716Y162621D01*
X260714Y162684D01*
D13*
X283104Y51491D02*
X284200Y50395D01*
X334405Y100600D02*
X333309Y101696D01*
X235091Y99504D02*
X233995Y100600D01*
X284200Y150805D02*
X285296Y149709D01*
X285296Y51491D02*
X284200Y50395D01*
X333309Y99504D02*
X334405Y100600D01*
X235091Y101696D02*
X233995Y100600D01*
X283104Y149709D02*
X284200Y150805D01*
D14*
X174402Y104332D02*
X171862Y101792D01*
X174402Y151068D02*
X171862Y153608D01*
X144938Y153608D01*
X142398Y151068D01*
X142398Y104332D02*
X144938Y101792D01*
X171862Y101792D01*
D15*
X194757Y131397D02*
X194757Y135376D01*
X192436Y138361D01*
X194757Y135376D02*
X197079Y138361D01*
X194757Y135376D02*
X191110Y134050D01*
X194757Y135376D02*
X198405Y134050D01*
D14*
X167752Y187756D02*
X148448Y187756D01*
X148448Y155244D02*
X167752Y155244D01*
D15*
X175407Y153014D02*
X175407Y149035D01*
X175407Y153014D02*
X173086Y155999D01*
X175407Y153014D02*
X177729Y155999D01*
X175407Y153014D02*
X171760Y151688D01*
X175407Y153014D02*
X179055Y151688D01*
D14*
X241350Y32100D02*
X254050Y32100D01*
X260400Y25750D01*
X260400Y13050D01*
X254050Y6700D01*
X260400Y25750D02*
X266750Y32100D01*
X279450Y32100D01*
X285800Y25750D01*
X285800Y13050D01*
X279450Y6700D01*
X266750Y6700D01*
X260400Y13050D01*
X235000Y13050D02*
X235000Y25750D01*
X241350Y32100D01*
X235000Y13050D02*
X241350Y6700D01*
X254050Y6700D01*
X285800Y25750D02*
X292150Y32100D01*
X304850Y32100D01*
X311200Y25750D01*
X311200Y13050D01*
X304850Y6700D01*
X292150Y6700D01*
X285800Y13050D01*
D11*
X353500Y188000D02*
X353500Y192000D01*
X346500Y192000D02*
X346500Y188000D01*
D16*
X352875Y191250D03*
D11*
X353500Y142000D02*
X353500Y138000D01*
X346500Y138000D02*
X346500Y142000D01*
D16*
X352875Y141250D03*
D11*
X353500Y92000D02*
X353500Y88000D01*
X346500Y88000D02*
X346500Y92000D01*
D16*
X352875Y91250D03*
D11*
X353500Y42000D02*
X353500Y38000D01*
X346500Y38000D02*
X346500Y42000D01*
D16*
X352875Y41250D03*
D14*
X319150Y182100D02*
X306450Y182100D01*
X300100Y188450D01*
X300100Y201150D01*
X306450Y207500D01*
X300100Y188450D02*
X293750Y182100D01*
X281050Y182100D01*
X274700Y188450D01*
X274700Y201150D01*
X281050Y207500D01*
X293750Y207500D01*
X300100Y201150D01*
X325500Y201150D02*
X325500Y188450D01*
X319150Y182100D01*
X325500Y201150D02*
X319150Y207500D01*
X306450Y207500D01*
X274700Y188450D02*
X268350Y182100D01*
X255650Y182100D01*
X249300Y188450D01*
X249300Y201150D01*
X255650Y207500D01*
X268350Y207500D01*
X274700Y201150D01*
D17*
X70800Y58100D02*
X20800Y58100D01*
X20800Y18100D01*
X70800Y18100D01*
X70800Y58100D01*
X70800Y114900D02*
X20800Y114900D01*
X20800Y74900D01*
X70800Y74900D01*
X70800Y114900D01*
X70800Y210500D02*
X20800Y210500D01*
X20800Y170500D01*
X70800Y170500D01*
X70800Y210500D01*
X70800Y164700D02*
X20800Y164700D01*
X20800Y124700D01*
X70800Y124700D01*
X70800Y164700D01*
D14*
X152908Y84828D02*
X152908Y43172D01*
X152908Y84828D02*
X149352Y84828D01*
X101092Y84828D02*
X101092Y43172D01*
X104648Y43172D01*
X149352Y43172D02*
X152908Y43172D01*
X104648Y84828D02*
X101092Y84828D01*
D15*
X102672Y33231D02*
X98693Y33231D01*
X102672Y33231D02*
X105657Y35552D01*
X102672Y33231D02*
X105657Y30909D01*
X102672Y33231D02*
X101346Y36878D01*
X102672Y33231D02*
X101346Y29583D01*
X121031Y47109D02*
X132969Y51088D01*
X121031Y55068D01*
X121031Y59583D02*
X132969Y59583D01*
X132969Y66215D02*
X121031Y59583D01*
X121031Y66215D02*
X132969Y66215D01*
X127663Y74047D02*
X127663Y78026D01*
X127663Y74047D02*
X127661Y73945D01*
X127655Y73844D01*
X127645Y73743D01*
X127632Y73642D01*
X127614Y73542D01*
X127593Y73443D01*
X127568Y73344D01*
X127539Y73247D01*
X127507Y73150D01*
X127471Y73055D01*
X127431Y72962D01*
X127388Y72870D01*
X127341Y72780D01*
X127290Y72691D01*
X127237Y72605D01*
X127180Y72521D01*
X127120Y72439D01*
X127057Y72359D01*
X126991Y72282D01*
X126922Y72207D01*
X126850Y72135D01*
X126775Y72066D01*
X126698Y72000D01*
X126618Y71937D01*
X126536Y71877D01*
X126452Y71820D01*
X126366Y71767D01*
X126277Y71716D01*
X126187Y71669D01*
X126095Y71626D01*
X126002Y71586D01*
X125907Y71550D01*
X125810Y71518D01*
X125713Y71489D01*
X125614Y71464D01*
X125515Y71443D01*
X125415Y71425D01*
X125314Y71412D01*
X125213Y71402D01*
X125112Y71396D01*
X125010Y71394D01*
X124347Y71394D01*
X124233Y71396D01*
X124118Y71402D01*
X124004Y71412D01*
X123891Y71426D01*
X123777Y71443D01*
X123665Y71465D01*
X123553Y71490D01*
X123443Y71520D01*
X123333Y71553D01*
X123225Y71590D01*
X123118Y71630D01*
X123012Y71675D01*
X122908Y71722D01*
X122806Y71774D01*
X122706Y71829D01*
X122607Y71887D01*
X122511Y71949D01*
X122416Y72014D01*
X122325Y72082D01*
X122235Y72154D01*
X122148Y72228D01*
X122064Y72305D01*
X121982Y72386D01*
X121903Y72469D01*
X121827Y72554D01*
X121754Y72643D01*
X121685Y72733D01*
X121618Y72826D01*
X121555Y72922D01*
X121495Y73019D01*
X121438Y73119D01*
X121385Y73220D01*
X121335Y73323D01*
X121289Y73428D01*
X121246Y73534D01*
X121208Y73642D01*
X121173Y73751D01*
X121142Y73861D01*
X121114Y73972D01*
X121091Y74084D01*
X121071Y74197D01*
X121055Y74310D01*
X121043Y74424D01*
X121035Y74538D01*
X121031Y74653D01*
X121031Y74767D01*
X121035Y74882D01*
X121043Y74996D01*
X121055Y75110D01*
X121071Y75223D01*
X121091Y75336D01*
X121114Y75448D01*
X121142Y75559D01*
X121173Y75669D01*
X121208Y75778D01*
X121246Y75886D01*
X121289Y75992D01*
X121335Y76097D01*
X121385Y76200D01*
X121438Y76301D01*
X121495Y76401D01*
X121555Y76498D01*
X121618Y76594D01*
X121685Y76687D01*
X121754Y76777D01*
X121827Y76866D01*
X121903Y76951D01*
X121982Y77034D01*
X122064Y77115D01*
X122148Y77192D01*
X122235Y77266D01*
X122325Y77338D01*
X122416Y77406D01*
X122511Y77471D01*
X122607Y77533D01*
X122706Y77591D01*
X122806Y77646D01*
X122908Y77698D01*
X123012Y77745D01*
X123118Y77790D01*
X123225Y77830D01*
X123333Y77867D01*
X123443Y77900D01*
X123553Y77930D01*
X123665Y77955D01*
X123777Y77977D01*
X123891Y77994D01*
X124004Y78008D01*
X124118Y78018D01*
X124233Y78024D01*
X124347Y78026D01*
X127663Y78026D01*
X127663Y78027D02*
X127807Y78025D01*
X127950Y78019D01*
X128094Y78009D01*
X128237Y77996D01*
X128379Y77978D01*
X128521Y77957D01*
X128663Y77932D01*
X128804Y77903D01*
X128944Y77870D01*
X129083Y77834D01*
X129220Y77793D01*
X129357Y77749D01*
X129493Y77702D01*
X129627Y77650D01*
X129760Y77595D01*
X129891Y77537D01*
X130021Y77474D01*
X130148Y77409D01*
X130274Y77340D01*
X130399Y77267D01*
X130521Y77192D01*
X130641Y77113D01*
X130758Y77030D01*
X130874Y76945D01*
X130987Y76857D01*
X131098Y76765D01*
X131206Y76671D01*
X131312Y76573D01*
X131415Y76473D01*
X131515Y76370D01*
X131613Y76264D01*
X131707Y76156D01*
X131799Y76045D01*
X131887Y75932D01*
X131972Y75816D01*
X132055Y75699D01*
X132134Y75579D01*
X132209Y75457D01*
X132282Y75332D01*
X132351Y75206D01*
X132416Y75079D01*
X132479Y74949D01*
X132537Y74818D01*
X132592Y74685D01*
X132644Y74551D01*
X132691Y74415D01*
X132735Y74278D01*
X132776Y74141D01*
X132812Y74002D01*
X132845Y73862D01*
X132874Y73721D01*
X132899Y73579D01*
X132920Y73437D01*
X132938Y73295D01*
X132951Y73152D01*
X132961Y73008D01*
X132967Y72865D01*
X132969Y72721D01*
X127000Y82824D02*
X126765Y82827D01*
X126530Y82835D01*
X126296Y82849D01*
X126062Y82869D01*
X125828Y82894D01*
X125596Y82925D01*
X125364Y82961D01*
X125132Y83003D01*
X124902Y83050D01*
X124674Y83103D01*
X124446Y83161D01*
X124220Y83225D01*
X123996Y83294D01*
X123773Y83368D01*
X123552Y83448D01*
X123333Y83533D01*
X123116Y83623D01*
X122901Y83718D01*
X122689Y83819D01*
X122597Y83852D01*
X122506Y83890D01*
X122417Y83931D01*
X122329Y83975D01*
X122244Y84023D01*
X122160Y84074D01*
X122078Y84129D01*
X121999Y84187D01*
X121922Y84248D01*
X121848Y84312D01*
X121776Y84379D01*
X121707Y84449D01*
X121641Y84521D01*
X121577Y84596D01*
X121517Y84674D01*
X121460Y84754D01*
X121406Y84836D01*
X121356Y84920D01*
X121309Y85006D01*
X121265Y85094D01*
X121225Y85184D01*
X121188Y85275D01*
X121156Y85368D01*
X121127Y85462D01*
X121101Y85556D01*
X121080Y85652D01*
X121062Y85749D01*
X121049Y85846D01*
X121039Y85944D01*
X121033Y86042D01*
X121031Y86140D01*
X121033Y86238D01*
X121039Y86336D01*
X121049Y86434D01*
X121062Y86531D01*
X121080Y86628D01*
X121101Y86724D01*
X121127Y86818D01*
X121156Y86912D01*
X121188Y87005D01*
X121225Y87096D01*
X121265Y87186D01*
X121309Y87274D01*
X121356Y87360D01*
X121406Y87444D01*
X121460Y87526D01*
X121517Y87606D01*
X121577Y87684D01*
X121641Y87759D01*
X121707Y87831D01*
X121776Y87901D01*
X121848Y87968D01*
X121922Y88032D01*
X121999Y88093D01*
X122078Y88151D01*
X122160Y88206D01*
X122244Y88257D01*
X122329Y88305D01*
X122417Y88349D01*
X122506Y88390D01*
X122597Y88428D01*
X122689Y88461D01*
X122689Y88462D02*
X122901Y88563D01*
X123116Y88658D01*
X123333Y88748D01*
X123552Y88833D01*
X123773Y88913D01*
X123995Y88987D01*
X124220Y89056D01*
X124446Y89120D01*
X124674Y89178D01*
X124902Y89231D01*
X125132Y89278D01*
X125364Y89320D01*
X125596Y89356D01*
X125828Y89387D01*
X126062Y89412D01*
X126296Y89432D01*
X126530Y89446D01*
X126765Y89454D01*
X127000Y89457D01*
X127000Y82824D02*
X127235Y82827D01*
X127470Y82835D01*
X127704Y82849D01*
X127938Y82869D01*
X128172Y82894D01*
X128404Y82925D01*
X128636Y82961D01*
X128868Y83003D01*
X129098Y83050D01*
X129326Y83103D01*
X129554Y83161D01*
X129780Y83225D01*
X130004Y83294D01*
X130227Y83368D01*
X130448Y83448D01*
X130667Y83533D01*
X130884Y83623D01*
X131099Y83718D01*
X131311Y83819D01*
X131403Y83852D01*
X131494Y83890D01*
X131583Y83931D01*
X131671Y83975D01*
X131756Y84023D01*
X131840Y84075D01*
X131922Y84129D01*
X132001Y84187D01*
X132078Y84248D01*
X132152Y84312D01*
X132224Y84379D01*
X132293Y84449D01*
X132359Y84521D01*
X132423Y84596D01*
X132483Y84674D01*
X132540Y84754D01*
X132594Y84836D01*
X132644Y84920D01*
X132691Y85006D01*
X132735Y85094D01*
X132775Y85184D01*
X132812Y85275D01*
X132844Y85368D01*
X132873Y85462D01*
X132899Y85556D01*
X132920Y85652D01*
X132938Y85749D01*
X132951Y85846D01*
X132961Y85944D01*
X132967Y86042D01*
X132969Y86140D01*
X131311Y88462D02*
X131099Y88563D01*
X130884Y88658D01*
X130667Y88748D01*
X130448Y88833D01*
X130227Y88913D01*
X130005Y88987D01*
X129780Y89056D01*
X129554Y89120D01*
X129326Y89178D01*
X129098Y89231D01*
X128868Y89278D01*
X128636Y89320D01*
X128404Y89356D01*
X128172Y89387D01*
X127938Y89412D01*
X127704Y89432D01*
X127470Y89446D01*
X127235Y89454D01*
X127000Y89457D01*
X131311Y88461D02*
X131403Y88428D01*
X131494Y88390D01*
X131583Y88349D01*
X131671Y88305D01*
X131756Y88257D01*
X131840Y88205D01*
X131922Y88151D01*
X132001Y88093D01*
X132078Y88032D01*
X132152Y87968D01*
X132224Y87901D01*
X132293Y87831D01*
X132359Y87759D01*
X132423Y87684D01*
X132483Y87606D01*
X132540Y87526D01*
X132594Y87444D01*
X132644Y87360D01*
X132691Y87274D01*
X132735Y87186D01*
X132775Y87096D01*
X132812Y87005D01*
X132844Y86912D01*
X132873Y86818D01*
X132899Y86724D01*
X132920Y86628D01*
X132938Y86531D01*
X132951Y86434D01*
X132961Y86336D01*
X132967Y86238D01*
X132969Y86140D01*
X130316Y83487D02*
X123684Y88793D01*
X127000Y94254D02*
X126765Y94257D01*
X126530Y94265D01*
X126296Y94279D01*
X126062Y94299D01*
X125828Y94324D01*
X125596Y94355D01*
X125364Y94391D01*
X125132Y94433D01*
X124902Y94480D01*
X124674Y94533D01*
X124446Y94591D01*
X124220Y94655D01*
X123996Y94724D01*
X123773Y94798D01*
X123552Y94878D01*
X123333Y94963D01*
X123116Y95053D01*
X122901Y95148D01*
X122689Y95249D01*
X122597Y95282D01*
X122506Y95320D01*
X122417Y95361D01*
X122329Y95405D01*
X122244Y95453D01*
X122160Y95504D01*
X122078Y95559D01*
X121999Y95617D01*
X121922Y95678D01*
X121848Y95742D01*
X121776Y95809D01*
X121707Y95879D01*
X121641Y95951D01*
X121577Y96026D01*
X121517Y96104D01*
X121460Y96184D01*
X121406Y96266D01*
X121356Y96350D01*
X121309Y96436D01*
X121265Y96524D01*
X121225Y96614D01*
X121188Y96705D01*
X121156Y96798D01*
X121127Y96892D01*
X121101Y96986D01*
X121080Y97082D01*
X121062Y97179D01*
X121049Y97276D01*
X121039Y97374D01*
X121033Y97472D01*
X121031Y97570D01*
X121033Y97668D01*
X121039Y97766D01*
X121049Y97864D01*
X121062Y97961D01*
X121080Y98058D01*
X121101Y98154D01*
X121127Y98248D01*
X121156Y98342D01*
X121188Y98435D01*
X121225Y98526D01*
X121265Y98616D01*
X121309Y98704D01*
X121356Y98790D01*
X121406Y98874D01*
X121460Y98956D01*
X121517Y99036D01*
X121577Y99114D01*
X121641Y99189D01*
X121707Y99261D01*
X121776Y99331D01*
X121848Y99398D01*
X121922Y99462D01*
X121999Y99523D01*
X122078Y99581D01*
X122160Y99636D01*
X122244Y99687D01*
X122329Y99735D01*
X122417Y99779D01*
X122506Y99820D01*
X122597Y99858D01*
X122689Y99891D01*
X122689Y99892D02*
X122901Y99993D01*
X123116Y100088D01*
X123333Y100178D01*
X123552Y100263D01*
X123773Y100343D01*
X123995Y100417D01*
X124220Y100486D01*
X124446Y100550D01*
X124674Y100608D01*
X124902Y100661D01*
X125132Y100708D01*
X125364Y100750D01*
X125596Y100786D01*
X125828Y100817D01*
X126062Y100842D01*
X126296Y100862D01*
X126530Y100876D01*
X126765Y100884D01*
X127000Y100887D01*
X127000Y94254D02*
X127235Y94257D01*
X127470Y94265D01*
X127704Y94279D01*
X127938Y94299D01*
X128172Y94324D01*
X128404Y94355D01*
X128636Y94391D01*
X128868Y94433D01*
X129098Y94480D01*
X129326Y94533D01*
X129554Y94591D01*
X129780Y94655D01*
X130004Y94724D01*
X130227Y94798D01*
X130448Y94878D01*
X130667Y94963D01*
X130884Y95053D01*
X131099Y95148D01*
X131311Y95249D01*
X131403Y95282D01*
X131494Y95320D01*
X131583Y95361D01*
X131671Y95405D01*
X131756Y95453D01*
X131840Y95505D01*
X131922Y95559D01*
X132001Y95617D01*
X132078Y95678D01*
X132152Y95742D01*
X132224Y95809D01*
X132293Y95879D01*
X132359Y95951D01*
X132423Y96026D01*
X132483Y96104D01*
X132540Y96184D01*
X132594Y96266D01*
X132644Y96350D01*
X132691Y96436D01*
X132735Y96524D01*
X132775Y96614D01*
X132812Y96705D01*
X132844Y96798D01*
X132873Y96892D01*
X132899Y96986D01*
X132920Y97082D01*
X132938Y97179D01*
X132951Y97276D01*
X132961Y97374D01*
X132967Y97472D01*
X132969Y97570D01*
X131311Y99892D02*
X131099Y99993D01*
X130884Y100088D01*
X130667Y100178D01*
X130448Y100263D01*
X130227Y100343D01*
X130005Y100417D01*
X129780Y100486D01*
X129554Y100550D01*
X129326Y100608D01*
X129098Y100661D01*
X128868Y100708D01*
X128636Y100750D01*
X128404Y100786D01*
X128172Y100817D01*
X127938Y100842D01*
X127704Y100862D01*
X127470Y100876D01*
X127235Y100884D01*
X127000Y100887D01*
X131311Y99891D02*
X131403Y99858D01*
X131494Y99820D01*
X131583Y99779D01*
X131671Y99735D01*
X131756Y99687D01*
X131840Y99635D01*
X131922Y99581D01*
X132001Y99523D01*
X132078Y99462D01*
X132152Y99398D01*
X132224Y99331D01*
X132293Y99261D01*
X132359Y99189D01*
X132423Y99114D01*
X132483Y99036D01*
X132540Y98956D01*
X132594Y98874D01*
X132644Y98790D01*
X132691Y98704D01*
X132735Y98616D01*
X132775Y98526D01*
X132812Y98435D01*
X132844Y98342D01*
X132873Y98248D01*
X132899Y98154D01*
X132920Y98058D01*
X132938Y97961D01*
X132951Y97864D01*
X132961Y97766D01*
X132967Y97668D01*
X132969Y97570D01*
X130316Y94917D02*
X123684Y100223D01*
X121031Y108337D02*
X130316Y105684D01*
X130316Y112316D01*
X127663Y110327D02*
X132969Y110327D01*
X132969Y116451D02*
X121031Y120430D01*
X132969Y124409D01*
X129985Y123415D02*
X129985Y117446D01*
X130316Y131407D02*
X121031Y131407D01*
X130316Y131407D02*
X130418Y131405D01*
X130519Y131399D01*
X130620Y131389D01*
X130721Y131376D01*
X130821Y131358D01*
X130920Y131337D01*
X131019Y131312D01*
X131116Y131283D01*
X131213Y131251D01*
X131308Y131215D01*
X131401Y131175D01*
X131493Y131132D01*
X131583Y131085D01*
X131672Y131034D01*
X131758Y130981D01*
X131842Y130924D01*
X131924Y130864D01*
X132004Y130801D01*
X132081Y130735D01*
X132156Y130666D01*
X132228Y130594D01*
X132297Y130519D01*
X132363Y130442D01*
X132426Y130362D01*
X132486Y130280D01*
X132543Y130196D01*
X132596Y130110D01*
X132647Y130021D01*
X132694Y129931D01*
X132737Y129839D01*
X132777Y129746D01*
X132813Y129651D01*
X132845Y129554D01*
X132874Y129457D01*
X132899Y129358D01*
X132920Y129259D01*
X132938Y129159D01*
X132951Y129058D01*
X132961Y128957D01*
X132967Y128856D01*
X132969Y128754D01*
X132969Y127428D01*
X132969Y139099D02*
X121031Y139099D01*
X121031Y135783D02*
X121031Y142415D01*
X121031Y146896D02*
X132969Y146896D01*
X121031Y146896D02*
X121031Y150212D01*
X121033Y150326D01*
X121039Y150441D01*
X121049Y150555D01*
X121063Y150668D01*
X121080Y150782D01*
X121102Y150894D01*
X121127Y151006D01*
X121157Y151116D01*
X121190Y151226D01*
X121227Y151334D01*
X121267Y151441D01*
X121312Y151547D01*
X121359Y151651D01*
X121411Y151753D01*
X121466Y151853D01*
X121524Y151952D01*
X121586Y152048D01*
X121651Y152143D01*
X121719Y152234D01*
X121791Y152324D01*
X121865Y152411D01*
X121942Y152495D01*
X122023Y152577D01*
X122106Y152656D01*
X122191Y152732D01*
X122280Y152805D01*
X122370Y152874D01*
X122463Y152941D01*
X122559Y153004D01*
X122656Y153064D01*
X122756Y153121D01*
X122857Y153174D01*
X122960Y153224D01*
X123065Y153270D01*
X123171Y153313D01*
X123279Y153351D01*
X123388Y153386D01*
X123498Y153417D01*
X123609Y153445D01*
X123721Y153468D01*
X123834Y153488D01*
X123947Y153504D01*
X124061Y153516D01*
X124175Y153524D01*
X124290Y153528D01*
X124404Y153528D01*
X124519Y153524D01*
X124633Y153516D01*
X124747Y153504D01*
X124860Y153488D01*
X124973Y153468D01*
X125085Y153445D01*
X125196Y153417D01*
X125306Y153386D01*
X125415Y153351D01*
X125523Y153313D01*
X125629Y153270D01*
X125734Y153224D01*
X125837Y153174D01*
X125938Y153121D01*
X126038Y153064D01*
X126135Y153004D01*
X126231Y152941D01*
X126324Y152874D01*
X126414Y152805D01*
X126503Y152732D01*
X126588Y152656D01*
X126671Y152577D01*
X126752Y152495D01*
X126829Y152411D01*
X126903Y152324D01*
X126975Y152234D01*
X127043Y152143D01*
X127108Y152048D01*
X127170Y151952D01*
X127228Y151853D01*
X127283Y151753D01*
X127335Y151651D01*
X127382Y151547D01*
X127427Y151441D01*
X127467Y151334D01*
X127504Y151226D01*
X127537Y151116D01*
X127567Y151006D01*
X127592Y150894D01*
X127614Y150782D01*
X127631Y150668D01*
X127645Y150555D01*
X127655Y150441D01*
X127661Y150326D01*
X127663Y150212D01*
X127663Y146896D01*
X127663Y150876D02*
X132969Y153529D01*
D11*
X95225Y29142D02*
X95225Y17458D01*
X95225Y29142D02*
X98470Y29142D01*
X98583Y29140D01*
X98696Y29134D01*
X98809Y29124D01*
X98922Y29110D01*
X99034Y29093D01*
X99145Y29071D01*
X99255Y29046D01*
X99365Y29016D01*
X99473Y28983D01*
X99580Y28946D01*
X99686Y28906D01*
X99790Y28861D01*
X99893Y28813D01*
X99994Y28762D01*
X100093Y28707D01*
X100190Y28649D01*
X100285Y28587D01*
X100378Y28522D01*
X100468Y28454D01*
X100556Y28383D01*
X100642Y28308D01*
X100725Y28231D01*
X100805Y28151D01*
X100882Y28068D01*
X100957Y27982D01*
X101028Y27894D01*
X101096Y27804D01*
X101161Y27711D01*
X101223Y27616D01*
X101281Y27519D01*
X101336Y27420D01*
X101387Y27319D01*
X101435Y27216D01*
X101480Y27112D01*
X101520Y27006D01*
X101557Y26899D01*
X101590Y26791D01*
X101620Y26681D01*
X101645Y26571D01*
X101667Y26460D01*
X101684Y26348D01*
X101698Y26235D01*
X101708Y26122D01*
X101714Y26009D01*
X101716Y25896D01*
X101714Y25783D01*
X101708Y25670D01*
X101698Y25557D01*
X101684Y25444D01*
X101667Y25332D01*
X101645Y25221D01*
X101620Y25111D01*
X101590Y25001D01*
X101557Y24893D01*
X101520Y24786D01*
X101480Y24680D01*
X101435Y24576D01*
X101387Y24473D01*
X101336Y24372D01*
X101281Y24273D01*
X101223Y24176D01*
X101161Y24081D01*
X101096Y23988D01*
X101028Y23898D01*
X100957Y23810D01*
X100882Y23724D01*
X100805Y23641D01*
X100725Y23561D01*
X100642Y23484D01*
X100556Y23409D01*
X100468Y23338D01*
X100378Y23270D01*
X100285Y23205D01*
X100190Y23143D01*
X100093Y23085D01*
X99994Y23030D01*
X99893Y22979D01*
X99790Y22931D01*
X99686Y22886D01*
X99580Y22846D01*
X99473Y22809D01*
X99365Y22776D01*
X99255Y22746D01*
X99145Y22721D01*
X99034Y22699D01*
X98922Y22682D01*
X98809Y22668D01*
X98696Y22658D01*
X98583Y22652D01*
X98470Y22650D01*
X98470Y22651D02*
X95225Y22651D01*
X99119Y22651D02*
X101716Y17458D01*
X106962Y17458D02*
X106962Y29142D01*
X110208Y29142D01*
X110321Y29140D01*
X110434Y29134D01*
X110547Y29124D01*
X110660Y29110D01*
X110772Y29093D01*
X110883Y29071D01*
X110993Y29046D01*
X111103Y29016D01*
X111211Y28983D01*
X111318Y28946D01*
X111424Y28906D01*
X111528Y28861D01*
X111631Y28813D01*
X111732Y28762D01*
X111831Y28707D01*
X111928Y28649D01*
X112023Y28587D01*
X112116Y28522D01*
X112206Y28454D01*
X112294Y28383D01*
X112380Y28308D01*
X112463Y28231D01*
X112543Y28151D01*
X112620Y28068D01*
X112695Y27982D01*
X112766Y27894D01*
X112834Y27804D01*
X112899Y27711D01*
X112961Y27616D01*
X113019Y27519D01*
X113074Y27420D01*
X113125Y27319D01*
X113173Y27216D01*
X113218Y27112D01*
X113258Y27006D01*
X113295Y26899D01*
X113328Y26791D01*
X113358Y26681D01*
X113383Y26571D01*
X113405Y26460D01*
X113422Y26348D01*
X113436Y26235D01*
X113446Y26122D01*
X113452Y26009D01*
X113454Y25896D01*
X113453Y25896D02*
X113453Y20704D01*
X113454Y20704D02*
X113452Y20591D01*
X113446Y20478D01*
X113436Y20365D01*
X113422Y20252D01*
X113405Y20140D01*
X113383Y20029D01*
X113358Y19919D01*
X113328Y19809D01*
X113295Y19701D01*
X113258Y19594D01*
X113218Y19488D01*
X113173Y19384D01*
X113125Y19281D01*
X113074Y19180D01*
X113019Y19081D01*
X112961Y18984D01*
X112899Y18889D01*
X112834Y18796D01*
X112766Y18706D01*
X112695Y18618D01*
X112620Y18532D01*
X112543Y18449D01*
X112463Y18369D01*
X112380Y18292D01*
X112294Y18217D01*
X112206Y18146D01*
X112116Y18078D01*
X112023Y18013D01*
X111928Y17951D01*
X111831Y17893D01*
X111732Y17838D01*
X111631Y17787D01*
X111528Y17739D01*
X111424Y17694D01*
X111318Y17654D01*
X111211Y17617D01*
X111103Y17584D01*
X110993Y17554D01*
X110883Y17529D01*
X110772Y17507D01*
X110660Y17490D01*
X110547Y17476D01*
X110434Y17466D01*
X110321Y17460D01*
X110208Y17458D01*
X106962Y17458D01*
X119733Y17458D02*
X119733Y29142D01*
X118434Y17458D02*
X121031Y17458D01*
X121031Y29142D02*
X118434Y29142D01*
X128877Y29142D02*
X124982Y17458D01*
X132771Y17458D02*
X128877Y29142D01*
X131798Y20379D02*
X125956Y20379D01*
X141986Y23949D02*
X143933Y23949D01*
X143933Y17458D01*
X140038Y17458D01*
X139939Y17460D01*
X139839Y17466D01*
X139740Y17475D01*
X139642Y17488D01*
X139544Y17505D01*
X139446Y17526D01*
X139350Y17551D01*
X139255Y17579D01*
X139161Y17611D01*
X139068Y17646D01*
X138976Y17685D01*
X138886Y17728D01*
X138798Y17773D01*
X138711Y17823D01*
X138627Y17875D01*
X138544Y17931D01*
X138464Y17989D01*
X138386Y18051D01*
X138311Y18116D01*
X138238Y18184D01*
X138168Y18254D01*
X138100Y18327D01*
X138035Y18402D01*
X137973Y18480D01*
X137915Y18560D01*
X137859Y18643D01*
X137807Y18727D01*
X137757Y18814D01*
X137712Y18902D01*
X137669Y18992D01*
X137630Y19084D01*
X137595Y19177D01*
X137563Y19271D01*
X137535Y19366D01*
X137510Y19462D01*
X137489Y19560D01*
X137472Y19658D01*
X137459Y19756D01*
X137450Y19855D01*
X137444Y19955D01*
X137442Y20054D01*
X137442Y26546D01*
X137444Y26645D01*
X137450Y26745D01*
X137459Y26844D01*
X137472Y26942D01*
X137489Y27040D01*
X137510Y27138D01*
X137535Y27234D01*
X137563Y27329D01*
X137595Y27423D01*
X137630Y27516D01*
X137669Y27608D01*
X137712Y27698D01*
X137757Y27786D01*
X137807Y27873D01*
X137859Y27957D01*
X137915Y28040D01*
X137973Y28120D01*
X138035Y28198D01*
X138100Y28273D01*
X138168Y28346D01*
X138238Y28416D01*
X138311Y28484D01*
X138386Y28549D01*
X138464Y28611D01*
X138544Y28669D01*
X138627Y28725D01*
X138711Y28777D01*
X138798Y28827D01*
X138886Y28872D01*
X138976Y28915D01*
X139068Y28954D01*
X139160Y28989D01*
X139255Y29021D01*
X139350Y29049D01*
X139446Y29074D01*
X139544Y29095D01*
X139642Y29112D01*
X139740Y29125D01*
X139839Y29134D01*
X139939Y29140D01*
X140038Y29142D01*
X143933Y29142D01*
X149657Y17458D02*
X154849Y17458D01*
X149657Y17458D02*
X149657Y29142D01*
X154849Y29142D01*
X153551Y23949D02*
X149657Y23949D01*
X159540Y29142D02*
X159540Y17458D01*
X166031Y17458D02*
X159540Y29142D01*
X166031Y29142D02*
X166031Y17458D01*
X171351Y26546D02*
X174596Y29142D01*
X174596Y17458D01*
X171351Y17458D02*
X177842Y17458D01*
M02*
