M48
;GenerationSoftware,Autodesk,EAGLE,9.6.2*%
;CreationDate,2024-08-05T00:36:00Z*%
FMAT,2
ICI,OFF
METRIC,TZ,000.000
T3C0.350
T2C0.914
T1C1.016
%
G90
M71
T1
X37980Y6720
X37980Y9260
X37980Y11800
T2
X37900Y16700
X37900Y14700
T3
X11100Y14691
X5400Y5500
X16400Y11400
X4300Y12100
X19650Y11050
X22800Y7600
X33200Y8700
X21700Y13700
X21000Y11100
X24700Y10100
X29800Y10200
X22800Y5100
X27400Y7400
X26100Y8600
X33700Y15700
X32300Y16800
X17200Y17100
X22400Y17042
X34000Y12800
X19000Y9100
X30300Y11200
X27400Y14400
X24300Y11100
X17100Y9200
X27400Y4651
X29100Y9300
X18700Y10200
M30