G04 EAGLE Gerber RS-274X export*
G75*
%MOMM*%
%FSLAX34Y34*%
%LPD*%
%INBottom Copper*%
%IPPOS*%
%AMOC8*
5,1,8,0,0,1.08239X$1,22.5*%
G01*
%ADD10R,6.451600X3.251200*%
%ADD11R,1.524000X1.524000*%
%ADD12P,1.649562X8X202.500000*%
%ADD13R,1.422400X1.422400*%
%ADD14C,1.422400*%
%ADD15P,1.649562X8X292.500000*%
%ADD16C,0.756400*%
%ADD17C,0.508000*%
%ADD18C,2.540000*%
%ADD19C,0.254000*%

G36*
X453935Y10164D02*
X453935Y10164D01*
X453969Y10162D01*
X454158Y10184D01*
X454349Y10201D01*
X454382Y10210D01*
X454416Y10214D01*
X454599Y10269D01*
X454783Y10319D01*
X454814Y10334D01*
X454847Y10344D01*
X455018Y10431D01*
X455190Y10513D01*
X455218Y10533D01*
X455249Y10548D01*
X455401Y10664D01*
X455556Y10775D01*
X455580Y10800D01*
X455607Y10820D01*
X455736Y10960D01*
X455870Y11097D01*
X455889Y11126D01*
X455913Y11152D01*
X456015Y11313D01*
X456122Y11470D01*
X456136Y11502D01*
X456154Y11531D01*
X456227Y11708D01*
X456304Y11882D01*
X456312Y11916D01*
X456325Y11948D01*
X456365Y12135D01*
X456411Y12320D01*
X456413Y12354D01*
X456420Y12388D01*
X456439Y12700D01*
X456439Y17446D01*
X456437Y17469D01*
X456439Y17492D01*
X456417Y17693D01*
X456399Y17894D01*
X456393Y17917D01*
X456391Y17940D01*
X456334Y18134D01*
X456281Y18329D01*
X456271Y18350D01*
X456264Y18372D01*
X456174Y18553D01*
X456087Y18735D01*
X456074Y18754D01*
X456064Y18775D01*
X455943Y18938D01*
X455825Y19101D01*
X455809Y19118D01*
X455795Y19136D01*
X455648Y19274D01*
X455503Y19415D01*
X455483Y19428D01*
X455467Y19444D01*
X455297Y19554D01*
X455130Y19668D01*
X455108Y19677D01*
X455089Y19689D01*
X454903Y19768D01*
X454718Y19850D01*
X454695Y19855D01*
X454674Y19864D01*
X454477Y19908D01*
X454280Y19956D01*
X454257Y19958D01*
X454235Y19963D01*
X454033Y19972D01*
X453831Y19984D01*
X453808Y19981D01*
X453785Y19982D01*
X453585Y19956D01*
X453384Y19932D01*
X453361Y19925D01*
X453339Y19922D01*
X453147Y19861D01*
X452953Y19802D01*
X452932Y19791D01*
X452910Y19784D01*
X452630Y19645D01*
X452339Y19476D01*
X451693Y19303D01*
X424179Y19303D01*
X424179Y35560D01*
X424176Y35592D01*
X424178Y35622D01*
X424178Y35625D01*
X424178Y35629D01*
X424156Y35818D01*
X424139Y36008D01*
X424130Y36042D01*
X424126Y36076D01*
X424071Y36259D01*
X424021Y36443D01*
X424006Y36474D01*
X423996Y36507D01*
X423909Y36678D01*
X423827Y36849D01*
X423807Y36877D01*
X423791Y36908D01*
X423676Y37060D01*
X423565Y37215D01*
X423540Y37240D01*
X423519Y37267D01*
X423379Y37396D01*
X423243Y37530D01*
X423214Y37549D01*
X423188Y37572D01*
X423027Y37675D01*
X422869Y37782D01*
X422838Y37796D01*
X422809Y37814D01*
X422632Y37887D01*
X422458Y37964D01*
X422424Y37972D01*
X422392Y37985D01*
X422205Y38025D01*
X422020Y38070D01*
X421986Y38073D01*
X421952Y38080D01*
X421640Y38099D01*
X419099Y38099D01*
X419099Y38101D01*
X421640Y38101D01*
X421674Y38104D01*
X421709Y38102D01*
X421898Y38124D01*
X422088Y38141D01*
X422122Y38150D01*
X422156Y38154D01*
X422339Y38209D01*
X422523Y38259D01*
X422554Y38274D01*
X422587Y38284D01*
X422758Y38371D01*
X422929Y38453D01*
X422958Y38473D01*
X422988Y38489D01*
X423140Y38604D01*
X423296Y38715D01*
X423320Y38740D01*
X423347Y38761D01*
X423476Y38901D01*
X423610Y39037D01*
X423629Y39066D01*
X423652Y39092D01*
X423755Y39253D01*
X423862Y39411D01*
X423876Y39442D01*
X423894Y39471D01*
X423967Y39648D01*
X424044Y39822D01*
X424052Y39856D01*
X424065Y39888D01*
X424105Y40075D01*
X424151Y40260D01*
X424153Y40294D01*
X424160Y40328D01*
X424179Y40640D01*
X424179Y56897D01*
X451693Y56897D01*
X452339Y56724D01*
X452630Y56555D01*
X452651Y56545D01*
X452670Y56532D01*
X452856Y56450D01*
X453039Y56366D01*
X453061Y56360D01*
X453082Y56350D01*
X453279Y56302D01*
X453474Y56251D01*
X453497Y56249D01*
X453520Y56244D01*
X453721Y56231D01*
X453923Y56215D01*
X453946Y56217D01*
X453969Y56216D01*
X454170Y56239D01*
X454371Y56259D01*
X454393Y56265D01*
X454416Y56268D01*
X454610Y56327D01*
X454804Y56381D01*
X454825Y56392D01*
X454847Y56398D01*
X455028Y56490D01*
X455209Y56578D01*
X455228Y56592D01*
X455249Y56603D01*
X455409Y56724D01*
X455573Y56844D01*
X455589Y56861D01*
X455607Y56875D01*
X455744Y57023D01*
X455884Y57169D01*
X455897Y57189D01*
X455913Y57206D01*
X456021Y57376D01*
X456133Y57545D01*
X456142Y57566D01*
X456154Y57586D01*
X456231Y57772D01*
X456311Y57958D01*
X456317Y57981D01*
X456325Y58002D01*
X456368Y58200D01*
X456414Y58397D01*
X456415Y58420D01*
X456420Y58442D01*
X456439Y58754D01*
X456439Y406300D01*
X456437Y406328D01*
X456438Y406353D01*
X456438Y406358D01*
X456438Y406369D01*
X456416Y406558D01*
X456399Y406749D01*
X456390Y406782D01*
X456386Y406816D01*
X456331Y406999D01*
X456281Y407183D01*
X456266Y407214D01*
X456256Y407247D01*
X456169Y407418D01*
X456087Y407590D01*
X456067Y407618D01*
X456052Y407649D01*
X455936Y407801D01*
X455825Y407956D01*
X455800Y407980D01*
X455780Y408007D01*
X455640Y408136D01*
X455503Y408270D01*
X455474Y408289D01*
X455448Y408313D01*
X455287Y408415D01*
X455130Y408522D01*
X455098Y408536D01*
X455069Y408554D01*
X454892Y408627D01*
X454718Y408704D01*
X454684Y408712D01*
X454652Y408725D01*
X454465Y408765D01*
X454280Y408811D01*
X454246Y408813D01*
X454212Y408820D01*
X453900Y408839D01*
X386360Y408839D01*
X386231Y408828D01*
X386101Y408826D01*
X386007Y408808D01*
X385912Y408799D01*
X385786Y408765D01*
X385659Y408740D01*
X385570Y408706D01*
X385478Y408681D01*
X385360Y408625D01*
X385239Y408578D01*
X385157Y408528D01*
X385071Y408487D01*
X384965Y408412D01*
X384854Y408344D01*
X384783Y408281D01*
X384705Y408225D01*
X384614Y408132D01*
X384517Y408046D01*
X384458Y407971D01*
X384391Y407903D01*
X384318Y407795D01*
X384237Y407693D01*
X384192Y407609D01*
X384139Y407530D01*
X384086Y407411D01*
X384025Y407296D01*
X383995Y407205D01*
X383956Y407118D01*
X383926Y406991D01*
X383885Y406868D01*
X383872Y406773D01*
X383850Y406680D01*
X383842Y406551D01*
X383824Y406422D01*
X383828Y406326D01*
X383822Y406231D01*
X383837Y406102D01*
X383842Y405972D01*
X383863Y405879D01*
X383874Y405784D01*
X383912Y405659D01*
X383940Y405532D01*
X383977Y405444D01*
X384004Y405353D01*
X384064Y405237D01*
X384114Y405117D01*
X384165Y405037D01*
X384209Y404951D01*
X384287Y404848D01*
X384358Y404739D01*
X384444Y404641D01*
X384481Y404593D01*
X384494Y404581D01*
X384497Y404576D01*
X384520Y404556D01*
X384565Y404504D01*
X391161Y397909D01*
X391161Y396239D01*
X381000Y396239D01*
X370839Y396239D01*
X370839Y397909D01*
X377435Y404504D01*
X377519Y404604D01*
X377609Y404697D01*
X377663Y404777D01*
X377724Y404850D01*
X377789Y404963D01*
X377861Y405070D01*
X377900Y405158D01*
X377947Y405241D01*
X377991Y405363D01*
X378044Y405482D01*
X378066Y405575D01*
X378098Y405665D01*
X378119Y405793D01*
X378150Y405920D01*
X378156Y406015D01*
X378172Y406109D01*
X378170Y406239D01*
X378178Y406369D01*
X378167Y406464D01*
X378166Y406560D01*
X378141Y406687D01*
X378126Y406816D01*
X378098Y406908D01*
X378080Y407002D01*
X378033Y407123D01*
X377996Y407247D01*
X377952Y407332D01*
X377918Y407422D01*
X377850Y407533D01*
X377791Y407649D01*
X377733Y407725D01*
X377684Y407806D01*
X377598Y407904D01*
X377519Y408007D01*
X377449Y408072D01*
X377386Y408144D01*
X377284Y408224D01*
X377188Y408313D01*
X377107Y408364D01*
X377033Y408423D01*
X376918Y408484D01*
X376808Y408554D01*
X376720Y408591D01*
X376636Y408636D01*
X376512Y408676D01*
X376392Y408725D01*
X376298Y408745D01*
X376207Y408775D01*
X376079Y408793D01*
X375951Y408820D01*
X375822Y408828D01*
X375761Y408836D01*
X375716Y408835D01*
X375640Y408839D01*
X12700Y408839D01*
X12665Y408836D01*
X12631Y408838D01*
X12442Y408816D01*
X12251Y408799D01*
X12218Y408790D01*
X12184Y408786D01*
X12001Y408731D01*
X11817Y408681D01*
X11786Y408666D01*
X11753Y408656D01*
X11582Y408569D01*
X11410Y408487D01*
X11382Y408467D01*
X11351Y408452D01*
X11199Y408336D01*
X11044Y408225D01*
X11020Y408200D01*
X10993Y408180D01*
X10864Y408040D01*
X10730Y407903D01*
X10711Y407874D01*
X10687Y407848D01*
X10585Y407687D01*
X10478Y407530D01*
X10464Y407498D01*
X10446Y407469D01*
X10373Y407292D01*
X10296Y407118D01*
X10288Y407084D01*
X10275Y407052D01*
X10235Y406865D01*
X10189Y406680D01*
X10187Y406646D01*
X10180Y406612D01*
X10161Y406300D01*
X10161Y307376D01*
X10164Y307341D01*
X10162Y307307D01*
X10184Y307118D01*
X10201Y306927D01*
X10210Y306894D01*
X10214Y306860D01*
X10269Y306677D01*
X10319Y306493D01*
X10334Y306462D01*
X10344Y306429D01*
X10431Y306258D01*
X10513Y306086D01*
X10533Y306058D01*
X10548Y306027D01*
X10664Y305875D01*
X10775Y305720D01*
X10800Y305696D01*
X10820Y305669D01*
X10960Y305540D01*
X11097Y305406D01*
X11126Y305387D01*
X11152Y305363D01*
X11313Y305261D01*
X11470Y305154D01*
X11502Y305140D01*
X11531Y305122D01*
X11708Y305049D01*
X11882Y304972D01*
X11916Y304964D01*
X11948Y304951D01*
X12135Y304911D01*
X12320Y304865D01*
X12354Y304863D01*
X12388Y304856D01*
X12700Y304837D01*
X27644Y304837D01*
X28537Y303944D01*
X28537Y294758D01*
X28540Y294723D01*
X28538Y294689D01*
X28560Y294500D01*
X28577Y294309D01*
X28586Y294276D01*
X28590Y294242D01*
X28645Y294059D01*
X28695Y293875D01*
X28710Y293844D01*
X28720Y293811D01*
X28807Y293640D01*
X28889Y293468D01*
X28909Y293440D01*
X28924Y293409D01*
X29040Y293257D01*
X29151Y293102D01*
X29176Y293078D01*
X29196Y293051D01*
X29336Y292922D01*
X29473Y292788D01*
X29502Y292769D01*
X29528Y292745D01*
X29689Y292643D01*
X29846Y292536D01*
X29878Y292522D01*
X29907Y292504D01*
X30084Y292431D01*
X30258Y292354D01*
X30292Y292346D01*
X30324Y292333D01*
X30511Y292293D01*
X30696Y292247D01*
X30730Y292245D01*
X30764Y292238D01*
X31076Y292219D01*
X90514Y292219D01*
X90678Y292233D01*
X90843Y292240D01*
X90902Y292253D01*
X90963Y292259D01*
X91122Y292302D01*
X91282Y292338D01*
X91339Y292361D01*
X91397Y292377D01*
X91545Y292448D01*
X91698Y292511D01*
X91749Y292544D01*
X91804Y292571D01*
X91937Y292666D01*
X92076Y292756D01*
X92134Y292807D01*
X92170Y292833D01*
X92213Y292876D01*
X92310Y292962D01*
X93268Y293920D01*
X93343Y294010D01*
X93425Y294093D01*
X93487Y294182D01*
X93557Y294266D01*
X93615Y294367D01*
X93681Y294463D01*
X93749Y294602D01*
X93780Y294657D01*
X93792Y294691D01*
X93818Y294744D01*
X94400Y296148D01*
X108950Y310698D01*
X109055Y310824D01*
X109167Y310945D01*
X109199Y310996D01*
X109238Y311043D01*
X109320Y311186D01*
X109408Y311325D01*
X109432Y311381D01*
X109462Y311434D01*
X109517Y311589D01*
X109579Y311741D01*
X109592Y311801D01*
X109613Y311859D01*
X109613Y311862D01*
X110501Y314006D01*
X111994Y315499D01*
X113944Y316307D01*
X116056Y316307D01*
X118006Y315499D01*
X119499Y314006D01*
X120307Y312056D01*
X120307Y309944D01*
X119499Y307994D01*
X118006Y306501D01*
X115818Y305595D01*
X115726Y305574D01*
X115669Y305551D01*
X115611Y305535D01*
X115462Y305464D01*
X115310Y305401D01*
X115259Y305368D01*
X115204Y305341D01*
X115070Y305246D01*
X114932Y305156D01*
X114874Y305105D01*
X114838Y305079D01*
X114795Y305036D01*
X114698Y304950D01*
X102424Y292676D01*
X102349Y292586D01*
X102267Y292503D01*
X102205Y292414D01*
X102135Y292330D01*
X102077Y292229D01*
X102011Y292133D01*
X101943Y291994D01*
X101912Y291939D01*
X101900Y291905D01*
X101874Y291852D01*
X101292Y290448D01*
X95552Y284708D01*
X94058Y284089D01*
X34589Y284089D01*
X34426Y284075D01*
X34261Y284068D01*
X34202Y284055D01*
X34141Y284049D01*
X33982Y284006D01*
X33822Y283970D01*
X33765Y283947D01*
X33707Y283931D01*
X33558Y283860D01*
X33406Y283797D01*
X33355Y283764D01*
X33300Y283737D01*
X33166Y283642D01*
X33028Y283552D01*
X32970Y283501D01*
X32934Y283475D01*
X32891Y283432D01*
X32794Y283346D01*
X29280Y279832D01*
X29175Y279706D01*
X29063Y279585D01*
X29031Y279534D01*
X28992Y279487D01*
X28910Y279344D01*
X28822Y279205D01*
X28798Y279149D01*
X28768Y279096D01*
X28713Y278941D01*
X28651Y278789D01*
X28638Y278729D01*
X28617Y278671D01*
X28591Y278509D01*
X28556Y278348D01*
X28551Y278272D01*
X28544Y278227D01*
X28545Y278166D01*
X28537Y278037D01*
X28537Y274482D01*
X27222Y271308D01*
X24792Y268878D01*
X21618Y267563D01*
X18182Y267563D01*
X15008Y268878D01*
X14496Y269390D01*
X14396Y269474D01*
X14303Y269564D01*
X14223Y269618D01*
X14150Y269679D01*
X14037Y269744D01*
X13930Y269817D01*
X13842Y269855D01*
X13759Y269903D01*
X13637Y269946D01*
X13518Y269999D01*
X13425Y270021D01*
X13335Y270053D01*
X13207Y270075D01*
X13080Y270105D01*
X12985Y270111D01*
X12891Y270127D01*
X12761Y270125D01*
X12631Y270133D01*
X12536Y270122D01*
X12441Y270121D01*
X12313Y270096D01*
X12184Y270081D01*
X12092Y270053D01*
X11998Y270035D01*
X11877Y269988D01*
X11753Y269951D01*
X11668Y269907D01*
X11578Y269873D01*
X11467Y269805D01*
X11351Y269746D01*
X11275Y269689D01*
X11194Y269639D01*
X11096Y269553D01*
X10993Y269474D01*
X10928Y269404D01*
X10856Y269341D01*
X10776Y269239D01*
X10687Y269143D01*
X10636Y269063D01*
X10577Y268988D01*
X10516Y268873D01*
X10446Y268763D01*
X10409Y268675D01*
X10364Y268591D01*
X10324Y268467D01*
X10275Y268347D01*
X10255Y268253D01*
X10225Y268163D01*
X10207Y268034D01*
X10180Y267907D01*
X10172Y267777D01*
X10164Y267717D01*
X10165Y267672D01*
X10161Y267595D01*
X10161Y12700D01*
X10164Y12665D01*
X10162Y12631D01*
X10184Y12442D01*
X10201Y12251D01*
X10210Y12218D01*
X10214Y12184D01*
X10269Y12001D01*
X10319Y11817D01*
X10334Y11786D01*
X10344Y11753D01*
X10431Y11582D01*
X10513Y11410D01*
X10533Y11382D01*
X10548Y11351D01*
X10664Y11199D01*
X10775Y11044D01*
X10800Y11020D01*
X10820Y10993D01*
X10960Y10864D01*
X11097Y10730D01*
X11126Y10711D01*
X11152Y10687D01*
X11313Y10585D01*
X11470Y10478D01*
X11502Y10464D01*
X11531Y10446D01*
X11708Y10373D01*
X11882Y10296D01*
X11916Y10288D01*
X11948Y10275D01*
X12135Y10235D01*
X12320Y10189D01*
X12354Y10187D01*
X12388Y10180D01*
X12700Y10161D01*
X453900Y10161D01*
X453935Y10164D01*
G37*
%LPC*%
G36*
X175944Y77693D02*
X175944Y77693D01*
X173994Y78501D01*
X172501Y79994D01*
X171693Y81944D01*
X171693Y84056D01*
X172501Y86006D01*
X173994Y87499D01*
X175944Y88307D01*
X178056Y88307D01*
X180006Y87499D01*
X180966Y86538D01*
X181093Y86433D01*
X181213Y86321D01*
X181265Y86289D01*
X181312Y86250D01*
X181454Y86168D01*
X181593Y86080D01*
X181650Y86056D01*
X181703Y86026D01*
X181858Y85971D01*
X182010Y85909D01*
X182069Y85896D01*
X182127Y85875D01*
X182289Y85849D01*
X182450Y85814D01*
X182527Y85809D01*
X182571Y85802D01*
X182632Y85803D01*
X182762Y85795D01*
X281570Y85795D01*
X281700Y85806D01*
X281830Y85808D01*
X281923Y85826D01*
X282019Y85835D01*
X282144Y85869D01*
X282272Y85894D01*
X282361Y85928D01*
X282453Y85953D01*
X282570Y86009D01*
X282692Y86056D01*
X282774Y86106D01*
X282860Y86147D01*
X282965Y86222D01*
X283077Y86290D01*
X283148Y86353D01*
X283226Y86409D01*
X283317Y86502D01*
X283414Y86588D01*
X283473Y86663D01*
X283540Y86731D01*
X283613Y86839D01*
X283693Y86941D01*
X283738Y87025D01*
X283792Y87104D01*
X283845Y87223D01*
X283906Y87338D01*
X283935Y87429D01*
X283974Y87516D01*
X284005Y87643D01*
X284045Y87766D01*
X284058Y87861D01*
X284081Y87954D01*
X284089Y88083D01*
X284106Y88212D01*
X284103Y88308D01*
X284108Y88403D01*
X284093Y88532D01*
X284088Y88662D01*
X284067Y88755D01*
X284056Y88850D01*
X284019Y88975D01*
X283991Y89102D01*
X283954Y89190D01*
X283926Y89281D01*
X283867Y89397D01*
X283817Y89517D01*
X283765Y89598D01*
X283722Y89683D01*
X283643Y89786D01*
X283573Y89896D01*
X283515Y89961D01*
X282693Y91944D01*
X282693Y94056D01*
X283501Y96006D01*
X284994Y97499D01*
X286944Y98307D01*
X289056Y98307D01*
X291243Y97401D01*
X291323Y97350D01*
X291380Y97326D01*
X291433Y97296D01*
X291588Y97241D01*
X291740Y97179D01*
X291799Y97166D01*
X291857Y97145D01*
X292019Y97119D01*
X292180Y97084D01*
X292257Y97079D01*
X292301Y97072D01*
X292362Y97073D01*
X292492Y97065D01*
X361265Y97065D01*
X361428Y97079D01*
X361593Y97086D01*
X361652Y97099D01*
X361713Y97105D01*
X361872Y97148D01*
X362032Y97184D01*
X362089Y97207D01*
X362147Y97223D01*
X362296Y97294D01*
X362448Y97357D01*
X362499Y97390D01*
X362554Y97417D01*
X362688Y97512D01*
X362826Y97602D01*
X362884Y97653D01*
X362920Y97679D01*
X362963Y97722D01*
X363060Y97808D01*
X398192Y132940D01*
X398297Y133066D01*
X398409Y133187D01*
X398441Y133238D01*
X398480Y133285D01*
X398562Y133428D01*
X398650Y133567D01*
X398674Y133623D01*
X398704Y133676D01*
X398759Y133831D01*
X398821Y133983D01*
X398834Y134043D01*
X398855Y134101D01*
X398881Y134263D01*
X398916Y134424D01*
X398921Y134500D01*
X398928Y134545D01*
X398927Y134606D01*
X398935Y134735D01*
X398935Y221353D01*
X398920Y221530D01*
X398910Y221707D01*
X398900Y221754D01*
X398895Y221802D01*
X398849Y221973D01*
X398808Y222146D01*
X398789Y222190D01*
X398777Y222236D01*
X398701Y222396D01*
X398630Y222560D01*
X398604Y222600D01*
X398583Y222643D01*
X398480Y222787D01*
X398382Y222935D01*
X398349Y222970D01*
X398321Y223009D01*
X398194Y223133D01*
X398071Y223261D01*
X398033Y223289D01*
X397999Y223323D01*
X397851Y223422D01*
X397708Y223527D01*
X397665Y223548D01*
X397626Y223575D01*
X397463Y223647D01*
X397304Y223725D01*
X397258Y223738D01*
X397214Y223757D01*
X397041Y223799D01*
X396870Y223848D01*
X396823Y223852D01*
X396776Y223864D01*
X396599Y223875D01*
X396422Y223892D01*
X396375Y223888D01*
X396327Y223891D01*
X396150Y223871D01*
X395973Y223857D01*
X395927Y223845D01*
X395880Y223839D01*
X395709Y223788D01*
X395538Y223743D01*
X395495Y223723D01*
X395449Y223709D01*
X395290Y223628D01*
X395129Y223554D01*
X395090Y223526D01*
X395047Y223505D01*
X394906Y223397D01*
X394760Y223295D01*
X394727Y223262D01*
X394689Y223233D01*
X394568Y223102D01*
X394443Y222976D01*
X394416Y222937D01*
X394384Y222902D01*
X394288Y222751D01*
X394187Y222606D01*
X394161Y222552D01*
X394142Y222522D01*
X394118Y222463D01*
X394050Y222325D01*
X393499Y220994D01*
X392006Y219501D01*
X390056Y218693D01*
X387944Y218693D01*
X385757Y219599D01*
X385677Y219650D01*
X385621Y219673D01*
X385568Y219703D01*
X385413Y219759D01*
X385260Y219821D01*
X385201Y219834D01*
X385144Y219854D01*
X384981Y219881D01*
X384820Y219916D01*
X384743Y219921D01*
X384700Y219928D01*
X384639Y219927D01*
X384508Y219935D01*
X208735Y219935D01*
X208572Y219921D01*
X208407Y219914D01*
X208348Y219901D01*
X208287Y219895D01*
X208128Y219852D01*
X207968Y219816D01*
X207911Y219793D01*
X207853Y219777D01*
X207704Y219706D01*
X207552Y219643D01*
X207501Y219610D01*
X207446Y219583D01*
X207312Y219488D01*
X207174Y219398D01*
X207116Y219347D01*
X207080Y219321D01*
X207037Y219278D01*
X206940Y219192D01*
X174302Y186554D01*
X172809Y185935D01*
X108492Y185935D01*
X108328Y185921D01*
X108164Y185914D01*
X108104Y185901D01*
X108043Y185895D01*
X107885Y185852D01*
X107724Y185816D01*
X107668Y185793D01*
X107609Y185777D01*
X107461Y185706D01*
X107309Y185643D01*
X107257Y185610D01*
X107202Y185583D01*
X107199Y185581D01*
X105056Y184693D01*
X102944Y184693D01*
X100994Y185501D01*
X99501Y186994D01*
X98693Y188944D01*
X98693Y191056D01*
X99501Y193006D01*
X100994Y194499D01*
X102944Y195307D01*
X105056Y195307D01*
X107243Y194401D01*
X107323Y194350D01*
X107380Y194326D01*
X107433Y194296D01*
X107588Y194241D01*
X107740Y194179D01*
X107799Y194166D01*
X107857Y194145D01*
X108019Y194119D01*
X108180Y194084D01*
X108257Y194079D01*
X108301Y194072D01*
X108362Y194073D01*
X108492Y194065D01*
X169265Y194065D01*
X169428Y194079D01*
X169593Y194086D01*
X169652Y194099D01*
X169713Y194105D01*
X169872Y194148D01*
X170032Y194184D01*
X170089Y194207D01*
X170147Y194223D01*
X170296Y194294D01*
X170448Y194357D01*
X170499Y194390D01*
X170554Y194417D01*
X170688Y194512D01*
X170826Y194602D01*
X170884Y194653D01*
X170920Y194679D01*
X170963Y194722D01*
X171060Y194808D01*
X203698Y227446D01*
X205191Y228065D01*
X384508Y228065D01*
X384673Y228079D01*
X384837Y228086D01*
X384896Y228099D01*
X384957Y228105D01*
X385116Y228148D01*
X385277Y228184D01*
X385333Y228207D01*
X385391Y228223D01*
X385540Y228294D01*
X385692Y228358D01*
X385743Y228391D01*
X385798Y228417D01*
X385801Y228419D01*
X387944Y229307D01*
X390056Y229307D01*
X392006Y228499D01*
X393499Y227006D01*
X394050Y225675D01*
X394132Y225518D01*
X394209Y225357D01*
X394236Y225319D01*
X394259Y225276D01*
X394367Y225136D01*
X394471Y224991D01*
X394505Y224958D01*
X394534Y224920D01*
X394666Y224801D01*
X394793Y224677D01*
X394833Y224651D01*
X394869Y224618D01*
X395019Y224525D01*
X395166Y224425D01*
X395210Y224406D01*
X395251Y224381D01*
X395416Y224315D01*
X395578Y224243D01*
X395625Y224232D01*
X395669Y224214D01*
X395843Y224178D01*
X396016Y224136D01*
X396063Y224133D01*
X396110Y224124D01*
X396288Y224120D01*
X396465Y224109D01*
X396513Y224114D01*
X396560Y224113D01*
X396736Y224140D01*
X396912Y224161D01*
X396958Y224175D01*
X397005Y224182D01*
X397173Y224240D01*
X397343Y224291D01*
X397386Y224313D01*
X397431Y224328D01*
X397587Y224415D01*
X397745Y224495D01*
X397783Y224524D01*
X397824Y224548D01*
X397962Y224660D01*
X398103Y224767D01*
X398136Y224803D01*
X398173Y224833D01*
X398288Y224968D01*
X398409Y225098D01*
X398434Y225139D01*
X398465Y225175D01*
X398555Y225328D01*
X398650Y225478D01*
X398669Y225523D01*
X398693Y225564D01*
X398754Y225730D01*
X398821Y225895D01*
X398831Y225942D01*
X398848Y225986D01*
X398879Y226161D01*
X398916Y226335D01*
X398920Y226394D01*
X398926Y226430D01*
X398926Y226493D01*
X398935Y226647D01*
X398935Y326508D01*
X398921Y326672D01*
X398914Y326836D01*
X398901Y326896D01*
X398895Y326957D01*
X398852Y327115D01*
X398816Y327276D01*
X398793Y327332D01*
X398777Y327391D01*
X398706Y327539D01*
X398643Y327691D01*
X398610Y327743D01*
X398583Y327798D01*
X398581Y327801D01*
X397693Y329944D01*
X397693Y332056D01*
X398501Y334006D01*
X399994Y335499D01*
X402142Y336388D01*
X402215Y336426D01*
X402291Y336456D01*
X402414Y336531D01*
X402541Y336597D01*
X402606Y336647D01*
X402676Y336690D01*
X402783Y336785D01*
X402897Y336873D01*
X402952Y336934D01*
X403014Y336988D01*
X403102Y337101D01*
X403198Y337207D01*
X403242Y337277D01*
X403293Y337341D01*
X403361Y337468D01*
X403436Y337589D01*
X403467Y337666D01*
X403506Y337738D01*
X403550Y337874D01*
X403603Y338007D01*
X403619Y338088D01*
X403645Y338167D01*
X403664Y338308D01*
X403693Y338449D01*
X403695Y338531D01*
X403706Y338613D01*
X403700Y338756D01*
X403704Y338899D01*
X403691Y338980D01*
X403688Y339062D01*
X403657Y339202D01*
X403635Y339344D01*
X403608Y339422D01*
X403590Y339502D01*
X403535Y339634D01*
X403488Y339769D01*
X403448Y339841D01*
X403417Y339917D01*
X403339Y340038D01*
X403269Y340163D01*
X403217Y340226D01*
X403172Y340296D01*
X403009Y340481D01*
X402984Y340511D01*
X402976Y340518D01*
X402965Y340530D01*
X401501Y341994D01*
X400693Y343944D01*
X400693Y346056D01*
X401501Y348006D01*
X402994Y349499D01*
X404944Y350307D01*
X407056Y350307D01*
X409006Y349499D01*
X410499Y348006D01*
X411405Y345818D01*
X411426Y345726D01*
X411449Y345669D01*
X411465Y345611D01*
X411536Y345462D01*
X411599Y345310D01*
X411632Y345259D01*
X411659Y345204D01*
X411754Y345070D01*
X411844Y344932D01*
X411895Y344874D01*
X411921Y344838D01*
X411964Y344795D01*
X412050Y344698D01*
X442446Y314302D01*
X443065Y312809D01*
X443065Y135191D01*
X442446Y133698D01*
X388302Y79554D01*
X386809Y78935D01*
X303492Y78935D01*
X303328Y78921D01*
X303164Y78914D01*
X303104Y78901D01*
X303043Y78895D01*
X302885Y78852D01*
X302724Y78816D01*
X302668Y78793D01*
X302609Y78777D01*
X302461Y78706D01*
X302309Y78643D01*
X302257Y78610D01*
X302202Y78583D01*
X302199Y78581D01*
X300056Y77693D01*
X297944Y77693D01*
X295994Y78501D01*
X295034Y79462D01*
X294907Y79567D01*
X294787Y79679D01*
X294735Y79711D01*
X294688Y79750D01*
X294546Y79832D01*
X294407Y79920D01*
X294350Y79944D01*
X294297Y79974D01*
X294142Y80029D01*
X293990Y80091D01*
X293931Y80104D01*
X293873Y80125D01*
X293711Y80151D01*
X293550Y80186D01*
X293473Y80191D01*
X293429Y80198D01*
X293368Y80197D01*
X293238Y80205D01*
X182762Y80205D01*
X182598Y80191D01*
X182434Y80184D01*
X182374Y80171D01*
X182313Y80165D01*
X182155Y80122D01*
X181994Y80086D01*
X181938Y80063D01*
X181879Y80047D01*
X181731Y79976D01*
X181579Y79913D01*
X181527Y79880D01*
X181472Y79853D01*
X181339Y79758D01*
X181201Y79668D01*
X181143Y79617D01*
X181106Y79591D01*
X181064Y79548D01*
X180966Y79462D01*
X180006Y78501D01*
X178056Y77693D01*
X175944Y77693D01*
G37*
%LPD*%
G36*
X383428Y87079D02*
X383428Y87079D01*
X383593Y87086D01*
X383652Y87099D01*
X383713Y87105D01*
X383872Y87148D01*
X384032Y87184D01*
X384089Y87207D01*
X384147Y87223D01*
X384296Y87294D01*
X384448Y87357D01*
X384499Y87390D01*
X384554Y87417D01*
X384688Y87512D01*
X384826Y87602D01*
X384884Y87653D01*
X384920Y87679D01*
X384963Y87722D01*
X385060Y87808D01*
X434192Y136940D01*
X434297Y137066D01*
X434409Y137187D01*
X434441Y137238D01*
X434480Y137285D01*
X434562Y137428D01*
X434650Y137567D01*
X434674Y137623D01*
X434704Y137676D01*
X434759Y137831D01*
X434821Y137983D01*
X434834Y138043D01*
X434855Y138101D01*
X434881Y138263D01*
X434916Y138424D01*
X434921Y138500D01*
X434928Y138545D01*
X434927Y138606D01*
X434935Y138735D01*
X434935Y309265D01*
X434921Y309428D01*
X434914Y309593D01*
X434901Y309652D01*
X434895Y309713D01*
X434852Y309872D01*
X434816Y310032D01*
X434793Y310089D01*
X434777Y310147D01*
X434706Y310296D01*
X434643Y310448D01*
X434610Y310499D01*
X434583Y310554D01*
X434488Y310687D01*
X434398Y310826D01*
X434347Y310884D01*
X434321Y310920D01*
X434278Y310963D01*
X434192Y311060D01*
X412642Y332610D01*
X412542Y332694D01*
X412449Y332784D01*
X412369Y332838D01*
X412296Y332899D01*
X412183Y332964D01*
X412076Y333036D01*
X411988Y333075D01*
X411905Y333122D01*
X411783Y333166D01*
X411664Y333219D01*
X411571Y333241D01*
X411481Y333273D01*
X411352Y333294D01*
X411226Y333325D01*
X411131Y333331D01*
X411037Y333347D01*
X410906Y333345D01*
X410777Y333353D01*
X410682Y333342D01*
X410586Y333341D01*
X410459Y333316D01*
X410330Y333301D01*
X410238Y333273D01*
X410144Y333255D01*
X410023Y333208D01*
X409899Y333171D01*
X409814Y333127D01*
X409724Y333093D01*
X409613Y333025D01*
X409497Y332966D01*
X409421Y332909D01*
X409340Y332859D01*
X409242Y332773D01*
X409139Y332694D01*
X409074Y332624D01*
X409002Y332561D01*
X408922Y332459D01*
X408833Y332363D01*
X408782Y332282D01*
X408723Y332208D01*
X408662Y332093D01*
X408592Y331983D01*
X408555Y331895D01*
X408510Y331811D01*
X408470Y331687D01*
X408421Y331567D01*
X408401Y331473D01*
X408371Y331382D01*
X408353Y331254D01*
X408326Y331127D01*
X408318Y330997D01*
X408310Y330936D01*
X408311Y330892D01*
X408307Y330815D01*
X408307Y329944D01*
X407401Y327757D01*
X407350Y327677D01*
X407326Y327620D01*
X407296Y327567D01*
X407241Y327412D01*
X407179Y327260D01*
X407166Y327201D01*
X407145Y327143D01*
X407119Y326981D01*
X407084Y326820D01*
X407079Y326743D01*
X407072Y326699D01*
X407073Y326638D01*
X407065Y326508D01*
X407065Y214691D01*
X407076Y214562D01*
X407078Y214432D01*
X407096Y214338D01*
X407105Y214243D01*
X407139Y214117D01*
X407164Y213990D01*
X407198Y213900D01*
X407223Y213808D01*
X407279Y213691D01*
X407326Y213570D01*
X407376Y213488D01*
X407417Y213402D01*
X407492Y213296D01*
X407560Y213185D01*
X407623Y213113D01*
X407679Y213036D01*
X407772Y212945D01*
X407858Y212847D01*
X407933Y212788D01*
X408001Y212722D01*
X408109Y212649D01*
X408211Y212568D01*
X408295Y212523D01*
X408374Y212470D01*
X408494Y212417D01*
X408608Y212355D01*
X408699Y212326D01*
X408786Y212287D01*
X408913Y212257D01*
X409036Y212216D01*
X409131Y212203D01*
X409224Y212181D01*
X409353Y212173D01*
X409482Y212155D01*
X409578Y212159D01*
X409673Y212153D01*
X409802Y212168D01*
X409932Y212173D01*
X410025Y212194D01*
X410120Y212205D01*
X410245Y212243D01*
X410372Y212271D01*
X410460Y212308D01*
X410551Y212335D01*
X410570Y212345D01*
X427352Y212345D01*
X428245Y211452D01*
X428245Y194948D01*
X427352Y194055D01*
X410554Y194055D01*
X410541Y194060D01*
X410422Y194113D01*
X410329Y194135D01*
X410239Y194167D01*
X410111Y194188D01*
X409984Y194219D01*
X409889Y194225D01*
X409795Y194241D01*
X409665Y194239D01*
X409535Y194247D01*
X409440Y194236D01*
X409345Y194235D01*
X409217Y194210D01*
X409088Y194195D01*
X408996Y194167D01*
X408903Y194149D01*
X408781Y194102D01*
X408657Y194065D01*
X408572Y194021D01*
X408483Y193987D01*
X408371Y193919D01*
X408255Y193860D01*
X408179Y193803D01*
X408098Y193753D01*
X408000Y193667D01*
X407897Y193588D01*
X407832Y193518D01*
X407760Y193455D01*
X407680Y193353D01*
X407591Y193257D01*
X407540Y193177D01*
X407481Y193102D01*
X407420Y192987D01*
X407350Y192877D01*
X407313Y192789D01*
X407268Y192705D01*
X407228Y192581D01*
X407179Y192461D01*
X407159Y192368D01*
X407129Y192277D01*
X407111Y192148D01*
X407084Y192021D01*
X407076Y191891D01*
X407068Y191831D01*
X407069Y191786D01*
X407065Y191709D01*
X407065Y184828D01*
X407076Y184698D01*
X407078Y184568D01*
X407096Y184474D01*
X407105Y184379D01*
X407139Y184254D01*
X407164Y184126D01*
X407198Y184037D01*
X407223Y183945D01*
X407279Y183828D01*
X407326Y183706D01*
X407376Y183624D01*
X407417Y183538D01*
X407492Y183433D01*
X407560Y183321D01*
X407623Y183250D01*
X407679Y183172D01*
X407772Y183081D01*
X407858Y182984D01*
X407933Y182925D01*
X408001Y182858D01*
X408109Y182785D01*
X408211Y182705D01*
X408295Y182659D01*
X408374Y182606D01*
X408493Y182553D01*
X408608Y182492D01*
X408699Y182462D01*
X408786Y182424D01*
X408913Y182393D01*
X409036Y182353D01*
X409131Y182340D01*
X409224Y182317D01*
X409353Y182309D01*
X409482Y182291D01*
X409578Y182295D01*
X409673Y182289D01*
X409802Y182304D01*
X409932Y182310D01*
X410025Y182330D01*
X410120Y182341D01*
X410245Y182379D01*
X410372Y182407D01*
X410460Y182444D01*
X410551Y182472D01*
X410667Y182531D01*
X410787Y182581D01*
X410867Y182633D01*
X410953Y182676D01*
X411056Y182755D01*
X411165Y182825D01*
X411263Y182911D01*
X411311Y182948D01*
X411342Y182981D01*
X411400Y183032D01*
X415312Y186945D01*
X422888Y186945D01*
X428245Y181588D01*
X428245Y174012D01*
X422888Y168655D01*
X415312Y168655D01*
X411400Y172568D01*
X411300Y172651D01*
X411207Y172742D01*
X411127Y172796D01*
X411054Y172857D01*
X410941Y172921D01*
X410834Y172994D01*
X410746Y173033D01*
X410663Y173080D01*
X410541Y173124D01*
X410422Y173176D01*
X410329Y173199D01*
X410239Y173231D01*
X410111Y173252D01*
X409984Y173283D01*
X409889Y173289D01*
X409795Y173304D01*
X409665Y173303D01*
X409535Y173311D01*
X409440Y173300D01*
X409344Y173298D01*
X409217Y173274D01*
X409088Y173259D01*
X408996Y173231D01*
X408902Y173213D01*
X408781Y173166D01*
X408657Y173128D01*
X408572Y173085D01*
X408482Y173051D01*
X408371Y172983D01*
X408255Y172924D01*
X408179Y172866D01*
X408098Y172817D01*
X408000Y172730D01*
X407897Y172652D01*
X407832Y172582D01*
X407760Y172518D01*
X407680Y172416D01*
X407591Y172321D01*
X407540Y172240D01*
X407481Y172165D01*
X407420Y172051D01*
X407350Y171941D01*
X407313Y171853D01*
X407268Y171768D01*
X407228Y171645D01*
X407179Y171524D01*
X407159Y171431D01*
X407129Y171340D01*
X407111Y171212D01*
X407084Y171084D01*
X407076Y170955D01*
X407068Y170894D01*
X407069Y170849D01*
X407065Y170772D01*
X407065Y160864D01*
X407076Y160735D01*
X407078Y160605D01*
X407096Y160511D01*
X407105Y160416D01*
X407139Y160290D01*
X407164Y160163D01*
X407198Y160074D01*
X407223Y159982D01*
X407279Y159864D01*
X407326Y159743D01*
X407376Y159661D01*
X407417Y159575D01*
X407492Y159469D01*
X407560Y159358D01*
X407623Y159287D01*
X407679Y159209D01*
X407772Y159118D01*
X407858Y159021D01*
X407933Y158961D01*
X408001Y158895D01*
X408109Y158822D01*
X408211Y158741D01*
X408295Y158696D01*
X408374Y158643D01*
X408493Y158590D01*
X408608Y158529D01*
X408699Y158499D01*
X408786Y158460D01*
X408913Y158430D01*
X409036Y158389D01*
X409131Y158376D01*
X409224Y158354D01*
X409353Y158346D01*
X409482Y158328D01*
X409578Y158332D01*
X409673Y158326D01*
X409802Y158341D01*
X409932Y158346D01*
X410025Y158367D01*
X410120Y158378D01*
X410245Y158416D01*
X410372Y158444D01*
X410460Y158481D01*
X410551Y158508D01*
X410667Y158568D01*
X410787Y158618D01*
X410867Y158669D01*
X410953Y158713D01*
X411056Y158791D01*
X411165Y158862D01*
X411263Y158948D01*
X411311Y158985D01*
X411342Y159018D01*
X411400Y159069D01*
X414891Y162561D01*
X416561Y162561D01*
X416561Y152400D01*
X416561Y142239D01*
X414891Y142239D01*
X411400Y145731D01*
X411300Y145814D01*
X411207Y145905D01*
X411127Y145959D01*
X411054Y146020D01*
X410941Y146084D01*
X410834Y146157D01*
X410746Y146196D01*
X410663Y146243D01*
X410541Y146287D01*
X410422Y146340D01*
X410329Y146362D01*
X410239Y146394D01*
X410111Y146415D01*
X409984Y146446D01*
X409889Y146452D01*
X409795Y146468D01*
X409665Y146466D01*
X409535Y146474D01*
X409440Y146463D01*
X409344Y146462D01*
X409217Y146437D01*
X409088Y146422D01*
X408996Y146394D01*
X408902Y146376D01*
X408781Y146329D01*
X408657Y146292D01*
X408571Y146248D01*
X408482Y146214D01*
X408371Y146146D01*
X408255Y146087D01*
X408179Y146029D01*
X408098Y145980D01*
X408000Y145894D01*
X407897Y145815D01*
X407832Y145745D01*
X407760Y145682D01*
X407680Y145580D01*
X407591Y145484D01*
X407540Y145403D01*
X407481Y145329D01*
X407420Y145214D01*
X407350Y145104D01*
X407313Y145016D01*
X407268Y144932D01*
X407228Y144808D01*
X407179Y144688D01*
X407159Y144594D01*
X407129Y144503D01*
X407111Y144375D01*
X407084Y144247D01*
X407076Y144118D01*
X407068Y144057D01*
X407069Y144012D01*
X407065Y143936D01*
X407065Y131191D01*
X406446Y129698D01*
X368148Y91400D01*
X368064Y91300D01*
X367974Y91207D01*
X367920Y91127D01*
X367859Y91054D01*
X367794Y90941D01*
X367722Y90834D01*
X367683Y90746D01*
X367636Y90663D01*
X367592Y90541D01*
X367539Y90422D01*
X367517Y90329D01*
X367485Y90239D01*
X367464Y90110D01*
X367433Y89984D01*
X367427Y89889D01*
X367411Y89795D01*
X367413Y89664D01*
X367405Y89535D01*
X367416Y89440D01*
X367417Y89344D01*
X367442Y89217D01*
X367457Y89088D01*
X367485Y88996D01*
X367503Y88902D01*
X367550Y88781D01*
X367587Y88657D01*
X367631Y88572D01*
X367665Y88482D01*
X367733Y88371D01*
X367792Y88255D01*
X367849Y88179D01*
X367899Y88098D01*
X367985Y88000D01*
X368064Y87897D01*
X368134Y87832D01*
X368197Y87760D01*
X368299Y87680D01*
X368395Y87591D01*
X368476Y87540D01*
X368550Y87481D01*
X368665Y87420D01*
X368775Y87350D01*
X368863Y87313D01*
X368947Y87268D01*
X369071Y87228D01*
X369191Y87179D01*
X369285Y87159D01*
X369376Y87129D01*
X369504Y87111D01*
X369631Y87084D01*
X369761Y87076D01*
X369822Y87068D01*
X369866Y87069D01*
X369943Y87065D01*
X383265Y87065D01*
X383428Y87079D01*
G37*
%LPC*%
G36*
X168944Y236693D02*
X168944Y236693D01*
X166994Y237501D01*
X165501Y238994D01*
X164693Y240944D01*
X164693Y243056D01*
X165501Y245006D01*
X166994Y246499D01*
X168944Y247307D01*
X170303Y247307D01*
X170466Y247321D01*
X170631Y247328D01*
X170690Y247341D01*
X170751Y247347D01*
X170910Y247390D01*
X171070Y247426D01*
X171127Y247449D01*
X171185Y247465D01*
X171334Y247536D01*
X171486Y247599D01*
X171537Y247632D01*
X171592Y247659D01*
X171726Y247754D01*
X171864Y247844D01*
X171922Y247895D01*
X171958Y247921D01*
X172001Y247964D01*
X172098Y248050D01*
X235950Y311902D01*
X236055Y312028D01*
X236167Y312149D01*
X236199Y312200D01*
X236238Y312247D01*
X236320Y312390D01*
X236408Y312529D01*
X236432Y312585D01*
X236462Y312638D01*
X236517Y312793D01*
X236579Y312945D01*
X236592Y313005D01*
X236613Y313062D01*
X236639Y313225D01*
X236674Y313386D01*
X236679Y313462D01*
X236686Y313507D01*
X236685Y313568D01*
X236693Y313697D01*
X236693Y314056D01*
X237501Y316006D01*
X238994Y317499D01*
X240944Y318307D01*
X243056Y318307D01*
X245006Y317499D01*
X246499Y316006D01*
X247307Y314056D01*
X247307Y311944D01*
X246499Y309994D01*
X245006Y308501D01*
X243056Y307693D01*
X240697Y307693D01*
X240534Y307679D01*
X240369Y307672D01*
X240310Y307659D01*
X240249Y307653D01*
X240090Y307610D01*
X239930Y307574D01*
X239873Y307551D01*
X239815Y307535D01*
X239666Y307464D01*
X239514Y307401D01*
X239463Y307368D01*
X239408Y307341D01*
X239274Y307246D01*
X239136Y307156D01*
X239078Y307105D01*
X239042Y307079D01*
X238999Y307036D01*
X238902Y306950D01*
X176050Y244098D01*
X175945Y243972D01*
X175833Y243851D01*
X175801Y243800D01*
X175762Y243753D01*
X175680Y243610D01*
X175592Y243471D01*
X175568Y243415D01*
X175538Y243362D01*
X175483Y243207D01*
X175421Y243055D01*
X175408Y242995D01*
X175387Y242938D01*
X175361Y242775D01*
X175326Y242614D01*
X175321Y242538D01*
X175314Y242493D01*
X175315Y242432D01*
X175307Y242303D01*
X175307Y240944D01*
X174499Y238994D01*
X173006Y237501D01*
X171056Y236693D01*
X168944Y236693D01*
G37*
%LPD*%
%LPC*%
G36*
X384301Y43179D02*
X384301Y43179D01*
X384301Y54691D01*
X384474Y55337D01*
X384809Y55916D01*
X385282Y56389D01*
X385861Y56724D01*
X386507Y56897D01*
X414021Y56897D01*
X414021Y43179D01*
X384301Y43179D01*
G37*
%LPD*%
%LPC*%
G36*
X16001Y43179D02*
X16001Y43179D01*
X16001Y54691D01*
X16174Y55337D01*
X16509Y55916D01*
X16982Y56389D01*
X17561Y56724D01*
X18207Y56897D01*
X45721Y56897D01*
X45721Y43179D01*
X16001Y43179D01*
G37*
%LPD*%
%LPC*%
G36*
X55879Y43179D02*
X55879Y43179D01*
X55879Y56897D01*
X83393Y56897D01*
X84039Y56724D01*
X84618Y56389D01*
X85091Y55916D01*
X85426Y55337D01*
X85599Y54691D01*
X85599Y43179D01*
X55879Y43179D01*
G37*
%LPD*%
%LPC*%
G36*
X55879Y19303D02*
X55879Y19303D01*
X55879Y33021D01*
X85599Y33021D01*
X85599Y21509D01*
X85426Y20863D01*
X85091Y20284D01*
X84618Y19811D01*
X84039Y19476D01*
X83393Y19303D01*
X55879Y19303D01*
G37*
%LPD*%
%LPC*%
G36*
X18207Y19303D02*
X18207Y19303D01*
X17561Y19476D01*
X16982Y19811D01*
X16509Y20284D01*
X16174Y20863D01*
X16001Y21509D01*
X16001Y33021D01*
X45721Y33021D01*
X45721Y19303D01*
X18207Y19303D01*
G37*
%LPD*%
%LPC*%
G36*
X386507Y19303D02*
X386507Y19303D01*
X385861Y19476D01*
X385282Y19811D01*
X384809Y20284D01*
X384474Y20863D01*
X384301Y21509D01*
X384301Y33021D01*
X414021Y33021D01*
X414021Y19303D01*
X386507Y19303D01*
G37*
%LPD*%
%LPC*%
G36*
X423548Y384555D02*
X423548Y384555D01*
X422655Y385448D01*
X422655Y401952D01*
X423548Y402845D01*
X440052Y402845D01*
X440945Y401952D01*
X440945Y385448D01*
X440052Y384555D01*
X423548Y384555D01*
G37*
%LPD*%
%LPC*%
G36*
X402612Y384555D02*
X402612Y384555D01*
X397255Y389912D01*
X397255Y397488D01*
X402612Y402845D01*
X410188Y402845D01*
X415545Y397488D01*
X415545Y389912D01*
X410188Y384555D01*
X402612Y384555D01*
G37*
%LPD*%
%LPC*%
G36*
X169944Y270693D02*
X169944Y270693D01*
X167994Y271501D01*
X166501Y272994D01*
X165693Y274944D01*
X165693Y275303D01*
X165679Y275466D01*
X165672Y275631D01*
X165659Y275690D01*
X165653Y275751D01*
X165610Y275910D01*
X165574Y276070D01*
X165551Y276127D01*
X165535Y276185D01*
X165464Y276334D01*
X165401Y276486D01*
X165368Y276537D01*
X165341Y276592D01*
X165246Y276726D01*
X165156Y276864D01*
X165105Y276922D01*
X165079Y276958D01*
X165036Y277001D01*
X164950Y277098D01*
X159098Y282950D01*
X158972Y283055D01*
X158851Y283167D01*
X158800Y283199D01*
X158753Y283238D01*
X158610Y283320D01*
X158471Y283408D01*
X158415Y283432D01*
X158362Y283462D01*
X158207Y283517D01*
X158055Y283579D01*
X157995Y283592D01*
X157938Y283613D01*
X157775Y283639D01*
X157614Y283674D01*
X157538Y283679D01*
X157493Y283686D01*
X157432Y283685D01*
X157303Y283693D01*
X155944Y283693D01*
X153994Y284501D01*
X152501Y285994D01*
X151693Y287944D01*
X151693Y290056D01*
X152501Y292006D01*
X153994Y293499D01*
X155944Y294307D01*
X158056Y294307D01*
X160006Y293499D01*
X161499Y292006D01*
X162307Y290056D01*
X162307Y288697D01*
X162321Y288534D01*
X162328Y288369D01*
X162341Y288310D01*
X162347Y288249D01*
X162390Y288090D01*
X162426Y287930D01*
X162449Y287873D01*
X162465Y287815D01*
X162536Y287666D01*
X162599Y287514D01*
X162632Y287463D01*
X162659Y287408D01*
X162754Y287274D01*
X162844Y287136D01*
X162895Y287078D01*
X162921Y287042D01*
X162964Y286999D01*
X163050Y286902D01*
X167902Y282050D01*
X168028Y281945D01*
X168149Y281833D01*
X168200Y281801D01*
X168247Y281762D01*
X168390Y281680D01*
X168529Y281592D01*
X168585Y281568D01*
X168638Y281538D01*
X168793Y281483D01*
X168945Y281421D01*
X169005Y281408D01*
X169062Y281387D01*
X169225Y281361D01*
X169386Y281326D01*
X169462Y281321D01*
X169507Y281314D01*
X169568Y281315D01*
X169697Y281307D01*
X172056Y281307D01*
X174006Y280499D01*
X175499Y279006D01*
X176307Y277056D01*
X176307Y274944D01*
X175499Y272994D01*
X174006Y271501D01*
X172056Y270693D01*
X169944Y270693D01*
G37*
%LPD*%
%LPC*%
G36*
X421639Y154939D02*
X421639Y154939D01*
X421639Y162561D01*
X423309Y162561D01*
X429261Y156609D01*
X429261Y154939D01*
X421639Y154939D01*
G37*
%LPD*%
%LPC*%
G36*
X383539Y383539D02*
X383539Y383539D01*
X383539Y391161D01*
X391161Y391161D01*
X391161Y389491D01*
X385209Y383539D01*
X383539Y383539D01*
G37*
%LPD*%
%LPC*%
G36*
X421639Y142239D02*
X421639Y142239D01*
X421639Y149861D01*
X429261Y149861D01*
X429261Y148191D01*
X423309Y142239D01*
X421639Y142239D01*
G37*
%LPD*%
%LPC*%
G36*
X376791Y383539D02*
X376791Y383539D01*
X370839Y389491D01*
X370839Y391161D01*
X378461Y391161D01*
X378461Y383539D01*
X376791Y383539D01*
G37*
%LPD*%
%LPC*%
G36*
X50799Y38099D02*
X50799Y38099D01*
X50799Y38101D01*
X50801Y38101D01*
X50801Y38099D01*
X50799Y38099D01*
G37*
%LPD*%
D10*
X419100Y38100D03*
X50800Y38100D03*
D11*
X431800Y393700D03*
D12*
X406400Y393700D03*
X381000Y393700D03*
D13*
X19900Y296200D03*
D14*
X19900Y276200D03*
D11*
X419100Y203200D03*
D15*
X419100Y177800D03*
X419100Y152400D03*
D16*
X115000Y311000D03*
D17*
X97846Y292750D02*
X93250Y288154D01*
X31854Y288154D02*
X19900Y276200D01*
X97846Y292750D02*
X97846Y293846D01*
X115000Y311000D01*
X93250Y288154D02*
X31854Y288154D01*
D18*
X50800Y38100D02*
X78200Y38100D01*
X122000Y38100D01*
X243000Y38100D01*
X374000Y38100D01*
X419100Y38100D01*
D16*
X78200Y71200D03*
D17*
X78200Y38100D01*
D16*
X129000Y19000D03*
D17*
X122000Y26000D01*
X122000Y38100D01*
D16*
X246000Y60000D03*
D17*
X246000Y41100D01*
X243000Y38100D01*
D16*
X85000Y383000D03*
X90000Y296000D03*
D17*
X90000Y336000D01*
X90000Y378000D01*
X85000Y383000D01*
D16*
X297000Y292000D03*
D17*
X265000Y324000D01*
X265000Y336000D01*
X323300Y336000D02*
X381000Y393700D01*
X323300Y336000D02*
X265000Y336000D01*
X90000Y336000D01*
D16*
X410000Y75000D03*
D17*
X374000Y39000D01*
X374000Y38100D01*
D16*
X104000Y190000D03*
D17*
X172000Y190000D01*
D16*
X389000Y224000D03*
D17*
X206000Y224000D01*
X172000Y190000D01*
D16*
X171000Y276000D03*
D19*
X170000Y276000D01*
X157000Y289000D01*
D16*
X157000Y289000D03*
X170000Y242000D03*
D19*
X241000Y313000D01*
X242000Y313000D01*
D16*
X242000Y313000D03*
X299000Y83000D03*
D19*
X177000Y83000D01*
D16*
X177000Y83000D03*
D17*
X299000Y83000D02*
X386000Y83000D01*
X439000Y136000D01*
X439000Y312000D01*
X406000Y345000D01*
D16*
X406000Y345000D03*
X403000Y331000D03*
D17*
X403000Y132000D01*
X364000Y93000D02*
X288000Y93000D01*
D16*
X288000Y93000D03*
D17*
X364000Y93000D02*
X403000Y132000D01*
M02*
