G04 EAGLE Gerber RS-274X export*
G75*
%MOMM*%
%FSLAX34Y34*%
%LPD*%
%INSilkscreen Top*%
%IPPOS*%
%AMOC8*
5,1,8,0,0,1.08239X$1,22.5*%
G01*
%ADD10C,0.406400*%
%ADD11C,0.101600*%
%ADD12C,0.050800*%
%ADD13C,0.152400*%
%ADD14C,0.203200*%
%ADD15R,0.250000X0.225000*%
%ADD16C,0.200000*%
%ADD17C,0.127000*%
%ADD18C,0.076200*%

G36*
X36719Y362469D02*
X36719Y362469D01*
X36772Y362468D01*
X36795Y362479D01*
X36806Y362481D01*
X36816Y362489D01*
X36846Y362503D01*
X41927Y365973D01*
X44714Y364519D01*
X44747Y364513D01*
X44777Y364497D01*
X44815Y364499D01*
X44852Y364492D01*
X44884Y364504D01*
X44917Y364506D01*
X44948Y364528D01*
X44984Y364542D01*
X45004Y364569D01*
X45031Y364589D01*
X45064Y364650D01*
X45068Y364655D01*
X45068Y364657D01*
X45070Y364660D01*
X48626Y374820D01*
X48630Y374890D01*
X48634Y374960D01*
X48634Y374961D01*
X48600Y375021D01*
X48566Y375083D01*
X48565Y375084D01*
X48563Y375085D01*
X48500Y375130D01*
X47262Y375750D01*
X46207Y376603D01*
X46048Y376801D01*
X45358Y377662D01*
X44756Y378878D01*
X44429Y380195D01*
X44391Y381552D01*
X44644Y382885D01*
X45177Y384133D01*
X45965Y385238D01*
X46971Y386149D01*
X48149Y386823D01*
X49443Y387230D01*
X50796Y387349D01*
X52104Y387189D01*
X53352Y386765D01*
X54488Y386095D01*
X55464Y385207D01*
X56237Y384140D01*
X56777Y382937D01*
X57061Y381649D01*
X57075Y380331D01*
X56821Y379037D01*
X56308Y377822D01*
X55558Y376737D01*
X54603Y375828D01*
X53461Y375119D01*
X53418Y375072D01*
X53373Y375027D01*
X53371Y375020D01*
X53366Y375015D01*
X53355Y374952D01*
X53341Y374890D01*
X53343Y374881D01*
X53342Y374876D01*
X53346Y374866D01*
X53359Y374810D01*
X57296Y364904D01*
X57307Y364890D01*
X57311Y364873D01*
X57349Y364836D01*
X57382Y364793D01*
X57399Y364787D01*
X57412Y364775D01*
X57464Y364764D01*
X57515Y364745D01*
X57532Y364749D01*
X57549Y364745D01*
X57628Y364764D01*
X59152Y365399D01*
X59162Y365407D01*
X59195Y365422D01*
X60576Y366342D01*
X65514Y362886D01*
X65567Y362868D01*
X65617Y362843D01*
X65632Y362845D01*
X65647Y362840D01*
X65701Y362853D01*
X65757Y362859D01*
X65775Y362871D01*
X65784Y362873D01*
X65793Y362882D01*
X65826Y362902D01*
X66842Y363791D01*
X66845Y363796D01*
X66854Y363803D01*
X67743Y364692D01*
X67746Y364696D01*
X67753Y364703D01*
X68769Y365846D01*
X68772Y365851D01*
X68780Y365859D01*
X69669Y367002D01*
X69687Y367046D01*
X69712Y367087D01*
X69712Y367110D01*
X69721Y367132D01*
X69712Y367180D01*
X69712Y367228D01*
X69697Y367259D01*
X69695Y367271D01*
X69688Y367279D01*
X69677Y367301D01*
X66086Y372502D01*
X66894Y373887D01*
X66897Y373900D01*
X66915Y373935D01*
X67423Y375459D01*
X67424Y375466D01*
X67429Y375478D01*
X67897Y377351D01*
X73960Y378465D01*
X74016Y378493D01*
X74074Y378518D01*
X74079Y378524D01*
X74086Y378528D01*
X74119Y378582D01*
X74154Y378634D01*
X74156Y378644D01*
X74159Y378649D01*
X74158Y378660D01*
X74167Y378714D01*
X74167Y381635D01*
X74165Y381642D01*
X74166Y381658D01*
X74039Y383055D01*
X74039Y383056D01*
X74039Y383057D01*
X73912Y384327D01*
X73893Y384375D01*
X73882Y384424D01*
X73867Y384439D01*
X73860Y384458D01*
X73818Y384488D01*
X73782Y384524D01*
X73755Y384534D01*
X73745Y384540D01*
X73734Y384541D01*
X73706Y384551D01*
X67634Y385666D01*
X67171Y387170D01*
X67166Y387179D01*
X67160Y387201D01*
X66525Y388598D01*
X66519Y388604D01*
X66513Y388621D01*
X65628Y390138D01*
X65573Y390248D01*
X69040Y395076D01*
X69057Y395125D01*
X69082Y395171D01*
X69080Y395191D01*
X69087Y395209D01*
X69075Y395260D01*
X69072Y395311D01*
X69058Y395335D01*
X69056Y395347D01*
X69047Y395355D01*
X69032Y395382D01*
X68016Y396652D01*
X68008Y396657D01*
X67997Y396673D01*
X66727Y397943D01*
X66722Y397946D01*
X66715Y397955D01*
X65699Y398844D01*
X65691Y398847D01*
X65679Y398859D01*
X64790Y399494D01*
X64748Y399509D01*
X64711Y399532D01*
X64683Y399532D01*
X64657Y399541D01*
X64614Y399531D01*
X64570Y399530D01*
X64532Y399512D01*
X64520Y399509D01*
X64514Y399503D01*
X64497Y399495D01*
X59420Y395904D01*
X58416Y396461D01*
X58409Y396463D01*
X58396Y396471D01*
X56110Y397487D01*
X56097Y397489D01*
X56062Y397503D01*
X55083Y397721D01*
X53970Y403779D01*
X53946Y403826D01*
X53930Y403876D01*
X53915Y403888D01*
X53907Y403905D01*
X53862Y403932D01*
X53821Y403966D01*
X53796Y403972D01*
X53786Y403978D01*
X53774Y403977D01*
X53742Y403985D01*
X52218Y404112D01*
X52211Y404111D01*
X52197Y404113D01*
X49276Y404113D01*
X49268Y404111D01*
X49251Y404112D01*
X47981Y403985D01*
X47932Y403965D01*
X47880Y403953D01*
X47867Y403939D01*
X47850Y403933D01*
X47819Y403890D01*
X47782Y403852D01*
X47774Y403827D01*
X47768Y403818D01*
X47767Y403806D01*
X47756Y403775D01*
X46765Y397829D01*
X45005Y397242D01*
X45001Y397239D01*
X44991Y397237D01*
X43721Y396729D01*
X43713Y396723D01*
X43689Y396714D01*
X42053Y395779D01*
X37106Y399366D01*
X37058Y399383D01*
X37013Y399408D01*
X36993Y399407D01*
X36973Y399414D01*
X36923Y399403D01*
X36873Y399400D01*
X36847Y399386D01*
X36835Y399383D01*
X36827Y399375D01*
X36802Y399361D01*
X35659Y398472D01*
X35653Y398464D01*
X35635Y398451D01*
X34365Y397181D01*
X34362Y397177D01*
X34355Y397170D01*
X33343Y396033D01*
X32714Y395403D01*
X32684Y395348D01*
X32650Y395296D01*
X32650Y395287D01*
X32646Y395280D01*
X32650Y395217D01*
X32649Y395155D01*
X32654Y395145D01*
X32654Y395139D01*
X32661Y395130D01*
X32684Y395081D01*
X36148Y390008D01*
X35470Y388877D01*
X35468Y388869D01*
X35457Y388853D01*
X34695Y387202D01*
X34693Y387190D01*
X34681Y387163D01*
X34304Y385783D01*
X33985Y385038D01*
X27899Y384044D01*
X27840Y384016D01*
X27780Y383990D01*
X27777Y383986D01*
X27772Y383983D01*
X27737Y383928D01*
X27700Y383874D01*
X27699Y383867D01*
X27697Y383864D01*
X27697Y383855D01*
X27687Y383794D01*
X27687Y378206D01*
X27705Y378143D01*
X27721Y378080D01*
X27724Y378076D01*
X27726Y378071D01*
X27775Y378027D01*
X27822Y377982D01*
X27829Y377980D01*
X27831Y377977D01*
X27840Y377976D01*
X27899Y377956D01*
X33964Y376966D01*
X34428Y375342D01*
X34428Y375341D01*
X34428Y375339D01*
X34809Y374069D01*
X34816Y374059D01*
X34826Y374029D01*
X35334Y373013D01*
X35337Y373009D01*
X35341Y372998D01*
X36147Y371617D01*
X32561Y366671D01*
X32541Y366615D01*
X32516Y366562D01*
X32518Y366550D01*
X32513Y366538D01*
X32525Y366484D01*
X32525Y366480D01*
X32527Y366475D01*
X32533Y366422D01*
X32542Y366408D01*
X32544Y366400D01*
X32553Y366391D01*
X32577Y366354D01*
X33593Y365211D01*
X33597Y365208D01*
X33603Y365200D01*
X34492Y364311D01*
X34496Y364308D01*
X34503Y364301D01*
X35646Y363285D01*
X35647Y363284D01*
X35649Y363282D01*
X36538Y362520D01*
X36587Y362498D01*
X36631Y362469D01*
X36650Y362469D01*
X36666Y362461D01*
X36719Y362469D01*
G37*
D10*
X70800Y58100D02*
X20800Y58100D01*
X20800Y18100D01*
X70800Y18100D01*
X70800Y58100D01*
D11*
X101704Y221508D02*
X104301Y221508D01*
X101704Y221508D02*
X101605Y221510D01*
X101505Y221516D01*
X101406Y221525D01*
X101308Y221538D01*
X101210Y221555D01*
X101112Y221576D01*
X101016Y221601D01*
X100921Y221629D01*
X100827Y221661D01*
X100734Y221696D01*
X100642Y221735D01*
X100552Y221778D01*
X100464Y221823D01*
X100377Y221873D01*
X100293Y221925D01*
X100210Y221981D01*
X100130Y222039D01*
X100052Y222101D01*
X99977Y222166D01*
X99904Y222234D01*
X99834Y222304D01*
X99766Y222377D01*
X99701Y222452D01*
X99639Y222530D01*
X99581Y222610D01*
X99525Y222693D01*
X99473Y222777D01*
X99423Y222864D01*
X99378Y222952D01*
X99335Y223042D01*
X99296Y223134D01*
X99261Y223227D01*
X99229Y223321D01*
X99201Y223416D01*
X99176Y223512D01*
X99155Y223610D01*
X99138Y223708D01*
X99125Y223806D01*
X99116Y223905D01*
X99110Y224005D01*
X99108Y224104D01*
X99108Y230596D01*
X99110Y230695D01*
X99116Y230795D01*
X99125Y230894D01*
X99138Y230992D01*
X99155Y231090D01*
X99176Y231188D01*
X99201Y231284D01*
X99229Y231379D01*
X99261Y231473D01*
X99296Y231566D01*
X99335Y231658D01*
X99378Y231748D01*
X99423Y231836D01*
X99473Y231923D01*
X99525Y232007D01*
X99581Y232090D01*
X99639Y232170D01*
X99701Y232248D01*
X99766Y232323D01*
X99834Y232396D01*
X99904Y232466D01*
X99977Y232534D01*
X100052Y232599D01*
X100130Y232661D01*
X100210Y232719D01*
X100293Y232775D01*
X100377Y232827D01*
X100464Y232877D01*
X100552Y232922D01*
X100642Y232965D01*
X100734Y233004D01*
X100826Y233039D01*
X100921Y233071D01*
X101016Y233099D01*
X101112Y233124D01*
X101210Y233145D01*
X101308Y233162D01*
X101406Y233175D01*
X101505Y233184D01*
X101605Y233190D01*
X101704Y233192D01*
X104301Y233192D01*
X108666Y227999D02*
X112561Y227999D01*
X112660Y227997D01*
X112760Y227991D01*
X112859Y227982D01*
X112957Y227969D01*
X113055Y227952D01*
X113153Y227931D01*
X113249Y227906D01*
X113344Y227878D01*
X113438Y227846D01*
X113531Y227811D01*
X113623Y227772D01*
X113713Y227729D01*
X113801Y227684D01*
X113888Y227634D01*
X113972Y227582D01*
X114055Y227526D01*
X114135Y227468D01*
X114213Y227406D01*
X114288Y227341D01*
X114361Y227273D01*
X114431Y227203D01*
X114499Y227130D01*
X114564Y227055D01*
X114626Y226977D01*
X114684Y226897D01*
X114740Y226814D01*
X114792Y226730D01*
X114842Y226643D01*
X114887Y226555D01*
X114930Y226465D01*
X114969Y226373D01*
X115004Y226280D01*
X115036Y226186D01*
X115064Y226091D01*
X115089Y225995D01*
X115110Y225897D01*
X115127Y225799D01*
X115140Y225701D01*
X115149Y225602D01*
X115155Y225502D01*
X115157Y225403D01*
X115157Y224754D01*
X115158Y224754D02*
X115156Y224641D01*
X115150Y224528D01*
X115140Y224415D01*
X115126Y224302D01*
X115109Y224190D01*
X115087Y224079D01*
X115062Y223969D01*
X115032Y223859D01*
X114999Y223751D01*
X114962Y223644D01*
X114922Y223538D01*
X114877Y223434D01*
X114829Y223331D01*
X114778Y223230D01*
X114723Y223131D01*
X114665Y223034D01*
X114603Y222939D01*
X114538Y222846D01*
X114470Y222756D01*
X114399Y222668D01*
X114324Y222582D01*
X114247Y222499D01*
X114167Y222419D01*
X114084Y222342D01*
X113998Y222267D01*
X113910Y222196D01*
X113820Y222128D01*
X113727Y222063D01*
X113632Y222001D01*
X113535Y221943D01*
X113436Y221888D01*
X113335Y221837D01*
X113232Y221789D01*
X113128Y221744D01*
X113022Y221704D01*
X112915Y221667D01*
X112807Y221634D01*
X112697Y221604D01*
X112587Y221579D01*
X112476Y221557D01*
X112364Y221540D01*
X112251Y221526D01*
X112138Y221516D01*
X112025Y221510D01*
X111912Y221508D01*
X111799Y221510D01*
X111686Y221516D01*
X111573Y221526D01*
X111460Y221540D01*
X111348Y221557D01*
X111237Y221579D01*
X111127Y221604D01*
X111017Y221634D01*
X110909Y221667D01*
X110802Y221704D01*
X110696Y221744D01*
X110592Y221789D01*
X110489Y221837D01*
X110388Y221888D01*
X110289Y221943D01*
X110192Y222001D01*
X110097Y222063D01*
X110004Y222128D01*
X109914Y222196D01*
X109826Y222267D01*
X109740Y222342D01*
X109657Y222419D01*
X109577Y222499D01*
X109500Y222582D01*
X109425Y222668D01*
X109354Y222756D01*
X109286Y222846D01*
X109221Y222939D01*
X109159Y223034D01*
X109101Y223131D01*
X109046Y223230D01*
X108995Y223331D01*
X108947Y223434D01*
X108902Y223538D01*
X108862Y223644D01*
X108825Y223751D01*
X108792Y223859D01*
X108762Y223969D01*
X108737Y224079D01*
X108715Y224190D01*
X108698Y224302D01*
X108684Y224415D01*
X108674Y224528D01*
X108668Y224641D01*
X108666Y224754D01*
X108666Y227999D01*
X108668Y228142D01*
X108674Y228285D01*
X108684Y228428D01*
X108698Y228570D01*
X108715Y228712D01*
X108737Y228854D01*
X108762Y228995D01*
X108792Y229135D01*
X108825Y229274D01*
X108862Y229412D01*
X108903Y229549D01*
X108947Y229685D01*
X108996Y229820D01*
X109048Y229953D01*
X109103Y230085D01*
X109163Y230215D01*
X109226Y230344D01*
X109292Y230471D01*
X109362Y230595D01*
X109435Y230718D01*
X109512Y230839D01*
X109592Y230958D01*
X109675Y231074D01*
X109761Y231189D01*
X109850Y231300D01*
X109943Y231410D01*
X110038Y231516D01*
X110137Y231620D01*
X110238Y231721D01*
X110342Y231820D01*
X110448Y231915D01*
X110558Y232008D01*
X110669Y232097D01*
X110784Y232183D01*
X110900Y232266D01*
X111019Y232346D01*
X111140Y232423D01*
X111262Y232496D01*
X111387Y232566D01*
X111514Y232632D01*
X111643Y232695D01*
X111773Y232755D01*
X111905Y232810D01*
X112038Y232862D01*
X112173Y232911D01*
X112309Y232955D01*
X112446Y232996D01*
X112584Y233033D01*
X112723Y233066D01*
X112863Y233096D01*
X113004Y233121D01*
X113146Y233143D01*
X113288Y233160D01*
X113430Y233174D01*
X113573Y233184D01*
X113716Y233190D01*
X113859Y233192D01*
X104401Y242408D02*
X101804Y242408D01*
X101705Y242410D01*
X101605Y242416D01*
X101506Y242425D01*
X101408Y242438D01*
X101310Y242455D01*
X101212Y242476D01*
X101116Y242501D01*
X101021Y242529D01*
X100927Y242561D01*
X100834Y242596D01*
X100742Y242635D01*
X100652Y242678D01*
X100564Y242723D01*
X100477Y242773D01*
X100393Y242825D01*
X100310Y242881D01*
X100230Y242939D01*
X100152Y243001D01*
X100077Y243066D01*
X100004Y243134D01*
X99934Y243204D01*
X99866Y243277D01*
X99801Y243352D01*
X99739Y243430D01*
X99681Y243510D01*
X99625Y243593D01*
X99573Y243677D01*
X99523Y243764D01*
X99478Y243852D01*
X99435Y243942D01*
X99396Y244034D01*
X99361Y244127D01*
X99329Y244221D01*
X99301Y244316D01*
X99276Y244412D01*
X99255Y244510D01*
X99238Y244608D01*
X99225Y244706D01*
X99216Y244805D01*
X99210Y244905D01*
X99208Y245004D01*
X99208Y251496D01*
X99210Y251595D01*
X99216Y251695D01*
X99225Y251794D01*
X99238Y251892D01*
X99255Y251990D01*
X99276Y252088D01*
X99301Y252184D01*
X99329Y252279D01*
X99361Y252373D01*
X99396Y252466D01*
X99435Y252558D01*
X99478Y252648D01*
X99523Y252736D01*
X99573Y252823D01*
X99625Y252907D01*
X99681Y252990D01*
X99739Y253070D01*
X99801Y253148D01*
X99866Y253223D01*
X99934Y253296D01*
X100004Y253366D01*
X100077Y253434D01*
X100152Y253499D01*
X100230Y253561D01*
X100310Y253619D01*
X100393Y253675D01*
X100477Y253727D01*
X100564Y253777D01*
X100652Y253822D01*
X100742Y253865D01*
X100834Y253904D01*
X100926Y253939D01*
X101021Y253971D01*
X101116Y253999D01*
X101212Y254024D01*
X101310Y254045D01*
X101408Y254062D01*
X101506Y254075D01*
X101605Y254084D01*
X101705Y254090D01*
X101804Y254092D01*
X104401Y254092D01*
X108766Y254092D02*
X108766Y252794D01*
X108766Y254092D02*
X115257Y254092D01*
X112012Y242408D01*
X391442Y284089D02*
X391442Y286686D01*
X391442Y284089D02*
X391440Y283990D01*
X391434Y283890D01*
X391425Y283791D01*
X391412Y283693D01*
X391395Y283595D01*
X391374Y283497D01*
X391349Y283401D01*
X391321Y283306D01*
X391289Y283212D01*
X391254Y283119D01*
X391215Y283027D01*
X391172Y282937D01*
X391127Y282849D01*
X391077Y282762D01*
X391025Y282678D01*
X390969Y282595D01*
X390911Y282515D01*
X390849Y282437D01*
X390784Y282362D01*
X390716Y282289D01*
X390646Y282219D01*
X390573Y282151D01*
X390498Y282086D01*
X390420Y282024D01*
X390340Y281966D01*
X390257Y281910D01*
X390173Y281858D01*
X390086Y281808D01*
X389998Y281763D01*
X389908Y281720D01*
X389816Y281681D01*
X389723Y281646D01*
X389629Y281614D01*
X389534Y281586D01*
X389438Y281561D01*
X389340Y281540D01*
X389242Y281523D01*
X389144Y281510D01*
X389045Y281501D01*
X388945Y281495D01*
X388846Y281493D01*
X382354Y281493D01*
X382354Y281492D02*
X382255Y281494D01*
X382155Y281500D01*
X382056Y281509D01*
X381958Y281522D01*
X381860Y281540D01*
X381762Y281560D01*
X381666Y281585D01*
X381570Y281613D01*
X381476Y281645D01*
X381383Y281680D01*
X381292Y281719D01*
X381202Y281762D01*
X381113Y281807D01*
X381027Y281857D01*
X380942Y281909D01*
X380860Y281965D01*
X380780Y282024D01*
X380702Y282085D01*
X380626Y282150D01*
X380553Y282218D01*
X380483Y282288D01*
X380415Y282361D01*
X380350Y282437D01*
X380289Y282515D01*
X380230Y282595D01*
X380174Y282677D01*
X380122Y282762D01*
X380073Y282848D01*
X380027Y282937D01*
X379984Y283027D01*
X379945Y283118D01*
X379910Y283211D01*
X379878Y283305D01*
X379850Y283401D01*
X379825Y283497D01*
X379805Y283595D01*
X379787Y283693D01*
X379774Y283791D01*
X379765Y283890D01*
X379759Y283989D01*
X379757Y284089D01*
X379758Y284089D02*
X379758Y286686D01*
X388196Y291050D02*
X388083Y291052D01*
X387970Y291058D01*
X387857Y291068D01*
X387744Y291082D01*
X387632Y291099D01*
X387521Y291121D01*
X387411Y291146D01*
X387301Y291176D01*
X387193Y291209D01*
X387086Y291246D01*
X386980Y291286D01*
X386876Y291331D01*
X386773Y291379D01*
X386672Y291430D01*
X386573Y291485D01*
X386476Y291543D01*
X386381Y291605D01*
X386288Y291670D01*
X386198Y291738D01*
X386110Y291809D01*
X386024Y291884D01*
X385941Y291961D01*
X385861Y292041D01*
X385784Y292124D01*
X385709Y292210D01*
X385638Y292298D01*
X385570Y292388D01*
X385505Y292481D01*
X385443Y292576D01*
X385385Y292673D01*
X385330Y292772D01*
X385279Y292873D01*
X385231Y292976D01*
X385186Y293080D01*
X385146Y293186D01*
X385109Y293293D01*
X385076Y293401D01*
X385046Y293511D01*
X385021Y293621D01*
X384999Y293732D01*
X384982Y293844D01*
X384968Y293957D01*
X384958Y294070D01*
X384952Y294183D01*
X384950Y294296D01*
X384952Y294409D01*
X384958Y294522D01*
X384968Y294635D01*
X384982Y294748D01*
X384999Y294860D01*
X385021Y294971D01*
X385046Y295081D01*
X385076Y295191D01*
X385109Y295299D01*
X385146Y295406D01*
X385186Y295512D01*
X385231Y295616D01*
X385279Y295719D01*
X385330Y295820D01*
X385385Y295919D01*
X385443Y296016D01*
X385505Y296111D01*
X385570Y296204D01*
X385638Y296294D01*
X385709Y296382D01*
X385784Y296468D01*
X385861Y296551D01*
X385941Y296631D01*
X386024Y296708D01*
X386110Y296783D01*
X386198Y296854D01*
X386288Y296922D01*
X386381Y296987D01*
X386476Y297049D01*
X386573Y297107D01*
X386672Y297162D01*
X386773Y297213D01*
X386876Y297261D01*
X386980Y297306D01*
X387086Y297346D01*
X387193Y297383D01*
X387301Y297416D01*
X387411Y297446D01*
X387521Y297471D01*
X387632Y297493D01*
X387744Y297510D01*
X387857Y297524D01*
X387970Y297534D01*
X388083Y297540D01*
X388196Y297542D01*
X388309Y297540D01*
X388422Y297534D01*
X388535Y297524D01*
X388648Y297510D01*
X388760Y297493D01*
X388871Y297471D01*
X388981Y297446D01*
X389091Y297416D01*
X389199Y297383D01*
X389306Y297346D01*
X389412Y297306D01*
X389516Y297261D01*
X389619Y297213D01*
X389720Y297162D01*
X389819Y297107D01*
X389916Y297049D01*
X390011Y296987D01*
X390104Y296922D01*
X390194Y296854D01*
X390282Y296783D01*
X390368Y296708D01*
X390451Y296631D01*
X390531Y296551D01*
X390608Y296468D01*
X390683Y296382D01*
X390754Y296294D01*
X390822Y296204D01*
X390887Y296111D01*
X390949Y296016D01*
X391007Y295919D01*
X391062Y295820D01*
X391113Y295719D01*
X391161Y295616D01*
X391206Y295512D01*
X391246Y295406D01*
X391283Y295299D01*
X391316Y295191D01*
X391346Y295081D01*
X391371Y294971D01*
X391393Y294860D01*
X391410Y294748D01*
X391424Y294635D01*
X391434Y294522D01*
X391440Y294409D01*
X391442Y294296D01*
X391440Y294183D01*
X391434Y294070D01*
X391424Y293957D01*
X391410Y293844D01*
X391393Y293732D01*
X391371Y293621D01*
X391346Y293511D01*
X391316Y293401D01*
X391283Y293293D01*
X391246Y293186D01*
X391206Y293080D01*
X391161Y292976D01*
X391113Y292873D01*
X391062Y292772D01*
X391007Y292673D01*
X390949Y292576D01*
X390887Y292481D01*
X390822Y292388D01*
X390754Y292298D01*
X390683Y292210D01*
X390608Y292124D01*
X390531Y292041D01*
X390451Y291961D01*
X390368Y291884D01*
X390282Y291809D01*
X390194Y291738D01*
X390104Y291670D01*
X390011Y291605D01*
X389916Y291543D01*
X389819Y291485D01*
X389720Y291430D01*
X389619Y291379D01*
X389516Y291331D01*
X389412Y291286D01*
X389306Y291246D01*
X389199Y291209D01*
X389091Y291176D01*
X388981Y291146D01*
X388871Y291121D01*
X388760Y291099D01*
X388648Y291082D01*
X388535Y291068D01*
X388422Y291058D01*
X388309Y291052D01*
X388196Y291050D01*
X382354Y291700D02*
X382253Y291702D01*
X382153Y291708D01*
X382053Y291718D01*
X381953Y291731D01*
X381854Y291749D01*
X381755Y291770D01*
X381658Y291795D01*
X381561Y291824D01*
X381466Y291857D01*
X381372Y291893D01*
X381280Y291933D01*
X381189Y291976D01*
X381100Y292023D01*
X381013Y292073D01*
X380927Y292127D01*
X380844Y292184D01*
X380764Y292244D01*
X380685Y292307D01*
X380609Y292374D01*
X380536Y292443D01*
X380466Y292515D01*
X380398Y292589D01*
X380333Y292666D01*
X380272Y292746D01*
X380213Y292828D01*
X380158Y292912D01*
X380106Y292998D01*
X380057Y293086D01*
X380012Y293176D01*
X379970Y293268D01*
X379932Y293361D01*
X379898Y293456D01*
X379867Y293551D01*
X379840Y293648D01*
X379817Y293746D01*
X379797Y293845D01*
X379782Y293945D01*
X379770Y294045D01*
X379762Y294145D01*
X379758Y294246D01*
X379758Y294346D01*
X379762Y294447D01*
X379770Y294547D01*
X379782Y294647D01*
X379797Y294747D01*
X379817Y294846D01*
X379840Y294944D01*
X379867Y295041D01*
X379898Y295136D01*
X379932Y295231D01*
X379970Y295324D01*
X380012Y295416D01*
X380057Y295506D01*
X380106Y295594D01*
X380158Y295680D01*
X380213Y295764D01*
X380272Y295846D01*
X380333Y295926D01*
X380398Y296003D01*
X380466Y296077D01*
X380536Y296149D01*
X380609Y296218D01*
X380685Y296285D01*
X380764Y296348D01*
X380844Y296408D01*
X380927Y296465D01*
X381013Y296519D01*
X381100Y296569D01*
X381189Y296616D01*
X381280Y296659D01*
X381372Y296699D01*
X381466Y296735D01*
X381561Y296768D01*
X381658Y296797D01*
X381755Y296822D01*
X381854Y296843D01*
X381953Y296861D01*
X382053Y296874D01*
X382153Y296884D01*
X382253Y296890D01*
X382354Y296892D01*
X382455Y296890D01*
X382555Y296884D01*
X382655Y296874D01*
X382755Y296861D01*
X382854Y296843D01*
X382953Y296822D01*
X383050Y296797D01*
X383147Y296768D01*
X383242Y296735D01*
X383336Y296699D01*
X383428Y296659D01*
X383519Y296616D01*
X383608Y296569D01*
X383695Y296519D01*
X383781Y296465D01*
X383864Y296408D01*
X383944Y296348D01*
X384023Y296285D01*
X384099Y296218D01*
X384172Y296149D01*
X384242Y296077D01*
X384310Y296003D01*
X384375Y295926D01*
X384436Y295846D01*
X384495Y295764D01*
X384550Y295680D01*
X384602Y295594D01*
X384651Y295506D01*
X384696Y295416D01*
X384738Y295324D01*
X384776Y295231D01*
X384810Y295136D01*
X384841Y295041D01*
X384868Y294944D01*
X384891Y294846D01*
X384911Y294747D01*
X384926Y294647D01*
X384938Y294547D01*
X384946Y294447D01*
X384950Y294346D01*
X384950Y294246D01*
X384946Y294145D01*
X384938Y294045D01*
X384926Y293945D01*
X384911Y293845D01*
X384891Y293746D01*
X384868Y293648D01*
X384841Y293551D01*
X384810Y293456D01*
X384776Y293361D01*
X384738Y293268D01*
X384696Y293176D01*
X384651Y293086D01*
X384602Y292998D01*
X384550Y292912D01*
X384495Y292828D01*
X384436Y292746D01*
X384375Y292666D01*
X384310Y292589D01*
X384242Y292515D01*
X384172Y292443D01*
X384099Y292374D01*
X384023Y292307D01*
X383944Y292244D01*
X383864Y292184D01*
X383781Y292127D01*
X383695Y292073D01*
X383608Y292023D01*
X383519Y291976D01*
X383428Y291933D01*
X383336Y291893D01*
X383242Y291857D01*
X383147Y291824D01*
X383050Y291795D01*
X382953Y291770D01*
X382854Y291749D01*
X382755Y291731D01*
X382655Y291718D01*
X382555Y291708D01*
X382455Y291702D01*
X382354Y291700D01*
D12*
X20131Y354894D02*
X20131Y356475D01*
X20132Y356475D02*
X20134Y356554D01*
X20140Y356632D01*
X20150Y356710D01*
X20163Y356788D01*
X20181Y356865D01*
X20202Y356941D01*
X20227Y357015D01*
X20256Y357089D01*
X20288Y357161D01*
X20324Y357231D01*
X20364Y357299D01*
X20407Y357365D01*
X20453Y357429D01*
X20502Y357491D01*
X20554Y357550D01*
X20609Y357606D01*
X20667Y357660D01*
X20727Y357710D01*
X20790Y357758D01*
X20855Y357802D01*
X20922Y357843D01*
X20991Y357881D01*
X21062Y357915D01*
X21135Y357946D01*
X21209Y357973D01*
X21284Y357996D01*
X21360Y358015D01*
X21438Y358031D01*
X21516Y358043D01*
X21594Y358051D01*
X21673Y358055D01*
X21751Y358055D01*
X21830Y358051D01*
X21908Y358043D01*
X21986Y358031D01*
X22064Y358015D01*
X22140Y357996D01*
X22215Y357973D01*
X22289Y357946D01*
X22362Y357915D01*
X22433Y357881D01*
X22502Y357843D01*
X22569Y357802D01*
X22634Y357758D01*
X22697Y357710D01*
X22757Y357660D01*
X22815Y357606D01*
X22870Y357550D01*
X22922Y357491D01*
X22971Y357429D01*
X23017Y357365D01*
X23060Y357299D01*
X23100Y357231D01*
X23136Y357161D01*
X23168Y357089D01*
X23197Y357015D01*
X23222Y356941D01*
X23243Y356865D01*
X23261Y356788D01*
X23274Y356710D01*
X23284Y356632D01*
X23290Y356554D01*
X23292Y356475D01*
X23292Y354894D01*
X23290Y354815D01*
X23284Y354737D01*
X23274Y354659D01*
X23261Y354581D01*
X23243Y354504D01*
X23222Y354428D01*
X23197Y354354D01*
X23168Y354280D01*
X23136Y354208D01*
X23100Y354138D01*
X23060Y354070D01*
X23017Y354004D01*
X22971Y353940D01*
X22922Y353878D01*
X22870Y353819D01*
X22815Y353763D01*
X22757Y353709D01*
X22697Y353659D01*
X22634Y353611D01*
X22569Y353567D01*
X22502Y353526D01*
X22433Y353488D01*
X22362Y353454D01*
X22289Y353423D01*
X22215Y353396D01*
X22140Y353373D01*
X22064Y353354D01*
X21986Y353338D01*
X21908Y353326D01*
X21830Y353318D01*
X21751Y353314D01*
X21673Y353314D01*
X21594Y353318D01*
X21516Y353326D01*
X21438Y353338D01*
X21360Y353354D01*
X21284Y353373D01*
X21209Y353396D01*
X21135Y353423D01*
X21062Y353454D01*
X20991Y353488D01*
X20922Y353526D01*
X20855Y353567D01*
X20790Y353611D01*
X20727Y353659D01*
X20667Y353709D01*
X20609Y353763D01*
X20554Y353819D01*
X20502Y353878D01*
X20453Y353940D01*
X20407Y354004D01*
X20364Y354070D01*
X20324Y354138D01*
X20288Y354208D01*
X20256Y354280D01*
X20227Y354354D01*
X20202Y354428D01*
X20181Y354504D01*
X20163Y354581D01*
X20150Y354659D01*
X20140Y354737D01*
X20134Y354815D01*
X20132Y354894D01*
X26336Y358055D02*
X26336Y350943D01*
X26336Y358055D02*
X28311Y358055D01*
X28377Y358053D01*
X28444Y358048D01*
X28509Y358038D01*
X28575Y358025D01*
X28639Y358009D01*
X28702Y357989D01*
X28764Y357965D01*
X28825Y357938D01*
X28884Y357907D01*
X28941Y357873D01*
X28997Y357836D01*
X29050Y357796D01*
X29101Y357754D01*
X29149Y357708D01*
X29195Y357660D01*
X29237Y357609D01*
X29277Y357556D01*
X29314Y357500D01*
X29348Y357443D01*
X29379Y357384D01*
X29406Y357324D01*
X29429Y357261D01*
X29450Y357198D01*
X29466Y357134D01*
X29479Y357069D01*
X29489Y357003D01*
X29494Y356936D01*
X29496Y356870D01*
X29497Y356870D02*
X29497Y354499D01*
X29496Y354499D02*
X29494Y354433D01*
X29489Y354366D01*
X29479Y354301D01*
X29466Y354235D01*
X29450Y354171D01*
X29430Y354108D01*
X29406Y354046D01*
X29379Y353985D01*
X29348Y353926D01*
X29314Y353869D01*
X29277Y353813D01*
X29237Y353760D01*
X29195Y353709D01*
X29149Y353661D01*
X29101Y353615D01*
X29050Y353573D01*
X28997Y353533D01*
X28941Y353496D01*
X28884Y353462D01*
X28825Y353431D01*
X28764Y353404D01*
X28702Y353380D01*
X28639Y353360D01*
X28575Y353344D01*
X28509Y353331D01*
X28444Y353321D01*
X28377Y353316D01*
X28311Y353314D01*
X26336Y353314D01*
X33432Y353314D02*
X35408Y353314D01*
X33432Y353314D02*
X33366Y353316D01*
X33299Y353321D01*
X33234Y353331D01*
X33168Y353344D01*
X33104Y353360D01*
X33041Y353380D01*
X32979Y353404D01*
X32918Y353431D01*
X32859Y353462D01*
X32802Y353496D01*
X32746Y353533D01*
X32693Y353573D01*
X32642Y353615D01*
X32594Y353661D01*
X32548Y353709D01*
X32506Y353760D01*
X32466Y353813D01*
X32429Y353869D01*
X32395Y353926D01*
X32364Y353985D01*
X32337Y354046D01*
X32313Y354108D01*
X32293Y354171D01*
X32277Y354235D01*
X32264Y354301D01*
X32254Y354366D01*
X32249Y354433D01*
X32247Y354499D01*
X32247Y356475D01*
X32248Y356475D02*
X32250Y356554D01*
X32256Y356632D01*
X32266Y356710D01*
X32279Y356788D01*
X32297Y356865D01*
X32318Y356941D01*
X32343Y357015D01*
X32372Y357089D01*
X32404Y357161D01*
X32440Y357231D01*
X32480Y357299D01*
X32523Y357365D01*
X32569Y357429D01*
X32618Y357491D01*
X32670Y357550D01*
X32725Y357606D01*
X32783Y357660D01*
X32843Y357710D01*
X32906Y357758D01*
X32971Y357802D01*
X33038Y357843D01*
X33107Y357881D01*
X33178Y357915D01*
X33251Y357946D01*
X33325Y357973D01*
X33400Y357996D01*
X33476Y358015D01*
X33554Y358031D01*
X33632Y358043D01*
X33710Y358051D01*
X33789Y358055D01*
X33867Y358055D01*
X33946Y358051D01*
X34024Y358043D01*
X34102Y358031D01*
X34180Y358015D01*
X34256Y357996D01*
X34331Y357973D01*
X34405Y357946D01*
X34478Y357915D01*
X34549Y357881D01*
X34618Y357843D01*
X34685Y357802D01*
X34750Y357758D01*
X34813Y357710D01*
X34873Y357660D01*
X34931Y357606D01*
X34986Y357550D01*
X35038Y357491D01*
X35087Y357429D01*
X35133Y357365D01*
X35176Y357299D01*
X35216Y357231D01*
X35252Y357161D01*
X35284Y357089D01*
X35313Y357015D01*
X35338Y356941D01*
X35359Y356865D01*
X35377Y356788D01*
X35390Y356710D01*
X35400Y356632D01*
X35406Y356554D01*
X35408Y356475D01*
X35408Y355685D01*
X32247Y355685D01*
X38419Y353314D02*
X38419Y358055D01*
X40395Y358055D01*
X40461Y358053D01*
X40528Y358048D01*
X40593Y358038D01*
X40659Y358025D01*
X40723Y358009D01*
X40786Y357989D01*
X40848Y357965D01*
X40909Y357938D01*
X40968Y357907D01*
X41025Y357873D01*
X41081Y357836D01*
X41134Y357796D01*
X41185Y357754D01*
X41233Y357708D01*
X41279Y357660D01*
X41321Y357609D01*
X41361Y357556D01*
X41398Y357500D01*
X41432Y357443D01*
X41463Y357384D01*
X41490Y357324D01*
X41513Y357261D01*
X41534Y357198D01*
X41550Y357134D01*
X41563Y357069D01*
X41573Y357003D01*
X41578Y356936D01*
X41580Y356870D01*
X41580Y353314D01*
X48842Y356080D02*
X50817Y355290D01*
X48842Y356080D02*
X48784Y356105D01*
X48728Y356134D01*
X48673Y356166D01*
X48621Y356202D01*
X48571Y356241D01*
X48524Y356282D01*
X48479Y356327D01*
X48437Y356374D01*
X48398Y356423D01*
X48362Y356475D01*
X48329Y356529D01*
X48300Y356585D01*
X48274Y356643D01*
X48252Y356702D01*
X48234Y356763D01*
X48219Y356824D01*
X48208Y356886D01*
X48201Y356949D01*
X48198Y357012D01*
X48199Y357075D01*
X48204Y357138D01*
X48212Y357201D01*
X48225Y357263D01*
X48241Y357324D01*
X48261Y357384D01*
X48284Y357442D01*
X48311Y357499D01*
X48342Y357554D01*
X48376Y357608D01*
X48413Y357659D01*
X48453Y357707D01*
X48496Y357754D01*
X48542Y357797D01*
X48591Y357837D01*
X48642Y357875D01*
X48695Y357909D01*
X48750Y357940D01*
X48807Y357967D01*
X48865Y357991D01*
X48925Y358011D01*
X48986Y358027D01*
X49048Y358040D01*
X49111Y358049D01*
X49173Y358054D01*
X49237Y358055D01*
X49237Y358056D02*
X49368Y358052D01*
X49499Y358044D01*
X49629Y358033D01*
X49759Y358018D01*
X49889Y357998D01*
X50018Y357976D01*
X50146Y357949D01*
X50274Y357919D01*
X50400Y357885D01*
X50526Y357847D01*
X50650Y357806D01*
X50773Y357761D01*
X50895Y357712D01*
X51015Y357660D01*
X50817Y355289D02*
X50875Y355264D01*
X50931Y355235D01*
X50986Y355203D01*
X51038Y355167D01*
X51088Y355128D01*
X51135Y355087D01*
X51180Y355042D01*
X51222Y354995D01*
X51261Y354946D01*
X51297Y354894D01*
X51330Y354840D01*
X51359Y354784D01*
X51385Y354726D01*
X51407Y354667D01*
X51425Y354606D01*
X51440Y354545D01*
X51451Y354483D01*
X51458Y354420D01*
X51461Y354357D01*
X51460Y354294D01*
X51455Y354231D01*
X51447Y354168D01*
X51434Y354106D01*
X51418Y354045D01*
X51398Y353985D01*
X51375Y353927D01*
X51348Y353870D01*
X51317Y353815D01*
X51283Y353761D01*
X51246Y353710D01*
X51206Y353662D01*
X51163Y353615D01*
X51117Y353572D01*
X51068Y353532D01*
X51017Y353494D01*
X50964Y353460D01*
X50909Y353429D01*
X50852Y353402D01*
X50794Y353378D01*
X50734Y353358D01*
X50673Y353342D01*
X50611Y353329D01*
X50548Y353320D01*
X50486Y353315D01*
X50422Y353314D01*
X50264Y353318D01*
X50106Y353326D01*
X49948Y353337D01*
X49790Y353353D01*
X49632Y353372D01*
X49476Y353395D01*
X49319Y353421D01*
X49164Y353451D01*
X49009Y353485D01*
X48855Y353523D01*
X48702Y353564D01*
X48550Y353609D01*
X48399Y353657D01*
X48249Y353709D01*
X54193Y354894D02*
X54193Y356475D01*
X54195Y356554D01*
X54201Y356632D01*
X54211Y356710D01*
X54224Y356788D01*
X54242Y356865D01*
X54263Y356941D01*
X54288Y357015D01*
X54317Y357089D01*
X54349Y357161D01*
X54385Y357231D01*
X54425Y357299D01*
X54468Y357365D01*
X54514Y357429D01*
X54563Y357491D01*
X54615Y357550D01*
X54670Y357606D01*
X54728Y357660D01*
X54788Y357710D01*
X54851Y357758D01*
X54916Y357802D01*
X54983Y357843D01*
X55052Y357881D01*
X55123Y357915D01*
X55196Y357946D01*
X55270Y357973D01*
X55345Y357996D01*
X55421Y358015D01*
X55499Y358031D01*
X55577Y358043D01*
X55655Y358051D01*
X55734Y358055D01*
X55812Y358055D01*
X55891Y358051D01*
X55969Y358043D01*
X56047Y358031D01*
X56125Y358015D01*
X56201Y357996D01*
X56276Y357973D01*
X56350Y357946D01*
X56423Y357915D01*
X56494Y357881D01*
X56563Y357843D01*
X56630Y357802D01*
X56695Y357758D01*
X56758Y357710D01*
X56818Y357660D01*
X56876Y357606D01*
X56931Y357550D01*
X56983Y357491D01*
X57032Y357429D01*
X57078Y357365D01*
X57121Y357299D01*
X57161Y357231D01*
X57197Y357161D01*
X57229Y357089D01*
X57258Y357015D01*
X57283Y356941D01*
X57304Y356865D01*
X57322Y356788D01*
X57335Y356710D01*
X57345Y356632D01*
X57351Y356554D01*
X57353Y356475D01*
X57353Y354894D01*
X57351Y354815D01*
X57345Y354737D01*
X57335Y354659D01*
X57322Y354581D01*
X57304Y354504D01*
X57283Y354428D01*
X57258Y354354D01*
X57229Y354280D01*
X57197Y354208D01*
X57161Y354138D01*
X57121Y354070D01*
X57078Y354004D01*
X57032Y353940D01*
X56983Y353878D01*
X56931Y353819D01*
X56876Y353763D01*
X56818Y353709D01*
X56758Y353659D01*
X56695Y353611D01*
X56630Y353567D01*
X56563Y353526D01*
X56494Y353488D01*
X56423Y353454D01*
X56350Y353423D01*
X56276Y353396D01*
X56201Y353373D01*
X56125Y353354D01*
X56047Y353338D01*
X55969Y353326D01*
X55891Y353318D01*
X55812Y353314D01*
X55734Y353314D01*
X55655Y353318D01*
X55577Y353326D01*
X55499Y353338D01*
X55421Y353354D01*
X55345Y353373D01*
X55270Y353396D01*
X55196Y353423D01*
X55123Y353454D01*
X55052Y353488D01*
X54983Y353526D01*
X54916Y353567D01*
X54851Y353611D01*
X54788Y353659D01*
X54728Y353709D01*
X54670Y353763D01*
X54615Y353819D01*
X54563Y353878D01*
X54514Y353940D01*
X54468Y354004D01*
X54425Y354070D01*
X54385Y354138D01*
X54349Y354208D01*
X54317Y354280D01*
X54288Y354354D01*
X54263Y354428D01*
X54242Y354504D01*
X54224Y354581D01*
X54211Y354659D01*
X54201Y354737D01*
X54195Y354815D01*
X54193Y354894D01*
X60365Y354499D02*
X60365Y358055D01*
X60365Y354499D02*
X60367Y354433D01*
X60372Y354366D01*
X60382Y354301D01*
X60395Y354235D01*
X60411Y354171D01*
X60431Y354108D01*
X60455Y354046D01*
X60482Y353985D01*
X60513Y353926D01*
X60547Y353869D01*
X60584Y353813D01*
X60624Y353760D01*
X60666Y353709D01*
X60712Y353661D01*
X60760Y353615D01*
X60811Y353573D01*
X60864Y353533D01*
X60920Y353496D01*
X60977Y353462D01*
X61036Y353431D01*
X61097Y353404D01*
X61159Y353380D01*
X61222Y353360D01*
X61286Y353344D01*
X61352Y353331D01*
X61417Y353321D01*
X61484Y353316D01*
X61550Y353314D01*
X63526Y353314D01*
X63526Y358055D01*
X66802Y358055D02*
X66802Y353314D01*
X66802Y358055D02*
X69173Y358055D01*
X69173Y357265D01*
X72530Y353314D02*
X74110Y353314D01*
X72530Y353314D02*
X72464Y353316D01*
X72397Y353321D01*
X72332Y353331D01*
X72266Y353344D01*
X72202Y353360D01*
X72139Y353380D01*
X72077Y353404D01*
X72016Y353431D01*
X71957Y353462D01*
X71900Y353496D01*
X71844Y353533D01*
X71791Y353573D01*
X71740Y353615D01*
X71692Y353661D01*
X71646Y353709D01*
X71604Y353760D01*
X71564Y353813D01*
X71527Y353869D01*
X71493Y353926D01*
X71462Y353985D01*
X71435Y354046D01*
X71411Y354108D01*
X71391Y354171D01*
X71375Y354235D01*
X71362Y354301D01*
X71352Y354366D01*
X71347Y354433D01*
X71345Y354499D01*
X71345Y356870D01*
X71347Y356936D01*
X71352Y357003D01*
X71362Y357068D01*
X71375Y357134D01*
X71391Y357198D01*
X71411Y357261D01*
X71435Y357323D01*
X71462Y357384D01*
X71493Y357443D01*
X71527Y357500D01*
X71564Y357556D01*
X71604Y357609D01*
X71646Y357660D01*
X71692Y357708D01*
X71740Y357754D01*
X71791Y357796D01*
X71844Y357836D01*
X71900Y357873D01*
X71957Y357907D01*
X72016Y357938D01*
X72077Y357965D01*
X72139Y357989D01*
X72202Y358009D01*
X72266Y358025D01*
X72332Y358038D01*
X72397Y358048D01*
X72464Y358053D01*
X72530Y358055D01*
X74110Y358055D01*
X77780Y353314D02*
X79756Y353314D01*
X77780Y353314D02*
X77714Y353316D01*
X77647Y353321D01*
X77582Y353331D01*
X77516Y353344D01*
X77452Y353360D01*
X77389Y353380D01*
X77327Y353404D01*
X77266Y353431D01*
X77207Y353462D01*
X77150Y353496D01*
X77094Y353533D01*
X77041Y353573D01*
X76990Y353615D01*
X76942Y353661D01*
X76896Y353709D01*
X76854Y353760D01*
X76814Y353813D01*
X76777Y353869D01*
X76743Y353926D01*
X76712Y353985D01*
X76685Y354046D01*
X76661Y354108D01*
X76641Y354171D01*
X76625Y354235D01*
X76612Y354301D01*
X76602Y354366D01*
X76597Y354433D01*
X76595Y354499D01*
X76595Y356475D01*
X76596Y356475D02*
X76598Y356554D01*
X76604Y356632D01*
X76614Y356710D01*
X76627Y356788D01*
X76645Y356865D01*
X76666Y356941D01*
X76691Y357015D01*
X76720Y357089D01*
X76752Y357161D01*
X76788Y357231D01*
X76828Y357299D01*
X76871Y357365D01*
X76917Y357429D01*
X76966Y357491D01*
X77018Y357550D01*
X77073Y357606D01*
X77131Y357660D01*
X77191Y357710D01*
X77254Y357758D01*
X77319Y357802D01*
X77386Y357843D01*
X77455Y357881D01*
X77526Y357915D01*
X77599Y357946D01*
X77673Y357973D01*
X77748Y357996D01*
X77824Y358015D01*
X77902Y358031D01*
X77980Y358043D01*
X78058Y358051D01*
X78137Y358055D01*
X78215Y358055D01*
X78294Y358051D01*
X78372Y358043D01*
X78450Y358031D01*
X78528Y358015D01*
X78604Y357996D01*
X78679Y357973D01*
X78753Y357946D01*
X78826Y357915D01*
X78897Y357881D01*
X78966Y357843D01*
X79033Y357802D01*
X79098Y357758D01*
X79161Y357710D01*
X79221Y357660D01*
X79279Y357606D01*
X79334Y357550D01*
X79386Y357491D01*
X79435Y357429D01*
X79481Y357365D01*
X79524Y357299D01*
X79564Y357231D01*
X79600Y357161D01*
X79632Y357089D01*
X79661Y357015D01*
X79686Y356941D01*
X79707Y356865D01*
X79725Y356788D01*
X79738Y356710D01*
X79748Y356632D01*
X79754Y356554D01*
X79756Y356475D01*
X79756Y355685D01*
X76595Y355685D01*
X28818Y348996D02*
X28818Y341884D01*
X28818Y346625D02*
X30794Y346625D01*
X30860Y346623D01*
X30927Y346618D01*
X30992Y346608D01*
X31058Y346595D01*
X31122Y346579D01*
X31185Y346559D01*
X31247Y346535D01*
X31308Y346508D01*
X31367Y346477D01*
X31424Y346443D01*
X31480Y346406D01*
X31533Y346366D01*
X31584Y346324D01*
X31632Y346278D01*
X31678Y346230D01*
X31720Y346179D01*
X31760Y346126D01*
X31797Y346070D01*
X31831Y346013D01*
X31862Y345954D01*
X31889Y345894D01*
X31912Y345831D01*
X31933Y345768D01*
X31949Y345704D01*
X31962Y345639D01*
X31972Y345573D01*
X31977Y345506D01*
X31979Y345440D01*
X31979Y341884D01*
X36341Y344650D02*
X38119Y344650D01*
X36341Y344650D02*
X36267Y344648D01*
X36194Y344642D01*
X36121Y344632D01*
X36049Y344619D01*
X35977Y344601D01*
X35907Y344580D01*
X35837Y344555D01*
X35770Y344526D01*
X35703Y344494D01*
X35639Y344459D01*
X35576Y344419D01*
X35516Y344377D01*
X35458Y344332D01*
X35403Y344283D01*
X35350Y344232D01*
X35300Y344178D01*
X35253Y344121D01*
X35209Y344062D01*
X35169Y344001D01*
X35131Y343937D01*
X35097Y343872D01*
X35067Y343805D01*
X35040Y343736D01*
X35017Y343666D01*
X34998Y343595D01*
X34982Y343523D01*
X34970Y343451D01*
X34962Y343377D01*
X34958Y343304D01*
X34958Y343230D01*
X34962Y343157D01*
X34970Y343083D01*
X34982Y343011D01*
X34998Y342939D01*
X35017Y342868D01*
X35040Y342798D01*
X35067Y342729D01*
X35097Y342662D01*
X35131Y342597D01*
X35169Y342533D01*
X35209Y342472D01*
X35253Y342413D01*
X35300Y342356D01*
X35350Y342302D01*
X35403Y342251D01*
X35458Y342202D01*
X35516Y342157D01*
X35576Y342115D01*
X35639Y342075D01*
X35703Y342040D01*
X35770Y342008D01*
X35837Y341979D01*
X35907Y341954D01*
X35977Y341933D01*
X36049Y341915D01*
X36121Y341902D01*
X36194Y341892D01*
X36267Y341886D01*
X36341Y341884D01*
X38119Y341884D01*
X38119Y345440D01*
X38118Y345440D02*
X38116Y345506D01*
X38111Y345573D01*
X38101Y345638D01*
X38088Y345704D01*
X38072Y345768D01*
X38052Y345831D01*
X38028Y345893D01*
X38001Y345954D01*
X37970Y346013D01*
X37936Y346070D01*
X37899Y346126D01*
X37859Y346179D01*
X37817Y346230D01*
X37771Y346278D01*
X37723Y346324D01*
X37672Y346366D01*
X37619Y346406D01*
X37563Y346443D01*
X37506Y346477D01*
X37447Y346508D01*
X37386Y346535D01*
X37324Y346559D01*
X37261Y346579D01*
X37197Y346595D01*
X37131Y346608D01*
X37066Y346618D01*
X36999Y346623D01*
X36933Y346625D01*
X35353Y346625D01*
X41428Y346625D02*
X41428Y341884D01*
X41428Y346625D02*
X43798Y346625D01*
X43798Y345835D01*
X49091Y348996D02*
X49091Y341884D01*
X47116Y341884D01*
X47050Y341886D01*
X46983Y341891D01*
X46918Y341901D01*
X46852Y341914D01*
X46788Y341930D01*
X46725Y341950D01*
X46663Y341974D01*
X46602Y342001D01*
X46543Y342032D01*
X46486Y342066D01*
X46430Y342103D01*
X46377Y342143D01*
X46326Y342185D01*
X46278Y342231D01*
X46232Y342279D01*
X46190Y342330D01*
X46150Y342383D01*
X46113Y342439D01*
X46079Y342496D01*
X46048Y342555D01*
X46021Y342616D01*
X45997Y342678D01*
X45977Y342741D01*
X45961Y342805D01*
X45948Y342871D01*
X45938Y342936D01*
X45933Y343003D01*
X45931Y343069D01*
X45931Y345440D01*
X45933Y345506D01*
X45938Y345573D01*
X45948Y345638D01*
X45961Y345704D01*
X45977Y345768D01*
X45997Y345831D01*
X46021Y345893D01*
X46048Y345954D01*
X46079Y346013D01*
X46113Y346070D01*
X46150Y346126D01*
X46190Y346179D01*
X46232Y346230D01*
X46278Y346278D01*
X46326Y346324D01*
X46377Y346366D01*
X46430Y346406D01*
X46486Y346443D01*
X46543Y346477D01*
X46602Y346508D01*
X46663Y346535D01*
X46725Y346559D01*
X46788Y346579D01*
X46852Y346595D01*
X46918Y346608D01*
X46983Y346618D01*
X47050Y346623D01*
X47116Y346625D01*
X49091Y346625D01*
X52031Y346625D02*
X53216Y341884D01*
X54401Y345045D01*
X55587Y341884D01*
X56772Y346625D01*
X60801Y344650D02*
X62579Y344650D01*
X60801Y344650D02*
X60727Y344648D01*
X60654Y344642D01*
X60581Y344632D01*
X60509Y344619D01*
X60437Y344601D01*
X60367Y344580D01*
X60297Y344555D01*
X60230Y344526D01*
X60163Y344494D01*
X60099Y344459D01*
X60036Y344419D01*
X59976Y344377D01*
X59918Y344332D01*
X59863Y344283D01*
X59810Y344232D01*
X59760Y344178D01*
X59713Y344121D01*
X59669Y344062D01*
X59629Y344001D01*
X59591Y343937D01*
X59557Y343872D01*
X59527Y343805D01*
X59500Y343736D01*
X59477Y343666D01*
X59458Y343595D01*
X59442Y343523D01*
X59430Y343451D01*
X59422Y343377D01*
X59418Y343304D01*
X59418Y343230D01*
X59422Y343157D01*
X59430Y343083D01*
X59442Y343011D01*
X59458Y342939D01*
X59477Y342868D01*
X59500Y342798D01*
X59527Y342729D01*
X59557Y342662D01*
X59591Y342597D01*
X59629Y342533D01*
X59669Y342472D01*
X59713Y342413D01*
X59760Y342356D01*
X59810Y342302D01*
X59863Y342251D01*
X59918Y342202D01*
X59976Y342157D01*
X60036Y342115D01*
X60099Y342075D01*
X60163Y342040D01*
X60230Y342008D01*
X60297Y341979D01*
X60367Y341954D01*
X60437Y341933D01*
X60509Y341915D01*
X60581Y341902D01*
X60654Y341892D01*
X60727Y341886D01*
X60801Y341884D01*
X62579Y341884D01*
X62579Y345440D01*
X62578Y345440D02*
X62576Y345506D01*
X62571Y345573D01*
X62561Y345638D01*
X62548Y345704D01*
X62532Y345768D01*
X62512Y345831D01*
X62488Y345893D01*
X62461Y345954D01*
X62430Y346013D01*
X62396Y346070D01*
X62359Y346126D01*
X62319Y346179D01*
X62277Y346230D01*
X62231Y346278D01*
X62183Y346324D01*
X62132Y346366D01*
X62079Y346406D01*
X62023Y346443D01*
X61966Y346477D01*
X61907Y346508D01*
X61846Y346535D01*
X61784Y346559D01*
X61721Y346579D01*
X61657Y346595D01*
X61591Y346608D01*
X61526Y346618D01*
X61459Y346623D01*
X61393Y346625D01*
X59813Y346625D01*
X65888Y346625D02*
X65888Y341884D01*
X65888Y346625D02*
X68258Y346625D01*
X68258Y345835D01*
X71608Y341884D02*
X73584Y341884D01*
X71608Y341884D02*
X71542Y341886D01*
X71475Y341891D01*
X71410Y341901D01*
X71344Y341914D01*
X71280Y341930D01*
X71217Y341950D01*
X71155Y341974D01*
X71094Y342001D01*
X71035Y342032D01*
X70978Y342066D01*
X70922Y342103D01*
X70869Y342143D01*
X70818Y342185D01*
X70770Y342231D01*
X70724Y342279D01*
X70682Y342330D01*
X70642Y342383D01*
X70605Y342439D01*
X70571Y342496D01*
X70540Y342555D01*
X70513Y342616D01*
X70489Y342678D01*
X70469Y342741D01*
X70453Y342805D01*
X70440Y342871D01*
X70430Y342936D01*
X70425Y343003D01*
X70423Y343069D01*
X70423Y345045D01*
X70425Y345124D01*
X70431Y345202D01*
X70441Y345280D01*
X70454Y345358D01*
X70472Y345435D01*
X70493Y345511D01*
X70518Y345585D01*
X70547Y345659D01*
X70579Y345731D01*
X70615Y345801D01*
X70655Y345869D01*
X70698Y345935D01*
X70744Y345999D01*
X70793Y346061D01*
X70845Y346120D01*
X70900Y346176D01*
X70958Y346230D01*
X71018Y346280D01*
X71081Y346328D01*
X71146Y346372D01*
X71213Y346413D01*
X71282Y346451D01*
X71353Y346485D01*
X71426Y346516D01*
X71500Y346543D01*
X71575Y346566D01*
X71651Y346585D01*
X71729Y346601D01*
X71807Y346613D01*
X71885Y346621D01*
X71964Y346625D01*
X72042Y346625D01*
X72121Y346621D01*
X72199Y346613D01*
X72277Y346601D01*
X72355Y346585D01*
X72431Y346566D01*
X72506Y346543D01*
X72580Y346516D01*
X72653Y346485D01*
X72724Y346451D01*
X72793Y346413D01*
X72860Y346372D01*
X72925Y346328D01*
X72988Y346280D01*
X73048Y346230D01*
X73106Y346176D01*
X73161Y346120D01*
X73213Y346061D01*
X73262Y345999D01*
X73308Y345935D01*
X73351Y345869D01*
X73391Y345801D01*
X73427Y345731D01*
X73459Y345659D01*
X73488Y345585D01*
X73513Y345511D01*
X73534Y345435D01*
X73552Y345358D01*
X73565Y345280D01*
X73575Y345202D01*
X73581Y345124D01*
X73583Y345045D01*
X73584Y345045D02*
X73584Y344255D01*
X70423Y344255D01*
D13*
X425450Y381000D02*
X438150Y381000D01*
X425450Y381000D02*
X419100Y387350D01*
X419100Y400050D01*
X425450Y406400D01*
X419100Y387350D02*
X412750Y381000D01*
X400050Y381000D01*
X393700Y387350D01*
X393700Y400050D01*
X400050Y406400D01*
X412750Y406400D01*
X419100Y400050D01*
X444500Y400050D02*
X444500Y387350D01*
X438150Y381000D01*
X444500Y400050D02*
X438150Y406400D01*
X425450Y406400D01*
X393700Y387350D02*
X387350Y381000D01*
X374650Y381000D01*
X368300Y387350D01*
X368300Y400050D01*
X374650Y406400D01*
X387350Y406400D01*
X393700Y400050D01*
D14*
X32400Y263700D02*
X7400Y263700D01*
X7400Y308700D01*
X32400Y308700D01*
X32400Y263700D01*
D11*
X328200Y397200D02*
X332200Y397200D01*
X332200Y390200D02*
X328200Y390200D01*
D15*
X328950Y396575D03*
D11*
X268700Y397200D02*
X264700Y397200D01*
X264700Y390200D02*
X268700Y390200D01*
D15*
X265450Y396575D03*
D11*
X205200Y397200D02*
X201200Y397200D01*
X201200Y390200D02*
X205200Y390200D01*
D15*
X201950Y396575D03*
D11*
X141700Y397200D02*
X137700Y397200D01*
X137700Y390200D02*
X141700Y390200D01*
D15*
X138450Y396575D03*
D10*
X399100Y18100D02*
X449100Y18100D01*
X449100Y58100D01*
X399100Y58100D01*
X399100Y18100D01*
D16*
X331800Y351900D02*
X331802Y351963D01*
X331808Y352025D01*
X331818Y352087D01*
X331831Y352149D01*
X331849Y352209D01*
X331870Y352268D01*
X331895Y352326D01*
X331924Y352382D01*
X331956Y352436D01*
X331991Y352488D01*
X332029Y352537D01*
X332071Y352585D01*
X332115Y352629D01*
X332163Y352671D01*
X332212Y352709D01*
X332264Y352744D01*
X332318Y352776D01*
X332374Y352805D01*
X332432Y352830D01*
X332491Y352851D01*
X332551Y352869D01*
X332613Y352882D01*
X332675Y352892D01*
X332737Y352898D01*
X332800Y352900D01*
X332863Y352898D01*
X332925Y352892D01*
X332987Y352882D01*
X333049Y352869D01*
X333109Y352851D01*
X333168Y352830D01*
X333226Y352805D01*
X333282Y352776D01*
X333336Y352744D01*
X333388Y352709D01*
X333437Y352671D01*
X333485Y352629D01*
X333529Y352585D01*
X333571Y352537D01*
X333609Y352488D01*
X333644Y352436D01*
X333676Y352382D01*
X333705Y352326D01*
X333730Y352268D01*
X333751Y352209D01*
X333769Y352149D01*
X333782Y352087D01*
X333792Y352025D01*
X333798Y351963D01*
X333800Y351900D01*
X333798Y351837D01*
X333792Y351775D01*
X333782Y351713D01*
X333769Y351651D01*
X333751Y351591D01*
X333730Y351532D01*
X333705Y351474D01*
X333676Y351418D01*
X333644Y351364D01*
X333609Y351312D01*
X333571Y351263D01*
X333529Y351215D01*
X333485Y351171D01*
X333437Y351129D01*
X333388Y351091D01*
X333336Y351056D01*
X333282Y351024D01*
X333226Y350995D01*
X333168Y350970D01*
X333109Y350949D01*
X333049Y350931D01*
X332987Y350918D01*
X332925Y350908D01*
X332863Y350902D01*
X332800Y350900D01*
X332737Y350902D01*
X332675Y350908D01*
X332613Y350918D01*
X332551Y350931D01*
X332491Y350949D01*
X332432Y350970D01*
X332374Y350995D01*
X332318Y351024D01*
X332264Y351056D01*
X332212Y351091D01*
X332163Y351129D01*
X332115Y351171D01*
X332071Y351215D01*
X332029Y351263D01*
X331991Y351312D01*
X331956Y351364D01*
X331924Y351418D01*
X331895Y351474D01*
X331870Y351532D01*
X331849Y351591D01*
X331831Y351651D01*
X331818Y351713D01*
X331808Y351775D01*
X331802Y351837D01*
X331800Y351900D01*
D17*
X269300Y258150D02*
X269300Y256600D01*
X340300Y256600D02*
X340300Y258150D01*
X269300Y326050D02*
X269300Y327600D01*
X340300Y327600D02*
X340300Y326050D01*
X270850Y256600D02*
X269300Y256600D01*
X338750Y256600D02*
X340300Y256600D01*
X270850Y327600D02*
X269300Y327600D01*
X338750Y327600D02*
X340300Y327600D01*
D13*
X40738Y241308D02*
X38198Y238768D01*
X38198Y192032D02*
X40738Y189492D01*
X67662Y189492D01*
X70202Y192032D01*
X70202Y238768D02*
X67662Y241308D01*
X40738Y241308D01*
D18*
X17843Y211703D02*
X17843Y207724D01*
X20164Y204739D01*
X17843Y207724D02*
X15521Y204739D01*
X17843Y207724D02*
X21490Y209050D01*
X17843Y207724D02*
X14195Y209050D01*
D13*
X41148Y148844D02*
X60452Y148844D01*
X60452Y181356D02*
X41148Y181356D01*
D18*
X33493Y183586D02*
X33493Y187565D01*
X33493Y183586D02*
X35814Y180601D01*
X33493Y183586D02*
X31171Y180601D01*
X33493Y183586D02*
X37140Y184912D01*
X33493Y183586D02*
X29845Y184912D01*
D13*
X125984Y163830D02*
X125984Y140970D01*
X125984Y60198D02*
X128524Y60198D01*
X229616Y60198D02*
X229616Y97790D01*
X229616Y140970D02*
X229616Y163830D01*
X229616Y60198D02*
X227076Y60198D01*
X125984Y60198D02*
X125984Y97790D01*
D18*
X121123Y64121D02*
X121123Y60142D01*
X123444Y57157D01*
X121123Y60142D02*
X118801Y57157D01*
X121123Y60142D02*
X124770Y61468D01*
X121123Y60142D02*
X117475Y61468D01*
D13*
X252984Y140970D02*
X252984Y163830D01*
X252984Y60198D02*
X255524Y60198D01*
X356616Y60198D02*
X356616Y97790D01*
X356616Y140970D02*
X356616Y163830D01*
X356616Y60198D02*
X354076Y60198D01*
X252984Y60198D02*
X252984Y97790D01*
D18*
X248123Y64121D02*
X248123Y60142D01*
X250444Y57157D01*
X248123Y60142D02*
X245801Y57157D01*
X248123Y60142D02*
X251770Y61468D01*
X248123Y60142D02*
X244475Y61468D01*
M02*
