G04 EAGLE Gerber RS-274X export*
G75*
%MOMM*%
%FSLAX34Y34*%
%LPD*%
%INSoldermask Bottom*%
%IPPOS*%
%AMOC8*
5,1,8,0,0,1.08239X$1,22.5*%
G01*
%ADD10R,6.654800X3.454400*%
%ADD11R,1.727200X1.727200*%
%ADD12P,1.869504X8X202.500000*%
%ADD13R,1.625600X1.625600*%
%ADD14C,1.625600*%
%ADD15P,1.869504X8X292.500000*%
%ADD16C,0.959600*%

G36*
X386035Y19464D02*
X386035Y19464D01*
X386069Y19462D01*
X386258Y19484D01*
X386449Y19501D01*
X386482Y19510D01*
X386516Y19514D01*
X386699Y19569D01*
X386883Y19619D01*
X386914Y19634D01*
X386947Y19644D01*
X387118Y19731D01*
X387290Y19813D01*
X387318Y19833D01*
X387349Y19848D01*
X387501Y19964D01*
X387656Y20075D01*
X387680Y20100D01*
X387707Y20120D01*
X387836Y20261D01*
X387970Y20397D01*
X387989Y20426D01*
X388013Y20452D01*
X388115Y20613D01*
X388222Y20770D01*
X388236Y20802D01*
X388254Y20831D01*
X388327Y21008D01*
X388404Y21182D01*
X388412Y21216D01*
X388425Y21248D01*
X388465Y21435D01*
X388511Y21620D01*
X388513Y21654D01*
X388520Y21688D01*
X388539Y22000D01*
X388539Y54000D01*
X388536Y54035D01*
X388538Y54069D01*
X388516Y54258D01*
X388499Y54449D01*
X388490Y54482D01*
X388486Y54516D01*
X388431Y54699D01*
X388381Y54883D01*
X388366Y54914D01*
X388356Y54947D01*
X388269Y55118D01*
X388187Y55290D01*
X388167Y55318D01*
X388152Y55349D01*
X388036Y55501D01*
X387925Y55656D01*
X387900Y55680D01*
X387880Y55707D01*
X387740Y55836D01*
X387603Y55970D01*
X387574Y55989D01*
X387548Y56013D01*
X387387Y56115D01*
X387230Y56222D01*
X387198Y56236D01*
X387169Y56254D01*
X386992Y56327D01*
X386818Y56404D01*
X386784Y56412D01*
X386752Y56425D01*
X386565Y56465D01*
X386380Y56511D01*
X386346Y56513D01*
X386312Y56520D01*
X386000Y56539D01*
X80000Y56539D01*
X79966Y56536D01*
X79931Y56538D01*
X79742Y56516D01*
X79552Y56499D01*
X79518Y56490D01*
X79484Y56486D01*
X79301Y56431D01*
X79117Y56381D01*
X79086Y56366D01*
X79053Y56356D01*
X78882Y56269D01*
X78711Y56187D01*
X78682Y56167D01*
X78651Y56152D01*
X78499Y56036D01*
X78344Y55925D01*
X78320Y55900D01*
X78293Y55880D01*
X78164Y55740D01*
X78030Y55603D01*
X78011Y55574D01*
X77988Y55548D01*
X77885Y55387D01*
X77778Y55230D01*
X77764Y55198D01*
X77746Y55169D01*
X77673Y54992D01*
X77596Y54818D01*
X77588Y54784D01*
X77575Y54752D01*
X77535Y54565D01*
X77489Y54380D01*
X77487Y54346D01*
X77480Y54312D01*
X77461Y54000D01*
X77461Y22000D01*
X77464Y21966D01*
X77462Y21931D01*
X77484Y21742D01*
X77501Y21552D01*
X77510Y21518D01*
X77514Y21484D01*
X77569Y21301D01*
X77619Y21117D01*
X77634Y21086D01*
X77644Y21053D01*
X77731Y20882D01*
X77813Y20711D01*
X77833Y20682D01*
X77848Y20651D01*
X77964Y20499D01*
X78075Y20344D01*
X78100Y20320D01*
X78120Y20293D01*
X78261Y20164D01*
X78397Y20030D01*
X78426Y20011D01*
X78452Y19988D01*
X78613Y19885D01*
X78770Y19778D01*
X78802Y19764D01*
X78831Y19746D01*
X79008Y19673D01*
X79182Y19596D01*
X79216Y19588D01*
X79248Y19575D01*
X79435Y19535D01*
X79620Y19489D01*
X79654Y19487D01*
X79688Y19480D01*
X80000Y19461D01*
X386000Y19461D01*
X386035Y19464D01*
G37*
D10*
X419100Y38100D03*
X50800Y38100D03*
D11*
X431800Y393700D03*
D12*
X406400Y393700D03*
X381000Y393700D03*
D13*
X19900Y296200D03*
D14*
X19900Y276200D03*
D11*
X419100Y203200D03*
D15*
X419100Y177800D03*
X419100Y152400D03*
D16*
X115000Y311000D03*
X78200Y71200D03*
X129000Y19000D03*
X246000Y60000D03*
X85000Y383000D03*
X90000Y296000D03*
X297000Y292000D03*
X410000Y75000D03*
X104000Y190000D03*
X389000Y224000D03*
X171000Y276000D03*
X157000Y289000D03*
X170000Y242000D03*
X242000Y313000D03*
X299000Y83000D03*
X177000Y83000D03*
X406000Y345000D03*
X403000Y331000D03*
X288000Y93000D03*
M02*
