G04 EAGLE Gerber RS-274X export*
G75*
%MOMM*%
%FSLAX34Y34*%
%LPD*%
%INSolderpaste Top*%
%IPPOS*%
%AMOC8*
5,1,8,0,0,1.08239X$1,22.5*%
G01*
%ADD10R,6.451600X3.251200*%
%ADD11R,0.900000X0.700000*%
%ADD12R,1.600000X1.800000*%
%ADD13R,0.700000X0.900000*%
%ADD14R,1.300000X1.500000*%
%ADD15R,0.800000X1.200000*%
%ADD16R,0.800000X0.800000*%
%ADD17R,1.000000X1.100000*%
%ADD18R,1.100000X1.000000*%
%ADD19C,0.137500*%
%ADD20R,1.498600X3.987800*%
%ADD21R,0.896100X0.517200*%
%ADD22R,0.800000X2.800000*%
%ADD23R,0.127000X0.127000*%
%ADD24R,1.200000X0.800000*%

G36*
X223802Y68509D02*
X223802Y68509D01*
X223804Y68508D01*
X223847Y68528D01*
X223891Y68546D01*
X223891Y68548D01*
X223893Y68549D01*
X223926Y68634D01*
X223926Y75800D01*
X223925Y75802D01*
X223926Y75804D01*
X223906Y75847D01*
X223888Y75891D01*
X223886Y75891D01*
X223885Y75893D01*
X223800Y75926D01*
X179800Y75926D01*
X179798Y75925D01*
X179796Y75926D01*
X179753Y75906D01*
X179709Y75888D01*
X179709Y75886D01*
X179707Y75885D01*
X179674Y75800D01*
X179674Y68634D01*
X179675Y68632D01*
X179674Y68630D01*
X179694Y68587D01*
X179712Y68543D01*
X179714Y68543D01*
X179715Y68541D01*
X179800Y68508D01*
X223800Y68508D01*
X223802Y68509D01*
G37*
G36*
X350802Y68509D02*
X350802Y68509D01*
X350804Y68508D01*
X350847Y68528D01*
X350891Y68546D01*
X350891Y68548D01*
X350893Y68549D01*
X350926Y68634D01*
X350926Y75800D01*
X350925Y75802D01*
X350926Y75804D01*
X350906Y75847D01*
X350888Y75891D01*
X350886Y75891D01*
X350885Y75893D01*
X350800Y75926D01*
X306800Y75926D01*
X306798Y75925D01*
X306796Y75926D01*
X306753Y75906D01*
X306709Y75888D01*
X306709Y75886D01*
X306707Y75885D01*
X306674Y75800D01*
X306674Y68634D01*
X306675Y68632D01*
X306674Y68630D01*
X306694Y68587D01*
X306712Y68543D01*
X306714Y68543D01*
X306715Y68541D01*
X306800Y68508D01*
X350800Y68508D01*
X350802Y68509D01*
G37*
G36*
X263788Y119570D02*
X263788Y119570D01*
X263799Y119576D01*
X263812Y119575D01*
X264750Y119860D01*
X264759Y119868D01*
X264773Y119869D01*
X265637Y120331D01*
X265645Y120341D01*
X265658Y120345D01*
X266416Y120967D01*
X266421Y120978D01*
X266433Y120984D01*
X267055Y121742D01*
X267058Y121754D01*
X267069Y121763D01*
X267531Y122627D01*
X267532Y122639D01*
X267540Y122650D01*
X267825Y123588D01*
X267823Y123600D01*
X267830Y123612D01*
X267926Y124588D01*
X267922Y124599D01*
X267926Y124612D01*
X267830Y125588D01*
X267824Y125599D01*
X267825Y125612D01*
X267540Y126550D01*
X267532Y126559D01*
X267531Y126573D01*
X267069Y127437D01*
X267059Y127445D01*
X267055Y127458D01*
X266433Y128216D01*
X266422Y128221D01*
X266416Y128233D01*
X265658Y128855D01*
X265646Y128858D01*
X265637Y128869D01*
X264773Y129331D01*
X264761Y129332D01*
X264750Y129340D01*
X263812Y129625D01*
X263800Y129623D01*
X263788Y129630D01*
X262812Y129726D01*
X262801Y129722D01*
X262788Y129726D01*
X261812Y129630D01*
X261801Y129624D01*
X261788Y129625D01*
X260850Y129340D01*
X260841Y129332D01*
X260827Y129331D01*
X259963Y128869D01*
X259955Y128859D01*
X259942Y128855D01*
X259184Y128233D01*
X259179Y128222D01*
X259167Y128216D01*
X258545Y127458D01*
X258542Y127446D01*
X258531Y127437D01*
X258069Y126573D01*
X258068Y126561D01*
X258060Y126550D01*
X257775Y125612D01*
X257777Y125600D01*
X257770Y125588D01*
X257674Y124612D01*
X257678Y124601D01*
X257674Y124588D01*
X257770Y123612D01*
X257776Y123601D01*
X257775Y123588D01*
X258060Y122650D01*
X258068Y122641D01*
X258069Y122627D01*
X258531Y121763D01*
X258541Y121755D01*
X258545Y121742D01*
X259167Y120984D01*
X259178Y120979D01*
X259184Y120967D01*
X259942Y120345D01*
X259954Y120342D01*
X259963Y120331D01*
X260827Y119869D01*
X260839Y119868D01*
X260850Y119860D01*
X261788Y119575D01*
X261800Y119577D01*
X261812Y119570D01*
X262788Y119474D01*
X262799Y119478D01*
X262812Y119474D01*
X263788Y119570D01*
G37*
G36*
X136788Y107570D02*
X136788Y107570D01*
X136799Y107576D01*
X136812Y107575D01*
X137750Y107860D01*
X137759Y107868D01*
X137773Y107869D01*
X138637Y108331D01*
X138645Y108341D01*
X138658Y108345D01*
X139416Y108967D01*
X139421Y108978D01*
X139433Y108984D01*
X140055Y109742D01*
X140058Y109754D01*
X140069Y109763D01*
X140531Y110627D01*
X140532Y110639D01*
X140540Y110650D01*
X140825Y111588D01*
X140823Y111600D01*
X140830Y111612D01*
X140926Y112588D01*
X140922Y112599D01*
X140926Y112612D01*
X140830Y113588D01*
X140824Y113599D01*
X140825Y113612D01*
X140540Y114550D01*
X140532Y114559D01*
X140531Y114573D01*
X140069Y115437D01*
X140059Y115445D01*
X140055Y115458D01*
X139433Y116216D01*
X139422Y116221D01*
X139416Y116233D01*
X138658Y116855D01*
X138646Y116858D01*
X138637Y116869D01*
X137773Y117331D01*
X137761Y117332D01*
X137750Y117340D01*
X136812Y117625D01*
X136800Y117623D01*
X136788Y117630D01*
X135812Y117726D01*
X135801Y117722D01*
X135788Y117726D01*
X134812Y117630D01*
X134801Y117624D01*
X134788Y117625D01*
X133850Y117340D01*
X133841Y117332D01*
X133827Y117331D01*
X132963Y116869D01*
X132955Y116859D01*
X132942Y116855D01*
X132184Y116233D01*
X132179Y116222D01*
X132167Y116216D01*
X131545Y115458D01*
X131542Y115446D01*
X131531Y115437D01*
X131069Y114573D01*
X131068Y114561D01*
X131060Y114550D01*
X130775Y113612D01*
X130777Y113600D01*
X130770Y113588D01*
X130674Y112612D01*
X130678Y112601D01*
X130674Y112588D01*
X130770Y111612D01*
X130776Y111601D01*
X130775Y111588D01*
X131060Y110650D01*
X131068Y110641D01*
X131069Y110627D01*
X131531Y109763D01*
X131541Y109755D01*
X131545Y109742D01*
X132167Y108984D01*
X132178Y108979D01*
X132184Y108967D01*
X132942Y108345D01*
X132954Y108342D01*
X132963Y108331D01*
X133827Y107869D01*
X133839Y107868D01*
X133850Y107860D01*
X134788Y107575D01*
X134800Y107577D01*
X134812Y107570D01*
X135788Y107474D01*
X135799Y107478D01*
X135812Y107474D01*
X136788Y107570D01*
G37*
G36*
X136788Y119570D02*
X136788Y119570D01*
X136799Y119576D01*
X136812Y119575D01*
X137750Y119860D01*
X137759Y119868D01*
X137773Y119869D01*
X138637Y120331D01*
X138645Y120341D01*
X138658Y120345D01*
X139416Y120967D01*
X139421Y120978D01*
X139433Y120984D01*
X140055Y121742D01*
X140058Y121754D01*
X140069Y121763D01*
X140531Y122627D01*
X140532Y122639D01*
X140540Y122650D01*
X140825Y123588D01*
X140823Y123600D01*
X140830Y123612D01*
X140926Y124588D01*
X140922Y124599D01*
X140926Y124612D01*
X140830Y125588D01*
X140824Y125599D01*
X140825Y125612D01*
X140540Y126550D01*
X140532Y126559D01*
X140531Y126573D01*
X140069Y127437D01*
X140059Y127445D01*
X140055Y127458D01*
X139433Y128216D01*
X139422Y128221D01*
X139416Y128233D01*
X138658Y128855D01*
X138646Y128858D01*
X138637Y128869D01*
X137773Y129331D01*
X137761Y129332D01*
X137750Y129340D01*
X136812Y129625D01*
X136800Y129623D01*
X136788Y129630D01*
X135812Y129726D01*
X135801Y129722D01*
X135788Y129726D01*
X134812Y129630D01*
X134801Y129624D01*
X134788Y129625D01*
X133850Y129340D01*
X133841Y129332D01*
X133827Y129331D01*
X132963Y128869D01*
X132955Y128859D01*
X132942Y128855D01*
X132184Y128233D01*
X132179Y128222D01*
X132167Y128216D01*
X131545Y127458D01*
X131542Y127446D01*
X131531Y127437D01*
X131069Y126573D01*
X131068Y126561D01*
X131060Y126550D01*
X130775Y125612D01*
X130777Y125600D01*
X130770Y125588D01*
X130674Y124612D01*
X130678Y124601D01*
X130674Y124588D01*
X130770Y123612D01*
X130776Y123601D01*
X130775Y123588D01*
X131060Y122650D01*
X131068Y122641D01*
X131069Y122627D01*
X131531Y121763D01*
X131541Y121755D01*
X131545Y121742D01*
X132167Y120984D01*
X132178Y120979D01*
X132184Y120967D01*
X132942Y120345D01*
X132954Y120342D01*
X132963Y120331D01*
X133827Y119869D01*
X133839Y119868D01*
X133850Y119860D01*
X134788Y119575D01*
X134800Y119577D01*
X134812Y119570D01*
X135788Y119474D01*
X135799Y119478D01*
X135812Y119474D01*
X136788Y119570D01*
G37*
G36*
X263788Y107570D02*
X263788Y107570D01*
X263799Y107576D01*
X263812Y107575D01*
X264750Y107860D01*
X264759Y107868D01*
X264773Y107869D01*
X265637Y108331D01*
X265645Y108341D01*
X265658Y108345D01*
X266416Y108967D01*
X266421Y108978D01*
X266433Y108984D01*
X267055Y109742D01*
X267058Y109754D01*
X267069Y109763D01*
X267531Y110627D01*
X267532Y110639D01*
X267540Y110650D01*
X267825Y111588D01*
X267823Y111600D01*
X267830Y111612D01*
X267926Y112588D01*
X267922Y112599D01*
X267926Y112612D01*
X267830Y113588D01*
X267824Y113599D01*
X267825Y113612D01*
X267540Y114550D01*
X267532Y114559D01*
X267531Y114573D01*
X267069Y115437D01*
X267059Y115445D01*
X267055Y115458D01*
X266433Y116216D01*
X266422Y116221D01*
X266416Y116233D01*
X265658Y116855D01*
X265646Y116858D01*
X265637Y116869D01*
X264773Y117331D01*
X264761Y117332D01*
X264750Y117340D01*
X263812Y117625D01*
X263800Y117623D01*
X263788Y117630D01*
X262812Y117726D01*
X262801Y117722D01*
X262788Y117726D01*
X261812Y117630D01*
X261801Y117624D01*
X261788Y117625D01*
X260850Y117340D01*
X260841Y117332D01*
X260827Y117331D01*
X259963Y116869D01*
X259955Y116859D01*
X259942Y116855D01*
X259184Y116233D01*
X259179Y116222D01*
X259167Y116216D01*
X258545Y115458D01*
X258542Y115446D01*
X258531Y115437D01*
X258069Y114573D01*
X258068Y114561D01*
X258060Y114550D01*
X257775Y113612D01*
X257777Y113600D01*
X257770Y113588D01*
X257674Y112612D01*
X257678Y112601D01*
X257674Y112588D01*
X257770Y111612D01*
X257776Y111601D01*
X257775Y111588D01*
X258060Y110650D01*
X258068Y110641D01*
X258069Y110627D01*
X258531Y109763D01*
X258541Y109755D01*
X258545Y109742D01*
X259167Y108984D01*
X259178Y108979D01*
X259184Y108967D01*
X259942Y108345D01*
X259954Y108342D01*
X259963Y108331D01*
X260827Y107869D01*
X260839Y107868D01*
X260850Y107860D01*
X261788Y107575D01*
X261800Y107577D01*
X261812Y107570D01*
X262788Y107474D01*
X262799Y107478D01*
X262812Y107474D01*
X263788Y107570D01*
G37*
G36*
X275788Y107570D02*
X275788Y107570D01*
X275799Y107576D01*
X275812Y107575D01*
X276750Y107860D01*
X276759Y107868D01*
X276773Y107869D01*
X277637Y108331D01*
X277645Y108341D01*
X277658Y108345D01*
X278416Y108967D01*
X278421Y108978D01*
X278433Y108984D01*
X279055Y109742D01*
X279058Y109754D01*
X279069Y109763D01*
X279531Y110627D01*
X279532Y110639D01*
X279540Y110650D01*
X279825Y111588D01*
X279823Y111600D01*
X279830Y111612D01*
X279926Y112588D01*
X279922Y112599D01*
X279926Y112612D01*
X279830Y113588D01*
X279824Y113599D01*
X279825Y113612D01*
X279540Y114550D01*
X279532Y114559D01*
X279531Y114573D01*
X279069Y115437D01*
X279059Y115445D01*
X279055Y115458D01*
X278433Y116216D01*
X278422Y116221D01*
X278416Y116233D01*
X277658Y116855D01*
X277646Y116858D01*
X277637Y116869D01*
X276773Y117331D01*
X276761Y117332D01*
X276750Y117340D01*
X275812Y117625D01*
X275800Y117623D01*
X275788Y117630D01*
X274812Y117726D01*
X274801Y117722D01*
X274788Y117726D01*
X273812Y117630D01*
X273801Y117624D01*
X273788Y117625D01*
X272850Y117340D01*
X272841Y117332D01*
X272827Y117331D01*
X271963Y116869D01*
X271955Y116859D01*
X271942Y116855D01*
X271184Y116233D01*
X271179Y116222D01*
X271167Y116216D01*
X270545Y115458D01*
X270542Y115446D01*
X270531Y115437D01*
X270069Y114573D01*
X270068Y114561D01*
X270060Y114550D01*
X269775Y113612D01*
X269777Y113600D01*
X269770Y113588D01*
X269674Y112612D01*
X269678Y112601D01*
X269674Y112588D01*
X269770Y111612D01*
X269776Y111601D01*
X269775Y111588D01*
X270060Y110650D01*
X270068Y110641D01*
X270069Y110627D01*
X270531Y109763D01*
X270541Y109755D01*
X270545Y109742D01*
X271167Y108984D01*
X271178Y108979D01*
X271184Y108967D01*
X271942Y108345D01*
X271954Y108342D01*
X271963Y108331D01*
X272827Y107869D01*
X272839Y107868D01*
X272850Y107860D01*
X273788Y107575D01*
X273800Y107577D01*
X273812Y107570D01*
X274788Y107474D01*
X274799Y107478D01*
X274812Y107474D01*
X275788Y107570D01*
G37*
G36*
X275788Y119570D02*
X275788Y119570D01*
X275799Y119576D01*
X275812Y119575D01*
X276750Y119860D01*
X276759Y119868D01*
X276773Y119869D01*
X277637Y120331D01*
X277645Y120341D01*
X277658Y120345D01*
X278416Y120967D01*
X278421Y120978D01*
X278433Y120984D01*
X279055Y121742D01*
X279058Y121754D01*
X279069Y121763D01*
X279531Y122627D01*
X279532Y122639D01*
X279540Y122650D01*
X279825Y123588D01*
X279823Y123600D01*
X279830Y123612D01*
X279926Y124588D01*
X279922Y124599D01*
X279926Y124612D01*
X279830Y125588D01*
X279824Y125599D01*
X279825Y125612D01*
X279540Y126550D01*
X279532Y126559D01*
X279531Y126573D01*
X279069Y127437D01*
X279059Y127445D01*
X279055Y127458D01*
X278433Y128216D01*
X278422Y128221D01*
X278416Y128233D01*
X277658Y128855D01*
X277646Y128858D01*
X277637Y128869D01*
X276773Y129331D01*
X276761Y129332D01*
X276750Y129340D01*
X275812Y129625D01*
X275800Y129623D01*
X275788Y129630D01*
X274812Y129726D01*
X274801Y129722D01*
X274788Y129726D01*
X273812Y129630D01*
X273801Y129624D01*
X273788Y129625D01*
X272850Y129340D01*
X272841Y129332D01*
X272827Y129331D01*
X271963Y128869D01*
X271955Y128859D01*
X271942Y128855D01*
X271184Y128233D01*
X271179Y128222D01*
X271167Y128216D01*
X270545Y127458D01*
X270542Y127446D01*
X270531Y127437D01*
X270069Y126573D01*
X270068Y126561D01*
X270060Y126550D01*
X269775Y125612D01*
X269777Y125600D01*
X269770Y125588D01*
X269674Y124612D01*
X269678Y124601D01*
X269674Y124588D01*
X269770Y123612D01*
X269776Y123601D01*
X269775Y123588D01*
X270060Y122650D01*
X270068Y122641D01*
X270069Y122627D01*
X270531Y121763D01*
X270541Y121755D01*
X270545Y121742D01*
X271167Y120984D01*
X271178Y120979D01*
X271184Y120967D01*
X271942Y120345D01*
X271954Y120342D01*
X271963Y120331D01*
X272827Y119869D01*
X272839Y119868D01*
X272850Y119860D01*
X273788Y119575D01*
X273800Y119577D01*
X273812Y119570D01*
X274788Y119474D01*
X274799Y119478D01*
X274812Y119474D01*
X275788Y119570D01*
G37*
G36*
X148788Y107570D02*
X148788Y107570D01*
X148799Y107576D01*
X148812Y107575D01*
X149750Y107860D01*
X149759Y107868D01*
X149773Y107869D01*
X150637Y108331D01*
X150645Y108341D01*
X150658Y108345D01*
X151416Y108967D01*
X151421Y108978D01*
X151433Y108984D01*
X152055Y109742D01*
X152058Y109754D01*
X152069Y109763D01*
X152531Y110627D01*
X152532Y110639D01*
X152540Y110650D01*
X152825Y111588D01*
X152823Y111600D01*
X152830Y111612D01*
X152926Y112588D01*
X152922Y112599D01*
X152926Y112612D01*
X152830Y113588D01*
X152824Y113599D01*
X152825Y113612D01*
X152540Y114550D01*
X152532Y114559D01*
X152531Y114573D01*
X152069Y115437D01*
X152059Y115445D01*
X152055Y115458D01*
X151433Y116216D01*
X151422Y116221D01*
X151416Y116233D01*
X150658Y116855D01*
X150646Y116858D01*
X150637Y116869D01*
X149773Y117331D01*
X149761Y117332D01*
X149750Y117340D01*
X148812Y117625D01*
X148800Y117623D01*
X148788Y117630D01*
X147812Y117726D01*
X147801Y117722D01*
X147788Y117726D01*
X146812Y117630D01*
X146801Y117624D01*
X146788Y117625D01*
X145850Y117340D01*
X145841Y117332D01*
X145827Y117331D01*
X144963Y116869D01*
X144955Y116859D01*
X144942Y116855D01*
X144184Y116233D01*
X144179Y116222D01*
X144167Y116216D01*
X143545Y115458D01*
X143542Y115446D01*
X143531Y115437D01*
X143069Y114573D01*
X143068Y114561D01*
X143060Y114550D01*
X142775Y113612D01*
X142777Y113600D01*
X142770Y113588D01*
X142674Y112612D01*
X142678Y112601D01*
X142674Y112588D01*
X142770Y111612D01*
X142776Y111601D01*
X142775Y111588D01*
X143060Y110650D01*
X143068Y110641D01*
X143069Y110627D01*
X143531Y109763D01*
X143541Y109755D01*
X143545Y109742D01*
X144167Y108984D01*
X144178Y108979D01*
X144184Y108967D01*
X144942Y108345D01*
X144954Y108342D01*
X144963Y108331D01*
X145827Y107869D01*
X145839Y107868D01*
X145850Y107860D01*
X146788Y107575D01*
X146800Y107577D01*
X146812Y107570D01*
X147788Y107474D01*
X147799Y107478D01*
X147812Y107474D01*
X148788Y107570D01*
G37*
G36*
X148788Y119570D02*
X148788Y119570D01*
X148799Y119576D01*
X148812Y119575D01*
X149750Y119860D01*
X149759Y119868D01*
X149773Y119869D01*
X150637Y120331D01*
X150645Y120341D01*
X150658Y120345D01*
X151416Y120967D01*
X151421Y120978D01*
X151433Y120984D01*
X152055Y121742D01*
X152058Y121754D01*
X152069Y121763D01*
X152531Y122627D01*
X152532Y122639D01*
X152540Y122650D01*
X152825Y123588D01*
X152823Y123600D01*
X152830Y123612D01*
X152926Y124588D01*
X152922Y124599D01*
X152926Y124612D01*
X152830Y125588D01*
X152824Y125599D01*
X152825Y125612D01*
X152540Y126550D01*
X152532Y126559D01*
X152531Y126573D01*
X152069Y127437D01*
X152059Y127445D01*
X152055Y127458D01*
X151433Y128216D01*
X151422Y128221D01*
X151416Y128233D01*
X150658Y128855D01*
X150646Y128858D01*
X150637Y128869D01*
X149773Y129331D01*
X149761Y129332D01*
X149750Y129340D01*
X148812Y129625D01*
X148800Y129623D01*
X148788Y129630D01*
X147812Y129726D01*
X147801Y129722D01*
X147788Y129726D01*
X146812Y129630D01*
X146801Y129624D01*
X146788Y129625D01*
X145850Y129340D01*
X145841Y129332D01*
X145827Y129331D01*
X144963Y128869D01*
X144955Y128859D01*
X144942Y128855D01*
X144184Y128233D01*
X144179Y128222D01*
X144167Y128216D01*
X143545Y127458D01*
X143542Y127446D01*
X143531Y127437D01*
X143069Y126573D01*
X143068Y126561D01*
X143060Y126550D01*
X142775Y125612D01*
X142777Y125600D01*
X142770Y125588D01*
X142674Y124612D01*
X142678Y124601D01*
X142674Y124588D01*
X142770Y123612D01*
X142776Y123601D01*
X142775Y123588D01*
X143060Y122650D01*
X143068Y122641D01*
X143069Y122627D01*
X143531Y121763D01*
X143541Y121755D01*
X143545Y121742D01*
X144167Y120984D01*
X144178Y120979D01*
X144184Y120967D01*
X144942Y120345D01*
X144954Y120342D01*
X144963Y120331D01*
X145827Y119869D01*
X145839Y119868D01*
X145850Y119860D01*
X146788Y119575D01*
X146800Y119577D01*
X146812Y119570D01*
X147788Y119474D01*
X147799Y119478D01*
X147812Y119474D01*
X148788Y119570D01*
G37*
G36*
X323788Y107570D02*
X323788Y107570D01*
X323799Y107576D01*
X323812Y107575D01*
X324750Y107860D01*
X324759Y107868D01*
X324773Y107869D01*
X325637Y108331D01*
X325645Y108341D01*
X325658Y108345D01*
X326416Y108967D01*
X326421Y108978D01*
X326433Y108984D01*
X327055Y109742D01*
X327058Y109754D01*
X327069Y109763D01*
X327531Y110627D01*
X327532Y110639D01*
X327540Y110650D01*
X327825Y111588D01*
X327823Y111600D01*
X327830Y111612D01*
X327926Y112588D01*
X327922Y112599D01*
X327926Y112612D01*
X327830Y113588D01*
X327824Y113599D01*
X327825Y113612D01*
X327540Y114550D01*
X327532Y114559D01*
X327531Y114573D01*
X327069Y115437D01*
X327059Y115445D01*
X327055Y115458D01*
X326433Y116216D01*
X326422Y116221D01*
X326416Y116233D01*
X325658Y116855D01*
X325646Y116858D01*
X325637Y116869D01*
X324773Y117331D01*
X324761Y117332D01*
X324750Y117340D01*
X323812Y117625D01*
X323800Y117623D01*
X323788Y117630D01*
X322812Y117726D01*
X322801Y117722D01*
X322788Y117726D01*
X321812Y117630D01*
X321801Y117624D01*
X321788Y117625D01*
X320850Y117340D01*
X320841Y117332D01*
X320827Y117331D01*
X319963Y116869D01*
X319955Y116859D01*
X319942Y116855D01*
X319184Y116233D01*
X319179Y116222D01*
X319167Y116216D01*
X318545Y115458D01*
X318542Y115446D01*
X318531Y115437D01*
X318069Y114573D01*
X318068Y114561D01*
X318060Y114550D01*
X317775Y113612D01*
X317777Y113600D01*
X317770Y113588D01*
X317674Y112612D01*
X317678Y112601D01*
X317674Y112588D01*
X317770Y111612D01*
X317776Y111601D01*
X317775Y111588D01*
X318060Y110650D01*
X318068Y110641D01*
X318069Y110627D01*
X318531Y109763D01*
X318541Y109755D01*
X318545Y109742D01*
X319167Y108984D01*
X319178Y108979D01*
X319184Y108967D01*
X319942Y108345D01*
X319954Y108342D01*
X319963Y108331D01*
X320827Y107869D01*
X320839Y107868D01*
X320850Y107860D01*
X321788Y107575D01*
X321800Y107577D01*
X321812Y107570D01*
X322788Y107474D01*
X322799Y107478D01*
X322812Y107474D01*
X323788Y107570D01*
G37*
G36*
X196788Y107570D02*
X196788Y107570D01*
X196799Y107576D01*
X196812Y107575D01*
X197750Y107860D01*
X197759Y107868D01*
X197773Y107869D01*
X198637Y108331D01*
X198645Y108341D01*
X198658Y108345D01*
X199416Y108967D01*
X199421Y108978D01*
X199433Y108984D01*
X200055Y109742D01*
X200058Y109754D01*
X200069Y109763D01*
X200531Y110627D01*
X200532Y110639D01*
X200540Y110650D01*
X200825Y111588D01*
X200823Y111600D01*
X200830Y111612D01*
X200926Y112588D01*
X200922Y112599D01*
X200926Y112612D01*
X200830Y113588D01*
X200824Y113599D01*
X200825Y113612D01*
X200540Y114550D01*
X200532Y114559D01*
X200531Y114573D01*
X200069Y115437D01*
X200059Y115445D01*
X200055Y115458D01*
X199433Y116216D01*
X199422Y116221D01*
X199416Y116233D01*
X198658Y116855D01*
X198646Y116858D01*
X198637Y116869D01*
X197773Y117331D01*
X197761Y117332D01*
X197750Y117340D01*
X196812Y117625D01*
X196800Y117623D01*
X196788Y117630D01*
X195812Y117726D01*
X195801Y117722D01*
X195788Y117726D01*
X194812Y117630D01*
X194801Y117624D01*
X194788Y117625D01*
X193850Y117340D01*
X193841Y117332D01*
X193827Y117331D01*
X192963Y116869D01*
X192955Y116859D01*
X192942Y116855D01*
X192184Y116233D01*
X192179Y116222D01*
X192167Y116216D01*
X191545Y115458D01*
X191542Y115446D01*
X191531Y115437D01*
X191069Y114573D01*
X191068Y114561D01*
X191060Y114550D01*
X190775Y113612D01*
X190777Y113600D01*
X190770Y113588D01*
X190674Y112612D01*
X190678Y112601D01*
X190674Y112588D01*
X190770Y111612D01*
X190776Y111601D01*
X190775Y111588D01*
X191060Y110650D01*
X191068Y110641D01*
X191069Y110627D01*
X191531Y109763D01*
X191541Y109755D01*
X191545Y109742D01*
X192167Y108984D01*
X192178Y108979D01*
X192184Y108967D01*
X192942Y108345D01*
X192954Y108342D01*
X192963Y108331D01*
X193827Y107869D01*
X193839Y107868D01*
X193850Y107860D01*
X194788Y107575D01*
X194800Y107577D01*
X194812Y107570D01*
X195788Y107474D01*
X195799Y107478D01*
X195812Y107474D01*
X196788Y107570D01*
G37*
G36*
X196788Y119570D02*
X196788Y119570D01*
X196799Y119576D01*
X196812Y119575D01*
X197750Y119860D01*
X197759Y119868D01*
X197773Y119869D01*
X198637Y120331D01*
X198645Y120341D01*
X198658Y120345D01*
X199416Y120967D01*
X199421Y120978D01*
X199433Y120984D01*
X200055Y121742D01*
X200058Y121754D01*
X200069Y121763D01*
X200531Y122627D01*
X200532Y122639D01*
X200540Y122650D01*
X200825Y123588D01*
X200823Y123600D01*
X200830Y123612D01*
X200926Y124588D01*
X200922Y124599D01*
X200926Y124612D01*
X200830Y125588D01*
X200824Y125599D01*
X200825Y125612D01*
X200540Y126550D01*
X200532Y126559D01*
X200531Y126573D01*
X200069Y127437D01*
X200059Y127445D01*
X200055Y127458D01*
X199433Y128216D01*
X199422Y128221D01*
X199416Y128233D01*
X198658Y128855D01*
X198646Y128858D01*
X198637Y128869D01*
X197773Y129331D01*
X197761Y129332D01*
X197750Y129340D01*
X196812Y129625D01*
X196800Y129623D01*
X196788Y129630D01*
X195812Y129726D01*
X195801Y129722D01*
X195788Y129726D01*
X194812Y129630D01*
X194801Y129624D01*
X194788Y129625D01*
X193850Y129340D01*
X193841Y129332D01*
X193827Y129331D01*
X192963Y128869D01*
X192955Y128859D01*
X192942Y128855D01*
X192184Y128233D01*
X192179Y128222D01*
X192167Y128216D01*
X191545Y127458D01*
X191542Y127446D01*
X191531Y127437D01*
X191069Y126573D01*
X191068Y126561D01*
X191060Y126550D01*
X190775Y125612D01*
X190777Y125600D01*
X190770Y125588D01*
X190674Y124612D01*
X190678Y124601D01*
X190674Y124588D01*
X190770Y123612D01*
X190776Y123601D01*
X190775Y123588D01*
X191060Y122650D01*
X191068Y122641D01*
X191069Y122627D01*
X191531Y121763D01*
X191541Y121755D01*
X191545Y121742D01*
X192167Y120984D01*
X192178Y120979D01*
X192184Y120967D01*
X192942Y120345D01*
X192954Y120342D01*
X192963Y120331D01*
X193827Y119869D01*
X193839Y119868D01*
X193850Y119860D01*
X194788Y119575D01*
X194800Y119577D01*
X194812Y119570D01*
X195788Y119474D01*
X195799Y119478D01*
X195812Y119474D01*
X196788Y119570D01*
G37*
G36*
X323788Y119570D02*
X323788Y119570D01*
X323799Y119576D01*
X323812Y119575D01*
X324750Y119860D01*
X324759Y119868D01*
X324773Y119869D01*
X325637Y120331D01*
X325645Y120341D01*
X325658Y120345D01*
X326416Y120967D01*
X326421Y120978D01*
X326433Y120984D01*
X327055Y121742D01*
X327058Y121754D01*
X327069Y121763D01*
X327531Y122627D01*
X327532Y122639D01*
X327540Y122650D01*
X327825Y123588D01*
X327823Y123600D01*
X327830Y123612D01*
X327926Y124588D01*
X327922Y124599D01*
X327926Y124612D01*
X327830Y125588D01*
X327824Y125599D01*
X327825Y125612D01*
X327540Y126550D01*
X327532Y126559D01*
X327531Y126573D01*
X327069Y127437D01*
X327059Y127445D01*
X327055Y127458D01*
X326433Y128216D01*
X326422Y128221D01*
X326416Y128233D01*
X325658Y128855D01*
X325646Y128858D01*
X325637Y128869D01*
X324773Y129331D01*
X324761Y129332D01*
X324750Y129340D01*
X323812Y129625D01*
X323800Y129623D01*
X323788Y129630D01*
X322812Y129726D01*
X322801Y129722D01*
X322788Y129726D01*
X321812Y129630D01*
X321801Y129624D01*
X321788Y129625D01*
X320850Y129340D01*
X320841Y129332D01*
X320827Y129331D01*
X319963Y128869D01*
X319955Y128859D01*
X319942Y128855D01*
X319184Y128233D01*
X319179Y128222D01*
X319167Y128216D01*
X318545Y127458D01*
X318542Y127446D01*
X318531Y127437D01*
X318069Y126573D01*
X318068Y126561D01*
X318060Y126550D01*
X317775Y125612D01*
X317777Y125600D01*
X317770Y125588D01*
X317674Y124612D01*
X317678Y124601D01*
X317674Y124588D01*
X317770Y123612D01*
X317776Y123601D01*
X317775Y123588D01*
X318060Y122650D01*
X318068Y122641D01*
X318069Y122627D01*
X318531Y121763D01*
X318541Y121755D01*
X318545Y121742D01*
X319167Y120984D01*
X319178Y120979D01*
X319184Y120967D01*
X319942Y120345D01*
X319954Y120342D01*
X319963Y120331D01*
X320827Y119869D01*
X320839Y119868D01*
X320850Y119860D01*
X321788Y119575D01*
X321800Y119577D01*
X321812Y119570D01*
X322788Y119474D01*
X322799Y119478D01*
X322812Y119474D01*
X323788Y119570D01*
G37*
G36*
X160788Y119570D02*
X160788Y119570D01*
X160799Y119576D01*
X160812Y119575D01*
X161750Y119860D01*
X161759Y119868D01*
X161773Y119869D01*
X162637Y120331D01*
X162645Y120341D01*
X162658Y120345D01*
X163416Y120967D01*
X163421Y120978D01*
X163433Y120984D01*
X164055Y121742D01*
X164058Y121754D01*
X164069Y121763D01*
X164531Y122627D01*
X164532Y122639D01*
X164540Y122650D01*
X164825Y123588D01*
X164823Y123600D01*
X164830Y123612D01*
X164926Y124588D01*
X164922Y124599D01*
X164926Y124612D01*
X164830Y125588D01*
X164824Y125599D01*
X164825Y125612D01*
X164540Y126550D01*
X164532Y126559D01*
X164531Y126573D01*
X164069Y127437D01*
X164059Y127445D01*
X164055Y127458D01*
X163433Y128216D01*
X163422Y128221D01*
X163416Y128233D01*
X162658Y128855D01*
X162646Y128858D01*
X162637Y128869D01*
X161773Y129331D01*
X161761Y129332D01*
X161750Y129340D01*
X160812Y129625D01*
X160800Y129623D01*
X160788Y129630D01*
X159812Y129726D01*
X159801Y129722D01*
X159788Y129726D01*
X158812Y129630D01*
X158801Y129624D01*
X158788Y129625D01*
X157850Y129340D01*
X157841Y129332D01*
X157827Y129331D01*
X156963Y128869D01*
X156955Y128859D01*
X156942Y128855D01*
X156184Y128233D01*
X156179Y128222D01*
X156167Y128216D01*
X155545Y127458D01*
X155542Y127446D01*
X155531Y127437D01*
X155069Y126573D01*
X155068Y126561D01*
X155060Y126550D01*
X154775Y125612D01*
X154777Y125600D01*
X154770Y125588D01*
X154674Y124612D01*
X154678Y124601D01*
X154674Y124588D01*
X154770Y123612D01*
X154776Y123601D01*
X154775Y123588D01*
X155060Y122650D01*
X155068Y122641D01*
X155069Y122627D01*
X155531Y121763D01*
X155541Y121755D01*
X155545Y121742D01*
X156167Y120984D01*
X156178Y120979D01*
X156184Y120967D01*
X156942Y120345D01*
X156954Y120342D01*
X156963Y120331D01*
X157827Y119869D01*
X157839Y119868D01*
X157850Y119860D01*
X158788Y119575D01*
X158800Y119577D01*
X158812Y119570D01*
X159788Y119474D01*
X159799Y119478D01*
X159812Y119474D01*
X160788Y119570D01*
G37*
G36*
X160788Y107570D02*
X160788Y107570D01*
X160799Y107576D01*
X160812Y107575D01*
X161750Y107860D01*
X161759Y107868D01*
X161773Y107869D01*
X162637Y108331D01*
X162645Y108341D01*
X162658Y108345D01*
X163416Y108967D01*
X163421Y108978D01*
X163433Y108984D01*
X164055Y109742D01*
X164058Y109754D01*
X164069Y109763D01*
X164531Y110627D01*
X164532Y110639D01*
X164540Y110650D01*
X164825Y111588D01*
X164823Y111600D01*
X164830Y111612D01*
X164926Y112588D01*
X164922Y112599D01*
X164926Y112612D01*
X164830Y113588D01*
X164824Y113599D01*
X164825Y113612D01*
X164540Y114550D01*
X164532Y114559D01*
X164531Y114573D01*
X164069Y115437D01*
X164059Y115445D01*
X164055Y115458D01*
X163433Y116216D01*
X163422Y116221D01*
X163416Y116233D01*
X162658Y116855D01*
X162646Y116858D01*
X162637Y116869D01*
X161773Y117331D01*
X161761Y117332D01*
X161750Y117340D01*
X160812Y117625D01*
X160800Y117623D01*
X160788Y117630D01*
X159812Y117726D01*
X159801Y117722D01*
X159788Y117726D01*
X158812Y117630D01*
X158801Y117624D01*
X158788Y117625D01*
X157850Y117340D01*
X157841Y117332D01*
X157827Y117331D01*
X156963Y116869D01*
X156955Y116859D01*
X156942Y116855D01*
X156184Y116233D01*
X156179Y116222D01*
X156167Y116216D01*
X155545Y115458D01*
X155542Y115446D01*
X155531Y115437D01*
X155069Y114573D01*
X155068Y114561D01*
X155060Y114550D01*
X154775Y113612D01*
X154777Y113600D01*
X154770Y113588D01*
X154674Y112612D01*
X154678Y112601D01*
X154674Y112588D01*
X154770Y111612D01*
X154776Y111601D01*
X154775Y111588D01*
X155060Y110650D01*
X155068Y110641D01*
X155069Y110627D01*
X155531Y109763D01*
X155541Y109755D01*
X155545Y109742D01*
X156167Y108984D01*
X156178Y108979D01*
X156184Y108967D01*
X156942Y108345D01*
X156954Y108342D01*
X156963Y108331D01*
X157827Y107869D01*
X157839Y107868D01*
X157850Y107860D01*
X158788Y107575D01*
X158800Y107577D01*
X158812Y107570D01*
X159788Y107474D01*
X159799Y107478D01*
X159812Y107474D01*
X160788Y107570D01*
G37*
G36*
X287788Y107570D02*
X287788Y107570D01*
X287799Y107576D01*
X287812Y107575D01*
X288750Y107860D01*
X288759Y107868D01*
X288773Y107869D01*
X289637Y108331D01*
X289645Y108341D01*
X289658Y108345D01*
X290416Y108967D01*
X290421Y108978D01*
X290433Y108984D01*
X291055Y109742D01*
X291058Y109754D01*
X291069Y109763D01*
X291531Y110627D01*
X291532Y110639D01*
X291540Y110650D01*
X291825Y111588D01*
X291823Y111600D01*
X291830Y111612D01*
X291926Y112588D01*
X291922Y112599D01*
X291926Y112612D01*
X291830Y113588D01*
X291824Y113599D01*
X291825Y113612D01*
X291540Y114550D01*
X291532Y114559D01*
X291531Y114573D01*
X291069Y115437D01*
X291059Y115445D01*
X291055Y115458D01*
X290433Y116216D01*
X290422Y116221D01*
X290416Y116233D01*
X289658Y116855D01*
X289646Y116858D01*
X289637Y116869D01*
X288773Y117331D01*
X288761Y117332D01*
X288750Y117340D01*
X287812Y117625D01*
X287800Y117623D01*
X287788Y117630D01*
X286812Y117726D01*
X286801Y117722D01*
X286788Y117726D01*
X285812Y117630D01*
X285801Y117624D01*
X285788Y117625D01*
X284850Y117340D01*
X284841Y117332D01*
X284827Y117331D01*
X283963Y116869D01*
X283955Y116859D01*
X283942Y116855D01*
X283184Y116233D01*
X283179Y116222D01*
X283167Y116216D01*
X282545Y115458D01*
X282542Y115446D01*
X282531Y115437D01*
X282069Y114573D01*
X282068Y114561D01*
X282060Y114550D01*
X281775Y113612D01*
X281777Y113600D01*
X281770Y113588D01*
X281674Y112612D01*
X281678Y112601D01*
X281674Y112588D01*
X281770Y111612D01*
X281776Y111601D01*
X281775Y111588D01*
X282060Y110650D01*
X282068Y110641D01*
X282069Y110627D01*
X282531Y109763D01*
X282541Y109755D01*
X282545Y109742D01*
X283167Y108984D01*
X283178Y108979D01*
X283184Y108967D01*
X283942Y108345D01*
X283954Y108342D01*
X283963Y108331D01*
X284827Y107869D01*
X284839Y107868D01*
X284850Y107860D01*
X285788Y107575D01*
X285800Y107577D01*
X285812Y107570D01*
X286788Y107474D01*
X286799Y107478D01*
X286812Y107474D01*
X287788Y107570D01*
G37*
G36*
X287788Y119570D02*
X287788Y119570D01*
X287799Y119576D01*
X287812Y119575D01*
X288750Y119860D01*
X288759Y119868D01*
X288773Y119869D01*
X289637Y120331D01*
X289645Y120341D01*
X289658Y120345D01*
X290416Y120967D01*
X290421Y120978D01*
X290433Y120984D01*
X291055Y121742D01*
X291058Y121754D01*
X291069Y121763D01*
X291531Y122627D01*
X291532Y122639D01*
X291540Y122650D01*
X291825Y123588D01*
X291823Y123600D01*
X291830Y123612D01*
X291926Y124588D01*
X291922Y124599D01*
X291926Y124612D01*
X291830Y125588D01*
X291824Y125599D01*
X291825Y125612D01*
X291540Y126550D01*
X291532Y126559D01*
X291531Y126573D01*
X291069Y127437D01*
X291059Y127445D01*
X291055Y127458D01*
X290433Y128216D01*
X290422Y128221D01*
X290416Y128233D01*
X289658Y128855D01*
X289646Y128858D01*
X289637Y128869D01*
X288773Y129331D01*
X288761Y129332D01*
X288750Y129340D01*
X287812Y129625D01*
X287800Y129623D01*
X287788Y129630D01*
X286812Y129726D01*
X286801Y129722D01*
X286788Y129726D01*
X285812Y129630D01*
X285801Y129624D01*
X285788Y129625D01*
X284850Y129340D01*
X284841Y129332D01*
X284827Y129331D01*
X283963Y128869D01*
X283955Y128859D01*
X283942Y128855D01*
X283184Y128233D01*
X283179Y128222D01*
X283167Y128216D01*
X282545Y127458D01*
X282542Y127446D01*
X282531Y127437D01*
X282069Y126573D01*
X282068Y126561D01*
X282060Y126550D01*
X281775Y125612D01*
X281777Y125600D01*
X281770Y125588D01*
X281674Y124612D01*
X281678Y124601D01*
X281674Y124588D01*
X281770Y123612D01*
X281776Y123601D01*
X281775Y123588D01*
X282060Y122650D01*
X282068Y122641D01*
X282069Y122627D01*
X282531Y121763D01*
X282541Y121755D01*
X282545Y121742D01*
X283167Y120984D01*
X283178Y120979D01*
X283184Y120967D01*
X283942Y120345D01*
X283954Y120342D01*
X283963Y120331D01*
X284827Y119869D01*
X284839Y119868D01*
X284850Y119860D01*
X285788Y119575D01*
X285800Y119577D01*
X285812Y119570D01*
X286788Y119474D01*
X286799Y119478D01*
X286812Y119474D01*
X287788Y119570D01*
G37*
G36*
X335788Y119570D02*
X335788Y119570D01*
X335799Y119576D01*
X335812Y119575D01*
X336750Y119860D01*
X336759Y119868D01*
X336773Y119869D01*
X337637Y120331D01*
X337645Y120341D01*
X337658Y120345D01*
X338416Y120967D01*
X338421Y120978D01*
X338433Y120984D01*
X339055Y121742D01*
X339058Y121754D01*
X339069Y121763D01*
X339531Y122627D01*
X339532Y122639D01*
X339540Y122650D01*
X339825Y123588D01*
X339823Y123600D01*
X339830Y123612D01*
X339926Y124588D01*
X339922Y124599D01*
X339926Y124612D01*
X339830Y125588D01*
X339824Y125599D01*
X339825Y125612D01*
X339540Y126550D01*
X339532Y126559D01*
X339531Y126573D01*
X339069Y127437D01*
X339059Y127445D01*
X339055Y127458D01*
X338433Y128216D01*
X338422Y128221D01*
X338416Y128233D01*
X337658Y128855D01*
X337646Y128858D01*
X337637Y128869D01*
X336773Y129331D01*
X336761Y129332D01*
X336750Y129340D01*
X335812Y129625D01*
X335800Y129623D01*
X335788Y129630D01*
X334812Y129726D01*
X334801Y129722D01*
X334788Y129726D01*
X333812Y129630D01*
X333801Y129624D01*
X333788Y129625D01*
X332850Y129340D01*
X332841Y129332D01*
X332827Y129331D01*
X331963Y128869D01*
X331955Y128859D01*
X331942Y128855D01*
X331184Y128233D01*
X331179Y128222D01*
X331167Y128216D01*
X330545Y127458D01*
X330542Y127446D01*
X330531Y127437D01*
X330069Y126573D01*
X330068Y126561D01*
X330060Y126550D01*
X329775Y125612D01*
X329777Y125600D01*
X329770Y125588D01*
X329674Y124612D01*
X329678Y124601D01*
X329674Y124588D01*
X329770Y123612D01*
X329776Y123601D01*
X329775Y123588D01*
X330060Y122650D01*
X330068Y122641D01*
X330069Y122627D01*
X330531Y121763D01*
X330541Y121755D01*
X330545Y121742D01*
X331167Y120984D01*
X331178Y120979D01*
X331184Y120967D01*
X331942Y120345D01*
X331954Y120342D01*
X331963Y120331D01*
X332827Y119869D01*
X332839Y119868D01*
X332850Y119860D01*
X333788Y119575D01*
X333800Y119577D01*
X333812Y119570D01*
X334788Y119474D01*
X334799Y119478D01*
X334812Y119474D01*
X335788Y119570D01*
G37*
G36*
X335788Y107570D02*
X335788Y107570D01*
X335799Y107576D01*
X335812Y107575D01*
X336750Y107860D01*
X336759Y107868D01*
X336773Y107869D01*
X337637Y108331D01*
X337645Y108341D01*
X337658Y108345D01*
X338416Y108967D01*
X338421Y108978D01*
X338433Y108984D01*
X339055Y109742D01*
X339058Y109754D01*
X339069Y109763D01*
X339531Y110627D01*
X339532Y110639D01*
X339540Y110650D01*
X339825Y111588D01*
X339823Y111600D01*
X339830Y111612D01*
X339926Y112588D01*
X339922Y112599D01*
X339926Y112612D01*
X339830Y113588D01*
X339824Y113599D01*
X339825Y113612D01*
X339540Y114550D01*
X339532Y114559D01*
X339531Y114573D01*
X339069Y115437D01*
X339059Y115445D01*
X339055Y115458D01*
X338433Y116216D01*
X338422Y116221D01*
X338416Y116233D01*
X337658Y116855D01*
X337646Y116858D01*
X337637Y116869D01*
X336773Y117331D01*
X336761Y117332D01*
X336750Y117340D01*
X335812Y117625D01*
X335800Y117623D01*
X335788Y117630D01*
X334812Y117726D01*
X334801Y117722D01*
X334788Y117726D01*
X333812Y117630D01*
X333801Y117624D01*
X333788Y117625D01*
X332850Y117340D01*
X332841Y117332D01*
X332827Y117331D01*
X331963Y116869D01*
X331955Y116859D01*
X331942Y116855D01*
X331184Y116233D01*
X331179Y116222D01*
X331167Y116216D01*
X330545Y115458D01*
X330542Y115446D01*
X330531Y115437D01*
X330069Y114573D01*
X330068Y114561D01*
X330060Y114550D01*
X329775Y113612D01*
X329777Y113600D01*
X329770Y113588D01*
X329674Y112612D01*
X329678Y112601D01*
X329674Y112588D01*
X329770Y111612D01*
X329776Y111601D01*
X329775Y111588D01*
X330060Y110650D01*
X330068Y110641D01*
X330069Y110627D01*
X330531Y109763D01*
X330541Y109755D01*
X330545Y109742D01*
X331167Y108984D01*
X331178Y108979D01*
X331184Y108967D01*
X331942Y108345D01*
X331954Y108342D01*
X331963Y108331D01*
X332827Y107869D01*
X332839Y107868D01*
X332850Y107860D01*
X333788Y107575D01*
X333800Y107577D01*
X333812Y107570D01*
X334788Y107474D01*
X334799Y107478D01*
X334812Y107474D01*
X335788Y107570D01*
G37*
G36*
X208788Y107570D02*
X208788Y107570D01*
X208799Y107576D01*
X208812Y107575D01*
X209750Y107860D01*
X209759Y107868D01*
X209773Y107869D01*
X210637Y108331D01*
X210645Y108341D01*
X210658Y108345D01*
X211416Y108967D01*
X211421Y108978D01*
X211433Y108984D01*
X212055Y109742D01*
X212058Y109754D01*
X212069Y109763D01*
X212531Y110627D01*
X212532Y110639D01*
X212540Y110650D01*
X212825Y111588D01*
X212823Y111600D01*
X212830Y111612D01*
X212926Y112588D01*
X212922Y112599D01*
X212926Y112612D01*
X212830Y113588D01*
X212824Y113599D01*
X212825Y113612D01*
X212540Y114550D01*
X212532Y114559D01*
X212531Y114573D01*
X212069Y115437D01*
X212059Y115445D01*
X212055Y115458D01*
X211433Y116216D01*
X211422Y116221D01*
X211416Y116233D01*
X210658Y116855D01*
X210646Y116858D01*
X210637Y116869D01*
X209773Y117331D01*
X209761Y117332D01*
X209750Y117340D01*
X208812Y117625D01*
X208800Y117623D01*
X208788Y117630D01*
X207812Y117726D01*
X207801Y117722D01*
X207788Y117726D01*
X206812Y117630D01*
X206801Y117624D01*
X206788Y117625D01*
X205850Y117340D01*
X205841Y117332D01*
X205827Y117331D01*
X204963Y116869D01*
X204955Y116859D01*
X204942Y116855D01*
X204184Y116233D01*
X204179Y116222D01*
X204167Y116216D01*
X203545Y115458D01*
X203542Y115446D01*
X203531Y115437D01*
X203069Y114573D01*
X203068Y114561D01*
X203060Y114550D01*
X202775Y113612D01*
X202777Y113600D01*
X202770Y113588D01*
X202674Y112612D01*
X202678Y112601D01*
X202674Y112588D01*
X202770Y111612D01*
X202776Y111601D01*
X202775Y111588D01*
X203060Y110650D01*
X203068Y110641D01*
X203069Y110627D01*
X203531Y109763D01*
X203541Y109755D01*
X203545Y109742D01*
X204167Y108984D01*
X204178Y108979D01*
X204184Y108967D01*
X204942Y108345D01*
X204954Y108342D01*
X204963Y108331D01*
X205827Y107869D01*
X205839Y107868D01*
X205850Y107860D01*
X206788Y107575D01*
X206800Y107577D01*
X206812Y107570D01*
X207788Y107474D01*
X207799Y107478D01*
X207812Y107474D01*
X208788Y107570D01*
G37*
G36*
X208788Y119570D02*
X208788Y119570D01*
X208799Y119576D01*
X208812Y119575D01*
X209750Y119860D01*
X209759Y119868D01*
X209773Y119869D01*
X210637Y120331D01*
X210645Y120341D01*
X210658Y120345D01*
X211416Y120967D01*
X211421Y120978D01*
X211433Y120984D01*
X212055Y121742D01*
X212058Y121754D01*
X212069Y121763D01*
X212531Y122627D01*
X212532Y122639D01*
X212540Y122650D01*
X212825Y123588D01*
X212823Y123600D01*
X212830Y123612D01*
X212926Y124588D01*
X212922Y124599D01*
X212926Y124612D01*
X212830Y125588D01*
X212824Y125599D01*
X212825Y125612D01*
X212540Y126550D01*
X212532Y126559D01*
X212531Y126573D01*
X212069Y127437D01*
X212059Y127445D01*
X212055Y127458D01*
X211433Y128216D01*
X211422Y128221D01*
X211416Y128233D01*
X210658Y128855D01*
X210646Y128858D01*
X210637Y128869D01*
X209773Y129331D01*
X209761Y129332D01*
X209750Y129340D01*
X208812Y129625D01*
X208800Y129623D01*
X208788Y129630D01*
X207812Y129726D01*
X207801Y129722D01*
X207788Y129726D01*
X206812Y129630D01*
X206801Y129624D01*
X206788Y129625D01*
X205850Y129340D01*
X205841Y129332D01*
X205827Y129331D01*
X204963Y128869D01*
X204955Y128859D01*
X204942Y128855D01*
X204184Y128233D01*
X204179Y128222D01*
X204167Y128216D01*
X203545Y127458D01*
X203542Y127446D01*
X203531Y127437D01*
X203069Y126573D01*
X203068Y126561D01*
X203060Y126550D01*
X202775Y125612D01*
X202777Y125600D01*
X202770Y125588D01*
X202674Y124612D01*
X202678Y124601D01*
X202674Y124588D01*
X202770Y123612D01*
X202776Y123601D01*
X202775Y123588D01*
X203060Y122650D01*
X203068Y122641D01*
X203069Y122627D01*
X203531Y121763D01*
X203541Y121755D01*
X203545Y121742D01*
X204167Y120984D01*
X204178Y120979D01*
X204184Y120967D01*
X204942Y120345D01*
X204954Y120342D01*
X204963Y120331D01*
X205827Y119869D01*
X205839Y119868D01*
X205850Y119860D01*
X206788Y119575D01*
X206800Y119577D01*
X206812Y119570D01*
X207788Y119474D01*
X207799Y119478D01*
X207812Y119474D01*
X208788Y119570D01*
G37*
G36*
X299788Y119570D02*
X299788Y119570D01*
X299799Y119576D01*
X299812Y119575D01*
X300750Y119860D01*
X300759Y119868D01*
X300773Y119869D01*
X301637Y120331D01*
X301645Y120341D01*
X301658Y120345D01*
X302416Y120967D01*
X302421Y120978D01*
X302433Y120984D01*
X303055Y121742D01*
X303058Y121754D01*
X303069Y121763D01*
X303531Y122627D01*
X303532Y122639D01*
X303540Y122650D01*
X303825Y123588D01*
X303823Y123600D01*
X303830Y123612D01*
X303926Y124588D01*
X303922Y124599D01*
X303926Y124612D01*
X303830Y125588D01*
X303824Y125599D01*
X303825Y125612D01*
X303540Y126550D01*
X303532Y126559D01*
X303531Y126573D01*
X303069Y127437D01*
X303059Y127445D01*
X303055Y127458D01*
X302433Y128216D01*
X302422Y128221D01*
X302416Y128233D01*
X301658Y128855D01*
X301646Y128858D01*
X301637Y128869D01*
X300773Y129331D01*
X300761Y129332D01*
X300750Y129340D01*
X299812Y129625D01*
X299800Y129623D01*
X299788Y129630D01*
X298812Y129726D01*
X298801Y129722D01*
X298788Y129726D01*
X297812Y129630D01*
X297801Y129624D01*
X297788Y129625D01*
X296850Y129340D01*
X296841Y129332D01*
X296827Y129331D01*
X295963Y128869D01*
X295955Y128859D01*
X295942Y128855D01*
X295184Y128233D01*
X295179Y128222D01*
X295167Y128216D01*
X294545Y127458D01*
X294542Y127446D01*
X294531Y127437D01*
X294069Y126573D01*
X294068Y126561D01*
X294060Y126550D01*
X293775Y125612D01*
X293777Y125600D01*
X293770Y125588D01*
X293674Y124612D01*
X293678Y124601D01*
X293674Y124588D01*
X293770Y123612D01*
X293776Y123601D01*
X293775Y123588D01*
X294060Y122650D01*
X294068Y122641D01*
X294069Y122627D01*
X294531Y121763D01*
X294541Y121755D01*
X294545Y121742D01*
X295167Y120984D01*
X295178Y120979D01*
X295184Y120967D01*
X295942Y120345D01*
X295954Y120342D01*
X295963Y120331D01*
X296827Y119869D01*
X296839Y119868D01*
X296850Y119860D01*
X297788Y119575D01*
X297800Y119577D01*
X297812Y119570D01*
X298788Y119474D01*
X298799Y119478D01*
X298812Y119474D01*
X299788Y119570D01*
G37*
G36*
X172788Y107570D02*
X172788Y107570D01*
X172799Y107576D01*
X172812Y107575D01*
X173750Y107860D01*
X173759Y107868D01*
X173773Y107869D01*
X174637Y108331D01*
X174645Y108341D01*
X174658Y108345D01*
X175416Y108967D01*
X175421Y108978D01*
X175433Y108984D01*
X176055Y109742D01*
X176058Y109754D01*
X176069Y109763D01*
X176531Y110627D01*
X176532Y110639D01*
X176540Y110650D01*
X176825Y111588D01*
X176823Y111600D01*
X176830Y111612D01*
X176926Y112588D01*
X176922Y112599D01*
X176926Y112612D01*
X176830Y113588D01*
X176824Y113599D01*
X176825Y113612D01*
X176540Y114550D01*
X176532Y114559D01*
X176531Y114573D01*
X176069Y115437D01*
X176059Y115445D01*
X176055Y115458D01*
X175433Y116216D01*
X175422Y116221D01*
X175416Y116233D01*
X174658Y116855D01*
X174646Y116858D01*
X174637Y116869D01*
X173773Y117331D01*
X173761Y117332D01*
X173750Y117340D01*
X172812Y117625D01*
X172800Y117623D01*
X172788Y117630D01*
X171812Y117726D01*
X171801Y117722D01*
X171788Y117726D01*
X170812Y117630D01*
X170801Y117624D01*
X170788Y117625D01*
X169850Y117340D01*
X169841Y117332D01*
X169827Y117331D01*
X168963Y116869D01*
X168955Y116859D01*
X168942Y116855D01*
X168184Y116233D01*
X168179Y116222D01*
X168167Y116216D01*
X167545Y115458D01*
X167542Y115446D01*
X167531Y115437D01*
X167069Y114573D01*
X167068Y114561D01*
X167060Y114550D01*
X166775Y113612D01*
X166777Y113600D01*
X166770Y113588D01*
X166674Y112612D01*
X166678Y112601D01*
X166674Y112588D01*
X166770Y111612D01*
X166776Y111601D01*
X166775Y111588D01*
X167060Y110650D01*
X167068Y110641D01*
X167069Y110627D01*
X167531Y109763D01*
X167541Y109755D01*
X167545Y109742D01*
X168167Y108984D01*
X168178Y108979D01*
X168184Y108967D01*
X168942Y108345D01*
X168954Y108342D01*
X168963Y108331D01*
X169827Y107869D01*
X169839Y107868D01*
X169850Y107860D01*
X170788Y107575D01*
X170800Y107577D01*
X170812Y107570D01*
X171788Y107474D01*
X171799Y107478D01*
X171812Y107474D01*
X172788Y107570D01*
G37*
G36*
X299788Y107570D02*
X299788Y107570D01*
X299799Y107576D01*
X299812Y107575D01*
X300750Y107860D01*
X300759Y107868D01*
X300773Y107869D01*
X301637Y108331D01*
X301645Y108341D01*
X301658Y108345D01*
X302416Y108967D01*
X302421Y108978D01*
X302433Y108984D01*
X303055Y109742D01*
X303058Y109754D01*
X303069Y109763D01*
X303531Y110627D01*
X303532Y110639D01*
X303540Y110650D01*
X303825Y111588D01*
X303823Y111600D01*
X303830Y111612D01*
X303926Y112588D01*
X303922Y112599D01*
X303926Y112612D01*
X303830Y113588D01*
X303824Y113599D01*
X303825Y113612D01*
X303540Y114550D01*
X303532Y114559D01*
X303531Y114573D01*
X303069Y115437D01*
X303059Y115445D01*
X303055Y115458D01*
X302433Y116216D01*
X302422Y116221D01*
X302416Y116233D01*
X301658Y116855D01*
X301646Y116858D01*
X301637Y116869D01*
X300773Y117331D01*
X300761Y117332D01*
X300750Y117340D01*
X299812Y117625D01*
X299800Y117623D01*
X299788Y117630D01*
X298812Y117726D01*
X298801Y117722D01*
X298788Y117726D01*
X297812Y117630D01*
X297801Y117624D01*
X297788Y117625D01*
X296850Y117340D01*
X296841Y117332D01*
X296827Y117331D01*
X295963Y116869D01*
X295955Y116859D01*
X295942Y116855D01*
X295184Y116233D01*
X295179Y116222D01*
X295167Y116216D01*
X294545Y115458D01*
X294542Y115446D01*
X294531Y115437D01*
X294069Y114573D01*
X294068Y114561D01*
X294060Y114550D01*
X293775Y113612D01*
X293777Y113600D01*
X293770Y113588D01*
X293674Y112612D01*
X293678Y112601D01*
X293674Y112588D01*
X293770Y111612D01*
X293776Y111601D01*
X293775Y111588D01*
X294060Y110650D01*
X294068Y110641D01*
X294069Y110627D01*
X294531Y109763D01*
X294541Y109755D01*
X294545Y109742D01*
X295167Y108984D01*
X295178Y108979D01*
X295184Y108967D01*
X295942Y108345D01*
X295954Y108342D01*
X295963Y108331D01*
X296827Y107869D01*
X296839Y107868D01*
X296850Y107860D01*
X297788Y107575D01*
X297800Y107577D01*
X297812Y107570D01*
X298788Y107474D01*
X298799Y107478D01*
X298812Y107474D01*
X299788Y107570D01*
G37*
G36*
X172788Y119570D02*
X172788Y119570D01*
X172799Y119576D01*
X172812Y119575D01*
X173750Y119860D01*
X173759Y119868D01*
X173773Y119869D01*
X174637Y120331D01*
X174645Y120341D01*
X174658Y120345D01*
X175416Y120967D01*
X175421Y120978D01*
X175433Y120984D01*
X176055Y121742D01*
X176058Y121754D01*
X176069Y121763D01*
X176531Y122627D01*
X176532Y122639D01*
X176540Y122650D01*
X176825Y123588D01*
X176823Y123600D01*
X176830Y123612D01*
X176926Y124588D01*
X176922Y124599D01*
X176926Y124612D01*
X176830Y125588D01*
X176824Y125599D01*
X176825Y125612D01*
X176540Y126550D01*
X176532Y126559D01*
X176531Y126573D01*
X176069Y127437D01*
X176059Y127445D01*
X176055Y127458D01*
X175433Y128216D01*
X175422Y128221D01*
X175416Y128233D01*
X174658Y128855D01*
X174646Y128858D01*
X174637Y128869D01*
X173773Y129331D01*
X173761Y129332D01*
X173750Y129340D01*
X172812Y129625D01*
X172800Y129623D01*
X172788Y129630D01*
X171812Y129726D01*
X171801Y129722D01*
X171788Y129726D01*
X170812Y129630D01*
X170801Y129624D01*
X170788Y129625D01*
X169850Y129340D01*
X169841Y129332D01*
X169827Y129331D01*
X168963Y128869D01*
X168955Y128859D01*
X168942Y128855D01*
X168184Y128233D01*
X168179Y128222D01*
X168167Y128216D01*
X167545Y127458D01*
X167542Y127446D01*
X167531Y127437D01*
X167069Y126573D01*
X167068Y126561D01*
X167060Y126550D01*
X166775Y125612D01*
X166777Y125600D01*
X166770Y125588D01*
X166674Y124612D01*
X166678Y124601D01*
X166674Y124588D01*
X166770Y123612D01*
X166776Y123601D01*
X166775Y123588D01*
X167060Y122650D01*
X167068Y122641D01*
X167069Y122627D01*
X167531Y121763D01*
X167541Y121755D01*
X167545Y121742D01*
X168167Y120984D01*
X168178Y120979D01*
X168184Y120967D01*
X168942Y120345D01*
X168954Y120342D01*
X168963Y120331D01*
X169827Y119869D01*
X169839Y119868D01*
X169850Y119860D01*
X170788Y119575D01*
X170800Y119577D01*
X170812Y119570D01*
X171788Y119474D01*
X171799Y119478D01*
X171812Y119474D01*
X172788Y119570D01*
G37*
G36*
X220788Y119570D02*
X220788Y119570D01*
X220799Y119576D01*
X220812Y119575D01*
X221750Y119860D01*
X221759Y119868D01*
X221773Y119869D01*
X222637Y120331D01*
X222645Y120341D01*
X222658Y120345D01*
X223416Y120967D01*
X223421Y120978D01*
X223433Y120984D01*
X224055Y121742D01*
X224058Y121754D01*
X224069Y121763D01*
X224531Y122627D01*
X224532Y122639D01*
X224540Y122650D01*
X224825Y123588D01*
X224823Y123600D01*
X224830Y123612D01*
X224926Y124588D01*
X224922Y124599D01*
X224926Y124612D01*
X224830Y125588D01*
X224824Y125599D01*
X224825Y125612D01*
X224540Y126550D01*
X224532Y126559D01*
X224531Y126573D01*
X224069Y127437D01*
X224059Y127445D01*
X224055Y127458D01*
X223433Y128216D01*
X223422Y128221D01*
X223416Y128233D01*
X222658Y128855D01*
X222646Y128858D01*
X222637Y128869D01*
X221773Y129331D01*
X221761Y129332D01*
X221750Y129340D01*
X220812Y129625D01*
X220800Y129623D01*
X220788Y129630D01*
X219812Y129726D01*
X219801Y129722D01*
X219788Y129726D01*
X218812Y129630D01*
X218801Y129624D01*
X218788Y129625D01*
X217850Y129340D01*
X217841Y129332D01*
X217827Y129331D01*
X216963Y128869D01*
X216955Y128859D01*
X216942Y128855D01*
X216184Y128233D01*
X216179Y128222D01*
X216167Y128216D01*
X215545Y127458D01*
X215542Y127446D01*
X215531Y127437D01*
X215069Y126573D01*
X215068Y126561D01*
X215060Y126550D01*
X214775Y125612D01*
X214777Y125600D01*
X214770Y125588D01*
X214674Y124612D01*
X214678Y124601D01*
X214674Y124588D01*
X214770Y123612D01*
X214776Y123601D01*
X214775Y123588D01*
X215060Y122650D01*
X215068Y122641D01*
X215069Y122627D01*
X215531Y121763D01*
X215541Y121755D01*
X215545Y121742D01*
X216167Y120984D01*
X216178Y120979D01*
X216184Y120967D01*
X216942Y120345D01*
X216954Y120342D01*
X216963Y120331D01*
X217827Y119869D01*
X217839Y119868D01*
X217850Y119860D01*
X218788Y119575D01*
X218800Y119577D01*
X218812Y119570D01*
X219788Y119474D01*
X219799Y119478D01*
X219812Y119474D01*
X220788Y119570D01*
G37*
G36*
X347788Y119570D02*
X347788Y119570D01*
X347799Y119576D01*
X347812Y119575D01*
X348750Y119860D01*
X348759Y119868D01*
X348773Y119869D01*
X349637Y120331D01*
X349645Y120341D01*
X349658Y120345D01*
X350416Y120967D01*
X350421Y120978D01*
X350433Y120984D01*
X351055Y121742D01*
X351058Y121754D01*
X351069Y121763D01*
X351531Y122627D01*
X351532Y122639D01*
X351540Y122650D01*
X351825Y123588D01*
X351823Y123600D01*
X351830Y123612D01*
X351926Y124588D01*
X351922Y124599D01*
X351926Y124612D01*
X351830Y125588D01*
X351824Y125599D01*
X351825Y125612D01*
X351540Y126550D01*
X351532Y126559D01*
X351531Y126573D01*
X351069Y127437D01*
X351059Y127445D01*
X351055Y127458D01*
X350433Y128216D01*
X350422Y128221D01*
X350416Y128233D01*
X349658Y128855D01*
X349646Y128858D01*
X349637Y128869D01*
X348773Y129331D01*
X348761Y129332D01*
X348750Y129340D01*
X347812Y129625D01*
X347800Y129623D01*
X347788Y129630D01*
X346812Y129726D01*
X346801Y129722D01*
X346788Y129726D01*
X345812Y129630D01*
X345801Y129624D01*
X345788Y129625D01*
X344850Y129340D01*
X344841Y129332D01*
X344827Y129331D01*
X343963Y128869D01*
X343955Y128859D01*
X343942Y128855D01*
X343184Y128233D01*
X343179Y128222D01*
X343167Y128216D01*
X342545Y127458D01*
X342542Y127446D01*
X342531Y127437D01*
X342069Y126573D01*
X342068Y126561D01*
X342060Y126550D01*
X341775Y125612D01*
X341777Y125600D01*
X341770Y125588D01*
X341674Y124612D01*
X341678Y124601D01*
X341674Y124588D01*
X341770Y123612D01*
X341776Y123601D01*
X341775Y123588D01*
X342060Y122650D01*
X342068Y122641D01*
X342069Y122627D01*
X342531Y121763D01*
X342541Y121755D01*
X342545Y121742D01*
X343167Y120984D01*
X343178Y120979D01*
X343184Y120967D01*
X343942Y120345D01*
X343954Y120342D01*
X343963Y120331D01*
X344827Y119869D01*
X344839Y119868D01*
X344850Y119860D01*
X345788Y119575D01*
X345800Y119577D01*
X345812Y119570D01*
X346788Y119474D01*
X346799Y119478D01*
X346812Y119474D01*
X347788Y119570D01*
G37*
G36*
X220788Y107570D02*
X220788Y107570D01*
X220799Y107576D01*
X220812Y107575D01*
X221750Y107860D01*
X221759Y107868D01*
X221773Y107869D01*
X222637Y108331D01*
X222645Y108341D01*
X222658Y108345D01*
X223416Y108967D01*
X223421Y108978D01*
X223433Y108984D01*
X224055Y109742D01*
X224058Y109754D01*
X224069Y109763D01*
X224531Y110627D01*
X224532Y110639D01*
X224540Y110650D01*
X224825Y111588D01*
X224823Y111600D01*
X224830Y111612D01*
X224926Y112588D01*
X224922Y112599D01*
X224926Y112612D01*
X224830Y113588D01*
X224824Y113599D01*
X224825Y113612D01*
X224540Y114550D01*
X224532Y114559D01*
X224531Y114573D01*
X224069Y115437D01*
X224059Y115445D01*
X224055Y115458D01*
X223433Y116216D01*
X223422Y116221D01*
X223416Y116233D01*
X222658Y116855D01*
X222646Y116858D01*
X222637Y116869D01*
X221773Y117331D01*
X221761Y117332D01*
X221750Y117340D01*
X220812Y117625D01*
X220800Y117623D01*
X220788Y117630D01*
X219812Y117726D01*
X219801Y117722D01*
X219788Y117726D01*
X218812Y117630D01*
X218801Y117624D01*
X218788Y117625D01*
X217850Y117340D01*
X217841Y117332D01*
X217827Y117331D01*
X216963Y116869D01*
X216955Y116859D01*
X216942Y116855D01*
X216184Y116233D01*
X216179Y116222D01*
X216167Y116216D01*
X215545Y115458D01*
X215542Y115446D01*
X215531Y115437D01*
X215069Y114573D01*
X215068Y114561D01*
X215060Y114550D01*
X214775Y113612D01*
X214777Y113600D01*
X214770Y113588D01*
X214674Y112612D01*
X214678Y112601D01*
X214674Y112588D01*
X214770Y111612D01*
X214776Y111601D01*
X214775Y111588D01*
X215060Y110650D01*
X215068Y110641D01*
X215069Y110627D01*
X215531Y109763D01*
X215541Y109755D01*
X215545Y109742D01*
X216167Y108984D01*
X216178Y108979D01*
X216184Y108967D01*
X216942Y108345D01*
X216954Y108342D01*
X216963Y108331D01*
X217827Y107869D01*
X217839Y107868D01*
X217850Y107860D01*
X218788Y107575D01*
X218800Y107577D01*
X218812Y107570D01*
X219788Y107474D01*
X219799Y107478D01*
X219812Y107474D01*
X220788Y107570D01*
G37*
G36*
X347788Y107570D02*
X347788Y107570D01*
X347799Y107576D01*
X347812Y107575D01*
X348750Y107860D01*
X348759Y107868D01*
X348773Y107869D01*
X349637Y108331D01*
X349645Y108341D01*
X349658Y108345D01*
X350416Y108967D01*
X350421Y108978D01*
X350433Y108984D01*
X351055Y109742D01*
X351058Y109754D01*
X351069Y109763D01*
X351531Y110627D01*
X351532Y110639D01*
X351540Y110650D01*
X351825Y111588D01*
X351823Y111600D01*
X351830Y111612D01*
X351926Y112588D01*
X351922Y112599D01*
X351926Y112612D01*
X351830Y113588D01*
X351824Y113599D01*
X351825Y113612D01*
X351540Y114550D01*
X351532Y114559D01*
X351531Y114573D01*
X351069Y115437D01*
X351059Y115445D01*
X351055Y115458D01*
X350433Y116216D01*
X350422Y116221D01*
X350416Y116233D01*
X349658Y116855D01*
X349646Y116858D01*
X349637Y116869D01*
X348773Y117331D01*
X348761Y117332D01*
X348750Y117340D01*
X347812Y117625D01*
X347800Y117623D01*
X347788Y117630D01*
X346812Y117726D01*
X346801Y117722D01*
X346788Y117726D01*
X345812Y117630D01*
X345801Y117624D01*
X345788Y117625D01*
X344850Y117340D01*
X344841Y117332D01*
X344827Y117331D01*
X343963Y116869D01*
X343955Y116859D01*
X343942Y116855D01*
X343184Y116233D01*
X343179Y116222D01*
X343167Y116216D01*
X342545Y115458D01*
X342542Y115446D01*
X342531Y115437D01*
X342069Y114573D01*
X342068Y114561D01*
X342060Y114550D01*
X341775Y113612D01*
X341777Y113600D01*
X341770Y113588D01*
X341674Y112612D01*
X341678Y112601D01*
X341674Y112588D01*
X341770Y111612D01*
X341776Y111601D01*
X341775Y111588D01*
X342060Y110650D01*
X342068Y110641D01*
X342069Y110627D01*
X342531Y109763D01*
X342541Y109755D01*
X342545Y109742D01*
X343167Y108984D01*
X343178Y108979D01*
X343184Y108967D01*
X343942Y108345D01*
X343954Y108342D01*
X343963Y108331D01*
X344827Y107869D01*
X344839Y107868D01*
X344850Y107860D01*
X345788Y107575D01*
X345800Y107577D01*
X345812Y107570D01*
X346788Y107474D01*
X346799Y107478D01*
X346812Y107474D01*
X347788Y107570D01*
G37*
G36*
X136788Y167570D02*
X136788Y167570D01*
X136799Y167576D01*
X136812Y167575D01*
X137750Y167860D01*
X137759Y167868D01*
X137773Y167869D01*
X138637Y168331D01*
X138645Y168341D01*
X138658Y168345D01*
X139416Y168967D01*
X139421Y168978D01*
X139433Y168984D01*
X140055Y169742D01*
X140058Y169754D01*
X140069Y169763D01*
X140531Y170627D01*
X140532Y170639D01*
X140540Y170650D01*
X140825Y171588D01*
X140823Y171600D01*
X140830Y171612D01*
X140926Y172588D01*
X140922Y172599D01*
X140926Y172612D01*
X140830Y173588D01*
X140824Y173599D01*
X140825Y173612D01*
X140540Y174550D01*
X140532Y174559D01*
X140531Y174573D01*
X140069Y175437D01*
X140059Y175445D01*
X140055Y175458D01*
X139433Y176216D01*
X139422Y176221D01*
X139416Y176233D01*
X138658Y176855D01*
X138646Y176858D01*
X138637Y176869D01*
X137773Y177331D01*
X137761Y177332D01*
X137750Y177340D01*
X136812Y177625D01*
X136800Y177623D01*
X136788Y177630D01*
X135812Y177726D01*
X135801Y177722D01*
X135788Y177726D01*
X134812Y177630D01*
X134801Y177624D01*
X134788Y177625D01*
X133850Y177340D01*
X133841Y177332D01*
X133827Y177331D01*
X132963Y176869D01*
X132955Y176859D01*
X132942Y176855D01*
X132184Y176233D01*
X132179Y176222D01*
X132167Y176216D01*
X131545Y175458D01*
X131542Y175446D01*
X131531Y175437D01*
X131069Y174573D01*
X131068Y174561D01*
X131060Y174550D01*
X130775Y173612D01*
X130777Y173600D01*
X130770Y173588D01*
X130674Y172612D01*
X130678Y172601D01*
X130674Y172588D01*
X130770Y171612D01*
X130776Y171601D01*
X130775Y171588D01*
X131060Y170650D01*
X131068Y170641D01*
X131069Y170627D01*
X131531Y169763D01*
X131541Y169755D01*
X131545Y169742D01*
X132167Y168984D01*
X132178Y168979D01*
X132184Y168967D01*
X132942Y168345D01*
X132954Y168342D01*
X132963Y168331D01*
X133827Y167869D01*
X133839Y167868D01*
X133850Y167860D01*
X134788Y167575D01*
X134800Y167577D01*
X134812Y167570D01*
X135788Y167474D01*
X135799Y167478D01*
X135812Y167474D01*
X136788Y167570D01*
G37*
G36*
X263788Y167570D02*
X263788Y167570D01*
X263799Y167576D01*
X263812Y167575D01*
X264750Y167860D01*
X264759Y167868D01*
X264773Y167869D01*
X265637Y168331D01*
X265645Y168341D01*
X265658Y168345D01*
X266416Y168967D01*
X266421Y168978D01*
X266433Y168984D01*
X267055Y169742D01*
X267058Y169754D01*
X267069Y169763D01*
X267531Y170627D01*
X267532Y170639D01*
X267540Y170650D01*
X267825Y171588D01*
X267823Y171600D01*
X267830Y171612D01*
X267926Y172588D01*
X267922Y172599D01*
X267926Y172612D01*
X267830Y173588D01*
X267824Y173599D01*
X267825Y173612D01*
X267540Y174550D01*
X267532Y174559D01*
X267531Y174573D01*
X267069Y175437D01*
X267059Y175445D01*
X267055Y175458D01*
X266433Y176216D01*
X266422Y176221D01*
X266416Y176233D01*
X265658Y176855D01*
X265646Y176858D01*
X265637Y176869D01*
X264773Y177331D01*
X264761Y177332D01*
X264750Y177340D01*
X263812Y177625D01*
X263800Y177623D01*
X263788Y177630D01*
X262812Y177726D01*
X262801Y177722D01*
X262788Y177726D01*
X261812Y177630D01*
X261801Y177624D01*
X261788Y177625D01*
X260850Y177340D01*
X260841Y177332D01*
X260827Y177331D01*
X259963Y176869D01*
X259955Y176859D01*
X259942Y176855D01*
X259184Y176233D01*
X259179Y176222D01*
X259167Y176216D01*
X258545Y175458D01*
X258542Y175446D01*
X258531Y175437D01*
X258069Y174573D01*
X258068Y174561D01*
X258060Y174550D01*
X257775Y173612D01*
X257777Y173600D01*
X257770Y173588D01*
X257674Y172612D01*
X257678Y172601D01*
X257674Y172588D01*
X257770Y171612D01*
X257776Y171601D01*
X257775Y171588D01*
X258060Y170650D01*
X258068Y170641D01*
X258069Y170627D01*
X258531Y169763D01*
X258541Y169755D01*
X258545Y169742D01*
X259167Y168984D01*
X259178Y168979D01*
X259184Y168967D01*
X259942Y168345D01*
X259954Y168342D01*
X259963Y168331D01*
X260827Y167869D01*
X260839Y167868D01*
X260850Y167860D01*
X261788Y167575D01*
X261800Y167577D01*
X261812Y167570D01*
X262788Y167474D01*
X262799Y167478D01*
X262812Y167474D01*
X263788Y167570D01*
G37*
G36*
X311788Y119570D02*
X311788Y119570D01*
X311799Y119576D01*
X311812Y119575D01*
X312750Y119860D01*
X312759Y119868D01*
X312773Y119869D01*
X313637Y120331D01*
X313645Y120341D01*
X313658Y120345D01*
X314416Y120967D01*
X314421Y120978D01*
X314433Y120984D01*
X315055Y121742D01*
X315058Y121754D01*
X315069Y121763D01*
X315531Y122627D01*
X315532Y122639D01*
X315540Y122650D01*
X315825Y123588D01*
X315823Y123600D01*
X315830Y123612D01*
X315926Y124588D01*
X315922Y124599D01*
X315926Y124612D01*
X315830Y125588D01*
X315824Y125599D01*
X315825Y125612D01*
X315540Y126550D01*
X315532Y126559D01*
X315531Y126573D01*
X315069Y127437D01*
X315059Y127445D01*
X315055Y127458D01*
X314433Y128216D01*
X314422Y128221D01*
X314416Y128233D01*
X313658Y128855D01*
X313646Y128858D01*
X313637Y128869D01*
X312773Y129331D01*
X312761Y129332D01*
X312750Y129340D01*
X311812Y129625D01*
X311800Y129623D01*
X311788Y129630D01*
X310812Y129726D01*
X310801Y129722D01*
X310788Y129726D01*
X309812Y129630D01*
X309801Y129624D01*
X309788Y129625D01*
X308850Y129340D01*
X308841Y129332D01*
X308827Y129331D01*
X307963Y128869D01*
X307955Y128859D01*
X307942Y128855D01*
X307184Y128233D01*
X307179Y128222D01*
X307167Y128216D01*
X306545Y127458D01*
X306542Y127446D01*
X306531Y127437D01*
X306069Y126573D01*
X306068Y126561D01*
X306060Y126550D01*
X305775Y125612D01*
X305777Y125600D01*
X305770Y125588D01*
X305674Y124612D01*
X305678Y124601D01*
X305674Y124588D01*
X305770Y123612D01*
X305776Y123601D01*
X305775Y123588D01*
X306060Y122650D01*
X306068Y122641D01*
X306069Y122627D01*
X306531Y121763D01*
X306541Y121755D01*
X306545Y121742D01*
X307167Y120984D01*
X307178Y120979D01*
X307184Y120967D01*
X307942Y120345D01*
X307954Y120342D01*
X307963Y120331D01*
X308827Y119869D01*
X308839Y119868D01*
X308850Y119860D01*
X309788Y119575D01*
X309800Y119577D01*
X309812Y119570D01*
X310788Y119474D01*
X310799Y119478D01*
X310812Y119474D01*
X311788Y119570D01*
G37*
G36*
X184788Y119570D02*
X184788Y119570D01*
X184799Y119576D01*
X184812Y119575D01*
X185750Y119860D01*
X185759Y119868D01*
X185773Y119869D01*
X186637Y120331D01*
X186645Y120341D01*
X186658Y120345D01*
X187416Y120967D01*
X187421Y120978D01*
X187433Y120984D01*
X188055Y121742D01*
X188058Y121754D01*
X188069Y121763D01*
X188531Y122627D01*
X188532Y122639D01*
X188540Y122650D01*
X188825Y123588D01*
X188823Y123600D01*
X188830Y123612D01*
X188926Y124588D01*
X188922Y124599D01*
X188926Y124612D01*
X188830Y125588D01*
X188824Y125599D01*
X188825Y125612D01*
X188540Y126550D01*
X188532Y126559D01*
X188531Y126573D01*
X188069Y127437D01*
X188059Y127445D01*
X188055Y127458D01*
X187433Y128216D01*
X187422Y128221D01*
X187416Y128233D01*
X186658Y128855D01*
X186646Y128858D01*
X186637Y128869D01*
X185773Y129331D01*
X185761Y129332D01*
X185750Y129340D01*
X184812Y129625D01*
X184800Y129623D01*
X184788Y129630D01*
X183812Y129726D01*
X183801Y129722D01*
X183788Y129726D01*
X182812Y129630D01*
X182801Y129624D01*
X182788Y129625D01*
X181850Y129340D01*
X181841Y129332D01*
X181827Y129331D01*
X180963Y128869D01*
X180955Y128859D01*
X180942Y128855D01*
X180184Y128233D01*
X180179Y128222D01*
X180167Y128216D01*
X179545Y127458D01*
X179542Y127446D01*
X179531Y127437D01*
X179069Y126573D01*
X179068Y126561D01*
X179060Y126550D01*
X178775Y125612D01*
X178777Y125600D01*
X178770Y125588D01*
X178674Y124612D01*
X178678Y124601D01*
X178674Y124588D01*
X178770Y123612D01*
X178776Y123601D01*
X178775Y123588D01*
X179060Y122650D01*
X179068Y122641D01*
X179069Y122627D01*
X179531Y121763D01*
X179541Y121755D01*
X179545Y121742D01*
X180167Y120984D01*
X180178Y120979D01*
X180184Y120967D01*
X180942Y120345D01*
X180954Y120342D01*
X180963Y120331D01*
X181827Y119869D01*
X181839Y119868D01*
X181850Y119860D01*
X182788Y119575D01*
X182800Y119577D01*
X182812Y119570D01*
X183788Y119474D01*
X183799Y119478D01*
X183812Y119474D01*
X184788Y119570D01*
G37*
G36*
X311788Y107570D02*
X311788Y107570D01*
X311799Y107576D01*
X311812Y107575D01*
X312750Y107860D01*
X312759Y107868D01*
X312773Y107869D01*
X313637Y108331D01*
X313645Y108341D01*
X313658Y108345D01*
X314416Y108967D01*
X314421Y108978D01*
X314433Y108984D01*
X315055Y109742D01*
X315058Y109754D01*
X315069Y109763D01*
X315531Y110627D01*
X315532Y110639D01*
X315540Y110650D01*
X315825Y111588D01*
X315823Y111600D01*
X315830Y111612D01*
X315926Y112588D01*
X315922Y112599D01*
X315926Y112612D01*
X315830Y113588D01*
X315824Y113599D01*
X315825Y113612D01*
X315540Y114550D01*
X315532Y114559D01*
X315531Y114573D01*
X315069Y115437D01*
X315059Y115445D01*
X315055Y115458D01*
X314433Y116216D01*
X314422Y116221D01*
X314416Y116233D01*
X313658Y116855D01*
X313646Y116858D01*
X313637Y116869D01*
X312773Y117331D01*
X312761Y117332D01*
X312750Y117340D01*
X311812Y117625D01*
X311800Y117623D01*
X311788Y117630D01*
X310812Y117726D01*
X310801Y117722D01*
X310788Y117726D01*
X309812Y117630D01*
X309801Y117624D01*
X309788Y117625D01*
X308850Y117340D01*
X308841Y117332D01*
X308827Y117331D01*
X307963Y116869D01*
X307955Y116859D01*
X307942Y116855D01*
X307184Y116233D01*
X307179Y116222D01*
X307167Y116216D01*
X306545Y115458D01*
X306542Y115446D01*
X306531Y115437D01*
X306069Y114573D01*
X306068Y114561D01*
X306060Y114550D01*
X305775Y113612D01*
X305777Y113600D01*
X305770Y113588D01*
X305674Y112612D01*
X305678Y112601D01*
X305674Y112588D01*
X305770Y111612D01*
X305776Y111601D01*
X305775Y111588D01*
X306060Y110650D01*
X306068Y110641D01*
X306069Y110627D01*
X306531Y109763D01*
X306541Y109755D01*
X306545Y109742D01*
X307167Y108984D01*
X307178Y108979D01*
X307184Y108967D01*
X307942Y108345D01*
X307954Y108342D01*
X307963Y108331D01*
X308827Y107869D01*
X308839Y107868D01*
X308850Y107860D01*
X309788Y107575D01*
X309800Y107577D01*
X309812Y107570D01*
X310788Y107474D01*
X310799Y107478D01*
X310812Y107474D01*
X311788Y107570D01*
G37*
G36*
X184788Y107570D02*
X184788Y107570D01*
X184799Y107576D01*
X184812Y107575D01*
X185750Y107860D01*
X185759Y107868D01*
X185773Y107869D01*
X186637Y108331D01*
X186645Y108341D01*
X186658Y108345D01*
X187416Y108967D01*
X187421Y108978D01*
X187433Y108984D01*
X188055Y109742D01*
X188058Y109754D01*
X188069Y109763D01*
X188531Y110627D01*
X188532Y110639D01*
X188540Y110650D01*
X188825Y111588D01*
X188823Y111600D01*
X188830Y111612D01*
X188926Y112588D01*
X188922Y112599D01*
X188926Y112612D01*
X188830Y113588D01*
X188824Y113599D01*
X188825Y113612D01*
X188540Y114550D01*
X188532Y114559D01*
X188531Y114573D01*
X188069Y115437D01*
X188059Y115445D01*
X188055Y115458D01*
X187433Y116216D01*
X187422Y116221D01*
X187416Y116233D01*
X186658Y116855D01*
X186646Y116858D01*
X186637Y116869D01*
X185773Y117331D01*
X185761Y117332D01*
X185750Y117340D01*
X184812Y117625D01*
X184800Y117623D01*
X184788Y117630D01*
X183812Y117726D01*
X183801Y117722D01*
X183788Y117726D01*
X182812Y117630D01*
X182801Y117624D01*
X182788Y117625D01*
X181850Y117340D01*
X181841Y117332D01*
X181827Y117331D01*
X180963Y116869D01*
X180955Y116859D01*
X180942Y116855D01*
X180184Y116233D01*
X180179Y116222D01*
X180167Y116216D01*
X179545Y115458D01*
X179542Y115446D01*
X179531Y115437D01*
X179069Y114573D01*
X179068Y114561D01*
X179060Y114550D01*
X178775Y113612D01*
X178777Y113600D01*
X178770Y113588D01*
X178674Y112612D01*
X178678Y112601D01*
X178674Y112588D01*
X178770Y111612D01*
X178776Y111601D01*
X178775Y111588D01*
X179060Y110650D01*
X179068Y110641D01*
X179069Y110627D01*
X179531Y109763D01*
X179541Y109755D01*
X179545Y109742D01*
X180167Y108984D01*
X180178Y108979D01*
X180184Y108967D01*
X180942Y108345D01*
X180954Y108342D01*
X180963Y108331D01*
X181827Y107869D01*
X181839Y107868D01*
X181850Y107860D01*
X182788Y107575D01*
X182800Y107577D01*
X182812Y107570D01*
X183788Y107474D01*
X183799Y107478D01*
X183812Y107474D01*
X184788Y107570D01*
G37*
G36*
X148788Y167570D02*
X148788Y167570D01*
X148799Y167576D01*
X148812Y167575D01*
X149750Y167860D01*
X149759Y167868D01*
X149773Y167869D01*
X150637Y168331D01*
X150645Y168341D01*
X150658Y168345D01*
X151416Y168967D01*
X151421Y168978D01*
X151433Y168984D01*
X152055Y169742D01*
X152058Y169754D01*
X152069Y169763D01*
X152531Y170627D01*
X152532Y170639D01*
X152540Y170650D01*
X152825Y171588D01*
X152823Y171600D01*
X152830Y171612D01*
X152926Y172588D01*
X152922Y172599D01*
X152926Y172612D01*
X152830Y173588D01*
X152824Y173599D01*
X152825Y173612D01*
X152540Y174550D01*
X152532Y174559D01*
X152531Y174573D01*
X152069Y175437D01*
X152059Y175445D01*
X152055Y175458D01*
X151433Y176216D01*
X151422Y176221D01*
X151416Y176233D01*
X150658Y176855D01*
X150646Y176858D01*
X150637Y176869D01*
X149773Y177331D01*
X149761Y177332D01*
X149750Y177340D01*
X148812Y177625D01*
X148800Y177623D01*
X148788Y177630D01*
X147812Y177726D01*
X147801Y177722D01*
X147788Y177726D01*
X146812Y177630D01*
X146801Y177624D01*
X146788Y177625D01*
X145850Y177340D01*
X145841Y177332D01*
X145827Y177331D01*
X144963Y176869D01*
X144955Y176859D01*
X144942Y176855D01*
X144184Y176233D01*
X144179Y176222D01*
X144167Y176216D01*
X143545Y175458D01*
X143542Y175446D01*
X143531Y175437D01*
X143069Y174573D01*
X143068Y174561D01*
X143060Y174550D01*
X142775Y173612D01*
X142777Y173600D01*
X142770Y173588D01*
X142674Y172612D01*
X142678Y172601D01*
X142674Y172588D01*
X142770Y171612D01*
X142776Y171601D01*
X142775Y171588D01*
X143060Y170650D01*
X143068Y170641D01*
X143069Y170627D01*
X143531Y169763D01*
X143541Y169755D01*
X143545Y169742D01*
X144167Y168984D01*
X144178Y168979D01*
X144184Y168967D01*
X144942Y168345D01*
X144954Y168342D01*
X144963Y168331D01*
X145827Y167869D01*
X145839Y167868D01*
X145850Y167860D01*
X146788Y167575D01*
X146800Y167577D01*
X146812Y167570D01*
X147788Y167474D01*
X147799Y167478D01*
X147812Y167474D01*
X148788Y167570D01*
G37*
G36*
X275788Y155570D02*
X275788Y155570D01*
X275799Y155576D01*
X275812Y155575D01*
X276750Y155860D01*
X276759Y155868D01*
X276773Y155869D01*
X277637Y156331D01*
X277645Y156341D01*
X277658Y156345D01*
X278416Y156967D01*
X278421Y156978D01*
X278433Y156984D01*
X279055Y157742D01*
X279058Y157754D01*
X279069Y157763D01*
X279531Y158627D01*
X279532Y158639D01*
X279540Y158650D01*
X279825Y159588D01*
X279823Y159600D01*
X279830Y159612D01*
X279926Y160588D01*
X279922Y160599D01*
X279926Y160612D01*
X279830Y161588D01*
X279824Y161599D01*
X279825Y161612D01*
X279540Y162550D01*
X279532Y162559D01*
X279531Y162573D01*
X279069Y163437D01*
X279059Y163445D01*
X279055Y163458D01*
X278433Y164216D01*
X278422Y164221D01*
X278416Y164233D01*
X277658Y164855D01*
X277646Y164858D01*
X277637Y164869D01*
X276773Y165331D01*
X276761Y165332D01*
X276750Y165340D01*
X275812Y165625D01*
X275800Y165623D01*
X275788Y165630D01*
X274812Y165726D01*
X274801Y165722D01*
X274788Y165726D01*
X273812Y165630D01*
X273801Y165624D01*
X273788Y165625D01*
X272850Y165340D01*
X272841Y165332D01*
X272827Y165331D01*
X271963Y164869D01*
X271955Y164859D01*
X271942Y164855D01*
X271184Y164233D01*
X271179Y164222D01*
X271167Y164216D01*
X270545Y163458D01*
X270542Y163446D01*
X270531Y163437D01*
X270069Y162573D01*
X270068Y162561D01*
X270060Y162550D01*
X269775Y161612D01*
X269777Y161600D01*
X269770Y161588D01*
X269674Y160612D01*
X269678Y160601D01*
X269674Y160588D01*
X269770Y159612D01*
X269776Y159601D01*
X269775Y159588D01*
X270060Y158650D01*
X270068Y158641D01*
X270069Y158627D01*
X270531Y157763D01*
X270541Y157755D01*
X270545Y157742D01*
X271167Y156984D01*
X271178Y156979D01*
X271184Y156967D01*
X271942Y156345D01*
X271954Y156342D01*
X271963Y156331D01*
X272827Y155869D01*
X272839Y155868D01*
X272850Y155860D01*
X273788Y155575D01*
X273800Y155577D01*
X273812Y155570D01*
X274788Y155474D01*
X274799Y155478D01*
X274812Y155474D01*
X275788Y155570D01*
G37*
G36*
X275788Y167570D02*
X275788Y167570D01*
X275799Y167576D01*
X275812Y167575D01*
X276750Y167860D01*
X276759Y167868D01*
X276773Y167869D01*
X277637Y168331D01*
X277645Y168341D01*
X277658Y168345D01*
X278416Y168967D01*
X278421Y168978D01*
X278433Y168984D01*
X279055Y169742D01*
X279058Y169754D01*
X279069Y169763D01*
X279531Y170627D01*
X279532Y170639D01*
X279540Y170650D01*
X279825Y171588D01*
X279823Y171600D01*
X279830Y171612D01*
X279926Y172588D01*
X279922Y172599D01*
X279926Y172612D01*
X279830Y173588D01*
X279824Y173599D01*
X279825Y173612D01*
X279540Y174550D01*
X279532Y174559D01*
X279531Y174573D01*
X279069Y175437D01*
X279059Y175445D01*
X279055Y175458D01*
X278433Y176216D01*
X278422Y176221D01*
X278416Y176233D01*
X277658Y176855D01*
X277646Y176858D01*
X277637Y176869D01*
X276773Y177331D01*
X276761Y177332D01*
X276750Y177340D01*
X275812Y177625D01*
X275800Y177623D01*
X275788Y177630D01*
X274812Y177726D01*
X274801Y177722D01*
X274788Y177726D01*
X273812Y177630D01*
X273801Y177624D01*
X273788Y177625D01*
X272850Y177340D01*
X272841Y177332D01*
X272827Y177331D01*
X271963Y176869D01*
X271955Y176859D01*
X271942Y176855D01*
X271184Y176233D01*
X271179Y176222D01*
X271167Y176216D01*
X270545Y175458D01*
X270542Y175446D01*
X270531Y175437D01*
X270069Y174573D01*
X270068Y174561D01*
X270060Y174550D01*
X269775Y173612D01*
X269777Y173600D01*
X269770Y173588D01*
X269674Y172612D01*
X269678Y172601D01*
X269674Y172588D01*
X269770Y171612D01*
X269776Y171601D01*
X269775Y171588D01*
X270060Y170650D01*
X270068Y170641D01*
X270069Y170627D01*
X270531Y169763D01*
X270541Y169755D01*
X270545Y169742D01*
X271167Y168984D01*
X271178Y168979D01*
X271184Y168967D01*
X271942Y168345D01*
X271954Y168342D01*
X271963Y168331D01*
X272827Y167869D01*
X272839Y167868D01*
X272850Y167860D01*
X273788Y167575D01*
X273800Y167577D01*
X273812Y167570D01*
X274788Y167474D01*
X274799Y167478D01*
X274812Y167474D01*
X275788Y167570D01*
G37*
G36*
X148788Y155570D02*
X148788Y155570D01*
X148799Y155576D01*
X148812Y155575D01*
X149750Y155860D01*
X149759Y155868D01*
X149773Y155869D01*
X150637Y156331D01*
X150645Y156341D01*
X150658Y156345D01*
X151416Y156967D01*
X151421Y156978D01*
X151433Y156984D01*
X152055Y157742D01*
X152058Y157754D01*
X152069Y157763D01*
X152531Y158627D01*
X152532Y158639D01*
X152540Y158650D01*
X152825Y159588D01*
X152823Y159600D01*
X152830Y159612D01*
X152926Y160588D01*
X152922Y160599D01*
X152926Y160612D01*
X152830Y161588D01*
X152824Y161599D01*
X152825Y161612D01*
X152540Y162550D01*
X152532Y162559D01*
X152531Y162573D01*
X152069Y163437D01*
X152059Y163445D01*
X152055Y163458D01*
X151433Y164216D01*
X151422Y164221D01*
X151416Y164233D01*
X150658Y164855D01*
X150646Y164858D01*
X150637Y164869D01*
X149773Y165331D01*
X149761Y165332D01*
X149750Y165340D01*
X148812Y165625D01*
X148800Y165623D01*
X148788Y165630D01*
X147812Y165726D01*
X147801Y165722D01*
X147788Y165726D01*
X146812Y165630D01*
X146801Y165624D01*
X146788Y165625D01*
X145850Y165340D01*
X145841Y165332D01*
X145827Y165331D01*
X144963Y164869D01*
X144955Y164859D01*
X144942Y164855D01*
X144184Y164233D01*
X144179Y164222D01*
X144167Y164216D01*
X143545Y163458D01*
X143542Y163446D01*
X143531Y163437D01*
X143069Y162573D01*
X143068Y162561D01*
X143060Y162550D01*
X142775Y161612D01*
X142777Y161600D01*
X142770Y161588D01*
X142674Y160612D01*
X142678Y160601D01*
X142674Y160588D01*
X142770Y159612D01*
X142776Y159601D01*
X142775Y159588D01*
X143060Y158650D01*
X143068Y158641D01*
X143069Y158627D01*
X143531Y157763D01*
X143541Y157755D01*
X143545Y157742D01*
X144167Y156984D01*
X144178Y156979D01*
X144184Y156967D01*
X144942Y156345D01*
X144954Y156342D01*
X144963Y156331D01*
X145827Y155869D01*
X145839Y155868D01*
X145850Y155860D01*
X146788Y155575D01*
X146800Y155577D01*
X146812Y155570D01*
X147788Y155474D01*
X147799Y155478D01*
X147812Y155474D01*
X148788Y155570D01*
G37*
G36*
X148788Y143570D02*
X148788Y143570D01*
X148799Y143576D01*
X148812Y143575D01*
X149750Y143860D01*
X149759Y143868D01*
X149773Y143869D01*
X150637Y144331D01*
X150645Y144341D01*
X150658Y144345D01*
X151416Y144967D01*
X151421Y144978D01*
X151433Y144984D01*
X152055Y145742D01*
X152058Y145754D01*
X152069Y145763D01*
X152531Y146627D01*
X152532Y146639D01*
X152540Y146650D01*
X152825Y147588D01*
X152823Y147600D01*
X152830Y147612D01*
X152926Y148588D01*
X152922Y148599D01*
X152926Y148612D01*
X152830Y149588D01*
X152824Y149599D01*
X152825Y149612D01*
X152540Y150550D01*
X152532Y150559D01*
X152531Y150573D01*
X152069Y151437D01*
X152059Y151445D01*
X152055Y151458D01*
X151433Y152216D01*
X151422Y152221D01*
X151416Y152233D01*
X150658Y152855D01*
X150646Y152858D01*
X150637Y152869D01*
X149773Y153331D01*
X149761Y153332D01*
X149750Y153340D01*
X148812Y153625D01*
X148800Y153623D01*
X148788Y153630D01*
X147812Y153726D01*
X147801Y153722D01*
X147788Y153726D01*
X146812Y153630D01*
X146801Y153624D01*
X146788Y153625D01*
X145850Y153340D01*
X145841Y153332D01*
X145827Y153331D01*
X144963Y152869D01*
X144955Y152859D01*
X144942Y152855D01*
X144184Y152233D01*
X144179Y152222D01*
X144167Y152216D01*
X143545Y151458D01*
X143542Y151446D01*
X143531Y151437D01*
X143069Y150573D01*
X143068Y150561D01*
X143060Y150550D01*
X142775Y149612D01*
X142777Y149600D01*
X142770Y149588D01*
X142674Y148612D01*
X142678Y148601D01*
X142674Y148588D01*
X142770Y147612D01*
X142776Y147601D01*
X142775Y147588D01*
X143060Y146650D01*
X143068Y146641D01*
X143069Y146627D01*
X143531Y145763D01*
X143541Y145755D01*
X143545Y145742D01*
X144167Y144984D01*
X144178Y144979D01*
X144184Y144967D01*
X144942Y144345D01*
X144954Y144342D01*
X144963Y144331D01*
X145827Y143869D01*
X145839Y143868D01*
X145850Y143860D01*
X146788Y143575D01*
X146800Y143577D01*
X146812Y143570D01*
X147788Y143474D01*
X147799Y143478D01*
X147812Y143474D01*
X148788Y143570D01*
G37*
G36*
X275788Y131570D02*
X275788Y131570D01*
X275799Y131576D01*
X275812Y131575D01*
X276750Y131860D01*
X276759Y131868D01*
X276773Y131869D01*
X277637Y132331D01*
X277645Y132341D01*
X277658Y132345D01*
X278416Y132967D01*
X278421Y132978D01*
X278433Y132984D01*
X279055Y133742D01*
X279058Y133754D01*
X279069Y133763D01*
X279531Y134627D01*
X279532Y134639D01*
X279540Y134650D01*
X279825Y135588D01*
X279823Y135600D01*
X279830Y135612D01*
X279926Y136588D01*
X279922Y136599D01*
X279926Y136612D01*
X279830Y137588D01*
X279824Y137599D01*
X279825Y137612D01*
X279540Y138550D01*
X279532Y138559D01*
X279531Y138573D01*
X279069Y139437D01*
X279059Y139445D01*
X279055Y139458D01*
X278433Y140216D01*
X278422Y140221D01*
X278416Y140233D01*
X277658Y140855D01*
X277646Y140858D01*
X277637Y140869D01*
X276773Y141331D01*
X276761Y141332D01*
X276750Y141340D01*
X275812Y141625D01*
X275800Y141623D01*
X275788Y141630D01*
X274812Y141726D01*
X274801Y141722D01*
X274788Y141726D01*
X273812Y141630D01*
X273801Y141624D01*
X273788Y141625D01*
X272850Y141340D01*
X272841Y141332D01*
X272827Y141331D01*
X271963Y140869D01*
X271955Y140859D01*
X271942Y140855D01*
X271184Y140233D01*
X271179Y140222D01*
X271167Y140216D01*
X270545Y139458D01*
X270542Y139446D01*
X270531Y139437D01*
X270069Y138573D01*
X270068Y138561D01*
X270060Y138550D01*
X269775Y137612D01*
X269777Y137600D01*
X269770Y137588D01*
X269674Y136612D01*
X269678Y136601D01*
X269674Y136588D01*
X269770Y135612D01*
X269776Y135601D01*
X269775Y135588D01*
X270060Y134650D01*
X270068Y134641D01*
X270069Y134627D01*
X270531Y133763D01*
X270541Y133755D01*
X270545Y133742D01*
X271167Y132984D01*
X271178Y132979D01*
X271184Y132967D01*
X271942Y132345D01*
X271954Y132342D01*
X271963Y132331D01*
X272827Y131869D01*
X272839Y131868D01*
X272850Y131860D01*
X273788Y131575D01*
X273800Y131577D01*
X273812Y131570D01*
X274788Y131474D01*
X274799Y131478D01*
X274812Y131474D01*
X275788Y131570D01*
G37*
G36*
X148788Y131570D02*
X148788Y131570D01*
X148799Y131576D01*
X148812Y131575D01*
X149750Y131860D01*
X149759Y131868D01*
X149773Y131869D01*
X150637Y132331D01*
X150645Y132341D01*
X150658Y132345D01*
X151416Y132967D01*
X151421Y132978D01*
X151433Y132984D01*
X152055Y133742D01*
X152058Y133754D01*
X152069Y133763D01*
X152531Y134627D01*
X152532Y134639D01*
X152540Y134650D01*
X152825Y135588D01*
X152823Y135600D01*
X152830Y135612D01*
X152926Y136588D01*
X152922Y136599D01*
X152926Y136612D01*
X152830Y137588D01*
X152824Y137599D01*
X152825Y137612D01*
X152540Y138550D01*
X152532Y138559D01*
X152531Y138573D01*
X152069Y139437D01*
X152059Y139445D01*
X152055Y139458D01*
X151433Y140216D01*
X151422Y140221D01*
X151416Y140233D01*
X150658Y140855D01*
X150646Y140858D01*
X150637Y140869D01*
X149773Y141331D01*
X149761Y141332D01*
X149750Y141340D01*
X148812Y141625D01*
X148800Y141623D01*
X148788Y141630D01*
X147812Y141726D01*
X147801Y141722D01*
X147788Y141726D01*
X146812Y141630D01*
X146801Y141624D01*
X146788Y141625D01*
X145850Y141340D01*
X145841Y141332D01*
X145827Y141331D01*
X144963Y140869D01*
X144955Y140859D01*
X144942Y140855D01*
X144184Y140233D01*
X144179Y140222D01*
X144167Y140216D01*
X143545Y139458D01*
X143542Y139446D01*
X143531Y139437D01*
X143069Y138573D01*
X143068Y138561D01*
X143060Y138550D01*
X142775Y137612D01*
X142777Y137600D01*
X142770Y137588D01*
X142674Y136612D01*
X142678Y136601D01*
X142674Y136588D01*
X142770Y135612D01*
X142776Y135601D01*
X142775Y135588D01*
X143060Y134650D01*
X143068Y134641D01*
X143069Y134627D01*
X143531Y133763D01*
X143541Y133755D01*
X143545Y133742D01*
X144167Y132984D01*
X144178Y132979D01*
X144184Y132967D01*
X144942Y132345D01*
X144954Y132342D01*
X144963Y132331D01*
X145827Y131869D01*
X145839Y131868D01*
X145850Y131860D01*
X146788Y131575D01*
X146800Y131577D01*
X146812Y131570D01*
X147788Y131474D01*
X147799Y131478D01*
X147812Y131474D01*
X148788Y131570D01*
G37*
G36*
X275788Y143570D02*
X275788Y143570D01*
X275799Y143576D01*
X275812Y143575D01*
X276750Y143860D01*
X276759Y143868D01*
X276773Y143869D01*
X277637Y144331D01*
X277645Y144341D01*
X277658Y144345D01*
X278416Y144967D01*
X278421Y144978D01*
X278433Y144984D01*
X279055Y145742D01*
X279058Y145754D01*
X279069Y145763D01*
X279531Y146627D01*
X279532Y146639D01*
X279540Y146650D01*
X279825Y147588D01*
X279823Y147600D01*
X279830Y147612D01*
X279926Y148588D01*
X279922Y148599D01*
X279926Y148612D01*
X279830Y149588D01*
X279824Y149599D01*
X279825Y149612D01*
X279540Y150550D01*
X279532Y150559D01*
X279531Y150573D01*
X279069Y151437D01*
X279059Y151445D01*
X279055Y151458D01*
X278433Y152216D01*
X278422Y152221D01*
X278416Y152233D01*
X277658Y152855D01*
X277646Y152858D01*
X277637Y152869D01*
X276773Y153331D01*
X276761Y153332D01*
X276750Y153340D01*
X275812Y153625D01*
X275800Y153623D01*
X275788Y153630D01*
X274812Y153726D01*
X274801Y153722D01*
X274788Y153726D01*
X273812Y153630D01*
X273801Y153624D01*
X273788Y153625D01*
X272850Y153340D01*
X272841Y153332D01*
X272827Y153331D01*
X271963Y152869D01*
X271955Y152859D01*
X271942Y152855D01*
X271184Y152233D01*
X271179Y152222D01*
X271167Y152216D01*
X270545Y151458D01*
X270542Y151446D01*
X270531Y151437D01*
X270069Y150573D01*
X270068Y150561D01*
X270060Y150550D01*
X269775Y149612D01*
X269777Y149600D01*
X269770Y149588D01*
X269674Y148612D01*
X269678Y148601D01*
X269674Y148588D01*
X269770Y147612D01*
X269776Y147601D01*
X269775Y147588D01*
X270060Y146650D01*
X270068Y146641D01*
X270069Y146627D01*
X270531Y145763D01*
X270541Y145755D01*
X270545Y145742D01*
X271167Y144984D01*
X271178Y144979D01*
X271184Y144967D01*
X271942Y144345D01*
X271954Y144342D01*
X271963Y144331D01*
X272827Y143869D01*
X272839Y143868D01*
X272850Y143860D01*
X273788Y143575D01*
X273800Y143577D01*
X273812Y143570D01*
X274788Y143474D01*
X274799Y143478D01*
X274812Y143474D01*
X275788Y143570D01*
G37*
G36*
X287788Y167570D02*
X287788Y167570D01*
X287799Y167576D01*
X287812Y167575D01*
X288750Y167860D01*
X288759Y167868D01*
X288773Y167869D01*
X289637Y168331D01*
X289645Y168341D01*
X289658Y168345D01*
X290416Y168967D01*
X290421Y168978D01*
X290433Y168984D01*
X291055Y169742D01*
X291058Y169754D01*
X291069Y169763D01*
X291531Y170627D01*
X291532Y170639D01*
X291540Y170650D01*
X291825Y171588D01*
X291823Y171600D01*
X291830Y171612D01*
X291926Y172588D01*
X291922Y172599D01*
X291926Y172612D01*
X291830Y173588D01*
X291824Y173599D01*
X291825Y173612D01*
X291540Y174550D01*
X291532Y174559D01*
X291531Y174573D01*
X291069Y175437D01*
X291059Y175445D01*
X291055Y175458D01*
X290433Y176216D01*
X290422Y176221D01*
X290416Y176233D01*
X289658Y176855D01*
X289646Y176858D01*
X289637Y176869D01*
X288773Y177331D01*
X288761Y177332D01*
X288750Y177340D01*
X287812Y177625D01*
X287800Y177623D01*
X287788Y177630D01*
X286812Y177726D01*
X286801Y177722D01*
X286788Y177726D01*
X285812Y177630D01*
X285801Y177624D01*
X285788Y177625D01*
X284850Y177340D01*
X284841Y177332D01*
X284827Y177331D01*
X283963Y176869D01*
X283955Y176859D01*
X283942Y176855D01*
X283184Y176233D01*
X283179Y176222D01*
X283167Y176216D01*
X282545Y175458D01*
X282542Y175446D01*
X282531Y175437D01*
X282069Y174573D01*
X282068Y174561D01*
X282060Y174550D01*
X281775Y173612D01*
X281777Y173600D01*
X281770Y173588D01*
X281674Y172612D01*
X281678Y172601D01*
X281674Y172588D01*
X281770Y171612D01*
X281776Y171601D01*
X281775Y171588D01*
X282060Y170650D01*
X282068Y170641D01*
X282069Y170627D01*
X282531Y169763D01*
X282541Y169755D01*
X282545Y169742D01*
X283167Y168984D01*
X283178Y168979D01*
X283184Y168967D01*
X283942Y168345D01*
X283954Y168342D01*
X283963Y168331D01*
X284827Y167869D01*
X284839Y167868D01*
X284850Y167860D01*
X285788Y167575D01*
X285800Y167577D01*
X285812Y167570D01*
X286788Y167474D01*
X286799Y167478D01*
X286812Y167474D01*
X287788Y167570D01*
G37*
G36*
X160788Y167570D02*
X160788Y167570D01*
X160799Y167576D01*
X160812Y167575D01*
X161750Y167860D01*
X161759Y167868D01*
X161773Y167869D01*
X162637Y168331D01*
X162645Y168341D01*
X162658Y168345D01*
X163416Y168967D01*
X163421Y168978D01*
X163433Y168984D01*
X164055Y169742D01*
X164058Y169754D01*
X164069Y169763D01*
X164531Y170627D01*
X164532Y170639D01*
X164540Y170650D01*
X164825Y171588D01*
X164823Y171600D01*
X164830Y171612D01*
X164926Y172588D01*
X164922Y172599D01*
X164926Y172612D01*
X164830Y173588D01*
X164824Y173599D01*
X164825Y173612D01*
X164540Y174550D01*
X164532Y174559D01*
X164531Y174573D01*
X164069Y175437D01*
X164059Y175445D01*
X164055Y175458D01*
X163433Y176216D01*
X163422Y176221D01*
X163416Y176233D01*
X162658Y176855D01*
X162646Y176858D01*
X162637Y176869D01*
X161773Y177331D01*
X161761Y177332D01*
X161750Y177340D01*
X160812Y177625D01*
X160800Y177623D01*
X160788Y177630D01*
X159812Y177726D01*
X159801Y177722D01*
X159788Y177726D01*
X158812Y177630D01*
X158801Y177624D01*
X158788Y177625D01*
X157850Y177340D01*
X157841Y177332D01*
X157827Y177331D01*
X156963Y176869D01*
X156955Y176859D01*
X156942Y176855D01*
X156184Y176233D01*
X156179Y176222D01*
X156167Y176216D01*
X155545Y175458D01*
X155542Y175446D01*
X155531Y175437D01*
X155069Y174573D01*
X155068Y174561D01*
X155060Y174550D01*
X154775Y173612D01*
X154777Y173600D01*
X154770Y173588D01*
X154674Y172612D01*
X154678Y172601D01*
X154674Y172588D01*
X154770Y171612D01*
X154776Y171601D01*
X154775Y171588D01*
X155060Y170650D01*
X155068Y170641D01*
X155069Y170627D01*
X155531Y169763D01*
X155541Y169755D01*
X155545Y169742D01*
X156167Y168984D01*
X156178Y168979D01*
X156184Y168967D01*
X156942Y168345D01*
X156954Y168342D01*
X156963Y168331D01*
X157827Y167869D01*
X157839Y167868D01*
X157850Y167860D01*
X158788Y167575D01*
X158800Y167577D01*
X158812Y167570D01*
X159788Y167474D01*
X159799Y167478D01*
X159812Y167474D01*
X160788Y167570D01*
G37*
G36*
X287788Y155570D02*
X287788Y155570D01*
X287799Y155576D01*
X287812Y155575D01*
X288750Y155860D01*
X288759Y155868D01*
X288773Y155869D01*
X289637Y156331D01*
X289645Y156341D01*
X289658Y156345D01*
X290416Y156967D01*
X290421Y156978D01*
X290433Y156984D01*
X291055Y157742D01*
X291058Y157754D01*
X291069Y157763D01*
X291531Y158627D01*
X291532Y158639D01*
X291540Y158650D01*
X291825Y159588D01*
X291823Y159600D01*
X291830Y159612D01*
X291926Y160588D01*
X291922Y160599D01*
X291926Y160612D01*
X291830Y161588D01*
X291824Y161599D01*
X291825Y161612D01*
X291540Y162550D01*
X291532Y162559D01*
X291531Y162573D01*
X291069Y163437D01*
X291059Y163445D01*
X291055Y163458D01*
X290433Y164216D01*
X290422Y164221D01*
X290416Y164233D01*
X289658Y164855D01*
X289646Y164858D01*
X289637Y164869D01*
X288773Y165331D01*
X288761Y165332D01*
X288750Y165340D01*
X287812Y165625D01*
X287800Y165623D01*
X287788Y165630D01*
X286812Y165726D01*
X286801Y165722D01*
X286788Y165726D01*
X285812Y165630D01*
X285801Y165624D01*
X285788Y165625D01*
X284850Y165340D01*
X284841Y165332D01*
X284827Y165331D01*
X283963Y164869D01*
X283955Y164859D01*
X283942Y164855D01*
X283184Y164233D01*
X283179Y164222D01*
X283167Y164216D01*
X282545Y163458D01*
X282542Y163446D01*
X282531Y163437D01*
X282069Y162573D01*
X282068Y162561D01*
X282060Y162550D01*
X281775Y161612D01*
X281777Y161600D01*
X281770Y161588D01*
X281674Y160612D01*
X281678Y160601D01*
X281674Y160588D01*
X281770Y159612D01*
X281776Y159601D01*
X281775Y159588D01*
X282060Y158650D01*
X282068Y158641D01*
X282069Y158627D01*
X282531Y157763D01*
X282541Y157755D01*
X282545Y157742D01*
X283167Y156984D01*
X283178Y156979D01*
X283184Y156967D01*
X283942Y156345D01*
X283954Y156342D01*
X283963Y156331D01*
X284827Y155869D01*
X284839Y155868D01*
X284850Y155860D01*
X285788Y155575D01*
X285800Y155577D01*
X285812Y155570D01*
X286788Y155474D01*
X286799Y155478D01*
X286812Y155474D01*
X287788Y155570D01*
G37*
G36*
X160788Y155570D02*
X160788Y155570D01*
X160799Y155576D01*
X160812Y155575D01*
X161750Y155860D01*
X161759Y155868D01*
X161773Y155869D01*
X162637Y156331D01*
X162645Y156341D01*
X162658Y156345D01*
X163416Y156967D01*
X163421Y156978D01*
X163433Y156984D01*
X164055Y157742D01*
X164058Y157754D01*
X164069Y157763D01*
X164531Y158627D01*
X164532Y158639D01*
X164540Y158650D01*
X164825Y159588D01*
X164823Y159600D01*
X164830Y159612D01*
X164926Y160588D01*
X164922Y160599D01*
X164926Y160612D01*
X164830Y161588D01*
X164824Y161599D01*
X164825Y161612D01*
X164540Y162550D01*
X164532Y162559D01*
X164531Y162573D01*
X164069Y163437D01*
X164059Y163445D01*
X164055Y163458D01*
X163433Y164216D01*
X163422Y164221D01*
X163416Y164233D01*
X162658Y164855D01*
X162646Y164858D01*
X162637Y164869D01*
X161773Y165331D01*
X161761Y165332D01*
X161750Y165340D01*
X160812Y165625D01*
X160800Y165623D01*
X160788Y165630D01*
X159812Y165726D01*
X159801Y165722D01*
X159788Y165726D01*
X158812Y165630D01*
X158801Y165624D01*
X158788Y165625D01*
X157850Y165340D01*
X157841Y165332D01*
X157827Y165331D01*
X156963Y164869D01*
X156955Y164859D01*
X156942Y164855D01*
X156184Y164233D01*
X156179Y164222D01*
X156167Y164216D01*
X155545Y163458D01*
X155542Y163446D01*
X155531Y163437D01*
X155069Y162573D01*
X155068Y162561D01*
X155060Y162550D01*
X154775Y161612D01*
X154777Y161600D01*
X154770Y161588D01*
X154674Y160612D01*
X154678Y160601D01*
X154674Y160588D01*
X154770Y159612D01*
X154776Y159601D01*
X154775Y159588D01*
X155060Y158650D01*
X155068Y158641D01*
X155069Y158627D01*
X155531Y157763D01*
X155541Y157755D01*
X155545Y157742D01*
X156167Y156984D01*
X156178Y156979D01*
X156184Y156967D01*
X156942Y156345D01*
X156954Y156342D01*
X156963Y156331D01*
X157827Y155869D01*
X157839Y155868D01*
X157850Y155860D01*
X158788Y155575D01*
X158800Y155577D01*
X158812Y155570D01*
X159788Y155474D01*
X159799Y155478D01*
X159812Y155474D01*
X160788Y155570D01*
G37*
G36*
X196788Y167570D02*
X196788Y167570D01*
X196799Y167576D01*
X196812Y167575D01*
X197750Y167860D01*
X197759Y167868D01*
X197773Y167869D01*
X198637Y168331D01*
X198645Y168341D01*
X198658Y168345D01*
X199416Y168967D01*
X199421Y168978D01*
X199433Y168984D01*
X200055Y169742D01*
X200058Y169754D01*
X200069Y169763D01*
X200531Y170627D01*
X200532Y170639D01*
X200540Y170650D01*
X200825Y171588D01*
X200823Y171600D01*
X200830Y171612D01*
X200926Y172588D01*
X200922Y172599D01*
X200926Y172612D01*
X200830Y173588D01*
X200824Y173599D01*
X200825Y173612D01*
X200540Y174550D01*
X200532Y174559D01*
X200531Y174573D01*
X200069Y175437D01*
X200059Y175445D01*
X200055Y175458D01*
X199433Y176216D01*
X199422Y176221D01*
X199416Y176233D01*
X198658Y176855D01*
X198646Y176858D01*
X198637Y176869D01*
X197773Y177331D01*
X197761Y177332D01*
X197750Y177340D01*
X196812Y177625D01*
X196800Y177623D01*
X196788Y177630D01*
X195812Y177726D01*
X195801Y177722D01*
X195788Y177726D01*
X194812Y177630D01*
X194801Y177624D01*
X194788Y177625D01*
X193850Y177340D01*
X193841Y177332D01*
X193827Y177331D01*
X192963Y176869D01*
X192955Y176859D01*
X192942Y176855D01*
X192184Y176233D01*
X192179Y176222D01*
X192167Y176216D01*
X191545Y175458D01*
X191542Y175446D01*
X191531Y175437D01*
X191069Y174573D01*
X191068Y174561D01*
X191060Y174550D01*
X190775Y173612D01*
X190777Y173600D01*
X190770Y173588D01*
X190674Y172612D01*
X190678Y172601D01*
X190674Y172588D01*
X190770Y171612D01*
X190776Y171601D01*
X190775Y171588D01*
X191060Y170650D01*
X191068Y170641D01*
X191069Y170627D01*
X191531Y169763D01*
X191541Y169755D01*
X191545Y169742D01*
X192167Y168984D01*
X192178Y168979D01*
X192184Y168967D01*
X192942Y168345D01*
X192954Y168342D01*
X192963Y168331D01*
X193827Y167869D01*
X193839Y167868D01*
X193850Y167860D01*
X194788Y167575D01*
X194800Y167577D01*
X194812Y167570D01*
X195788Y167474D01*
X195799Y167478D01*
X195812Y167474D01*
X196788Y167570D01*
G37*
G36*
X196788Y155570D02*
X196788Y155570D01*
X196799Y155576D01*
X196812Y155575D01*
X197750Y155860D01*
X197759Y155868D01*
X197773Y155869D01*
X198637Y156331D01*
X198645Y156341D01*
X198658Y156345D01*
X199416Y156967D01*
X199421Y156978D01*
X199433Y156984D01*
X200055Y157742D01*
X200058Y157754D01*
X200069Y157763D01*
X200531Y158627D01*
X200532Y158639D01*
X200540Y158650D01*
X200825Y159588D01*
X200823Y159600D01*
X200830Y159612D01*
X200926Y160588D01*
X200922Y160599D01*
X200926Y160612D01*
X200830Y161588D01*
X200824Y161599D01*
X200825Y161612D01*
X200540Y162550D01*
X200532Y162559D01*
X200531Y162573D01*
X200069Y163437D01*
X200059Y163445D01*
X200055Y163458D01*
X199433Y164216D01*
X199422Y164221D01*
X199416Y164233D01*
X198658Y164855D01*
X198646Y164858D01*
X198637Y164869D01*
X197773Y165331D01*
X197761Y165332D01*
X197750Y165340D01*
X196812Y165625D01*
X196800Y165623D01*
X196788Y165630D01*
X195812Y165726D01*
X195801Y165722D01*
X195788Y165726D01*
X194812Y165630D01*
X194801Y165624D01*
X194788Y165625D01*
X193850Y165340D01*
X193841Y165332D01*
X193827Y165331D01*
X192963Y164869D01*
X192955Y164859D01*
X192942Y164855D01*
X192184Y164233D01*
X192179Y164222D01*
X192167Y164216D01*
X191545Y163458D01*
X191542Y163446D01*
X191531Y163437D01*
X191069Y162573D01*
X191068Y162561D01*
X191060Y162550D01*
X190775Y161612D01*
X190777Y161600D01*
X190770Y161588D01*
X190674Y160612D01*
X190678Y160601D01*
X190674Y160588D01*
X190770Y159612D01*
X190776Y159601D01*
X190775Y159588D01*
X191060Y158650D01*
X191068Y158641D01*
X191069Y158627D01*
X191531Y157763D01*
X191541Y157755D01*
X191545Y157742D01*
X192167Y156984D01*
X192178Y156979D01*
X192184Y156967D01*
X192942Y156345D01*
X192954Y156342D01*
X192963Y156331D01*
X193827Y155869D01*
X193839Y155868D01*
X193850Y155860D01*
X194788Y155575D01*
X194800Y155577D01*
X194812Y155570D01*
X195788Y155474D01*
X195799Y155478D01*
X195812Y155474D01*
X196788Y155570D01*
G37*
G36*
X323788Y155570D02*
X323788Y155570D01*
X323799Y155576D01*
X323812Y155575D01*
X324750Y155860D01*
X324759Y155868D01*
X324773Y155869D01*
X325637Y156331D01*
X325645Y156341D01*
X325658Y156345D01*
X326416Y156967D01*
X326421Y156978D01*
X326433Y156984D01*
X327055Y157742D01*
X327058Y157754D01*
X327069Y157763D01*
X327531Y158627D01*
X327532Y158639D01*
X327540Y158650D01*
X327825Y159588D01*
X327823Y159600D01*
X327830Y159612D01*
X327926Y160588D01*
X327922Y160599D01*
X327926Y160612D01*
X327830Y161588D01*
X327824Y161599D01*
X327825Y161612D01*
X327540Y162550D01*
X327532Y162559D01*
X327531Y162573D01*
X327069Y163437D01*
X327059Y163445D01*
X327055Y163458D01*
X326433Y164216D01*
X326422Y164221D01*
X326416Y164233D01*
X325658Y164855D01*
X325646Y164858D01*
X325637Y164869D01*
X324773Y165331D01*
X324761Y165332D01*
X324750Y165340D01*
X323812Y165625D01*
X323800Y165623D01*
X323788Y165630D01*
X322812Y165726D01*
X322801Y165722D01*
X322788Y165726D01*
X321812Y165630D01*
X321801Y165624D01*
X321788Y165625D01*
X320850Y165340D01*
X320841Y165332D01*
X320827Y165331D01*
X319963Y164869D01*
X319955Y164859D01*
X319942Y164855D01*
X319184Y164233D01*
X319179Y164222D01*
X319167Y164216D01*
X318545Y163458D01*
X318542Y163446D01*
X318531Y163437D01*
X318069Y162573D01*
X318068Y162561D01*
X318060Y162550D01*
X317775Y161612D01*
X317777Y161600D01*
X317770Y161588D01*
X317674Y160612D01*
X317678Y160601D01*
X317674Y160588D01*
X317770Y159612D01*
X317776Y159601D01*
X317775Y159588D01*
X318060Y158650D01*
X318068Y158641D01*
X318069Y158627D01*
X318531Y157763D01*
X318541Y157755D01*
X318545Y157742D01*
X319167Y156984D01*
X319178Y156979D01*
X319184Y156967D01*
X319942Y156345D01*
X319954Y156342D01*
X319963Y156331D01*
X320827Y155869D01*
X320839Y155868D01*
X320850Y155860D01*
X321788Y155575D01*
X321800Y155577D01*
X321812Y155570D01*
X322788Y155474D01*
X322799Y155478D01*
X322812Y155474D01*
X323788Y155570D01*
G37*
G36*
X323788Y167570D02*
X323788Y167570D01*
X323799Y167576D01*
X323812Y167575D01*
X324750Y167860D01*
X324759Y167868D01*
X324773Y167869D01*
X325637Y168331D01*
X325645Y168341D01*
X325658Y168345D01*
X326416Y168967D01*
X326421Y168978D01*
X326433Y168984D01*
X327055Y169742D01*
X327058Y169754D01*
X327069Y169763D01*
X327531Y170627D01*
X327532Y170639D01*
X327540Y170650D01*
X327825Y171588D01*
X327823Y171600D01*
X327830Y171612D01*
X327926Y172588D01*
X327922Y172599D01*
X327926Y172612D01*
X327830Y173588D01*
X327824Y173599D01*
X327825Y173612D01*
X327540Y174550D01*
X327532Y174559D01*
X327531Y174573D01*
X327069Y175437D01*
X327059Y175445D01*
X327055Y175458D01*
X326433Y176216D01*
X326422Y176221D01*
X326416Y176233D01*
X325658Y176855D01*
X325646Y176858D01*
X325637Y176869D01*
X324773Y177331D01*
X324761Y177332D01*
X324750Y177340D01*
X323812Y177625D01*
X323800Y177623D01*
X323788Y177630D01*
X322812Y177726D01*
X322801Y177722D01*
X322788Y177726D01*
X321812Y177630D01*
X321801Y177624D01*
X321788Y177625D01*
X320850Y177340D01*
X320841Y177332D01*
X320827Y177331D01*
X319963Y176869D01*
X319955Y176859D01*
X319942Y176855D01*
X319184Y176233D01*
X319179Y176222D01*
X319167Y176216D01*
X318545Y175458D01*
X318542Y175446D01*
X318531Y175437D01*
X318069Y174573D01*
X318068Y174561D01*
X318060Y174550D01*
X317775Y173612D01*
X317777Y173600D01*
X317770Y173588D01*
X317674Y172612D01*
X317678Y172601D01*
X317674Y172588D01*
X317770Y171612D01*
X317776Y171601D01*
X317775Y171588D01*
X318060Y170650D01*
X318068Y170641D01*
X318069Y170627D01*
X318531Y169763D01*
X318541Y169755D01*
X318545Y169742D01*
X319167Y168984D01*
X319178Y168979D01*
X319184Y168967D01*
X319942Y168345D01*
X319954Y168342D01*
X319963Y168331D01*
X320827Y167869D01*
X320839Y167868D01*
X320850Y167860D01*
X321788Y167575D01*
X321800Y167577D01*
X321812Y167570D01*
X322788Y167474D01*
X322799Y167478D01*
X322812Y167474D01*
X323788Y167570D01*
G37*
G36*
X323788Y131570D02*
X323788Y131570D01*
X323799Y131576D01*
X323812Y131575D01*
X324750Y131860D01*
X324759Y131868D01*
X324773Y131869D01*
X325637Y132331D01*
X325645Y132341D01*
X325658Y132345D01*
X326416Y132967D01*
X326421Y132978D01*
X326433Y132984D01*
X327055Y133742D01*
X327058Y133754D01*
X327069Y133763D01*
X327531Y134627D01*
X327532Y134639D01*
X327540Y134650D01*
X327825Y135588D01*
X327823Y135600D01*
X327830Y135612D01*
X327926Y136588D01*
X327922Y136599D01*
X327926Y136612D01*
X327830Y137588D01*
X327824Y137599D01*
X327825Y137612D01*
X327540Y138550D01*
X327532Y138559D01*
X327531Y138573D01*
X327069Y139437D01*
X327059Y139445D01*
X327055Y139458D01*
X326433Y140216D01*
X326422Y140221D01*
X326416Y140233D01*
X325658Y140855D01*
X325646Y140858D01*
X325637Y140869D01*
X324773Y141331D01*
X324761Y141332D01*
X324750Y141340D01*
X323812Y141625D01*
X323800Y141623D01*
X323788Y141630D01*
X322812Y141726D01*
X322801Y141722D01*
X322788Y141726D01*
X321812Y141630D01*
X321801Y141624D01*
X321788Y141625D01*
X320850Y141340D01*
X320841Y141332D01*
X320827Y141331D01*
X319963Y140869D01*
X319955Y140859D01*
X319942Y140855D01*
X319184Y140233D01*
X319179Y140222D01*
X319167Y140216D01*
X318545Y139458D01*
X318542Y139446D01*
X318531Y139437D01*
X318069Y138573D01*
X318068Y138561D01*
X318060Y138550D01*
X317775Y137612D01*
X317777Y137600D01*
X317770Y137588D01*
X317674Y136612D01*
X317678Y136601D01*
X317674Y136588D01*
X317770Y135612D01*
X317776Y135601D01*
X317775Y135588D01*
X318060Y134650D01*
X318068Y134641D01*
X318069Y134627D01*
X318531Y133763D01*
X318541Y133755D01*
X318545Y133742D01*
X319167Y132984D01*
X319178Y132979D01*
X319184Y132967D01*
X319942Y132345D01*
X319954Y132342D01*
X319963Y132331D01*
X320827Y131869D01*
X320839Y131868D01*
X320850Y131860D01*
X321788Y131575D01*
X321800Y131577D01*
X321812Y131570D01*
X322788Y131474D01*
X322799Y131478D01*
X322812Y131474D01*
X323788Y131570D01*
G37*
G36*
X196788Y143570D02*
X196788Y143570D01*
X196799Y143576D01*
X196812Y143575D01*
X197750Y143860D01*
X197759Y143868D01*
X197773Y143869D01*
X198637Y144331D01*
X198645Y144341D01*
X198658Y144345D01*
X199416Y144967D01*
X199421Y144978D01*
X199433Y144984D01*
X200055Y145742D01*
X200058Y145754D01*
X200069Y145763D01*
X200531Y146627D01*
X200532Y146639D01*
X200540Y146650D01*
X200825Y147588D01*
X200823Y147600D01*
X200830Y147612D01*
X200926Y148588D01*
X200922Y148599D01*
X200926Y148612D01*
X200830Y149588D01*
X200824Y149599D01*
X200825Y149612D01*
X200540Y150550D01*
X200532Y150559D01*
X200531Y150573D01*
X200069Y151437D01*
X200059Y151445D01*
X200055Y151458D01*
X199433Y152216D01*
X199422Y152221D01*
X199416Y152233D01*
X198658Y152855D01*
X198646Y152858D01*
X198637Y152869D01*
X197773Y153331D01*
X197761Y153332D01*
X197750Y153340D01*
X196812Y153625D01*
X196800Y153623D01*
X196788Y153630D01*
X195812Y153726D01*
X195801Y153722D01*
X195788Y153726D01*
X194812Y153630D01*
X194801Y153624D01*
X194788Y153625D01*
X193850Y153340D01*
X193841Y153332D01*
X193827Y153331D01*
X192963Y152869D01*
X192955Y152859D01*
X192942Y152855D01*
X192184Y152233D01*
X192179Y152222D01*
X192167Y152216D01*
X191545Y151458D01*
X191542Y151446D01*
X191531Y151437D01*
X191069Y150573D01*
X191068Y150561D01*
X191060Y150550D01*
X190775Y149612D01*
X190777Y149600D01*
X190770Y149588D01*
X190674Y148612D01*
X190678Y148601D01*
X190674Y148588D01*
X190770Y147612D01*
X190776Y147601D01*
X190775Y147588D01*
X191060Y146650D01*
X191068Y146641D01*
X191069Y146627D01*
X191531Y145763D01*
X191541Y145755D01*
X191545Y145742D01*
X192167Y144984D01*
X192178Y144979D01*
X192184Y144967D01*
X192942Y144345D01*
X192954Y144342D01*
X192963Y144331D01*
X193827Y143869D01*
X193839Y143868D01*
X193850Y143860D01*
X194788Y143575D01*
X194800Y143577D01*
X194812Y143570D01*
X195788Y143474D01*
X195799Y143478D01*
X195812Y143474D01*
X196788Y143570D01*
G37*
G36*
X323788Y143570D02*
X323788Y143570D01*
X323799Y143576D01*
X323812Y143575D01*
X324750Y143860D01*
X324759Y143868D01*
X324773Y143869D01*
X325637Y144331D01*
X325645Y144341D01*
X325658Y144345D01*
X326416Y144967D01*
X326421Y144978D01*
X326433Y144984D01*
X327055Y145742D01*
X327058Y145754D01*
X327069Y145763D01*
X327531Y146627D01*
X327532Y146639D01*
X327540Y146650D01*
X327825Y147588D01*
X327823Y147600D01*
X327830Y147612D01*
X327926Y148588D01*
X327922Y148599D01*
X327926Y148612D01*
X327830Y149588D01*
X327824Y149599D01*
X327825Y149612D01*
X327540Y150550D01*
X327532Y150559D01*
X327531Y150573D01*
X327069Y151437D01*
X327059Y151445D01*
X327055Y151458D01*
X326433Y152216D01*
X326422Y152221D01*
X326416Y152233D01*
X325658Y152855D01*
X325646Y152858D01*
X325637Y152869D01*
X324773Y153331D01*
X324761Y153332D01*
X324750Y153340D01*
X323812Y153625D01*
X323800Y153623D01*
X323788Y153630D01*
X322812Y153726D01*
X322801Y153722D01*
X322788Y153726D01*
X321812Y153630D01*
X321801Y153624D01*
X321788Y153625D01*
X320850Y153340D01*
X320841Y153332D01*
X320827Y153331D01*
X319963Y152869D01*
X319955Y152859D01*
X319942Y152855D01*
X319184Y152233D01*
X319179Y152222D01*
X319167Y152216D01*
X318545Y151458D01*
X318542Y151446D01*
X318531Y151437D01*
X318069Y150573D01*
X318068Y150561D01*
X318060Y150550D01*
X317775Y149612D01*
X317777Y149600D01*
X317770Y149588D01*
X317674Y148612D01*
X317678Y148601D01*
X317674Y148588D01*
X317770Y147612D01*
X317776Y147601D01*
X317775Y147588D01*
X318060Y146650D01*
X318068Y146641D01*
X318069Y146627D01*
X318531Y145763D01*
X318541Y145755D01*
X318545Y145742D01*
X319167Y144984D01*
X319178Y144979D01*
X319184Y144967D01*
X319942Y144345D01*
X319954Y144342D01*
X319963Y144331D01*
X320827Y143869D01*
X320839Y143868D01*
X320850Y143860D01*
X321788Y143575D01*
X321800Y143577D01*
X321812Y143570D01*
X322788Y143474D01*
X322799Y143478D01*
X322812Y143474D01*
X323788Y143570D01*
G37*
G36*
X196788Y131570D02*
X196788Y131570D01*
X196799Y131576D01*
X196812Y131575D01*
X197750Y131860D01*
X197759Y131868D01*
X197773Y131869D01*
X198637Y132331D01*
X198645Y132341D01*
X198658Y132345D01*
X199416Y132967D01*
X199421Y132978D01*
X199433Y132984D01*
X200055Y133742D01*
X200058Y133754D01*
X200069Y133763D01*
X200531Y134627D01*
X200532Y134639D01*
X200540Y134650D01*
X200825Y135588D01*
X200823Y135600D01*
X200830Y135612D01*
X200926Y136588D01*
X200922Y136599D01*
X200926Y136612D01*
X200830Y137588D01*
X200824Y137599D01*
X200825Y137612D01*
X200540Y138550D01*
X200532Y138559D01*
X200531Y138573D01*
X200069Y139437D01*
X200059Y139445D01*
X200055Y139458D01*
X199433Y140216D01*
X199422Y140221D01*
X199416Y140233D01*
X198658Y140855D01*
X198646Y140858D01*
X198637Y140869D01*
X197773Y141331D01*
X197761Y141332D01*
X197750Y141340D01*
X196812Y141625D01*
X196800Y141623D01*
X196788Y141630D01*
X195812Y141726D01*
X195801Y141722D01*
X195788Y141726D01*
X194812Y141630D01*
X194801Y141624D01*
X194788Y141625D01*
X193850Y141340D01*
X193841Y141332D01*
X193827Y141331D01*
X192963Y140869D01*
X192955Y140859D01*
X192942Y140855D01*
X192184Y140233D01*
X192179Y140222D01*
X192167Y140216D01*
X191545Y139458D01*
X191542Y139446D01*
X191531Y139437D01*
X191069Y138573D01*
X191068Y138561D01*
X191060Y138550D01*
X190775Y137612D01*
X190777Y137600D01*
X190770Y137588D01*
X190674Y136612D01*
X190678Y136601D01*
X190674Y136588D01*
X190770Y135612D01*
X190776Y135601D01*
X190775Y135588D01*
X191060Y134650D01*
X191068Y134641D01*
X191069Y134627D01*
X191531Y133763D01*
X191541Y133755D01*
X191545Y133742D01*
X192167Y132984D01*
X192178Y132979D01*
X192184Y132967D01*
X192942Y132345D01*
X192954Y132342D01*
X192963Y132331D01*
X193827Y131869D01*
X193839Y131868D01*
X193850Y131860D01*
X194788Y131575D01*
X194800Y131577D01*
X194812Y131570D01*
X195788Y131474D01*
X195799Y131478D01*
X195812Y131474D01*
X196788Y131570D01*
G37*
G36*
X160788Y131570D02*
X160788Y131570D01*
X160799Y131576D01*
X160812Y131575D01*
X161750Y131860D01*
X161759Y131868D01*
X161773Y131869D01*
X162637Y132331D01*
X162645Y132341D01*
X162658Y132345D01*
X163416Y132967D01*
X163421Y132978D01*
X163433Y132984D01*
X164055Y133742D01*
X164058Y133754D01*
X164069Y133763D01*
X164531Y134627D01*
X164532Y134639D01*
X164540Y134650D01*
X164825Y135588D01*
X164823Y135600D01*
X164830Y135612D01*
X164926Y136588D01*
X164922Y136599D01*
X164926Y136612D01*
X164830Y137588D01*
X164824Y137599D01*
X164825Y137612D01*
X164540Y138550D01*
X164532Y138559D01*
X164531Y138573D01*
X164069Y139437D01*
X164059Y139445D01*
X164055Y139458D01*
X163433Y140216D01*
X163422Y140221D01*
X163416Y140233D01*
X162658Y140855D01*
X162646Y140858D01*
X162637Y140869D01*
X161773Y141331D01*
X161761Y141332D01*
X161750Y141340D01*
X160812Y141625D01*
X160800Y141623D01*
X160788Y141630D01*
X159812Y141726D01*
X159801Y141722D01*
X159788Y141726D01*
X158812Y141630D01*
X158801Y141624D01*
X158788Y141625D01*
X157850Y141340D01*
X157841Y141332D01*
X157827Y141331D01*
X156963Y140869D01*
X156955Y140859D01*
X156942Y140855D01*
X156184Y140233D01*
X156179Y140222D01*
X156167Y140216D01*
X155545Y139458D01*
X155542Y139446D01*
X155531Y139437D01*
X155069Y138573D01*
X155068Y138561D01*
X155060Y138550D01*
X154775Y137612D01*
X154777Y137600D01*
X154770Y137588D01*
X154674Y136612D01*
X154678Y136601D01*
X154674Y136588D01*
X154770Y135612D01*
X154776Y135601D01*
X154775Y135588D01*
X155060Y134650D01*
X155068Y134641D01*
X155069Y134627D01*
X155531Y133763D01*
X155541Y133755D01*
X155545Y133742D01*
X156167Y132984D01*
X156178Y132979D01*
X156184Y132967D01*
X156942Y132345D01*
X156954Y132342D01*
X156963Y132331D01*
X157827Y131869D01*
X157839Y131868D01*
X157850Y131860D01*
X158788Y131575D01*
X158800Y131577D01*
X158812Y131570D01*
X159788Y131474D01*
X159799Y131478D01*
X159812Y131474D01*
X160788Y131570D01*
G37*
G36*
X160788Y143570D02*
X160788Y143570D01*
X160799Y143576D01*
X160812Y143575D01*
X161750Y143860D01*
X161759Y143868D01*
X161773Y143869D01*
X162637Y144331D01*
X162645Y144341D01*
X162658Y144345D01*
X163416Y144967D01*
X163421Y144978D01*
X163433Y144984D01*
X164055Y145742D01*
X164058Y145754D01*
X164069Y145763D01*
X164531Y146627D01*
X164532Y146639D01*
X164540Y146650D01*
X164825Y147588D01*
X164823Y147600D01*
X164830Y147612D01*
X164926Y148588D01*
X164922Y148599D01*
X164926Y148612D01*
X164830Y149588D01*
X164824Y149599D01*
X164825Y149612D01*
X164540Y150550D01*
X164532Y150559D01*
X164531Y150573D01*
X164069Y151437D01*
X164059Y151445D01*
X164055Y151458D01*
X163433Y152216D01*
X163422Y152221D01*
X163416Y152233D01*
X162658Y152855D01*
X162646Y152858D01*
X162637Y152869D01*
X161773Y153331D01*
X161761Y153332D01*
X161750Y153340D01*
X160812Y153625D01*
X160800Y153623D01*
X160788Y153630D01*
X159812Y153726D01*
X159801Y153722D01*
X159788Y153726D01*
X158812Y153630D01*
X158801Y153624D01*
X158788Y153625D01*
X157850Y153340D01*
X157841Y153332D01*
X157827Y153331D01*
X156963Y152869D01*
X156955Y152859D01*
X156942Y152855D01*
X156184Y152233D01*
X156179Y152222D01*
X156167Y152216D01*
X155545Y151458D01*
X155542Y151446D01*
X155531Y151437D01*
X155069Y150573D01*
X155068Y150561D01*
X155060Y150550D01*
X154775Y149612D01*
X154777Y149600D01*
X154770Y149588D01*
X154674Y148612D01*
X154678Y148601D01*
X154674Y148588D01*
X154770Y147612D01*
X154776Y147601D01*
X154775Y147588D01*
X155060Y146650D01*
X155068Y146641D01*
X155069Y146627D01*
X155531Y145763D01*
X155541Y145755D01*
X155545Y145742D01*
X156167Y144984D01*
X156178Y144979D01*
X156184Y144967D01*
X156942Y144345D01*
X156954Y144342D01*
X156963Y144331D01*
X157827Y143869D01*
X157839Y143868D01*
X157850Y143860D01*
X158788Y143575D01*
X158800Y143577D01*
X158812Y143570D01*
X159788Y143474D01*
X159799Y143478D01*
X159812Y143474D01*
X160788Y143570D01*
G37*
G36*
X287788Y131570D02*
X287788Y131570D01*
X287799Y131576D01*
X287812Y131575D01*
X288750Y131860D01*
X288759Y131868D01*
X288773Y131869D01*
X289637Y132331D01*
X289645Y132341D01*
X289658Y132345D01*
X290416Y132967D01*
X290421Y132978D01*
X290433Y132984D01*
X291055Y133742D01*
X291058Y133754D01*
X291069Y133763D01*
X291531Y134627D01*
X291532Y134639D01*
X291540Y134650D01*
X291825Y135588D01*
X291823Y135600D01*
X291830Y135612D01*
X291926Y136588D01*
X291922Y136599D01*
X291926Y136612D01*
X291830Y137588D01*
X291824Y137599D01*
X291825Y137612D01*
X291540Y138550D01*
X291532Y138559D01*
X291531Y138573D01*
X291069Y139437D01*
X291059Y139445D01*
X291055Y139458D01*
X290433Y140216D01*
X290422Y140221D01*
X290416Y140233D01*
X289658Y140855D01*
X289646Y140858D01*
X289637Y140869D01*
X288773Y141331D01*
X288761Y141332D01*
X288750Y141340D01*
X287812Y141625D01*
X287800Y141623D01*
X287788Y141630D01*
X286812Y141726D01*
X286801Y141722D01*
X286788Y141726D01*
X285812Y141630D01*
X285801Y141624D01*
X285788Y141625D01*
X284850Y141340D01*
X284841Y141332D01*
X284827Y141331D01*
X283963Y140869D01*
X283955Y140859D01*
X283942Y140855D01*
X283184Y140233D01*
X283179Y140222D01*
X283167Y140216D01*
X282545Y139458D01*
X282542Y139446D01*
X282531Y139437D01*
X282069Y138573D01*
X282068Y138561D01*
X282060Y138550D01*
X281775Y137612D01*
X281777Y137600D01*
X281770Y137588D01*
X281674Y136612D01*
X281678Y136601D01*
X281674Y136588D01*
X281770Y135612D01*
X281776Y135601D01*
X281775Y135588D01*
X282060Y134650D01*
X282068Y134641D01*
X282069Y134627D01*
X282531Y133763D01*
X282541Y133755D01*
X282545Y133742D01*
X283167Y132984D01*
X283178Y132979D01*
X283184Y132967D01*
X283942Y132345D01*
X283954Y132342D01*
X283963Y132331D01*
X284827Y131869D01*
X284839Y131868D01*
X284850Y131860D01*
X285788Y131575D01*
X285800Y131577D01*
X285812Y131570D01*
X286788Y131474D01*
X286799Y131478D01*
X286812Y131474D01*
X287788Y131570D01*
G37*
G36*
X287788Y143570D02*
X287788Y143570D01*
X287799Y143576D01*
X287812Y143575D01*
X288750Y143860D01*
X288759Y143868D01*
X288773Y143869D01*
X289637Y144331D01*
X289645Y144341D01*
X289658Y144345D01*
X290416Y144967D01*
X290421Y144978D01*
X290433Y144984D01*
X291055Y145742D01*
X291058Y145754D01*
X291069Y145763D01*
X291531Y146627D01*
X291532Y146639D01*
X291540Y146650D01*
X291825Y147588D01*
X291823Y147600D01*
X291830Y147612D01*
X291926Y148588D01*
X291922Y148599D01*
X291926Y148612D01*
X291830Y149588D01*
X291824Y149599D01*
X291825Y149612D01*
X291540Y150550D01*
X291532Y150559D01*
X291531Y150573D01*
X291069Y151437D01*
X291059Y151445D01*
X291055Y151458D01*
X290433Y152216D01*
X290422Y152221D01*
X290416Y152233D01*
X289658Y152855D01*
X289646Y152858D01*
X289637Y152869D01*
X288773Y153331D01*
X288761Y153332D01*
X288750Y153340D01*
X287812Y153625D01*
X287800Y153623D01*
X287788Y153630D01*
X286812Y153726D01*
X286801Y153722D01*
X286788Y153726D01*
X285812Y153630D01*
X285801Y153624D01*
X285788Y153625D01*
X284850Y153340D01*
X284841Y153332D01*
X284827Y153331D01*
X283963Y152869D01*
X283955Y152859D01*
X283942Y152855D01*
X283184Y152233D01*
X283179Y152222D01*
X283167Y152216D01*
X282545Y151458D01*
X282542Y151446D01*
X282531Y151437D01*
X282069Y150573D01*
X282068Y150561D01*
X282060Y150550D01*
X281775Y149612D01*
X281777Y149600D01*
X281770Y149588D01*
X281674Y148612D01*
X281678Y148601D01*
X281674Y148588D01*
X281770Y147612D01*
X281776Y147601D01*
X281775Y147588D01*
X282060Y146650D01*
X282068Y146641D01*
X282069Y146627D01*
X282531Y145763D01*
X282541Y145755D01*
X282545Y145742D01*
X283167Y144984D01*
X283178Y144979D01*
X283184Y144967D01*
X283942Y144345D01*
X283954Y144342D01*
X283963Y144331D01*
X284827Y143869D01*
X284839Y143868D01*
X284850Y143860D01*
X285788Y143575D01*
X285800Y143577D01*
X285812Y143570D01*
X286788Y143474D01*
X286799Y143478D01*
X286812Y143474D01*
X287788Y143570D01*
G37*
G36*
X299788Y155570D02*
X299788Y155570D01*
X299799Y155576D01*
X299812Y155575D01*
X300750Y155860D01*
X300759Y155868D01*
X300773Y155869D01*
X301637Y156331D01*
X301645Y156341D01*
X301658Y156345D01*
X302416Y156967D01*
X302421Y156978D01*
X302433Y156984D01*
X303055Y157742D01*
X303058Y157754D01*
X303069Y157763D01*
X303531Y158627D01*
X303532Y158639D01*
X303540Y158650D01*
X303825Y159588D01*
X303823Y159600D01*
X303830Y159612D01*
X303926Y160588D01*
X303922Y160599D01*
X303926Y160612D01*
X303830Y161588D01*
X303824Y161599D01*
X303825Y161612D01*
X303540Y162550D01*
X303532Y162559D01*
X303531Y162573D01*
X303069Y163437D01*
X303059Y163445D01*
X303055Y163458D01*
X302433Y164216D01*
X302422Y164221D01*
X302416Y164233D01*
X301658Y164855D01*
X301646Y164858D01*
X301637Y164869D01*
X300773Y165331D01*
X300761Y165332D01*
X300750Y165340D01*
X299812Y165625D01*
X299800Y165623D01*
X299788Y165630D01*
X298812Y165726D01*
X298801Y165722D01*
X298788Y165726D01*
X297812Y165630D01*
X297801Y165624D01*
X297788Y165625D01*
X296850Y165340D01*
X296841Y165332D01*
X296827Y165331D01*
X295963Y164869D01*
X295955Y164859D01*
X295942Y164855D01*
X295184Y164233D01*
X295179Y164222D01*
X295167Y164216D01*
X294545Y163458D01*
X294542Y163446D01*
X294531Y163437D01*
X294069Y162573D01*
X294068Y162561D01*
X294060Y162550D01*
X293775Y161612D01*
X293777Y161600D01*
X293770Y161588D01*
X293674Y160612D01*
X293678Y160601D01*
X293674Y160588D01*
X293770Y159612D01*
X293776Y159601D01*
X293775Y159588D01*
X294060Y158650D01*
X294068Y158641D01*
X294069Y158627D01*
X294531Y157763D01*
X294541Y157755D01*
X294545Y157742D01*
X295167Y156984D01*
X295178Y156979D01*
X295184Y156967D01*
X295942Y156345D01*
X295954Y156342D01*
X295963Y156331D01*
X296827Y155869D01*
X296839Y155868D01*
X296850Y155860D01*
X297788Y155575D01*
X297800Y155577D01*
X297812Y155570D01*
X298788Y155474D01*
X298799Y155478D01*
X298812Y155474D01*
X299788Y155570D01*
G37*
G36*
X299788Y167570D02*
X299788Y167570D01*
X299799Y167576D01*
X299812Y167575D01*
X300750Y167860D01*
X300759Y167868D01*
X300773Y167869D01*
X301637Y168331D01*
X301645Y168341D01*
X301658Y168345D01*
X302416Y168967D01*
X302421Y168978D01*
X302433Y168984D01*
X303055Y169742D01*
X303058Y169754D01*
X303069Y169763D01*
X303531Y170627D01*
X303532Y170639D01*
X303540Y170650D01*
X303825Y171588D01*
X303823Y171600D01*
X303830Y171612D01*
X303926Y172588D01*
X303922Y172599D01*
X303926Y172612D01*
X303830Y173588D01*
X303824Y173599D01*
X303825Y173612D01*
X303540Y174550D01*
X303532Y174559D01*
X303531Y174573D01*
X303069Y175437D01*
X303059Y175445D01*
X303055Y175458D01*
X302433Y176216D01*
X302422Y176221D01*
X302416Y176233D01*
X301658Y176855D01*
X301646Y176858D01*
X301637Y176869D01*
X300773Y177331D01*
X300761Y177332D01*
X300750Y177340D01*
X299812Y177625D01*
X299800Y177623D01*
X299788Y177630D01*
X298812Y177726D01*
X298801Y177722D01*
X298788Y177726D01*
X297812Y177630D01*
X297801Y177624D01*
X297788Y177625D01*
X296850Y177340D01*
X296841Y177332D01*
X296827Y177331D01*
X295963Y176869D01*
X295955Y176859D01*
X295942Y176855D01*
X295184Y176233D01*
X295179Y176222D01*
X295167Y176216D01*
X294545Y175458D01*
X294542Y175446D01*
X294531Y175437D01*
X294069Y174573D01*
X294068Y174561D01*
X294060Y174550D01*
X293775Y173612D01*
X293777Y173600D01*
X293770Y173588D01*
X293674Y172612D01*
X293678Y172601D01*
X293674Y172588D01*
X293770Y171612D01*
X293776Y171601D01*
X293775Y171588D01*
X294060Y170650D01*
X294068Y170641D01*
X294069Y170627D01*
X294531Y169763D01*
X294541Y169755D01*
X294545Y169742D01*
X295167Y168984D01*
X295178Y168979D01*
X295184Y168967D01*
X295942Y168345D01*
X295954Y168342D01*
X295963Y168331D01*
X296827Y167869D01*
X296839Y167868D01*
X296850Y167860D01*
X297788Y167575D01*
X297800Y167577D01*
X297812Y167570D01*
X298788Y167474D01*
X298799Y167478D01*
X298812Y167474D01*
X299788Y167570D01*
G37*
G36*
X172788Y167570D02*
X172788Y167570D01*
X172799Y167576D01*
X172812Y167575D01*
X173750Y167860D01*
X173759Y167868D01*
X173773Y167869D01*
X174637Y168331D01*
X174645Y168341D01*
X174658Y168345D01*
X175416Y168967D01*
X175421Y168978D01*
X175433Y168984D01*
X176055Y169742D01*
X176058Y169754D01*
X176069Y169763D01*
X176531Y170627D01*
X176532Y170639D01*
X176540Y170650D01*
X176825Y171588D01*
X176823Y171600D01*
X176830Y171612D01*
X176926Y172588D01*
X176922Y172599D01*
X176926Y172612D01*
X176830Y173588D01*
X176824Y173599D01*
X176825Y173612D01*
X176540Y174550D01*
X176532Y174559D01*
X176531Y174573D01*
X176069Y175437D01*
X176059Y175445D01*
X176055Y175458D01*
X175433Y176216D01*
X175422Y176221D01*
X175416Y176233D01*
X174658Y176855D01*
X174646Y176858D01*
X174637Y176869D01*
X173773Y177331D01*
X173761Y177332D01*
X173750Y177340D01*
X172812Y177625D01*
X172800Y177623D01*
X172788Y177630D01*
X171812Y177726D01*
X171801Y177722D01*
X171788Y177726D01*
X170812Y177630D01*
X170801Y177624D01*
X170788Y177625D01*
X169850Y177340D01*
X169841Y177332D01*
X169827Y177331D01*
X168963Y176869D01*
X168955Y176859D01*
X168942Y176855D01*
X168184Y176233D01*
X168179Y176222D01*
X168167Y176216D01*
X167545Y175458D01*
X167542Y175446D01*
X167531Y175437D01*
X167069Y174573D01*
X167068Y174561D01*
X167060Y174550D01*
X166775Y173612D01*
X166777Y173600D01*
X166770Y173588D01*
X166674Y172612D01*
X166678Y172601D01*
X166674Y172588D01*
X166770Y171612D01*
X166776Y171601D01*
X166775Y171588D01*
X167060Y170650D01*
X167068Y170641D01*
X167069Y170627D01*
X167531Y169763D01*
X167541Y169755D01*
X167545Y169742D01*
X168167Y168984D01*
X168178Y168979D01*
X168184Y168967D01*
X168942Y168345D01*
X168954Y168342D01*
X168963Y168331D01*
X169827Y167869D01*
X169839Y167868D01*
X169850Y167860D01*
X170788Y167575D01*
X170800Y167577D01*
X170812Y167570D01*
X171788Y167474D01*
X171799Y167478D01*
X171812Y167474D01*
X172788Y167570D01*
G37*
G36*
X172788Y155570D02*
X172788Y155570D01*
X172799Y155576D01*
X172812Y155575D01*
X173750Y155860D01*
X173759Y155868D01*
X173773Y155869D01*
X174637Y156331D01*
X174645Y156341D01*
X174658Y156345D01*
X175416Y156967D01*
X175421Y156978D01*
X175433Y156984D01*
X176055Y157742D01*
X176058Y157754D01*
X176069Y157763D01*
X176531Y158627D01*
X176532Y158639D01*
X176540Y158650D01*
X176825Y159588D01*
X176823Y159600D01*
X176830Y159612D01*
X176926Y160588D01*
X176922Y160599D01*
X176926Y160612D01*
X176830Y161588D01*
X176824Y161599D01*
X176825Y161612D01*
X176540Y162550D01*
X176532Y162559D01*
X176531Y162573D01*
X176069Y163437D01*
X176059Y163445D01*
X176055Y163458D01*
X175433Y164216D01*
X175422Y164221D01*
X175416Y164233D01*
X174658Y164855D01*
X174646Y164858D01*
X174637Y164869D01*
X173773Y165331D01*
X173761Y165332D01*
X173750Y165340D01*
X172812Y165625D01*
X172800Y165623D01*
X172788Y165630D01*
X171812Y165726D01*
X171801Y165722D01*
X171788Y165726D01*
X170812Y165630D01*
X170801Y165624D01*
X170788Y165625D01*
X169850Y165340D01*
X169841Y165332D01*
X169827Y165331D01*
X168963Y164869D01*
X168955Y164859D01*
X168942Y164855D01*
X168184Y164233D01*
X168179Y164222D01*
X168167Y164216D01*
X167545Y163458D01*
X167542Y163446D01*
X167531Y163437D01*
X167069Y162573D01*
X167068Y162561D01*
X167060Y162550D01*
X166775Y161612D01*
X166777Y161600D01*
X166770Y161588D01*
X166674Y160612D01*
X166678Y160601D01*
X166674Y160588D01*
X166770Y159612D01*
X166776Y159601D01*
X166775Y159588D01*
X167060Y158650D01*
X167068Y158641D01*
X167069Y158627D01*
X167531Y157763D01*
X167541Y157755D01*
X167545Y157742D01*
X168167Y156984D01*
X168178Y156979D01*
X168184Y156967D01*
X168942Y156345D01*
X168954Y156342D01*
X168963Y156331D01*
X169827Y155869D01*
X169839Y155868D01*
X169850Y155860D01*
X170788Y155575D01*
X170800Y155577D01*
X170812Y155570D01*
X171788Y155474D01*
X171799Y155478D01*
X171812Y155474D01*
X172788Y155570D01*
G37*
G36*
X208788Y155570D02*
X208788Y155570D01*
X208799Y155576D01*
X208812Y155575D01*
X209750Y155860D01*
X209759Y155868D01*
X209773Y155869D01*
X210637Y156331D01*
X210645Y156341D01*
X210658Y156345D01*
X211416Y156967D01*
X211421Y156978D01*
X211433Y156984D01*
X212055Y157742D01*
X212058Y157754D01*
X212069Y157763D01*
X212531Y158627D01*
X212532Y158639D01*
X212540Y158650D01*
X212825Y159588D01*
X212823Y159600D01*
X212830Y159612D01*
X212926Y160588D01*
X212922Y160599D01*
X212926Y160612D01*
X212830Y161588D01*
X212824Y161599D01*
X212825Y161612D01*
X212540Y162550D01*
X212532Y162559D01*
X212531Y162573D01*
X212069Y163437D01*
X212059Y163445D01*
X212055Y163458D01*
X211433Y164216D01*
X211422Y164221D01*
X211416Y164233D01*
X210658Y164855D01*
X210646Y164858D01*
X210637Y164869D01*
X209773Y165331D01*
X209761Y165332D01*
X209750Y165340D01*
X208812Y165625D01*
X208800Y165623D01*
X208788Y165630D01*
X207812Y165726D01*
X207801Y165722D01*
X207788Y165726D01*
X206812Y165630D01*
X206801Y165624D01*
X206788Y165625D01*
X205850Y165340D01*
X205841Y165332D01*
X205827Y165331D01*
X204963Y164869D01*
X204955Y164859D01*
X204942Y164855D01*
X204184Y164233D01*
X204179Y164222D01*
X204167Y164216D01*
X203545Y163458D01*
X203542Y163446D01*
X203531Y163437D01*
X203069Y162573D01*
X203068Y162561D01*
X203060Y162550D01*
X202775Y161612D01*
X202777Y161600D01*
X202770Y161588D01*
X202674Y160612D01*
X202678Y160601D01*
X202674Y160588D01*
X202770Y159612D01*
X202776Y159601D01*
X202775Y159588D01*
X203060Y158650D01*
X203068Y158641D01*
X203069Y158627D01*
X203531Y157763D01*
X203541Y157755D01*
X203545Y157742D01*
X204167Y156984D01*
X204178Y156979D01*
X204184Y156967D01*
X204942Y156345D01*
X204954Y156342D01*
X204963Y156331D01*
X205827Y155869D01*
X205839Y155868D01*
X205850Y155860D01*
X206788Y155575D01*
X206800Y155577D01*
X206812Y155570D01*
X207788Y155474D01*
X207799Y155478D01*
X207812Y155474D01*
X208788Y155570D01*
G37*
G36*
X335788Y155570D02*
X335788Y155570D01*
X335799Y155576D01*
X335812Y155575D01*
X336750Y155860D01*
X336759Y155868D01*
X336773Y155869D01*
X337637Y156331D01*
X337645Y156341D01*
X337658Y156345D01*
X338416Y156967D01*
X338421Y156978D01*
X338433Y156984D01*
X339055Y157742D01*
X339058Y157754D01*
X339069Y157763D01*
X339531Y158627D01*
X339532Y158639D01*
X339540Y158650D01*
X339825Y159588D01*
X339823Y159600D01*
X339830Y159612D01*
X339926Y160588D01*
X339922Y160599D01*
X339926Y160612D01*
X339830Y161588D01*
X339824Y161599D01*
X339825Y161612D01*
X339540Y162550D01*
X339532Y162559D01*
X339531Y162573D01*
X339069Y163437D01*
X339059Y163445D01*
X339055Y163458D01*
X338433Y164216D01*
X338422Y164221D01*
X338416Y164233D01*
X337658Y164855D01*
X337646Y164858D01*
X337637Y164869D01*
X336773Y165331D01*
X336761Y165332D01*
X336750Y165340D01*
X335812Y165625D01*
X335800Y165623D01*
X335788Y165630D01*
X334812Y165726D01*
X334801Y165722D01*
X334788Y165726D01*
X333812Y165630D01*
X333801Y165624D01*
X333788Y165625D01*
X332850Y165340D01*
X332841Y165332D01*
X332827Y165331D01*
X331963Y164869D01*
X331955Y164859D01*
X331942Y164855D01*
X331184Y164233D01*
X331179Y164222D01*
X331167Y164216D01*
X330545Y163458D01*
X330542Y163446D01*
X330531Y163437D01*
X330069Y162573D01*
X330068Y162561D01*
X330060Y162550D01*
X329775Y161612D01*
X329777Y161600D01*
X329770Y161588D01*
X329674Y160612D01*
X329678Y160601D01*
X329674Y160588D01*
X329770Y159612D01*
X329776Y159601D01*
X329775Y159588D01*
X330060Y158650D01*
X330068Y158641D01*
X330069Y158627D01*
X330531Y157763D01*
X330541Y157755D01*
X330545Y157742D01*
X331167Y156984D01*
X331178Y156979D01*
X331184Y156967D01*
X331942Y156345D01*
X331954Y156342D01*
X331963Y156331D01*
X332827Y155869D01*
X332839Y155868D01*
X332850Y155860D01*
X333788Y155575D01*
X333800Y155577D01*
X333812Y155570D01*
X334788Y155474D01*
X334799Y155478D01*
X334812Y155474D01*
X335788Y155570D01*
G37*
G36*
X208788Y167570D02*
X208788Y167570D01*
X208799Y167576D01*
X208812Y167575D01*
X209750Y167860D01*
X209759Y167868D01*
X209773Y167869D01*
X210637Y168331D01*
X210645Y168341D01*
X210658Y168345D01*
X211416Y168967D01*
X211421Y168978D01*
X211433Y168984D01*
X212055Y169742D01*
X212058Y169754D01*
X212069Y169763D01*
X212531Y170627D01*
X212532Y170639D01*
X212540Y170650D01*
X212825Y171588D01*
X212823Y171600D01*
X212830Y171612D01*
X212926Y172588D01*
X212922Y172599D01*
X212926Y172612D01*
X212830Y173588D01*
X212824Y173599D01*
X212825Y173612D01*
X212540Y174550D01*
X212532Y174559D01*
X212531Y174573D01*
X212069Y175437D01*
X212059Y175445D01*
X212055Y175458D01*
X211433Y176216D01*
X211422Y176221D01*
X211416Y176233D01*
X210658Y176855D01*
X210646Y176858D01*
X210637Y176869D01*
X209773Y177331D01*
X209761Y177332D01*
X209750Y177340D01*
X208812Y177625D01*
X208800Y177623D01*
X208788Y177630D01*
X207812Y177726D01*
X207801Y177722D01*
X207788Y177726D01*
X206812Y177630D01*
X206801Y177624D01*
X206788Y177625D01*
X205850Y177340D01*
X205841Y177332D01*
X205827Y177331D01*
X204963Y176869D01*
X204955Y176859D01*
X204942Y176855D01*
X204184Y176233D01*
X204179Y176222D01*
X204167Y176216D01*
X203545Y175458D01*
X203542Y175446D01*
X203531Y175437D01*
X203069Y174573D01*
X203068Y174561D01*
X203060Y174550D01*
X202775Y173612D01*
X202777Y173600D01*
X202770Y173588D01*
X202674Y172612D01*
X202678Y172601D01*
X202674Y172588D01*
X202770Y171612D01*
X202776Y171601D01*
X202775Y171588D01*
X203060Y170650D01*
X203068Y170641D01*
X203069Y170627D01*
X203531Y169763D01*
X203541Y169755D01*
X203545Y169742D01*
X204167Y168984D01*
X204178Y168979D01*
X204184Y168967D01*
X204942Y168345D01*
X204954Y168342D01*
X204963Y168331D01*
X205827Y167869D01*
X205839Y167868D01*
X205850Y167860D01*
X206788Y167575D01*
X206800Y167577D01*
X206812Y167570D01*
X207788Y167474D01*
X207799Y167478D01*
X207812Y167474D01*
X208788Y167570D01*
G37*
G36*
X335788Y167570D02*
X335788Y167570D01*
X335799Y167576D01*
X335812Y167575D01*
X336750Y167860D01*
X336759Y167868D01*
X336773Y167869D01*
X337637Y168331D01*
X337645Y168341D01*
X337658Y168345D01*
X338416Y168967D01*
X338421Y168978D01*
X338433Y168984D01*
X339055Y169742D01*
X339058Y169754D01*
X339069Y169763D01*
X339531Y170627D01*
X339532Y170639D01*
X339540Y170650D01*
X339825Y171588D01*
X339823Y171600D01*
X339830Y171612D01*
X339926Y172588D01*
X339922Y172599D01*
X339926Y172612D01*
X339830Y173588D01*
X339824Y173599D01*
X339825Y173612D01*
X339540Y174550D01*
X339532Y174559D01*
X339531Y174573D01*
X339069Y175437D01*
X339059Y175445D01*
X339055Y175458D01*
X338433Y176216D01*
X338422Y176221D01*
X338416Y176233D01*
X337658Y176855D01*
X337646Y176858D01*
X337637Y176869D01*
X336773Y177331D01*
X336761Y177332D01*
X336750Y177340D01*
X335812Y177625D01*
X335800Y177623D01*
X335788Y177630D01*
X334812Y177726D01*
X334801Y177722D01*
X334788Y177726D01*
X333812Y177630D01*
X333801Y177624D01*
X333788Y177625D01*
X332850Y177340D01*
X332841Y177332D01*
X332827Y177331D01*
X331963Y176869D01*
X331955Y176859D01*
X331942Y176855D01*
X331184Y176233D01*
X331179Y176222D01*
X331167Y176216D01*
X330545Y175458D01*
X330542Y175446D01*
X330531Y175437D01*
X330069Y174573D01*
X330068Y174561D01*
X330060Y174550D01*
X329775Y173612D01*
X329777Y173600D01*
X329770Y173588D01*
X329674Y172612D01*
X329678Y172601D01*
X329674Y172588D01*
X329770Y171612D01*
X329776Y171601D01*
X329775Y171588D01*
X330060Y170650D01*
X330068Y170641D01*
X330069Y170627D01*
X330531Y169763D01*
X330541Y169755D01*
X330545Y169742D01*
X331167Y168984D01*
X331178Y168979D01*
X331184Y168967D01*
X331942Y168345D01*
X331954Y168342D01*
X331963Y168331D01*
X332827Y167869D01*
X332839Y167868D01*
X332850Y167860D01*
X333788Y167575D01*
X333800Y167577D01*
X333812Y167570D01*
X334788Y167474D01*
X334799Y167478D01*
X334812Y167474D01*
X335788Y167570D01*
G37*
G36*
X208788Y143570D02*
X208788Y143570D01*
X208799Y143576D01*
X208812Y143575D01*
X209750Y143860D01*
X209759Y143868D01*
X209773Y143869D01*
X210637Y144331D01*
X210645Y144341D01*
X210658Y144345D01*
X211416Y144967D01*
X211421Y144978D01*
X211433Y144984D01*
X212055Y145742D01*
X212058Y145754D01*
X212069Y145763D01*
X212531Y146627D01*
X212532Y146639D01*
X212540Y146650D01*
X212825Y147588D01*
X212823Y147600D01*
X212830Y147612D01*
X212926Y148588D01*
X212922Y148599D01*
X212926Y148612D01*
X212830Y149588D01*
X212824Y149599D01*
X212825Y149612D01*
X212540Y150550D01*
X212532Y150559D01*
X212531Y150573D01*
X212069Y151437D01*
X212059Y151445D01*
X212055Y151458D01*
X211433Y152216D01*
X211422Y152221D01*
X211416Y152233D01*
X210658Y152855D01*
X210646Y152858D01*
X210637Y152869D01*
X209773Y153331D01*
X209761Y153332D01*
X209750Y153340D01*
X208812Y153625D01*
X208800Y153623D01*
X208788Y153630D01*
X207812Y153726D01*
X207801Y153722D01*
X207788Y153726D01*
X206812Y153630D01*
X206801Y153624D01*
X206788Y153625D01*
X205850Y153340D01*
X205841Y153332D01*
X205827Y153331D01*
X204963Y152869D01*
X204955Y152859D01*
X204942Y152855D01*
X204184Y152233D01*
X204179Y152222D01*
X204167Y152216D01*
X203545Y151458D01*
X203542Y151446D01*
X203531Y151437D01*
X203069Y150573D01*
X203068Y150561D01*
X203060Y150550D01*
X202775Y149612D01*
X202777Y149600D01*
X202770Y149588D01*
X202674Y148612D01*
X202678Y148601D01*
X202674Y148588D01*
X202770Y147612D01*
X202776Y147601D01*
X202775Y147588D01*
X203060Y146650D01*
X203068Y146641D01*
X203069Y146627D01*
X203531Y145763D01*
X203541Y145755D01*
X203545Y145742D01*
X204167Y144984D01*
X204178Y144979D01*
X204184Y144967D01*
X204942Y144345D01*
X204954Y144342D01*
X204963Y144331D01*
X205827Y143869D01*
X205839Y143868D01*
X205850Y143860D01*
X206788Y143575D01*
X206800Y143577D01*
X206812Y143570D01*
X207788Y143474D01*
X207799Y143478D01*
X207812Y143474D01*
X208788Y143570D01*
G37*
G36*
X335788Y143570D02*
X335788Y143570D01*
X335799Y143576D01*
X335812Y143575D01*
X336750Y143860D01*
X336759Y143868D01*
X336773Y143869D01*
X337637Y144331D01*
X337645Y144341D01*
X337658Y144345D01*
X338416Y144967D01*
X338421Y144978D01*
X338433Y144984D01*
X339055Y145742D01*
X339058Y145754D01*
X339069Y145763D01*
X339531Y146627D01*
X339532Y146639D01*
X339540Y146650D01*
X339825Y147588D01*
X339823Y147600D01*
X339830Y147612D01*
X339926Y148588D01*
X339922Y148599D01*
X339926Y148612D01*
X339830Y149588D01*
X339824Y149599D01*
X339825Y149612D01*
X339540Y150550D01*
X339532Y150559D01*
X339531Y150573D01*
X339069Y151437D01*
X339059Y151445D01*
X339055Y151458D01*
X338433Y152216D01*
X338422Y152221D01*
X338416Y152233D01*
X337658Y152855D01*
X337646Y152858D01*
X337637Y152869D01*
X336773Y153331D01*
X336761Y153332D01*
X336750Y153340D01*
X335812Y153625D01*
X335800Y153623D01*
X335788Y153630D01*
X334812Y153726D01*
X334801Y153722D01*
X334788Y153726D01*
X333812Y153630D01*
X333801Y153624D01*
X333788Y153625D01*
X332850Y153340D01*
X332841Y153332D01*
X332827Y153331D01*
X331963Y152869D01*
X331955Y152859D01*
X331942Y152855D01*
X331184Y152233D01*
X331179Y152222D01*
X331167Y152216D01*
X330545Y151458D01*
X330542Y151446D01*
X330531Y151437D01*
X330069Y150573D01*
X330068Y150561D01*
X330060Y150550D01*
X329775Y149612D01*
X329777Y149600D01*
X329770Y149588D01*
X329674Y148612D01*
X329678Y148601D01*
X329674Y148588D01*
X329770Y147612D01*
X329776Y147601D01*
X329775Y147588D01*
X330060Y146650D01*
X330068Y146641D01*
X330069Y146627D01*
X330531Y145763D01*
X330541Y145755D01*
X330545Y145742D01*
X331167Y144984D01*
X331178Y144979D01*
X331184Y144967D01*
X331942Y144345D01*
X331954Y144342D01*
X331963Y144331D01*
X332827Y143869D01*
X332839Y143868D01*
X332850Y143860D01*
X333788Y143575D01*
X333800Y143577D01*
X333812Y143570D01*
X334788Y143474D01*
X334799Y143478D01*
X334812Y143474D01*
X335788Y143570D01*
G37*
G36*
X208788Y131570D02*
X208788Y131570D01*
X208799Y131576D01*
X208812Y131575D01*
X209750Y131860D01*
X209759Y131868D01*
X209773Y131869D01*
X210637Y132331D01*
X210645Y132341D01*
X210658Y132345D01*
X211416Y132967D01*
X211421Y132978D01*
X211433Y132984D01*
X212055Y133742D01*
X212058Y133754D01*
X212069Y133763D01*
X212531Y134627D01*
X212532Y134639D01*
X212540Y134650D01*
X212825Y135588D01*
X212823Y135600D01*
X212830Y135612D01*
X212926Y136588D01*
X212922Y136599D01*
X212926Y136612D01*
X212830Y137588D01*
X212824Y137599D01*
X212825Y137612D01*
X212540Y138550D01*
X212532Y138559D01*
X212531Y138573D01*
X212069Y139437D01*
X212059Y139445D01*
X212055Y139458D01*
X211433Y140216D01*
X211422Y140221D01*
X211416Y140233D01*
X210658Y140855D01*
X210646Y140858D01*
X210637Y140869D01*
X209773Y141331D01*
X209761Y141332D01*
X209750Y141340D01*
X208812Y141625D01*
X208800Y141623D01*
X208788Y141630D01*
X207812Y141726D01*
X207801Y141722D01*
X207788Y141726D01*
X206812Y141630D01*
X206801Y141624D01*
X206788Y141625D01*
X205850Y141340D01*
X205841Y141332D01*
X205827Y141331D01*
X204963Y140869D01*
X204955Y140859D01*
X204942Y140855D01*
X204184Y140233D01*
X204179Y140222D01*
X204167Y140216D01*
X203545Y139458D01*
X203542Y139446D01*
X203531Y139437D01*
X203069Y138573D01*
X203068Y138561D01*
X203060Y138550D01*
X202775Y137612D01*
X202777Y137600D01*
X202770Y137588D01*
X202674Y136612D01*
X202678Y136601D01*
X202674Y136588D01*
X202770Y135612D01*
X202776Y135601D01*
X202775Y135588D01*
X203060Y134650D01*
X203068Y134641D01*
X203069Y134627D01*
X203531Y133763D01*
X203541Y133755D01*
X203545Y133742D01*
X204167Y132984D01*
X204178Y132979D01*
X204184Y132967D01*
X204942Y132345D01*
X204954Y132342D01*
X204963Y132331D01*
X205827Y131869D01*
X205839Y131868D01*
X205850Y131860D01*
X206788Y131575D01*
X206800Y131577D01*
X206812Y131570D01*
X207788Y131474D01*
X207799Y131478D01*
X207812Y131474D01*
X208788Y131570D01*
G37*
G36*
X335788Y131570D02*
X335788Y131570D01*
X335799Y131576D01*
X335812Y131575D01*
X336750Y131860D01*
X336759Y131868D01*
X336773Y131869D01*
X337637Y132331D01*
X337645Y132341D01*
X337658Y132345D01*
X338416Y132967D01*
X338421Y132978D01*
X338433Y132984D01*
X339055Y133742D01*
X339058Y133754D01*
X339069Y133763D01*
X339531Y134627D01*
X339532Y134639D01*
X339540Y134650D01*
X339825Y135588D01*
X339823Y135600D01*
X339830Y135612D01*
X339926Y136588D01*
X339922Y136599D01*
X339926Y136612D01*
X339830Y137588D01*
X339824Y137599D01*
X339825Y137612D01*
X339540Y138550D01*
X339532Y138559D01*
X339531Y138573D01*
X339069Y139437D01*
X339059Y139445D01*
X339055Y139458D01*
X338433Y140216D01*
X338422Y140221D01*
X338416Y140233D01*
X337658Y140855D01*
X337646Y140858D01*
X337637Y140869D01*
X336773Y141331D01*
X336761Y141332D01*
X336750Y141340D01*
X335812Y141625D01*
X335800Y141623D01*
X335788Y141630D01*
X334812Y141726D01*
X334801Y141722D01*
X334788Y141726D01*
X333812Y141630D01*
X333801Y141624D01*
X333788Y141625D01*
X332850Y141340D01*
X332841Y141332D01*
X332827Y141331D01*
X331963Y140869D01*
X331955Y140859D01*
X331942Y140855D01*
X331184Y140233D01*
X331179Y140222D01*
X331167Y140216D01*
X330545Y139458D01*
X330542Y139446D01*
X330531Y139437D01*
X330069Y138573D01*
X330068Y138561D01*
X330060Y138550D01*
X329775Y137612D01*
X329777Y137600D01*
X329770Y137588D01*
X329674Y136612D01*
X329678Y136601D01*
X329674Y136588D01*
X329770Y135612D01*
X329776Y135601D01*
X329775Y135588D01*
X330060Y134650D01*
X330068Y134641D01*
X330069Y134627D01*
X330531Y133763D01*
X330541Y133755D01*
X330545Y133742D01*
X331167Y132984D01*
X331178Y132979D01*
X331184Y132967D01*
X331942Y132345D01*
X331954Y132342D01*
X331963Y132331D01*
X332827Y131869D01*
X332839Y131868D01*
X332850Y131860D01*
X333788Y131575D01*
X333800Y131577D01*
X333812Y131570D01*
X334788Y131474D01*
X334799Y131478D01*
X334812Y131474D01*
X335788Y131570D01*
G37*
G36*
X172788Y131570D02*
X172788Y131570D01*
X172799Y131576D01*
X172812Y131575D01*
X173750Y131860D01*
X173759Y131868D01*
X173773Y131869D01*
X174637Y132331D01*
X174645Y132341D01*
X174658Y132345D01*
X175416Y132967D01*
X175421Y132978D01*
X175433Y132984D01*
X176055Y133742D01*
X176058Y133754D01*
X176069Y133763D01*
X176531Y134627D01*
X176532Y134639D01*
X176540Y134650D01*
X176825Y135588D01*
X176823Y135600D01*
X176830Y135612D01*
X176926Y136588D01*
X176922Y136599D01*
X176926Y136612D01*
X176830Y137588D01*
X176824Y137599D01*
X176825Y137612D01*
X176540Y138550D01*
X176532Y138559D01*
X176531Y138573D01*
X176069Y139437D01*
X176059Y139445D01*
X176055Y139458D01*
X175433Y140216D01*
X175422Y140221D01*
X175416Y140233D01*
X174658Y140855D01*
X174646Y140858D01*
X174637Y140869D01*
X173773Y141331D01*
X173761Y141332D01*
X173750Y141340D01*
X172812Y141625D01*
X172800Y141623D01*
X172788Y141630D01*
X171812Y141726D01*
X171801Y141722D01*
X171788Y141726D01*
X170812Y141630D01*
X170801Y141624D01*
X170788Y141625D01*
X169850Y141340D01*
X169841Y141332D01*
X169827Y141331D01*
X168963Y140869D01*
X168955Y140859D01*
X168942Y140855D01*
X168184Y140233D01*
X168179Y140222D01*
X168167Y140216D01*
X167545Y139458D01*
X167542Y139446D01*
X167531Y139437D01*
X167069Y138573D01*
X167068Y138561D01*
X167060Y138550D01*
X166775Y137612D01*
X166777Y137600D01*
X166770Y137588D01*
X166674Y136612D01*
X166678Y136601D01*
X166674Y136588D01*
X166770Y135612D01*
X166776Y135601D01*
X166775Y135588D01*
X167060Y134650D01*
X167068Y134641D01*
X167069Y134627D01*
X167531Y133763D01*
X167541Y133755D01*
X167545Y133742D01*
X168167Y132984D01*
X168178Y132979D01*
X168184Y132967D01*
X168942Y132345D01*
X168954Y132342D01*
X168963Y132331D01*
X169827Y131869D01*
X169839Y131868D01*
X169850Y131860D01*
X170788Y131575D01*
X170800Y131577D01*
X170812Y131570D01*
X171788Y131474D01*
X171799Y131478D01*
X171812Y131474D01*
X172788Y131570D01*
G37*
G36*
X299788Y131570D02*
X299788Y131570D01*
X299799Y131576D01*
X299812Y131575D01*
X300750Y131860D01*
X300759Y131868D01*
X300773Y131869D01*
X301637Y132331D01*
X301645Y132341D01*
X301658Y132345D01*
X302416Y132967D01*
X302421Y132978D01*
X302433Y132984D01*
X303055Y133742D01*
X303058Y133754D01*
X303069Y133763D01*
X303531Y134627D01*
X303532Y134639D01*
X303540Y134650D01*
X303825Y135588D01*
X303823Y135600D01*
X303830Y135612D01*
X303926Y136588D01*
X303922Y136599D01*
X303926Y136612D01*
X303830Y137588D01*
X303824Y137599D01*
X303825Y137612D01*
X303540Y138550D01*
X303532Y138559D01*
X303531Y138573D01*
X303069Y139437D01*
X303059Y139445D01*
X303055Y139458D01*
X302433Y140216D01*
X302422Y140221D01*
X302416Y140233D01*
X301658Y140855D01*
X301646Y140858D01*
X301637Y140869D01*
X300773Y141331D01*
X300761Y141332D01*
X300750Y141340D01*
X299812Y141625D01*
X299800Y141623D01*
X299788Y141630D01*
X298812Y141726D01*
X298801Y141722D01*
X298788Y141726D01*
X297812Y141630D01*
X297801Y141624D01*
X297788Y141625D01*
X296850Y141340D01*
X296841Y141332D01*
X296827Y141331D01*
X295963Y140869D01*
X295955Y140859D01*
X295942Y140855D01*
X295184Y140233D01*
X295179Y140222D01*
X295167Y140216D01*
X294545Y139458D01*
X294542Y139446D01*
X294531Y139437D01*
X294069Y138573D01*
X294068Y138561D01*
X294060Y138550D01*
X293775Y137612D01*
X293777Y137600D01*
X293770Y137588D01*
X293674Y136612D01*
X293678Y136601D01*
X293674Y136588D01*
X293770Y135612D01*
X293776Y135601D01*
X293775Y135588D01*
X294060Y134650D01*
X294068Y134641D01*
X294069Y134627D01*
X294531Y133763D01*
X294541Y133755D01*
X294545Y133742D01*
X295167Y132984D01*
X295178Y132979D01*
X295184Y132967D01*
X295942Y132345D01*
X295954Y132342D01*
X295963Y132331D01*
X296827Y131869D01*
X296839Y131868D01*
X296850Y131860D01*
X297788Y131575D01*
X297800Y131577D01*
X297812Y131570D01*
X298788Y131474D01*
X298799Y131478D01*
X298812Y131474D01*
X299788Y131570D01*
G37*
G36*
X299788Y143570D02*
X299788Y143570D01*
X299799Y143576D01*
X299812Y143575D01*
X300750Y143860D01*
X300759Y143868D01*
X300773Y143869D01*
X301637Y144331D01*
X301645Y144341D01*
X301658Y144345D01*
X302416Y144967D01*
X302421Y144978D01*
X302433Y144984D01*
X303055Y145742D01*
X303058Y145754D01*
X303069Y145763D01*
X303531Y146627D01*
X303532Y146639D01*
X303540Y146650D01*
X303825Y147588D01*
X303823Y147600D01*
X303830Y147612D01*
X303926Y148588D01*
X303922Y148599D01*
X303926Y148612D01*
X303830Y149588D01*
X303824Y149599D01*
X303825Y149612D01*
X303540Y150550D01*
X303532Y150559D01*
X303531Y150573D01*
X303069Y151437D01*
X303059Y151445D01*
X303055Y151458D01*
X302433Y152216D01*
X302422Y152221D01*
X302416Y152233D01*
X301658Y152855D01*
X301646Y152858D01*
X301637Y152869D01*
X300773Y153331D01*
X300761Y153332D01*
X300750Y153340D01*
X299812Y153625D01*
X299800Y153623D01*
X299788Y153630D01*
X298812Y153726D01*
X298801Y153722D01*
X298788Y153726D01*
X297812Y153630D01*
X297801Y153624D01*
X297788Y153625D01*
X296850Y153340D01*
X296841Y153332D01*
X296827Y153331D01*
X295963Y152869D01*
X295955Y152859D01*
X295942Y152855D01*
X295184Y152233D01*
X295179Y152222D01*
X295167Y152216D01*
X294545Y151458D01*
X294542Y151446D01*
X294531Y151437D01*
X294069Y150573D01*
X294068Y150561D01*
X294060Y150550D01*
X293775Y149612D01*
X293777Y149600D01*
X293770Y149588D01*
X293674Y148612D01*
X293678Y148601D01*
X293674Y148588D01*
X293770Y147612D01*
X293776Y147601D01*
X293775Y147588D01*
X294060Y146650D01*
X294068Y146641D01*
X294069Y146627D01*
X294531Y145763D01*
X294541Y145755D01*
X294545Y145742D01*
X295167Y144984D01*
X295178Y144979D01*
X295184Y144967D01*
X295942Y144345D01*
X295954Y144342D01*
X295963Y144331D01*
X296827Y143869D01*
X296839Y143868D01*
X296850Y143860D01*
X297788Y143575D01*
X297800Y143577D01*
X297812Y143570D01*
X298788Y143474D01*
X298799Y143478D01*
X298812Y143474D01*
X299788Y143570D01*
G37*
G36*
X172788Y143570D02*
X172788Y143570D01*
X172799Y143576D01*
X172812Y143575D01*
X173750Y143860D01*
X173759Y143868D01*
X173773Y143869D01*
X174637Y144331D01*
X174645Y144341D01*
X174658Y144345D01*
X175416Y144967D01*
X175421Y144978D01*
X175433Y144984D01*
X176055Y145742D01*
X176058Y145754D01*
X176069Y145763D01*
X176531Y146627D01*
X176532Y146639D01*
X176540Y146650D01*
X176825Y147588D01*
X176823Y147600D01*
X176830Y147612D01*
X176926Y148588D01*
X176922Y148599D01*
X176926Y148612D01*
X176830Y149588D01*
X176824Y149599D01*
X176825Y149612D01*
X176540Y150550D01*
X176532Y150559D01*
X176531Y150573D01*
X176069Y151437D01*
X176059Y151445D01*
X176055Y151458D01*
X175433Y152216D01*
X175422Y152221D01*
X175416Y152233D01*
X174658Y152855D01*
X174646Y152858D01*
X174637Y152869D01*
X173773Y153331D01*
X173761Y153332D01*
X173750Y153340D01*
X172812Y153625D01*
X172800Y153623D01*
X172788Y153630D01*
X171812Y153726D01*
X171801Y153722D01*
X171788Y153726D01*
X170812Y153630D01*
X170801Y153624D01*
X170788Y153625D01*
X169850Y153340D01*
X169841Y153332D01*
X169827Y153331D01*
X168963Y152869D01*
X168955Y152859D01*
X168942Y152855D01*
X168184Y152233D01*
X168179Y152222D01*
X168167Y152216D01*
X167545Y151458D01*
X167542Y151446D01*
X167531Y151437D01*
X167069Y150573D01*
X167068Y150561D01*
X167060Y150550D01*
X166775Y149612D01*
X166777Y149600D01*
X166770Y149588D01*
X166674Y148612D01*
X166678Y148601D01*
X166674Y148588D01*
X166770Y147612D01*
X166776Y147601D01*
X166775Y147588D01*
X167060Y146650D01*
X167068Y146641D01*
X167069Y146627D01*
X167531Y145763D01*
X167541Y145755D01*
X167545Y145742D01*
X168167Y144984D01*
X168178Y144979D01*
X168184Y144967D01*
X168942Y144345D01*
X168954Y144342D01*
X168963Y144331D01*
X169827Y143869D01*
X169839Y143868D01*
X169850Y143860D01*
X170788Y143575D01*
X170800Y143577D01*
X170812Y143570D01*
X171788Y143474D01*
X171799Y143478D01*
X171812Y143474D01*
X172788Y143570D01*
G37*
G36*
X311788Y155570D02*
X311788Y155570D01*
X311799Y155576D01*
X311812Y155575D01*
X312750Y155860D01*
X312759Y155868D01*
X312773Y155869D01*
X313637Y156331D01*
X313645Y156341D01*
X313658Y156345D01*
X314416Y156967D01*
X314421Y156978D01*
X314433Y156984D01*
X315055Y157742D01*
X315058Y157754D01*
X315069Y157763D01*
X315531Y158627D01*
X315532Y158639D01*
X315540Y158650D01*
X315825Y159588D01*
X315823Y159600D01*
X315830Y159612D01*
X315926Y160588D01*
X315922Y160599D01*
X315926Y160612D01*
X315830Y161588D01*
X315824Y161599D01*
X315825Y161612D01*
X315540Y162550D01*
X315532Y162559D01*
X315531Y162573D01*
X315069Y163437D01*
X315059Y163445D01*
X315055Y163458D01*
X314433Y164216D01*
X314422Y164221D01*
X314416Y164233D01*
X313658Y164855D01*
X313646Y164858D01*
X313637Y164869D01*
X312773Y165331D01*
X312761Y165332D01*
X312750Y165340D01*
X311812Y165625D01*
X311800Y165623D01*
X311788Y165630D01*
X310812Y165726D01*
X310801Y165722D01*
X310788Y165726D01*
X309812Y165630D01*
X309801Y165624D01*
X309788Y165625D01*
X308850Y165340D01*
X308841Y165332D01*
X308827Y165331D01*
X307963Y164869D01*
X307955Y164859D01*
X307942Y164855D01*
X307184Y164233D01*
X307179Y164222D01*
X307167Y164216D01*
X306545Y163458D01*
X306542Y163446D01*
X306531Y163437D01*
X306069Y162573D01*
X306068Y162561D01*
X306060Y162550D01*
X305775Y161612D01*
X305777Y161600D01*
X305770Y161588D01*
X305674Y160612D01*
X305678Y160601D01*
X305674Y160588D01*
X305770Y159612D01*
X305776Y159601D01*
X305775Y159588D01*
X306060Y158650D01*
X306068Y158641D01*
X306069Y158627D01*
X306531Y157763D01*
X306541Y157755D01*
X306545Y157742D01*
X307167Y156984D01*
X307178Y156979D01*
X307184Y156967D01*
X307942Y156345D01*
X307954Y156342D01*
X307963Y156331D01*
X308827Y155869D01*
X308839Y155868D01*
X308850Y155860D01*
X309788Y155575D01*
X309800Y155577D01*
X309812Y155570D01*
X310788Y155474D01*
X310799Y155478D01*
X310812Y155474D01*
X311788Y155570D01*
G37*
G36*
X184788Y155570D02*
X184788Y155570D01*
X184799Y155576D01*
X184812Y155575D01*
X185750Y155860D01*
X185759Y155868D01*
X185773Y155869D01*
X186637Y156331D01*
X186645Y156341D01*
X186658Y156345D01*
X187416Y156967D01*
X187421Y156978D01*
X187433Y156984D01*
X188055Y157742D01*
X188058Y157754D01*
X188069Y157763D01*
X188531Y158627D01*
X188532Y158639D01*
X188540Y158650D01*
X188825Y159588D01*
X188823Y159600D01*
X188830Y159612D01*
X188926Y160588D01*
X188922Y160599D01*
X188926Y160612D01*
X188830Y161588D01*
X188824Y161599D01*
X188825Y161612D01*
X188540Y162550D01*
X188532Y162559D01*
X188531Y162573D01*
X188069Y163437D01*
X188059Y163445D01*
X188055Y163458D01*
X187433Y164216D01*
X187422Y164221D01*
X187416Y164233D01*
X186658Y164855D01*
X186646Y164858D01*
X186637Y164869D01*
X185773Y165331D01*
X185761Y165332D01*
X185750Y165340D01*
X184812Y165625D01*
X184800Y165623D01*
X184788Y165630D01*
X183812Y165726D01*
X183801Y165722D01*
X183788Y165726D01*
X182812Y165630D01*
X182801Y165624D01*
X182788Y165625D01*
X181850Y165340D01*
X181841Y165332D01*
X181827Y165331D01*
X180963Y164869D01*
X180955Y164859D01*
X180942Y164855D01*
X180184Y164233D01*
X180179Y164222D01*
X180167Y164216D01*
X179545Y163458D01*
X179542Y163446D01*
X179531Y163437D01*
X179069Y162573D01*
X179068Y162561D01*
X179060Y162550D01*
X178775Y161612D01*
X178777Y161600D01*
X178770Y161588D01*
X178674Y160612D01*
X178678Y160601D01*
X178674Y160588D01*
X178770Y159612D01*
X178776Y159601D01*
X178775Y159588D01*
X179060Y158650D01*
X179068Y158641D01*
X179069Y158627D01*
X179531Y157763D01*
X179541Y157755D01*
X179545Y157742D01*
X180167Y156984D01*
X180178Y156979D01*
X180184Y156967D01*
X180942Y156345D01*
X180954Y156342D01*
X180963Y156331D01*
X181827Y155869D01*
X181839Y155868D01*
X181850Y155860D01*
X182788Y155575D01*
X182800Y155577D01*
X182812Y155570D01*
X183788Y155474D01*
X183799Y155478D01*
X183812Y155474D01*
X184788Y155570D01*
G37*
G36*
X311788Y167570D02*
X311788Y167570D01*
X311799Y167576D01*
X311812Y167575D01*
X312750Y167860D01*
X312759Y167868D01*
X312773Y167869D01*
X313637Y168331D01*
X313645Y168341D01*
X313658Y168345D01*
X314416Y168967D01*
X314421Y168978D01*
X314433Y168984D01*
X315055Y169742D01*
X315058Y169754D01*
X315069Y169763D01*
X315531Y170627D01*
X315532Y170639D01*
X315540Y170650D01*
X315825Y171588D01*
X315823Y171600D01*
X315830Y171612D01*
X315926Y172588D01*
X315922Y172599D01*
X315926Y172612D01*
X315830Y173588D01*
X315824Y173599D01*
X315825Y173612D01*
X315540Y174550D01*
X315532Y174559D01*
X315531Y174573D01*
X315069Y175437D01*
X315059Y175445D01*
X315055Y175458D01*
X314433Y176216D01*
X314422Y176221D01*
X314416Y176233D01*
X313658Y176855D01*
X313646Y176858D01*
X313637Y176869D01*
X312773Y177331D01*
X312761Y177332D01*
X312750Y177340D01*
X311812Y177625D01*
X311800Y177623D01*
X311788Y177630D01*
X310812Y177726D01*
X310801Y177722D01*
X310788Y177726D01*
X309812Y177630D01*
X309801Y177624D01*
X309788Y177625D01*
X308850Y177340D01*
X308841Y177332D01*
X308827Y177331D01*
X307963Y176869D01*
X307955Y176859D01*
X307942Y176855D01*
X307184Y176233D01*
X307179Y176222D01*
X307167Y176216D01*
X306545Y175458D01*
X306542Y175446D01*
X306531Y175437D01*
X306069Y174573D01*
X306068Y174561D01*
X306060Y174550D01*
X305775Y173612D01*
X305777Y173600D01*
X305770Y173588D01*
X305674Y172612D01*
X305678Y172601D01*
X305674Y172588D01*
X305770Y171612D01*
X305776Y171601D01*
X305775Y171588D01*
X306060Y170650D01*
X306068Y170641D01*
X306069Y170627D01*
X306531Y169763D01*
X306541Y169755D01*
X306545Y169742D01*
X307167Y168984D01*
X307178Y168979D01*
X307184Y168967D01*
X307942Y168345D01*
X307954Y168342D01*
X307963Y168331D01*
X308827Y167869D01*
X308839Y167868D01*
X308850Y167860D01*
X309788Y167575D01*
X309800Y167577D01*
X309812Y167570D01*
X310788Y167474D01*
X310799Y167478D01*
X310812Y167474D01*
X311788Y167570D01*
G37*
G36*
X184788Y167570D02*
X184788Y167570D01*
X184799Y167576D01*
X184812Y167575D01*
X185750Y167860D01*
X185759Y167868D01*
X185773Y167869D01*
X186637Y168331D01*
X186645Y168341D01*
X186658Y168345D01*
X187416Y168967D01*
X187421Y168978D01*
X187433Y168984D01*
X188055Y169742D01*
X188058Y169754D01*
X188069Y169763D01*
X188531Y170627D01*
X188532Y170639D01*
X188540Y170650D01*
X188825Y171588D01*
X188823Y171600D01*
X188830Y171612D01*
X188926Y172588D01*
X188922Y172599D01*
X188926Y172612D01*
X188830Y173588D01*
X188824Y173599D01*
X188825Y173612D01*
X188540Y174550D01*
X188532Y174559D01*
X188531Y174573D01*
X188069Y175437D01*
X188059Y175445D01*
X188055Y175458D01*
X187433Y176216D01*
X187422Y176221D01*
X187416Y176233D01*
X186658Y176855D01*
X186646Y176858D01*
X186637Y176869D01*
X185773Y177331D01*
X185761Y177332D01*
X185750Y177340D01*
X184812Y177625D01*
X184800Y177623D01*
X184788Y177630D01*
X183812Y177726D01*
X183801Y177722D01*
X183788Y177726D01*
X182812Y177630D01*
X182801Y177624D01*
X182788Y177625D01*
X181850Y177340D01*
X181841Y177332D01*
X181827Y177331D01*
X180963Y176869D01*
X180955Y176859D01*
X180942Y176855D01*
X180184Y176233D01*
X180179Y176222D01*
X180167Y176216D01*
X179545Y175458D01*
X179542Y175446D01*
X179531Y175437D01*
X179069Y174573D01*
X179068Y174561D01*
X179060Y174550D01*
X178775Y173612D01*
X178777Y173600D01*
X178770Y173588D01*
X178674Y172612D01*
X178678Y172601D01*
X178674Y172588D01*
X178770Y171612D01*
X178776Y171601D01*
X178775Y171588D01*
X179060Y170650D01*
X179068Y170641D01*
X179069Y170627D01*
X179531Y169763D01*
X179541Y169755D01*
X179545Y169742D01*
X180167Y168984D01*
X180178Y168979D01*
X180184Y168967D01*
X180942Y168345D01*
X180954Y168342D01*
X180963Y168331D01*
X181827Y167869D01*
X181839Y167868D01*
X181850Y167860D01*
X182788Y167575D01*
X182800Y167577D01*
X182812Y167570D01*
X183788Y167474D01*
X183799Y167478D01*
X183812Y167474D01*
X184788Y167570D01*
G37*
G36*
X220788Y167570D02*
X220788Y167570D01*
X220799Y167576D01*
X220812Y167575D01*
X221750Y167860D01*
X221759Y167868D01*
X221773Y167869D01*
X222637Y168331D01*
X222645Y168341D01*
X222658Y168345D01*
X223416Y168967D01*
X223421Y168978D01*
X223433Y168984D01*
X224055Y169742D01*
X224058Y169754D01*
X224069Y169763D01*
X224531Y170627D01*
X224532Y170639D01*
X224540Y170650D01*
X224825Y171588D01*
X224823Y171600D01*
X224830Y171612D01*
X224926Y172588D01*
X224922Y172599D01*
X224926Y172612D01*
X224830Y173588D01*
X224824Y173599D01*
X224825Y173612D01*
X224540Y174550D01*
X224532Y174559D01*
X224531Y174573D01*
X224069Y175437D01*
X224059Y175445D01*
X224055Y175458D01*
X223433Y176216D01*
X223422Y176221D01*
X223416Y176233D01*
X222658Y176855D01*
X222646Y176858D01*
X222637Y176869D01*
X221773Y177331D01*
X221761Y177332D01*
X221750Y177340D01*
X220812Y177625D01*
X220800Y177623D01*
X220788Y177630D01*
X219812Y177726D01*
X219801Y177722D01*
X219788Y177726D01*
X218812Y177630D01*
X218801Y177624D01*
X218788Y177625D01*
X217850Y177340D01*
X217841Y177332D01*
X217827Y177331D01*
X216963Y176869D01*
X216955Y176859D01*
X216942Y176855D01*
X216184Y176233D01*
X216179Y176222D01*
X216167Y176216D01*
X215545Y175458D01*
X215542Y175446D01*
X215531Y175437D01*
X215069Y174573D01*
X215068Y174561D01*
X215060Y174550D01*
X214775Y173612D01*
X214777Y173600D01*
X214770Y173588D01*
X214674Y172612D01*
X214678Y172601D01*
X214674Y172588D01*
X214770Y171612D01*
X214776Y171601D01*
X214775Y171588D01*
X215060Y170650D01*
X215068Y170641D01*
X215069Y170627D01*
X215531Y169763D01*
X215541Y169755D01*
X215545Y169742D01*
X216167Y168984D01*
X216178Y168979D01*
X216184Y168967D01*
X216942Y168345D01*
X216954Y168342D01*
X216963Y168331D01*
X217827Y167869D01*
X217839Y167868D01*
X217850Y167860D01*
X218788Y167575D01*
X218800Y167577D01*
X218812Y167570D01*
X219788Y167474D01*
X219799Y167478D01*
X219812Y167474D01*
X220788Y167570D01*
G37*
G36*
X347788Y167570D02*
X347788Y167570D01*
X347799Y167576D01*
X347812Y167575D01*
X348750Y167860D01*
X348759Y167868D01*
X348773Y167869D01*
X349637Y168331D01*
X349645Y168341D01*
X349658Y168345D01*
X350416Y168967D01*
X350421Y168978D01*
X350433Y168984D01*
X351055Y169742D01*
X351058Y169754D01*
X351069Y169763D01*
X351531Y170627D01*
X351532Y170639D01*
X351540Y170650D01*
X351825Y171588D01*
X351823Y171600D01*
X351830Y171612D01*
X351926Y172588D01*
X351922Y172599D01*
X351926Y172612D01*
X351830Y173588D01*
X351824Y173599D01*
X351825Y173612D01*
X351540Y174550D01*
X351532Y174559D01*
X351531Y174573D01*
X351069Y175437D01*
X351059Y175445D01*
X351055Y175458D01*
X350433Y176216D01*
X350422Y176221D01*
X350416Y176233D01*
X349658Y176855D01*
X349646Y176858D01*
X349637Y176869D01*
X348773Y177331D01*
X348761Y177332D01*
X348750Y177340D01*
X347812Y177625D01*
X347800Y177623D01*
X347788Y177630D01*
X346812Y177726D01*
X346801Y177722D01*
X346788Y177726D01*
X345812Y177630D01*
X345801Y177624D01*
X345788Y177625D01*
X344850Y177340D01*
X344841Y177332D01*
X344827Y177331D01*
X343963Y176869D01*
X343955Y176859D01*
X343942Y176855D01*
X343184Y176233D01*
X343179Y176222D01*
X343167Y176216D01*
X342545Y175458D01*
X342542Y175446D01*
X342531Y175437D01*
X342069Y174573D01*
X342068Y174561D01*
X342060Y174550D01*
X341775Y173612D01*
X341777Y173600D01*
X341770Y173588D01*
X341674Y172612D01*
X341678Y172601D01*
X341674Y172588D01*
X341770Y171612D01*
X341776Y171601D01*
X341775Y171588D01*
X342060Y170650D01*
X342068Y170641D01*
X342069Y170627D01*
X342531Y169763D01*
X342541Y169755D01*
X342545Y169742D01*
X343167Y168984D01*
X343178Y168979D01*
X343184Y168967D01*
X343942Y168345D01*
X343954Y168342D01*
X343963Y168331D01*
X344827Y167869D01*
X344839Y167868D01*
X344850Y167860D01*
X345788Y167575D01*
X345800Y167577D01*
X345812Y167570D01*
X346788Y167474D01*
X346799Y167478D01*
X346812Y167474D01*
X347788Y167570D01*
G37*
G36*
X184788Y143570D02*
X184788Y143570D01*
X184799Y143576D01*
X184812Y143575D01*
X185750Y143860D01*
X185759Y143868D01*
X185773Y143869D01*
X186637Y144331D01*
X186645Y144341D01*
X186658Y144345D01*
X187416Y144967D01*
X187421Y144978D01*
X187433Y144984D01*
X188055Y145742D01*
X188058Y145754D01*
X188069Y145763D01*
X188531Y146627D01*
X188532Y146639D01*
X188540Y146650D01*
X188825Y147588D01*
X188823Y147600D01*
X188830Y147612D01*
X188926Y148588D01*
X188922Y148599D01*
X188926Y148612D01*
X188830Y149588D01*
X188824Y149599D01*
X188825Y149612D01*
X188540Y150550D01*
X188532Y150559D01*
X188531Y150573D01*
X188069Y151437D01*
X188059Y151445D01*
X188055Y151458D01*
X187433Y152216D01*
X187422Y152221D01*
X187416Y152233D01*
X186658Y152855D01*
X186646Y152858D01*
X186637Y152869D01*
X185773Y153331D01*
X185761Y153332D01*
X185750Y153340D01*
X184812Y153625D01*
X184800Y153623D01*
X184788Y153630D01*
X183812Y153726D01*
X183801Y153722D01*
X183788Y153726D01*
X182812Y153630D01*
X182801Y153624D01*
X182788Y153625D01*
X181850Y153340D01*
X181841Y153332D01*
X181827Y153331D01*
X180963Y152869D01*
X180955Y152859D01*
X180942Y152855D01*
X180184Y152233D01*
X180179Y152222D01*
X180167Y152216D01*
X179545Y151458D01*
X179542Y151446D01*
X179531Y151437D01*
X179069Y150573D01*
X179068Y150561D01*
X179060Y150550D01*
X178775Y149612D01*
X178777Y149600D01*
X178770Y149588D01*
X178674Y148612D01*
X178678Y148601D01*
X178674Y148588D01*
X178770Y147612D01*
X178776Y147601D01*
X178775Y147588D01*
X179060Y146650D01*
X179068Y146641D01*
X179069Y146627D01*
X179531Y145763D01*
X179541Y145755D01*
X179545Y145742D01*
X180167Y144984D01*
X180178Y144979D01*
X180184Y144967D01*
X180942Y144345D01*
X180954Y144342D01*
X180963Y144331D01*
X181827Y143869D01*
X181839Y143868D01*
X181850Y143860D01*
X182788Y143575D01*
X182800Y143577D01*
X182812Y143570D01*
X183788Y143474D01*
X183799Y143478D01*
X183812Y143474D01*
X184788Y143570D01*
G37*
G36*
X311788Y143570D02*
X311788Y143570D01*
X311799Y143576D01*
X311812Y143575D01*
X312750Y143860D01*
X312759Y143868D01*
X312773Y143869D01*
X313637Y144331D01*
X313645Y144341D01*
X313658Y144345D01*
X314416Y144967D01*
X314421Y144978D01*
X314433Y144984D01*
X315055Y145742D01*
X315058Y145754D01*
X315069Y145763D01*
X315531Y146627D01*
X315532Y146639D01*
X315540Y146650D01*
X315825Y147588D01*
X315823Y147600D01*
X315830Y147612D01*
X315926Y148588D01*
X315922Y148599D01*
X315926Y148612D01*
X315830Y149588D01*
X315824Y149599D01*
X315825Y149612D01*
X315540Y150550D01*
X315532Y150559D01*
X315531Y150573D01*
X315069Y151437D01*
X315059Y151445D01*
X315055Y151458D01*
X314433Y152216D01*
X314422Y152221D01*
X314416Y152233D01*
X313658Y152855D01*
X313646Y152858D01*
X313637Y152869D01*
X312773Y153331D01*
X312761Y153332D01*
X312750Y153340D01*
X311812Y153625D01*
X311800Y153623D01*
X311788Y153630D01*
X310812Y153726D01*
X310801Y153722D01*
X310788Y153726D01*
X309812Y153630D01*
X309801Y153624D01*
X309788Y153625D01*
X308850Y153340D01*
X308841Y153332D01*
X308827Y153331D01*
X307963Y152869D01*
X307955Y152859D01*
X307942Y152855D01*
X307184Y152233D01*
X307179Y152222D01*
X307167Y152216D01*
X306545Y151458D01*
X306542Y151446D01*
X306531Y151437D01*
X306069Y150573D01*
X306068Y150561D01*
X306060Y150550D01*
X305775Y149612D01*
X305777Y149600D01*
X305770Y149588D01*
X305674Y148612D01*
X305678Y148601D01*
X305674Y148588D01*
X305770Y147612D01*
X305776Y147601D01*
X305775Y147588D01*
X306060Y146650D01*
X306068Y146641D01*
X306069Y146627D01*
X306531Y145763D01*
X306541Y145755D01*
X306545Y145742D01*
X307167Y144984D01*
X307178Y144979D01*
X307184Y144967D01*
X307942Y144345D01*
X307954Y144342D01*
X307963Y144331D01*
X308827Y143869D01*
X308839Y143868D01*
X308850Y143860D01*
X309788Y143575D01*
X309800Y143577D01*
X309812Y143570D01*
X310788Y143474D01*
X310799Y143478D01*
X310812Y143474D01*
X311788Y143570D01*
G37*
G36*
X184788Y131570D02*
X184788Y131570D01*
X184799Y131576D01*
X184812Y131575D01*
X185750Y131860D01*
X185759Y131868D01*
X185773Y131869D01*
X186637Y132331D01*
X186645Y132341D01*
X186658Y132345D01*
X187416Y132967D01*
X187421Y132978D01*
X187433Y132984D01*
X188055Y133742D01*
X188058Y133754D01*
X188069Y133763D01*
X188531Y134627D01*
X188532Y134639D01*
X188540Y134650D01*
X188825Y135588D01*
X188823Y135600D01*
X188830Y135612D01*
X188926Y136588D01*
X188922Y136599D01*
X188926Y136612D01*
X188830Y137588D01*
X188824Y137599D01*
X188825Y137612D01*
X188540Y138550D01*
X188532Y138559D01*
X188531Y138573D01*
X188069Y139437D01*
X188059Y139445D01*
X188055Y139458D01*
X187433Y140216D01*
X187422Y140221D01*
X187416Y140233D01*
X186658Y140855D01*
X186646Y140858D01*
X186637Y140869D01*
X185773Y141331D01*
X185761Y141332D01*
X185750Y141340D01*
X184812Y141625D01*
X184800Y141623D01*
X184788Y141630D01*
X183812Y141726D01*
X183801Y141722D01*
X183788Y141726D01*
X182812Y141630D01*
X182801Y141624D01*
X182788Y141625D01*
X181850Y141340D01*
X181841Y141332D01*
X181827Y141331D01*
X180963Y140869D01*
X180955Y140859D01*
X180942Y140855D01*
X180184Y140233D01*
X180179Y140222D01*
X180167Y140216D01*
X179545Y139458D01*
X179542Y139446D01*
X179531Y139437D01*
X179069Y138573D01*
X179068Y138561D01*
X179060Y138550D01*
X178775Y137612D01*
X178777Y137600D01*
X178770Y137588D01*
X178674Y136612D01*
X178678Y136601D01*
X178674Y136588D01*
X178770Y135612D01*
X178776Y135601D01*
X178775Y135588D01*
X179060Y134650D01*
X179068Y134641D01*
X179069Y134627D01*
X179531Y133763D01*
X179541Y133755D01*
X179545Y133742D01*
X180167Y132984D01*
X180178Y132979D01*
X180184Y132967D01*
X180942Y132345D01*
X180954Y132342D01*
X180963Y132331D01*
X181827Y131869D01*
X181839Y131868D01*
X181850Y131860D01*
X182788Y131575D01*
X182800Y131577D01*
X182812Y131570D01*
X183788Y131474D01*
X183799Y131478D01*
X183812Y131474D01*
X184788Y131570D01*
G37*
G36*
X311788Y131570D02*
X311788Y131570D01*
X311799Y131576D01*
X311812Y131575D01*
X312750Y131860D01*
X312759Y131868D01*
X312773Y131869D01*
X313637Y132331D01*
X313645Y132341D01*
X313658Y132345D01*
X314416Y132967D01*
X314421Y132978D01*
X314433Y132984D01*
X315055Y133742D01*
X315058Y133754D01*
X315069Y133763D01*
X315531Y134627D01*
X315532Y134639D01*
X315540Y134650D01*
X315825Y135588D01*
X315823Y135600D01*
X315830Y135612D01*
X315926Y136588D01*
X315922Y136599D01*
X315926Y136612D01*
X315830Y137588D01*
X315824Y137599D01*
X315825Y137612D01*
X315540Y138550D01*
X315532Y138559D01*
X315531Y138573D01*
X315069Y139437D01*
X315059Y139445D01*
X315055Y139458D01*
X314433Y140216D01*
X314422Y140221D01*
X314416Y140233D01*
X313658Y140855D01*
X313646Y140858D01*
X313637Y140869D01*
X312773Y141331D01*
X312761Y141332D01*
X312750Y141340D01*
X311812Y141625D01*
X311800Y141623D01*
X311788Y141630D01*
X310812Y141726D01*
X310801Y141722D01*
X310788Y141726D01*
X309812Y141630D01*
X309801Y141624D01*
X309788Y141625D01*
X308850Y141340D01*
X308841Y141332D01*
X308827Y141331D01*
X307963Y140869D01*
X307955Y140859D01*
X307942Y140855D01*
X307184Y140233D01*
X307179Y140222D01*
X307167Y140216D01*
X306545Y139458D01*
X306542Y139446D01*
X306531Y139437D01*
X306069Y138573D01*
X306068Y138561D01*
X306060Y138550D01*
X305775Y137612D01*
X305777Y137600D01*
X305770Y137588D01*
X305674Y136612D01*
X305678Y136601D01*
X305674Y136588D01*
X305770Y135612D01*
X305776Y135601D01*
X305775Y135588D01*
X306060Y134650D01*
X306068Y134641D01*
X306069Y134627D01*
X306531Y133763D01*
X306541Y133755D01*
X306545Y133742D01*
X307167Y132984D01*
X307178Y132979D01*
X307184Y132967D01*
X307942Y132345D01*
X307954Y132342D01*
X307963Y132331D01*
X308827Y131869D01*
X308839Y131868D01*
X308850Y131860D01*
X309788Y131575D01*
X309800Y131577D01*
X309812Y131570D01*
X310788Y131474D01*
X310799Y131478D01*
X310812Y131474D01*
X311788Y131570D01*
G37*
D10*
X50800Y38100D03*
D11*
X88900Y163500D03*
X88900Y176500D03*
D12*
X64800Y88900D03*
X36800Y88900D03*
X64800Y114300D03*
X36800Y114300D03*
D13*
X75400Y257900D03*
X62400Y257900D03*
D14*
X101800Y208300D03*
X120800Y208300D03*
X101900Y229200D03*
X120900Y229200D03*
D11*
X372900Y298200D03*
X372900Y285200D03*
D15*
X125600Y296200D03*
X141600Y296200D03*
D16*
X322700Y393700D03*
X337700Y393700D03*
X259200Y393700D03*
X274200Y393700D03*
X195700Y393700D03*
X210700Y393700D03*
X132200Y393700D03*
X147200Y393700D03*
D10*
X419100Y38100D03*
D17*
X171100Y229300D03*
X188100Y229300D03*
X78000Y295900D03*
X61000Y295900D03*
D18*
X20100Y181200D03*
X20100Y164200D03*
D17*
X139600Y229100D03*
X156600Y229100D03*
X77600Y274900D03*
X60600Y274900D03*
D18*
X425100Y355100D03*
X425100Y338100D03*
X148100Y36600D03*
X148100Y19600D03*
D17*
X389800Y348000D03*
X372800Y348000D03*
X144400Y255000D03*
X161400Y255000D03*
X93100Y393700D03*
X110100Y393700D03*
X390200Y326200D03*
X373200Y326200D03*
D19*
X270313Y318037D02*
X255687Y318037D01*
X255687Y322163D01*
X270313Y322163D01*
X270313Y318037D01*
X270313Y319343D02*
X255687Y319343D01*
X255687Y320649D02*
X270313Y320649D01*
X270313Y321955D02*
X255687Y321955D01*
X255687Y310037D02*
X270313Y310037D01*
X255687Y310037D02*
X255687Y314163D01*
X270313Y314163D01*
X270313Y310037D01*
X270313Y311343D02*
X255687Y311343D01*
X255687Y312649D02*
X270313Y312649D01*
X270313Y313955D02*
X255687Y313955D01*
X255687Y302037D02*
X270313Y302037D01*
X255687Y302037D02*
X255687Y306163D01*
X270313Y306163D01*
X270313Y302037D01*
X270313Y303343D02*
X255687Y303343D01*
X255687Y304649D02*
X270313Y304649D01*
X270313Y305955D02*
X255687Y305955D01*
X255687Y294037D02*
X270313Y294037D01*
X255687Y294037D02*
X255687Y298163D01*
X270313Y298163D01*
X270313Y294037D01*
X270313Y295343D02*
X255687Y295343D01*
X255687Y296649D02*
X270313Y296649D01*
X270313Y297955D02*
X255687Y297955D01*
X255687Y286037D02*
X270313Y286037D01*
X255687Y286037D02*
X255687Y290163D01*
X270313Y290163D01*
X270313Y286037D01*
X270313Y287343D02*
X255687Y287343D01*
X255687Y288649D02*
X270313Y288649D01*
X270313Y289955D02*
X255687Y289955D01*
X255687Y278037D02*
X270313Y278037D01*
X255687Y278037D02*
X255687Y282163D01*
X270313Y282163D01*
X270313Y278037D01*
X270313Y279343D02*
X255687Y279343D01*
X255687Y280649D02*
X270313Y280649D01*
X270313Y281955D02*
X255687Y281955D01*
X255687Y270037D02*
X270313Y270037D01*
X255687Y270037D02*
X255687Y274163D01*
X270313Y274163D01*
X270313Y270037D01*
X270313Y271343D02*
X255687Y271343D01*
X255687Y272649D02*
X270313Y272649D01*
X270313Y273955D02*
X255687Y273955D01*
X255687Y262037D02*
X270313Y262037D01*
X255687Y262037D02*
X255687Y266163D01*
X270313Y266163D01*
X270313Y262037D01*
X270313Y263343D02*
X255687Y263343D01*
X255687Y264649D02*
X270313Y264649D01*
X270313Y265955D02*
X255687Y265955D01*
X339287Y262037D02*
X353913Y262037D01*
X339287Y262037D02*
X339287Y266163D01*
X353913Y266163D01*
X353913Y262037D01*
X353913Y263343D02*
X339287Y263343D01*
X339287Y264649D02*
X353913Y264649D01*
X353913Y265955D02*
X339287Y265955D01*
X339287Y270037D02*
X353913Y270037D01*
X339287Y270037D02*
X339287Y274163D01*
X353913Y274163D01*
X353913Y270037D01*
X353913Y271343D02*
X339287Y271343D01*
X339287Y272649D02*
X353913Y272649D01*
X353913Y273955D02*
X339287Y273955D01*
X339287Y278037D02*
X353913Y278037D01*
X339287Y278037D02*
X339287Y282163D01*
X353913Y282163D01*
X353913Y278037D01*
X353913Y279343D02*
X339287Y279343D01*
X339287Y280649D02*
X353913Y280649D01*
X353913Y281955D02*
X339287Y281955D01*
X339287Y286037D02*
X353913Y286037D01*
X339287Y286037D02*
X339287Y290163D01*
X353913Y290163D01*
X353913Y286037D01*
X353913Y287343D02*
X339287Y287343D01*
X339287Y288649D02*
X353913Y288649D01*
X353913Y289955D02*
X339287Y289955D01*
X339287Y294037D02*
X353913Y294037D01*
X339287Y294037D02*
X339287Y298163D01*
X353913Y298163D01*
X353913Y294037D01*
X353913Y295343D02*
X339287Y295343D01*
X339287Y296649D02*
X353913Y296649D01*
X353913Y297955D02*
X339287Y297955D01*
X339287Y302037D02*
X353913Y302037D01*
X339287Y302037D02*
X339287Y306163D01*
X353913Y306163D01*
X353913Y302037D01*
X353913Y303343D02*
X339287Y303343D01*
X339287Y304649D02*
X353913Y304649D01*
X353913Y305955D02*
X339287Y305955D01*
X339287Y310037D02*
X353913Y310037D01*
X339287Y310037D02*
X339287Y314163D01*
X353913Y314163D01*
X353913Y310037D01*
X353913Y311343D02*
X339287Y311343D01*
X339287Y312649D02*
X353913Y312649D01*
X353913Y313955D02*
X339287Y313955D01*
X339287Y318037D02*
X353913Y318037D01*
X339287Y318037D02*
X339287Y322163D01*
X353913Y322163D01*
X353913Y318037D01*
X353913Y319343D02*
X339287Y319343D01*
X339287Y320649D02*
X353913Y320649D01*
X353913Y321955D02*
X339287Y321955D01*
X330737Y326587D02*
X330737Y341213D01*
X334863Y341213D01*
X334863Y326587D01*
X330737Y326587D01*
X330737Y327893D02*
X334863Y327893D01*
X334863Y329199D02*
X330737Y329199D01*
X330737Y330505D02*
X334863Y330505D01*
X334863Y331811D02*
X330737Y331811D01*
X330737Y333117D02*
X334863Y333117D01*
X334863Y334423D02*
X330737Y334423D01*
X330737Y335729D02*
X334863Y335729D01*
X334863Y337035D02*
X330737Y337035D01*
X330737Y338341D02*
X334863Y338341D01*
X334863Y339647D02*
X330737Y339647D01*
X330737Y340953D02*
X334863Y340953D01*
X322737Y341213D02*
X322737Y326587D01*
X322737Y341213D02*
X326863Y341213D01*
X326863Y326587D01*
X322737Y326587D01*
X322737Y327893D02*
X326863Y327893D01*
X326863Y329199D02*
X322737Y329199D01*
X322737Y330505D02*
X326863Y330505D01*
X326863Y331811D02*
X322737Y331811D01*
X322737Y333117D02*
X326863Y333117D01*
X326863Y334423D02*
X322737Y334423D01*
X322737Y335729D02*
X326863Y335729D01*
X326863Y337035D02*
X322737Y337035D01*
X322737Y338341D02*
X326863Y338341D01*
X326863Y339647D02*
X322737Y339647D01*
X322737Y340953D02*
X326863Y340953D01*
X314737Y341213D02*
X314737Y326587D01*
X314737Y341213D02*
X318863Y341213D01*
X318863Y326587D01*
X314737Y326587D01*
X314737Y327893D02*
X318863Y327893D01*
X318863Y329199D02*
X314737Y329199D01*
X314737Y330505D02*
X318863Y330505D01*
X318863Y331811D02*
X314737Y331811D01*
X314737Y333117D02*
X318863Y333117D01*
X318863Y334423D02*
X314737Y334423D01*
X314737Y335729D02*
X318863Y335729D01*
X318863Y337035D02*
X314737Y337035D01*
X314737Y338341D02*
X318863Y338341D01*
X318863Y339647D02*
X314737Y339647D01*
X314737Y340953D02*
X318863Y340953D01*
X306737Y341213D02*
X306737Y326587D01*
X306737Y341213D02*
X310863Y341213D01*
X310863Y326587D01*
X306737Y326587D01*
X306737Y327893D02*
X310863Y327893D01*
X310863Y329199D02*
X306737Y329199D01*
X306737Y330505D02*
X310863Y330505D01*
X310863Y331811D02*
X306737Y331811D01*
X306737Y333117D02*
X310863Y333117D01*
X310863Y334423D02*
X306737Y334423D01*
X306737Y335729D02*
X310863Y335729D01*
X310863Y337035D02*
X306737Y337035D01*
X306737Y338341D02*
X310863Y338341D01*
X310863Y339647D02*
X306737Y339647D01*
X306737Y340953D02*
X310863Y340953D01*
X298737Y341213D02*
X298737Y326587D01*
X298737Y341213D02*
X302863Y341213D01*
X302863Y326587D01*
X298737Y326587D01*
X298737Y327893D02*
X302863Y327893D01*
X302863Y329199D02*
X298737Y329199D01*
X298737Y330505D02*
X302863Y330505D01*
X302863Y331811D02*
X298737Y331811D01*
X298737Y333117D02*
X302863Y333117D01*
X302863Y334423D02*
X298737Y334423D01*
X298737Y335729D02*
X302863Y335729D01*
X302863Y337035D02*
X298737Y337035D01*
X298737Y338341D02*
X302863Y338341D01*
X302863Y339647D02*
X298737Y339647D01*
X298737Y340953D02*
X302863Y340953D01*
X290737Y341213D02*
X290737Y326587D01*
X290737Y341213D02*
X294863Y341213D01*
X294863Y326587D01*
X290737Y326587D01*
X290737Y327893D02*
X294863Y327893D01*
X294863Y329199D02*
X290737Y329199D01*
X290737Y330505D02*
X294863Y330505D01*
X294863Y331811D02*
X290737Y331811D01*
X290737Y333117D02*
X294863Y333117D01*
X294863Y334423D02*
X290737Y334423D01*
X290737Y335729D02*
X294863Y335729D01*
X294863Y337035D02*
X290737Y337035D01*
X290737Y338341D02*
X294863Y338341D01*
X294863Y339647D02*
X290737Y339647D01*
X290737Y340953D02*
X294863Y340953D01*
X282737Y341213D02*
X282737Y326587D01*
X282737Y341213D02*
X286863Y341213D01*
X286863Y326587D01*
X282737Y326587D01*
X282737Y327893D02*
X286863Y327893D01*
X286863Y329199D02*
X282737Y329199D01*
X282737Y330505D02*
X286863Y330505D01*
X286863Y331811D02*
X282737Y331811D01*
X282737Y333117D02*
X286863Y333117D01*
X286863Y334423D02*
X282737Y334423D01*
X282737Y335729D02*
X286863Y335729D01*
X286863Y337035D02*
X282737Y337035D01*
X282737Y338341D02*
X286863Y338341D01*
X286863Y339647D02*
X282737Y339647D01*
X282737Y340953D02*
X286863Y340953D01*
X274737Y341213D02*
X274737Y326587D01*
X274737Y341213D02*
X278863Y341213D01*
X278863Y326587D01*
X274737Y326587D01*
X274737Y327893D02*
X278863Y327893D01*
X278863Y329199D02*
X274737Y329199D01*
X274737Y330505D02*
X278863Y330505D01*
X278863Y331811D02*
X274737Y331811D01*
X274737Y333117D02*
X278863Y333117D01*
X278863Y334423D02*
X274737Y334423D01*
X274737Y335729D02*
X278863Y335729D01*
X278863Y337035D02*
X274737Y337035D01*
X274737Y338341D02*
X278863Y338341D01*
X278863Y339647D02*
X274737Y339647D01*
X274737Y340953D02*
X278863Y340953D01*
X274737Y257613D02*
X274737Y242987D01*
X274737Y257613D02*
X278863Y257613D01*
X278863Y242987D01*
X274737Y242987D01*
X274737Y244293D02*
X278863Y244293D01*
X278863Y245599D02*
X274737Y245599D01*
X274737Y246905D02*
X278863Y246905D01*
X278863Y248211D02*
X274737Y248211D01*
X274737Y249517D02*
X278863Y249517D01*
X278863Y250823D02*
X274737Y250823D01*
X274737Y252129D02*
X278863Y252129D01*
X278863Y253435D02*
X274737Y253435D01*
X274737Y254741D02*
X278863Y254741D01*
X278863Y256047D02*
X274737Y256047D01*
X274737Y257353D02*
X278863Y257353D01*
X282737Y257613D02*
X282737Y242987D01*
X282737Y257613D02*
X286863Y257613D01*
X286863Y242987D01*
X282737Y242987D01*
X282737Y244293D02*
X286863Y244293D01*
X286863Y245599D02*
X282737Y245599D01*
X282737Y246905D02*
X286863Y246905D01*
X286863Y248211D02*
X282737Y248211D01*
X282737Y249517D02*
X286863Y249517D01*
X286863Y250823D02*
X282737Y250823D01*
X282737Y252129D02*
X286863Y252129D01*
X286863Y253435D02*
X282737Y253435D01*
X282737Y254741D02*
X286863Y254741D01*
X286863Y256047D02*
X282737Y256047D01*
X282737Y257353D02*
X286863Y257353D01*
X290737Y257613D02*
X290737Y242987D01*
X290737Y257613D02*
X294863Y257613D01*
X294863Y242987D01*
X290737Y242987D01*
X290737Y244293D02*
X294863Y244293D01*
X294863Y245599D02*
X290737Y245599D01*
X290737Y246905D02*
X294863Y246905D01*
X294863Y248211D02*
X290737Y248211D01*
X290737Y249517D02*
X294863Y249517D01*
X294863Y250823D02*
X290737Y250823D01*
X290737Y252129D02*
X294863Y252129D01*
X294863Y253435D02*
X290737Y253435D01*
X290737Y254741D02*
X294863Y254741D01*
X294863Y256047D02*
X290737Y256047D01*
X290737Y257353D02*
X294863Y257353D01*
X298737Y257613D02*
X298737Y242987D01*
X298737Y257613D02*
X302863Y257613D01*
X302863Y242987D01*
X298737Y242987D01*
X298737Y244293D02*
X302863Y244293D01*
X302863Y245599D02*
X298737Y245599D01*
X298737Y246905D02*
X302863Y246905D01*
X302863Y248211D02*
X298737Y248211D01*
X298737Y249517D02*
X302863Y249517D01*
X302863Y250823D02*
X298737Y250823D01*
X298737Y252129D02*
X302863Y252129D01*
X302863Y253435D02*
X298737Y253435D01*
X298737Y254741D02*
X302863Y254741D01*
X302863Y256047D02*
X298737Y256047D01*
X298737Y257353D02*
X302863Y257353D01*
X306737Y257613D02*
X306737Y242987D01*
X306737Y257613D02*
X310863Y257613D01*
X310863Y242987D01*
X306737Y242987D01*
X306737Y244293D02*
X310863Y244293D01*
X310863Y245599D02*
X306737Y245599D01*
X306737Y246905D02*
X310863Y246905D01*
X310863Y248211D02*
X306737Y248211D01*
X306737Y249517D02*
X310863Y249517D01*
X310863Y250823D02*
X306737Y250823D01*
X306737Y252129D02*
X310863Y252129D01*
X310863Y253435D02*
X306737Y253435D01*
X306737Y254741D02*
X310863Y254741D01*
X310863Y256047D02*
X306737Y256047D01*
X306737Y257353D02*
X310863Y257353D01*
X314737Y257613D02*
X314737Y242987D01*
X314737Y257613D02*
X318863Y257613D01*
X318863Y242987D01*
X314737Y242987D01*
X314737Y244293D02*
X318863Y244293D01*
X318863Y245599D02*
X314737Y245599D01*
X314737Y246905D02*
X318863Y246905D01*
X318863Y248211D02*
X314737Y248211D01*
X314737Y249517D02*
X318863Y249517D01*
X318863Y250823D02*
X314737Y250823D01*
X314737Y252129D02*
X318863Y252129D01*
X318863Y253435D02*
X314737Y253435D01*
X314737Y254741D02*
X318863Y254741D01*
X318863Y256047D02*
X314737Y256047D01*
X314737Y257353D02*
X318863Y257353D01*
X322737Y257613D02*
X322737Y242987D01*
X322737Y257613D02*
X326863Y257613D01*
X326863Y242987D01*
X322737Y242987D01*
X322737Y244293D02*
X326863Y244293D01*
X326863Y245599D02*
X322737Y245599D01*
X322737Y246905D02*
X326863Y246905D01*
X326863Y248211D02*
X322737Y248211D01*
X322737Y249517D02*
X326863Y249517D01*
X326863Y250823D02*
X322737Y250823D01*
X322737Y252129D02*
X326863Y252129D01*
X326863Y253435D02*
X322737Y253435D01*
X322737Y254741D02*
X326863Y254741D01*
X326863Y256047D02*
X322737Y256047D01*
X322737Y257353D02*
X326863Y257353D01*
X330737Y257613D02*
X330737Y242987D01*
X330737Y257613D02*
X334863Y257613D01*
X334863Y242987D01*
X330737Y242987D01*
X330737Y244293D02*
X334863Y244293D01*
X334863Y245599D02*
X330737Y245599D01*
X330737Y246905D02*
X334863Y246905D01*
X334863Y248211D02*
X330737Y248211D01*
X330737Y249517D02*
X334863Y249517D01*
X334863Y250823D02*
X330737Y250823D01*
X330737Y252129D02*
X334863Y252129D01*
X334863Y253435D02*
X330737Y253435D01*
X330737Y254741D02*
X334863Y254741D01*
X334863Y256047D02*
X330737Y256047D01*
X330737Y257353D02*
X334863Y257353D01*
D20*
X36200Y215400D03*
X72200Y215400D03*
D21*
X37811Y174600D03*
X37811Y165100D03*
X37811Y155600D03*
X63790Y155600D03*
X63790Y165100D03*
X63790Y174600D03*
D22*
X135800Y61800D03*
X147800Y61800D03*
X159800Y61800D03*
X171800Y61800D03*
X183800Y61800D03*
X195800Y61800D03*
X207800Y61800D03*
X219800Y61800D03*
D23*
X171958Y148844D03*
D22*
X262800Y61800D03*
X274800Y61800D03*
X286800Y61800D03*
X298800Y61800D03*
X310800Y61800D03*
X322800Y61800D03*
X334800Y61800D03*
X346800Y61800D03*
D23*
X298958Y148844D03*
D15*
G36*
X113586Y268071D02*
X119243Y273728D01*
X127728Y265243D01*
X122071Y259586D01*
X113586Y268071D01*
G37*
G36*
X102272Y256757D02*
X107929Y262414D01*
X116414Y253929D01*
X110757Y248272D01*
X102272Y256757D01*
G37*
D24*
X157000Y212000D03*
X157000Y196000D03*
M02*
