G04 EAGLE Gerber RS-274X export*
G75*
%MOMM*%
%FSLAX34Y34*%
%LPD*%
%INSoldermask Top*%
%IPPOS*%
%AMOC8*
5,1,8,0,0,1.08239X$1,22.5*%
G01*
%ADD10R,6.654800X3.454400*%
%ADD11R,1.103200X0.903200*%
%ADD12R,1.803200X2.003200*%
%ADD13R,0.903200X1.103200*%
%ADD14R,1.503200X1.703200*%
%ADD15R,1.003200X1.403200*%
%ADD16R,1.727200X1.727200*%
%ADD17P,1.869504X8X202.500000*%
%ADD18R,1.625600X1.625600*%
%ADD19C,1.625600*%
%ADD20R,1.003200X1.003200*%
%ADD21R,1.203200X1.303200*%
%ADD22R,1.303200X1.203200*%
%ADD23R,1.503200X1.503200*%
%ADD24C,0.338938*%
%ADD25R,1.701800X4.191000*%
%ADD26R,1.099300X0.720400*%
%ADD27R,1.003200X3.003200*%
%ADD28R,0.330200X0.330200*%
%ADD29P,1.869504X8X292.500000*%
%ADD30R,1.403200X1.003200*%
%ADD31C,0.959600*%

G36*
X355302Y100675D02*
X355302Y100675D01*
X355304Y100674D01*
X355347Y100694D01*
X355391Y100712D01*
X355391Y100714D01*
X355393Y100715D01*
X355426Y100800D01*
X355426Y137800D01*
X355425Y137802D01*
X355426Y137804D01*
X355406Y137847D01*
X355388Y137891D01*
X355386Y137891D01*
X355385Y137893D01*
X355300Y137926D01*
X348426Y137926D01*
X348426Y166674D01*
X355346Y166674D01*
X355348Y166675D01*
X355350Y166674D01*
X355393Y166694D01*
X355437Y166712D01*
X355438Y166714D01*
X355440Y166715D01*
X355472Y166800D01*
X355426Y180800D01*
X355425Y180802D01*
X355426Y180804D01*
X355406Y180848D01*
X355388Y180891D01*
X355386Y180892D01*
X355385Y180893D01*
X355300Y180926D01*
X254300Y180926D01*
X254298Y180925D01*
X254296Y180926D01*
X254253Y180906D01*
X254209Y180888D01*
X254209Y180886D01*
X254207Y180885D01*
X254174Y180800D01*
X254174Y166800D01*
X254175Y166798D01*
X254174Y166796D01*
X254194Y166753D01*
X254212Y166709D01*
X254214Y166709D01*
X254215Y166707D01*
X254300Y166674D01*
X261174Y166674D01*
X261174Y137926D01*
X254300Y137926D01*
X254298Y137925D01*
X254296Y137926D01*
X254253Y137906D01*
X254209Y137888D01*
X254209Y137886D01*
X254207Y137885D01*
X254174Y137800D01*
X254174Y100800D01*
X254175Y100798D01*
X254174Y100796D01*
X254194Y100753D01*
X254212Y100709D01*
X254214Y100709D01*
X254215Y100707D01*
X254300Y100674D01*
X355300Y100674D01*
X355302Y100675D01*
G37*
G36*
X228302Y100675D02*
X228302Y100675D01*
X228304Y100674D01*
X228347Y100694D01*
X228391Y100712D01*
X228391Y100714D01*
X228393Y100715D01*
X228426Y100800D01*
X228426Y137800D01*
X228425Y137802D01*
X228426Y137804D01*
X228406Y137847D01*
X228388Y137891D01*
X228386Y137891D01*
X228385Y137893D01*
X228300Y137926D01*
X221426Y137926D01*
X221426Y166674D01*
X228346Y166674D01*
X228348Y166675D01*
X228350Y166674D01*
X228393Y166694D01*
X228437Y166712D01*
X228438Y166714D01*
X228440Y166715D01*
X228472Y166800D01*
X228426Y180800D01*
X228425Y180802D01*
X228426Y180804D01*
X228406Y180848D01*
X228388Y180891D01*
X228386Y180892D01*
X228385Y180893D01*
X228300Y180926D01*
X127300Y180926D01*
X127298Y180925D01*
X127296Y180926D01*
X127253Y180906D01*
X127209Y180888D01*
X127209Y180886D01*
X127207Y180885D01*
X127174Y180800D01*
X127174Y166800D01*
X127175Y166798D01*
X127174Y166796D01*
X127194Y166753D01*
X127212Y166709D01*
X127214Y166709D01*
X127215Y166707D01*
X127300Y166674D01*
X134174Y166674D01*
X134174Y137926D01*
X127300Y137926D01*
X127298Y137925D01*
X127296Y137926D01*
X127253Y137906D01*
X127209Y137888D01*
X127209Y137886D01*
X127207Y137885D01*
X127174Y137800D01*
X127174Y100800D01*
X127175Y100798D01*
X127174Y100796D01*
X127194Y100753D01*
X127212Y100709D01*
X127214Y100709D01*
X127215Y100707D01*
X127300Y100674D01*
X228300Y100674D01*
X228302Y100675D01*
G37*
G36*
X381164Y9475D02*
X381164Y9475D01*
X381328Y9482D01*
X381388Y9495D01*
X381449Y9501D01*
X381607Y9544D01*
X381768Y9580D01*
X381824Y9603D01*
X381883Y9619D01*
X382031Y9690D01*
X382183Y9753D01*
X382235Y9786D01*
X382290Y9813D01*
X382423Y9908D01*
X382561Y9998D01*
X382619Y10049D01*
X382656Y10075D01*
X382698Y10118D01*
X382796Y10204D01*
X388796Y16204D01*
X388901Y16331D01*
X389013Y16452D01*
X389045Y16503D01*
X389084Y16550D01*
X389166Y16693D01*
X389254Y16831D01*
X389278Y16888D01*
X389308Y16941D01*
X389363Y17096D01*
X389425Y17248D01*
X389438Y17308D01*
X389459Y17365D01*
X389485Y17527D01*
X389520Y17688D01*
X389525Y17765D01*
X389532Y17809D01*
X389531Y17870D01*
X389539Y18000D01*
X389539Y37000D01*
X389525Y37164D01*
X389518Y37328D01*
X389505Y37388D01*
X389499Y37449D01*
X389456Y37607D01*
X389420Y37768D01*
X389397Y37824D01*
X389381Y37883D01*
X389310Y38031D01*
X389247Y38183D01*
X389214Y38235D01*
X389187Y38290D01*
X389092Y38423D01*
X389002Y38561D01*
X388951Y38619D01*
X388925Y38656D01*
X388882Y38698D01*
X388796Y38796D01*
X386796Y40796D01*
X386669Y40901D01*
X386548Y41013D01*
X386497Y41045D01*
X386450Y41084D01*
X386307Y41166D01*
X386169Y41254D01*
X386112Y41278D01*
X386059Y41308D01*
X385904Y41363D01*
X385752Y41425D01*
X385692Y41438D01*
X385635Y41459D01*
X385473Y41485D01*
X385312Y41520D01*
X385235Y41525D01*
X385191Y41532D01*
X385130Y41531D01*
X385000Y41539D01*
X358052Y41539D01*
X352796Y46796D01*
X352669Y46901D01*
X352548Y47013D01*
X352497Y47045D01*
X352450Y47084D01*
X352307Y47166D01*
X352169Y47254D01*
X352112Y47278D01*
X352059Y47308D01*
X351904Y47363D01*
X351752Y47425D01*
X351692Y47438D01*
X351635Y47459D01*
X351473Y47485D01*
X351312Y47520D01*
X351235Y47525D01*
X351191Y47532D01*
X351130Y47531D01*
X351000Y47539D01*
X313052Y47539D01*
X312796Y47796D01*
X312769Y47818D01*
X312746Y47844D01*
X312597Y47961D01*
X312450Y48084D01*
X312420Y48102D01*
X312393Y48123D01*
X312225Y48213D01*
X312059Y48308D01*
X312027Y48319D01*
X311996Y48336D01*
X311815Y48395D01*
X311635Y48459D01*
X311601Y48464D01*
X311568Y48475D01*
X311379Y48501D01*
X311191Y48532D01*
X311156Y48532D01*
X311122Y48536D01*
X310931Y48529D01*
X310740Y48526D01*
X310706Y48519D01*
X310672Y48518D01*
X310486Y48477D01*
X310298Y48440D01*
X310266Y48428D01*
X310232Y48420D01*
X310056Y48347D01*
X309878Y48278D01*
X309849Y48260D01*
X309817Y48247D01*
X309657Y48143D01*
X309494Y48044D01*
X309468Y48021D01*
X309439Y48002D01*
X309204Y47796D01*
X300948Y39539D01*
X237052Y39539D01*
X225796Y50796D01*
X225669Y50901D01*
X225548Y51013D01*
X225497Y51045D01*
X225450Y51084D01*
X225307Y51166D01*
X225169Y51254D01*
X225112Y51278D01*
X225059Y51308D01*
X224904Y51363D01*
X224752Y51425D01*
X224692Y51438D01*
X224635Y51459D01*
X224473Y51485D01*
X224312Y51520D01*
X224235Y51525D01*
X224191Y51532D01*
X224130Y51531D01*
X224000Y51539D01*
X187000Y51539D01*
X186871Y51528D01*
X186740Y51526D01*
X186647Y51508D01*
X186552Y51499D01*
X186426Y51465D01*
X186298Y51440D01*
X186209Y51406D01*
X186117Y51381D01*
X186000Y51325D01*
X185878Y51278D01*
X185797Y51228D01*
X185711Y51187D01*
X185605Y51112D01*
X185494Y51044D01*
X185422Y50981D01*
X185344Y50925D01*
X185254Y50832D01*
X185156Y50746D01*
X185097Y50671D01*
X185030Y50603D01*
X184957Y50495D01*
X184877Y50393D01*
X184832Y50309D01*
X184778Y50230D01*
X184726Y50111D01*
X184664Y49996D01*
X184635Y49905D01*
X184596Y49818D01*
X184565Y49691D01*
X184525Y49568D01*
X184512Y49473D01*
X184489Y49380D01*
X184481Y49251D01*
X184464Y49122D01*
X184468Y49026D01*
X184462Y48931D01*
X184477Y48802D01*
X184482Y48672D01*
X184503Y48579D01*
X184514Y48484D01*
X184551Y48359D01*
X184580Y48232D01*
X184616Y48144D01*
X184644Y48053D01*
X184703Y47937D01*
X184753Y47817D01*
X184805Y47736D01*
X184848Y47651D01*
X184927Y47548D01*
X184998Y47439D01*
X185084Y47341D01*
X185120Y47293D01*
X185153Y47262D01*
X185204Y47204D01*
X222204Y10204D01*
X222331Y10099D01*
X222452Y9988D01*
X222503Y9955D01*
X222550Y9916D01*
X222693Y9834D01*
X222831Y9746D01*
X222888Y9722D01*
X222941Y9692D01*
X223096Y9637D01*
X223248Y9575D01*
X223308Y9562D01*
X223365Y9541D01*
X223527Y9515D01*
X223688Y9480D01*
X223765Y9475D01*
X223809Y9468D01*
X223870Y9469D01*
X224000Y9461D01*
X381000Y9461D01*
X381164Y9475D01*
G37*
G36*
X350802Y68509D02*
X350802Y68509D01*
X350804Y68508D01*
X350847Y68528D01*
X350891Y68546D01*
X350891Y68548D01*
X350893Y68549D01*
X350926Y68634D01*
X350926Y75800D01*
X350925Y75802D01*
X350926Y75804D01*
X350906Y75847D01*
X350888Y75891D01*
X350886Y75891D01*
X350885Y75893D01*
X350800Y75926D01*
X306800Y75926D01*
X306798Y75925D01*
X306796Y75926D01*
X306753Y75906D01*
X306709Y75888D01*
X306709Y75886D01*
X306707Y75885D01*
X306674Y75800D01*
X306674Y68634D01*
X306675Y68632D01*
X306674Y68630D01*
X306694Y68587D01*
X306712Y68543D01*
X306714Y68543D01*
X306715Y68541D01*
X306800Y68508D01*
X350800Y68508D01*
X350802Y68509D01*
G37*
G36*
X223802Y68509D02*
X223802Y68509D01*
X223804Y68508D01*
X223847Y68528D01*
X223891Y68546D01*
X223891Y68548D01*
X223893Y68549D01*
X223926Y68634D01*
X223926Y75800D01*
X223925Y75802D01*
X223926Y75804D01*
X223906Y75847D01*
X223888Y75891D01*
X223886Y75891D01*
X223885Y75893D01*
X223800Y75926D01*
X179800Y75926D01*
X179798Y75925D01*
X179796Y75926D01*
X179753Y75906D01*
X179709Y75888D01*
X179709Y75886D01*
X179707Y75885D01*
X179674Y75800D01*
X179674Y68634D01*
X179675Y68632D01*
X179674Y68630D01*
X179694Y68587D01*
X179712Y68543D01*
X179714Y68543D01*
X179715Y68541D01*
X179800Y68508D01*
X223800Y68508D01*
X223802Y68509D01*
G37*
D10*
X50800Y38100D03*
D11*
X88900Y163500D03*
X88900Y176500D03*
D12*
X64800Y88900D03*
X36800Y88900D03*
X64800Y114300D03*
X36800Y114300D03*
D13*
X75400Y257900D03*
X62400Y257900D03*
D14*
X101800Y208300D03*
X120800Y208300D03*
X101900Y229200D03*
X120900Y229200D03*
D11*
X372900Y298200D03*
X372900Y285200D03*
D15*
X125600Y296200D03*
X141600Y296200D03*
D16*
X431800Y393700D03*
D17*
X406400Y393700D03*
X381000Y393700D03*
D18*
X19900Y296200D03*
D19*
X19900Y276200D03*
D20*
X322700Y393700D03*
X337700Y393700D03*
X259200Y393700D03*
X274200Y393700D03*
X195700Y393700D03*
X210700Y393700D03*
X132200Y393700D03*
X147200Y393700D03*
D10*
X419100Y38100D03*
D21*
X171100Y229300D03*
X188100Y229300D03*
X78000Y295900D03*
X61000Y295900D03*
D22*
X20100Y181200D03*
X20100Y164200D03*
D21*
X139600Y229100D03*
X156600Y229100D03*
X77600Y274900D03*
X60600Y274900D03*
D22*
X425100Y355100D03*
X425100Y338100D03*
X148100Y36600D03*
X148100Y19600D03*
D21*
X389800Y348000D03*
X372800Y348000D03*
X144400Y255000D03*
X161400Y255000D03*
X93100Y393700D03*
X110100Y393700D03*
X390200Y326200D03*
X373200Y326200D03*
D23*
X393700Y203200D03*
X393700Y152400D03*
X393700Y177800D03*
D24*
X270322Y318028D02*
X255678Y318028D01*
X255678Y322172D01*
X270322Y322172D01*
X270322Y318028D01*
X270322Y321248D02*
X255678Y321248D01*
X255678Y310028D02*
X270322Y310028D01*
X255678Y310028D02*
X255678Y314172D01*
X270322Y314172D01*
X270322Y310028D01*
X270322Y313248D02*
X255678Y313248D01*
X255678Y302028D02*
X270322Y302028D01*
X255678Y302028D02*
X255678Y306172D01*
X270322Y306172D01*
X270322Y302028D01*
X270322Y305248D02*
X255678Y305248D01*
X255678Y294028D02*
X270322Y294028D01*
X255678Y294028D02*
X255678Y298172D01*
X270322Y298172D01*
X270322Y294028D01*
X270322Y297248D02*
X255678Y297248D01*
X255678Y286028D02*
X270322Y286028D01*
X255678Y286028D02*
X255678Y290172D01*
X270322Y290172D01*
X270322Y286028D01*
X270322Y289248D02*
X255678Y289248D01*
X255678Y278028D02*
X270322Y278028D01*
X255678Y278028D02*
X255678Y282172D01*
X270322Y282172D01*
X270322Y278028D01*
X270322Y281248D02*
X255678Y281248D01*
X255678Y270028D02*
X270322Y270028D01*
X255678Y270028D02*
X255678Y274172D01*
X270322Y274172D01*
X270322Y270028D01*
X270322Y273248D02*
X255678Y273248D01*
X255678Y262028D02*
X270322Y262028D01*
X255678Y262028D02*
X255678Y266172D01*
X270322Y266172D01*
X270322Y262028D01*
X270322Y265248D02*
X255678Y265248D01*
X339278Y262028D02*
X353922Y262028D01*
X339278Y262028D02*
X339278Y266172D01*
X353922Y266172D01*
X353922Y262028D01*
X353922Y265248D02*
X339278Y265248D01*
X339278Y270028D02*
X353922Y270028D01*
X339278Y270028D02*
X339278Y274172D01*
X353922Y274172D01*
X353922Y270028D01*
X353922Y273248D02*
X339278Y273248D01*
X339278Y278028D02*
X353922Y278028D01*
X339278Y278028D02*
X339278Y282172D01*
X353922Y282172D01*
X353922Y278028D01*
X353922Y281248D02*
X339278Y281248D01*
X339278Y286028D02*
X353922Y286028D01*
X339278Y286028D02*
X339278Y290172D01*
X353922Y290172D01*
X353922Y286028D01*
X353922Y289248D02*
X339278Y289248D01*
X339278Y294028D02*
X353922Y294028D01*
X339278Y294028D02*
X339278Y298172D01*
X353922Y298172D01*
X353922Y294028D01*
X353922Y297248D02*
X339278Y297248D01*
X339278Y302028D02*
X353922Y302028D01*
X339278Y302028D02*
X339278Y306172D01*
X353922Y306172D01*
X353922Y302028D01*
X353922Y305248D02*
X339278Y305248D01*
X339278Y310028D02*
X353922Y310028D01*
X339278Y310028D02*
X339278Y314172D01*
X353922Y314172D01*
X353922Y310028D01*
X353922Y313248D02*
X339278Y313248D01*
X339278Y318028D02*
X353922Y318028D01*
X339278Y318028D02*
X339278Y322172D01*
X353922Y322172D01*
X353922Y318028D01*
X353922Y321248D02*
X339278Y321248D01*
X330728Y326578D02*
X330728Y341222D01*
X334872Y341222D01*
X334872Y326578D01*
X330728Y326578D01*
X330728Y329798D02*
X334872Y329798D01*
X334872Y333018D02*
X330728Y333018D01*
X330728Y336238D02*
X334872Y336238D01*
X334872Y339458D02*
X330728Y339458D01*
X322728Y341222D02*
X322728Y326578D01*
X322728Y341222D02*
X326872Y341222D01*
X326872Y326578D01*
X322728Y326578D01*
X322728Y329798D02*
X326872Y329798D01*
X326872Y333018D02*
X322728Y333018D01*
X322728Y336238D02*
X326872Y336238D01*
X326872Y339458D02*
X322728Y339458D01*
X314728Y341222D02*
X314728Y326578D01*
X314728Y341222D02*
X318872Y341222D01*
X318872Y326578D01*
X314728Y326578D01*
X314728Y329798D02*
X318872Y329798D01*
X318872Y333018D02*
X314728Y333018D01*
X314728Y336238D02*
X318872Y336238D01*
X318872Y339458D02*
X314728Y339458D01*
X306728Y341222D02*
X306728Y326578D01*
X306728Y341222D02*
X310872Y341222D01*
X310872Y326578D01*
X306728Y326578D01*
X306728Y329798D02*
X310872Y329798D01*
X310872Y333018D02*
X306728Y333018D01*
X306728Y336238D02*
X310872Y336238D01*
X310872Y339458D02*
X306728Y339458D01*
X298728Y341222D02*
X298728Y326578D01*
X298728Y341222D02*
X302872Y341222D01*
X302872Y326578D01*
X298728Y326578D01*
X298728Y329798D02*
X302872Y329798D01*
X302872Y333018D02*
X298728Y333018D01*
X298728Y336238D02*
X302872Y336238D01*
X302872Y339458D02*
X298728Y339458D01*
X290728Y341222D02*
X290728Y326578D01*
X290728Y341222D02*
X294872Y341222D01*
X294872Y326578D01*
X290728Y326578D01*
X290728Y329798D02*
X294872Y329798D01*
X294872Y333018D02*
X290728Y333018D01*
X290728Y336238D02*
X294872Y336238D01*
X294872Y339458D02*
X290728Y339458D01*
X282728Y341222D02*
X282728Y326578D01*
X282728Y341222D02*
X286872Y341222D01*
X286872Y326578D01*
X282728Y326578D01*
X282728Y329798D02*
X286872Y329798D01*
X286872Y333018D02*
X282728Y333018D01*
X282728Y336238D02*
X286872Y336238D01*
X286872Y339458D02*
X282728Y339458D01*
X274728Y341222D02*
X274728Y326578D01*
X274728Y341222D02*
X278872Y341222D01*
X278872Y326578D01*
X274728Y326578D01*
X274728Y329798D02*
X278872Y329798D01*
X278872Y333018D02*
X274728Y333018D01*
X274728Y336238D02*
X278872Y336238D01*
X278872Y339458D02*
X274728Y339458D01*
X274728Y257622D02*
X274728Y242978D01*
X274728Y257622D02*
X278872Y257622D01*
X278872Y242978D01*
X274728Y242978D01*
X274728Y246198D02*
X278872Y246198D01*
X278872Y249418D02*
X274728Y249418D01*
X274728Y252638D02*
X278872Y252638D01*
X278872Y255858D02*
X274728Y255858D01*
X282728Y257622D02*
X282728Y242978D01*
X282728Y257622D02*
X286872Y257622D01*
X286872Y242978D01*
X282728Y242978D01*
X282728Y246198D02*
X286872Y246198D01*
X286872Y249418D02*
X282728Y249418D01*
X282728Y252638D02*
X286872Y252638D01*
X286872Y255858D02*
X282728Y255858D01*
X290728Y257622D02*
X290728Y242978D01*
X290728Y257622D02*
X294872Y257622D01*
X294872Y242978D01*
X290728Y242978D01*
X290728Y246198D02*
X294872Y246198D01*
X294872Y249418D02*
X290728Y249418D01*
X290728Y252638D02*
X294872Y252638D01*
X294872Y255858D02*
X290728Y255858D01*
X298728Y257622D02*
X298728Y242978D01*
X298728Y257622D02*
X302872Y257622D01*
X302872Y242978D01*
X298728Y242978D01*
X298728Y246198D02*
X302872Y246198D01*
X302872Y249418D02*
X298728Y249418D01*
X298728Y252638D02*
X302872Y252638D01*
X302872Y255858D02*
X298728Y255858D01*
X306728Y257622D02*
X306728Y242978D01*
X306728Y257622D02*
X310872Y257622D01*
X310872Y242978D01*
X306728Y242978D01*
X306728Y246198D02*
X310872Y246198D01*
X310872Y249418D02*
X306728Y249418D01*
X306728Y252638D02*
X310872Y252638D01*
X310872Y255858D02*
X306728Y255858D01*
X314728Y257622D02*
X314728Y242978D01*
X314728Y257622D02*
X318872Y257622D01*
X318872Y242978D01*
X314728Y242978D01*
X314728Y246198D02*
X318872Y246198D01*
X318872Y249418D02*
X314728Y249418D01*
X314728Y252638D02*
X318872Y252638D01*
X318872Y255858D02*
X314728Y255858D01*
X322728Y257622D02*
X322728Y242978D01*
X322728Y257622D02*
X326872Y257622D01*
X326872Y242978D01*
X322728Y242978D01*
X322728Y246198D02*
X326872Y246198D01*
X326872Y249418D02*
X322728Y249418D01*
X322728Y252638D02*
X326872Y252638D01*
X326872Y255858D02*
X322728Y255858D01*
X330728Y257622D02*
X330728Y242978D01*
X330728Y257622D02*
X334872Y257622D01*
X334872Y242978D01*
X330728Y242978D01*
X330728Y246198D02*
X334872Y246198D01*
X334872Y249418D02*
X330728Y249418D01*
X330728Y252638D02*
X334872Y252638D01*
X334872Y255858D02*
X330728Y255858D01*
D25*
X36200Y215400D03*
X72200Y215400D03*
D26*
X37811Y174600D03*
X37811Y165100D03*
X37811Y155600D03*
X63790Y155600D03*
X63790Y165100D03*
X63790Y174600D03*
D27*
X135800Y61800D03*
X147800Y61800D03*
X159800Y61800D03*
X171800Y61800D03*
X183800Y61800D03*
X195800Y61800D03*
X207800Y61800D03*
X219800Y61800D03*
D28*
X171958Y148844D03*
D27*
X262800Y61800D03*
X274800Y61800D03*
X286800Y61800D03*
X298800Y61800D03*
X310800Y61800D03*
X322800Y61800D03*
X334800Y61800D03*
X346800Y61800D03*
D28*
X298958Y148844D03*
D16*
X419100Y203200D03*
D29*
X419100Y177800D03*
X419100Y152400D03*
D15*
G36*
X112150Y268071D02*
X119243Y275164D01*
X129164Y265243D01*
X122071Y258150D01*
X112150Y268071D01*
G37*
G36*
X100836Y256757D02*
X107929Y263850D01*
X117850Y253929D01*
X110757Y246836D01*
X100836Y256757D01*
G37*
D30*
X157000Y212000D03*
X157000Y196000D03*
D31*
X115000Y311000D03*
X78200Y71200D03*
X129000Y19000D03*
X246000Y60000D03*
X85000Y383000D03*
X90000Y296000D03*
X297000Y292000D03*
X410000Y75000D03*
X104000Y190000D03*
X389000Y224000D03*
X171000Y276000D03*
X157000Y289000D03*
X170000Y242000D03*
X242000Y313000D03*
X299000Y83000D03*
X177000Y83000D03*
X406000Y345000D03*
X403000Y331000D03*
X288000Y93000D03*
M02*
