G04 EAGLE Gerber RS-274X export*
G75*
%MOMM*%
%FSLAX34Y34*%
%LPD*%
%INSoldermask Bottom*%
%IPPOS*%
%AMOC8*
5,1,8,0,0,1.08239X$1,22.5*%
G01*
%ADD10R,1.303200X1.203200*%
%ADD11R,1.003200X1.003200*%
%ADD12R,1.203200X1.303200*%
%ADD13R,1.727200X1.727200*%
%ADD14P,1.869504X8X112.500000*%
%ADD15R,6.654800X3.454400*%
%ADD16R,0.903200X1.103200*%
%ADD17R,1.625600X1.625600*%
%ADD18C,1.625600*%
%ADD19R,1.003200X1.403200*%
%ADD20C,0.959600*%

G36*
X104090Y83251D02*
X104090Y83251D01*
X104142Y83252D01*
X104210Y83277D01*
X104280Y83292D01*
X104324Y83319D01*
X104373Y83337D01*
X104429Y83382D01*
X104491Y83418D01*
X104525Y83458D01*
X104565Y83490D01*
X104604Y83551D01*
X104651Y83605D01*
X104670Y83653D01*
X104698Y83697D01*
X104716Y83767D01*
X104743Y83833D01*
X104751Y83905D01*
X104759Y83936D01*
X104757Y83959D01*
X104761Y84000D01*
X104761Y85685D01*
X110538Y91462D01*
X110591Y91536D01*
X110651Y91605D01*
X110663Y91635D01*
X110682Y91661D01*
X110709Y91748D01*
X110743Y91833D01*
X110747Y91874D01*
X110754Y91897D01*
X110753Y91929D01*
X110761Y92000D01*
X110761Y185000D01*
X110747Y185090D01*
X110739Y185181D01*
X110727Y185211D01*
X110722Y185243D01*
X110679Y185323D01*
X110643Y185407D01*
X110617Y185439D01*
X110606Y185460D01*
X110583Y185482D01*
X110538Y185538D01*
X93538Y202538D01*
X93464Y202591D01*
X93395Y202651D01*
X93365Y202663D01*
X93339Y202682D01*
X93252Y202709D01*
X93167Y202743D01*
X93126Y202747D01*
X93103Y202754D01*
X93071Y202753D01*
X93000Y202761D01*
X84000Y202761D01*
X83980Y202758D01*
X83961Y202760D01*
X83859Y202738D01*
X83757Y202722D01*
X83740Y202712D01*
X83720Y202708D01*
X83631Y202655D01*
X83540Y202606D01*
X83526Y202592D01*
X83509Y202582D01*
X83442Y202503D01*
X83371Y202428D01*
X83362Y202410D01*
X83349Y202395D01*
X83310Y202299D01*
X83267Y202205D01*
X83265Y202185D01*
X83257Y202167D01*
X83239Y202000D01*
X83239Y179315D01*
X82462Y178538D01*
X82450Y178522D01*
X82435Y178510D01*
X82378Y178422D01*
X82318Y178339D01*
X82312Y178320D01*
X82302Y178303D01*
X82276Y178202D01*
X82246Y178103D01*
X82246Y178084D01*
X82241Y178064D01*
X82250Y177961D01*
X82252Y177858D01*
X82259Y177839D01*
X82261Y177819D01*
X82301Y177724D01*
X82337Y177627D01*
X82349Y177611D01*
X82357Y177593D01*
X82462Y177462D01*
X85239Y174685D01*
X85239Y174000D01*
X85254Y173910D01*
X85261Y173819D01*
X85273Y173789D01*
X85279Y173757D01*
X85321Y173677D01*
X85357Y173593D01*
X85383Y173561D01*
X85394Y173540D01*
X85417Y173518D01*
X85462Y173462D01*
X86239Y172685D01*
X86239Y101000D01*
X86254Y100910D01*
X86261Y100819D01*
X86273Y100789D01*
X86279Y100757D01*
X86321Y100677D01*
X86357Y100593D01*
X86383Y100561D01*
X86394Y100540D01*
X86417Y100518D01*
X86462Y100462D01*
X103462Y83462D01*
X103520Y83420D01*
X103572Y83371D01*
X103619Y83349D01*
X103661Y83318D01*
X103730Y83297D01*
X103795Y83267D01*
X103847Y83261D01*
X103897Y83246D01*
X103968Y83248D01*
X104039Y83240D01*
X104090Y83251D01*
G37*
D10*
X22400Y56500D03*
X22400Y73500D03*
D11*
X332500Y170000D03*
X347500Y170000D03*
X238500Y170000D03*
X253500Y170000D03*
X145500Y170000D03*
X160500Y170000D03*
X52500Y170000D03*
X67500Y170000D03*
D12*
X352700Y106800D03*
X335700Y106800D03*
X280900Y57300D03*
X263900Y57300D03*
X217000Y147700D03*
X234000Y147700D03*
X194400Y62200D03*
X211400Y62200D03*
X162400Y62500D03*
X179400Y62500D03*
D13*
X379800Y67200D03*
D14*
X379800Y92600D03*
X379800Y118000D03*
D15*
X351800Y28100D03*
X42800Y27300D03*
D10*
X261000Y114500D03*
X261000Y97500D03*
D12*
X312500Y58000D03*
X295500Y58000D03*
X200500Y93000D03*
X217500Y93000D03*
D16*
X88500Y143000D03*
X101500Y143000D03*
D17*
X379000Y167000D03*
D18*
X379000Y147000D03*
D19*
X192000Y152000D03*
X176000Y152000D03*
D20*
X111000Y146912D03*
X54000Y55000D03*
X164000Y114000D03*
X43000Y121000D03*
X196500Y110500D03*
X228000Y76000D03*
X332000Y87000D03*
X217000Y137000D03*
X210000Y111000D03*
X247000Y101000D03*
X298000Y102000D03*
X228000Y51000D03*
X274000Y74000D03*
X261000Y86000D03*
X337000Y157000D03*
X323000Y168000D03*
X172000Y171000D03*
X224000Y170424D03*
X340000Y128000D03*
X190000Y91000D03*
X303000Y112000D03*
X274000Y144000D03*
X243000Y111000D03*
X171000Y92000D03*
X274000Y46506D03*
X291000Y93000D03*
X187000Y102000D03*
M02*
