G04 EAGLE Gerber RS-274X export*
G75*
%MOMM*%
%FSLAX34Y34*%
%LPD*%
%INSoldermask Top*%
%IPPOS*%
%AMOC8*
5,1,8,0,0,1.08239X$1,22.5*%
G01*
%ADD10C,0.338938*%
%ADD11R,4.191000X1.701800*%
%ADD12R,0.720400X1.099300*%
%ADD13R,0.903200X1.103200*%
%ADD14R,1.727200X1.727200*%
%ADD15P,1.869504X8X112.500000*%
%ADD16R,6.654800X3.454400*%
%ADD17R,1.803200X2.003200*%
%ADD18R,1.703200X1.503200*%
%ADD19R,0.558000X1.658100*%
%ADD20R,6.705600X3.073400*%
%ADD21R,1.303200X1.203200*%
%ADD22R,1.003200X1.403200*%
%ADD23R,1.503200X1.503200*%
%ADD24R,1.625600X1.625600*%
%ADD25C,1.625600*%
%ADD26C,0.959600*%


D10*
X267554Y153514D02*
X257200Y163868D01*
X260130Y166798D01*
X270484Y156444D01*
X267554Y153514D01*
X270194Y156734D02*
X264334Y156734D01*
X266974Y159954D02*
X261114Y159954D01*
X263754Y163174D02*
X257894Y163174D01*
X259726Y166394D02*
X260534Y166394D01*
X251543Y158211D02*
X261897Y147857D01*
X251543Y158211D02*
X254473Y161141D01*
X264827Y150787D01*
X261897Y147857D01*
X264537Y151077D02*
X258677Y151077D01*
X261317Y154297D02*
X255457Y154297D01*
X258097Y157517D02*
X252237Y157517D01*
X254069Y160737D02*
X254877Y160737D01*
X245886Y152554D02*
X256240Y142200D01*
X245886Y152554D02*
X248816Y155484D01*
X259170Y145130D01*
X256240Y142200D01*
X258880Y145420D02*
X253020Y145420D01*
X255660Y148640D02*
X249800Y148640D01*
X252440Y151860D02*
X246580Y151860D01*
X248412Y155080D02*
X249220Y155080D01*
X240229Y146897D02*
X250583Y136543D01*
X240229Y146897D02*
X243159Y149827D01*
X253513Y139473D01*
X250583Y136543D01*
X253223Y139763D02*
X247363Y139763D01*
X250003Y142983D02*
X244143Y142983D01*
X246783Y146203D02*
X240923Y146203D01*
X242755Y149423D02*
X243563Y149423D01*
X234573Y141241D02*
X244927Y130887D01*
X234573Y141241D02*
X237503Y144171D01*
X247857Y133817D01*
X244927Y130887D01*
X247567Y134107D02*
X241707Y134107D01*
X244347Y137327D02*
X238487Y137327D01*
X241127Y140547D02*
X235267Y140547D01*
X237099Y143767D02*
X237907Y143767D01*
X228916Y135584D02*
X239270Y125230D01*
X228916Y135584D02*
X231846Y138514D01*
X242200Y128160D01*
X239270Y125230D01*
X241910Y128450D02*
X236050Y128450D01*
X238690Y131670D02*
X232830Y131670D01*
X235470Y134890D02*
X229610Y134890D01*
X231442Y138110D02*
X232250Y138110D01*
X223259Y129927D02*
X233613Y119573D01*
X223259Y129927D02*
X226189Y132857D01*
X236543Y122503D01*
X233613Y119573D01*
X236253Y122793D02*
X230393Y122793D01*
X233033Y126013D02*
X227173Y126013D01*
X229813Y129233D02*
X223953Y129233D01*
X225785Y132453D02*
X226593Y132453D01*
X217602Y124270D02*
X227956Y113916D01*
X217602Y124270D02*
X220532Y127200D01*
X230886Y116846D01*
X227956Y113916D01*
X230596Y117136D02*
X224736Y117136D01*
X227376Y120356D02*
X221516Y120356D01*
X224156Y123576D02*
X218296Y123576D01*
X220128Y126796D02*
X220936Y126796D01*
X276716Y65156D02*
X287070Y54802D01*
X276716Y65156D02*
X279646Y68086D01*
X290000Y57732D01*
X287070Y54802D01*
X289710Y58022D02*
X283850Y58022D01*
X286490Y61242D02*
X280630Y61242D01*
X283270Y64462D02*
X277410Y64462D01*
X279242Y67682D02*
X280050Y67682D01*
X282373Y70813D02*
X292727Y60459D01*
X282373Y70813D02*
X285303Y73743D01*
X295657Y63389D01*
X292727Y60459D01*
X295367Y63679D02*
X289507Y63679D01*
X292147Y66899D02*
X286287Y66899D01*
X288927Y70119D02*
X283067Y70119D01*
X284899Y73339D02*
X285707Y73339D01*
X288030Y76470D02*
X298384Y66116D01*
X288030Y76470D02*
X290960Y79400D01*
X301314Y69046D01*
X298384Y66116D01*
X301024Y69336D02*
X295164Y69336D01*
X297804Y72556D02*
X291944Y72556D01*
X294584Y75776D02*
X288724Y75776D01*
X290556Y78996D02*
X291364Y78996D01*
X293687Y82127D02*
X304041Y71773D01*
X293687Y82127D02*
X296617Y85057D01*
X306971Y74703D01*
X304041Y71773D01*
X306681Y74993D02*
X300821Y74993D01*
X303461Y78213D02*
X297601Y78213D01*
X300241Y81433D02*
X294381Y81433D01*
X296213Y84653D02*
X297021Y84653D01*
X299343Y87783D02*
X309697Y77429D01*
X299343Y87783D02*
X302273Y90713D01*
X312627Y80359D01*
X309697Y77429D01*
X312337Y80649D02*
X306477Y80649D01*
X309117Y83869D02*
X303257Y83869D01*
X305897Y87089D02*
X300037Y87089D01*
X301869Y90309D02*
X302677Y90309D01*
X305000Y93440D02*
X315354Y83086D01*
X305000Y93440D02*
X307930Y96370D01*
X318284Y86016D01*
X315354Y83086D01*
X317994Y86306D02*
X312134Y86306D01*
X314774Y89526D02*
X308914Y89526D01*
X311554Y92746D02*
X305694Y92746D01*
X307526Y95966D02*
X308334Y95966D01*
X310657Y99097D02*
X321011Y88743D01*
X310657Y99097D02*
X313587Y102027D01*
X323941Y91673D01*
X321011Y88743D01*
X323651Y91963D02*
X317791Y91963D01*
X320431Y95183D02*
X314571Y95183D01*
X317211Y98403D02*
X311351Y98403D01*
X313183Y101623D02*
X313991Y101623D01*
X316314Y104754D02*
X326668Y94400D01*
X316314Y104754D02*
X319244Y107684D01*
X329598Y97330D01*
X326668Y94400D01*
X329308Y97620D02*
X323448Y97620D01*
X326088Y100840D02*
X320228Y100840D01*
X322868Y104060D02*
X317008Y104060D01*
X318840Y107280D02*
X319648Y107280D01*
X316314Y116846D02*
X326668Y127200D01*
X329598Y124270D01*
X319244Y113916D01*
X316314Y116846D01*
X316604Y117136D02*
X322464Y117136D01*
X319824Y120356D02*
X325684Y120356D01*
X323044Y123576D02*
X328904Y123576D01*
X327072Y126796D02*
X326264Y126796D01*
X321011Y132857D02*
X310657Y122503D01*
X321011Y132857D02*
X323941Y129927D01*
X313587Y119573D01*
X310657Y122503D01*
X310947Y122793D02*
X316807Y122793D01*
X314167Y126013D02*
X320027Y126013D01*
X317387Y129233D02*
X323247Y129233D01*
X321415Y132453D02*
X320607Y132453D01*
X315354Y138514D02*
X305000Y128160D01*
X315354Y138514D02*
X318284Y135584D01*
X307930Y125230D01*
X305000Y128160D01*
X305290Y128450D02*
X311150Y128450D01*
X308510Y131670D02*
X314370Y131670D01*
X311730Y134890D02*
X317590Y134890D01*
X315758Y138110D02*
X314950Y138110D01*
X309697Y144171D02*
X299343Y133817D01*
X309697Y144171D02*
X312627Y141241D01*
X302273Y130887D01*
X299343Y133817D01*
X299633Y134107D02*
X305493Y134107D01*
X302853Y137327D02*
X308713Y137327D01*
X306073Y140547D02*
X311933Y140547D01*
X310101Y143767D02*
X309293Y143767D01*
X304041Y149827D02*
X293687Y139473D01*
X304041Y149827D02*
X306971Y146897D01*
X296617Y136543D01*
X293687Y139473D01*
X293977Y139763D02*
X299837Y139763D01*
X297197Y142983D02*
X303057Y142983D01*
X300417Y146203D02*
X306277Y146203D01*
X304445Y149423D02*
X303637Y149423D01*
X298384Y155484D02*
X288030Y145130D01*
X298384Y155484D02*
X301314Y152554D01*
X290960Y142200D01*
X288030Y145130D01*
X288320Y145420D02*
X294180Y145420D01*
X291540Y148640D02*
X297400Y148640D01*
X294760Y151860D02*
X300620Y151860D01*
X298788Y155080D02*
X297980Y155080D01*
X292727Y161141D02*
X282373Y150787D01*
X292727Y161141D02*
X295657Y158211D01*
X285303Y147857D01*
X282373Y150787D01*
X282663Y151077D02*
X288523Y151077D01*
X285883Y154297D02*
X291743Y154297D01*
X289103Y157517D02*
X294963Y157517D01*
X293131Y160737D02*
X292323Y160737D01*
X287070Y166798D02*
X276716Y156444D01*
X287070Y166798D02*
X290000Y163868D01*
X279646Y153514D01*
X276716Y156444D01*
X277006Y156734D02*
X282866Y156734D01*
X280226Y159954D02*
X286086Y159954D01*
X283446Y163174D02*
X289306Y163174D01*
X287474Y166394D02*
X286666Y166394D01*
X227956Y107684D02*
X217602Y97330D01*
X227956Y107684D02*
X230886Y104754D01*
X220532Y94400D01*
X217602Y97330D01*
X217892Y97620D02*
X223752Y97620D01*
X221112Y100840D02*
X226972Y100840D01*
X224332Y104060D02*
X230192Y104060D01*
X228360Y107280D02*
X227552Y107280D01*
X233613Y102027D02*
X223259Y91673D01*
X233613Y102027D02*
X236543Y99097D01*
X226189Y88743D01*
X223259Y91673D01*
X223549Y91963D02*
X229409Y91963D01*
X226769Y95183D02*
X232629Y95183D01*
X229989Y98403D02*
X235849Y98403D01*
X234017Y101623D02*
X233209Y101623D01*
X239270Y96370D02*
X228916Y86016D01*
X239270Y96370D02*
X242200Y93440D01*
X231846Y83086D01*
X228916Y86016D01*
X229206Y86306D02*
X235066Y86306D01*
X232426Y89526D02*
X238286Y89526D01*
X235646Y92746D02*
X241506Y92746D01*
X239674Y95966D02*
X238866Y95966D01*
X244927Y90713D02*
X234573Y80359D01*
X244927Y90713D02*
X247857Y87783D01*
X237503Y77429D01*
X234573Y80359D01*
X234863Y80649D02*
X240723Y80649D01*
X238083Y83869D02*
X243943Y83869D01*
X241303Y87089D02*
X247163Y87089D01*
X245331Y90309D02*
X244523Y90309D01*
X250583Y85057D02*
X240229Y74703D01*
X250583Y85057D02*
X253513Y82127D01*
X243159Y71773D01*
X240229Y74703D01*
X240519Y74993D02*
X246379Y74993D01*
X243739Y78213D02*
X249599Y78213D01*
X246959Y81433D02*
X252819Y81433D01*
X250987Y84653D02*
X250179Y84653D01*
X256240Y79400D02*
X245886Y69046D01*
X256240Y79400D02*
X259170Y76470D01*
X248816Y66116D01*
X245886Y69046D01*
X246176Y69336D02*
X252036Y69336D01*
X249396Y72556D02*
X255256Y72556D01*
X252616Y75776D02*
X258476Y75776D01*
X256644Y78996D02*
X255836Y78996D01*
X261897Y73743D02*
X251543Y63389D01*
X261897Y73743D02*
X264827Y70813D01*
X254473Y60459D01*
X251543Y63389D01*
X251833Y63679D02*
X257693Y63679D01*
X255053Y66899D02*
X260913Y66899D01*
X258273Y70119D02*
X264133Y70119D01*
X262301Y73339D02*
X261493Y73339D01*
X267554Y68086D02*
X257200Y57732D01*
X267554Y68086D02*
X270484Y65156D01*
X260130Y54802D01*
X257200Y57732D01*
X257490Y58022D02*
X263350Y58022D01*
X260710Y61242D02*
X266570Y61242D01*
X263930Y64462D02*
X269790Y64462D01*
X267958Y67682D02*
X267150Y67682D01*
D11*
X130300Y131400D03*
X130300Y95400D03*
D12*
X93000Y106090D03*
X83500Y106090D03*
X74000Y106090D03*
X74000Y80111D03*
X83500Y80111D03*
X93000Y80111D03*
D13*
X82000Y62000D03*
X95000Y62000D03*
D14*
X379800Y67200D03*
D15*
X379800Y92600D03*
X379800Y118000D03*
D16*
X42800Y27100D03*
X351800Y27500D03*
D17*
X53000Y71000D03*
X25000Y71000D03*
X53000Y92000D03*
X25000Y92000D03*
D18*
X169000Y147500D03*
X169000Y128500D03*
X190000Y147500D03*
X190000Y128500D03*
D13*
G36*
X319503Y72303D02*
X325889Y78689D01*
X333689Y70889D01*
X327303Y64503D01*
X319503Y72303D01*
G37*
G36*
X310311Y63111D02*
X316697Y69497D01*
X324497Y61697D01*
X318111Y55311D01*
X310311Y63111D01*
G37*
D19*
X215750Y74213D03*
X209250Y74213D03*
X202750Y74213D03*
X196250Y74213D03*
X189750Y74213D03*
X183250Y74213D03*
X176750Y74213D03*
X170250Y74213D03*
X163750Y74213D03*
X157250Y74213D03*
X150750Y74213D03*
X144250Y74213D03*
X144250Y19787D03*
X150750Y19787D03*
X157250Y19787D03*
X163750Y19787D03*
X170250Y19787D03*
X176750Y19787D03*
X183250Y19787D03*
X189750Y19787D03*
X196250Y19787D03*
X202750Y19787D03*
X209250Y19787D03*
X215750Y19787D03*
D20*
X180000Y47000D03*
D21*
X83000Y138500D03*
X83000Y121500D03*
X56000Y131500D03*
X56000Y148500D03*
D22*
X81000Y155000D03*
X97000Y155000D03*
D23*
X355000Y76000D03*
X355000Y92000D03*
X355000Y59000D03*
D24*
X379000Y167000D03*
D25*
X379000Y147000D03*
D22*
G36*
X226150Y162071D02*
X233243Y169164D01*
X243164Y159243D01*
X236071Y152150D01*
X226150Y162071D01*
G37*
G36*
X214836Y150757D02*
X221929Y157850D01*
X231850Y147929D01*
X224757Y140836D01*
X214836Y150757D01*
G37*
D26*
X111000Y146912D03*
X54000Y55000D03*
X164000Y114000D03*
X43000Y121000D03*
X196500Y110500D03*
X228000Y76000D03*
X332000Y87000D03*
X217000Y137000D03*
X210000Y111000D03*
X247000Y101000D03*
X298000Y102000D03*
X228000Y51000D03*
X274000Y74000D03*
X261000Y86000D03*
X337000Y157000D03*
X323000Y168000D03*
X172000Y171000D03*
X224000Y170424D03*
X340000Y128000D03*
X190000Y91000D03*
X303000Y112000D03*
X274000Y144000D03*
X243000Y111000D03*
X171000Y92000D03*
X274000Y46506D03*
X291000Y93000D03*
X187000Y102000D03*
M02*
