G04 EAGLE Gerber RS-274X export*
G75*
%MOMM*%
%FSLAX34Y34*%
%LPD*%
%INTop Copper*%
%IPPOS*%
%AMOC8*
5,1,8,0,0,1.08239X$1,22.5*%
G01*
%ADD10C,0.137500*%
%ADD11R,3.987800X1.498600*%
%ADD12R,0.517200X0.896100*%
%ADD13R,0.700000X0.900000*%
%ADD14R,1.524000X1.524000*%
%ADD15P,1.649562X8X112.500000*%
%ADD16R,6.451600X3.251200*%
%ADD17R,1.600000X1.800000*%
%ADD18R,1.500000X1.300000*%
%ADD19R,0.354800X1.454900*%
%ADD20R,6.502400X2.870200*%
%ADD21R,1.100000X1.000000*%
%ADD22R,0.800000X1.200000*%
%ADD23R,1.300000X1.300000*%
%ADD24R,1.422400X1.422400*%
%ADD25C,1.422400*%
%ADD26C,0.254000*%
%ADD27C,0.756400*%
%ADD28C,0.508000*%
%ADD29C,0.304800*%
%ADD30C,2.540000*%
%ADD31C,0.812800*%
%ADD32C,1.270000*%
%ADD33C,0.152400*%

G36*
X139800Y10176D02*
X139800Y10176D01*
X139919Y10183D01*
X139957Y10196D01*
X139998Y10201D01*
X140108Y10244D01*
X140221Y10281D01*
X140256Y10303D01*
X140293Y10318D01*
X140389Y10387D01*
X140490Y10451D01*
X140518Y10481D01*
X140551Y10504D01*
X140627Y10596D01*
X140708Y10683D01*
X140728Y10718D01*
X140753Y10749D01*
X140804Y10857D01*
X140862Y10961D01*
X140872Y11001D01*
X140889Y11037D01*
X140911Y11154D01*
X140941Y11269D01*
X140945Y11329D01*
X140949Y11349D01*
X140947Y11370D01*
X140951Y11430D01*
X140951Y14656D01*
X140939Y14754D01*
X140936Y14853D01*
X140919Y14911D01*
X140911Y14971D01*
X140875Y15063D01*
X140847Y15159D01*
X140817Y15211D01*
X140794Y15267D01*
X140736Y15347D01*
X140686Y15433D01*
X140620Y15508D01*
X140608Y15524D01*
X140598Y15532D01*
X140580Y15553D01*
X139512Y16621D01*
X138661Y18675D01*
X138661Y20898D01*
X139512Y22952D01*
X140580Y24020D01*
X140640Y24098D01*
X140708Y24170D01*
X140737Y24223D01*
X140774Y24271D01*
X140814Y24362D01*
X140862Y24449D01*
X140877Y24507D01*
X140901Y24563D01*
X140916Y24661D01*
X140941Y24757D01*
X140947Y24857D01*
X140951Y24877D01*
X140949Y24889D01*
X140951Y24917D01*
X140951Y27693D01*
X141844Y28586D01*
X146671Y28586D01*
X146697Y28566D01*
X146786Y28487D01*
X146822Y28469D01*
X146854Y28444D01*
X146963Y28397D01*
X147069Y28342D01*
X147108Y28334D01*
X147146Y28318D01*
X147263Y28299D01*
X147379Y28273D01*
X147420Y28274D01*
X147460Y28268D01*
X147578Y28279D01*
X147697Y28282D01*
X147736Y28294D01*
X147776Y28298D01*
X147888Y28338D01*
X148003Y28371D01*
X148037Y28391D01*
X148076Y28405D01*
X148174Y28472D01*
X148277Y28532D01*
X148322Y28572D01*
X148339Y28584D01*
X148341Y28586D01*
X153171Y28586D01*
X153197Y28566D01*
X153286Y28487D01*
X153322Y28469D01*
X153354Y28444D01*
X153463Y28397D01*
X153569Y28342D01*
X153608Y28334D01*
X153646Y28318D01*
X153763Y28299D01*
X153879Y28273D01*
X153920Y28274D01*
X153960Y28268D01*
X154078Y28279D01*
X154197Y28282D01*
X154236Y28294D01*
X154276Y28298D01*
X154388Y28338D01*
X154503Y28371D01*
X154537Y28391D01*
X154576Y28405D01*
X154674Y28472D01*
X154777Y28532D01*
X154822Y28572D01*
X154839Y28584D01*
X154841Y28586D01*
X159671Y28586D01*
X159697Y28566D01*
X159786Y28487D01*
X159822Y28469D01*
X159854Y28444D01*
X159963Y28397D01*
X160069Y28342D01*
X160108Y28334D01*
X160146Y28318D01*
X160263Y28299D01*
X160379Y28273D01*
X160420Y28274D01*
X160460Y28268D01*
X160578Y28279D01*
X160697Y28282D01*
X160736Y28294D01*
X160776Y28298D01*
X160888Y28338D01*
X161003Y28371D01*
X161037Y28391D01*
X161076Y28405D01*
X161174Y28472D01*
X161277Y28532D01*
X161322Y28572D01*
X161339Y28584D01*
X161341Y28586D01*
X166171Y28586D01*
X166197Y28566D01*
X166286Y28487D01*
X166322Y28469D01*
X166354Y28444D01*
X166463Y28397D01*
X166569Y28342D01*
X166608Y28334D01*
X166646Y28318D01*
X166763Y28299D01*
X166879Y28273D01*
X166920Y28274D01*
X166960Y28268D01*
X167078Y28279D01*
X167197Y28282D01*
X167236Y28294D01*
X167276Y28298D01*
X167388Y28338D01*
X167503Y28371D01*
X167537Y28391D01*
X167576Y28405D01*
X167674Y28472D01*
X167777Y28532D01*
X167822Y28572D01*
X167839Y28584D01*
X167841Y28586D01*
X172671Y28586D01*
X172697Y28566D01*
X172786Y28487D01*
X172822Y28469D01*
X172854Y28444D01*
X172963Y28397D01*
X173069Y28342D01*
X173108Y28334D01*
X173146Y28318D01*
X173263Y28299D01*
X173379Y28273D01*
X173420Y28274D01*
X173460Y28268D01*
X173578Y28279D01*
X173697Y28282D01*
X173736Y28294D01*
X173776Y28298D01*
X173888Y28338D01*
X174003Y28371D01*
X174037Y28391D01*
X174076Y28405D01*
X174174Y28472D01*
X174277Y28532D01*
X174322Y28572D01*
X174339Y28584D01*
X174341Y28586D01*
X179171Y28586D01*
X179197Y28566D01*
X179286Y28487D01*
X179322Y28469D01*
X179354Y28444D01*
X179463Y28397D01*
X179569Y28343D01*
X179608Y28334D01*
X179646Y28318D01*
X179763Y28299D01*
X179879Y28273D01*
X179920Y28274D01*
X179960Y28268D01*
X180078Y28279D01*
X180197Y28283D01*
X180236Y28294D01*
X180276Y28298D01*
X180389Y28338D01*
X180503Y28371D01*
X180537Y28391D01*
X180576Y28405D01*
X180674Y28472D01*
X180777Y28532D01*
X180822Y28572D01*
X180839Y28584D01*
X180841Y28586D01*
X185671Y28586D01*
X185697Y28566D01*
X185786Y28487D01*
X185822Y28469D01*
X185854Y28444D01*
X185963Y28397D01*
X186069Y28342D01*
X186108Y28334D01*
X186146Y28318D01*
X186263Y28299D01*
X186379Y28273D01*
X186420Y28274D01*
X186460Y28268D01*
X186578Y28279D01*
X186697Y28282D01*
X186736Y28294D01*
X186776Y28298D01*
X186889Y28338D01*
X187003Y28371D01*
X187037Y28391D01*
X187076Y28405D01*
X187174Y28472D01*
X187277Y28532D01*
X187322Y28572D01*
X187339Y28584D01*
X187341Y28586D01*
X192171Y28586D01*
X192196Y28566D01*
X192286Y28487D01*
X192322Y28469D01*
X192354Y28444D01*
X192463Y28397D01*
X192569Y28342D01*
X192609Y28334D01*
X192646Y28318D01*
X192763Y28299D01*
X192879Y28273D01*
X192920Y28274D01*
X192960Y28268D01*
X193078Y28279D01*
X193197Y28283D01*
X193236Y28294D01*
X193276Y28298D01*
X193389Y28338D01*
X193503Y28371D01*
X193537Y28391D01*
X193576Y28405D01*
X193674Y28472D01*
X193777Y28532D01*
X193822Y28572D01*
X193839Y28584D01*
X193841Y28586D01*
X198671Y28586D01*
X198696Y28566D01*
X198786Y28487D01*
X198822Y28469D01*
X198854Y28444D01*
X198963Y28397D01*
X199069Y28342D01*
X199109Y28334D01*
X199146Y28318D01*
X199263Y28299D01*
X199379Y28273D01*
X199420Y28274D01*
X199460Y28268D01*
X199578Y28279D01*
X199697Y28282D01*
X199736Y28294D01*
X199776Y28297D01*
X199889Y28338D01*
X200003Y28371D01*
X200037Y28391D01*
X200076Y28405D01*
X200174Y28472D01*
X200277Y28532D01*
X200322Y28572D01*
X200339Y28584D01*
X200341Y28586D01*
X205171Y28586D01*
X205196Y28566D01*
X205286Y28487D01*
X205322Y28469D01*
X205354Y28444D01*
X205463Y28397D01*
X205569Y28342D01*
X205609Y28334D01*
X205646Y28318D01*
X205763Y28299D01*
X205879Y28273D01*
X205920Y28274D01*
X205960Y28268D01*
X206078Y28279D01*
X206197Y28283D01*
X206236Y28294D01*
X206276Y28298D01*
X206389Y28338D01*
X206503Y28371D01*
X206537Y28391D01*
X206576Y28405D01*
X206674Y28472D01*
X206777Y28532D01*
X206822Y28572D01*
X206839Y28584D01*
X206841Y28586D01*
X211671Y28586D01*
X211696Y28566D01*
X211786Y28487D01*
X211822Y28469D01*
X211854Y28444D01*
X211963Y28397D01*
X212069Y28342D01*
X212109Y28334D01*
X212146Y28318D01*
X212263Y28299D01*
X212379Y28273D01*
X212420Y28274D01*
X212460Y28268D01*
X212578Y28279D01*
X212697Y28282D01*
X212736Y28294D01*
X212776Y28297D01*
X212889Y28338D01*
X213003Y28371D01*
X213037Y28391D01*
X213076Y28405D01*
X213174Y28472D01*
X213277Y28532D01*
X213322Y28572D01*
X213339Y28584D01*
X213341Y28586D01*
X217006Y28586D01*
X217124Y28601D01*
X217243Y28608D01*
X217281Y28621D01*
X217322Y28626D01*
X217432Y28669D01*
X217545Y28706D01*
X217580Y28728D01*
X217617Y28743D01*
X217713Y28813D01*
X217814Y28876D01*
X217842Y28906D01*
X217875Y28929D01*
X217951Y29021D01*
X218032Y29108D01*
X218052Y29143D01*
X218077Y29174D01*
X218128Y29282D01*
X218186Y29386D01*
X218196Y29426D01*
X218213Y29462D01*
X218235Y29579D01*
X218265Y29694D01*
X218269Y29755D01*
X218273Y29775D01*
X218271Y29795D01*
X218275Y29855D01*
X218275Y30330D01*
X220441Y35558D01*
X224442Y39559D01*
X229670Y41725D01*
X268337Y41725D01*
X268386Y41731D01*
X268436Y41729D01*
X268543Y41751D01*
X268652Y41765D01*
X268699Y41783D01*
X268747Y41793D01*
X268846Y41841D01*
X268948Y41882D01*
X268988Y41911D01*
X269033Y41933D01*
X269117Y42004D01*
X269205Y42068D01*
X269237Y42107D01*
X269275Y42139D01*
X269338Y42229D01*
X269408Y42313D01*
X269429Y42358D01*
X269458Y42399D01*
X269497Y42502D01*
X269544Y42601D01*
X269553Y42650D01*
X269571Y42696D01*
X269583Y42806D01*
X269604Y42913D01*
X269601Y42963D01*
X269606Y43012D01*
X269591Y43121D01*
X269584Y43231D01*
X269569Y43278D01*
X269562Y43327D01*
X269510Y43480D01*
X268693Y45450D01*
X268693Y47562D01*
X269501Y49512D01*
X270994Y51005D01*
X272944Y51813D01*
X275056Y51813D01*
X277006Y51005D01*
X278499Y49512D01*
X279307Y47562D01*
X279307Y45450D01*
X278490Y43480D01*
X278477Y43432D01*
X278456Y43387D01*
X278436Y43279D01*
X278407Y43173D01*
X278406Y43123D01*
X278396Y43074D01*
X278403Y42965D01*
X278401Y42855D01*
X278413Y42807D01*
X278416Y42757D01*
X278450Y42653D01*
X278476Y42546D01*
X278499Y42502D01*
X278514Y42455D01*
X278573Y42362D01*
X278624Y42265D01*
X278658Y42228D01*
X278684Y42186D01*
X278764Y42111D01*
X278838Y42029D01*
X278880Y42002D01*
X278916Y41968D01*
X279012Y41915D01*
X279104Y41855D01*
X279151Y41838D01*
X279194Y41814D01*
X279301Y41787D01*
X279405Y41751D01*
X279454Y41747D01*
X279502Y41735D01*
X279663Y41725D01*
X316748Y41725D01*
X316866Y41740D01*
X316985Y41747D01*
X317023Y41760D01*
X317064Y41765D01*
X317174Y41808D01*
X317287Y41845D01*
X317322Y41867D01*
X317359Y41882D01*
X317455Y41951D01*
X317556Y42015D01*
X317584Y42045D01*
X317617Y42068D01*
X317693Y42160D01*
X317774Y42247D01*
X317794Y42282D01*
X317819Y42313D01*
X317870Y42421D01*
X317928Y42525D01*
X317938Y42565D01*
X317955Y42601D01*
X317977Y42718D01*
X318007Y42833D01*
X318011Y42893D01*
X318015Y42913D01*
X318013Y42934D01*
X318017Y42994D01*
X318017Y44388D01*
X318668Y45039D01*
X318753Y45148D01*
X318842Y45255D01*
X318851Y45274D01*
X318863Y45290D01*
X318918Y45417D01*
X318978Y45543D01*
X318981Y45563D01*
X318990Y45582D01*
X319011Y45720D01*
X319037Y45856D01*
X319036Y45876D01*
X319039Y45896D01*
X319026Y46035D01*
X319018Y46173D01*
X319011Y46192D01*
X319010Y46212D01*
X318962Y46344D01*
X318920Y46475D01*
X318909Y46493D01*
X318902Y46512D01*
X318824Y46627D01*
X318749Y46744D01*
X318735Y46758D01*
X318723Y46775D01*
X318619Y46867D01*
X318518Y46962D01*
X318500Y46972D01*
X318485Y46985D01*
X318361Y47048D01*
X318239Y47116D01*
X318220Y47121D01*
X318202Y47130D01*
X318066Y47160D01*
X317931Y47195D01*
X317903Y47197D01*
X317891Y47200D01*
X317871Y47199D01*
X317771Y47205D01*
X312842Y47205D01*
X310834Y49214D01*
X306205Y53842D01*
X306205Y56746D01*
X306193Y56844D01*
X306190Y56943D01*
X306173Y57001D01*
X306165Y57062D01*
X306129Y57154D01*
X306101Y57249D01*
X306071Y57301D01*
X306048Y57357D01*
X305990Y57437D01*
X305940Y57523D01*
X305874Y57598D01*
X305862Y57615D01*
X305852Y57622D01*
X305834Y57644D01*
X300023Y63454D01*
X299913Y63539D01*
X299806Y63628D01*
X299788Y63637D01*
X299772Y63649D01*
X299644Y63704D01*
X299518Y63763D01*
X299499Y63767D01*
X299480Y63775D01*
X299342Y63797D01*
X299206Y63823D01*
X299186Y63822D01*
X299166Y63825D01*
X299027Y63812D01*
X298889Y63804D01*
X298869Y63797D01*
X298849Y63795D01*
X298718Y63748D01*
X298586Y63705D01*
X298569Y63695D01*
X298550Y63688D01*
X298435Y63610D01*
X298317Y63535D01*
X298303Y63521D01*
X298287Y63509D01*
X298195Y63405D01*
X298099Y63304D01*
X298090Y63286D01*
X298076Y63271D01*
X298013Y63147D01*
X297946Y63025D01*
X297941Y63006D01*
X297932Y62988D01*
X297901Y62852D01*
X297866Y62717D01*
X297865Y62689D01*
X297862Y62677D01*
X297863Y62657D01*
X297856Y62557D01*
X297856Y62472D01*
X293644Y58259D01*
X293469Y58259D01*
X293350Y58244D01*
X293232Y58237D01*
X293193Y58225D01*
X293153Y58220D01*
X293042Y58176D01*
X292929Y58139D01*
X292895Y58117D01*
X292857Y58103D01*
X292761Y58033D01*
X292661Y57969D01*
X292633Y57939D01*
X292600Y57916D01*
X292524Y57824D01*
X292443Y57737D01*
X292423Y57702D01*
X292397Y57671D01*
X292347Y57563D01*
X292289Y57459D01*
X292279Y57420D01*
X292262Y57383D01*
X292239Y57266D01*
X292210Y57151D01*
X292206Y57091D01*
X292202Y57071D01*
X292203Y57050D01*
X292199Y56990D01*
X292199Y56815D01*
X287987Y52603D01*
X286154Y52603D01*
X274497Y64259D01*
X274403Y64332D01*
X274314Y64411D01*
X274278Y64429D01*
X274246Y64454D01*
X274137Y64501D01*
X274031Y64555D01*
X273992Y64564D01*
X273954Y64580D01*
X273837Y64599D01*
X273721Y64625D01*
X273680Y64624D01*
X273640Y64630D01*
X273522Y64619D01*
X273403Y64615D01*
X273364Y64604D01*
X273324Y64600D01*
X273211Y64560D01*
X273097Y64527D01*
X273062Y64507D01*
X273024Y64493D01*
X272926Y64426D01*
X272823Y64366D01*
X272778Y64326D01*
X272761Y64314D01*
X272748Y64299D01*
X272702Y64259D01*
X261046Y52603D01*
X259213Y52603D01*
X257992Y53824D01*
X257914Y53884D01*
X257842Y53952D01*
X257789Y53981D01*
X257741Y54019D01*
X257650Y54058D01*
X257563Y54106D01*
X257505Y54121D01*
X257449Y54145D01*
X257351Y54161D01*
X257255Y54185D01*
X257155Y54192D01*
X257135Y54195D01*
X257123Y54194D01*
X257095Y54195D01*
X236552Y54195D01*
X234543Y56204D01*
X221215Y69532D01*
X221106Y69618D01*
X220999Y69706D01*
X220980Y69715D01*
X220964Y69727D01*
X220836Y69783D01*
X220711Y69842D01*
X220691Y69846D01*
X220672Y69854D01*
X220534Y69876D01*
X220398Y69902D01*
X220378Y69900D01*
X220358Y69903D01*
X220219Y69890D01*
X220081Y69882D01*
X220062Y69876D01*
X220042Y69874D01*
X219910Y69826D01*
X219779Y69784D01*
X219761Y69773D01*
X219742Y69766D01*
X219627Y69688D01*
X219510Y69614D01*
X219496Y69599D01*
X219479Y69587D01*
X219387Y69483D01*
X219292Y69382D01*
X219282Y69364D01*
X219269Y69349D01*
X219205Y69225D01*
X219138Y69103D01*
X219133Y69084D01*
X219124Y69066D01*
X219094Y68930D01*
X219059Y68796D01*
X219057Y68767D01*
X219054Y68755D01*
X219055Y68735D01*
X219049Y68635D01*
X219049Y66307D01*
X218156Y65414D01*
X213329Y65414D01*
X213303Y65434D01*
X213214Y65513D01*
X213178Y65531D01*
X213146Y65556D01*
X213037Y65603D01*
X212931Y65658D01*
X212892Y65666D01*
X212854Y65682D01*
X212737Y65701D01*
X212621Y65727D01*
X212580Y65726D01*
X212540Y65732D01*
X212422Y65721D01*
X212303Y65718D01*
X212264Y65706D01*
X212224Y65702D01*
X212112Y65662D01*
X211997Y65629D01*
X211963Y65609D01*
X211924Y65595D01*
X211826Y65528D01*
X211723Y65468D01*
X211678Y65428D01*
X211661Y65416D01*
X211659Y65414D01*
X206829Y65414D01*
X206804Y65434D01*
X206714Y65513D01*
X206678Y65531D01*
X206646Y65556D01*
X206537Y65603D01*
X206431Y65658D01*
X206391Y65666D01*
X206354Y65682D01*
X206237Y65701D01*
X206121Y65727D01*
X206080Y65726D01*
X206040Y65732D01*
X205922Y65721D01*
X205803Y65717D01*
X205764Y65706D01*
X205724Y65702D01*
X205611Y65662D01*
X205497Y65629D01*
X205463Y65609D01*
X205424Y65595D01*
X205326Y65528D01*
X205223Y65468D01*
X205178Y65428D01*
X205161Y65416D01*
X205159Y65414D01*
X200329Y65414D01*
X200304Y65434D01*
X200214Y65513D01*
X200178Y65531D01*
X200146Y65556D01*
X200037Y65603D01*
X199931Y65658D01*
X199891Y65666D01*
X199854Y65682D01*
X199737Y65701D01*
X199621Y65727D01*
X199580Y65726D01*
X199540Y65732D01*
X199422Y65721D01*
X199303Y65718D01*
X199264Y65706D01*
X199224Y65703D01*
X199111Y65662D01*
X198997Y65629D01*
X198963Y65609D01*
X198924Y65595D01*
X198826Y65528D01*
X198723Y65468D01*
X198678Y65428D01*
X198661Y65416D01*
X198659Y65414D01*
X193829Y65414D01*
X193804Y65434D01*
X193714Y65513D01*
X193678Y65531D01*
X193646Y65556D01*
X193537Y65603D01*
X193431Y65658D01*
X193391Y65666D01*
X193354Y65682D01*
X193237Y65701D01*
X193121Y65727D01*
X193080Y65726D01*
X193040Y65732D01*
X192922Y65721D01*
X192803Y65717D01*
X192764Y65706D01*
X192724Y65702D01*
X192611Y65662D01*
X192497Y65629D01*
X192463Y65609D01*
X192424Y65595D01*
X192326Y65528D01*
X192223Y65468D01*
X192178Y65428D01*
X192161Y65416D01*
X192159Y65414D01*
X187329Y65414D01*
X187304Y65434D01*
X187214Y65513D01*
X187178Y65531D01*
X187146Y65556D01*
X187037Y65603D01*
X186931Y65658D01*
X186891Y65666D01*
X186854Y65682D01*
X186737Y65701D01*
X186621Y65727D01*
X186580Y65726D01*
X186540Y65732D01*
X186422Y65721D01*
X186303Y65718D01*
X186264Y65706D01*
X186224Y65703D01*
X186111Y65662D01*
X185997Y65629D01*
X185963Y65609D01*
X185924Y65595D01*
X185826Y65528D01*
X185723Y65468D01*
X185678Y65428D01*
X185661Y65416D01*
X185659Y65414D01*
X180829Y65414D01*
X180804Y65434D01*
X180714Y65513D01*
X180678Y65531D01*
X180646Y65556D01*
X180537Y65603D01*
X180431Y65658D01*
X180391Y65666D01*
X180354Y65682D01*
X180237Y65701D01*
X180121Y65727D01*
X180080Y65726D01*
X180040Y65732D01*
X179922Y65721D01*
X179803Y65717D01*
X179764Y65706D01*
X179724Y65702D01*
X179611Y65662D01*
X179497Y65629D01*
X179463Y65609D01*
X179424Y65595D01*
X179326Y65528D01*
X179223Y65468D01*
X179178Y65428D01*
X179161Y65416D01*
X179159Y65414D01*
X174329Y65414D01*
X174304Y65434D01*
X174214Y65513D01*
X174178Y65531D01*
X174146Y65556D01*
X174037Y65603D01*
X173931Y65658D01*
X173891Y65666D01*
X173854Y65682D01*
X173737Y65701D01*
X173621Y65727D01*
X173580Y65726D01*
X173540Y65732D01*
X173422Y65721D01*
X173303Y65718D01*
X173264Y65706D01*
X173224Y65703D01*
X173111Y65662D01*
X172997Y65629D01*
X172963Y65609D01*
X172924Y65595D01*
X172826Y65528D01*
X172723Y65468D01*
X172678Y65428D01*
X172661Y65416D01*
X172659Y65414D01*
X167829Y65414D01*
X167804Y65434D01*
X167714Y65513D01*
X167678Y65531D01*
X167646Y65556D01*
X167537Y65603D01*
X167431Y65658D01*
X167391Y65666D01*
X167354Y65682D01*
X167237Y65701D01*
X167121Y65727D01*
X167080Y65726D01*
X167040Y65732D01*
X166922Y65721D01*
X166803Y65717D01*
X166764Y65706D01*
X166724Y65702D01*
X166611Y65662D01*
X166497Y65629D01*
X166463Y65609D01*
X166424Y65595D01*
X166326Y65528D01*
X166223Y65468D01*
X166178Y65428D01*
X166161Y65416D01*
X166159Y65414D01*
X161329Y65414D01*
X161304Y65434D01*
X161214Y65513D01*
X161178Y65531D01*
X161146Y65556D01*
X161037Y65603D01*
X160931Y65658D01*
X160891Y65666D01*
X160854Y65682D01*
X160737Y65701D01*
X160621Y65727D01*
X160580Y65726D01*
X160540Y65732D01*
X160422Y65721D01*
X160303Y65718D01*
X160264Y65706D01*
X160224Y65703D01*
X160111Y65662D01*
X159997Y65629D01*
X159963Y65609D01*
X159924Y65595D01*
X159826Y65528D01*
X159723Y65468D01*
X159678Y65428D01*
X159661Y65416D01*
X159659Y65414D01*
X154829Y65414D01*
X154804Y65434D01*
X154714Y65513D01*
X154678Y65531D01*
X154646Y65556D01*
X154537Y65603D01*
X154431Y65658D01*
X154391Y65666D01*
X154354Y65682D01*
X154237Y65701D01*
X154121Y65727D01*
X154080Y65726D01*
X154040Y65732D01*
X153922Y65721D01*
X153803Y65717D01*
X153764Y65706D01*
X153724Y65702D01*
X153611Y65662D01*
X153497Y65629D01*
X153463Y65609D01*
X153424Y65595D01*
X153326Y65528D01*
X153223Y65468D01*
X153178Y65428D01*
X153161Y65416D01*
X153159Y65414D01*
X148329Y65414D01*
X148304Y65434D01*
X148214Y65513D01*
X148178Y65531D01*
X148146Y65556D01*
X148037Y65603D01*
X147931Y65658D01*
X147891Y65666D01*
X147854Y65682D01*
X147737Y65701D01*
X147621Y65727D01*
X147580Y65726D01*
X147540Y65732D01*
X147422Y65721D01*
X147303Y65718D01*
X147264Y65706D01*
X147224Y65703D01*
X147111Y65662D01*
X146997Y65629D01*
X146963Y65609D01*
X146924Y65595D01*
X146826Y65528D01*
X146723Y65468D01*
X146678Y65428D01*
X146661Y65416D01*
X146659Y65414D01*
X141844Y65414D01*
X140951Y66307D01*
X140951Y82120D01*
X141844Y83013D01*
X146671Y83013D01*
X146696Y82993D01*
X146786Y82914D01*
X146822Y82896D01*
X146854Y82871D01*
X146963Y82824D01*
X147069Y82769D01*
X147109Y82761D01*
X147146Y82744D01*
X147263Y82726D01*
X147379Y82700D01*
X147420Y82701D01*
X147460Y82695D01*
X147578Y82706D01*
X147697Y82709D01*
X147736Y82721D01*
X147776Y82724D01*
X147889Y82765D01*
X148003Y82798D01*
X148038Y82818D01*
X148076Y82832D01*
X148174Y82899D01*
X148277Y82959D01*
X148322Y82999D01*
X148339Y83011D01*
X148341Y83013D01*
X153171Y83013D01*
X153196Y82993D01*
X153286Y82914D01*
X153322Y82896D01*
X153354Y82871D01*
X153463Y82824D01*
X153569Y82769D01*
X153609Y82761D01*
X153646Y82745D01*
X153763Y82726D01*
X153879Y82700D01*
X153920Y82701D01*
X153960Y82695D01*
X154078Y82706D01*
X154197Y82709D01*
X154236Y82721D01*
X154276Y82724D01*
X154389Y82765D01*
X154503Y82798D01*
X154538Y82818D01*
X154576Y82832D01*
X154674Y82899D01*
X154777Y82959D01*
X154822Y82999D01*
X154839Y83011D01*
X154841Y83013D01*
X159671Y83013D01*
X159696Y82993D01*
X159786Y82914D01*
X159822Y82896D01*
X159854Y82871D01*
X159963Y82824D01*
X160069Y82769D01*
X160109Y82761D01*
X160146Y82744D01*
X160263Y82726D01*
X160379Y82700D01*
X160420Y82701D01*
X160460Y82695D01*
X160578Y82706D01*
X160697Y82709D01*
X160736Y82721D01*
X160776Y82724D01*
X160889Y82765D01*
X161003Y82798D01*
X161038Y82818D01*
X161076Y82832D01*
X161174Y82899D01*
X161277Y82959D01*
X161322Y82999D01*
X161339Y83011D01*
X161341Y83013D01*
X163671Y83013D01*
X163808Y83030D01*
X163947Y83043D01*
X163966Y83050D01*
X163986Y83053D01*
X164115Y83104D01*
X164246Y83151D01*
X164263Y83162D01*
X164282Y83170D01*
X164395Y83251D01*
X164510Y83329D01*
X164523Y83345D01*
X164539Y83356D01*
X164628Y83464D01*
X164720Y83568D01*
X164729Y83586D01*
X164742Y83601D01*
X164801Y83727D01*
X164865Y83851D01*
X164869Y83871D01*
X164878Y83889D01*
X164904Y84025D01*
X164934Y84161D01*
X164934Y84182D01*
X164938Y84201D01*
X164929Y84340D01*
X164925Y84479D01*
X164919Y84499D01*
X164918Y84519D01*
X164875Y84651D01*
X164836Y84785D01*
X164826Y84802D01*
X164820Y84821D01*
X164745Y84939D01*
X164675Y85059D01*
X164656Y85080D01*
X164650Y85090D01*
X164635Y85104D01*
X164568Y85179D01*
X161629Y88119D01*
X161629Y95881D01*
X167119Y101371D01*
X180424Y101371D01*
X180542Y101386D01*
X180661Y101393D01*
X180699Y101406D01*
X180740Y101411D01*
X180850Y101454D01*
X180963Y101491D01*
X180998Y101513D01*
X181035Y101528D01*
X181131Y101597D01*
X181232Y101661D01*
X181260Y101691D01*
X181293Y101714D01*
X181368Y101806D01*
X181450Y101893D01*
X181470Y101928D01*
X181495Y101959D01*
X181546Y102067D01*
X181604Y102171D01*
X181614Y102211D01*
X181631Y102247D01*
X181653Y102364D01*
X181683Y102479D01*
X181687Y102539D01*
X181691Y102559D01*
X181689Y102580D01*
X181693Y102640D01*
X181693Y103056D01*
X182501Y105006D01*
X183994Y106499D01*
X185944Y107307D01*
X188056Y107307D01*
X190081Y106468D01*
X190215Y106431D01*
X190348Y106390D01*
X190368Y106389D01*
X190388Y106384D01*
X190527Y106382D01*
X190666Y106375D01*
X190685Y106379D01*
X190706Y106379D01*
X190841Y106411D01*
X190977Y106439D01*
X190995Y106448D01*
X191015Y106453D01*
X191138Y106518D01*
X191263Y106579D01*
X191278Y106592D01*
X191296Y106602D01*
X191399Y106695D01*
X191505Y106785D01*
X191516Y106802D01*
X191531Y106816D01*
X191608Y106932D01*
X191688Y107045D01*
X191695Y107064D01*
X191706Y107081D01*
X191751Y107212D01*
X191801Y107343D01*
X191803Y107363D01*
X191809Y107382D01*
X191820Y107521D01*
X191836Y107659D01*
X191833Y107679D01*
X191835Y107699D01*
X191811Y107836D01*
X191791Y107974D01*
X191782Y108000D01*
X191780Y108012D01*
X191772Y108031D01*
X191739Y108126D01*
X191193Y109444D01*
X191193Y109936D01*
X191178Y110054D01*
X191171Y110173D01*
X191158Y110211D01*
X191153Y110252D01*
X191110Y110362D01*
X191073Y110475D01*
X191051Y110510D01*
X191036Y110547D01*
X190967Y110643D01*
X190903Y110744D01*
X190873Y110772D01*
X190850Y110805D01*
X190758Y110881D01*
X190671Y110962D01*
X190636Y110982D01*
X190605Y111007D01*
X190497Y111058D01*
X190393Y111116D01*
X190353Y111126D01*
X190317Y111143D01*
X190200Y111165D01*
X190085Y111195D01*
X190025Y111199D01*
X190005Y111203D01*
X189984Y111201D01*
X189924Y111205D01*
X169236Y111205D01*
X169138Y111193D01*
X169039Y111190D01*
X168980Y111173D01*
X168920Y111165D01*
X168828Y111129D01*
X168733Y111101D01*
X168681Y111071D01*
X168625Y111048D01*
X168544Y110990D01*
X168459Y110940D01*
X168384Y110874D01*
X168367Y110862D01*
X168359Y110852D01*
X168338Y110834D01*
X167006Y109501D01*
X165056Y108693D01*
X162944Y108693D01*
X160994Y109501D01*
X159501Y110994D01*
X158693Y112944D01*
X158693Y115056D01*
X159501Y117006D01*
X161022Y118527D01*
X161095Y118621D01*
X161174Y118710D01*
X161192Y118746D01*
X161217Y118778D01*
X161264Y118888D01*
X161318Y118993D01*
X161327Y119033D01*
X161343Y119070D01*
X161362Y119188D01*
X161388Y119304D01*
X161387Y119344D01*
X161393Y119384D01*
X161382Y119503D01*
X161378Y119622D01*
X161367Y119660D01*
X161363Y119701D01*
X161323Y119813D01*
X161290Y119927D01*
X161269Y119962D01*
X161256Y120000D01*
X161189Y120099D01*
X161128Y120201D01*
X161089Y120246D01*
X161077Y120263D01*
X161062Y120277D01*
X161022Y120322D01*
X159975Y121368D01*
X159975Y135632D01*
X160907Y136564D01*
X160984Y136663D01*
X161067Y136758D01*
X161082Y136788D01*
X161102Y136815D01*
X161152Y136930D01*
X161208Y137043D01*
X161215Y137076D01*
X161229Y137107D01*
X161248Y137231D01*
X161274Y137354D01*
X161273Y137387D01*
X161278Y137421D01*
X161267Y137546D01*
X161261Y137672D01*
X161252Y137704D01*
X161249Y137737D01*
X161206Y137856D01*
X161170Y137976D01*
X161152Y138005D01*
X161141Y138037D01*
X161070Y138141D01*
X161005Y138248D01*
X160981Y138272D01*
X160962Y138300D01*
X160868Y138383D01*
X160778Y138471D01*
X160738Y138498D01*
X160724Y138510D01*
X160705Y138520D01*
X160644Y138560D01*
X159940Y138967D01*
X159467Y139440D01*
X159132Y140019D01*
X158959Y140666D01*
X158959Y144961D01*
X167730Y144961D01*
X167848Y144976D01*
X167967Y144983D01*
X168005Y144996D01*
X168045Y145001D01*
X168156Y145044D01*
X168269Y145081D01*
X168304Y145103D01*
X168341Y145118D01*
X168437Y145188D01*
X168538Y145251D01*
X168566Y145281D01*
X168598Y145305D01*
X168674Y145396D01*
X168756Y145483D01*
X168775Y145518D01*
X168801Y145549D01*
X168852Y145657D01*
X168909Y145761D01*
X168920Y145801D01*
X168937Y145837D01*
X168959Y145954D01*
X168989Y146069D01*
X168993Y146130D01*
X168997Y146150D01*
X168995Y146170D01*
X168999Y146230D01*
X168999Y147501D01*
X169001Y147501D01*
X169001Y146230D01*
X169016Y146112D01*
X169023Y145993D01*
X169036Y145955D01*
X169041Y145915D01*
X169085Y145804D01*
X169121Y145691D01*
X169143Y145656D01*
X169158Y145619D01*
X169228Y145523D01*
X169291Y145422D01*
X169321Y145394D01*
X169345Y145361D01*
X169436Y145286D01*
X169523Y145204D01*
X169558Y145184D01*
X169590Y145159D01*
X169697Y145108D01*
X169801Y145050D01*
X169841Y145040D01*
X169877Y145023D01*
X169994Y145001D01*
X170109Y144971D01*
X170170Y144967D01*
X170190Y144963D01*
X170210Y144965D01*
X170270Y144961D01*
X188730Y144961D01*
X188848Y144976D01*
X188967Y144983D01*
X189005Y144996D01*
X189045Y145001D01*
X189156Y145044D01*
X189269Y145081D01*
X189304Y145103D01*
X189341Y145118D01*
X189437Y145188D01*
X189538Y145251D01*
X189566Y145281D01*
X189598Y145305D01*
X189674Y145396D01*
X189756Y145483D01*
X189775Y145518D01*
X189801Y145549D01*
X189852Y145657D01*
X189909Y145761D01*
X189920Y145801D01*
X189937Y145837D01*
X189959Y145954D01*
X189989Y146069D01*
X189993Y146130D01*
X189997Y146150D01*
X189995Y146170D01*
X189999Y146230D01*
X189999Y147501D01*
X191270Y147501D01*
X191388Y147516D01*
X191507Y147523D01*
X191545Y147536D01*
X191585Y147541D01*
X191696Y147585D01*
X191809Y147621D01*
X191844Y147643D01*
X191881Y147658D01*
X191977Y147728D01*
X192078Y147791D01*
X192106Y147821D01*
X192138Y147845D01*
X192214Y147936D01*
X192296Y148023D01*
X192315Y148058D01*
X192341Y148090D01*
X192392Y148197D01*
X192449Y148301D01*
X192460Y148341D01*
X192477Y148377D01*
X192499Y148494D01*
X192529Y148609D01*
X192533Y148670D01*
X192537Y148690D01*
X192535Y148710D01*
X192539Y148770D01*
X192539Y156541D01*
X193443Y156541D01*
X193581Y156558D01*
X193719Y156571D01*
X193738Y156578D01*
X193758Y156581D01*
X193887Y156632D01*
X194018Y156679D01*
X194035Y156690D01*
X194054Y156698D01*
X194166Y156779D01*
X194281Y156857D01*
X194295Y156873D01*
X194311Y156884D01*
X194400Y156992D01*
X194492Y157096D01*
X194501Y157114D01*
X194514Y157129D01*
X194573Y157255D01*
X194637Y157379D01*
X194641Y157399D01*
X194650Y157417D01*
X194676Y157553D01*
X194706Y157689D01*
X194706Y157710D01*
X194709Y157729D01*
X194701Y157868D01*
X194697Y158007D01*
X194691Y158027D01*
X194690Y158047D01*
X194647Y158179D01*
X194608Y158313D01*
X194598Y158330D01*
X194592Y158349D01*
X194517Y158467D01*
X194447Y158587D01*
X194428Y158608D01*
X194421Y158618D01*
X194406Y158632D01*
X194340Y158707D01*
X193214Y159834D01*
X193136Y159894D01*
X193064Y159962D01*
X193011Y159991D01*
X192963Y160028D01*
X192872Y160068D01*
X192785Y160116D01*
X192727Y160131D01*
X192671Y160155D01*
X192573Y160170D01*
X192477Y160195D01*
X192377Y160201D01*
X192357Y160205D01*
X192345Y160203D01*
X192317Y160205D01*
X106683Y160205D01*
X106585Y160193D01*
X106486Y160190D01*
X106428Y160173D01*
X106368Y160165D01*
X106276Y160129D01*
X106181Y160101D01*
X106128Y160071D01*
X106072Y160048D01*
X105992Y159990D01*
X105907Y159940D01*
X105831Y159874D01*
X105815Y159862D01*
X105807Y159852D01*
X105786Y159834D01*
X102896Y156944D01*
X102836Y156866D01*
X102768Y156794D01*
X102739Y156741D01*
X102702Y156693D01*
X102662Y156602D01*
X102614Y156515D01*
X102599Y156457D01*
X102575Y156401D01*
X102560Y156303D01*
X102535Y156207D01*
X102529Y156107D01*
X102525Y156087D01*
X102527Y156075D01*
X102525Y156047D01*
X102525Y149541D01*
X102542Y149403D01*
X102555Y149265D01*
X102562Y149246D01*
X102565Y149226D01*
X102616Y149097D01*
X102663Y148966D01*
X102674Y148949D01*
X102682Y148930D01*
X102763Y148818D01*
X102841Y148703D01*
X102857Y148689D01*
X102868Y148673D01*
X102976Y148584D01*
X103080Y148492D01*
X103098Y148483D01*
X103113Y148470D01*
X103239Y148411D01*
X103363Y148347D01*
X103383Y148343D01*
X103401Y148334D01*
X103538Y148308D01*
X103673Y148278D01*
X103694Y148278D01*
X103713Y148275D01*
X103852Y148283D01*
X103991Y148287D01*
X104011Y148293D01*
X104031Y148294D01*
X104163Y148337D01*
X104297Y148376D01*
X104314Y148386D01*
X104333Y148392D01*
X104451Y148467D01*
X104571Y148537D01*
X104592Y148556D01*
X104602Y148563D01*
X104616Y148578D01*
X104691Y148644D01*
X105754Y149707D01*
X105764Y149707D01*
X105862Y149719D01*
X105961Y149722D01*
X106020Y149739D01*
X106080Y149747D01*
X106172Y149783D01*
X106267Y149811D01*
X106319Y149841D01*
X106375Y149864D01*
X106455Y149922D01*
X106541Y149972D01*
X106616Y150038D01*
X106633Y150050D01*
X106640Y150060D01*
X106662Y150078D01*
X107994Y151411D01*
X109944Y152219D01*
X112056Y152219D01*
X114006Y151411D01*
X115499Y149918D01*
X116307Y147968D01*
X116307Y145856D01*
X115499Y143906D01*
X115193Y143601D01*
X115108Y143491D01*
X115019Y143384D01*
X115011Y143365D01*
X114998Y143349D01*
X114943Y143221D01*
X114884Y143096D01*
X114880Y143076D01*
X114872Y143057D01*
X114850Y142919D01*
X114824Y142783D01*
X114825Y142763D01*
X114822Y142743D01*
X114835Y142604D01*
X114844Y142466D01*
X114850Y142447D01*
X114852Y142427D01*
X114899Y142296D01*
X114942Y142164D01*
X114953Y142146D01*
X114960Y142127D01*
X115038Y142013D01*
X115112Y141895D01*
X115127Y141881D01*
X115138Y141864D01*
X115242Y141772D01*
X115344Y141677D01*
X115361Y141667D01*
X115377Y141654D01*
X115501Y141590D01*
X115622Y141523D01*
X115642Y141518D01*
X115660Y141509D01*
X115796Y141479D01*
X115930Y141444D01*
X115958Y141442D01*
X115970Y141439D01*
X115991Y141440D01*
X116091Y141434D01*
X127761Y141434D01*
X127761Y133939D01*
X107820Y133939D01*
X107820Y139227D01*
X107993Y139874D01*
X108336Y140467D01*
X108340Y140471D01*
X108400Y140562D01*
X108468Y140649D01*
X108488Y140695D01*
X108515Y140737D01*
X108551Y140840D01*
X108594Y140941D01*
X108602Y140990D01*
X108618Y141037D01*
X108627Y141147D01*
X108644Y141255D01*
X108639Y141305D01*
X108643Y141354D01*
X108625Y141462D01*
X108614Y141572D01*
X108597Y141619D01*
X108589Y141668D01*
X108544Y141768D01*
X108507Y141871D01*
X108479Y141912D01*
X108458Y141958D01*
X108390Y142043D01*
X108328Y142134D01*
X108291Y142167D01*
X108260Y142206D01*
X108172Y142272D01*
X108090Y142345D01*
X108045Y142367D01*
X108006Y142397D01*
X107969Y142415D01*
X107894Y142482D01*
X107858Y142500D01*
X107826Y142525D01*
X107717Y142572D01*
X107611Y142626D01*
X107571Y142635D01*
X107534Y142651D01*
X107417Y142670D01*
X107300Y142696D01*
X107260Y142695D01*
X107220Y142701D01*
X107102Y142690D01*
X106983Y142686D01*
X106944Y142675D01*
X106904Y142671D01*
X106791Y142631D01*
X106677Y142598D01*
X106642Y142577D01*
X106604Y142564D01*
X106506Y142497D01*
X106403Y142436D01*
X106358Y142397D01*
X106341Y142385D01*
X106328Y142370D01*
X106282Y142330D01*
X99658Y135705D01*
X91294Y135705D01*
X91176Y135690D01*
X91057Y135683D01*
X91019Y135670D01*
X90978Y135665D01*
X90868Y135622D01*
X90755Y135585D01*
X90720Y135563D01*
X90683Y135548D01*
X90587Y135479D01*
X90486Y135415D01*
X90458Y135385D01*
X90425Y135362D01*
X90349Y135270D01*
X90268Y135183D01*
X90248Y135148D01*
X90223Y135117D01*
X90172Y135009D01*
X90114Y134905D01*
X90104Y134865D01*
X90087Y134829D01*
X90065Y134712D01*
X90035Y134597D01*
X90031Y134537D01*
X90027Y134517D01*
X90029Y134496D01*
X90025Y134436D01*
X90025Y132868D01*
X89132Y131975D01*
X76868Y131975D01*
X75975Y132868D01*
X75975Y144132D01*
X77152Y145309D01*
X77237Y145418D01*
X77326Y145525D01*
X77335Y145544D01*
X77347Y145560D01*
X77403Y145688D01*
X77462Y145813D01*
X77465Y145833D01*
X77474Y145852D01*
X77495Y145990D01*
X77521Y146126D01*
X77520Y146146D01*
X77523Y146166D01*
X77510Y146305D01*
X77502Y146443D01*
X77495Y146462D01*
X77494Y146482D01*
X77446Y146614D01*
X77404Y146745D01*
X77393Y146763D01*
X77386Y146782D01*
X77308Y146897D01*
X77233Y147014D01*
X77219Y147028D01*
X77207Y147045D01*
X77103Y147137D01*
X77002Y147232D01*
X76984Y147242D01*
X76969Y147255D01*
X76845Y147319D01*
X76723Y147386D01*
X76704Y147391D01*
X76686Y147400D01*
X76550Y147430D01*
X76415Y147465D01*
X76387Y147467D01*
X76375Y147470D01*
X76374Y147469D01*
X75475Y148368D01*
X75475Y149936D01*
X75460Y150054D01*
X75453Y150173D01*
X75440Y150211D01*
X75435Y150252D01*
X75392Y150362D01*
X75355Y150475D01*
X75333Y150510D01*
X75318Y150547D01*
X75249Y150643D01*
X75185Y150744D01*
X75155Y150772D01*
X75132Y150805D01*
X75040Y150881D01*
X74953Y150962D01*
X74918Y150982D01*
X74887Y151007D01*
X74779Y151058D01*
X74675Y151116D01*
X74635Y151126D01*
X74599Y151143D01*
X74482Y151165D01*
X74367Y151195D01*
X74307Y151199D01*
X74287Y151203D01*
X74266Y151201D01*
X74206Y151205D01*
X64294Y151205D01*
X64176Y151190D01*
X64057Y151183D01*
X64019Y151170D01*
X63978Y151165D01*
X63868Y151122D01*
X63755Y151085D01*
X63720Y151063D01*
X63683Y151048D01*
X63587Y150979D01*
X63486Y150915D01*
X63458Y150885D01*
X63425Y150862D01*
X63349Y150770D01*
X63268Y150683D01*
X63248Y150648D01*
X63223Y150617D01*
X63172Y150509D01*
X63114Y150405D01*
X63104Y150365D01*
X63087Y150329D01*
X63065Y150212D01*
X63035Y150097D01*
X63031Y150037D01*
X63027Y150017D01*
X63029Y149996D01*
X63025Y149936D01*
X63025Y142868D01*
X62132Y141975D01*
X49868Y141975D01*
X48975Y142868D01*
X48975Y154132D01*
X49868Y155025D01*
X58047Y155025D01*
X58145Y155037D01*
X58244Y155040D01*
X58302Y155057D01*
X58362Y155065D01*
X58454Y155101D01*
X58549Y155129D01*
X58602Y155159D01*
X58658Y155182D01*
X58738Y155240D01*
X58823Y155290D01*
X58899Y155356D01*
X58915Y155368D01*
X58923Y155378D01*
X58944Y155396D01*
X60342Y156795D01*
X74206Y156795D01*
X74324Y156810D01*
X74443Y156817D01*
X74481Y156830D01*
X74522Y156835D01*
X74632Y156878D01*
X74745Y156915D01*
X74780Y156937D01*
X74817Y156952D01*
X74913Y157021D01*
X75014Y157085D01*
X75042Y157115D01*
X75075Y157138D01*
X75151Y157230D01*
X75232Y157317D01*
X75252Y157352D01*
X75277Y157383D01*
X75328Y157491D01*
X75386Y157595D01*
X75396Y157635D01*
X75413Y157671D01*
X75435Y157788D01*
X75465Y157903D01*
X75469Y157963D01*
X75473Y157983D01*
X75471Y158004D01*
X75475Y158064D01*
X75475Y161632D01*
X76368Y162525D01*
X85632Y162525D01*
X86525Y161632D01*
X86525Y148368D01*
X85348Y147191D01*
X85263Y147082D01*
X85174Y146975D01*
X85165Y146956D01*
X85153Y146940D01*
X85097Y146812D01*
X85038Y146687D01*
X85035Y146667D01*
X85026Y146648D01*
X85005Y146510D01*
X84979Y146374D01*
X84980Y146354D01*
X84977Y146334D01*
X84990Y146195D01*
X84998Y146057D01*
X85005Y146038D01*
X85006Y146018D01*
X85054Y145886D01*
X85096Y145755D01*
X85107Y145737D01*
X85114Y145718D01*
X85192Y145603D01*
X85267Y145486D01*
X85281Y145472D01*
X85293Y145455D01*
X85397Y145363D01*
X85498Y145268D01*
X85516Y145258D01*
X85531Y145245D01*
X85655Y145181D01*
X85777Y145114D01*
X85796Y145109D01*
X85814Y145100D01*
X85950Y145070D01*
X86085Y145035D01*
X86113Y145033D01*
X86125Y145030D01*
X86145Y145031D01*
X86245Y145025D01*
X89132Y145025D01*
X90025Y144132D01*
X90025Y142564D01*
X90040Y142446D01*
X90047Y142327D01*
X90060Y142289D01*
X90065Y142248D01*
X90108Y142138D01*
X90145Y142025D01*
X90167Y141990D01*
X90182Y141953D01*
X90251Y141857D01*
X90315Y141756D01*
X90345Y141728D01*
X90368Y141695D01*
X90460Y141619D01*
X90547Y141538D01*
X90582Y141518D01*
X90613Y141493D01*
X90721Y141442D01*
X90825Y141384D01*
X90865Y141374D01*
X90901Y141357D01*
X91018Y141335D01*
X91133Y141305D01*
X91193Y141301D01*
X91213Y141297D01*
X91234Y141299D01*
X91294Y141295D01*
X96817Y141295D01*
X96915Y141307D01*
X97014Y141310D01*
X97072Y141327D01*
X97132Y141335D01*
X97224Y141371D01*
X97319Y141399D01*
X97372Y141429D01*
X97428Y141452D01*
X97508Y141510D01*
X97593Y141560D01*
X97669Y141626D01*
X97685Y141638D01*
X97693Y141648D01*
X97714Y141666D01*
X101356Y145309D01*
X101441Y145418D01*
X101530Y145525D01*
X101539Y145544D01*
X101551Y145560D01*
X101607Y145688D01*
X101666Y145813D01*
X101669Y145833D01*
X101677Y145852D01*
X101699Y145990D01*
X101725Y146126D01*
X101724Y146146D01*
X101727Y146166D01*
X101714Y146305D01*
X101706Y146443D01*
X101699Y146462D01*
X101698Y146482D01*
X101650Y146614D01*
X101608Y146745D01*
X101597Y146763D01*
X101590Y146782D01*
X101512Y146897D01*
X101437Y147014D01*
X101423Y147028D01*
X101411Y147045D01*
X101307Y147137D01*
X101206Y147232D01*
X101188Y147242D01*
X101173Y147255D01*
X101049Y147319D01*
X100927Y147386D01*
X100908Y147391D01*
X100890Y147400D01*
X100754Y147430D01*
X100619Y147465D01*
X100591Y147467D01*
X100579Y147470D01*
X100559Y147469D01*
X100459Y147475D01*
X92368Y147475D01*
X91475Y148368D01*
X91475Y161632D01*
X92368Y162525D01*
X100047Y162525D01*
X100145Y162537D01*
X100244Y162540D01*
X100302Y162557D01*
X100362Y162565D01*
X100454Y162601D01*
X100549Y162629D01*
X100602Y162659D01*
X100658Y162682D01*
X100738Y162740D01*
X100823Y162790D01*
X100899Y162856D01*
X100915Y162868D01*
X100923Y162878D01*
X100944Y162896D01*
X103842Y165795D01*
X166636Y165795D01*
X166774Y165812D01*
X166913Y165825D01*
X166932Y165832D01*
X166952Y165835D01*
X167081Y165886D01*
X167212Y165933D01*
X167229Y165944D01*
X167247Y165952D01*
X167359Y166033D01*
X167475Y166111D01*
X167488Y166127D01*
X167505Y166138D01*
X167594Y166246D01*
X167685Y166350D01*
X167695Y166368D01*
X167708Y166383D01*
X167767Y166509D01*
X167830Y166633D01*
X167834Y166653D01*
X167843Y166671D01*
X167869Y166808D01*
X167900Y166943D01*
X167899Y166964D01*
X167903Y166983D01*
X167894Y167122D01*
X167890Y167261D01*
X167884Y167281D01*
X167883Y167301D01*
X167840Y167433D01*
X167802Y167567D01*
X167791Y167584D01*
X167785Y167603D01*
X167711Y167721D01*
X167640Y167841D01*
X167621Y167862D01*
X167615Y167872D01*
X167600Y167886D01*
X167534Y167962D01*
X167501Y167994D01*
X166693Y169944D01*
X166693Y172056D01*
X167501Y174006D01*
X168994Y175499D01*
X170944Y176307D01*
X172829Y176307D01*
X172927Y176319D01*
X173026Y176322D01*
X173084Y176339D01*
X173144Y176347D01*
X173236Y176383D01*
X173331Y176411D01*
X173384Y176441D01*
X173440Y176464D01*
X173520Y176522D01*
X173605Y176572D01*
X173681Y176638D01*
X173697Y176650D01*
X173705Y176660D01*
X173726Y176678D01*
X174720Y177673D01*
X174805Y177782D01*
X174894Y177889D01*
X174903Y177908D01*
X174915Y177924D01*
X174970Y178051D01*
X175030Y178177D01*
X175033Y178197D01*
X175041Y178216D01*
X175063Y178354D01*
X175089Y178490D01*
X175088Y178510D01*
X175091Y178530D01*
X175078Y178669D01*
X175070Y178807D01*
X175063Y178826D01*
X175062Y178846D01*
X175014Y178978D01*
X174972Y179109D01*
X174961Y179127D01*
X174954Y179146D01*
X174876Y179261D01*
X174801Y179378D01*
X174787Y179392D01*
X174775Y179409D01*
X174671Y179501D01*
X174570Y179596D01*
X174552Y179606D01*
X174537Y179619D01*
X174413Y179682D01*
X174291Y179750D01*
X174272Y179755D01*
X174254Y179764D01*
X174118Y179794D01*
X173983Y179829D01*
X173955Y179831D01*
X173943Y179834D01*
X173923Y179833D01*
X173823Y179839D01*
X11430Y179839D01*
X11312Y179824D01*
X11193Y179817D01*
X11155Y179804D01*
X11114Y179799D01*
X11004Y179756D01*
X10891Y179719D01*
X10856Y179697D01*
X10819Y179682D01*
X10723Y179613D01*
X10622Y179549D01*
X10594Y179519D01*
X10561Y179496D01*
X10485Y179404D01*
X10404Y179317D01*
X10384Y179282D01*
X10359Y179251D01*
X10308Y179143D01*
X10250Y179039D01*
X10240Y178999D01*
X10223Y178963D01*
X10201Y178846D01*
X10171Y178731D01*
X10167Y178671D01*
X10163Y178651D01*
X10165Y178630D01*
X10161Y178570D01*
X10161Y46150D01*
X10176Y46032D01*
X10183Y45913D01*
X10196Y45875D01*
X10201Y45834D01*
X10244Y45724D01*
X10281Y45611D01*
X10303Y45576D01*
X10318Y45539D01*
X10387Y45443D01*
X10451Y45342D01*
X10481Y45314D01*
X10504Y45281D01*
X10596Y45205D01*
X10683Y45124D01*
X10718Y45104D01*
X10749Y45079D01*
X10857Y45028D01*
X10961Y44970D01*
X11001Y44960D01*
X11037Y44943D01*
X11154Y44921D01*
X11269Y44891D01*
X11329Y44887D01*
X11349Y44883D01*
X11370Y44885D01*
X11430Y44881D01*
X19666Y44881D01*
X19784Y44896D01*
X19903Y44903D01*
X19941Y44916D01*
X19982Y44921D01*
X20092Y44964D01*
X20205Y45001D01*
X20240Y45023D01*
X20277Y45038D01*
X20373Y45107D01*
X20474Y45171D01*
X20502Y45201D01*
X20535Y45224D01*
X20611Y45316D01*
X20692Y45403D01*
X20712Y45438D01*
X20737Y45469D01*
X20788Y45577D01*
X20846Y45681D01*
X20856Y45721D01*
X20873Y45757D01*
X20895Y45874D01*
X20925Y45989D01*
X20929Y46049D01*
X20933Y46069D01*
X20931Y46090D01*
X20935Y46150D01*
X20935Y59206D01*
X20920Y59324D01*
X20913Y59443D01*
X20900Y59481D01*
X20895Y59522D01*
X20852Y59632D01*
X20815Y59745D01*
X20793Y59780D01*
X20778Y59817D01*
X20709Y59913D01*
X20645Y60014D01*
X20615Y60042D01*
X20592Y60075D01*
X20500Y60151D01*
X20413Y60232D01*
X20378Y60252D01*
X20347Y60277D01*
X20239Y60328D01*
X20135Y60386D01*
X20095Y60396D01*
X20059Y60413D01*
X19942Y60435D01*
X19827Y60465D01*
X19767Y60469D01*
X19747Y60473D01*
X19726Y60471D01*
X19666Y60475D01*
X16368Y60475D01*
X15475Y61368D01*
X15475Y80640D01*
X15519Y80697D01*
X15598Y80786D01*
X15616Y80822D01*
X15641Y80854D01*
X15688Y80963D01*
X15743Y81069D01*
X15751Y81108D01*
X15767Y81146D01*
X15786Y81263D01*
X15812Y81379D01*
X15811Y81420D01*
X15817Y81460D01*
X15806Y81578D01*
X15803Y81697D01*
X15791Y81736D01*
X15788Y81776D01*
X15747Y81888D01*
X15714Y82003D01*
X15694Y82037D01*
X15680Y82076D01*
X15613Y82174D01*
X15553Y82277D01*
X15513Y82322D01*
X15501Y82339D01*
X15486Y82352D01*
X15475Y82364D01*
X15475Y101632D01*
X16368Y102525D01*
X19666Y102525D01*
X19784Y102540D01*
X19903Y102547D01*
X19941Y102560D01*
X19982Y102565D01*
X20092Y102608D01*
X20205Y102645D01*
X20240Y102667D01*
X20277Y102682D01*
X20373Y102751D01*
X20474Y102815D01*
X20502Y102845D01*
X20535Y102868D01*
X20611Y102960D01*
X20692Y103047D01*
X20712Y103082D01*
X20737Y103113D01*
X20788Y103221D01*
X20846Y103325D01*
X20856Y103365D01*
X20873Y103401D01*
X20895Y103518D01*
X20925Y103633D01*
X20929Y103693D01*
X20933Y103713D01*
X20931Y103734D01*
X20935Y103794D01*
X20935Y107684D01*
X28316Y115065D01*
X38366Y115065D01*
X38504Y115082D01*
X38643Y115095D01*
X38662Y115102D01*
X38682Y115105D01*
X38811Y115156D01*
X38942Y115203D01*
X38959Y115214D01*
X38977Y115222D01*
X39090Y115303D01*
X39205Y115381D01*
X39218Y115397D01*
X39235Y115408D01*
X39324Y115516D01*
X39415Y115620D01*
X39425Y115638D01*
X39438Y115653D01*
X39497Y115779D01*
X39560Y115903D01*
X39564Y115923D01*
X39573Y115941D01*
X39599Y116078D01*
X39630Y116213D01*
X39629Y116234D01*
X39633Y116253D01*
X39624Y116392D01*
X39620Y116531D01*
X39614Y116551D01*
X39613Y116571D01*
X39570Y116703D01*
X39532Y116837D01*
X39521Y116854D01*
X39515Y116873D01*
X39441Y116991D01*
X39370Y117111D01*
X39351Y117132D01*
X39345Y117142D01*
X39330Y117156D01*
X39264Y117231D01*
X38501Y117994D01*
X37693Y119944D01*
X37693Y122056D01*
X38501Y124006D01*
X39994Y125499D01*
X41944Y126307D01*
X44056Y126307D01*
X45251Y125812D01*
X45280Y125804D01*
X45306Y125790D01*
X45432Y125762D01*
X45558Y125728D01*
X45587Y125727D01*
X45616Y125721D01*
X45746Y125725D01*
X45876Y125723D01*
X45905Y125729D01*
X45934Y125730D01*
X46059Y125766D01*
X46185Y125797D01*
X46211Y125811D01*
X46240Y125819D01*
X46351Y125885D01*
X46466Y125945D01*
X46488Y125965D01*
X46513Y125980D01*
X46634Y126087D01*
X48604Y128056D01*
X48664Y128134D01*
X48732Y128206D01*
X48761Y128259D01*
X48798Y128307D01*
X48838Y128398D01*
X48886Y128485D01*
X48901Y128543D01*
X48925Y128599D01*
X48940Y128697D01*
X48965Y128793D01*
X48971Y128893D01*
X48975Y128913D01*
X48973Y128925D01*
X48975Y128953D01*
X48975Y137132D01*
X49868Y138025D01*
X62132Y138025D01*
X63025Y137132D01*
X63025Y125868D01*
X62132Y124975D01*
X53953Y124975D01*
X53855Y124963D01*
X53756Y124960D01*
X53698Y124943D01*
X53638Y124935D01*
X53546Y124899D01*
X53451Y124871D01*
X53398Y124841D01*
X53342Y124818D01*
X53262Y124760D01*
X53177Y124710D01*
X53101Y124644D01*
X53085Y124632D01*
X53077Y124622D01*
X53056Y124604D01*
X48666Y120214D01*
X48422Y119969D01*
X48416Y119962D01*
X48409Y119956D01*
X48318Y119836D01*
X48227Y119718D01*
X48223Y119710D01*
X48217Y119702D01*
X48146Y119557D01*
X47499Y117994D01*
X46736Y117231D01*
X46651Y117122D01*
X46562Y117015D01*
X46554Y116996D01*
X46541Y116980D01*
X46486Y116852D01*
X46427Y116727D01*
X46423Y116707D01*
X46415Y116688D01*
X46393Y116550D01*
X46367Y116414D01*
X46368Y116394D01*
X46365Y116374D01*
X46378Y116235D01*
X46387Y116097D01*
X46393Y116078D01*
X46395Y116058D01*
X46442Y115926D01*
X46485Y115795D01*
X46496Y115777D01*
X46503Y115758D01*
X46581Y115643D01*
X46655Y115526D01*
X46670Y115512D01*
X46681Y115495D01*
X46785Y115403D01*
X46887Y115308D01*
X46904Y115298D01*
X46920Y115285D01*
X47043Y115222D01*
X47165Y115154D01*
X47185Y115149D01*
X47203Y115140D01*
X47339Y115110D01*
X47473Y115075D01*
X47501Y115073D01*
X47513Y115070D01*
X47534Y115071D01*
X47634Y115065D01*
X70773Y115065D01*
X73371Y112466D01*
X73450Y112406D01*
X73522Y112338D01*
X73575Y112309D01*
X73623Y112272D01*
X73714Y112232D01*
X73800Y112184D01*
X73859Y112169D01*
X73915Y112145D01*
X74012Y112130D01*
X74108Y112105D01*
X74208Y112099D01*
X74229Y112095D01*
X74241Y112097D01*
X74269Y112095D01*
X77218Y112095D01*
X77785Y111528D01*
X77894Y111443D01*
X78001Y111354D01*
X78020Y111345D01*
X78036Y111333D01*
X78164Y111278D01*
X78289Y111218D01*
X78309Y111215D01*
X78328Y111206D01*
X78466Y111185D01*
X78602Y111159D01*
X78622Y111160D01*
X78642Y111157D01*
X78781Y111170D01*
X78919Y111178D01*
X78938Y111185D01*
X78958Y111186D01*
X79090Y111234D01*
X79221Y111276D01*
X79239Y111287D01*
X79258Y111294D01*
X79373Y111372D01*
X79490Y111447D01*
X79504Y111461D01*
X79521Y111473D01*
X79613Y111577D01*
X79708Y111678D01*
X79718Y111696D01*
X79731Y111711D01*
X79794Y111835D01*
X79862Y111957D01*
X79867Y111976D01*
X79876Y111994D01*
X79906Y112130D01*
X79941Y112265D01*
X79943Y112293D01*
X79946Y112305D01*
X79945Y112325D01*
X79951Y112425D01*
X79951Y113706D01*
X79936Y113824D01*
X79929Y113943D01*
X79916Y113981D01*
X79911Y114022D01*
X79868Y114132D01*
X79831Y114245D01*
X79809Y114280D01*
X79794Y114317D01*
X79725Y114413D01*
X79661Y114514D01*
X79631Y114542D01*
X79608Y114575D01*
X79516Y114651D01*
X79429Y114732D01*
X79394Y114752D01*
X79363Y114777D01*
X79255Y114828D01*
X79151Y114886D01*
X79111Y114896D01*
X79075Y114913D01*
X78958Y114935D01*
X78843Y114965D01*
X78783Y114969D01*
X78763Y114973D01*
X78742Y114971D01*
X78682Y114975D01*
X76868Y114975D01*
X75975Y115868D01*
X75975Y127132D01*
X76868Y128025D01*
X89132Y128025D01*
X90025Y127132D01*
X90025Y115868D01*
X89434Y115277D01*
X89349Y115168D01*
X89260Y115061D01*
X89251Y115042D01*
X89239Y115026D01*
X89184Y114899D01*
X89124Y114773D01*
X89121Y114753D01*
X89112Y114734D01*
X89091Y114596D01*
X89065Y114460D01*
X89066Y114440D01*
X89063Y114420D01*
X89076Y114281D01*
X89084Y114143D01*
X89091Y114124D01*
X89092Y114104D01*
X89140Y113972D01*
X89182Y113841D01*
X89193Y113823D01*
X89200Y113804D01*
X89278Y113689D01*
X89353Y113572D01*
X89367Y113558D01*
X89379Y113541D01*
X89483Y113449D01*
X89584Y113354D01*
X89602Y113344D01*
X89617Y113331D01*
X89741Y113268D01*
X89863Y113200D01*
X89882Y113195D01*
X89900Y113186D01*
X90036Y113156D01*
X90171Y113121D01*
X90199Y113119D01*
X90211Y113116D01*
X90231Y113117D01*
X90331Y113111D01*
X91708Y113111D01*
X91708Y106113D01*
X91710Y106097D01*
X91708Y106066D01*
X91708Y99068D01*
X90080Y99068D01*
X89433Y99241D01*
X88854Y99576D01*
X88429Y100001D01*
X88335Y100074D01*
X88246Y100153D01*
X88210Y100171D01*
X88178Y100196D01*
X88069Y100243D01*
X87963Y100297D01*
X87923Y100306D01*
X87886Y100322D01*
X87768Y100341D01*
X87652Y100367D01*
X87612Y100366D01*
X87572Y100372D01*
X87453Y100361D01*
X87334Y100357D01*
X87296Y100346D01*
X87255Y100342D01*
X87143Y100302D01*
X87029Y100269D01*
X86994Y100248D01*
X86956Y100235D01*
X86858Y100168D01*
X86755Y100107D01*
X86729Y100084D01*
X80282Y100084D01*
X79648Y100719D01*
X79554Y100792D01*
X79464Y100871D01*
X79428Y100889D01*
X79396Y100914D01*
X79287Y100961D01*
X79181Y101016D01*
X79142Y101024D01*
X79104Y101040D01*
X78987Y101059D01*
X78871Y101085D01*
X78830Y101084D01*
X78790Y101090D01*
X78672Y101079D01*
X78553Y101076D01*
X78514Y101064D01*
X78474Y101061D01*
X78361Y101020D01*
X78247Y100987D01*
X78213Y100967D01*
X78174Y100953D01*
X78076Y100886D01*
X77973Y100826D01*
X77928Y100786D01*
X77911Y100774D01*
X77898Y100759D01*
X77853Y100719D01*
X77218Y100084D01*
X70782Y100084D01*
X69889Y100977D01*
X69889Y103926D01*
X69877Y104024D01*
X69874Y104123D01*
X69857Y104182D01*
X69849Y104242D01*
X69813Y104334D01*
X69785Y104429D01*
X69755Y104481D01*
X69732Y104537D01*
X69674Y104618D01*
X69624Y104703D01*
X69558Y104778D01*
X69546Y104795D01*
X69536Y104802D01*
X69518Y104824D01*
X67778Y106564D01*
X67699Y106624D01*
X67627Y106692D01*
X67574Y106721D01*
X67526Y106758D01*
X67435Y106798D01*
X67349Y106846D01*
X67290Y106861D01*
X67234Y106885D01*
X67137Y106900D01*
X67041Y106925D01*
X66941Y106931D01*
X66920Y106935D01*
X66908Y106933D01*
X66880Y106935D01*
X32209Y106935D01*
X32111Y106923D01*
X32012Y106920D01*
X31954Y106903D01*
X31894Y106895D01*
X31802Y106859D01*
X31707Y106831D01*
X31655Y106801D01*
X31598Y106778D01*
X31518Y106720D01*
X31433Y106670D01*
X31357Y106604D01*
X31341Y106592D01*
X31333Y106582D01*
X31312Y106564D01*
X29440Y104691D01*
X29355Y104582D01*
X29266Y104475D01*
X29257Y104456D01*
X29245Y104440D01*
X29189Y104312D01*
X29130Y104187D01*
X29127Y104167D01*
X29119Y104148D01*
X29097Y104010D01*
X29071Y103874D01*
X29072Y103854D01*
X29069Y103834D01*
X29082Y103695D01*
X29090Y103557D01*
X29097Y103538D01*
X29099Y103518D01*
X29146Y103386D01*
X29188Y103255D01*
X29199Y103237D01*
X29206Y103218D01*
X29284Y103103D01*
X29359Y102986D01*
X29373Y102972D01*
X29385Y102955D01*
X29489Y102863D01*
X29590Y102768D01*
X29608Y102758D01*
X29623Y102745D01*
X29747Y102681D01*
X29869Y102614D01*
X29888Y102609D01*
X29906Y102600D01*
X30042Y102570D01*
X30177Y102535D01*
X30205Y102533D01*
X30217Y102530D01*
X30237Y102531D01*
X30337Y102525D01*
X33632Y102525D01*
X34525Y101632D01*
X34525Y82360D01*
X34481Y82303D01*
X34402Y82214D01*
X34384Y82178D01*
X34359Y82146D01*
X34312Y82037D01*
X34257Y81931D01*
X34249Y81891D01*
X34233Y81854D01*
X34214Y81737D01*
X34188Y81621D01*
X34189Y81580D01*
X34183Y81540D01*
X34194Y81421D01*
X34197Y81303D01*
X34209Y81264D01*
X34212Y81224D01*
X34253Y81112D01*
X34286Y80997D01*
X34306Y80962D01*
X34320Y80924D01*
X34387Y80826D01*
X34447Y80723D01*
X34487Y80678D01*
X34499Y80661D01*
X34514Y80648D01*
X34525Y80635D01*
X34525Y61368D01*
X33632Y60475D01*
X30334Y60475D01*
X30216Y60460D01*
X30097Y60453D01*
X30059Y60440D01*
X30018Y60435D01*
X29908Y60392D01*
X29795Y60355D01*
X29760Y60333D01*
X29723Y60318D01*
X29627Y60249D01*
X29526Y60185D01*
X29498Y60155D01*
X29465Y60132D01*
X29389Y60040D01*
X29308Y59953D01*
X29288Y59918D01*
X29263Y59887D01*
X29212Y59779D01*
X29154Y59675D01*
X29144Y59635D01*
X29127Y59599D01*
X29105Y59482D01*
X29075Y59367D01*
X29071Y59307D01*
X29067Y59287D01*
X29069Y59266D01*
X29065Y59206D01*
X29065Y47109D01*
X29077Y47011D01*
X29080Y46912D01*
X29097Y46854D01*
X29105Y46794D01*
X29141Y46702D01*
X29169Y46607D01*
X29199Y46554D01*
X29222Y46498D01*
X29280Y46418D01*
X29330Y46333D01*
X29396Y46257D01*
X29408Y46241D01*
X29418Y46233D01*
X29436Y46212D01*
X30396Y45253D01*
X30474Y45192D01*
X30546Y45124D01*
X30599Y45095D01*
X30647Y45058D01*
X30738Y45018D01*
X30825Y44970D01*
X30883Y44955D01*
X30939Y44931D01*
X31037Y44916D01*
X31133Y44891D01*
X31233Y44885D01*
X31253Y44881D01*
X31265Y44883D01*
X31293Y44881D01*
X75690Y44881D01*
X76583Y43988D01*
X76583Y42594D01*
X76598Y42476D01*
X76605Y42357D01*
X76618Y42319D01*
X76623Y42278D01*
X76666Y42168D01*
X76703Y42055D01*
X76725Y42020D01*
X76740Y41983D01*
X76809Y41887D01*
X76873Y41786D01*
X76903Y41758D01*
X76926Y41725D01*
X77018Y41649D01*
X77105Y41568D01*
X77140Y41548D01*
X77171Y41523D01*
X77279Y41472D01*
X77383Y41414D01*
X77423Y41404D01*
X77459Y41387D01*
X77576Y41365D01*
X77691Y41335D01*
X77751Y41331D01*
X77771Y41327D01*
X77792Y41329D01*
X77852Y41325D01*
X96682Y41325D01*
X96780Y41337D01*
X96879Y41340D01*
X96938Y41357D01*
X96998Y41365D01*
X97090Y41401D01*
X97185Y41429D01*
X97237Y41459D01*
X97293Y41482D01*
X97373Y41540D01*
X97459Y41590D01*
X97534Y41656D01*
X97551Y41668D01*
X97559Y41678D01*
X97580Y41696D01*
X114942Y59059D01*
X120170Y61225D01*
X144694Y61225D01*
X144812Y61240D01*
X144931Y61247D01*
X144969Y61260D01*
X145010Y61265D01*
X145120Y61308D01*
X145233Y61345D01*
X145268Y61367D01*
X145305Y61382D01*
X145401Y61451D01*
X145502Y61515D01*
X145530Y61545D01*
X145563Y61568D01*
X145627Y61647D01*
X146856Y62876D01*
X213144Y62876D01*
X214037Y61983D01*
X214037Y51064D01*
X214052Y50946D01*
X214059Y50827D01*
X214072Y50789D01*
X214077Y50748D01*
X214120Y50638D01*
X214157Y50525D01*
X214179Y50490D01*
X214194Y50453D01*
X214263Y50357D01*
X214327Y50256D01*
X214357Y50228D01*
X214380Y50195D01*
X214472Y50119D01*
X214559Y50038D01*
X214594Y50018D01*
X214625Y49993D01*
X214733Y49942D01*
X214837Y49884D01*
X214877Y49874D01*
X214913Y49857D01*
X215030Y49835D01*
X215145Y49805D01*
X215205Y49801D01*
X215225Y49797D01*
X215246Y49799D01*
X215306Y49795D01*
X221424Y49795D01*
X221542Y49810D01*
X221661Y49817D01*
X221699Y49830D01*
X221740Y49835D01*
X221850Y49878D01*
X221963Y49915D01*
X221998Y49937D01*
X222035Y49952D01*
X222131Y50021D01*
X222232Y50085D01*
X222260Y50115D01*
X222293Y50138D01*
X222369Y50230D01*
X222450Y50317D01*
X222470Y50352D01*
X222495Y50383D01*
X222546Y50491D01*
X222604Y50595D01*
X222614Y50635D01*
X222631Y50671D01*
X222653Y50788D01*
X222683Y50903D01*
X222687Y50963D01*
X222691Y50983D01*
X222689Y51004D01*
X222693Y51064D01*
X222693Y52056D01*
X223501Y54006D01*
X224994Y55499D01*
X226944Y56307D01*
X229056Y56307D01*
X231006Y55499D01*
X232499Y54006D01*
X233307Y52056D01*
X233307Y49944D01*
X232499Y47994D01*
X231006Y46501D01*
X229056Y45693D01*
X227171Y45693D01*
X227073Y45681D01*
X226974Y45678D01*
X226916Y45661D01*
X226856Y45653D01*
X226764Y45617D01*
X226669Y45589D01*
X226616Y45559D01*
X226560Y45536D01*
X226480Y45478D01*
X226395Y45428D01*
X226319Y45362D01*
X226303Y45350D01*
X226295Y45340D01*
X226274Y45322D01*
X225158Y44205D01*
X215306Y44205D01*
X215188Y44190D01*
X215069Y44183D01*
X215031Y44170D01*
X214990Y44165D01*
X214880Y44122D01*
X214767Y44085D01*
X214732Y44063D01*
X214695Y44048D01*
X214599Y43979D01*
X214498Y43915D01*
X214470Y43885D01*
X214437Y43862D01*
X214361Y43770D01*
X214280Y43683D01*
X214260Y43648D01*
X214235Y43617D01*
X214184Y43509D01*
X214126Y43405D01*
X214116Y43365D01*
X214099Y43329D01*
X214077Y43212D01*
X214047Y43097D01*
X214043Y43037D01*
X214039Y43017D01*
X214041Y42996D01*
X214037Y42936D01*
X214037Y32017D01*
X213144Y31124D01*
X146856Y31124D01*
X145684Y32297D01*
X145673Y32314D01*
X145643Y32342D01*
X145620Y32375D01*
X145528Y32451D01*
X145441Y32532D01*
X145406Y32552D01*
X145375Y32577D01*
X145267Y32628D01*
X145163Y32686D01*
X145123Y32696D01*
X145087Y32713D01*
X144970Y32735D01*
X144855Y32765D01*
X144795Y32769D01*
X144775Y32773D01*
X144754Y32771D01*
X144694Y32775D01*
X129418Y32775D01*
X129320Y32763D01*
X129221Y32760D01*
X129162Y32743D01*
X129102Y32735D01*
X129010Y32699D01*
X128915Y32671D01*
X128863Y32641D01*
X128807Y32618D01*
X128727Y32560D01*
X128641Y32510D01*
X128566Y32444D01*
X128549Y32432D01*
X128541Y32422D01*
X128520Y32404D01*
X111158Y15041D01*
X105930Y12875D01*
X77852Y12875D01*
X77734Y12860D01*
X77615Y12853D01*
X77577Y12840D01*
X77536Y12835D01*
X77426Y12792D01*
X77313Y12755D01*
X77278Y12733D01*
X77241Y12718D01*
X77145Y12649D01*
X77044Y12585D01*
X77016Y12555D01*
X76983Y12532D01*
X76907Y12440D01*
X76826Y12353D01*
X76806Y12318D01*
X76781Y12287D01*
X76730Y12179D01*
X76672Y12075D01*
X76662Y12035D01*
X76645Y11999D01*
X76623Y11882D01*
X76593Y11767D01*
X76589Y11707D01*
X76585Y11687D01*
X76587Y11666D01*
X76583Y11606D01*
X76583Y11430D01*
X76598Y11312D01*
X76605Y11193D01*
X76618Y11155D01*
X76623Y11114D01*
X76666Y11004D01*
X76703Y10891D01*
X76725Y10856D01*
X76740Y10819D01*
X76809Y10723D01*
X76873Y10622D01*
X76903Y10594D01*
X76926Y10561D01*
X77018Y10485D01*
X77105Y10404D01*
X77140Y10384D01*
X77171Y10359D01*
X77279Y10308D01*
X77383Y10250D01*
X77423Y10240D01*
X77459Y10223D01*
X77576Y10201D01*
X77691Y10171D01*
X77751Y10167D01*
X77771Y10163D01*
X77792Y10165D01*
X77852Y10161D01*
X139682Y10161D01*
X139800Y10176D01*
G37*
G36*
X336415Y52807D02*
X336415Y52807D01*
X336514Y52810D01*
X336572Y52827D01*
X336632Y52835D01*
X336724Y52871D01*
X336819Y52899D01*
X336872Y52929D01*
X336928Y52952D01*
X337008Y53010D01*
X337093Y53060D01*
X337169Y53126D01*
X337185Y53138D01*
X337193Y53148D01*
X337214Y53166D01*
X342842Y58795D01*
X345706Y58795D01*
X345824Y58810D01*
X345943Y58817D01*
X345981Y58830D01*
X346022Y58835D01*
X346132Y58878D01*
X346245Y58915D01*
X346280Y58937D01*
X346317Y58952D01*
X346413Y59021D01*
X346514Y59085D01*
X346542Y59115D01*
X346575Y59138D01*
X346651Y59230D01*
X346732Y59317D01*
X346752Y59352D01*
X346777Y59383D01*
X346828Y59491D01*
X346886Y59595D01*
X346896Y59635D01*
X346913Y59671D01*
X346935Y59788D01*
X346965Y59903D01*
X346969Y59963D01*
X346973Y59983D01*
X346971Y60004D01*
X346975Y60064D01*
X346975Y66255D01*
X347024Y66351D01*
X347033Y66390D01*
X347049Y66427D01*
X347068Y66545D01*
X347094Y66661D01*
X347093Y66701D01*
X347099Y66741D01*
X347088Y66860D01*
X347084Y66979D01*
X347073Y67018D01*
X347069Y67058D01*
X347029Y67170D01*
X346996Y67284D01*
X346975Y67319D01*
X346962Y67357D01*
X346895Y67456D01*
X346834Y67558D01*
X346794Y67603D01*
X346783Y67620D01*
X346768Y67634D01*
X346728Y67679D01*
X346467Y67940D01*
X346132Y68519D01*
X345959Y69166D01*
X345959Y73461D01*
X353730Y73461D01*
X353848Y73476D01*
X353967Y73483D01*
X354005Y73496D01*
X354045Y73501D01*
X354156Y73544D01*
X354269Y73581D01*
X354304Y73603D01*
X354341Y73618D01*
X354437Y73688D01*
X354538Y73751D01*
X354566Y73781D01*
X354598Y73805D01*
X354674Y73896D01*
X354756Y73983D01*
X354775Y74018D01*
X354801Y74049D01*
X354852Y74157D01*
X354909Y74261D01*
X354920Y74301D01*
X354937Y74337D01*
X354959Y74454D01*
X354989Y74569D01*
X354993Y74630D01*
X354997Y74650D01*
X354995Y74670D01*
X354999Y74730D01*
X354999Y77270D01*
X354984Y77388D01*
X354977Y77507D01*
X354964Y77545D01*
X354959Y77585D01*
X354915Y77696D01*
X354879Y77809D01*
X354857Y77844D01*
X354842Y77881D01*
X354772Y77977D01*
X354709Y78078D01*
X354679Y78106D01*
X354655Y78138D01*
X354564Y78214D01*
X354477Y78296D01*
X354442Y78315D01*
X354410Y78341D01*
X354303Y78392D01*
X354199Y78449D01*
X354159Y78460D01*
X354123Y78477D01*
X354006Y78499D01*
X353891Y78529D01*
X353830Y78533D01*
X353810Y78537D01*
X353790Y78535D01*
X353730Y78539D01*
X345959Y78539D01*
X345959Y82834D01*
X346132Y83481D01*
X346467Y84060D01*
X346604Y84197D01*
X346664Y84275D01*
X346732Y84347D01*
X346761Y84400D01*
X346798Y84448D01*
X346838Y84539D01*
X346886Y84626D01*
X346901Y84684D01*
X346925Y84740D01*
X346940Y84838D01*
X346965Y84933D01*
X346971Y85033D01*
X346975Y85054D01*
X346973Y85066D01*
X346975Y85094D01*
X346975Y87936D01*
X346960Y88054D01*
X346953Y88173D01*
X346940Y88211D01*
X346935Y88252D01*
X346892Y88362D01*
X346855Y88475D01*
X346833Y88510D01*
X346818Y88547D01*
X346749Y88643D01*
X346685Y88744D01*
X346655Y88772D01*
X346632Y88805D01*
X346540Y88881D01*
X346453Y88962D01*
X346418Y88982D01*
X346387Y89007D01*
X346279Y89058D01*
X346175Y89116D01*
X346135Y89126D01*
X346099Y89143D01*
X345982Y89165D01*
X345867Y89195D01*
X345807Y89199D01*
X345787Y89203D01*
X345766Y89201D01*
X345706Y89205D01*
X338683Y89205D01*
X338585Y89193D01*
X338486Y89190D01*
X338428Y89173D01*
X338368Y89165D01*
X338276Y89129D01*
X338181Y89101D01*
X338128Y89071D01*
X338072Y89048D01*
X337992Y88990D01*
X337907Y88940D01*
X337831Y88874D01*
X337815Y88862D01*
X337807Y88852D01*
X337786Y88834D01*
X337678Y88726D01*
X337618Y88648D01*
X337550Y88576D01*
X337521Y88523D01*
X337484Y88475D01*
X337444Y88384D01*
X337396Y88297D01*
X337381Y88239D01*
X337357Y88183D01*
X337342Y88085D01*
X337317Y87989D01*
X337311Y87889D01*
X337307Y87869D01*
X337309Y87857D01*
X337307Y87829D01*
X337307Y85944D01*
X336499Y83994D01*
X335166Y82662D01*
X335106Y82583D01*
X335038Y82511D01*
X335009Y82458D01*
X334972Y82410D01*
X334932Y82319D01*
X334884Y82233D01*
X334869Y82174D01*
X334845Y82118D01*
X334830Y82021D01*
X334805Y81925D01*
X334799Y81825D01*
X334795Y81804D01*
X334797Y81792D01*
X334795Y81764D01*
X334795Y75842D01*
X333023Y74071D01*
X332950Y73976D01*
X332871Y73887D01*
X332853Y73851D01*
X332828Y73819D01*
X332781Y73710D01*
X332727Y73604D01*
X332718Y73565D01*
X332702Y73527D01*
X332683Y73410D01*
X332657Y73294D01*
X332658Y73253D01*
X332652Y73213D01*
X332663Y73095D01*
X332667Y72976D01*
X332678Y72937D01*
X332682Y72897D01*
X332722Y72785D01*
X332755Y72670D01*
X332775Y72635D01*
X332789Y72597D01*
X332856Y72499D01*
X332916Y72396D01*
X332956Y72351D01*
X332968Y72334D01*
X332983Y72321D01*
X333023Y72276D01*
X333778Y71521D01*
X333778Y70258D01*
X327935Y64415D01*
X326617Y64415D01*
X326492Y64399D01*
X326367Y64390D01*
X326335Y64379D01*
X326301Y64375D01*
X326184Y64329D01*
X326065Y64288D01*
X326037Y64270D01*
X326006Y64258D01*
X325904Y64184D01*
X325798Y64115D01*
X325776Y64091D01*
X325748Y64071D01*
X325668Y63974D01*
X325583Y63882D01*
X325567Y63852D01*
X325545Y63826D01*
X325492Y63712D01*
X325432Y63601D01*
X325424Y63569D01*
X325410Y63538D01*
X325386Y63415D01*
X325356Y63293D01*
X325356Y63259D01*
X325350Y63226D01*
X325358Y63100D01*
X325359Y62975D01*
X325369Y62927D01*
X325370Y62908D01*
X325377Y62888D01*
X325391Y62817D01*
X325601Y62031D01*
X325601Y61362D01*
X325428Y60716D01*
X325094Y60137D01*
X323619Y58662D01*
X318980Y63301D01*
X318886Y63374D01*
X318797Y63453D01*
X318761Y63471D01*
X318729Y63496D01*
X318620Y63543D01*
X318575Y63566D01*
X318569Y63585D01*
X318549Y63620D01*
X318535Y63658D01*
X318468Y63757D01*
X318408Y63859D01*
X318368Y63905D01*
X318356Y63921D01*
X318341Y63935D01*
X318301Y63980D01*
X313662Y68619D01*
X315137Y70094D01*
X315716Y70428D01*
X316362Y70601D01*
X317031Y70601D01*
X317817Y70391D01*
X317942Y70374D01*
X318065Y70350D01*
X318098Y70352D01*
X318132Y70348D01*
X318257Y70362D01*
X318382Y70370D01*
X318414Y70380D01*
X318448Y70384D01*
X318565Y70429D01*
X318685Y70468D01*
X318713Y70486D01*
X318745Y70498D01*
X318847Y70571D01*
X318953Y70638D01*
X318977Y70663D01*
X319004Y70682D01*
X319085Y70778D01*
X319171Y70870D01*
X319188Y70899D01*
X319209Y70925D01*
X319264Y71038D01*
X319325Y71148D01*
X319333Y71181D01*
X319348Y71211D01*
X319373Y71335D01*
X319404Y71456D01*
X319407Y71505D01*
X319411Y71523D01*
X319410Y71545D01*
X319415Y71617D01*
X319415Y71936D01*
X319400Y72054D01*
X319392Y72173D01*
X319380Y72211D01*
X319375Y72252D01*
X319331Y72362D01*
X319294Y72475D01*
X319273Y72510D01*
X319258Y72547D01*
X319188Y72643D01*
X319124Y72744D01*
X319095Y72772D01*
X319071Y72805D01*
X318979Y72881D01*
X318892Y72962D01*
X318857Y72982D01*
X318826Y73007D01*
X318718Y73058D01*
X318614Y73116D01*
X318575Y73126D01*
X318538Y73143D01*
X318421Y73165D01*
X318306Y73195D01*
X318246Y73199D01*
X318226Y73203D01*
X318206Y73201D01*
X318145Y73205D01*
X312842Y73205D01*
X312075Y73972D01*
X311971Y74053D01*
X311870Y74139D01*
X311845Y74151D01*
X311824Y74167D01*
X311703Y74220D01*
X311583Y74278D01*
X311557Y74283D01*
X311532Y74294D01*
X311401Y74314D01*
X311272Y74341D01*
X311245Y74339D01*
X311218Y74343D01*
X311086Y74331D01*
X310954Y74324D01*
X310928Y74316D01*
X310901Y74314D01*
X310777Y74269D01*
X310650Y74229D01*
X310628Y74215D01*
X310602Y74206D01*
X310493Y74132D01*
X310380Y74062D01*
X310361Y74043D01*
X310339Y74027D01*
X310252Y73928D01*
X310160Y73833D01*
X310146Y73809D01*
X310129Y73789D01*
X310068Y73671D01*
X310003Y73556D01*
X309991Y73520D01*
X309984Y73506D01*
X309979Y73485D01*
X309975Y73471D01*
X309541Y72720D01*
X308754Y71933D01*
X301375Y79312D01*
X301319Y79355D01*
X301293Y79385D01*
X301281Y79402D01*
X301266Y79415D01*
X301226Y79461D01*
X293318Y87368D01*
X293295Y87386D01*
X293276Y87409D01*
X293170Y87483D01*
X293067Y87563D01*
X293040Y87575D01*
X293016Y87592D01*
X292895Y87638D01*
X292775Y87690D01*
X292746Y87694D01*
X292718Y87705D01*
X292590Y87719D01*
X292461Y87739D01*
X292432Y87737D01*
X292402Y87740D01*
X292274Y87722D01*
X292145Y87710D01*
X292117Y87700D01*
X292087Y87695D01*
X292029Y87676D01*
X291894Y87663D01*
X291886Y87660D01*
X291797Y87683D01*
X291769Y87685D01*
X291757Y87688D01*
X291737Y87687D01*
X291636Y87693D01*
X289944Y87693D01*
X287994Y88501D01*
X286501Y89994D01*
X285693Y91944D01*
X285693Y93829D01*
X285681Y93927D01*
X285678Y94026D01*
X285661Y94084D01*
X285653Y94144D01*
X285617Y94236D01*
X285589Y94331D01*
X285559Y94384D01*
X285536Y94440D01*
X285478Y94520D01*
X285428Y94605D01*
X285362Y94681D01*
X285350Y94697D01*
X285340Y94705D01*
X285322Y94726D01*
X277781Y102266D01*
X277781Y137923D01*
X277775Y137972D01*
X277777Y138022D01*
X277755Y138129D01*
X277741Y138238D01*
X277723Y138285D01*
X277713Y138333D01*
X277665Y138432D01*
X277624Y138534D01*
X277595Y138574D01*
X277573Y138619D01*
X277502Y138702D01*
X277438Y138791D01*
X277399Y138823D01*
X277367Y138861D01*
X277277Y138924D01*
X277193Y138994D01*
X277148Y139015D01*
X277107Y139044D01*
X277004Y139083D01*
X276905Y139130D01*
X276856Y139139D01*
X276810Y139157D01*
X276700Y139169D01*
X276593Y139189D01*
X276543Y139186D01*
X276494Y139192D01*
X276385Y139176D01*
X276275Y139170D01*
X276228Y139154D01*
X276179Y139147D01*
X276026Y139095D01*
X275056Y138693D01*
X273171Y138693D01*
X273073Y138681D01*
X272974Y138678D01*
X272916Y138661D01*
X272856Y138653D01*
X272764Y138617D01*
X272669Y138589D01*
X272616Y138559D01*
X272560Y138536D01*
X272480Y138478D01*
X272395Y138428D01*
X272319Y138362D01*
X272303Y138350D01*
X272295Y138340D01*
X272274Y138322D01*
X271158Y137205D01*
X263683Y137205D01*
X263585Y137193D01*
X263486Y137190D01*
X263428Y137173D01*
X263368Y137165D01*
X263276Y137129D01*
X263181Y137101D01*
X263128Y137071D01*
X263072Y137048D01*
X262992Y136990D01*
X262907Y136940D01*
X262831Y136874D01*
X262815Y136862D01*
X262807Y136852D01*
X262786Y136834D01*
X246166Y120214D01*
X246106Y120136D01*
X246038Y120064D01*
X246018Y120027D01*
X245993Y119997D01*
X245984Y119980D01*
X245972Y119963D01*
X245932Y119872D01*
X245884Y119785D01*
X245874Y119745D01*
X245857Y119709D01*
X245853Y119690D01*
X245845Y119671D01*
X245830Y119573D01*
X245805Y119477D01*
X245801Y119416D01*
X245797Y119397D01*
X245799Y119377D01*
X245795Y119357D01*
X245797Y119345D01*
X245795Y119317D01*
X245795Y116236D01*
X245807Y116138D01*
X245810Y116039D01*
X245827Y115980D01*
X245835Y115920D01*
X245871Y115828D01*
X245899Y115733D01*
X245929Y115681D01*
X245952Y115625D01*
X246010Y115545D01*
X246060Y115459D01*
X246126Y115384D01*
X246138Y115367D01*
X246148Y115360D01*
X246166Y115338D01*
X247499Y114006D01*
X248307Y112056D01*
X248307Y109944D01*
X247499Y107994D01*
X246006Y106501D01*
X244056Y105693D01*
X241944Y105693D01*
X239994Y106501D01*
X238501Y107994D01*
X237693Y109944D01*
X237693Y112056D01*
X238501Y114006D01*
X239834Y115338D01*
X239894Y115417D01*
X239962Y115489D01*
X239991Y115542D01*
X240028Y115590D01*
X240068Y115681D01*
X240116Y115767D01*
X240131Y115826D01*
X240155Y115882D01*
X240170Y115979D01*
X240195Y116075D01*
X240201Y116175D01*
X240205Y116196D01*
X240203Y116208D01*
X240205Y116236D01*
X240205Y119985D01*
X240188Y120123D01*
X240175Y120262D01*
X240168Y120281D01*
X240165Y120301D01*
X240114Y120430D01*
X240067Y120561D01*
X240056Y120578D01*
X240048Y120596D01*
X239967Y120709D01*
X239889Y120824D01*
X239873Y120837D01*
X239862Y120854D01*
X239754Y120943D01*
X239650Y121034D01*
X239632Y121044D01*
X239617Y121057D01*
X239491Y121116D01*
X239367Y121179D01*
X239347Y121183D01*
X239329Y121192D01*
X239193Y121218D01*
X239057Y121249D01*
X239036Y121248D01*
X239017Y121252D01*
X238878Y121243D01*
X238739Y121239D01*
X238719Y121233D01*
X238699Y121232D01*
X238567Y121189D01*
X238433Y121151D01*
X238416Y121140D01*
X238397Y121134D01*
X238279Y121060D01*
X238159Y120989D01*
X238138Y120971D01*
X238128Y120964D01*
X238114Y120949D01*
X238039Y120883D01*
X234529Y117374D01*
X234355Y117374D01*
X234236Y117359D01*
X234118Y117351D01*
X234079Y117339D01*
X234039Y117334D01*
X233928Y117290D01*
X233815Y117253D01*
X233781Y117232D01*
X233743Y117217D01*
X233647Y117147D01*
X233546Y117083D01*
X233519Y117054D01*
X233486Y117030D01*
X233410Y116938D01*
X233328Y116851D01*
X233309Y116816D01*
X233283Y116785D01*
X233232Y116677D01*
X233175Y116573D01*
X233165Y116534D01*
X233148Y116497D01*
X233125Y116380D01*
X233096Y116265D01*
X233092Y116205D01*
X233088Y116185D01*
X233089Y116164D01*
X233085Y116104D01*
X233085Y115929D01*
X228853Y111697D01*
X228780Y111603D01*
X228702Y111514D01*
X228683Y111478D01*
X228658Y111446D01*
X228611Y111337D01*
X228557Y111231D01*
X228548Y111192D01*
X228532Y111154D01*
X228513Y111037D01*
X228487Y110921D01*
X228489Y110880D01*
X228482Y110840D01*
X228493Y110722D01*
X228497Y110603D01*
X228508Y110564D01*
X228512Y110524D01*
X228552Y110411D01*
X228585Y110297D01*
X228606Y110262D01*
X228620Y110224D01*
X228687Y110126D01*
X228747Y110023D01*
X228787Y109978D01*
X228798Y109961D01*
X228813Y109948D01*
X228853Y109902D01*
X233085Y105671D01*
X233085Y105496D01*
X233100Y105377D01*
X233108Y105259D01*
X233120Y105220D01*
X233125Y105180D01*
X233169Y105069D01*
X233206Y104956D01*
X233227Y104922D01*
X233242Y104884D01*
X233312Y104788D01*
X233376Y104688D01*
X233405Y104660D01*
X233429Y104627D01*
X233521Y104551D01*
X233607Y104470D01*
X233643Y104450D01*
X233674Y104424D01*
X233782Y104374D01*
X233886Y104316D01*
X233925Y104306D01*
X233962Y104289D01*
X234078Y104266D01*
X234194Y104237D01*
X234254Y104233D01*
X234274Y104229D01*
X234294Y104230D01*
X234355Y104226D01*
X234529Y104226D01*
X238742Y100014D01*
X238742Y99839D01*
X238757Y99721D01*
X238764Y99602D01*
X238777Y99563D01*
X238782Y99523D01*
X238826Y99413D01*
X238862Y99299D01*
X238884Y99265D01*
X238899Y99228D01*
X238969Y99131D01*
X239033Y99031D01*
X239062Y99003D01*
X239086Y98970D01*
X239178Y98894D01*
X239264Y98813D01*
X239300Y98793D01*
X239331Y98767D01*
X239438Y98717D01*
X239543Y98659D01*
X239582Y98649D01*
X239619Y98632D01*
X239735Y98610D01*
X239851Y98580D01*
X239911Y98576D01*
X239931Y98572D01*
X239951Y98573D01*
X240011Y98570D01*
X240186Y98570D01*
X244399Y94357D01*
X244399Y94182D01*
X244414Y94064D01*
X244421Y93945D01*
X244434Y93907D01*
X244439Y93866D01*
X244483Y93756D01*
X244519Y93643D01*
X244541Y93608D01*
X244556Y93571D01*
X244626Y93474D01*
X244689Y93374D01*
X244719Y93346D01*
X244743Y93313D01*
X244834Y93237D01*
X244921Y93156D01*
X244957Y93136D01*
X244988Y93111D01*
X245095Y93060D01*
X245200Y93002D01*
X245239Y92992D01*
X245275Y92975D01*
X245392Y92953D01*
X245508Y92923D01*
X245568Y92919D01*
X245588Y92915D01*
X245608Y92917D01*
X245668Y92913D01*
X245843Y92913D01*
X250056Y88700D01*
X250056Y88525D01*
X250071Y88407D01*
X250078Y88288D01*
X250091Y88250D01*
X250096Y88210D01*
X250140Y88099D01*
X250176Y87986D01*
X250198Y87951D01*
X250213Y87914D01*
X250283Y87818D01*
X250346Y87717D01*
X250376Y87689D01*
X250400Y87657D01*
X250491Y87581D01*
X250578Y87499D01*
X250613Y87480D01*
X250645Y87454D01*
X250752Y87403D01*
X250856Y87346D01*
X250896Y87335D01*
X250932Y87318D01*
X251049Y87296D01*
X251164Y87266D01*
X251225Y87262D01*
X251245Y87258D01*
X251265Y87260D01*
X251325Y87256D01*
X251500Y87256D01*
X253527Y85229D01*
X253636Y85144D01*
X253743Y85055D01*
X253762Y85047D01*
X253778Y85034D01*
X253906Y84979D01*
X254031Y84920D01*
X254051Y84916D01*
X254070Y84908D01*
X254208Y84886D01*
X254344Y84860D01*
X254364Y84861D01*
X254384Y84858D01*
X254523Y84871D01*
X254661Y84880D01*
X254680Y84886D01*
X254700Y84888D01*
X254832Y84935D01*
X254963Y84978D01*
X254981Y84989D01*
X255000Y84996D01*
X255115Y85074D01*
X255232Y85148D01*
X255246Y85163D01*
X255263Y85174D01*
X255355Y85278D01*
X255450Y85380D01*
X255460Y85397D01*
X255473Y85413D01*
X255537Y85537D01*
X255604Y85658D01*
X255609Y85678D01*
X255618Y85696D01*
X255648Y85831D01*
X255683Y85966D01*
X255685Y85994D01*
X255688Y86006D01*
X255687Y86027D01*
X255693Y86127D01*
X255693Y87056D01*
X256501Y89006D01*
X257994Y90499D01*
X259944Y91307D01*
X262056Y91307D01*
X264006Y90499D01*
X265499Y89006D01*
X266307Y87056D01*
X266307Y86171D01*
X266319Y86073D01*
X266322Y85974D01*
X266339Y85916D01*
X266347Y85856D01*
X266383Y85764D01*
X266411Y85669D01*
X266441Y85616D01*
X266464Y85560D01*
X266522Y85480D01*
X266572Y85395D01*
X266638Y85319D01*
X266650Y85303D01*
X266660Y85295D01*
X266678Y85274D01*
X272274Y79678D01*
X272352Y79618D01*
X272424Y79550D01*
X272477Y79521D01*
X272525Y79484D01*
X272616Y79444D01*
X272703Y79396D01*
X272761Y79381D01*
X272817Y79357D01*
X272915Y79342D01*
X273011Y79317D01*
X273111Y79311D01*
X273131Y79307D01*
X273143Y79309D01*
X273171Y79307D01*
X275056Y79307D01*
X277006Y78499D01*
X278499Y77006D01*
X279307Y75056D01*
X279307Y73927D01*
X279324Y73789D01*
X279337Y73650D01*
X279344Y73631D01*
X279347Y73611D01*
X279398Y73482D01*
X279445Y73351D01*
X279456Y73334D01*
X279464Y73316D01*
X279546Y73203D01*
X279623Y73088D01*
X279639Y73075D01*
X279650Y73058D01*
X279758Y72969D01*
X279862Y72878D01*
X279880Y72868D01*
X279895Y72855D01*
X280021Y72796D01*
X280145Y72733D01*
X280165Y72729D01*
X280183Y72720D01*
X280319Y72694D01*
X280455Y72663D01*
X280476Y72664D01*
X280495Y72660D01*
X280634Y72669D01*
X280773Y72673D01*
X280793Y72679D01*
X280813Y72680D01*
X280945Y72723D01*
X281079Y72761D01*
X281096Y72772D01*
X281115Y72778D01*
X281233Y72852D01*
X281353Y72923D01*
X281374Y72941D01*
X281384Y72948D01*
X281398Y72963D01*
X281473Y73029D01*
X284386Y75942D01*
X284561Y75942D01*
X284679Y75957D01*
X284798Y75964D01*
X284837Y75977D01*
X284877Y75982D01*
X284987Y76026D01*
X285101Y76062D01*
X285135Y76084D01*
X285172Y76099D01*
X285269Y76169D01*
X285369Y76233D01*
X285397Y76262D01*
X285430Y76286D01*
X285506Y76378D01*
X285587Y76464D01*
X285607Y76500D01*
X285633Y76531D01*
X285683Y76638D01*
X285741Y76743D01*
X285751Y76782D01*
X285768Y76819D01*
X285790Y76935D01*
X285820Y77051D01*
X285824Y77111D01*
X285828Y77131D01*
X285827Y77151D01*
X285830Y77211D01*
X285830Y77386D01*
X290100Y81655D01*
X290160Y81734D01*
X290228Y81806D01*
X290257Y81859D01*
X290294Y81907D01*
X290334Y81998D01*
X290382Y82084D01*
X290397Y82143D01*
X290421Y82198D01*
X290436Y82296D01*
X290461Y82392D01*
X290467Y82492D01*
X290471Y82513D01*
X290469Y82525D01*
X290471Y82551D01*
X290691Y83373D01*
X291116Y84109D01*
X291903Y84896D01*
X299282Y77517D01*
X299339Y77474D01*
X299365Y77444D01*
X299376Y77427D01*
X299391Y77414D01*
X299431Y77368D01*
X306810Y69989D01*
X306023Y69202D01*
X305280Y68773D01*
X305173Y68729D01*
X305048Y68685D01*
X305026Y68669D01*
X305001Y68659D01*
X304894Y68580D01*
X304785Y68506D01*
X304767Y68486D01*
X304745Y68470D01*
X304662Y68367D01*
X304574Y68267D01*
X304562Y68244D01*
X304545Y68223D01*
X304490Y68102D01*
X304430Y67984D01*
X304424Y67958D01*
X304412Y67934D01*
X304389Y67803D01*
X304360Y67674D01*
X304361Y67647D01*
X304356Y67621D01*
X304366Y67488D01*
X304370Y67356D01*
X304377Y67330D01*
X304379Y67303D01*
X304421Y67178D01*
X304458Y67051D01*
X304472Y67027D01*
X304480Y67002D01*
X304552Y66891D01*
X304620Y66777D01*
X304645Y66748D01*
X304653Y66735D01*
X304669Y66720D01*
X304726Y66656D01*
X307445Y63937D01*
X307545Y63859D01*
X307640Y63777D01*
X307670Y63762D01*
X307696Y63742D01*
X307812Y63692D01*
X307924Y63636D01*
X307957Y63629D01*
X307988Y63615D01*
X308113Y63596D01*
X308235Y63569D01*
X308269Y63571D01*
X308302Y63566D01*
X308428Y63577D01*
X308553Y63583D01*
X308585Y63592D01*
X308619Y63595D01*
X308738Y63638D01*
X308858Y63674D01*
X308886Y63692D01*
X308918Y63703D01*
X309022Y63774D01*
X309130Y63839D01*
X309153Y63863D01*
X309181Y63882D01*
X309265Y63976D01*
X309353Y64066D01*
X309380Y64106D01*
X309392Y64120D01*
X309402Y64139D01*
X309442Y64200D01*
X309714Y64671D01*
X311188Y66145D01*
X315827Y61506D01*
X315921Y61433D01*
X316011Y61355D01*
X316047Y61336D01*
X316079Y61311D01*
X316188Y61264D01*
X316233Y61241D01*
X316238Y61222D01*
X316259Y61187D01*
X316273Y61149D01*
X316340Y61051D01*
X316400Y60948D01*
X316440Y60903D01*
X316451Y60886D01*
X316467Y60873D01*
X316506Y60827D01*
X321145Y56188D01*
X319919Y54961D01*
X319833Y54852D01*
X319745Y54745D01*
X319736Y54726D01*
X319724Y54710D01*
X319668Y54582D01*
X319609Y54457D01*
X319605Y54437D01*
X319597Y54418D01*
X319575Y54280D01*
X319549Y54144D01*
X319551Y54124D01*
X319547Y54104D01*
X319560Y53965D01*
X319569Y53827D01*
X319575Y53808D01*
X319577Y53788D01*
X319624Y53656D01*
X319667Y53525D01*
X319678Y53507D01*
X319685Y53488D01*
X319763Y53373D01*
X319837Y53256D01*
X319852Y53242D01*
X319863Y53225D01*
X319968Y53133D01*
X320069Y53038D01*
X320087Y53028D01*
X320102Y53015D01*
X320226Y52951D01*
X320347Y52884D01*
X320367Y52879D01*
X320385Y52870D01*
X320521Y52840D01*
X320655Y52805D01*
X320683Y52803D01*
X320695Y52800D01*
X320716Y52801D01*
X320816Y52795D01*
X336317Y52795D01*
X336415Y52807D01*
G37*
%LPC*%
G36*
X52944Y49693D02*
X52944Y49693D01*
X50994Y50501D01*
X49501Y51994D01*
X48693Y53944D01*
X48693Y56056D01*
X49501Y58006D01*
X49563Y58068D01*
X49624Y58147D01*
X49692Y58219D01*
X49721Y58272D01*
X49758Y58320D01*
X49798Y58410D01*
X49846Y58497D01*
X49861Y58556D01*
X49885Y58611D01*
X49900Y58709D01*
X49925Y58805D01*
X49931Y58905D01*
X49935Y58926D01*
X49933Y58938D01*
X49935Y58966D01*
X49935Y59206D01*
X49920Y59324D01*
X49913Y59443D01*
X49900Y59481D01*
X49895Y59522D01*
X49852Y59632D01*
X49815Y59745D01*
X49793Y59780D01*
X49778Y59817D01*
X49709Y59913D01*
X49645Y60014D01*
X49615Y60042D01*
X49592Y60075D01*
X49500Y60151D01*
X49413Y60232D01*
X49378Y60252D01*
X49347Y60277D01*
X49239Y60328D01*
X49135Y60386D01*
X49095Y60396D01*
X49059Y60413D01*
X48942Y60435D01*
X48827Y60465D01*
X48767Y60469D01*
X48747Y60473D01*
X48726Y60471D01*
X48666Y60475D01*
X44368Y60475D01*
X43475Y61368D01*
X43475Y80640D01*
X43519Y80697D01*
X43598Y80786D01*
X43616Y80822D01*
X43641Y80854D01*
X43688Y80963D01*
X43743Y81069D01*
X43751Y81108D01*
X43767Y81146D01*
X43786Y81263D01*
X43812Y81379D01*
X43811Y81420D01*
X43817Y81460D01*
X43806Y81578D01*
X43803Y81697D01*
X43791Y81736D01*
X43788Y81776D01*
X43747Y81888D01*
X43714Y82003D01*
X43694Y82037D01*
X43680Y82076D01*
X43613Y82174D01*
X43553Y82277D01*
X43513Y82322D01*
X43501Y82339D01*
X43486Y82352D01*
X43475Y82364D01*
X43475Y101632D01*
X44368Y102525D01*
X61632Y102525D01*
X62525Y101632D01*
X62525Y85444D01*
X62540Y85326D01*
X62547Y85208D01*
X62560Y85169D01*
X62565Y85129D01*
X62608Y85018D01*
X62645Y84905D01*
X62667Y84871D01*
X62682Y84833D01*
X62751Y84737D01*
X62815Y84636D01*
X62845Y84609D01*
X62868Y84576D01*
X62960Y84500D01*
X63047Y84418D01*
X63082Y84399D01*
X63113Y84373D01*
X63221Y84322D01*
X63325Y84265D01*
X63365Y84255D01*
X63401Y84238D01*
X63518Y84215D01*
X63633Y84185D01*
X63693Y84182D01*
X63713Y84178D01*
X63734Y84179D01*
X63794Y84175D01*
X68620Y84175D01*
X68738Y84190D01*
X68857Y84198D01*
X68895Y84210D01*
X68936Y84215D01*
X69046Y84259D01*
X69159Y84296D01*
X69194Y84317D01*
X69231Y84332D01*
X69327Y84402D01*
X69428Y84466D01*
X69456Y84495D01*
X69489Y84519D01*
X69565Y84611D01*
X69646Y84697D01*
X69666Y84733D01*
X69691Y84764D01*
X69742Y84872D01*
X69800Y84976D01*
X69810Y85015D01*
X69827Y85052D01*
X69849Y85168D01*
X69854Y85188D01*
X70782Y86116D01*
X77218Y86116D01*
X77268Y86065D01*
X77378Y85980D01*
X77485Y85891D01*
X77504Y85882D01*
X77520Y85870D01*
X77647Y85815D01*
X77773Y85755D01*
X77793Y85752D01*
X77812Y85744D01*
X77949Y85722D01*
X78086Y85696D01*
X78106Y85697D01*
X78126Y85694D01*
X78265Y85707D01*
X78403Y85715D01*
X78422Y85722D01*
X78442Y85723D01*
X78574Y85771D01*
X78705Y85813D01*
X78722Y85824D01*
X78742Y85831D01*
X78857Y85909D01*
X78974Y85984D01*
X78988Y85998D01*
X79005Y86010D01*
X79097Y86114D01*
X79192Y86215D01*
X79202Y86233D01*
X79215Y86248D01*
X79279Y86372D01*
X79346Y86494D01*
X79351Y86513D01*
X79360Y86531D01*
X79390Y86667D01*
X79425Y86802D01*
X79427Y86830D01*
X79430Y86842D01*
X79429Y86862D01*
X79435Y86962D01*
X79435Y87184D01*
X87316Y95065D01*
X107567Y95065D01*
X107685Y95080D01*
X107804Y95087D01*
X107842Y95100D01*
X107883Y95105D01*
X107993Y95148D01*
X108106Y95185D01*
X108141Y95207D01*
X108178Y95222D01*
X108274Y95291D01*
X108375Y95355D01*
X108403Y95385D01*
X108436Y95408D01*
X108512Y95500D01*
X108593Y95587D01*
X108613Y95622D01*
X108638Y95653D01*
X108689Y95761D01*
X108747Y95865D01*
X108757Y95905D01*
X108774Y95941D01*
X108796Y96058D01*
X108826Y96173D01*
X108830Y96233D01*
X108834Y96253D01*
X108832Y96274D01*
X108836Y96334D01*
X108836Y103525D01*
X109729Y104418D01*
X150871Y104418D01*
X151764Y103525D01*
X151764Y87275D01*
X150871Y86382D01*
X133827Y86382D01*
X133817Y86381D01*
X133807Y86382D01*
X133659Y86361D01*
X133512Y86342D01*
X133502Y86339D01*
X133492Y86337D01*
X133354Y86280D01*
X133216Y86225D01*
X133208Y86219D01*
X133198Y86215D01*
X133122Y86158D01*
X129683Y85773D01*
X129268Y86105D01*
X129244Y86120D01*
X129223Y86139D01*
X129108Y86202D01*
X128997Y86271D01*
X128969Y86279D01*
X128944Y86293D01*
X128818Y86325D01*
X128692Y86364D01*
X128664Y86365D01*
X128636Y86372D01*
X128476Y86382D01*
X109729Y86382D01*
X109548Y86564D01*
X109470Y86624D01*
X109398Y86692D01*
X109345Y86721D01*
X109297Y86758D01*
X109206Y86798D01*
X109119Y86846D01*
X109061Y86861D01*
X109005Y86885D01*
X108907Y86900D01*
X108811Y86925D01*
X108711Y86931D01*
X108691Y86935D01*
X108679Y86933D01*
X108651Y86935D01*
X98380Y86935D01*
X98262Y86920D01*
X98143Y86913D01*
X98105Y86900D01*
X98064Y86895D01*
X97954Y86852D01*
X97841Y86815D01*
X97806Y86793D01*
X97769Y86778D01*
X97673Y86709D01*
X97572Y86645D01*
X97544Y86615D01*
X97511Y86592D01*
X97435Y86500D01*
X97354Y86413D01*
X97334Y86378D01*
X97309Y86347D01*
X97258Y86239D01*
X97200Y86135D01*
X97190Y86095D01*
X97173Y86059D01*
X97151Y85942D01*
X97121Y85827D01*
X97117Y85767D01*
X97113Y85747D01*
X97115Y85726D01*
X97111Y85666D01*
X97111Y74998D01*
X96420Y74308D01*
X96360Y74230D01*
X96292Y74158D01*
X96263Y74105D01*
X96226Y74057D01*
X96186Y73966D01*
X96138Y73879D01*
X96123Y73821D01*
X96099Y73765D01*
X96084Y73667D01*
X96059Y73571D01*
X96053Y73471D01*
X96049Y73451D01*
X96051Y73439D01*
X96049Y73411D01*
X96049Y69294D01*
X96064Y69176D01*
X96071Y69057D01*
X96084Y69019D01*
X96089Y68978D01*
X96132Y68868D01*
X96169Y68755D01*
X96191Y68720D01*
X96206Y68683D01*
X96275Y68587D01*
X96339Y68486D01*
X96369Y68458D01*
X96392Y68425D01*
X96484Y68349D01*
X96571Y68268D01*
X96606Y68248D01*
X96637Y68223D01*
X96745Y68172D01*
X96849Y68114D01*
X96889Y68104D01*
X96925Y68087D01*
X97042Y68065D01*
X97157Y68035D01*
X97217Y68031D01*
X97237Y68027D01*
X97258Y68029D01*
X97318Y68025D01*
X99132Y68025D01*
X100025Y67132D01*
X100025Y56868D01*
X99132Y55975D01*
X90868Y55975D01*
X89975Y56868D01*
X89975Y62187D01*
X89963Y62286D01*
X89960Y62385D01*
X89951Y62415D01*
X89951Y73411D01*
X89939Y73509D01*
X89936Y73608D01*
X89919Y73666D01*
X89911Y73726D01*
X89875Y73818D01*
X89847Y73913D01*
X89817Y73966D01*
X89794Y74022D01*
X89736Y74102D01*
X89686Y74187D01*
X89620Y74263D01*
X89608Y74279D01*
X89598Y74287D01*
X89580Y74308D01*
X89147Y74740D01*
X89053Y74813D01*
X88964Y74892D01*
X88928Y74910D01*
X88896Y74935D01*
X88787Y74982D01*
X88681Y75037D01*
X88641Y75045D01*
X88604Y75061D01*
X88487Y75080D01*
X88371Y75106D01*
X88330Y75105D01*
X88290Y75111D01*
X88171Y75100D01*
X88053Y75097D01*
X88014Y75085D01*
X87974Y75082D01*
X87862Y75041D01*
X87747Y75008D01*
X87712Y74988D01*
X87674Y74974D01*
X87576Y74907D01*
X87473Y74847D01*
X87428Y74807D01*
X87411Y74795D01*
X87398Y74780D01*
X87352Y74740D01*
X86920Y74308D01*
X86860Y74230D01*
X86792Y74158D01*
X86763Y74105D01*
X86726Y74057D01*
X86686Y73966D01*
X86638Y73879D01*
X86623Y73821D01*
X86599Y73765D01*
X86584Y73667D01*
X86559Y73571D01*
X86553Y73471D01*
X86549Y73451D01*
X86551Y73439D01*
X86549Y73411D01*
X86549Y68133D01*
X86561Y68035D01*
X86564Y67936D01*
X86581Y67878D01*
X86589Y67818D01*
X86625Y67726D01*
X86653Y67631D01*
X86683Y67578D01*
X86706Y67522D01*
X86764Y67442D01*
X86814Y67357D01*
X86881Y67281D01*
X86892Y67265D01*
X86902Y67257D01*
X86920Y67236D01*
X87025Y67132D01*
X87025Y56868D01*
X86132Y55975D01*
X77868Y55975D01*
X76975Y56868D01*
X76975Y67132D01*
X77868Y68025D01*
X79182Y68025D01*
X79300Y68040D01*
X79419Y68047D01*
X79457Y68060D01*
X79498Y68065D01*
X79608Y68108D01*
X79721Y68145D01*
X79756Y68167D01*
X79793Y68182D01*
X79889Y68251D01*
X79990Y68315D01*
X80018Y68345D01*
X80051Y68368D01*
X80127Y68460D01*
X80208Y68547D01*
X80228Y68582D01*
X80253Y68613D01*
X80304Y68721D01*
X80362Y68825D01*
X80372Y68865D01*
X80389Y68901D01*
X80411Y69018D01*
X80441Y69133D01*
X80445Y69193D01*
X80449Y69213D01*
X80447Y69234D01*
X80451Y69294D01*
X80451Y73411D01*
X80439Y73509D01*
X80436Y73608D01*
X80419Y73666D01*
X80411Y73726D01*
X80375Y73818D01*
X80347Y73913D01*
X80317Y73966D01*
X80294Y74022D01*
X80236Y74102D01*
X80186Y74187D01*
X80120Y74263D01*
X80108Y74279D01*
X80098Y74287D01*
X80080Y74308D01*
X79647Y74740D01*
X79553Y74813D01*
X79464Y74892D01*
X79428Y74910D01*
X79396Y74935D01*
X79287Y74983D01*
X79181Y75037D01*
X79142Y75045D01*
X79104Y75061D01*
X78987Y75080D01*
X78871Y75106D01*
X78830Y75105D01*
X78790Y75111D01*
X78672Y75100D01*
X78553Y75097D01*
X78514Y75085D01*
X78474Y75082D01*
X78362Y75041D01*
X78247Y75008D01*
X78212Y74988D01*
X78174Y74974D01*
X78076Y74907D01*
X77973Y74847D01*
X77928Y74807D01*
X77911Y74795D01*
X77898Y74780D01*
X77852Y74740D01*
X77218Y74105D01*
X70782Y74105D01*
X69863Y75024D01*
X69854Y75052D01*
X69849Y75092D01*
X69806Y75203D01*
X69769Y75316D01*
X69747Y75350D01*
X69732Y75388D01*
X69663Y75484D01*
X69599Y75585D01*
X69569Y75612D01*
X69546Y75645D01*
X69454Y75721D01*
X69367Y75803D01*
X69332Y75822D01*
X69301Y75848D01*
X69193Y75899D01*
X69089Y75956D01*
X69049Y75966D01*
X69013Y75983D01*
X68896Y76006D01*
X68781Y76036D01*
X68721Y76039D01*
X68701Y76043D01*
X68680Y76042D01*
X68620Y76046D01*
X64320Y76046D01*
X64222Y76033D01*
X64123Y76030D01*
X64064Y76014D01*
X64004Y76006D01*
X63912Y75969D01*
X63817Y75942D01*
X63765Y75911D01*
X63709Y75889D01*
X63629Y75831D01*
X63543Y75780D01*
X63468Y75714D01*
X63451Y75702D01*
X63444Y75693D01*
X63422Y75674D01*
X62896Y75148D01*
X62836Y75070D01*
X62768Y74998D01*
X62739Y74945D01*
X62702Y74897D01*
X62662Y74806D01*
X62614Y74719D01*
X62599Y74661D01*
X62575Y74605D01*
X62560Y74507D01*
X62535Y74411D01*
X62529Y74311D01*
X62525Y74291D01*
X62527Y74279D01*
X62525Y74251D01*
X62525Y61368D01*
X61632Y60475D01*
X59334Y60475D01*
X59216Y60460D01*
X59097Y60453D01*
X59059Y60440D01*
X59018Y60435D01*
X58908Y60392D01*
X58795Y60355D01*
X58760Y60333D01*
X58723Y60318D01*
X58627Y60249D01*
X58526Y60185D01*
X58498Y60155D01*
X58465Y60132D01*
X58389Y60040D01*
X58308Y59953D01*
X58288Y59918D01*
X58263Y59887D01*
X58212Y59779D01*
X58154Y59675D01*
X58144Y59635D01*
X58127Y59599D01*
X58105Y59482D01*
X58075Y59367D01*
X58071Y59307D01*
X58067Y59287D01*
X58069Y59266D01*
X58065Y59206D01*
X58065Y58966D01*
X58077Y58867D01*
X58080Y58769D01*
X58097Y58710D01*
X58105Y58650D01*
X58141Y58558D01*
X58169Y58463D01*
X58199Y58411D01*
X58222Y58355D01*
X58280Y58275D01*
X58330Y58189D01*
X58396Y58114D01*
X58408Y58097D01*
X58418Y58089D01*
X58437Y58068D01*
X58499Y58006D01*
X59307Y56056D01*
X59307Y53944D01*
X58499Y51994D01*
X57006Y50501D01*
X55056Y49693D01*
X52944Y49693D01*
G37*
%LPD*%
G36*
X388688Y10176D02*
X388688Y10176D01*
X388807Y10183D01*
X388845Y10196D01*
X388886Y10201D01*
X388996Y10244D01*
X389109Y10281D01*
X389144Y10303D01*
X389181Y10318D01*
X389277Y10387D01*
X389378Y10451D01*
X389406Y10481D01*
X389439Y10504D01*
X389515Y10596D01*
X389596Y10683D01*
X389616Y10718D01*
X389641Y10749D01*
X389692Y10857D01*
X389750Y10961D01*
X389760Y11001D01*
X389777Y11037D01*
X389799Y11154D01*
X389829Y11269D01*
X389833Y11329D01*
X389837Y11349D01*
X389835Y11370D01*
X389839Y11430D01*
X389839Y56786D01*
X389824Y56904D01*
X389817Y57023D01*
X389804Y57061D01*
X389799Y57102D01*
X389756Y57212D01*
X389719Y57325D01*
X389697Y57360D01*
X389682Y57397D01*
X389613Y57493D01*
X389549Y57594D01*
X389519Y57622D01*
X389496Y57655D01*
X389404Y57731D01*
X389317Y57812D01*
X389282Y57832D01*
X389251Y57857D01*
X389143Y57908D01*
X389039Y57966D01*
X388999Y57976D01*
X388963Y57993D01*
X388846Y58015D01*
X388731Y58045D01*
X388671Y58049D01*
X388651Y58053D01*
X388630Y58051D01*
X388570Y58055D01*
X371548Y58055D01*
X370655Y58948D01*
X370655Y75452D01*
X371548Y76345D01*
X388570Y76345D01*
X388688Y76360D01*
X388807Y76367D01*
X388845Y76380D01*
X388886Y76385D01*
X388996Y76428D01*
X389109Y76465D01*
X389144Y76487D01*
X389181Y76502D01*
X389277Y76571D01*
X389378Y76635D01*
X389406Y76665D01*
X389439Y76688D01*
X389515Y76780D01*
X389596Y76867D01*
X389616Y76902D01*
X389641Y76933D01*
X389692Y77041D01*
X389750Y77145D01*
X389760Y77185D01*
X389777Y77221D01*
X389799Y77338D01*
X389829Y77453D01*
X389833Y77513D01*
X389837Y77533D01*
X389835Y77554D01*
X389839Y77614D01*
X389839Y85206D01*
X389822Y85343D01*
X389809Y85482D01*
X389802Y85501D01*
X389799Y85521D01*
X389748Y85650D01*
X389701Y85781D01*
X389690Y85798D01*
X389682Y85817D01*
X389601Y85929D01*
X389523Y86044D01*
X389507Y86058D01*
X389496Y86074D01*
X389388Y86163D01*
X389284Y86255D01*
X389266Y86264D01*
X389251Y86277D01*
X389125Y86336D01*
X389001Y86399D01*
X388981Y86404D01*
X388963Y86413D01*
X388827Y86439D01*
X388691Y86469D01*
X388670Y86468D01*
X388651Y86472D01*
X388512Y86464D01*
X388373Y86459D01*
X388353Y86454D01*
X388333Y86453D01*
X388201Y86410D01*
X388067Y86371D01*
X388050Y86361D01*
X388031Y86355D01*
X387913Y86280D01*
X387793Y86209D01*
X387772Y86191D01*
X387762Y86184D01*
X387748Y86169D01*
X387673Y86103D01*
X384009Y82439D01*
X382339Y82439D01*
X382339Y91330D01*
X382324Y91448D01*
X382317Y91567D01*
X382304Y91605D01*
X382299Y91645D01*
X382256Y91756D01*
X382219Y91869D01*
X382197Y91903D01*
X382182Y91941D01*
X382112Y92037D01*
X382049Y92138D01*
X382019Y92166D01*
X381995Y92198D01*
X381904Y92274D01*
X381817Y92356D01*
X381782Y92375D01*
X381751Y92401D01*
X381643Y92452D01*
X381539Y92509D01*
X381499Y92520D01*
X381463Y92537D01*
X381346Y92559D01*
X381231Y92589D01*
X381170Y92593D01*
X381150Y92597D01*
X381130Y92595D01*
X381070Y92599D01*
X379799Y92599D01*
X379799Y92601D01*
X381070Y92601D01*
X381188Y92616D01*
X381307Y92623D01*
X381345Y92636D01*
X381385Y92641D01*
X381496Y92685D01*
X381609Y92721D01*
X381644Y92743D01*
X381681Y92758D01*
X381777Y92828D01*
X381878Y92891D01*
X381906Y92921D01*
X381939Y92945D01*
X382014Y93036D01*
X382096Y93123D01*
X382116Y93158D01*
X382141Y93190D01*
X382192Y93297D01*
X382250Y93402D01*
X382260Y93441D01*
X382277Y93477D01*
X382299Y93594D01*
X382329Y93709D01*
X382333Y93770D01*
X382337Y93790D01*
X382335Y93810D01*
X382339Y93870D01*
X382339Y102761D01*
X384009Y102761D01*
X387673Y99097D01*
X387782Y99012D01*
X387889Y98923D01*
X387908Y98914D01*
X387924Y98902D01*
X388052Y98847D01*
X388177Y98787D01*
X388197Y98784D01*
X388216Y98776D01*
X388354Y98754D01*
X388490Y98728D01*
X388510Y98729D01*
X388530Y98726D01*
X388669Y98739D01*
X388807Y98747D01*
X388826Y98754D01*
X388846Y98756D01*
X388978Y98803D01*
X389109Y98845D01*
X389127Y98856D01*
X389146Y98863D01*
X389261Y98941D01*
X389378Y99016D01*
X389392Y99030D01*
X389409Y99042D01*
X389501Y99146D01*
X389596Y99247D01*
X389606Y99265D01*
X389619Y99280D01*
X389683Y99404D01*
X389750Y99526D01*
X389755Y99545D01*
X389764Y99563D01*
X389794Y99699D01*
X389829Y99834D01*
X389831Y99862D01*
X389834Y99874D01*
X389833Y99894D01*
X389839Y99994D01*
X389839Y112042D01*
X389822Y112180D01*
X389809Y112319D01*
X389802Y112338D01*
X389799Y112358D01*
X389748Y112487D01*
X389701Y112618D01*
X389690Y112635D01*
X389682Y112654D01*
X389601Y112766D01*
X389523Y112881D01*
X389507Y112895D01*
X389496Y112911D01*
X389388Y113000D01*
X389284Y113092D01*
X389266Y113101D01*
X389251Y113114D01*
X389125Y113173D01*
X389001Y113236D01*
X388981Y113241D01*
X388963Y113249D01*
X388827Y113275D01*
X388691Y113306D01*
X388670Y113305D01*
X388651Y113309D01*
X388512Y113301D01*
X388373Y113296D01*
X388353Y113291D01*
X388333Y113289D01*
X388201Y113247D01*
X388067Y113208D01*
X388050Y113198D01*
X388031Y113191D01*
X387913Y113117D01*
X387793Y113046D01*
X387772Y113028D01*
X387762Y113021D01*
X387748Y113006D01*
X387673Y112940D01*
X383588Y108855D01*
X376333Y108855D01*
X376235Y108843D01*
X376136Y108840D01*
X376078Y108823D01*
X376018Y108815D01*
X375926Y108779D01*
X375831Y108751D01*
X375778Y108721D01*
X375722Y108698D01*
X375642Y108640D01*
X375557Y108590D01*
X375481Y108524D01*
X375465Y108512D01*
X375457Y108502D01*
X375436Y108484D01*
X363396Y96444D01*
X363336Y96366D01*
X363268Y96294D01*
X363239Y96241D01*
X363202Y96193D01*
X363162Y96102D01*
X363114Y96015D01*
X363099Y95957D01*
X363075Y95901D01*
X363060Y95803D01*
X363035Y95707D01*
X363029Y95607D01*
X363025Y95587D01*
X363027Y95575D01*
X363025Y95547D01*
X363025Y85094D01*
X363037Y84996D01*
X363040Y84897D01*
X363057Y84839D01*
X363065Y84779D01*
X363101Y84687D01*
X363129Y84591D01*
X363159Y84539D01*
X363182Y84483D01*
X363240Y84403D01*
X363290Y84317D01*
X363356Y84242D01*
X363368Y84226D01*
X363378Y84218D01*
X363396Y84197D01*
X363533Y84060D01*
X363868Y83481D01*
X364041Y82834D01*
X364041Y78539D01*
X356270Y78539D01*
X356152Y78524D01*
X356033Y78517D01*
X355995Y78504D01*
X355955Y78499D01*
X355844Y78455D01*
X355731Y78419D01*
X355696Y78397D01*
X355659Y78382D01*
X355563Y78312D01*
X355462Y78249D01*
X355434Y78219D01*
X355402Y78195D01*
X355326Y78104D01*
X355244Y78017D01*
X355225Y77982D01*
X355199Y77950D01*
X355148Y77843D01*
X355091Y77739D01*
X355080Y77699D01*
X355063Y77663D01*
X355041Y77546D01*
X355011Y77431D01*
X355007Y77370D01*
X355003Y77350D01*
X355005Y77330D01*
X355001Y77270D01*
X355001Y74730D01*
X355016Y74612D01*
X355023Y74493D01*
X355036Y74455D01*
X355041Y74415D01*
X355085Y74304D01*
X355121Y74191D01*
X355143Y74156D01*
X355158Y74119D01*
X355228Y74023D01*
X355291Y73922D01*
X355321Y73894D01*
X355345Y73861D01*
X355436Y73786D01*
X355523Y73704D01*
X355558Y73684D01*
X355590Y73659D01*
X355697Y73608D01*
X355801Y73550D01*
X355841Y73540D01*
X355877Y73523D01*
X355994Y73501D01*
X356109Y73471D01*
X356170Y73467D01*
X356190Y73463D01*
X356210Y73465D01*
X356270Y73461D01*
X364041Y73461D01*
X364041Y69166D01*
X363868Y68519D01*
X363533Y67940D01*
X363272Y67679D01*
X363199Y67585D01*
X363120Y67496D01*
X363102Y67460D01*
X363077Y67428D01*
X363030Y67319D01*
X362976Y67213D01*
X362967Y67173D01*
X362951Y67136D01*
X362932Y67019D01*
X362906Y66902D01*
X362907Y66862D01*
X362901Y66822D01*
X362912Y66704D01*
X362916Y66584D01*
X362927Y66546D01*
X362931Y66505D01*
X362971Y66393D01*
X363004Y66279D01*
X363025Y66244D01*
X363025Y51868D01*
X362132Y50975D01*
X347868Y50975D01*
X346975Y51868D01*
X346975Y51936D01*
X346960Y52054D01*
X346953Y52173D01*
X346940Y52211D01*
X346935Y52252D01*
X346892Y52362D01*
X346855Y52475D01*
X346833Y52510D01*
X346818Y52547D01*
X346749Y52643D01*
X346685Y52744D01*
X346655Y52772D01*
X346632Y52805D01*
X346540Y52881D01*
X346453Y52962D01*
X346418Y52982D01*
X346387Y53007D01*
X346279Y53058D01*
X346175Y53116D01*
X346135Y53126D01*
X346099Y53143D01*
X345982Y53165D01*
X345867Y53195D01*
X345807Y53199D01*
X345804Y53200D01*
X345803Y53199D01*
X345787Y53203D01*
X345766Y53201D01*
X345706Y53205D01*
X345683Y53205D01*
X345585Y53193D01*
X345486Y53190D01*
X345428Y53173D01*
X345368Y53165D01*
X345276Y53129D01*
X345181Y53101D01*
X345128Y53071D01*
X345072Y53048D01*
X344992Y52990D01*
X344907Y52940D01*
X344831Y52874D01*
X344815Y52862D01*
X344807Y52852D01*
X344786Y52834D01*
X339400Y47447D01*
X339315Y47338D01*
X339226Y47231D01*
X339217Y47212D01*
X339205Y47196D01*
X339149Y47068D01*
X339090Y46943D01*
X339087Y46923D01*
X339079Y46904D01*
X339057Y46766D01*
X339031Y46630D01*
X339032Y46610D01*
X339029Y46590D01*
X339042Y46451D01*
X339050Y46313D01*
X339057Y46294D01*
X339058Y46274D01*
X339106Y46142D01*
X339148Y46011D01*
X339159Y45993D01*
X339166Y45974D01*
X339244Y45859D01*
X339319Y45742D01*
X339333Y45728D01*
X339345Y45711D01*
X339449Y45619D01*
X339550Y45524D01*
X339568Y45514D01*
X339583Y45501D01*
X339707Y45437D01*
X339829Y45370D01*
X339848Y45365D01*
X339866Y45356D01*
X340002Y45326D01*
X340137Y45291D01*
X340165Y45289D01*
X340177Y45286D01*
X340197Y45287D01*
X340297Y45281D01*
X384690Y45281D01*
X385583Y44388D01*
X385583Y11430D01*
X385598Y11312D01*
X385605Y11193D01*
X385618Y11155D01*
X385623Y11114D01*
X385666Y11004D01*
X385703Y10891D01*
X385725Y10856D01*
X385740Y10819D01*
X385809Y10723D01*
X385873Y10622D01*
X385903Y10594D01*
X385926Y10561D01*
X386018Y10485D01*
X386105Y10404D01*
X386140Y10384D01*
X386171Y10359D01*
X386279Y10308D01*
X386383Y10250D01*
X386423Y10240D01*
X386459Y10223D01*
X386576Y10201D01*
X386691Y10171D01*
X386751Y10167D01*
X386771Y10163D01*
X386792Y10165D01*
X386852Y10161D01*
X388570Y10161D01*
X388688Y10176D01*
G37*
G36*
X212579Y82706D02*
X212579Y82706D01*
X212697Y82709D01*
X212736Y82721D01*
X212776Y82724D01*
X212889Y82765D01*
X213003Y82798D01*
X213038Y82818D01*
X213076Y82832D01*
X213174Y82899D01*
X213277Y82959D01*
X213322Y82999D01*
X213339Y83011D01*
X213341Y83013D01*
X214971Y83013D01*
X215108Y83030D01*
X215247Y83043D01*
X215266Y83050D01*
X215286Y83053D01*
X215415Y83104D01*
X215546Y83151D01*
X215563Y83162D01*
X215582Y83170D01*
X215694Y83251D01*
X215810Y83329D01*
X215823Y83345D01*
X215839Y83356D01*
X215928Y83464D01*
X216020Y83568D01*
X216029Y83586D01*
X216042Y83601D01*
X216101Y83727D01*
X216165Y83851D01*
X216169Y83871D01*
X216178Y83889D01*
X216204Y84025D01*
X216234Y84161D01*
X216234Y84182D01*
X216237Y84201D01*
X216229Y84340D01*
X216225Y84479D01*
X216219Y84499D01*
X216218Y84519D01*
X216175Y84651D01*
X216136Y84785D01*
X216126Y84802D01*
X216120Y84821D01*
X216045Y84939D01*
X215975Y85059D01*
X215956Y85080D01*
X215949Y85090D01*
X215934Y85104D01*
X215868Y85179D01*
X209781Y91266D01*
X209781Y105434D01*
X213410Y109062D01*
X213470Y109140D01*
X213538Y109212D01*
X213567Y109265D01*
X213604Y109313D01*
X213644Y109404D01*
X213692Y109491D01*
X213707Y109549D01*
X213731Y109605D01*
X213746Y109703D01*
X213771Y109799D01*
X213777Y109899D01*
X213781Y109919D01*
X213779Y109931D01*
X213781Y109959D01*
X213781Y112041D01*
X213769Y112139D01*
X213766Y112238D01*
X213749Y112296D01*
X213741Y112356D01*
X213705Y112448D01*
X213677Y112543D01*
X213647Y112595D01*
X213624Y112652D01*
X213566Y112732D01*
X213516Y112817D01*
X213450Y112893D01*
X213438Y112909D01*
X213428Y112917D01*
X213410Y112938D01*
X209781Y116566D01*
X209781Y130317D01*
X209769Y130415D01*
X209766Y130514D01*
X209749Y130572D01*
X209741Y130632D01*
X209705Y130724D01*
X209677Y130819D01*
X209647Y130872D01*
X209624Y130928D01*
X209566Y131008D01*
X209516Y131093D01*
X209450Y131169D01*
X209438Y131185D01*
X209428Y131193D01*
X209410Y131214D01*
X203790Y136834D01*
X203712Y136894D01*
X203640Y136962D01*
X203587Y136991D01*
X203539Y137028D01*
X203448Y137068D01*
X203361Y137116D01*
X203303Y137131D01*
X203247Y137155D01*
X203149Y137170D01*
X203053Y137195D01*
X202953Y137201D01*
X202933Y137205D01*
X202921Y137203D01*
X202893Y137205D01*
X202842Y137205D01*
X202214Y137834D01*
X200968Y139080D01*
X200874Y139153D01*
X200785Y139232D01*
X200748Y139250D01*
X200717Y139275D01*
X200607Y139322D01*
X200501Y139376D01*
X200462Y139385D01*
X200425Y139401D01*
X200307Y139420D01*
X200191Y139446D01*
X200151Y139445D01*
X200111Y139451D01*
X199992Y139440D01*
X199873Y139436D01*
X199834Y139425D01*
X199794Y139421D01*
X199682Y139381D01*
X199568Y139348D01*
X199533Y139327D01*
X199495Y139314D01*
X199396Y139247D01*
X199294Y139186D01*
X199248Y139146D01*
X199232Y139135D01*
X199218Y139120D01*
X199173Y139080D01*
X199060Y138967D01*
X198356Y138560D01*
X198256Y138484D01*
X198152Y138414D01*
X198129Y138388D01*
X198102Y138368D01*
X198024Y138269D01*
X197941Y138175D01*
X197926Y138145D01*
X197905Y138119D01*
X197854Y138004D01*
X197796Y137892D01*
X197789Y137859D01*
X197775Y137828D01*
X197754Y137704D01*
X197727Y137582D01*
X197728Y137548D01*
X197722Y137515D01*
X197733Y137389D01*
X197736Y137264D01*
X197746Y137231D01*
X197749Y137198D01*
X197790Y137079D01*
X197825Y136958D01*
X197842Y136929D01*
X197853Y136897D01*
X197922Y136793D01*
X197986Y136684D01*
X198019Y136648D01*
X198029Y136632D01*
X198045Y136618D01*
X198093Y136564D01*
X199025Y135632D01*
X199025Y121368D01*
X198132Y120475D01*
X181868Y120475D01*
X180975Y121368D01*
X180975Y123166D01*
X180960Y123284D01*
X180953Y123403D01*
X180940Y123441D01*
X180935Y123482D01*
X180892Y123592D01*
X180855Y123705D01*
X180833Y123740D01*
X180818Y123777D01*
X180749Y123873D01*
X180685Y123974D01*
X180655Y124002D01*
X180632Y124035D01*
X180540Y124111D01*
X180453Y124192D01*
X180418Y124212D01*
X180387Y124237D01*
X180279Y124288D01*
X180175Y124346D01*
X180135Y124356D01*
X180099Y124373D01*
X179982Y124395D01*
X179867Y124425D01*
X179807Y124429D01*
X179787Y124433D01*
X179766Y124431D01*
X179706Y124435D01*
X179294Y124435D01*
X179176Y124420D01*
X179057Y124413D01*
X179019Y124400D01*
X178978Y124395D01*
X178868Y124352D01*
X178755Y124315D01*
X178720Y124293D01*
X178683Y124278D01*
X178587Y124209D01*
X178486Y124145D01*
X178458Y124115D01*
X178425Y124092D01*
X178349Y124000D01*
X178268Y123913D01*
X178248Y123878D01*
X178223Y123847D01*
X178172Y123739D01*
X178114Y123635D01*
X178104Y123595D01*
X178087Y123559D01*
X178065Y123442D01*
X178035Y123327D01*
X178031Y123267D01*
X178027Y123247D01*
X178029Y123226D01*
X178025Y123166D01*
X178025Y121368D01*
X177132Y120475D01*
X174334Y120475D01*
X174216Y120460D01*
X174097Y120453D01*
X174059Y120440D01*
X174018Y120435D01*
X173908Y120392D01*
X173795Y120355D01*
X173760Y120333D01*
X173723Y120318D01*
X173627Y120249D01*
X173526Y120185D01*
X173498Y120155D01*
X173465Y120132D01*
X173389Y120040D01*
X173308Y119953D01*
X173288Y119918D01*
X173263Y119887D01*
X173212Y119779D01*
X173154Y119675D01*
X173144Y119635D01*
X173127Y119599D01*
X173105Y119482D01*
X173075Y119367D01*
X173071Y119307D01*
X173067Y119287D01*
X173069Y119266D01*
X173065Y119206D01*
X173065Y118064D01*
X173080Y117946D01*
X173087Y117827D01*
X173100Y117789D01*
X173105Y117748D01*
X173148Y117638D01*
X173185Y117525D01*
X173207Y117490D01*
X173222Y117453D01*
X173291Y117357D01*
X173355Y117256D01*
X173385Y117228D01*
X173408Y117195D01*
X173500Y117119D01*
X173587Y117038D01*
X173622Y117018D01*
X173653Y116993D01*
X173761Y116942D01*
X173865Y116884D01*
X173905Y116874D01*
X173941Y116857D01*
X174058Y116835D01*
X174173Y116805D01*
X174233Y116801D01*
X174253Y116797D01*
X174274Y116799D01*
X174334Y116795D01*
X194158Y116795D01*
X194774Y116178D01*
X194852Y116118D01*
X194924Y116050D01*
X194977Y116021D01*
X195025Y115984D01*
X195116Y115944D01*
X195203Y115896D01*
X195261Y115881D01*
X195317Y115857D01*
X195415Y115842D01*
X195511Y115817D01*
X195611Y115811D01*
X195631Y115807D01*
X195643Y115809D01*
X195671Y115807D01*
X197556Y115807D01*
X199506Y114999D01*
X200999Y113506D01*
X201807Y111556D01*
X201807Y109444D01*
X201467Y108625D01*
X201465Y108616D01*
X201460Y108608D01*
X201423Y108463D01*
X201383Y108318D01*
X201383Y108309D01*
X201381Y108300D01*
X201371Y108139D01*
X201371Y85101D01*
X201347Y85070D01*
X201258Y84963D01*
X201249Y84944D01*
X201237Y84928D01*
X201181Y84800D01*
X201122Y84675D01*
X201118Y84655D01*
X201110Y84636D01*
X201089Y84499D01*
X201062Y84362D01*
X201064Y84342D01*
X201061Y84322D01*
X201074Y84184D01*
X201082Y84045D01*
X201088Y84026D01*
X201090Y84006D01*
X201138Y83874D01*
X201180Y83743D01*
X201191Y83725D01*
X201198Y83706D01*
X201276Y83591D01*
X201350Y83474D01*
X201365Y83460D01*
X201376Y83443D01*
X201481Y83351D01*
X201582Y83256D01*
X201600Y83246D01*
X201615Y83233D01*
X201739Y83170D01*
X201861Y83102D01*
X201880Y83097D01*
X201898Y83088D01*
X202034Y83058D01*
X202168Y83023D01*
X202196Y83021D01*
X202208Y83018D01*
X202229Y83019D01*
X202329Y83013D01*
X205171Y83013D01*
X205196Y82993D01*
X205286Y82914D01*
X205322Y82896D01*
X205354Y82871D01*
X205463Y82824D01*
X205569Y82769D01*
X205609Y82761D01*
X205646Y82745D01*
X205763Y82726D01*
X205879Y82700D01*
X205920Y82701D01*
X205960Y82695D01*
X206078Y82706D01*
X206197Y82709D01*
X206236Y82721D01*
X206276Y82724D01*
X206389Y82765D01*
X206503Y82798D01*
X206538Y82818D01*
X206576Y82832D01*
X206674Y82899D01*
X206777Y82959D01*
X206822Y82999D01*
X206839Y83011D01*
X206841Y83013D01*
X211671Y83013D01*
X211697Y82993D01*
X211786Y82914D01*
X211822Y82896D01*
X211854Y82871D01*
X211963Y82824D01*
X212069Y82769D01*
X212109Y82761D01*
X212146Y82744D01*
X212263Y82726D01*
X212379Y82700D01*
X212420Y82701D01*
X212460Y82695D01*
X212579Y82706D01*
G37*
%LPC*%
G36*
X132839Y133939D02*
X132839Y133939D01*
X132839Y141434D01*
X150573Y141434D01*
X151220Y141261D01*
X151799Y140926D01*
X152272Y140453D01*
X152607Y139874D01*
X152780Y139227D01*
X152780Y133939D01*
X132839Y133939D01*
G37*
%LPD*%
%LPC*%
G36*
X132839Y121366D02*
X132839Y121366D01*
X132839Y128861D01*
X152780Y128861D01*
X152780Y123573D01*
X152607Y122926D01*
X152272Y122347D01*
X151799Y121874D01*
X151220Y121539D01*
X150573Y121366D01*
X132839Y121366D01*
G37*
%LPD*%
%LPC*%
G36*
X110027Y121366D02*
X110027Y121366D01*
X109380Y121539D01*
X108801Y121874D01*
X108328Y122347D01*
X107993Y122926D01*
X107820Y123573D01*
X107820Y128861D01*
X127761Y128861D01*
X127761Y121366D01*
X110027Y121366D01*
G37*
%LPD*%
%LPC*%
G36*
X171539Y150039D02*
X171539Y150039D01*
X171539Y156541D01*
X176834Y156541D01*
X177481Y156368D01*
X178060Y156033D01*
X178603Y155491D01*
X178697Y155418D01*
X178786Y155339D01*
X178822Y155321D01*
X178854Y155296D01*
X178963Y155248D01*
X179069Y155194D01*
X179108Y155185D01*
X179146Y155169D01*
X179263Y155151D01*
X179379Y155125D01*
X179420Y155126D01*
X179460Y155119D01*
X179578Y155131D01*
X179697Y155134D01*
X179736Y155146D01*
X179776Y155149D01*
X179888Y155190D01*
X180003Y155223D01*
X180038Y155243D01*
X180076Y155257D01*
X180174Y155324D01*
X180277Y155384D01*
X180322Y155424D01*
X180339Y155435D01*
X180352Y155451D01*
X180398Y155491D01*
X180940Y156033D01*
X181519Y156368D01*
X182166Y156541D01*
X187461Y156541D01*
X187461Y150039D01*
X171539Y150039D01*
G37*
%LPD*%
%LPC*%
G36*
X158959Y150039D02*
X158959Y150039D01*
X158959Y154334D01*
X159132Y154981D01*
X159467Y155560D01*
X159940Y156033D01*
X160519Y156368D01*
X161166Y156541D01*
X166461Y156541D01*
X166461Y150039D01*
X158959Y150039D01*
G37*
%LPD*%
%LPC*%
G36*
X369639Y95139D02*
X369639Y95139D01*
X369639Y96809D01*
X375591Y102761D01*
X377261Y102761D01*
X377261Y95139D01*
X369639Y95139D01*
G37*
%LPD*%
%LPC*%
G36*
X375591Y82439D02*
X375591Y82439D01*
X369639Y88391D01*
X369639Y90061D01*
X377261Y90061D01*
X377261Y82439D01*
X375591Y82439D01*
G37*
%LPD*%
%LPC*%
G36*
X94292Y107382D02*
X94292Y107382D01*
X94292Y113111D01*
X95920Y113111D01*
X96567Y112938D01*
X97146Y112603D01*
X97619Y112130D01*
X97954Y111551D01*
X98127Y110904D01*
X98127Y107382D01*
X94292Y107382D01*
G37*
%LPD*%
%LPC*%
G36*
X94292Y99068D02*
X94292Y99068D01*
X94292Y104797D01*
X98127Y104797D01*
X98127Y101275D01*
X97954Y100628D01*
X97619Y100049D01*
X97146Y99576D01*
X96567Y99241D01*
X95920Y99068D01*
X94292Y99068D01*
G37*
%LPD*%
%LPC*%
G36*
X130299Y131399D02*
X130299Y131399D01*
X130299Y131401D01*
X130301Y131401D01*
X130301Y131399D01*
X130299Y131399D01*
G37*
%LPD*%
D10*
X267554Y153527D02*
X257213Y163868D01*
X260130Y166785D01*
X270471Y156444D01*
X267554Y153527D01*
X268860Y154833D02*
X266248Y154833D01*
X264942Y156139D02*
X270166Y156139D01*
X269470Y157445D02*
X263636Y157445D01*
X262330Y158751D02*
X268164Y158751D01*
X266858Y160057D02*
X261024Y160057D01*
X259718Y161363D02*
X265552Y161363D01*
X264246Y162669D02*
X258412Y162669D01*
X257320Y163975D02*
X262940Y163975D01*
X261634Y165281D02*
X258626Y165281D01*
X259932Y166587D02*
X260328Y166587D01*
X251556Y158211D02*
X261897Y147870D01*
X251556Y158211D02*
X254473Y161128D01*
X264814Y150787D01*
X261897Y147870D01*
X263203Y149176D02*
X260591Y149176D01*
X259285Y150482D02*
X264509Y150482D01*
X263813Y151788D02*
X257979Y151788D01*
X256673Y153094D02*
X262507Y153094D01*
X261201Y154400D02*
X255367Y154400D01*
X254061Y155706D02*
X259895Y155706D01*
X258589Y157012D02*
X252755Y157012D01*
X251663Y158318D02*
X257283Y158318D01*
X255977Y159624D02*
X252969Y159624D01*
X254275Y160930D02*
X254671Y160930D01*
X245899Y152554D02*
X256240Y142213D01*
X245899Y152554D02*
X248816Y155471D01*
X259157Y145130D01*
X256240Y142213D01*
X257546Y143519D02*
X254934Y143519D01*
X253628Y144825D02*
X258852Y144825D01*
X258156Y146131D02*
X252322Y146131D01*
X251016Y147437D02*
X256850Y147437D01*
X255544Y148743D02*
X249710Y148743D01*
X248404Y150049D02*
X254238Y150049D01*
X252932Y151355D02*
X247098Y151355D01*
X246006Y152661D02*
X251626Y152661D01*
X250320Y153967D02*
X247312Y153967D01*
X248618Y155273D02*
X249014Y155273D01*
X240242Y146897D02*
X250583Y136556D01*
X240242Y146897D02*
X243159Y149814D01*
X253500Y139473D01*
X250583Y136556D01*
X251889Y137862D02*
X249277Y137862D01*
X247971Y139168D02*
X253195Y139168D01*
X252499Y140474D02*
X246665Y140474D01*
X245359Y141780D02*
X251193Y141780D01*
X249887Y143086D02*
X244053Y143086D01*
X242747Y144392D02*
X248581Y144392D01*
X247275Y145698D02*
X241441Y145698D01*
X240349Y147004D02*
X245969Y147004D01*
X244663Y148310D02*
X241655Y148310D01*
X242961Y149616D02*
X243357Y149616D01*
X234586Y141241D02*
X244927Y130900D01*
X234586Y141241D02*
X237503Y144158D01*
X247844Y133817D01*
X244927Y130900D01*
X246233Y132206D02*
X243621Y132206D01*
X242315Y133512D02*
X247539Y133512D01*
X246843Y134818D02*
X241009Y134818D01*
X239703Y136124D02*
X245537Y136124D01*
X244231Y137430D02*
X238397Y137430D01*
X237091Y138736D02*
X242925Y138736D01*
X241619Y140042D02*
X235785Y140042D01*
X234693Y141348D02*
X240313Y141348D01*
X239007Y142654D02*
X235999Y142654D01*
X237305Y143960D02*
X237701Y143960D01*
X228929Y135584D02*
X239270Y125243D01*
X228929Y135584D02*
X231846Y138501D01*
X242187Y128160D01*
X239270Y125243D01*
X240576Y126549D02*
X237964Y126549D01*
X236658Y127855D02*
X241882Y127855D01*
X241186Y129161D02*
X235352Y129161D01*
X234046Y130467D02*
X239880Y130467D01*
X238574Y131773D02*
X232740Y131773D01*
X231434Y133079D02*
X237268Y133079D01*
X235962Y134385D02*
X230128Y134385D01*
X229036Y135691D02*
X234656Y135691D01*
X233350Y136997D02*
X230342Y136997D01*
X231648Y138303D02*
X232044Y138303D01*
X223272Y129927D02*
X233613Y119586D01*
X223272Y129927D02*
X226189Y132844D01*
X236530Y122503D01*
X233613Y119586D01*
X234919Y120892D02*
X232307Y120892D01*
X231001Y122198D02*
X236225Y122198D01*
X235529Y123504D02*
X229695Y123504D01*
X228389Y124810D02*
X234223Y124810D01*
X232917Y126116D02*
X227083Y126116D01*
X225777Y127422D02*
X231611Y127422D01*
X230305Y128728D02*
X224471Y128728D01*
X223379Y130034D02*
X228999Y130034D01*
X227693Y131340D02*
X224685Y131340D01*
X225991Y132646D02*
X226387Y132646D01*
X217615Y124270D02*
X227956Y113929D01*
X217615Y124270D02*
X220532Y127187D01*
X230873Y116846D01*
X227956Y113929D01*
X229262Y115235D02*
X226650Y115235D01*
X225344Y116541D02*
X230568Y116541D01*
X229872Y117847D02*
X224038Y117847D01*
X222732Y119153D02*
X228566Y119153D01*
X227260Y120459D02*
X221426Y120459D01*
X220120Y121765D02*
X225954Y121765D01*
X224648Y123071D02*
X218814Y123071D01*
X217722Y124377D02*
X223342Y124377D01*
X222036Y125683D02*
X219028Y125683D01*
X220334Y126989D02*
X220730Y126989D01*
X276729Y65156D02*
X287070Y54815D01*
X276729Y65156D02*
X279646Y68073D01*
X289987Y57732D01*
X287070Y54815D01*
X288376Y56121D02*
X285764Y56121D01*
X284458Y57427D02*
X289682Y57427D01*
X288986Y58733D02*
X283152Y58733D01*
X281846Y60039D02*
X287680Y60039D01*
X286374Y61345D02*
X280540Y61345D01*
X279234Y62651D02*
X285068Y62651D01*
X283762Y63957D02*
X277928Y63957D01*
X276836Y65263D02*
X282456Y65263D01*
X281150Y66569D02*
X278142Y66569D01*
X279448Y67875D02*
X279844Y67875D01*
X282386Y70813D02*
X292727Y60472D01*
X282386Y70813D02*
X285303Y73730D01*
X295644Y63389D01*
X292727Y60472D01*
X294033Y61778D02*
X291421Y61778D01*
X290115Y63084D02*
X295339Y63084D01*
X294643Y64390D02*
X288809Y64390D01*
X287503Y65696D02*
X293337Y65696D01*
X292031Y67002D02*
X286197Y67002D01*
X284891Y68308D02*
X290725Y68308D01*
X289419Y69614D02*
X283585Y69614D01*
X282493Y70920D02*
X288113Y70920D01*
X286807Y72226D02*
X283799Y72226D01*
X285105Y73532D02*
X285501Y73532D01*
X288043Y76470D02*
X298384Y66129D01*
X288043Y76470D02*
X290960Y79387D01*
X301301Y69046D01*
X298384Y66129D01*
X299690Y67435D02*
X297078Y67435D01*
X295772Y68741D02*
X300996Y68741D01*
X300300Y70047D02*
X294466Y70047D01*
X293160Y71353D02*
X298994Y71353D01*
X297688Y72659D02*
X291854Y72659D01*
X290548Y73965D02*
X296382Y73965D01*
X295076Y75271D02*
X289242Y75271D01*
X288150Y76577D02*
X293770Y76577D01*
X292464Y77883D02*
X289456Y77883D01*
X290762Y79189D02*
X291158Y79189D01*
X293700Y82127D02*
X304041Y71786D01*
X293700Y82127D02*
X296617Y85044D01*
X306958Y74703D01*
X304041Y71786D01*
X305347Y73092D02*
X302735Y73092D01*
X301429Y74398D02*
X306653Y74398D01*
X305957Y75704D02*
X300123Y75704D01*
X298817Y77010D02*
X304651Y77010D01*
X303345Y78316D02*
X297511Y78316D01*
X296205Y79622D02*
X302039Y79622D01*
X300733Y80928D02*
X294899Y80928D01*
X293807Y82234D02*
X299427Y82234D01*
X298121Y83540D02*
X295113Y83540D01*
X296419Y84846D02*
X296815Y84846D01*
X299356Y87783D02*
X309697Y77442D01*
X299356Y87783D02*
X302273Y90700D01*
X312614Y80359D01*
X309697Y77442D01*
X311003Y78748D02*
X308391Y78748D01*
X307085Y80054D02*
X312309Y80054D01*
X311613Y81360D02*
X305779Y81360D01*
X304473Y82666D02*
X310307Y82666D01*
X309001Y83972D02*
X303167Y83972D01*
X301861Y85278D02*
X307695Y85278D01*
X306389Y86584D02*
X300555Y86584D01*
X299463Y87890D02*
X305083Y87890D01*
X303777Y89196D02*
X300769Y89196D01*
X302075Y90502D02*
X302471Y90502D01*
X305013Y93440D02*
X315354Y83099D01*
X305013Y93440D02*
X307930Y96357D01*
X318271Y86016D01*
X315354Y83099D01*
X316660Y84405D02*
X314048Y84405D01*
X312742Y85711D02*
X317966Y85711D01*
X317270Y87017D02*
X311436Y87017D01*
X310130Y88323D02*
X315964Y88323D01*
X314658Y89629D02*
X308824Y89629D01*
X307518Y90935D02*
X313352Y90935D01*
X312046Y92241D02*
X306212Y92241D01*
X305120Y93547D02*
X310740Y93547D01*
X309434Y94853D02*
X306426Y94853D01*
X307732Y96159D02*
X308128Y96159D01*
X310670Y99097D02*
X321011Y88756D01*
X310670Y99097D02*
X313587Y102014D01*
X323928Y91673D01*
X321011Y88756D01*
X322317Y90062D02*
X319705Y90062D01*
X318399Y91368D02*
X323623Y91368D01*
X322927Y92674D02*
X317093Y92674D01*
X315787Y93980D02*
X321621Y93980D01*
X320315Y95286D02*
X314481Y95286D01*
X313175Y96592D02*
X319009Y96592D01*
X317703Y97898D02*
X311869Y97898D01*
X310777Y99204D02*
X316397Y99204D01*
X315091Y100510D02*
X312083Y100510D01*
X313389Y101816D02*
X313785Y101816D01*
X316327Y104754D02*
X326668Y94413D01*
X316327Y104754D02*
X319244Y107671D01*
X329585Y97330D01*
X326668Y94413D01*
X327974Y95719D02*
X325362Y95719D01*
X324056Y97025D02*
X329280Y97025D01*
X328584Y98331D02*
X322750Y98331D01*
X321444Y99637D02*
X327278Y99637D01*
X325972Y100943D02*
X320138Y100943D01*
X318832Y102249D02*
X324666Y102249D01*
X323360Y103555D02*
X317526Y103555D01*
X316434Y104861D02*
X322054Y104861D01*
X320748Y106167D02*
X317740Y106167D01*
X319046Y107473D02*
X319442Y107473D01*
X316327Y116846D02*
X326668Y127187D01*
X329585Y124270D01*
X319244Y113929D01*
X316327Y116846D01*
X317938Y115235D02*
X320550Y115235D01*
X321856Y116541D02*
X316632Y116541D01*
X317328Y117847D02*
X323162Y117847D01*
X324468Y119153D02*
X318634Y119153D01*
X319940Y120459D02*
X325774Y120459D01*
X327080Y121765D02*
X321246Y121765D01*
X322552Y123071D02*
X328386Y123071D01*
X329478Y124377D02*
X323858Y124377D01*
X325164Y125683D02*
X328172Y125683D01*
X326866Y126989D02*
X326470Y126989D01*
X321011Y132844D02*
X310670Y122503D01*
X321011Y132844D02*
X323928Y129927D01*
X313587Y119586D01*
X310670Y122503D01*
X312281Y120892D02*
X314893Y120892D01*
X316199Y122198D02*
X310975Y122198D01*
X311671Y123504D02*
X317505Y123504D01*
X318811Y124810D02*
X312977Y124810D01*
X314283Y126116D02*
X320117Y126116D01*
X321423Y127422D02*
X315589Y127422D01*
X316895Y128728D02*
X322729Y128728D01*
X323821Y130034D02*
X318201Y130034D01*
X319507Y131340D02*
X322515Y131340D01*
X321209Y132646D02*
X320813Y132646D01*
X315354Y138501D02*
X305013Y128160D01*
X315354Y138501D02*
X318271Y135584D01*
X307930Y125243D01*
X305013Y128160D01*
X306624Y126549D02*
X309236Y126549D01*
X310542Y127855D02*
X305318Y127855D01*
X306014Y129161D02*
X311848Y129161D01*
X313154Y130467D02*
X307320Y130467D01*
X308626Y131773D02*
X314460Y131773D01*
X315766Y133079D02*
X309932Y133079D01*
X311238Y134385D02*
X317072Y134385D01*
X318164Y135691D02*
X312544Y135691D01*
X313850Y136997D02*
X316858Y136997D01*
X315552Y138303D02*
X315156Y138303D01*
X309697Y144158D02*
X299356Y133817D01*
X309697Y144158D02*
X312614Y141241D01*
X302273Y130900D01*
X299356Y133817D01*
X300967Y132206D02*
X303579Y132206D01*
X304885Y133512D02*
X299661Y133512D01*
X300357Y134818D02*
X306191Y134818D01*
X307497Y136124D02*
X301663Y136124D01*
X302969Y137430D02*
X308803Y137430D01*
X310109Y138736D02*
X304275Y138736D01*
X305581Y140042D02*
X311415Y140042D01*
X312507Y141348D02*
X306887Y141348D01*
X308193Y142654D02*
X311201Y142654D01*
X309895Y143960D02*
X309499Y143960D01*
X304041Y149814D02*
X293700Y139473D01*
X304041Y149814D02*
X306958Y146897D01*
X296617Y136556D01*
X293700Y139473D01*
X295311Y137862D02*
X297923Y137862D01*
X299229Y139168D02*
X294005Y139168D01*
X294701Y140474D02*
X300535Y140474D01*
X301841Y141780D02*
X296007Y141780D01*
X297313Y143086D02*
X303147Y143086D01*
X304453Y144392D02*
X298619Y144392D01*
X299925Y145698D02*
X305759Y145698D01*
X306851Y147004D02*
X301231Y147004D01*
X302537Y148310D02*
X305545Y148310D01*
X304239Y149616D02*
X303843Y149616D01*
X298384Y155471D02*
X288043Y145130D01*
X298384Y155471D02*
X301301Y152554D01*
X290960Y142213D01*
X288043Y145130D01*
X289654Y143519D02*
X292266Y143519D01*
X293572Y144825D02*
X288348Y144825D01*
X289044Y146131D02*
X294878Y146131D01*
X296184Y147437D02*
X290350Y147437D01*
X291656Y148743D02*
X297490Y148743D01*
X298796Y150049D02*
X292962Y150049D01*
X294268Y151355D02*
X300102Y151355D01*
X301194Y152661D02*
X295574Y152661D01*
X296880Y153967D02*
X299888Y153967D01*
X298582Y155273D02*
X298186Y155273D01*
X292727Y161128D02*
X282386Y150787D01*
X292727Y161128D02*
X295644Y158211D01*
X285303Y147870D01*
X282386Y150787D01*
X283997Y149176D02*
X286609Y149176D01*
X287915Y150482D02*
X282691Y150482D01*
X283387Y151788D02*
X289221Y151788D01*
X290527Y153094D02*
X284693Y153094D01*
X285999Y154400D02*
X291833Y154400D01*
X293139Y155706D02*
X287305Y155706D01*
X288611Y157012D02*
X294445Y157012D01*
X295537Y158318D02*
X289917Y158318D01*
X291223Y159624D02*
X294231Y159624D01*
X292925Y160930D02*
X292529Y160930D01*
X287070Y166785D02*
X276729Y156444D01*
X287070Y166785D02*
X289987Y163868D01*
X279646Y153527D01*
X276729Y156444D01*
X278340Y154833D02*
X280952Y154833D01*
X282258Y156139D02*
X277034Y156139D01*
X277730Y157445D02*
X283564Y157445D01*
X284870Y158751D02*
X279036Y158751D01*
X280342Y160057D02*
X286176Y160057D01*
X287482Y161363D02*
X281648Y161363D01*
X282954Y162669D02*
X288788Y162669D01*
X289880Y163975D02*
X284260Y163975D01*
X285566Y165281D02*
X288574Y165281D01*
X287268Y166587D02*
X286872Y166587D01*
X227956Y107671D02*
X217615Y97330D01*
X227956Y107671D02*
X230873Y104754D01*
X220532Y94413D01*
X217615Y97330D01*
X219226Y95719D02*
X221838Y95719D01*
X223144Y97025D02*
X217920Y97025D01*
X218616Y98331D02*
X224450Y98331D01*
X225756Y99637D02*
X219922Y99637D01*
X221228Y100943D02*
X227062Y100943D01*
X228368Y102249D02*
X222534Y102249D01*
X223840Y103555D02*
X229674Y103555D01*
X230766Y104861D02*
X225146Y104861D01*
X226452Y106167D02*
X229460Y106167D01*
X228154Y107473D02*
X227758Y107473D01*
X233613Y102014D02*
X223272Y91673D01*
X233613Y102014D02*
X236530Y99097D01*
X226189Y88756D01*
X223272Y91673D01*
X224883Y90062D02*
X227495Y90062D01*
X228801Y91368D02*
X223577Y91368D01*
X224273Y92674D02*
X230107Y92674D01*
X231413Y93980D02*
X225579Y93980D01*
X226885Y95286D02*
X232719Y95286D01*
X234025Y96592D02*
X228191Y96592D01*
X229497Y97898D02*
X235331Y97898D01*
X236423Y99204D02*
X230803Y99204D01*
X232109Y100510D02*
X235117Y100510D01*
X233811Y101816D02*
X233415Y101816D01*
X239270Y96357D02*
X228929Y86016D01*
X239270Y96357D02*
X242187Y93440D01*
X231846Y83099D01*
X228929Y86016D01*
X230540Y84405D02*
X233152Y84405D01*
X234458Y85711D02*
X229234Y85711D01*
X229930Y87017D02*
X235764Y87017D01*
X237070Y88323D02*
X231236Y88323D01*
X232542Y89629D02*
X238376Y89629D01*
X239682Y90935D02*
X233848Y90935D01*
X235154Y92241D02*
X240988Y92241D01*
X242080Y93547D02*
X236460Y93547D01*
X237766Y94853D02*
X240774Y94853D01*
X239468Y96159D02*
X239072Y96159D01*
X244927Y90700D02*
X234586Y80359D01*
X244927Y90700D02*
X247844Y87783D01*
X237503Y77442D01*
X234586Y80359D01*
X236197Y78748D02*
X238809Y78748D01*
X240115Y80054D02*
X234891Y80054D01*
X235587Y81360D02*
X241421Y81360D01*
X242727Y82666D02*
X236893Y82666D01*
X238199Y83972D02*
X244033Y83972D01*
X245339Y85278D02*
X239505Y85278D01*
X240811Y86584D02*
X246645Y86584D01*
X247737Y87890D02*
X242117Y87890D01*
X243423Y89196D02*
X246431Y89196D01*
X245125Y90502D02*
X244729Y90502D01*
X250583Y85044D02*
X240242Y74703D01*
X250583Y85044D02*
X253500Y82127D01*
X243159Y71786D01*
X240242Y74703D01*
X241853Y73092D02*
X244465Y73092D01*
X245771Y74398D02*
X240547Y74398D01*
X241243Y75704D02*
X247077Y75704D01*
X248383Y77010D02*
X242549Y77010D01*
X243855Y78316D02*
X249689Y78316D01*
X250995Y79622D02*
X245161Y79622D01*
X246467Y80928D02*
X252301Y80928D01*
X253393Y82234D02*
X247773Y82234D01*
X249079Y83540D02*
X252087Y83540D01*
X250781Y84846D02*
X250385Y84846D01*
X256240Y79387D02*
X245899Y69046D01*
X256240Y79387D02*
X259157Y76470D01*
X248816Y66129D01*
X245899Y69046D01*
X247510Y67435D02*
X250122Y67435D01*
X251428Y68741D02*
X246204Y68741D01*
X246900Y70047D02*
X252734Y70047D01*
X254040Y71353D02*
X248206Y71353D01*
X249512Y72659D02*
X255346Y72659D01*
X256652Y73965D02*
X250818Y73965D01*
X252124Y75271D02*
X257958Y75271D01*
X259050Y76577D02*
X253430Y76577D01*
X254736Y77883D02*
X257744Y77883D01*
X256438Y79189D02*
X256042Y79189D01*
X261897Y73730D02*
X251556Y63389D01*
X261897Y73730D02*
X264814Y70813D01*
X254473Y60472D01*
X251556Y63389D01*
X253167Y61778D02*
X255779Y61778D01*
X257085Y63084D02*
X251861Y63084D01*
X252557Y64390D02*
X258391Y64390D01*
X259697Y65696D02*
X253863Y65696D01*
X255169Y67002D02*
X261003Y67002D01*
X262309Y68308D02*
X256475Y68308D01*
X257781Y69614D02*
X263615Y69614D01*
X264707Y70920D02*
X259087Y70920D01*
X260393Y72226D02*
X263401Y72226D01*
X262095Y73532D02*
X261699Y73532D01*
X267554Y68073D02*
X257213Y57732D01*
X267554Y68073D02*
X270471Y65156D01*
X260130Y54815D01*
X257213Y57732D01*
X258824Y56121D02*
X261436Y56121D01*
X262742Y57427D02*
X257518Y57427D01*
X258214Y58733D02*
X264048Y58733D01*
X265354Y60039D02*
X259520Y60039D01*
X260826Y61345D02*
X266660Y61345D01*
X267966Y62651D02*
X262132Y62651D01*
X263438Y63957D02*
X269272Y63957D01*
X270364Y65263D02*
X264744Y65263D01*
X266050Y66569D02*
X269058Y66569D01*
X267752Y67875D02*
X267356Y67875D01*
D11*
X130300Y131400D03*
X130300Y95400D03*
D12*
X93000Y106090D03*
X83500Y106090D03*
X74000Y106090D03*
X74000Y80111D03*
X83500Y80111D03*
X93000Y80111D03*
D13*
X82000Y62000D03*
X95000Y62000D03*
D14*
X379800Y67200D03*
D15*
X379800Y92600D03*
X379800Y118000D03*
D16*
X42800Y27100D03*
X351800Y27500D03*
D17*
X53000Y71000D03*
X25000Y71000D03*
X53000Y92000D03*
X25000Y92000D03*
D18*
X169000Y147500D03*
X169000Y128500D03*
X190000Y147500D03*
X190000Y128500D03*
D13*
G36*
X320940Y72303D02*
X325889Y77252D01*
X332252Y70889D01*
X327303Y65940D01*
X320940Y72303D01*
G37*
G36*
X311748Y63111D02*
X316697Y68060D01*
X323060Y61697D01*
X318111Y56748D01*
X311748Y63111D01*
G37*
D19*
X215750Y74213D03*
X209250Y74213D03*
X202750Y74213D03*
X196250Y74213D03*
X189750Y74213D03*
X183250Y74213D03*
X176750Y74213D03*
X170250Y74213D03*
X163750Y74213D03*
X157250Y74213D03*
X150750Y74213D03*
X144250Y74213D03*
X144250Y19787D03*
X150750Y19787D03*
X157250Y19787D03*
X163750Y19787D03*
X170250Y19787D03*
X176750Y19787D03*
X183250Y19787D03*
X189750Y19787D03*
X196250Y19787D03*
X202750Y19787D03*
X209250Y19787D03*
X215750Y19787D03*
D20*
X180000Y47000D03*
D21*
X83000Y138500D03*
X83000Y121500D03*
X56000Y131500D03*
X56000Y148500D03*
D22*
X81000Y155000D03*
X97000Y155000D03*
D23*
X355000Y76000D03*
X355000Y92000D03*
X355000Y59000D03*
D24*
X379000Y167000D03*
D25*
X379000Y147000D03*
D22*
G36*
X227586Y162071D02*
X233243Y167728D01*
X241728Y159243D01*
X236071Y153586D01*
X227586Y162071D01*
G37*
G36*
X216272Y150757D02*
X221929Y156414D01*
X230414Y147929D01*
X224757Y142272D01*
X216272Y150757D01*
G37*
D26*
X83000Y138500D02*
X81000Y140500D01*
X81000Y154000D01*
X81000Y155000D01*
X61500Y154000D02*
X56000Y148500D01*
X61500Y154000D02*
X81000Y154000D01*
D27*
X111000Y146912D03*
D26*
X106912Y146912D01*
X98500Y138500D02*
X83000Y138500D01*
X98500Y138500D02*
X106912Y146912D01*
D28*
X53000Y92000D02*
X53000Y71000D01*
X62111Y80111D01*
X74000Y80111D01*
X54000Y70000D02*
X53000Y71000D01*
X54000Y70000D02*
X54000Y55000D01*
D27*
X54000Y55000D03*
D26*
X305985Y84071D02*
X306459Y84071D01*
D28*
X190000Y128500D02*
X169000Y128500D01*
X169000Y119000D01*
X164000Y114000D01*
D27*
X164000Y114000D03*
D26*
X355000Y92000D02*
X379800Y116800D01*
X379800Y118000D01*
X56000Y131500D02*
X45500Y121000D01*
X43000Y121000D01*
D27*
X43000Y121000D03*
D26*
X164000Y114000D02*
X193000Y114000D01*
X198576Y86276D02*
X196250Y83950D01*
X196250Y74213D01*
X198576Y86276D02*
X198576Y108424D01*
X196500Y110500D02*
X193000Y114000D01*
X196500Y110500D02*
X198576Y108424D01*
D27*
X196500Y110500D03*
X228000Y76000D03*
D26*
X235558Y89255D02*
X235558Y89728D01*
X235558Y89255D02*
X228104Y81801D01*
X228104Y76104D01*
X228000Y76000D01*
X349000Y92000D02*
X355000Y92000D01*
D27*
X332000Y87000D03*
D26*
X332000Y77000D01*
X314000Y76057D02*
X305985Y84071D01*
X314000Y76057D02*
X314000Y76000D01*
X322192Y76000D01*
X326596Y71596D01*
X332000Y77000D01*
X332000Y87000D02*
X337000Y92000D01*
X355000Y92000D01*
X223343Y143343D02*
X223343Y149343D01*
X223343Y143343D02*
X217000Y137000D01*
D27*
X217000Y137000D03*
D28*
X130300Y131400D02*
X119814Y126904D01*
D29*
X130300Y131400D02*
X133300Y129300D01*
D28*
X118311Y131400D02*
X93000Y106090D01*
X118311Y131400D02*
X130300Y131400D01*
D26*
X300329Y78415D02*
X300329Y77479D01*
X350000Y76000D02*
X355000Y76000D01*
X333000Y59000D02*
X332000Y58000D01*
X333000Y59000D02*
X350000Y76000D01*
D28*
X145900Y147000D02*
X130300Y131400D01*
X168500Y147000D02*
X169000Y147500D01*
X168500Y147000D02*
X145900Y147000D01*
X169000Y147500D02*
X190000Y147500D01*
D26*
X355000Y76000D02*
X363200Y76000D01*
X379800Y92600D01*
D27*
X210000Y111000D03*
D26*
X204133Y133367D02*
X190000Y147500D01*
X204133Y133367D02*
X204133Y116867D01*
X210000Y111000D01*
X293329Y85415D02*
X300329Y78415D01*
X293329Y85415D02*
X283855Y85415D01*
X266270Y103000D01*
X249000Y103000D01*
X247000Y101000D01*
D27*
X247000Y101000D03*
D26*
X300329Y78415D02*
X316339Y62404D01*
X317404Y62404D01*
X320808Y59000D02*
X333000Y59000D01*
X320808Y59000D02*
X317404Y62404D01*
D27*
X298000Y102000D03*
D26*
X300000Y102000D01*
X311642Y90358D02*
X311642Y89728D01*
X311642Y90358D02*
X300000Y102000D01*
D28*
X42800Y27100D02*
X25000Y44900D01*
X25000Y71000D01*
X25000Y92000D01*
X25000Y106000D01*
X30000Y111000D01*
X69090Y111000D01*
X74000Y106090D01*
D30*
X103100Y27100D02*
X42800Y27100D01*
X123000Y47000D02*
X180000Y47000D01*
X123000Y47000D02*
X103100Y27100D01*
D27*
X228000Y51000D03*
D26*
X224000Y47000D01*
X180000Y47000D01*
D27*
X274000Y74000D03*
D26*
X262000Y86000D01*
X261000Y86000D01*
D27*
X261000Y86000D03*
X337000Y157000D03*
D26*
X311872Y131872D01*
X311642Y131872D01*
X305985Y137529D02*
X323000Y154543D01*
X323000Y168000D01*
D27*
X323000Y168000D03*
D26*
X301855Y143185D02*
X300329Y143185D01*
X301855Y143185D02*
X311782Y153113D01*
X311782Y169218D01*
X304000Y177000D01*
X178000Y177000D01*
X172000Y171000D01*
D27*
X172000Y171000D03*
X224000Y170424D03*
D26*
X225000Y171424D02*
X272090Y171424D01*
X225000Y171424D02*
X224000Y170424D01*
X272090Y171424D02*
X283358Y160156D01*
D29*
X83500Y80111D02*
X83500Y63500D01*
X82000Y62000D01*
D28*
X130904Y90000D02*
X130300Y95400D01*
X125900Y91000D01*
X89000Y91000D01*
X83500Y85500D01*
X83500Y80111D01*
D29*
X93000Y80111D02*
X93000Y64000D01*
X95000Y62000D01*
D26*
X317299Y126215D02*
X327084Y136000D01*
X332000Y136000D02*
X340000Y128000D01*
D27*
X340000Y128000D03*
D26*
X332000Y136000D02*
X327084Y136000D01*
D27*
X190000Y91000D03*
D26*
X190000Y74463D01*
X189750Y74213D01*
X311998Y112000D02*
X322956Y101042D01*
D27*
X303000Y112000D03*
D26*
X311998Y112000D01*
D31*
X150750Y19787D02*
X144250Y19787D01*
X150750Y19787D02*
X157250Y19787D01*
X163750Y19787D01*
X170250Y19787D01*
X176750Y19787D01*
X183250Y19787D01*
X189750Y19787D01*
X196250Y19787D01*
X202750Y19787D01*
X209250Y19787D01*
X215750Y19787D01*
D32*
X224787Y19787D01*
X232500Y27500D01*
D30*
X351800Y27500D01*
D26*
X309000Y58429D02*
X294672Y72758D01*
X309000Y58429D02*
X309000Y55000D01*
X314000Y50000D01*
X352000Y56000D02*
X355000Y59000D01*
X352000Y56000D02*
X344000Y56000D01*
X338000Y50000D02*
X314000Y50000D01*
X338000Y50000D02*
X344000Y56000D01*
D27*
X274000Y144000D03*
D26*
X270000Y140000D01*
X262000Y140000D01*
X261371Y140000D01*
X252528Y148842D01*
D27*
X243000Y111000D03*
D26*
X243000Y121000D01*
X262000Y140000D01*
D27*
X171000Y92000D03*
D26*
X178000Y92000D01*
X183250Y86750D02*
X183250Y74213D01*
X183250Y86750D02*
X178000Y92000D01*
D29*
X83500Y106090D02*
X83000Y106590D01*
X83000Y121500D01*
D26*
X212576Y99876D02*
X212576Y92424D01*
X212576Y99876D02*
X213000Y100300D01*
X105000Y163000D02*
X97000Y155000D01*
X105000Y163000D02*
X194000Y163000D01*
X216576Y113724D02*
X216576Y108276D01*
X212576Y104276D02*
X212576Y99876D01*
X212576Y117724D02*
X212576Y132000D01*
X216576Y108276D02*
X212576Y104276D01*
X216576Y113724D02*
X212576Y117724D01*
X203000Y154000D02*
X194000Y163000D01*
X260369Y61444D02*
X255915Y56990D01*
X260369Y61444D02*
X263842Y61444D01*
X221424Y83576D02*
X212576Y92424D01*
X221424Y83576D02*
X221424Y73276D01*
X237710Y56990D01*
X255915Y56990D01*
X212576Y132000D02*
X204576Y140000D01*
X204000Y140000D01*
X203000Y141000D01*
X203000Y154000D01*
D27*
X274000Y46506D03*
X291000Y93000D03*
D26*
X276724Y150576D02*
X271276Y150576D01*
X276724Y150576D02*
X280576Y146724D01*
X262639Y150045D02*
X258185Y154499D01*
X262639Y150045D02*
X270746Y150045D01*
X271276Y150576D01*
X280576Y146724D02*
X280576Y103424D01*
X291000Y93000D01*
D33*
X258185Y154499D02*
X249000Y163684D01*
X249000Y164000D01*
X238000Y164000D01*
X234657Y160657D01*
D26*
X168276Y98576D02*
X164424Y94724D01*
X164424Y89276D01*
X168276Y85424D01*
X172039Y85424D01*
X176750Y80713D01*
X176750Y74213D01*
X168276Y98576D02*
X187000Y98576D01*
X187000Y102000D01*
D27*
X187000Y102000D03*
M02*
