G04 EAGLE Gerber RS-274X export*
G75*
%MOMM*%
%FSLAX34Y34*%
%LPD*%
%INSilkscreen Bottom*%
%IPPOS*%
%AMOC8*
5,1,8,0,0,1.08239X$1,22.5*%
G01*
%ADD10C,0.101600*%
%ADD11R,0.250000X0.225000*%
%ADD12C,0.406400*%


D10*
X338000Y166500D02*
X342000Y166500D01*
X342000Y173500D02*
X338000Y173500D01*
D11*
X338750Y167125D03*
D10*
X248000Y166500D02*
X244000Y166500D01*
X244000Y173500D02*
X248000Y173500D01*
D11*
X244750Y167125D03*
D10*
X155000Y166500D02*
X151000Y166500D01*
X151000Y173500D02*
X155000Y173500D01*
D11*
X151750Y167125D03*
D10*
X62000Y166500D02*
X58000Y166500D01*
X58000Y173500D02*
X62000Y173500D01*
D11*
X58750Y167125D03*
D12*
X331800Y48100D02*
X381800Y48100D01*
X381800Y8100D01*
X331800Y8100D01*
X331800Y48100D01*
X62800Y7300D02*
X12800Y7300D01*
X12800Y47300D01*
X62800Y47300D01*
X62800Y7300D01*
D10*
X194492Y162508D02*
X194492Y174192D01*
X191246Y174192D01*
X191133Y174190D01*
X191020Y174184D01*
X190907Y174174D01*
X190794Y174160D01*
X190682Y174143D01*
X190571Y174121D01*
X190461Y174096D01*
X190351Y174066D01*
X190243Y174033D01*
X190136Y173996D01*
X190030Y173956D01*
X189926Y173911D01*
X189823Y173863D01*
X189722Y173812D01*
X189623Y173757D01*
X189526Y173699D01*
X189431Y173637D01*
X189338Y173572D01*
X189248Y173504D01*
X189160Y173433D01*
X189074Y173358D01*
X188991Y173281D01*
X188911Y173201D01*
X188834Y173118D01*
X188759Y173032D01*
X188688Y172944D01*
X188620Y172854D01*
X188555Y172761D01*
X188493Y172666D01*
X188435Y172569D01*
X188380Y172470D01*
X188329Y172369D01*
X188281Y172266D01*
X188236Y172162D01*
X188196Y172056D01*
X188159Y171949D01*
X188126Y171841D01*
X188096Y171731D01*
X188071Y171621D01*
X188049Y171510D01*
X188032Y171398D01*
X188018Y171285D01*
X188008Y171172D01*
X188002Y171059D01*
X188000Y170946D01*
X188001Y170946D02*
X188001Y165754D01*
X188000Y165754D02*
X188002Y165641D01*
X188008Y165528D01*
X188018Y165415D01*
X188032Y165302D01*
X188049Y165190D01*
X188071Y165079D01*
X188096Y164969D01*
X188126Y164859D01*
X188159Y164751D01*
X188196Y164644D01*
X188236Y164538D01*
X188281Y164434D01*
X188329Y164331D01*
X188380Y164230D01*
X188435Y164131D01*
X188493Y164034D01*
X188555Y163939D01*
X188620Y163846D01*
X188688Y163756D01*
X188759Y163668D01*
X188834Y163582D01*
X188911Y163499D01*
X188991Y163419D01*
X189074Y163342D01*
X189160Y163267D01*
X189248Y163196D01*
X189338Y163128D01*
X189431Y163063D01*
X189526Y163001D01*
X189623Y162943D01*
X189722Y162888D01*
X189823Y162837D01*
X189926Y162789D01*
X190030Y162744D01*
X190136Y162704D01*
X190243Y162667D01*
X190351Y162634D01*
X190461Y162604D01*
X190571Y162579D01*
X190682Y162557D01*
X190794Y162540D01*
X190907Y162526D01*
X191020Y162516D01*
X191133Y162510D01*
X191246Y162508D01*
X194492Y162508D01*
X182681Y162508D02*
X179436Y162508D01*
X179323Y162510D01*
X179210Y162516D01*
X179097Y162526D01*
X178984Y162540D01*
X178872Y162557D01*
X178761Y162579D01*
X178651Y162604D01*
X178541Y162634D01*
X178433Y162667D01*
X178326Y162704D01*
X178220Y162744D01*
X178116Y162789D01*
X178013Y162837D01*
X177912Y162888D01*
X177813Y162943D01*
X177716Y163001D01*
X177621Y163063D01*
X177528Y163128D01*
X177438Y163196D01*
X177350Y163267D01*
X177264Y163342D01*
X177181Y163419D01*
X177101Y163499D01*
X177024Y163582D01*
X176949Y163668D01*
X176878Y163756D01*
X176810Y163846D01*
X176745Y163939D01*
X176683Y164034D01*
X176625Y164131D01*
X176570Y164230D01*
X176519Y164331D01*
X176471Y164434D01*
X176426Y164538D01*
X176386Y164644D01*
X176349Y164751D01*
X176316Y164859D01*
X176286Y164969D01*
X176261Y165079D01*
X176239Y165190D01*
X176222Y165302D01*
X176208Y165415D01*
X176198Y165528D01*
X176192Y165641D01*
X176190Y165754D01*
X176192Y165867D01*
X176198Y165980D01*
X176208Y166093D01*
X176222Y166206D01*
X176239Y166318D01*
X176261Y166429D01*
X176286Y166539D01*
X176316Y166649D01*
X176349Y166757D01*
X176386Y166864D01*
X176426Y166970D01*
X176471Y167074D01*
X176519Y167177D01*
X176570Y167278D01*
X176625Y167377D01*
X176683Y167474D01*
X176745Y167569D01*
X176810Y167662D01*
X176878Y167752D01*
X176949Y167840D01*
X177024Y167926D01*
X177101Y168009D01*
X177181Y168089D01*
X177264Y168166D01*
X177350Y168241D01*
X177438Y168312D01*
X177528Y168380D01*
X177621Y168445D01*
X177716Y168507D01*
X177813Y168565D01*
X177912Y168620D01*
X178013Y168671D01*
X178116Y168719D01*
X178220Y168764D01*
X178326Y168804D01*
X178433Y168841D01*
X178541Y168874D01*
X178651Y168904D01*
X178761Y168929D01*
X178872Y168951D01*
X178984Y168968D01*
X179097Y168982D01*
X179210Y168992D01*
X179323Y168998D01*
X179436Y169000D01*
X178786Y174192D02*
X182681Y174192D01*
X178786Y174192D02*
X178685Y174190D01*
X178585Y174184D01*
X178485Y174174D01*
X178385Y174161D01*
X178286Y174143D01*
X178187Y174122D01*
X178090Y174097D01*
X177993Y174068D01*
X177898Y174035D01*
X177804Y173999D01*
X177712Y173959D01*
X177621Y173916D01*
X177532Y173869D01*
X177445Y173819D01*
X177359Y173765D01*
X177276Y173708D01*
X177196Y173648D01*
X177117Y173585D01*
X177041Y173518D01*
X176968Y173449D01*
X176898Y173377D01*
X176830Y173303D01*
X176765Y173226D01*
X176704Y173146D01*
X176645Y173064D01*
X176590Y172980D01*
X176538Y172894D01*
X176489Y172806D01*
X176444Y172716D01*
X176402Y172624D01*
X176364Y172531D01*
X176330Y172436D01*
X176299Y172341D01*
X176272Y172244D01*
X176249Y172146D01*
X176229Y172047D01*
X176214Y171947D01*
X176202Y171847D01*
X176194Y171747D01*
X176190Y171646D01*
X176190Y171546D01*
X176194Y171445D01*
X176202Y171345D01*
X176214Y171245D01*
X176229Y171145D01*
X176249Y171046D01*
X176272Y170948D01*
X176299Y170851D01*
X176330Y170756D01*
X176364Y170661D01*
X176402Y170568D01*
X176444Y170476D01*
X176489Y170386D01*
X176538Y170298D01*
X176590Y170212D01*
X176645Y170128D01*
X176704Y170046D01*
X176765Y169966D01*
X176830Y169889D01*
X176898Y169815D01*
X176968Y169743D01*
X177041Y169674D01*
X177117Y169607D01*
X177196Y169544D01*
X177276Y169484D01*
X177359Y169427D01*
X177445Y169373D01*
X177532Y169323D01*
X177621Y169276D01*
X177712Y169233D01*
X177804Y169193D01*
X177898Y169157D01*
X177993Y169124D01*
X178090Y169095D01*
X178187Y169070D01*
X178286Y169049D01*
X178385Y169031D01*
X178485Y169018D01*
X178585Y169008D01*
X178685Y169002D01*
X178786Y169000D01*
X178786Y168999D02*
X181383Y168999D01*
M02*
