M48
;GenerationSoftware,Autodesk,EAGLE,9.6.2*%
;CreationDate,2024-08-05T00:54:39Z*%
FMAT,2
ICI,OFF
METRIC,TZ,000.000
T3C0.350
T2C0.914
T1C1.016
%
G90
M71
T1
X43180Y39370
X40640Y39370
X38100Y39370
X41910Y20320
X41910Y17780
X41910Y15240
T2
X1990Y29620
X1990Y27620
T3
X11500Y31100
X7820Y7120
X12900Y1900
X24600Y6000
X8500Y38300
X9000Y29600
X29700Y29200
X41000Y7500
X10400Y19000
X38900Y22400
X17100Y27600
X15700Y28900
X17000Y24200
X24200Y31300
X29900Y8300
X17700Y8300
X40600Y34500
X40300Y33100
X28800Y9300
M30