M48
;GenerationSoftware,Autodesk,EAGLE,9.6.2*%
;CreationDate,2023-05-13T19:43:02Z*%
FMAT,2
ICI,OFF
METRIC,TZ,000.000
T2C0.350
T1C1.016
%
G90
M71
T1
X26200Y19480
X24770Y1940
X27310Y1940
X29850Y1940
X31280Y19480
X28740Y19480
T2
X12600Y1400
X13600Y20400
X28500Y13500
X35200Y6800
X34900Y11000
X35100Y16100
X33900Y20606
X35000Y1900
X6900Y6600
X21200Y16700
X18506Y18215
X22000Y18300
X25300Y15600
X22500Y15200
X28500Y12300
X34300Y17100
X30200Y11200
X34000Y12500
X30900Y10400
X34100Y7300
X31000Y9400
X33600Y4800
X25800Y9100
X22600Y12900
X22900Y1400
X27400Y17600
X7100Y12100
X12700Y18600
X32400Y4900
X33300Y15700
X24200Y16900
M30