G04 EAGLE Gerber RS-274X export*
G75*
%MOMM*%
%FSLAX34Y34*%
%LPD*%
%INSilkscreen Bottom*%
%IPPOS*%
%AMOC8*
5,1,8,0,0,1.08239X$1,22.5*%
G01*
%ADD10C,0.152400*%
%ADD11C,0.050800*%

G36*
X170540Y39272D02*
X170540Y39272D01*
X170592Y39277D01*
X170614Y39291D01*
X170625Y39293D01*
X170633Y39302D01*
X170662Y39320D01*
X171551Y40082D01*
X171552Y40083D01*
X171554Y40085D01*
X172697Y41101D01*
X172700Y41105D01*
X172708Y41111D01*
X173597Y42000D01*
X173600Y42004D01*
X173607Y42011D01*
X174623Y43154D01*
X174639Y43186D01*
X174653Y43202D01*
X174655Y43218D01*
X174679Y43257D01*
X174679Y43270D01*
X174684Y43281D01*
X174677Y43340D01*
X174676Y43398D01*
X174668Y43413D01*
X174667Y43421D01*
X174659Y43431D01*
X174639Y43471D01*
X171053Y48417D01*
X171859Y49798D01*
X171860Y49804D01*
X171867Y49813D01*
X172375Y50829D01*
X172377Y50841D01*
X172391Y50869D01*
X172772Y52139D01*
X172772Y52140D01*
X172773Y52142D01*
X173236Y53766D01*
X179301Y54756D01*
X179360Y54784D01*
X179420Y54810D01*
X179423Y54814D01*
X179428Y54817D01*
X179463Y54872D01*
X179500Y54926D01*
X179501Y54933D01*
X179503Y54936D01*
X179503Y54945D01*
X179513Y55006D01*
X179513Y60594D01*
X179495Y60657D01*
X179479Y60721D01*
X179476Y60724D01*
X179474Y60729D01*
X179425Y60773D01*
X179378Y60818D01*
X179371Y60820D01*
X179369Y60823D01*
X179360Y60824D01*
X179301Y60844D01*
X173215Y61838D01*
X172896Y62583D01*
X172519Y63963D01*
X172513Y63973D01*
X172505Y64002D01*
X171743Y65653D01*
X171737Y65660D01*
X171730Y65677D01*
X171052Y66808D01*
X174516Y71881D01*
X174536Y71940D01*
X174559Y71999D01*
X174557Y72007D01*
X174560Y72015D01*
X174545Y72076D01*
X174534Y72137D01*
X174527Y72146D01*
X174526Y72152D01*
X174517Y72160D01*
X174486Y72203D01*
X173857Y72833D01*
X172845Y73970D01*
X172841Y73973D01*
X172835Y73981D01*
X171565Y75251D01*
X171556Y75256D01*
X171541Y75272D01*
X170398Y76161D01*
X170351Y76180D01*
X170308Y76206D01*
X170287Y76205D01*
X170268Y76213D01*
X170218Y76204D01*
X170167Y76203D01*
X170141Y76189D01*
X170129Y76187D01*
X170120Y76179D01*
X170094Y76166D01*
X165147Y72579D01*
X163511Y73514D01*
X163500Y73516D01*
X163479Y73529D01*
X162209Y74037D01*
X162204Y74038D01*
X162195Y74042D01*
X160435Y74629D01*
X159444Y80575D01*
X159421Y80622D01*
X159405Y80673D01*
X159391Y80685D01*
X159383Y80702D01*
X159338Y80730D01*
X159298Y80764D01*
X159273Y80771D01*
X159263Y80777D01*
X159251Y80776D01*
X159219Y80785D01*
X157949Y80912D01*
X157941Y80911D01*
X157924Y80913D01*
X155003Y80913D01*
X154996Y80911D01*
X154982Y80912D01*
X153458Y80785D01*
X153408Y80766D01*
X153357Y80755D01*
X153344Y80742D01*
X153326Y80735D01*
X153295Y80693D01*
X153257Y80655D01*
X153249Y80631D01*
X153242Y80622D01*
X153241Y80610D01*
X153230Y80579D01*
X152117Y74521D01*
X151138Y74303D01*
X151127Y74297D01*
X151090Y74287D01*
X148804Y73271D01*
X148798Y73267D01*
X148784Y73261D01*
X147780Y72704D01*
X142703Y76295D01*
X142661Y76309D01*
X142624Y76332D01*
X142596Y76332D01*
X142570Y76341D01*
X142527Y76331D01*
X142483Y76330D01*
X142445Y76312D01*
X142433Y76309D01*
X142427Y76302D01*
X142410Y76294D01*
X141521Y75659D01*
X141516Y75653D01*
X141501Y75644D01*
X140485Y74755D01*
X140482Y74750D01*
X140473Y74743D01*
X139203Y73473D01*
X139199Y73465D01*
X139184Y73452D01*
X138168Y72182D01*
X138148Y72134D01*
X138121Y72090D01*
X138122Y72070D01*
X138114Y72052D01*
X138123Y72001D01*
X138124Y71949D01*
X138136Y71924D01*
X138138Y71913D01*
X138146Y71904D01*
X138160Y71876D01*
X141627Y67048D01*
X141572Y66938D01*
X140687Y65421D01*
X140685Y65412D01*
X140675Y65398D01*
X140040Y64001D01*
X140039Y63991D01*
X140029Y63970D01*
X139566Y62466D01*
X133494Y61351D01*
X133449Y61328D01*
X133400Y61313D01*
X133387Y61297D01*
X133368Y61288D01*
X133342Y61244D01*
X133309Y61206D01*
X133301Y61178D01*
X133295Y61167D01*
X133296Y61156D01*
X133288Y61127D01*
X133161Y59857D01*
X133161Y59856D01*
X133161Y59855D01*
X133034Y58458D01*
X133035Y58450D01*
X133033Y58435D01*
X133033Y55514D01*
X133050Y55453D01*
X133064Y55392D01*
X133070Y55386D01*
X133072Y55379D01*
X133119Y55337D01*
X133164Y55292D01*
X133173Y55289D01*
X133177Y55285D01*
X133188Y55283D01*
X133240Y55265D01*
X139303Y54151D01*
X139771Y52278D01*
X139775Y52272D01*
X139777Y52259D01*
X140285Y50735D01*
X140292Y50724D01*
X140306Y50687D01*
X141114Y49302D01*
X137523Y44101D01*
X137507Y44055D01*
X137484Y44013D01*
X137485Y43990D01*
X137478Y43967D01*
X137489Y43921D01*
X137492Y43873D01*
X137509Y43843D01*
X137512Y43830D01*
X137519Y43823D01*
X137531Y43802D01*
X138420Y42659D01*
X138425Y42655D01*
X138431Y42646D01*
X139447Y41503D01*
X139451Y41500D01*
X139457Y41492D01*
X140346Y40603D01*
X140351Y40600D01*
X140358Y40591D01*
X141374Y39702D01*
X141425Y39679D01*
X141472Y39649D01*
X141488Y39649D01*
X141502Y39643D01*
X141557Y39650D01*
X141613Y39650D01*
X141632Y39659D01*
X141642Y39661D01*
X141652Y39669D01*
X141686Y39686D01*
X146624Y43142D01*
X148005Y42222D01*
X148017Y42218D01*
X148048Y42199D01*
X149572Y41564D01*
X149589Y41562D01*
X149605Y41553D01*
X149658Y41554D01*
X149712Y41548D01*
X149728Y41556D01*
X149745Y41557D01*
X149790Y41586D01*
X149838Y41610D01*
X149848Y41625D01*
X149863Y41635D01*
X149904Y41704D01*
X153841Y51610D01*
X153847Y51674D01*
X153857Y51737D01*
X153854Y51743D01*
X153855Y51751D01*
X153826Y51808D01*
X153801Y51866D01*
X153794Y51872D01*
X153791Y51877D01*
X153782Y51882D01*
X153740Y51919D01*
X152597Y52628D01*
X151642Y53537D01*
X150892Y54622D01*
X150379Y55837D01*
X150125Y57131D01*
X150139Y58449D01*
X150423Y59737D01*
X150963Y60940D01*
X151737Y62007D01*
X152712Y62895D01*
X153848Y63565D01*
X155096Y63989D01*
X156404Y64149D01*
X157757Y64030D01*
X159052Y63623D01*
X160229Y62949D01*
X161235Y62038D01*
X162023Y60933D01*
X162556Y59685D01*
X162809Y58352D01*
X162771Y56995D01*
X162444Y55678D01*
X161842Y54462D01*
X160993Y53403D01*
X159938Y52550D01*
X158700Y51930D01*
X158649Y51883D01*
X158597Y51836D01*
X158597Y51835D01*
X158596Y51835D01*
X158578Y51767D01*
X158560Y51700D01*
X158560Y51699D01*
X158560Y51697D01*
X158574Y51620D01*
X162130Y41460D01*
X162150Y41433D01*
X162160Y41401D01*
X162190Y41377D01*
X162212Y41346D01*
X162243Y41333D01*
X162269Y41311D01*
X162307Y41307D01*
X162342Y41292D01*
X162375Y41298D01*
X162409Y41294D01*
X162475Y41316D01*
X162481Y41317D01*
X162482Y41318D01*
X162486Y41319D01*
X165273Y42773D01*
X170354Y39303D01*
X170405Y39286D01*
X170452Y39263D01*
X170471Y39265D01*
X170488Y39259D01*
X170540Y39272D01*
G37*
D10*
X365238Y130762D02*
X365238Y147018D01*
X360722Y147018D01*
X360591Y147016D01*
X360459Y147010D01*
X360328Y147001D01*
X360198Y146987D01*
X360067Y146970D01*
X359938Y146949D01*
X359809Y146925D01*
X359681Y146896D01*
X359553Y146864D01*
X359427Y146828D01*
X359302Y146789D01*
X359177Y146746D01*
X359055Y146699D01*
X358933Y146649D01*
X358813Y146595D01*
X358695Y146538D01*
X358579Y146477D01*
X358464Y146413D01*
X358351Y146346D01*
X358240Y146275D01*
X358132Y146201D01*
X358025Y146124D01*
X357921Y146044D01*
X357819Y145961D01*
X357720Y145876D01*
X357623Y145787D01*
X357529Y145695D01*
X357437Y145601D01*
X357348Y145504D01*
X357263Y145405D01*
X357180Y145303D01*
X357100Y145199D01*
X357023Y145092D01*
X356949Y144984D01*
X356878Y144873D01*
X356811Y144760D01*
X356747Y144645D01*
X356686Y144529D01*
X356629Y144411D01*
X356575Y144291D01*
X356525Y144169D01*
X356478Y144047D01*
X356435Y143922D01*
X356396Y143797D01*
X356360Y143671D01*
X356328Y143543D01*
X356299Y143415D01*
X356275Y143286D01*
X356254Y143157D01*
X356237Y143026D01*
X356223Y142896D01*
X356214Y142765D01*
X356208Y142633D01*
X356206Y142502D01*
X356207Y142502D02*
X356207Y135278D01*
X356206Y135278D02*
X356208Y135147D01*
X356214Y135015D01*
X356223Y134884D01*
X356237Y134754D01*
X356254Y134623D01*
X356275Y134494D01*
X356299Y134365D01*
X356328Y134237D01*
X356360Y134109D01*
X356396Y133983D01*
X356435Y133858D01*
X356478Y133733D01*
X356525Y133611D01*
X356575Y133489D01*
X356629Y133369D01*
X356686Y133251D01*
X356747Y133135D01*
X356811Y133020D01*
X356878Y132907D01*
X356949Y132796D01*
X357023Y132688D01*
X357100Y132581D01*
X357180Y132477D01*
X357263Y132375D01*
X357348Y132276D01*
X357437Y132179D01*
X357529Y132085D01*
X357623Y131993D01*
X357720Y131904D01*
X357819Y131819D01*
X357921Y131736D01*
X358025Y131656D01*
X358132Y131579D01*
X358240Y131505D01*
X358351Y131434D01*
X358464Y131367D01*
X358579Y131303D01*
X358695Y131242D01*
X358813Y131185D01*
X358933Y131131D01*
X359055Y131081D01*
X359177Y131034D01*
X359302Y130991D01*
X359427Y130952D01*
X359553Y130916D01*
X359681Y130884D01*
X359809Y130855D01*
X359938Y130831D01*
X360067Y130810D01*
X360198Y130793D01*
X360328Y130779D01*
X360459Y130770D01*
X360591Y130764D01*
X360722Y130762D01*
X365238Y130762D01*
X349260Y130762D02*
X349260Y141599D01*
X349711Y146115D02*
X349711Y147018D01*
X348808Y147018D01*
X348808Y146115D01*
X349711Y146115D01*
X341618Y137084D02*
X337102Y135278D01*
X341618Y137084D02*
X341706Y137121D01*
X341792Y137162D01*
X341877Y137206D01*
X341960Y137254D01*
X342040Y137305D01*
X342119Y137359D01*
X342195Y137417D01*
X342269Y137477D01*
X342341Y137541D01*
X342409Y137607D01*
X342475Y137677D01*
X342538Y137748D01*
X342599Y137823D01*
X342656Y137899D01*
X342709Y137978D01*
X342760Y138059D01*
X342807Y138142D01*
X342851Y138227D01*
X342891Y138314D01*
X342928Y138402D01*
X342961Y138492D01*
X342991Y138583D01*
X343016Y138675D01*
X343038Y138768D01*
X343056Y138862D01*
X343071Y138956D01*
X343081Y139051D01*
X343087Y139147D01*
X343090Y139242D01*
X343089Y139338D01*
X343083Y139433D01*
X343074Y139529D01*
X343061Y139623D01*
X343045Y139717D01*
X343024Y139811D01*
X342999Y139903D01*
X342971Y139994D01*
X342939Y140084D01*
X342904Y140173D01*
X342865Y140260D01*
X342822Y140346D01*
X342776Y140430D01*
X342726Y140511D01*
X342674Y140591D01*
X342618Y140669D01*
X342558Y140744D01*
X342496Y140816D01*
X342431Y140886D01*
X342363Y140954D01*
X342293Y141018D01*
X342220Y141080D01*
X342144Y141138D01*
X342066Y141194D01*
X341986Y141246D01*
X341904Y141295D01*
X341820Y141340D01*
X341734Y141382D01*
X341647Y141421D01*
X341558Y141456D01*
X341467Y141487D01*
X341376Y141514D01*
X341283Y141538D01*
X341190Y141558D01*
X341096Y141574D01*
X341001Y141586D01*
X340906Y141595D01*
X340810Y141599D01*
X340715Y141600D01*
X340468Y141593D01*
X340222Y141581D01*
X339976Y141563D01*
X339730Y141538D01*
X339486Y141508D01*
X339242Y141472D01*
X338999Y141431D01*
X338757Y141383D01*
X338516Y141329D01*
X338277Y141270D01*
X338039Y141205D01*
X337803Y141134D01*
X337568Y141058D01*
X337335Y140976D01*
X337105Y140888D01*
X336877Y140795D01*
X336650Y140697D01*
X337102Y135277D02*
X337014Y135240D01*
X336928Y135199D01*
X336843Y135155D01*
X336760Y135107D01*
X336680Y135056D01*
X336601Y135002D01*
X336525Y134944D01*
X336451Y134884D01*
X336379Y134820D01*
X336311Y134754D01*
X336245Y134684D01*
X336182Y134613D01*
X336121Y134538D01*
X336064Y134462D01*
X336011Y134383D01*
X335960Y134302D01*
X335913Y134219D01*
X335869Y134134D01*
X335829Y134047D01*
X335792Y133959D01*
X335759Y133869D01*
X335729Y133778D01*
X335704Y133686D01*
X335682Y133593D01*
X335664Y133499D01*
X335649Y133405D01*
X335639Y133310D01*
X335633Y133214D01*
X335630Y133119D01*
X335631Y133023D01*
X335637Y132928D01*
X335646Y132832D01*
X335659Y132738D01*
X335675Y132644D01*
X335696Y132550D01*
X335721Y132458D01*
X335749Y132367D01*
X335781Y132277D01*
X335816Y132188D01*
X335855Y132101D01*
X335898Y132015D01*
X335944Y131931D01*
X335994Y131850D01*
X336046Y131770D01*
X336102Y131692D01*
X336162Y131617D01*
X336224Y131545D01*
X336289Y131475D01*
X336357Y131407D01*
X336427Y131343D01*
X336500Y131281D01*
X336576Y131223D01*
X336654Y131167D01*
X336734Y131115D01*
X336816Y131066D01*
X336900Y131021D01*
X336986Y130979D01*
X337073Y130940D01*
X337162Y130905D01*
X337253Y130874D01*
X337344Y130847D01*
X337437Y130823D01*
X337530Y130803D01*
X337624Y130787D01*
X337719Y130775D01*
X337814Y130766D01*
X337910Y130762D01*
X338005Y130761D01*
X338005Y130762D02*
X338367Y130771D01*
X338729Y130789D01*
X339090Y130816D01*
X339450Y130851D01*
X339810Y130894D01*
X340169Y130946D01*
X340526Y131007D01*
X340881Y131076D01*
X341235Y131153D01*
X341587Y131239D01*
X341937Y131333D01*
X342285Y131436D01*
X342630Y131546D01*
X342972Y131665D01*
X326716Y130762D02*
X322200Y130762D01*
X326716Y130762D02*
X326817Y130764D01*
X326918Y130770D01*
X327019Y130779D01*
X327120Y130792D01*
X327220Y130809D01*
X327319Y130830D01*
X327417Y130854D01*
X327514Y130882D01*
X327611Y130914D01*
X327706Y130949D01*
X327799Y130988D01*
X327891Y131030D01*
X327982Y131076D01*
X328071Y131125D01*
X328157Y131177D01*
X328242Y131233D01*
X328325Y131291D01*
X328405Y131353D01*
X328483Y131418D01*
X328559Y131485D01*
X328632Y131555D01*
X328702Y131628D01*
X328769Y131704D01*
X328834Y131782D01*
X328896Y131862D01*
X328954Y131945D01*
X329010Y132030D01*
X329062Y132116D01*
X329111Y132205D01*
X329157Y132296D01*
X329199Y132388D01*
X329238Y132481D01*
X329273Y132576D01*
X329305Y132673D01*
X329333Y132770D01*
X329357Y132868D01*
X329378Y132967D01*
X329395Y133067D01*
X329408Y133168D01*
X329417Y133269D01*
X329423Y133370D01*
X329425Y133471D01*
X329425Y137987D01*
X329423Y138106D01*
X329417Y138226D01*
X329407Y138345D01*
X329393Y138463D01*
X329376Y138582D01*
X329354Y138699D01*
X329329Y138816D01*
X329299Y138931D01*
X329266Y139046D01*
X329229Y139160D01*
X329189Y139272D01*
X329144Y139383D01*
X329096Y139492D01*
X329045Y139600D01*
X328990Y139706D01*
X328931Y139810D01*
X328869Y139912D01*
X328804Y140012D01*
X328735Y140110D01*
X328663Y140206D01*
X328588Y140299D01*
X328511Y140389D01*
X328430Y140477D01*
X328346Y140562D01*
X328259Y140644D01*
X328170Y140724D01*
X328078Y140800D01*
X327984Y140874D01*
X327887Y140944D01*
X327789Y141011D01*
X327688Y141075D01*
X327584Y141135D01*
X327479Y141192D01*
X327372Y141245D01*
X327264Y141295D01*
X327154Y141341D01*
X327042Y141383D01*
X326929Y141422D01*
X326815Y141457D01*
X326700Y141488D01*
X326583Y141516D01*
X326466Y141539D01*
X326349Y141559D01*
X326230Y141575D01*
X326111Y141587D01*
X325992Y141595D01*
X325873Y141599D01*
X325753Y141599D01*
X325634Y141595D01*
X325515Y141587D01*
X325396Y141575D01*
X325277Y141559D01*
X325160Y141539D01*
X325043Y141516D01*
X324926Y141488D01*
X324811Y141457D01*
X324697Y141422D01*
X324584Y141383D01*
X324472Y141341D01*
X324362Y141295D01*
X324254Y141245D01*
X324147Y141192D01*
X324042Y141135D01*
X323938Y141075D01*
X323837Y141011D01*
X323739Y140944D01*
X323642Y140874D01*
X323548Y140800D01*
X323456Y140724D01*
X323367Y140644D01*
X323280Y140562D01*
X323196Y140477D01*
X323115Y140389D01*
X323038Y140299D01*
X322963Y140206D01*
X322891Y140110D01*
X322822Y140012D01*
X322757Y139912D01*
X322695Y139810D01*
X322636Y139706D01*
X322581Y139600D01*
X322530Y139492D01*
X322482Y139383D01*
X322437Y139272D01*
X322397Y139160D01*
X322360Y139046D01*
X322327Y138931D01*
X322297Y138816D01*
X322272Y138699D01*
X322250Y138582D01*
X322233Y138463D01*
X322219Y138345D01*
X322209Y138226D01*
X322203Y138106D01*
X322201Y137987D01*
X322200Y137987D02*
X322200Y136181D01*
X329425Y136181D01*
X315357Y130762D02*
X315357Y141599D01*
X310842Y141599D01*
X310738Y141597D01*
X310635Y141591D01*
X310531Y141581D01*
X310428Y141567D01*
X310326Y141549D01*
X310225Y141528D01*
X310124Y141502D01*
X310025Y141473D01*
X309926Y141440D01*
X309829Y141403D01*
X309734Y141362D01*
X309640Y141318D01*
X309548Y141270D01*
X309458Y141219D01*
X309369Y141164D01*
X309283Y141106D01*
X309200Y141044D01*
X309118Y140980D01*
X309040Y140912D01*
X308964Y140842D01*
X308890Y140769D01*
X308820Y140692D01*
X308752Y140614D01*
X308688Y140532D01*
X308626Y140449D01*
X308568Y140363D01*
X308513Y140274D01*
X308462Y140184D01*
X308414Y140092D01*
X308370Y139998D01*
X308329Y139903D01*
X308292Y139806D01*
X308259Y139707D01*
X308230Y139608D01*
X308204Y139507D01*
X308183Y139406D01*
X308165Y139304D01*
X308151Y139201D01*
X308141Y139097D01*
X308135Y138994D01*
X308133Y138890D01*
X308132Y138890D02*
X308132Y130762D01*
X315357Y145663D02*
X315355Y145746D01*
X315349Y145830D01*
X315340Y145913D01*
X315326Y145995D01*
X315309Y146076D01*
X315288Y146157D01*
X315263Y146237D01*
X315235Y146315D01*
X315203Y146392D01*
X315168Y146468D01*
X315129Y146542D01*
X315086Y146614D01*
X315041Y146684D01*
X314992Y146751D01*
X314940Y146817D01*
X314886Y146880D01*
X314828Y146940D01*
X314768Y146998D01*
X314705Y147052D01*
X314639Y147104D01*
X314572Y147153D01*
X314502Y147198D01*
X314430Y147241D01*
X314356Y147280D01*
X314280Y147315D01*
X314203Y147347D01*
X314125Y147375D01*
X314045Y147400D01*
X313964Y147421D01*
X313883Y147438D01*
X313801Y147452D01*
X313718Y147461D01*
X313634Y147467D01*
X313551Y147469D01*
X313551Y147470D02*
X313476Y147468D01*
X313401Y147462D01*
X313327Y147453D01*
X313253Y147439D01*
X313180Y147422D01*
X313108Y147401D01*
X313037Y147377D01*
X312967Y147349D01*
X312899Y147317D01*
X312833Y147282D01*
X312768Y147244D01*
X312706Y147202D01*
X312646Y147157D01*
X312588Y147110D01*
X312532Y147059D01*
X312480Y147006D01*
X312430Y146950D01*
X312383Y146891D01*
X312339Y146830D01*
X312298Y146767D01*
X312261Y146702D01*
X312227Y146635D01*
X312196Y146567D01*
X312196Y146566D02*
X312165Y146498D01*
X312131Y146431D01*
X312094Y146366D01*
X312053Y146303D01*
X312009Y146242D01*
X311962Y146184D01*
X311912Y146127D01*
X311860Y146074D01*
X311804Y146023D01*
X311747Y145976D01*
X311686Y145931D01*
X311624Y145889D01*
X311559Y145851D01*
X311493Y145816D01*
X311425Y145784D01*
X311355Y145756D01*
X311284Y145732D01*
X311212Y145711D01*
X311139Y145694D01*
X311065Y145680D01*
X310991Y145671D01*
X310916Y145665D01*
X310841Y145663D01*
X310758Y145665D01*
X310674Y145671D01*
X310592Y145680D01*
X310509Y145694D01*
X310428Y145711D01*
X310347Y145732D01*
X310267Y145757D01*
X310189Y145785D01*
X310112Y145817D01*
X310036Y145852D01*
X309962Y145891D01*
X309890Y145933D01*
X309820Y145979D01*
X309753Y146028D01*
X309687Y146080D01*
X309624Y146134D01*
X309564Y146192D01*
X309506Y146252D01*
X309452Y146315D01*
X309400Y146381D01*
X309351Y146448D01*
X309305Y146518D01*
X309263Y146590D01*
X309224Y146664D01*
X309189Y146740D01*
X309157Y146817D01*
X309129Y146895D01*
X309104Y146975D01*
X309083Y147056D01*
X309066Y147137D01*
X309052Y147220D01*
X309043Y147302D01*
X309037Y147386D01*
X309035Y147469D01*
X298201Y137084D02*
X294137Y137084D01*
X298201Y137084D02*
X298313Y137082D01*
X298424Y137076D01*
X298535Y137066D01*
X298646Y137053D01*
X298756Y137035D01*
X298865Y137013D01*
X298974Y136988D01*
X299082Y136959D01*
X299188Y136926D01*
X299294Y136889D01*
X299398Y136849D01*
X299500Y136805D01*
X299601Y136757D01*
X299700Y136706D01*
X299798Y136651D01*
X299893Y136593D01*
X299986Y136532D01*
X300077Y136467D01*
X300166Y136399D01*
X300252Y136328D01*
X300335Y136255D01*
X300416Y136178D01*
X300495Y136098D01*
X300570Y136016D01*
X300642Y135931D01*
X300712Y135844D01*
X300778Y135754D01*
X300841Y135662D01*
X300901Y135567D01*
X300957Y135471D01*
X301010Y135373D01*
X301059Y135273D01*
X301105Y135171D01*
X301147Y135068D01*
X301186Y134963D01*
X301221Y134857D01*
X301252Y134750D01*
X301279Y134642D01*
X301303Y134533D01*
X301322Y134423D01*
X301338Y134313D01*
X301350Y134202D01*
X301358Y134090D01*
X301362Y133979D01*
X301362Y133867D01*
X301358Y133756D01*
X301350Y133644D01*
X301338Y133533D01*
X301322Y133423D01*
X301303Y133313D01*
X301279Y133204D01*
X301252Y133096D01*
X301221Y132989D01*
X301186Y132883D01*
X301147Y132778D01*
X301105Y132675D01*
X301059Y132573D01*
X301010Y132473D01*
X300957Y132375D01*
X300901Y132279D01*
X300841Y132184D01*
X300778Y132092D01*
X300712Y132002D01*
X300642Y131915D01*
X300570Y131830D01*
X300495Y131748D01*
X300416Y131668D01*
X300335Y131591D01*
X300252Y131518D01*
X300166Y131447D01*
X300077Y131379D01*
X299986Y131314D01*
X299893Y131253D01*
X299798Y131195D01*
X299700Y131140D01*
X299601Y131089D01*
X299500Y131041D01*
X299398Y130997D01*
X299294Y130957D01*
X299188Y130920D01*
X299082Y130887D01*
X298974Y130858D01*
X298865Y130833D01*
X298756Y130811D01*
X298646Y130793D01*
X298535Y130780D01*
X298424Y130770D01*
X298313Y130764D01*
X298201Y130762D01*
X294137Y130762D01*
X294137Y138890D01*
X294138Y138890D02*
X294140Y138991D01*
X294146Y139092D01*
X294155Y139193D01*
X294168Y139294D01*
X294185Y139394D01*
X294206Y139493D01*
X294230Y139591D01*
X294258Y139688D01*
X294290Y139785D01*
X294325Y139880D01*
X294364Y139973D01*
X294406Y140065D01*
X294452Y140156D01*
X294501Y140245D01*
X294553Y140331D01*
X294609Y140416D01*
X294667Y140499D01*
X294729Y140579D01*
X294794Y140657D01*
X294861Y140733D01*
X294931Y140806D01*
X295004Y140876D01*
X295080Y140943D01*
X295158Y141008D01*
X295238Y141070D01*
X295321Y141128D01*
X295406Y141184D01*
X295493Y141236D01*
X295581Y141285D01*
X295672Y141331D01*
X295764Y141373D01*
X295857Y141412D01*
X295952Y141447D01*
X296049Y141479D01*
X296146Y141507D01*
X296244Y141531D01*
X296343Y141552D01*
X296443Y141569D01*
X296544Y141582D01*
X296645Y141591D01*
X296746Y141597D01*
X296847Y141599D01*
X300459Y141599D01*
X280069Y147018D02*
X280069Y130762D01*
X284585Y130762D01*
X284686Y130764D01*
X284787Y130770D01*
X284888Y130779D01*
X284989Y130792D01*
X285089Y130809D01*
X285188Y130830D01*
X285286Y130854D01*
X285383Y130882D01*
X285480Y130914D01*
X285575Y130949D01*
X285668Y130988D01*
X285760Y131030D01*
X285851Y131076D01*
X285940Y131125D01*
X286026Y131177D01*
X286111Y131233D01*
X286194Y131291D01*
X286274Y131353D01*
X286352Y131418D01*
X286428Y131485D01*
X286501Y131555D01*
X286571Y131628D01*
X286638Y131704D01*
X286703Y131782D01*
X286765Y131862D01*
X286823Y131945D01*
X286879Y132030D01*
X286931Y132116D01*
X286980Y132205D01*
X287026Y132296D01*
X287068Y132388D01*
X287107Y132481D01*
X287142Y132576D01*
X287174Y132673D01*
X287202Y132770D01*
X287226Y132868D01*
X287247Y132967D01*
X287264Y133067D01*
X287277Y133168D01*
X287286Y133269D01*
X287292Y133370D01*
X287294Y133471D01*
X287294Y138890D01*
X287292Y138991D01*
X287286Y139092D01*
X287277Y139193D01*
X287264Y139294D01*
X287247Y139394D01*
X287226Y139493D01*
X287202Y139591D01*
X287174Y139688D01*
X287142Y139785D01*
X287107Y139880D01*
X287068Y139973D01*
X287026Y140065D01*
X286980Y140156D01*
X286931Y140245D01*
X286879Y140331D01*
X286823Y140416D01*
X286765Y140499D01*
X286703Y140579D01*
X286638Y140657D01*
X286571Y140733D01*
X286501Y140806D01*
X286428Y140876D01*
X286352Y140943D01*
X286274Y141008D01*
X286194Y141070D01*
X286111Y141128D01*
X286026Y141184D01*
X285940Y141236D01*
X285851Y141285D01*
X285760Y141331D01*
X285668Y141373D01*
X285575Y141412D01*
X285480Y141447D01*
X285383Y141479D01*
X285286Y141507D01*
X285188Y141531D01*
X285089Y141552D01*
X284989Y141569D01*
X284888Y141582D01*
X284787Y141591D01*
X284686Y141597D01*
X284585Y141599D01*
X280069Y141599D01*
X273153Y137987D02*
X273153Y134374D01*
X273152Y137987D02*
X273150Y138106D01*
X273144Y138226D01*
X273134Y138345D01*
X273120Y138463D01*
X273103Y138582D01*
X273081Y138699D01*
X273056Y138816D01*
X273026Y138931D01*
X272993Y139046D01*
X272956Y139160D01*
X272916Y139272D01*
X272871Y139383D01*
X272823Y139492D01*
X272772Y139600D01*
X272717Y139706D01*
X272658Y139810D01*
X272596Y139912D01*
X272531Y140012D01*
X272462Y140110D01*
X272390Y140206D01*
X272315Y140299D01*
X272238Y140389D01*
X272157Y140477D01*
X272073Y140562D01*
X271986Y140644D01*
X271897Y140724D01*
X271805Y140800D01*
X271711Y140874D01*
X271614Y140944D01*
X271516Y141011D01*
X271415Y141075D01*
X271311Y141135D01*
X271206Y141192D01*
X271099Y141245D01*
X270991Y141295D01*
X270881Y141341D01*
X270769Y141383D01*
X270656Y141422D01*
X270542Y141457D01*
X270427Y141488D01*
X270310Y141516D01*
X270193Y141539D01*
X270076Y141559D01*
X269957Y141575D01*
X269838Y141587D01*
X269719Y141595D01*
X269600Y141599D01*
X269480Y141599D01*
X269361Y141595D01*
X269242Y141587D01*
X269123Y141575D01*
X269004Y141559D01*
X268887Y141539D01*
X268770Y141516D01*
X268653Y141488D01*
X268538Y141457D01*
X268424Y141422D01*
X268311Y141383D01*
X268199Y141341D01*
X268089Y141295D01*
X267981Y141245D01*
X267874Y141192D01*
X267769Y141135D01*
X267665Y141075D01*
X267564Y141011D01*
X267466Y140944D01*
X267369Y140874D01*
X267275Y140800D01*
X267183Y140724D01*
X267094Y140644D01*
X267007Y140562D01*
X266923Y140477D01*
X266842Y140389D01*
X266765Y140299D01*
X266690Y140206D01*
X266618Y140110D01*
X266549Y140012D01*
X266484Y139912D01*
X266422Y139810D01*
X266363Y139706D01*
X266308Y139600D01*
X266257Y139492D01*
X266209Y139383D01*
X266164Y139272D01*
X266124Y139160D01*
X266087Y139046D01*
X266054Y138931D01*
X266024Y138816D01*
X265999Y138699D01*
X265977Y138582D01*
X265960Y138463D01*
X265946Y138345D01*
X265936Y138226D01*
X265930Y138106D01*
X265928Y137987D01*
X265928Y134374D01*
X265930Y134255D01*
X265936Y134135D01*
X265946Y134016D01*
X265960Y133898D01*
X265977Y133779D01*
X265999Y133662D01*
X266024Y133545D01*
X266054Y133430D01*
X266087Y133315D01*
X266124Y133201D01*
X266164Y133089D01*
X266209Y132978D01*
X266257Y132869D01*
X266308Y132761D01*
X266363Y132655D01*
X266422Y132551D01*
X266484Y132449D01*
X266549Y132349D01*
X266618Y132251D01*
X266690Y132155D01*
X266765Y132062D01*
X266842Y131972D01*
X266923Y131884D01*
X267007Y131799D01*
X267094Y131717D01*
X267183Y131637D01*
X267275Y131561D01*
X267369Y131487D01*
X267466Y131417D01*
X267564Y131350D01*
X267665Y131286D01*
X267769Y131226D01*
X267874Y131169D01*
X267981Y131116D01*
X268089Y131066D01*
X268199Y131020D01*
X268311Y130978D01*
X268424Y130939D01*
X268538Y130904D01*
X268653Y130873D01*
X268770Y130845D01*
X268887Y130822D01*
X269004Y130802D01*
X269123Y130786D01*
X269242Y130774D01*
X269361Y130766D01*
X269480Y130762D01*
X269600Y130762D01*
X269719Y130766D01*
X269838Y130774D01*
X269957Y130786D01*
X270076Y130802D01*
X270193Y130822D01*
X270310Y130845D01*
X270427Y130873D01*
X270542Y130904D01*
X270656Y130939D01*
X270769Y130978D01*
X270881Y131020D01*
X270991Y131066D01*
X271099Y131116D01*
X271206Y131169D01*
X271311Y131226D01*
X271415Y131286D01*
X271516Y131350D01*
X271614Y131417D01*
X271711Y131487D01*
X271805Y131561D01*
X271897Y131637D01*
X271986Y131717D01*
X272073Y131799D01*
X272157Y131884D01*
X272238Y131972D01*
X272315Y132062D01*
X272390Y132155D01*
X272462Y132251D01*
X272531Y132349D01*
X272596Y132449D01*
X272658Y132551D01*
X272717Y132655D01*
X272772Y132761D01*
X272823Y132869D01*
X272871Y132978D01*
X272916Y133089D01*
X272956Y133201D01*
X272993Y133315D01*
X273026Y133430D01*
X273056Y133545D01*
X273081Y133662D01*
X273103Y133779D01*
X273120Y133898D01*
X273134Y134016D01*
X273144Y134135D01*
X273150Y134255D01*
X273152Y134374D01*
X251790Y125343D02*
X249984Y125343D01*
X244565Y141599D01*
X251790Y141599D02*
X248178Y130762D01*
X227701Y130762D02*
X224088Y130762D01*
X227701Y130762D02*
X227802Y130764D01*
X227903Y130770D01*
X228004Y130779D01*
X228105Y130792D01*
X228205Y130809D01*
X228304Y130830D01*
X228402Y130854D01*
X228499Y130882D01*
X228596Y130914D01*
X228691Y130949D01*
X228784Y130988D01*
X228876Y131030D01*
X228967Y131076D01*
X229056Y131125D01*
X229142Y131177D01*
X229227Y131233D01*
X229310Y131291D01*
X229390Y131353D01*
X229468Y131418D01*
X229544Y131485D01*
X229617Y131555D01*
X229687Y131628D01*
X229754Y131704D01*
X229819Y131782D01*
X229881Y131862D01*
X229939Y131945D01*
X229995Y132030D01*
X230047Y132116D01*
X230096Y132205D01*
X230142Y132296D01*
X230184Y132388D01*
X230223Y132481D01*
X230258Y132576D01*
X230290Y132673D01*
X230318Y132770D01*
X230342Y132868D01*
X230363Y132967D01*
X230380Y133067D01*
X230393Y133168D01*
X230402Y133269D01*
X230408Y133370D01*
X230410Y133471D01*
X230410Y138890D01*
X230408Y138991D01*
X230402Y139092D01*
X230393Y139193D01*
X230380Y139294D01*
X230363Y139394D01*
X230342Y139493D01*
X230318Y139591D01*
X230290Y139688D01*
X230258Y139785D01*
X230223Y139880D01*
X230184Y139973D01*
X230142Y140065D01*
X230096Y140156D01*
X230047Y140245D01*
X229995Y140331D01*
X229939Y140416D01*
X229881Y140499D01*
X229819Y140579D01*
X229754Y140657D01*
X229687Y140733D01*
X229617Y140806D01*
X229544Y140876D01*
X229468Y140943D01*
X229390Y141008D01*
X229310Y141070D01*
X229227Y141128D01*
X229142Y141184D01*
X229056Y141236D01*
X228967Y141285D01*
X228876Y141331D01*
X228784Y141373D01*
X228691Y141412D01*
X228596Y141447D01*
X228499Y141479D01*
X228402Y141507D01*
X228304Y141531D01*
X228205Y141552D01*
X228105Y141569D01*
X228004Y141582D01*
X227903Y141591D01*
X227802Y141597D01*
X227701Y141599D01*
X224088Y141599D01*
X218444Y137987D02*
X218444Y134374D01*
X218443Y137987D02*
X218441Y138106D01*
X218435Y138226D01*
X218425Y138345D01*
X218411Y138463D01*
X218394Y138582D01*
X218372Y138699D01*
X218347Y138816D01*
X218317Y138931D01*
X218284Y139046D01*
X218247Y139160D01*
X218207Y139272D01*
X218162Y139383D01*
X218114Y139492D01*
X218063Y139600D01*
X218008Y139706D01*
X217949Y139810D01*
X217887Y139912D01*
X217822Y140012D01*
X217753Y140110D01*
X217681Y140206D01*
X217606Y140299D01*
X217529Y140389D01*
X217448Y140477D01*
X217364Y140562D01*
X217277Y140644D01*
X217188Y140724D01*
X217096Y140800D01*
X217002Y140874D01*
X216905Y140944D01*
X216807Y141011D01*
X216706Y141075D01*
X216602Y141135D01*
X216497Y141192D01*
X216390Y141245D01*
X216282Y141295D01*
X216172Y141341D01*
X216060Y141383D01*
X215947Y141422D01*
X215833Y141457D01*
X215718Y141488D01*
X215601Y141516D01*
X215484Y141539D01*
X215367Y141559D01*
X215248Y141575D01*
X215129Y141587D01*
X215010Y141595D01*
X214891Y141599D01*
X214771Y141599D01*
X214652Y141595D01*
X214533Y141587D01*
X214414Y141575D01*
X214295Y141559D01*
X214178Y141539D01*
X214061Y141516D01*
X213944Y141488D01*
X213829Y141457D01*
X213715Y141422D01*
X213602Y141383D01*
X213490Y141341D01*
X213380Y141295D01*
X213272Y141245D01*
X213165Y141192D01*
X213060Y141135D01*
X212956Y141075D01*
X212855Y141011D01*
X212757Y140944D01*
X212660Y140874D01*
X212566Y140800D01*
X212474Y140724D01*
X212385Y140644D01*
X212298Y140562D01*
X212214Y140477D01*
X212133Y140389D01*
X212056Y140299D01*
X211981Y140206D01*
X211909Y140110D01*
X211840Y140012D01*
X211775Y139912D01*
X211713Y139810D01*
X211654Y139706D01*
X211599Y139600D01*
X211548Y139492D01*
X211500Y139383D01*
X211455Y139272D01*
X211415Y139160D01*
X211378Y139046D01*
X211345Y138931D01*
X211315Y138816D01*
X211290Y138699D01*
X211268Y138582D01*
X211251Y138463D01*
X211237Y138345D01*
X211227Y138226D01*
X211221Y138106D01*
X211219Y137987D01*
X211219Y134374D01*
X211221Y134255D01*
X211227Y134135D01*
X211237Y134016D01*
X211251Y133898D01*
X211268Y133779D01*
X211290Y133662D01*
X211315Y133545D01*
X211345Y133430D01*
X211378Y133315D01*
X211415Y133201D01*
X211455Y133089D01*
X211500Y132978D01*
X211548Y132869D01*
X211599Y132761D01*
X211654Y132655D01*
X211713Y132551D01*
X211775Y132449D01*
X211840Y132349D01*
X211909Y132251D01*
X211981Y132155D01*
X212056Y132062D01*
X212133Y131972D01*
X212214Y131884D01*
X212298Y131799D01*
X212385Y131717D01*
X212474Y131637D01*
X212566Y131561D01*
X212660Y131487D01*
X212757Y131417D01*
X212855Y131350D01*
X212956Y131286D01*
X213060Y131226D01*
X213165Y131169D01*
X213272Y131116D01*
X213380Y131066D01*
X213490Y131020D01*
X213602Y130978D01*
X213715Y130939D01*
X213829Y130904D01*
X213944Y130873D01*
X214061Y130845D01*
X214178Y130822D01*
X214295Y130802D01*
X214414Y130786D01*
X214533Y130774D01*
X214652Y130766D01*
X214771Y130762D01*
X214891Y130762D01*
X215010Y130766D01*
X215129Y130774D01*
X215248Y130786D01*
X215367Y130802D01*
X215484Y130822D01*
X215601Y130845D01*
X215718Y130873D01*
X215833Y130904D01*
X215947Y130939D01*
X216060Y130978D01*
X216172Y131020D01*
X216282Y131066D01*
X216390Y131116D01*
X216497Y131169D01*
X216602Y131226D01*
X216706Y131286D01*
X216807Y131350D01*
X216905Y131417D01*
X217002Y131487D01*
X217096Y131561D01*
X217188Y131637D01*
X217277Y131717D01*
X217364Y131799D01*
X217448Y131884D01*
X217529Y131972D01*
X217606Y132062D01*
X217681Y132155D01*
X217753Y132251D01*
X217822Y132349D01*
X217887Y132449D01*
X217949Y132551D01*
X218008Y132655D01*
X218063Y132761D01*
X218114Y132869D01*
X218162Y132978D01*
X218207Y133089D01*
X218247Y133201D01*
X218284Y133315D01*
X218317Y133430D01*
X218347Y133545D01*
X218372Y133662D01*
X218394Y133779D01*
X218411Y133898D01*
X218425Y134016D01*
X218435Y134135D01*
X218441Y134255D01*
X218443Y134374D01*
X204375Y130762D02*
X204375Y141599D01*
X199860Y141599D01*
X199756Y141597D01*
X199653Y141591D01*
X199549Y141581D01*
X199446Y141567D01*
X199344Y141549D01*
X199243Y141528D01*
X199142Y141502D01*
X199043Y141473D01*
X198944Y141440D01*
X198847Y141403D01*
X198752Y141362D01*
X198658Y141318D01*
X198566Y141270D01*
X198476Y141219D01*
X198387Y141164D01*
X198301Y141106D01*
X198218Y141044D01*
X198136Y140980D01*
X198058Y140912D01*
X197982Y140842D01*
X197908Y140769D01*
X197838Y140692D01*
X197770Y140614D01*
X197706Y140532D01*
X197644Y140449D01*
X197586Y140363D01*
X197531Y140274D01*
X197480Y140184D01*
X197432Y140092D01*
X197388Y139998D01*
X197347Y139903D01*
X197310Y139806D01*
X197277Y139707D01*
X197248Y139608D01*
X197222Y139507D01*
X197201Y139406D01*
X197183Y139304D01*
X197169Y139201D01*
X197159Y139097D01*
X197153Y138994D01*
X197151Y138890D01*
X197151Y130762D01*
X188953Y137084D02*
X184437Y135278D01*
X188953Y137084D02*
X189041Y137121D01*
X189127Y137162D01*
X189212Y137206D01*
X189295Y137254D01*
X189375Y137305D01*
X189454Y137359D01*
X189530Y137417D01*
X189604Y137477D01*
X189676Y137541D01*
X189744Y137607D01*
X189810Y137677D01*
X189873Y137748D01*
X189934Y137823D01*
X189991Y137899D01*
X190044Y137978D01*
X190095Y138059D01*
X190142Y138142D01*
X190186Y138227D01*
X190226Y138314D01*
X190263Y138402D01*
X190296Y138492D01*
X190326Y138583D01*
X190351Y138675D01*
X190373Y138768D01*
X190391Y138862D01*
X190406Y138956D01*
X190416Y139051D01*
X190422Y139147D01*
X190425Y139242D01*
X190424Y139338D01*
X190418Y139433D01*
X190409Y139529D01*
X190396Y139623D01*
X190380Y139717D01*
X190359Y139811D01*
X190334Y139903D01*
X190306Y139994D01*
X190274Y140084D01*
X190239Y140173D01*
X190200Y140260D01*
X190157Y140346D01*
X190111Y140430D01*
X190061Y140511D01*
X190009Y140591D01*
X189953Y140669D01*
X189893Y140744D01*
X189831Y140816D01*
X189766Y140886D01*
X189698Y140954D01*
X189628Y141018D01*
X189555Y141080D01*
X189479Y141138D01*
X189401Y141194D01*
X189321Y141246D01*
X189239Y141295D01*
X189155Y141340D01*
X189069Y141382D01*
X188982Y141421D01*
X188893Y141456D01*
X188802Y141487D01*
X188711Y141514D01*
X188618Y141538D01*
X188525Y141558D01*
X188431Y141574D01*
X188336Y141586D01*
X188241Y141595D01*
X188145Y141599D01*
X188050Y141600D01*
X187803Y141593D01*
X187557Y141581D01*
X187311Y141563D01*
X187065Y141538D01*
X186821Y141508D01*
X186577Y141472D01*
X186334Y141431D01*
X186092Y141383D01*
X185851Y141329D01*
X185612Y141270D01*
X185374Y141205D01*
X185138Y141134D01*
X184903Y141058D01*
X184670Y140976D01*
X184440Y140888D01*
X184212Y140795D01*
X183985Y140697D01*
X184437Y135277D02*
X184349Y135240D01*
X184263Y135199D01*
X184178Y135155D01*
X184095Y135107D01*
X184015Y135056D01*
X183936Y135002D01*
X183860Y134944D01*
X183786Y134884D01*
X183714Y134820D01*
X183646Y134754D01*
X183580Y134684D01*
X183517Y134613D01*
X183456Y134538D01*
X183399Y134462D01*
X183346Y134383D01*
X183295Y134302D01*
X183248Y134219D01*
X183204Y134134D01*
X183164Y134047D01*
X183127Y133959D01*
X183094Y133869D01*
X183064Y133778D01*
X183039Y133686D01*
X183017Y133593D01*
X182999Y133499D01*
X182984Y133405D01*
X182974Y133310D01*
X182968Y133214D01*
X182965Y133119D01*
X182966Y133023D01*
X182972Y132928D01*
X182981Y132832D01*
X182994Y132738D01*
X183010Y132644D01*
X183031Y132550D01*
X183056Y132458D01*
X183084Y132367D01*
X183116Y132277D01*
X183151Y132188D01*
X183190Y132101D01*
X183233Y132015D01*
X183279Y131931D01*
X183329Y131850D01*
X183381Y131770D01*
X183437Y131692D01*
X183497Y131617D01*
X183559Y131545D01*
X183624Y131475D01*
X183692Y131407D01*
X183762Y131343D01*
X183835Y131281D01*
X183911Y131223D01*
X183989Y131167D01*
X184069Y131115D01*
X184151Y131066D01*
X184235Y131021D01*
X184321Y130979D01*
X184408Y130940D01*
X184497Y130905D01*
X184588Y130874D01*
X184679Y130847D01*
X184772Y130823D01*
X184865Y130803D01*
X184959Y130787D01*
X185054Y130775D01*
X185149Y130766D01*
X185245Y130762D01*
X185340Y130761D01*
X185341Y130762D02*
X185703Y130771D01*
X186065Y130789D01*
X186426Y130816D01*
X186786Y130851D01*
X187146Y130894D01*
X187505Y130946D01*
X187862Y131007D01*
X188217Y131076D01*
X188571Y131153D01*
X188923Y131239D01*
X189273Y131333D01*
X189621Y131436D01*
X189966Y131546D01*
X190308Y131665D01*
X178058Y141599D02*
X172639Y141599D01*
X176251Y147018D02*
X176251Y133471D01*
X176249Y133370D01*
X176243Y133269D01*
X176234Y133168D01*
X176221Y133067D01*
X176204Y132967D01*
X176183Y132868D01*
X176159Y132770D01*
X176131Y132673D01*
X176099Y132576D01*
X176064Y132481D01*
X176025Y132388D01*
X175983Y132296D01*
X175937Y132205D01*
X175888Y132116D01*
X175836Y132030D01*
X175780Y131945D01*
X175722Y131862D01*
X175660Y131782D01*
X175595Y131704D01*
X175528Y131628D01*
X175458Y131555D01*
X175385Y131485D01*
X175309Y131418D01*
X175231Y131353D01*
X175151Y131291D01*
X175068Y131233D01*
X174983Y131177D01*
X174897Y131125D01*
X174808Y131076D01*
X174717Y131030D01*
X174625Y130988D01*
X174532Y130949D01*
X174437Y130914D01*
X174340Y130882D01*
X174243Y130854D01*
X174145Y130830D01*
X174046Y130809D01*
X173946Y130792D01*
X173845Y130779D01*
X173744Y130770D01*
X173643Y130764D01*
X173542Y130762D01*
X172639Y130762D01*
X166255Y130762D02*
X166255Y141599D01*
X160836Y141599D01*
X160836Y139793D01*
X155398Y141599D02*
X155398Y133471D01*
X155397Y133471D02*
X155395Y133370D01*
X155389Y133269D01*
X155380Y133168D01*
X155367Y133067D01*
X155350Y132967D01*
X155329Y132868D01*
X155305Y132770D01*
X155277Y132673D01*
X155245Y132576D01*
X155210Y132481D01*
X155171Y132388D01*
X155129Y132296D01*
X155083Y132205D01*
X155034Y132116D01*
X154982Y132030D01*
X154926Y131945D01*
X154868Y131862D01*
X154806Y131782D01*
X154741Y131704D01*
X154674Y131628D01*
X154604Y131555D01*
X154531Y131485D01*
X154455Y131418D01*
X154377Y131353D01*
X154297Y131291D01*
X154214Y131233D01*
X154129Y131177D01*
X154043Y131125D01*
X153954Y131076D01*
X153863Y131030D01*
X153771Y130988D01*
X153678Y130949D01*
X153583Y130914D01*
X153486Y130882D01*
X153389Y130854D01*
X153291Y130830D01*
X153192Y130809D01*
X153092Y130792D01*
X152991Y130779D01*
X152890Y130770D01*
X152789Y130764D01*
X152688Y130762D01*
X148173Y130762D01*
X148173Y141599D01*
X141364Y141599D02*
X141364Y130762D01*
X141816Y146115D02*
X141816Y147018D01*
X140913Y147018D01*
X140913Y146115D01*
X141816Y146115D01*
X127926Y147018D02*
X127926Y130762D01*
X132441Y130762D01*
X132542Y130764D01*
X132643Y130770D01*
X132744Y130779D01*
X132845Y130792D01*
X132945Y130809D01*
X133044Y130830D01*
X133142Y130854D01*
X133239Y130882D01*
X133336Y130914D01*
X133431Y130949D01*
X133524Y130988D01*
X133616Y131030D01*
X133707Y131076D01*
X133796Y131125D01*
X133882Y131177D01*
X133967Y131233D01*
X134050Y131291D01*
X134130Y131353D01*
X134208Y131418D01*
X134284Y131485D01*
X134357Y131555D01*
X134427Y131628D01*
X134494Y131704D01*
X134559Y131782D01*
X134621Y131862D01*
X134679Y131945D01*
X134735Y132030D01*
X134787Y132116D01*
X134836Y132205D01*
X134882Y132296D01*
X134924Y132388D01*
X134963Y132481D01*
X134998Y132576D01*
X135030Y132673D01*
X135058Y132770D01*
X135082Y132868D01*
X135103Y132967D01*
X135120Y133067D01*
X135133Y133168D01*
X135142Y133269D01*
X135148Y133370D01*
X135150Y133471D01*
X135150Y138890D01*
X135148Y138991D01*
X135142Y139092D01*
X135133Y139193D01*
X135120Y139294D01*
X135103Y139394D01*
X135082Y139493D01*
X135058Y139591D01*
X135030Y139688D01*
X134998Y139785D01*
X134963Y139880D01*
X134924Y139973D01*
X134882Y140065D01*
X134836Y140156D01*
X134787Y140245D01*
X134735Y140331D01*
X134679Y140416D01*
X134621Y140499D01*
X134559Y140579D01*
X134494Y140657D01*
X134427Y140733D01*
X134357Y140806D01*
X134284Y140876D01*
X134208Y140943D01*
X134130Y141008D01*
X134050Y141070D01*
X133967Y141128D01*
X133882Y141184D01*
X133796Y141236D01*
X133707Y141285D01*
X133616Y141331D01*
X133524Y141373D01*
X133431Y141412D01*
X133336Y141447D01*
X133239Y141479D01*
X133142Y141507D01*
X133044Y141531D01*
X132945Y141552D01*
X132845Y141569D01*
X132744Y141582D01*
X132643Y141591D01*
X132542Y141597D01*
X132441Y141599D01*
X127926Y141599D01*
X121009Y137987D02*
X121009Y134374D01*
X121009Y137987D02*
X121007Y138106D01*
X121001Y138226D01*
X120991Y138345D01*
X120977Y138463D01*
X120960Y138582D01*
X120938Y138699D01*
X120913Y138816D01*
X120883Y138931D01*
X120850Y139046D01*
X120813Y139160D01*
X120773Y139272D01*
X120728Y139383D01*
X120680Y139492D01*
X120629Y139600D01*
X120574Y139706D01*
X120515Y139810D01*
X120453Y139912D01*
X120388Y140012D01*
X120319Y140110D01*
X120247Y140206D01*
X120172Y140299D01*
X120095Y140389D01*
X120014Y140477D01*
X119930Y140562D01*
X119843Y140644D01*
X119754Y140724D01*
X119662Y140800D01*
X119568Y140874D01*
X119471Y140944D01*
X119373Y141011D01*
X119272Y141075D01*
X119168Y141135D01*
X119063Y141192D01*
X118956Y141245D01*
X118848Y141295D01*
X118738Y141341D01*
X118626Y141383D01*
X118513Y141422D01*
X118399Y141457D01*
X118284Y141488D01*
X118167Y141516D01*
X118050Y141539D01*
X117933Y141559D01*
X117814Y141575D01*
X117695Y141587D01*
X117576Y141595D01*
X117457Y141599D01*
X117337Y141599D01*
X117218Y141595D01*
X117099Y141587D01*
X116980Y141575D01*
X116861Y141559D01*
X116744Y141539D01*
X116627Y141516D01*
X116510Y141488D01*
X116395Y141457D01*
X116281Y141422D01*
X116168Y141383D01*
X116056Y141341D01*
X115946Y141295D01*
X115838Y141245D01*
X115731Y141192D01*
X115626Y141135D01*
X115522Y141075D01*
X115421Y141011D01*
X115323Y140944D01*
X115226Y140874D01*
X115132Y140800D01*
X115040Y140724D01*
X114951Y140644D01*
X114864Y140562D01*
X114780Y140477D01*
X114699Y140389D01*
X114622Y140299D01*
X114547Y140206D01*
X114475Y140110D01*
X114406Y140012D01*
X114341Y139912D01*
X114279Y139810D01*
X114220Y139706D01*
X114165Y139600D01*
X114114Y139492D01*
X114066Y139383D01*
X114021Y139272D01*
X113981Y139160D01*
X113944Y139046D01*
X113911Y138931D01*
X113881Y138816D01*
X113856Y138699D01*
X113834Y138582D01*
X113817Y138463D01*
X113803Y138345D01*
X113793Y138226D01*
X113787Y138106D01*
X113785Y137987D01*
X113784Y137987D02*
X113784Y134374D01*
X113785Y134374D02*
X113787Y134255D01*
X113793Y134135D01*
X113803Y134016D01*
X113817Y133898D01*
X113834Y133779D01*
X113856Y133662D01*
X113881Y133545D01*
X113911Y133430D01*
X113944Y133315D01*
X113981Y133201D01*
X114021Y133089D01*
X114066Y132978D01*
X114114Y132869D01*
X114165Y132761D01*
X114220Y132655D01*
X114279Y132551D01*
X114341Y132449D01*
X114406Y132349D01*
X114475Y132251D01*
X114547Y132155D01*
X114622Y132062D01*
X114699Y131972D01*
X114780Y131884D01*
X114864Y131799D01*
X114951Y131717D01*
X115040Y131637D01*
X115132Y131561D01*
X115226Y131487D01*
X115323Y131417D01*
X115421Y131350D01*
X115522Y131286D01*
X115626Y131226D01*
X115731Y131169D01*
X115838Y131116D01*
X115946Y131066D01*
X116056Y131020D01*
X116168Y130978D01*
X116281Y130939D01*
X116395Y130904D01*
X116510Y130873D01*
X116627Y130845D01*
X116744Y130822D01*
X116861Y130802D01*
X116980Y130786D01*
X117099Y130774D01*
X117218Y130766D01*
X117337Y130762D01*
X117457Y130762D01*
X117576Y130766D01*
X117695Y130774D01*
X117814Y130786D01*
X117933Y130802D01*
X118050Y130822D01*
X118167Y130845D01*
X118284Y130873D01*
X118399Y130904D01*
X118513Y130939D01*
X118626Y130978D01*
X118738Y131020D01*
X118848Y131066D01*
X118956Y131116D01*
X119063Y131169D01*
X119168Y131226D01*
X119272Y131286D01*
X119373Y131350D01*
X119471Y131417D01*
X119568Y131487D01*
X119662Y131561D01*
X119754Y131637D01*
X119843Y131717D01*
X119930Y131799D01*
X120014Y131884D01*
X120095Y131972D01*
X120172Y132062D01*
X120247Y132155D01*
X120319Y132251D01*
X120388Y132349D01*
X120453Y132449D01*
X120515Y132551D01*
X120574Y132655D01*
X120629Y132761D01*
X120680Y132869D01*
X120728Y132978D01*
X120773Y133089D01*
X120813Y133201D01*
X120850Y133315D01*
X120883Y133430D01*
X120913Y133545D01*
X120938Y133662D01*
X120960Y133779D01*
X120977Y133898D01*
X120991Y134016D01*
X121001Y134135D01*
X121007Y134255D01*
X121009Y134374D01*
X96416Y130762D02*
X91900Y130762D01*
X96416Y130762D02*
X96517Y130764D01*
X96618Y130770D01*
X96719Y130779D01*
X96820Y130792D01*
X96920Y130809D01*
X97019Y130830D01*
X97117Y130854D01*
X97214Y130882D01*
X97311Y130914D01*
X97406Y130949D01*
X97499Y130988D01*
X97591Y131030D01*
X97682Y131076D01*
X97770Y131125D01*
X97857Y131177D01*
X97942Y131233D01*
X98025Y131291D01*
X98105Y131353D01*
X98183Y131418D01*
X98259Y131485D01*
X98332Y131555D01*
X98402Y131628D01*
X98469Y131704D01*
X98534Y131782D01*
X98596Y131862D01*
X98654Y131945D01*
X98710Y132030D01*
X98762Y132116D01*
X98811Y132205D01*
X98857Y132296D01*
X98899Y132388D01*
X98938Y132481D01*
X98973Y132576D01*
X99005Y132673D01*
X99033Y132770D01*
X99057Y132868D01*
X99078Y132967D01*
X99095Y133067D01*
X99108Y133168D01*
X99117Y133269D01*
X99123Y133370D01*
X99125Y133471D01*
X99125Y137987D01*
X99123Y138106D01*
X99117Y138226D01*
X99107Y138345D01*
X99093Y138463D01*
X99076Y138582D01*
X99054Y138699D01*
X99029Y138816D01*
X98999Y138931D01*
X98966Y139046D01*
X98929Y139160D01*
X98889Y139272D01*
X98844Y139383D01*
X98796Y139492D01*
X98745Y139600D01*
X98690Y139706D01*
X98631Y139810D01*
X98569Y139912D01*
X98504Y140012D01*
X98435Y140110D01*
X98363Y140206D01*
X98288Y140299D01*
X98211Y140389D01*
X98130Y140477D01*
X98046Y140562D01*
X97959Y140644D01*
X97870Y140724D01*
X97778Y140800D01*
X97684Y140874D01*
X97587Y140944D01*
X97489Y141011D01*
X97388Y141075D01*
X97284Y141135D01*
X97179Y141192D01*
X97072Y141245D01*
X96964Y141295D01*
X96854Y141341D01*
X96742Y141383D01*
X96629Y141422D01*
X96515Y141457D01*
X96400Y141488D01*
X96283Y141516D01*
X96166Y141539D01*
X96049Y141559D01*
X95930Y141575D01*
X95811Y141587D01*
X95692Y141595D01*
X95573Y141599D01*
X95453Y141599D01*
X95334Y141595D01*
X95215Y141587D01*
X95096Y141575D01*
X94977Y141559D01*
X94860Y141539D01*
X94743Y141516D01*
X94626Y141488D01*
X94511Y141457D01*
X94397Y141422D01*
X94284Y141383D01*
X94172Y141341D01*
X94062Y141295D01*
X93954Y141245D01*
X93847Y141192D01*
X93742Y141135D01*
X93638Y141075D01*
X93537Y141011D01*
X93439Y140944D01*
X93342Y140874D01*
X93248Y140800D01*
X93156Y140724D01*
X93067Y140644D01*
X92980Y140562D01*
X92896Y140477D01*
X92815Y140389D01*
X92738Y140299D01*
X92663Y140206D01*
X92591Y140110D01*
X92522Y140012D01*
X92457Y139912D01*
X92395Y139810D01*
X92336Y139706D01*
X92281Y139600D01*
X92230Y139492D01*
X92182Y139383D01*
X92137Y139272D01*
X92097Y139160D01*
X92060Y139046D01*
X92027Y138931D01*
X91997Y138816D01*
X91972Y138699D01*
X91950Y138582D01*
X91933Y138463D01*
X91919Y138345D01*
X91909Y138226D01*
X91903Y138106D01*
X91901Y137987D01*
X91900Y137987D02*
X91900Y136181D01*
X99125Y136181D01*
X85057Y130762D02*
X85057Y141599D01*
X80542Y141599D01*
X80438Y141597D01*
X80335Y141591D01*
X80231Y141581D01*
X80128Y141567D01*
X80026Y141549D01*
X79925Y141528D01*
X79824Y141502D01*
X79725Y141473D01*
X79626Y141440D01*
X79529Y141403D01*
X79434Y141362D01*
X79340Y141318D01*
X79248Y141270D01*
X79158Y141219D01*
X79069Y141164D01*
X78983Y141106D01*
X78900Y141044D01*
X78818Y140980D01*
X78740Y140912D01*
X78664Y140842D01*
X78590Y140769D01*
X78520Y140692D01*
X78452Y140614D01*
X78388Y140532D01*
X78326Y140449D01*
X78268Y140363D01*
X78213Y140274D01*
X78162Y140184D01*
X78114Y140092D01*
X78070Y139998D01*
X78029Y139903D01*
X77992Y139806D01*
X77959Y139707D01*
X77930Y139608D01*
X77904Y139507D01*
X77883Y139406D01*
X77865Y139304D01*
X77851Y139201D01*
X77841Y139097D01*
X77835Y138994D01*
X77833Y138890D01*
X77832Y138890D02*
X77832Y130762D01*
X61854Y130762D02*
X61854Y147018D01*
X56435Y137987D01*
X51016Y147018D01*
X51016Y130762D01*
X41186Y130762D02*
X36670Y130762D01*
X41186Y130762D02*
X41287Y130764D01*
X41388Y130770D01*
X41489Y130779D01*
X41590Y130792D01*
X41690Y130809D01*
X41789Y130830D01*
X41887Y130854D01*
X41984Y130882D01*
X42081Y130914D01*
X42176Y130949D01*
X42269Y130988D01*
X42361Y131030D01*
X42452Y131076D01*
X42540Y131125D01*
X42627Y131177D01*
X42712Y131233D01*
X42795Y131291D01*
X42875Y131353D01*
X42953Y131418D01*
X43029Y131485D01*
X43102Y131555D01*
X43172Y131628D01*
X43239Y131704D01*
X43304Y131782D01*
X43366Y131862D01*
X43424Y131945D01*
X43480Y132030D01*
X43532Y132116D01*
X43581Y132205D01*
X43627Y132296D01*
X43669Y132388D01*
X43708Y132481D01*
X43743Y132576D01*
X43775Y132673D01*
X43803Y132770D01*
X43827Y132868D01*
X43848Y132967D01*
X43865Y133067D01*
X43878Y133168D01*
X43887Y133269D01*
X43893Y133370D01*
X43895Y133471D01*
X43895Y137987D01*
X43893Y138106D01*
X43887Y138226D01*
X43877Y138345D01*
X43863Y138463D01*
X43846Y138582D01*
X43824Y138699D01*
X43799Y138816D01*
X43769Y138931D01*
X43736Y139046D01*
X43699Y139160D01*
X43659Y139272D01*
X43614Y139383D01*
X43566Y139492D01*
X43515Y139600D01*
X43460Y139706D01*
X43401Y139810D01*
X43339Y139912D01*
X43274Y140012D01*
X43205Y140110D01*
X43133Y140206D01*
X43058Y140299D01*
X42981Y140389D01*
X42900Y140477D01*
X42816Y140562D01*
X42729Y140644D01*
X42640Y140724D01*
X42548Y140800D01*
X42454Y140874D01*
X42357Y140944D01*
X42259Y141011D01*
X42158Y141075D01*
X42054Y141135D01*
X41949Y141192D01*
X41842Y141245D01*
X41734Y141295D01*
X41624Y141341D01*
X41512Y141383D01*
X41399Y141422D01*
X41285Y141457D01*
X41170Y141488D01*
X41053Y141516D01*
X40936Y141539D01*
X40819Y141559D01*
X40700Y141575D01*
X40581Y141587D01*
X40462Y141595D01*
X40343Y141599D01*
X40223Y141599D01*
X40104Y141595D01*
X39985Y141587D01*
X39866Y141575D01*
X39747Y141559D01*
X39630Y141539D01*
X39513Y141516D01*
X39396Y141488D01*
X39281Y141457D01*
X39167Y141422D01*
X39054Y141383D01*
X38942Y141341D01*
X38832Y141295D01*
X38724Y141245D01*
X38617Y141192D01*
X38512Y141135D01*
X38408Y141075D01*
X38307Y141011D01*
X38209Y140944D01*
X38112Y140874D01*
X38018Y140800D01*
X37926Y140724D01*
X37837Y140644D01*
X37750Y140562D01*
X37666Y140477D01*
X37585Y140389D01*
X37508Y140299D01*
X37433Y140206D01*
X37361Y140110D01*
X37292Y140012D01*
X37227Y139912D01*
X37165Y139810D01*
X37106Y139706D01*
X37051Y139600D01*
X37000Y139492D01*
X36952Y139383D01*
X36907Y139272D01*
X36867Y139160D01*
X36830Y139046D01*
X36797Y138931D01*
X36767Y138816D01*
X36742Y138699D01*
X36720Y138582D01*
X36703Y138463D01*
X36689Y138345D01*
X36679Y138226D01*
X36673Y138106D01*
X36671Y137987D01*
X36670Y137987D02*
X36670Y136181D01*
X43895Y136181D01*
X41186Y145663D02*
X38476Y148824D01*
X23644Y141599D02*
X30869Y130762D01*
X23644Y130762D02*
X30869Y141599D01*
X17878Y141599D02*
X17878Y130762D01*
X18329Y146115D02*
X18329Y147018D01*
X17426Y147018D01*
X17426Y146115D01*
X18329Y146115D01*
X8864Y130762D02*
X5251Y130762D01*
X8864Y130762D02*
X8965Y130764D01*
X9066Y130770D01*
X9167Y130779D01*
X9268Y130792D01*
X9368Y130809D01*
X9467Y130830D01*
X9565Y130854D01*
X9662Y130882D01*
X9759Y130914D01*
X9854Y130949D01*
X9947Y130988D01*
X10039Y131030D01*
X10130Y131076D01*
X10218Y131125D01*
X10305Y131177D01*
X10390Y131233D01*
X10473Y131291D01*
X10553Y131353D01*
X10631Y131418D01*
X10707Y131485D01*
X10780Y131555D01*
X10850Y131628D01*
X10917Y131704D01*
X10982Y131782D01*
X11044Y131862D01*
X11102Y131945D01*
X11158Y132030D01*
X11210Y132116D01*
X11259Y132205D01*
X11305Y132296D01*
X11347Y132388D01*
X11386Y132481D01*
X11421Y132576D01*
X11453Y132673D01*
X11481Y132770D01*
X11505Y132868D01*
X11526Y132967D01*
X11543Y133067D01*
X11556Y133168D01*
X11565Y133269D01*
X11571Y133370D01*
X11573Y133471D01*
X11573Y138890D01*
X11571Y138991D01*
X11565Y139092D01*
X11556Y139193D01*
X11543Y139294D01*
X11526Y139394D01*
X11505Y139493D01*
X11481Y139591D01*
X11453Y139688D01*
X11421Y139785D01*
X11386Y139880D01*
X11347Y139973D01*
X11305Y140065D01*
X11259Y140156D01*
X11210Y140245D01*
X11158Y140331D01*
X11102Y140416D01*
X11044Y140499D01*
X10982Y140579D01*
X10917Y140657D01*
X10850Y140733D01*
X10780Y140806D01*
X10707Y140876D01*
X10631Y140943D01*
X10553Y141008D01*
X10473Y141070D01*
X10390Y141128D01*
X10305Y141184D01*
X10219Y141236D01*
X10130Y141285D01*
X10039Y141331D01*
X9947Y141373D01*
X9854Y141412D01*
X9759Y141447D01*
X9662Y141479D01*
X9565Y141507D01*
X9467Y141531D01*
X9368Y141552D01*
X9268Y141569D01*
X9167Y141582D01*
X9066Y141591D01*
X8965Y141597D01*
X8864Y141599D01*
X5251Y141599D01*
X-393Y137987D02*
X-393Y134374D01*
X-394Y137987D02*
X-396Y138106D01*
X-402Y138226D01*
X-412Y138345D01*
X-426Y138463D01*
X-443Y138582D01*
X-465Y138699D01*
X-490Y138816D01*
X-520Y138931D01*
X-553Y139046D01*
X-590Y139160D01*
X-630Y139272D01*
X-675Y139383D01*
X-723Y139492D01*
X-774Y139600D01*
X-829Y139706D01*
X-888Y139810D01*
X-950Y139912D01*
X-1015Y140012D01*
X-1084Y140110D01*
X-1156Y140206D01*
X-1231Y140299D01*
X-1308Y140389D01*
X-1389Y140477D01*
X-1473Y140562D01*
X-1560Y140644D01*
X-1649Y140724D01*
X-1741Y140800D01*
X-1835Y140874D01*
X-1932Y140944D01*
X-2030Y141011D01*
X-2131Y141075D01*
X-2235Y141135D01*
X-2340Y141192D01*
X-2447Y141245D01*
X-2555Y141295D01*
X-2665Y141341D01*
X-2777Y141383D01*
X-2890Y141422D01*
X-3004Y141457D01*
X-3119Y141488D01*
X-3236Y141516D01*
X-3353Y141539D01*
X-3470Y141559D01*
X-3589Y141575D01*
X-3708Y141587D01*
X-3827Y141595D01*
X-3946Y141599D01*
X-4066Y141599D01*
X-4185Y141595D01*
X-4304Y141587D01*
X-4423Y141575D01*
X-4542Y141559D01*
X-4659Y141539D01*
X-4776Y141516D01*
X-4893Y141488D01*
X-5008Y141457D01*
X-5122Y141422D01*
X-5235Y141383D01*
X-5347Y141341D01*
X-5457Y141295D01*
X-5565Y141245D01*
X-5672Y141192D01*
X-5777Y141135D01*
X-5881Y141075D01*
X-5982Y141011D01*
X-6080Y140944D01*
X-6177Y140874D01*
X-6271Y140800D01*
X-6363Y140724D01*
X-6452Y140644D01*
X-6539Y140562D01*
X-6623Y140477D01*
X-6704Y140389D01*
X-6781Y140299D01*
X-6856Y140206D01*
X-6928Y140110D01*
X-6997Y140012D01*
X-7062Y139912D01*
X-7124Y139810D01*
X-7183Y139706D01*
X-7238Y139600D01*
X-7289Y139492D01*
X-7337Y139383D01*
X-7382Y139272D01*
X-7422Y139160D01*
X-7459Y139046D01*
X-7492Y138931D01*
X-7522Y138816D01*
X-7547Y138699D01*
X-7569Y138582D01*
X-7586Y138463D01*
X-7600Y138345D01*
X-7610Y138226D01*
X-7616Y138106D01*
X-7618Y137987D01*
X-7618Y134374D01*
X-7616Y134255D01*
X-7610Y134135D01*
X-7600Y134016D01*
X-7586Y133898D01*
X-7569Y133779D01*
X-7547Y133662D01*
X-7522Y133545D01*
X-7492Y133430D01*
X-7459Y133315D01*
X-7422Y133201D01*
X-7382Y133089D01*
X-7337Y132978D01*
X-7289Y132869D01*
X-7238Y132761D01*
X-7183Y132655D01*
X-7124Y132551D01*
X-7062Y132449D01*
X-6997Y132349D01*
X-6928Y132251D01*
X-6856Y132155D01*
X-6781Y132062D01*
X-6704Y131972D01*
X-6623Y131884D01*
X-6539Y131799D01*
X-6452Y131717D01*
X-6363Y131637D01*
X-6271Y131561D01*
X-6177Y131487D01*
X-6080Y131417D01*
X-5982Y131350D01*
X-5881Y131286D01*
X-5777Y131226D01*
X-5672Y131169D01*
X-5565Y131116D01*
X-5457Y131066D01*
X-5347Y131020D01*
X-5235Y130978D01*
X-5122Y130939D01*
X-5008Y130904D01*
X-4893Y130873D01*
X-4776Y130845D01*
X-4659Y130822D01*
X-4542Y130802D01*
X-4423Y130786D01*
X-4304Y130774D01*
X-4185Y130766D01*
X-4066Y130762D01*
X-3946Y130762D01*
X-3827Y130766D01*
X-3708Y130774D01*
X-3589Y130786D01*
X-3470Y130802D01*
X-3353Y130822D01*
X-3236Y130845D01*
X-3119Y130873D01*
X-3004Y130904D01*
X-2890Y130939D01*
X-2777Y130978D01*
X-2665Y131020D01*
X-2555Y131066D01*
X-2447Y131116D01*
X-2340Y131169D01*
X-2235Y131226D01*
X-2131Y131286D01*
X-2030Y131350D01*
X-1932Y131417D01*
X-1835Y131487D01*
X-1741Y131561D01*
X-1649Y131637D01*
X-1560Y131717D01*
X-1473Y131799D01*
X-1389Y131884D01*
X-1308Y131972D01*
X-1231Y132062D01*
X-1156Y132155D01*
X-1084Y132251D01*
X-1015Y132349D01*
X-950Y132449D01*
X-888Y132551D01*
X-829Y132655D01*
X-774Y132761D01*
X-723Y132869D01*
X-675Y132978D01*
X-630Y133089D01*
X-590Y133201D01*
X-553Y133315D01*
X-520Y133430D01*
X-490Y133545D01*
X-465Y133662D01*
X-443Y133779D01*
X-426Y133898D01*
X-412Y134016D01*
X-402Y134135D01*
X-396Y134255D01*
X-394Y134374D01*
X296702Y115599D02*
X296702Y99343D01*
X296702Y115599D02*
X292186Y115599D01*
X292082Y115597D01*
X291979Y115591D01*
X291875Y115581D01*
X291772Y115567D01*
X291670Y115549D01*
X291569Y115528D01*
X291468Y115502D01*
X291369Y115473D01*
X291270Y115440D01*
X291173Y115403D01*
X291078Y115362D01*
X290984Y115318D01*
X290892Y115270D01*
X290802Y115219D01*
X290713Y115164D01*
X290627Y115106D01*
X290544Y115044D01*
X290462Y114980D01*
X290384Y114912D01*
X290308Y114842D01*
X290234Y114769D01*
X290164Y114692D01*
X290096Y114614D01*
X290032Y114532D01*
X289970Y114449D01*
X289912Y114363D01*
X289857Y114274D01*
X289806Y114184D01*
X289758Y114092D01*
X289714Y113998D01*
X289673Y113903D01*
X289636Y113806D01*
X289603Y113707D01*
X289574Y113608D01*
X289548Y113507D01*
X289527Y113406D01*
X289509Y113304D01*
X289495Y113201D01*
X289485Y113097D01*
X289479Y112994D01*
X289477Y112890D01*
X289477Y107471D01*
X289479Y107370D01*
X289485Y107269D01*
X289494Y107168D01*
X289507Y107067D01*
X289524Y106967D01*
X289545Y106868D01*
X289569Y106770D01*
X289597Y106673D01*
X289629Y106576D01*
X289664Y106481D01*
X289703Y106388D01*
X289745Y106296D01*
X289791Y106205D01*
X289840Y106116D01*
X289892Y106030D01*
X289948Y105945D01*
X290006Y105862D01*
X290068Y105782D01*
X290133Y105704D01*
X290200Y105628D01*
X290270Y105555D01*
X290343Y105485D01*
X290419Y105418D01*
X290497Y105353D01*
X290577Y105291D01*
X290660Y105233D01*
X290745Y105177D01*
X290832Y105125D01*
X290920Y105076D01*
X291011Y105030D01*
X291103Y104988D01*
X291196Y104949D01*
X291291Y104914D01*
X291388Y104882D01*
X291485Y104854D01*
X291583Y104830D01*
X291682Y104809D01*
X291782Y104792D01*
X291883Y104779D01*
X291984Y104770D01*
X292085Y104764D01*
X292186Y104762D01*
X296702Y104762D01*
X283228Y108374D02*
X283228Y111987D01*
X283226Y112106D01*
X283220Y112226D01*
X283210Y112345D01*
X283196Y112463D01*
X283179Y112582D01*
X283157Y112699D01*
X283132Y112816D01*
X283102Y112931D01*
X283069Y113046D01*
X283032Y113160D01*
X282992Y113272D01*
X282947Y113383D01*
X282899Y113492D01*
X282848Y113600D01*
X282793Y113706D01*
X282734Y113810D01*
X282672Y113912D01*
X282607Y114012D01*
X282538Y114110D01*
X282466Y114206D01*
X282391Y114299D01*
X282314Y114389D01*
X282233Y114477D01*
X282149Y114562D01*
X282062Y114644D01*
X281973Y114724D01*
X281881Y114800D01*
X281787Y114874D01*
X281690Y114944D01*
X281592Y115011D01*
X281491Y115075D01*
X281387Y115135D01*
X281282Y115192D01*
X281175Y115245D01*
X281067Y115295D01*
X280957Y115341D01*
X280845Y115383D01*
X280732Y115422D01*
X280618Y115457D01*
X280503Y115488D01*
X280386Y115516D01*
X280269Y115539D01*
X280152Y115559D01*
X280033Y115575D01*
X279914Y115587D01*
X279795Y115595D01*
X279676Y115599D01*
X279556Y115599D01*
X279437Y115595D01*
X279318Y115587D01*
X279199Y115575D01*
X279080Y115559D01*
X278963Y115539D01*
X278846Y115516D01*
X278729Y115488D01*
X278614Y115457D01*
X278500Y115422D01*
X278387Y115383D01*
X278275Y115341D01*
X278165Y115295D01*
X278057Y115245D01*
X277950Y115192D01*
X277845Y115135D01*
X277741Y115075D01*
X277640Y115011D01*
X277542Y114944D01*
X277445Y114874D01*
X277351Y114800D01*
X277259Y114724D01*
X277170Y114644D01*
X277083Y114562D01*
X276999Y114477D01*
X276918Y114389D01*
X276841Y114299D01*
X276766Y114206D01*
X276694Y114110D01*
X276625Y114012D01*
X276560Y113912D01*
X276498Y113810D01*
X276439Y113706D01*
X276384Y113600D01*
X276333Y113492D01*
X276285Y113383D01*
X276240Y113272D01*
X276200Y113160D01*
X276163Y113046D01*
X276130Y112931D01*
X276100Y112816D01*
X276075Y112699D01*
X276053Y112582D01*
X276036Y112463D01*
X276022Y112345D01*
X276012Y112226D01*
X276006Y112106D01*
X276004Y111987D01*
X276003Y111987D02*
X276003Y108374D01*
X276004Y108374D02*
X276006Y108255D01*
X276012Y108135D01*
X276022Y108016D01*
X276036Y107898D01*
X276053Y107779D01*
X276075Y107662D01*
X276100Y107545D01*
X276130Y107430D01*
X276163Y107315D01*
X276200Y107201D01*
X276240Y107089D01*
X276285Y106978D01*
X276333Y106869D01*
X276384Y106761D01*
X276439Y106655D01*
X276498Y106551D01*
X276560Y106449D01*
X276625Y106349D01*
X276694Y106251D01*
X276766Y106155D01*
X276841Y106062D01*
X276918Y105972D01*
X276999Y105884D01*
X277083Y105799D01*
X277170Y105717D01*
X277259Y105637D01*
X277351Y105561D01*
X277445Y105487D01*
X277542Y105417D01*
X277640Y105350D01*
X277741Y105286D01*
X277845Y105226D01*
X277950Y105169D01*
X278057Y105116D01*
X278165Y105066D01*
X278275Y105020D01*
X278387Y104978D01*
X278500Y104939D01*
X278614Y104904D01*
X278729Y104873D01*
X278846Y104845D01*
X278963Y104822D01*
X279080Y104802D01*
X279199Y104786D01*
X279318Y104774D01*
X279437Y104766D01*
X279556Y104762D01*
X279676Y104762D01*
X279795Y104766D01*
X279914Y104774D01*
X280033Y104786D01*
X280152Y104802D01*
X280269Y104822D01*
X280386Y104845D01*
X280503Y104873D01*
X280618Y104904D01*
X280732Y104939D01*
X280845Y104978D01*
X280957Y105020D01*
X281067Y105066D01*
X281175Y105116D01*
X281282Y105169D01*
X281387Y105226D01*
X281491Y105286D01*
X281592Y105350D01*
X281690Y105417D01*
X281787Y105487D01*
X281881Y105561D01*
X281973Y105637D01*
X282062Y105717D01*
X282149Y105799D01*
X282233Y105884D01*
X282314Y105972D01*
X282391Y106062D01*
X282466Y106155D01*
X282538Y106251D01*
X282607Y106349D01*
X282672Y106449D01*
X282734Y106551D01*
X282793Y106655D01*
X282848Y106761D01*
X282899Y106869D01*
X282947Y106978D01*
X282992Y107089D01*
X283032Y107201D01*
X283069Y107315D01*
X283102Y107430D01*
X283132Y107545D01*
X283157Y107662D01*
X283179Y107779D01*
X283196Y107898D01*
X283210Y108016D01*
X283220Y108135D01*
X283226Y108255D01*
X283228Y108374D01*
X269075Y104762D02*
X269075Y115599D01*
X263656Y115599D01*
X263656Y113793D01*
X246790Y121018D02*
X246790Y104762D01*
X251306Y121018D02*
X242275Y121018D01*
X234146Y104762D02*
X229631Y104762D01*
X234146Y104762D02*
X234247Y104764D01*
X234348Y104770D01*
X234449Y104779D01*
X234550Y104792D01*
X234650Y104809D01*
X234749Y104830D01*
X234847Y104854D01*
X234944Y104882D01*
X235041Y104914D01*
X235136Y104949D01*
X235229Y104988D01*
X235321Y105030D01*
X235412Y105076D01*
X235501Y105125D01*
X235587Y105177D01*
X235672Y105233D01*
X235755Y105291D01*
X235835Y105353D01*
X235913Y105418D01*
X235989Y105485D01*
X236062Y105555D01*
X236132Y105628D01*
X236199Y105704D01*
X236264Y105782D01*
X236326Y105862D01*
X236384Y105945D01*
X236440Y106030D01*
X236492Y106116D01*
X236541Y106205D01*
X236587Y106296D01*
X236629Y106388D01*
X236668Y106481D01*
X236703Y106576D01*
X236735Y106673D01*
X236763Y106770D01*
X236787Y106868D01*
X236808Y106967D01*
X236825Y107067D01*
X236838Y107168D01*
X236847Y107269D01*
X236853Y107370D01*
X236855Y107471D01*
X236855Y111987D01*
X236853Y112106D01*
X236847Y112226D01*
X236837Y112345D01*
X236823Y112463D01*
X236806Y112582D01*
X236784Y112699D01*
X236759Y112816D01*
X236729Y112931D01*
X236696Y113046D01*
X236659Y113160D01*
X236619Y113272D01*
X236574Y113383D01*
X236526Y113492D01*
X236475Y113600D01*
X236420Y113706D01*
X236361Y113810D01*
X236299Y113912D01*
X236234Y114012D01*
X236165Y114110D01*
X236093Y114206D01*
X236018Y114299D01*
X235941Y114389D01*
X235860Y114477D01*
X235776Y114562D01*
X235689Y114644D01*
X235600Y114724D01*
X235508Y114800D01*
X235414Y114874D01*
X235317Y114944D01*
X235219Y115011D01*
X235118Y115075D01*
X235014Y115135D01*
X234909Y115192D01*
X234802Y115245D01*
X234694Y115295D01*
X234584Y115341D01*
X234472Y115383D01*
X234359Y115422D01*
X234245Y115457D01*
X234130Y115488D01*
X234013Y115516D01*
X233896Y115539D01*
X233779Y115559D01*
X233660Y115575D01*
X233541Y115587D01*
X233422Y115595D01*
X233303Y115599D01*
X233183Y115599D01*
X233064Y115595D01*
X232945Y115587D01*
X232826Y115575D01*
X232707Y115559D01*
X232590Y115539D01*
X232473Y115516D01*
X232356Y115488D01*
X232241Y115457D01*
X232127Y115422D01*
X232014Y115383D01*
X231902Y115341D01*
X231792Y115295D01*
X231684Y115245D01*
X231577Y115192D01*
X231472Y115135D01*
X231368Y115075D01*
X231267Y115011D01*
X231169Y114944D01*
X231072Y114874D01*
X230978Y114800D01*
X230886Y114724D01*
X230797Y114644D01*
X230710Y114562D01*
X230626Y114477D01*
X230545Y114389D01*
X230468Y114299D01*
X230393Y114206D01*
X230321Y114110D01*
X230252Y114012D01*
X230187Y113912D01*
X230125Y113810D01*
X230066Y113706D01*
X230011Y113600D01*
X229960Y113492D01*
X229912Y113383D01*
X229867Y113272D01*
X229827Y113160D01*
X229790Y113046D01*
X229757Y112931D01*
X229727Y112816D01*
X229702Y112699D01*
X229680Y112582D01*
X229663Y112463D01*
X229649Y112345D01*
X229639Y112226D01*
X229633Y112106D01*
X229631Y111987D01*
X229631Y110181D01*
X236855Y110181D01*
X220221Y111084D02*
X216157Y111084D01*
X220221Y111084D02*
X220333Y111082D01*
X220444Y111076D01*
X220555Y111066D01*
X220666Y111053D01*
X220776Y111035D01*
X220885Y111013D01*
X220994Y110988D01*
X221102Y110959D01*
X221208Y110926D01*
X221314Y110889D01*
X221418Y110849D01*
X221520Y110805D01*
X221621Y110757D01*
X221720Y110706D01*
X221818Y110651D01*
X221913Y110593D01*
X222006Y110532D01*
X222097Y110467D01*
X222186Y110399D01*
X222272Y110328D01*
X222355Y110255D01*
X222436Y110178D01*
X222515Y110098D01*
X222590Y110016D01*
X222662Y109931D01*
X222732Y109844D01*
X222798Y109754D01*
X222861Y109662D01*
X222921Y109567D01*
X222977Y109471D01*
X223030Y109373D01*
X223079Y109273D01*
X223125Y109171D01*
X223167Y109068D01*
X223206Y108963D01*
X223241Y108857D01*
X223272Y108750D01*
X223299Y108642D01*
X223323Y108533D01*
X223342Y108423D01*
X223358Y108313D01*
X223370Y108202D01*
X223378Y108090D01*
X223382Y107979D01*
X223382Y107867D01*
X223378Y107756D01*
X223370Y107644D01*
X223358Y107533D01*
X223342Y107423D01*
X223323Y107313D01*
X223299Y107204D01*
X223272Y107096D01*
X223241Y106989D01*
X223206Y106883D01*
X223167Y106778D01*
X223125Y106675D01*
X223079Y106573D01*
X223030Y106473D01*
X222977Y106375D01*
X222921Y106279D01*
X222861Y106184D01*
X222798Y106092D01*
X222732Y106002D01*
X222662Y105915D01*
X222590Y105830D01*
X222515Y105748D01*
X222436Y105668D01*
X222355Y105591D01*
X222272Y105518D01*
X222186Y105447D01*
X222097Y105379D01*
X222006Y105314D01*
X221913Y105253D01*
X221818Y105195D01*
X221720Y105140D01*
X221621Y105089D01*
X221520Y105041D01*
X221418Y104997D01*
X221314Y104957D01*
X221208Y104920D01*
X221102Y104887D01*
X220994Y104858D01*
X220885Y104833D01*
X220776Y104811D01*
X220666Y104793D01*
X220555Y104780D01*
X220444Y104770D01*
X220333Y104764D01*
X220221Y104762D01*
X216157Y104762D01*
X216157Y112890D01*
X216159Y112991D01*
X216165Y113092D01*
X216174Y113193D01*
X216187Y113294D01*
X216204Y113394D01*
X216225Y113493D01*
X216249Y113591D01*
X216277Y113688D01*
X216309Y113785D01*
X216344Y113880D01*
X216383Y113973D01*
X216425Y114065D01*
X216471Y114156D01*
X216520Y114245D01*
X216572Y114331D01*
X216628Y114416D01*
X216686Y114499D01*
X216748Y114579D01*
X216813Y114657D01*
X216880Y114733D01*
X216950Y114806D01*
X217023Y114876D01*
X217099Y114943D01*
X217177Y115008D01*
X217257Y115070D01*
X217340Y115128D01*
X217425Y115184D01*
X217512Y115236D01*
X217600Y115285D01*
X217691Y115331D01*
X217783Y115373D01*
X217876Y115412D01*
X217971Y115447D01*
X218068Y115479D01*
X218165Y115507D01*
X218263Y115531D01*
X218362Y115552D01*
X218462Y115569D01*
X218563Y115582D01*
X218664Y115591D01*
X218765Y115597D01*
X218866Y115599D01*
X222479Y115599D01*
X208441Y115599D02*
X208441Y104762D01*
X208441Y115599D02*
X200313Y115599D01*
X200212Y115597D01*
X200111Y115591D01*
X200010Y115582D01*
X199909Y115569D01*
X199809Y115552D01*
X199710Y115531D01*
X199612Y115507D01*
X199515Y115479D01*
X199418Y115447D01*
X199323Y115412D01*
X199230Y115373D01*
X199138Y115331D01*
X199047Y115285D01*
X198959Y115236D01*
X198872Y115184D01*
X198787Y115128D01*
X198704Y115070D01*
X198624Y115008D01*
X198546Y114943D01*
X198470Y114876D01*
X198397Y114806D01*
X198327Y114733D01*
X198260Y114657D01*
X198195Y114579D01*
X198133Y114499D01*
X198075Y114416D01*
X198019Y114331D01*
X197967Y114245D01*
X197918Y114156D01*
X197872Y114065D01*
X197830Y113973D01*
X197791Y113880D01*
X197756Y113785D01*
X197724Y113688D01*
X197696Y113591D01*
X197672Y113493D01*
X197651Y113394D01*
X197634Y113294D01*
X197621Y113193D01*
X197612Y113092D01*
X197606Y112991D01*
X197604Y112890D01*
X197604Y104762D01*
X203023Y104762D02*
X203023Y115599D01*
X177110Y104762D02*
X176992Y104764D01*
X176874Y104770D01*
X176756Y104779D01*
X176639Y104793D01*
X176522Y104810D01*
X176405Y104831D01*
X176290Y104856D01*
X176175Y104885D01*
X176061Y104918D01*
X175949Y104954D01*
X175838Y104994D01*
X175728Y105037D01*
X175619Y105084D01*
X175512Y105134D01*
X175407Y105189D01*
X175304Y105246D01*
X175203Y105307D01*
X175103Y105371D01*
X175006Y105438D01*
X174911Y105508D01*
X174819Y105582D01*
X174728Y105658D01*
X174641Y105738D01*
X174556Y105820D01*
X174474Y105905D01*
X174394Y105992D01*
X174318Y106083D01*
X174244Y106175D01*
X174174Y106270D01*
X174107Y106367D01*
X174043Y106467D01*
X173982Y106568D01*
X173925Y106671D01*
X173870Y106776D01*
X173820Y106883D01*
X173773Y106992D01*
X173730Y107102D01*
X173690Y107213D01*
X173654Y107325D01*
X173621Y107439D01*
X173592Y107554D01*
X173567Y107669D01*
X173546Y107786D01*
X173529Y107903D01*
X173515Y108020D01*
X173506Y108138D01*
X173500Y108256D01*
X173498Y108374D01*
X177110Y104762D02*
X177293Y104764D01*
X177475Y104771D01*
X177657Y104782D01*
X177839Y104797D01*
X178021Y104817D01*
X178202Y104841D01*
X178382Y104869D01*
X178562Y104901D01*
X178741Y104938D01*
X178918Y104979D01*
X179095Y105025D01*
X179271Y105074D01*
X179446Y105128D01*
X179619Y105186D01*
X179790Y105248D01*
X179961Y105314D01*
X180129Y105385D01*
X180296Y105459D01*
X180461Y105537D01*
X180624Y105619D01*
X180785Y105705D01*
X180944Y105795D01*
X181101Y105889D01*
X181255Y105986D01*
X181407Y106087D01*
X181557Y106192D01*
X181704Y106300D01*
X181848Y106411D01*
X181990Y106526D01*
X182129Y106645D01*
X182265Y106767D01*
X182398Y106892D01*
X182528Y107020D01*
X182076Y117406D02*
X182074Y117524D01*
X182068Y117642D01*
X182059Y117760D01*
X182045Y117877D01*
X182028Y117994D01*
X182007Y118111D01*
X181982Y118226D01*
X181953Y118341D01*
X181920Y118455D01*
X181884Y118567D01*
X181844Y118678D01*
X181801Y118788D01*
X181754Y118897D01*
X181704Y119004D01*
X181649Y119109D01*
X181592Y119212D01*
X181531Y119313D01*
X181467Y119413D01*
X181400Y119510D01*
X181330Y119605D01*
X181256Y119697D01*
X181180Y119788D01*
X181100Y119875D01*
X181018Y119960D01*
X180933Y120042D01*
X180846Y120122D01*
X180755Y120198D01*
X180663Y120272D01*
X180568Y120342D01*
X180471Y120409D01*
X180371Y120473D01*
X180270Y120534D01*
X180167Y120591D01*
X180062Y120646D01*
X179955Y120696D01*
X179846Y120743D01*
X179736Y120786D01*
X179625Y120826D01*
X179513Y120862D01*
X179399Y120895D01*
X179284Y120924D01*
X179169Y120949D01*
X179052Y120970D01*
X178935Y120987D01*
X178818Y121001D01*
X178700Y121010D01*
X178582Y121016D01*
X178464Y121018D01*
X178303Y121016D01*
X178141Y121010D01*
X177980Y121001D01*
X177819Y120987D01*
X177659Y120970D01*
X177499Y120949D01*
X177339Y120924D01*
X177180Y120895D01*
X177022Y120863D01*
X176865Y120827D01*
X176709Y120787D01*
X176553Y120743D01*
X176399Y120695D01*
X176246Y120644D01*
X176094Y120590D01*
X175943Y120531D01*
X175794Y120470D01*
X175647Y120404D01*
X175501Y120335D01*
X175356Y120263D01*
X175214Y120187D01*
X175073Y120108D01*
X174934Y120026D01*
X174798Y119940D01*
X174663Y119851D01*
X174530Y119759D01*
X174400Y119663D01*
X180271Y114245D02*
X180372Y114307D01*
X180472Y114372D01*
X180569Y114441D01*
X180664Y114513D01*
X180757Y114587D01*
X180847Y114665D01*
X180935Y114746D01*
X181020Y114829D01*
X181102Y114915D01*
X181181Y115004D01*
X181258Y115095D01*
X181331Y115189D01*
X181402Y115285D01*
X181469Y115383D01*
X181533Y115483D01*
X181594Y115586D01*
X181651Y115690D01*
X181705Y115796D01*
X181755Y115904D01*
X181802Y116013D01*
X181846Y116124D01*
X181886Y116236D01*
X181922Y116350D01*
X181954Y116464D01*
X181983Y116580D01*
X182008Y116696D01*
X182029Y116813D01*
X182046Y116931D01*
X182060Y117049D01*
X182069Y117168D01*
X182075Y117287D01*
X182077Y117406D01*
X175303Y111535D02*
X175202Y111473D01*
X175102Y111408D01*
X175005Y111339D01*
X174910Y111267D01*
X174817Y111193D01*
X174727Y111115D01*
X174639Y111034D01*
X174554Y110951D01*
X174472Y110865D01*
X174393Y110776D01*
X174316Y110685D01*
X174243Y110591D01*
X174172Y110495D01*
X174105Y110397D01*
X174041Y110297D01*
X173980Y110194D01*
X173923Y110090D01*
X173869Y109984D01*
X173819Y109876D01*
X173772Y109767D01*
X173728Y109656D01*
X173688Y109544D01*
X173652Y109430D01*
X173620Y109316D01*
X173591Y109200D01*
X173566Y109084D01*
X173545Y108967D01*
X173528Y108849D01*
X173514Y108731D01*
X173505Y108612D01*
X173499Y108493D01*
X173497Y108374D01*
X175303Y111535D02*
X180270Y114245D01*
X167557Y111987D02*
X167557Y108374D01*
X167557Y111987D02*
X167555Y112106D01*
X167549Y112226D01*
X167539Y112345D01*
X167525Y112463D01*
X167508Y112582D01*
X167486Y112699D01*
X167461Y112816D01*
X167431Y112931D01*
X167398Y113046D01*
X167361Y113160D01*
X167321Y113272D01*
X167276Y113383D01*
X167228Y113492D01*
X167177Y113600D01*
X167122Y113706D01*
X167063Y113810D01*
X167001Y113912D01*
X166936Y114012D01*
X166867Y114110D01*
X166795Y114206D01*
X166720Y114299D01*
X166643Y114389D01*
X166562Y114477D01*
X166478Y114562D01*
X166391Y114644D01*
X166302Y114724D01*
X166210Y114800D01*
X166116Y114874D01*
X166019Y114944D01*
X165921Y115011D01*
X165820Y115075D01*
X165716Y115135D01*
X165611Y115192D01*
X165504Y115245D01*
X165396Y115295D01*
X165286Y115341D01*
X165174Y115383D01*
X165061Y115422D01*
X164947Y115457D01*
X164832Y115488D01*
X164715Y115516D01*
X164598Y115539D01*
X164481Y115559D01*
X164362Y115575D01*
X164243Y115587D01*
X164124Y115595D01*
X164005Y115599D01*
X163885Y115599D01*
X163766Y115595D01*
X163647Y115587D01*
X163528Y115575D01*
X163409Y115559D01*
X163292Y115539D01*
X163175Y115516D01*
X163058Y115488D01*
X162943Y115457D01*
X162829Y115422D01*
X162716Y115383D01*
X162604Y115341D01*
X162494Y115295D01*
X162386Y115245D01*
X162279Y115192D01*
X162174Y115135D01*
X162070Y115075D01*
X161969Y115011D01*
X161871Y114944D01*
X161774Y114874D01*
X161680Y114800D01*
X161588Y114724D01*
X161499Y114644D01*
X161412Y114562D01*
X161328Y114477D01*
X161247Y114389D01*
X161170Y114299D01*
X161095Y114206D01*
X161023Y114110D01*
X160954Y114012D01*
X160889Y113912D01*
X160827Y113810D01*
X160768Y113706D01*
X160713Y113600D01*
X160662Y113492D01*
X160614Y113383D01*
X160569Y113272D01*
X160529Y113160D01*
X160492Y113046D01*
X160459Y112931D01*
X160429Y112816D01*
X160404Y112699D01*
X160382Y112582D01*
X160365Y112463D01*
X160351Y112345D01*
X160341Y112226D01*
X160335Y112106D01*
X160333Y111987D01*
X160332Y111987D02*
X160332Y108374D01*
X160333Y108374D02*
X160335Y108255D01*
X160341Y108135D01*
X160351Y108016D01*
X160365Y107898D01*
X160382Y107779D01*
X160404Y107662D01*
X160429Y107545D01*
X160459Y107430D01*
X160492Y107315D01*
X160529Y107201D01*
X160569Y107089D01*
X160614Y106978D01*
X160662Y106869D01*
X160713Y106761D01*
X160768Y106655D01*
X160827Y106551D01*
X160889Y106449D01*
X160954Y106349D01*
X161023Y106251D01*
X161095Y106155D01*
X161170Y106062D01*
X161247Y105972D01*
X161328Y105884D01*
X161412Y105799D01*
X161499Y105717D01*
X161588Y105637D01*
X161680Y105561D01*
X161774Y105487D01*
X161871Y105417D01*
X161969Y105350D01*
X162070Y105286D01*
X162174Y105226D01*
X162279Y105169D01*
X162386Y105116D01*
X162494Y105066D01*
X162604Y105020D01*
X162716Y104978D01*
X162829Y104939D01*
X162943Y104904D01*
X163058Y104873D01*
X163175Y104845D01*
X163292Y104822D01*
X163409Y104802D01*
X163528Y104786D01*
X163647Y104774D01*
X163766Y104766D01*
X163885Y104762D01*
X164005Y104762D01*
X164124Y104766D01*
X164243Y104774D01*
X164362Y104786D01*
X164481Y104802D01*
X164598Y104822D01*
X164715Y104845D01*
X164832Y104873D01*
X164947Y104904D01*
X165061Y104939D01*
X165174Y104978D01*
X165286Y105020D01*
X165396Y105066D01*
X165504Y105116D01*
X165611Y105169D01*
X165716Y105226D01*
X165820Y105286D01*
X165921Y105350D01*
X166019Y105417D01*
X166116Y105487D01*
X166210Y105561D01*
X166302Y105637D01*
X166391Y105717D01*
X166478Y105799D01*
X166562Y105884D01*
X166643Y105972D01*
X166720Y106062D01*
X166795Y106155D01*
X166867Y106251D01*
X166936Y106349D01*
X167001Y106449D01*
X167063Y106551D01*
X167122Y106655D01*
X167177Y106761D01*
X167228Y106869D01*
X167276Y106978D01*
X167321Y107089D01*
X167361Y107201D01*
X167398Y107315D01*
X167431Y107430D01*
X167461Y107545D01*
X167486Y107662D01*
X167508Y107779D01*
X167525Y107898D01*
X167539Y108016D01*
X167549Y108135D01*
X167555Y108255D01*
X167557Y108374D01*
X153773Y107471D02*
X153773Y121018D01*
X153773Y107471D02*
X153771Y107370D01*
X153765Y107269D01*
X153756Y107168D01*
X153743Y107067D01*
X153726Y106967D01*
X153705Y106868D01*
X153681Y106770D01*
X153653Y106673D01*
X153621Y106576D01*
X153586Y106481D01*
X153547Y106388D01*
X153505Y106296D01*
X153459Y106205D01*
X153410Y106116D01*
X153358Y106030D01*
X153302Y105945D01*
X153244Y105862D01*
X153182Y105782D01*
X153117Y105704D01*
X153050Y105628D01*
X152980Y105555D01*
X152907Y105485D01*
X152831Y105418D01*
X152753Y105353D01*
X152673Y105291D01*
X152590Y105233D01*
X152505Y105177D01*
X152419Y105125D01*
X152330Y105076D01*
X152239Y105030D01*
X152147Y104988D01*
X152054Y104949D01*
X151959Y104914D01*
X151862Y104882D01*
X151765Y104854D01*
X151667Y104830D01*
X151568Y104809D01*
X151468Y104792D01*
X151367Y104779D01*
X151266Y104770D01*
X151165Y104764D01*
X151064Y104762D01*
X136585Y104762D02*
X136585Y121018D01*
X132070Y121018D01*
X131937Y121016D01*
X131805Y121010D01*
X131673Y121000D01*
X131541Y120987D01*
X131409Y120969D01*
X131279Y120948D01*
X131148Y120923D01*
X131019Y120894D01*
X130891Y120861D01*
X130763Y120825D01*
X130637Y120785D01*
X130512Y120741D01*
X130388Y120693D01*
X130266Y120642D01*
X130145Y120587D01*
X130026Y120529D01*
X129908Y120467D01*
X129793Y120402D01*
X129679Y120333D01*
X129568Y120262D01*
X129459Y120186D01*
X129352Y120108D01*
X129247Y120027D01*
X129145Y119942D01*
X129045Y119855D01*
X128948Y119765D01*
X128853Y119672D01*
X128762Y119576D01*
X128673Y119478D01*
X128587Y119377D01*
X128504Y119273D01*
X128424Y119167D01*
X128348Y119059D01*
X128274Y118949D01*
X128204Y118836D01*
X128137Y118722D01*
X128074Y118605D01*
X128014Y118487D01*
X127957Y118367D01*
X127904Y118245D01*
X127855Y118122D01*
X127809Y117998D01*
X127767Y117872D01*
X127729Y117745D01*
X127694Y117617D01*
X127663Y117488D01*
X127636Y117359D01*
X127613Y117228D01*
X127593Y117097D01*
X127578Y116965D01*
X127566Y116833D01*
X127558Y116701D01*
X127554Y116568D01*
X127554Y116436D01*
X127558Y116303D01*
X127566Y116171D01*
X127578Y116039D01*
X127593Y115907D01*
X127613Y115776D01*
X127636Y115645D01*
X127663Y115516D01*
X127694Y115387D01*
X127729Y115259D01*
X127767Y115132D01*
X127809Y115006D01*
X127855Y114882D01*
X127904Y114759D01*
X127957Y114637D01*
X128014Y114517D01*
X128074Y114399D01*
X128137Y114282D01*
X128204Y114168D01*
X128274Y114055D01*
X128348Y113945D01*
X128424Y113837D01*
X128504Y113731D01*
X128587Y113627D01*
X128673Y113526D01*
X128762Y113428D01*
X128853Y113332D01*
X128948Y113239D01*
X129045Y113149D01*
X129145Y113062D01*
X129247Y112977D01*
X129352Y112896D01*
X129459Y112818D01*
X129568Y112742D01*
X129679Y112671D01*
X129793Y112602D01*
X129908Y112537D01*
X130026Y112475D01*
X130145Y112417D01*
X130266Y112362D01*
X130388Y112311D01*
X130512Y112263D01*
X130637Y112219D01*
X130763Y112179D01*
X130891Y112143D01*
X131019Y112110D01*
X131148Y112081D01*
X131279Y112056D01*
X131409Y112035D01*
X131541Y112017D01*
X131673Y112004D01*
X131805Y111994D01*
X131937Y111988D01*
X132070Y111986D01*
X132070Y111987D02*
X136585Y111987D01*
X131166Y111987D02*
X127554Y104762D01*
X121184Y108374D02*
X121184Y111987D01*
X121182Y112106D01*
X121176Y112226D01*
X121166Y112345D01*
X121152Y112463D01*
X121135Y112582D01*
X121113Y112699D01*
X121088Y112816D01*
X121058Y112931D01*
X121025Y113046D01*
X120988Y113160D01*
X120948Y113272D01*
X120903Y113383D01*
X120855Y113492D01*
X120804Y113600D01*
X120749Y113706D01*
X120690Y113810D01*
X120628Y113912D01*
X120563Y114012D01*
X120494Y114110D01*
X120422Y114206D01*
X120347Y114299D01*
X120270Y114389D01*
X120189Y114477D01*
X120105Y114562D01*
X120018Y114644D01*
X119929Y114724D01*
X119837Y114800D01*
X119743Y114874D01*
X119646Y114944D01*
X119548Y115011D01*
X119447Y115075D01*
X119343Y115135D01*
X119238Y115192D01*
X119131Y115245D01*
X119023Y115295D01*
X118913Y115341D01*
X118801Y115383D01*
X118688Y115422D01*
X118574Y115457D01*
X118459Y115488D01*
X118342Y115516D01*
X118225Y115539D01*
X118108Y115559D01*
X117989Y115575D01*
X117870Y115587D01*
X117751Y115595D01*
X117632Y115599D01*
X117512Y115599D01*
X117393Y115595D01*
X117274Y115587D01*
X117155Y115575D01*
X117036Y115559D01*
X116919Y115539D01*
X116802Y115516D01*
X116685Y115488D01*
X116570Y115457D01*
X116456Y115422D01*
X116343Y115383D01*
X116231Y115341D01*
X116121Y115295D01*
X116013Y115245D01*
X115906Y115192D01*
X115801Y115135D01*
X115697Y115075D01*
X115596Y115011D01*
X115498Y114944D01*
X115401Y114874D01*
X115307Y114800D01*
X115215Y114724D01*
X115126Y114644D01*
X115039Y114562D01*
X114955Y114477D01*
X114874Y114389D01*
X114797Y114299D01*
X114722Y114206D01*
X114650Y114110D01*
X114581Y114012D01*
X114516Y113912D01*
X114454Y113810D01*
X114395Y113706D01*
X114340Y113600D01*
X114289Y113492D01*
X114241Y113383D01*
X114196Y113272D01*
X114156Y113160D01*
X114119Y113046D01*
X114086Y112931D01*
X114056Y112816D01*
X114031Y112699D01*
X114009Y112582D01*
X113992Y112463D01*
X113978Y112345D01*
X113968Y112226D01*
X113962Y112106D01*
X113960Y111987D01*
X113960Y108374D01*
X113962Y108255D01*
X113968Y108135D01*
X113978Y108016D01*
X113992Y107898D01*
X114009Y107779D01*
X114031Y107662D01*
X114056Y107545D01*
X114086Y107430D01*
X114119Y107315D01*
X114156Y107201D01*
X114196Y107089D01*
X114241Y106978D01*
X114289Y106869D01*
X114340Y106761D01*
X114395Y106655D01*
X114454Y106551D01*
X114516Y106449D01*
X114581Y106349D01*
X114650Y106251D01*
X114722Y106155D01*
X114797Y106062D01*
X114874Y105972D01*
X114955Y105884D01*
X115039Y105799D01*
X115126Y105717D01*
X115215Y105637D01*
X115307Y105561D01*
X115401Y105487D01*
X115498Y105417D01*
X115596Y105350D01*
X115697Y105286D01*
X115801Y105226D01*
X115906Y105169D01*
X116013Y105116D01*
X116121Y105066D01*
X116231Y105020D01*
X116343Y104978D01*
X116456Y104939D01*
X116570Y104904D01*
X116685Y104873D01*
X116802Y104845D01*
X116919Y104822D01*
X117036Y104802D01*
X117155Y104786D01*
X117274Y104774D01*
X117393Y104766D01*
X117512Y104762D01*
X117632Y104762D01*
X117751Y104766D01*
X117870Y104774D01*
X117989Y104786D01*
X118108Y104802D01*
X118225Y104822D01*
X118342Y104845D01*
X118459Y104873D01*
X118574Y104904D01*
X118688Y104939D01*
X118801Y104978D01*
X118913Y105020D01*
X119023Y105066D01*
X119131Y105116D01*
X119238Y105169D01*
X119343Y105226D01*
X119447Y105286D01*
X119548Y105350D01*
X119646Y105417D01*
X119743Y105487D01*
X119837Y105561D01*
X119929Y105637D01*
X120018Y105717D01*
X120105Y105799D01*
X120189Y105884D01*
X120270Y105972D01*
X120347Y106062D01*
X120422Y106155D01*
X120494Y106251D01*
X120563Y106349D01*
X120628Y106449D01*
X120690Y106551D01*
X120749Y106655D01*
X120804Y106761D01*
X120855Y106869D01*
X120903Y106978D01*
X120948Y107089D01*
X120988Y107201D01*
X121025Y107315D01*
X121058Y107430D01*
X121088Y107545D01*
X121113Y107662D01*
X121135Y107779D01*
X121152Y107898D01*
X121166Y108016D01*
X121176Y108135D01*
X121182Y108255D01*
X121184Y108374D01*
X107043Y104762D02*
X107043Y121018D01*
X107043Y104762D02*
X102527Y104762D01*
X102423Y104764D01*
X102320Y104770D01*
X102216Y104780D01*
X102113Y104794D01*
X102011Y104812D01*
X101910Y104833D01*
X101809Y104859D01*
X101710Y104888D01*
X101611Y104921D01*
X101514Y104958D01*
X101419Y104999D01*
X101325Y105043D01*
X101233Y105091D01*
X101143Y105142D01*
X101054Y105197D01*
X100968Y105255D01*
X100885Y105317D01*
X100803Y105381D01*
X100725Y105449D01*
X100649Y105519D01*
X100575Y105592D01*
X100505Y105669D01*
X100437Y105747D01*
X100373Y105829D01*
X100311Y105912D01*
X100253Y105998D01*
X100198Y106087D01*
X100147Y106177D01*
X100099Y106269D01*
X100055Y106363D01*
X100014Y106458D01*
X99977Y106555D01*
X99944Y106654D01*
X99915Y106753D01*
X99889Y106854D01*
X99868Y106955D01*
X99850Y107057D01*
X99836Y107160D01*
X99826Y107264D01*
X99820Y107367D01*
X99818Y107471D01*
X99818Y112890D01*
X99820Y112991D01*
X99826Y113092D01*
X99835Y113193D01*
X99848Y113294D01*
X99865Y113394D01*
X99886Y113493D01*
X99910Y113591D01*
X99938Y113688D01*
X99970Y113785D01*
X100005Y113880D01*
X100044Y113973D01*
X100086Y114065D01*
X100132Y114156D01*
X100181Y114245D01*
X100233Y114331D01*
X100289Y114416D01*
X100347Y114499D01*
X100409Y114579D01*
X100474Y114657D01*
X100541Y114733D01*
X100611Y114806D01*
X100684Y114876D01*
X100760Y114943D01*
X100838Y115008D01*
X100918Y115070D01*
X101001Y115128D01*
X101086Y115184D01*
X101173Y115236D01*
X101261Y115285D01*
X101352Y115331D01*
X101444Y115373D01*
X101537Y115412D01*
X101632Y115447D01*
X101729Y115479D01*
X101826Y115507D01*
X101924Y115531D01*
X102023Y115552D01*
X102123Y115569D01*
X102224Y115582D01*
X102325Y115591D01*
X102426Y115597D01*
X102527Y115599D01*
X107043Y115599D01*
X93569Y111987D02*
X93569Y108374D01*
X93569Y111987D02*
X93567Y112106D01*
X93561Y112226D01*
X93551Y112345D01*
X93537Y112463D01*
X93520Y112582D01*
X93498Y112699D01*
X93473Y112816D01*
X93443Y112931D01*
X93410Y113046D01*
X93373Y113160D01*
X93333Y113272D01*
X93288Y113383D01*
X93240Y113492D01*
X93189Y113600D01*
X93134Y113706D01*
X93075Y113810D01*
X93013Y113912D01*
X92948Y114012D01*
X92879Y114110D01*
X92807Y114206D01*
X92732Y114299D01*
X92655Y114389D01*
X92574Y114477D01*
X92490Y114562D01*
X92403Y114644D01*
X92314Y114724D01*
X92222Y114800D01*
X92128Y114874D01*
X92031Y114944D01*
X91933Y115011D01*
X91832Y115075D01*
X91728Y115135D01*
X91623Y115192D01*
X91516Y115245D01*
X91408Y115295D01*
X91298Y115341D01*
X91186Y115383D01*
X91073Y115422D01*
X90959Y115457D01*
X90844Y115488D01*
X90727Y115516D01*
X90610Y115539D01*
X90493Y115559D01*
X90374Y115575D01*
X90255Y115587D01*
X90136Y115595D01*
X90017Y115599D01*
X89897Y115599D01*
X89778Y115595D01*
X89659Y115587D01*
X89540Y115575D01*
X89421Y115559D01*
X89304Y115539D01*
X89187Y115516D01*
X89070Y115488D01*
X88955Y115457D01*
X88841Y115422D01*
X88728Y115383D01*
X88616Y115341D01*
X88506Y115295D01*
X88398Y115245D01*
X88291Y115192D01*
X88186Y115135D01*
X88082Y115075D01*
X87981Y115011D01*
X87883Y114944D01*
X87786Y114874D01*
X87692Y114800D01*
X87600Y114724D01*
X87511Y114644D01*
X87424Y114562D01*
X87340Y114477D01*
X87259Y114389D01*
X87182Y114299D01*
X87107Y114206D01*
X87035Y114110D01*
X86966Y114012D01*
X86901Y113912D01*
X86839Y113810D01*
X86780Y113706D01*
X86725Y113600D01*
X86674Y113492D01*
X86626Y113383D01*
X86581Y113272D01*
X86541Y113160D01*
X86504Y113046D01*
X86471Y112931D01*
X86441Y112816D01*
X86416Y112699D01*
X86394Y112582D01*
X86377Y112463D01*
X86363Y112345D01*
X86353Y112226D01*
X86347Y112106D01*
X86345Y111987D01*
X86344Y111987D02*
X86344Y108374D01*
X86345Y108374D02*
X86347Y108255D01*
X86353Y108135D01*
X86363Y108016D01*
X86377Y107898D01*
X86394Y107779D01*
X86416Y107662D01*
X86441Y107545D01*
X86471Y107430D01*
X86504Y107315D01*
X86541Y107201D01*
X86581Y107089D01*
X86626Y106978D01*
X86674Y106869D01*
X86725Y106761D01*
X86780Y106655D01*
X86839Y106551D01*
X86901Y106449D01*
X86966Y106349D01*
X87035Y106251D01*
X87107Y106155D01*
X87182Y106062D01*
X87259Y105972D01*
X87340Y105884D01*
X87424Y105799D01*
X87511Y105717D01*
X87600Y105637D01*
X87692Y105561D01*
X87786Y105487D01*
X87883Y105417D01*
X87981Y105350D01*
X88082Y105286D01*
X88186Y105226D01*
X88291Y105169D01*
X88398Y105116D01*
X88506Y105066D01*
X88616Y105020D01*
X88728Y104978D01*
X88841Y104939D01*
X88955Y104904D01*
X89070Y104873D01*
X89187Y104845D01*
X89304Y104822D01*
X89421Y104802D01*
X89540Y104786D01*
X89659Y104774D01*
X89778Y104766D01*
X89897Y104762D01*
X90017Y104762D01*
X90136Y104766D01*
X90255Y104774D01*
X90374Y104786D01*
X90493Y104802D01*
X90610Y104822D01*
X90727Y104845D01*
X90844Y104873D01*
X90959Y104904D01*
X91073Y104939D01*
X91186Y104978D01*
X91298Y105020D01*
X91408Y105066D01*
X91516Y105116D01*
X91623Y105169D01*
X91728Y105226D01*
X91832Y105286D01*
X91933Y105350D01*
X92031Y105417D01*
X92128Y105487D01*
X92222Y105561D01*
X92314Y105637D01*
X92403Y105717D01*
X92490Y105799D01*
X92574Y105884D01*
X92655Y105972D01*
X92732Y106062D01*
X92807Y106155D01*
X92879Y106251D01*
X92948Y106349D01*
X93013Y106449D01*
X93075Y106551D01*
X93134Y106655D01*
X93189Y106761D01*
X93240Y106869D01*
X93288Y106978D01*
X93333Y107089D01*
X93373Y107201D01*
X93410Y107315D01*
X93443Y107430D01*
X93473Y107545D01*
X93498Y107662D01*
X93520Y107779D01*
X93537Y107898D01*
X93551Y108016D01*
X93561Y108135D01*
X93567Y108255D01*
X93569Y108374D01*
X81319Y115599D02*
X75901Y115599D01*
X79513Y121018D02*
X79513Y107471D01*
X79511Y107370D01*
X79505Y107269D01*
X79496Y107168D01*
X79483Y107067D01*
X79466Y106967D01*
X79445Y106868D01*
X79421Y106770D01*
X79393Y106673D01*
X79361Y106576D01*
X79326Y106481D01*
X79287Y106388D01*
X79245Y106296D01*
X79199Y106205D01*
X79150Y106116D01*
X79098Y106030D01*
X79042Y105945D01*
X78984Y105862D01*
X78922Y105782D01*
X78857Y105704D01*
X78790Y105628D01*
X78720Y105555D01*
X78647Y105485D01*
X78571Y105418D01*
X78493Y105353D01*
X78413Y105291D01*
X78330Y105233D01*
X78245Y105177D01*
X78158Y105125D01*
X78070Y105076D01*
X77979Y105030D01*
X77887Y104988D01*
X77794Y104949D01*
X77699Y104914D01*
X77602Y104882D01*
X77505Y104854D01*
X77407Y104830D01*
X77308Y104809D01*
X77208Y104792D01*
X77107Y104779D01*
X77006Y104770D01*
X76905Y104764D01*
X76804Y104762D01*
X75901Y104762D01*
X70157Y104762D02*
X70157Y115599D01*
X70609Y120115D02*
X70609Y121018D01*
X69706Y121018D01*
X69706Y120115D01*
X70609Y120115D01*
X61143Y104762D02*
X57531Y104762D01*
X61143Y104762D02*
X61244Y104764D01*
X61345Y104770D01*
X61446Y104779D01*
X61547Y104792D01*
X61647Y104809D01*
X61746Y104830D01*
X61844Y104854D01*
X61941Y104882D01*
X62038Y104914D01*
X62133Y104949D01*
X62226Y104988D01*
X62318Y105030D01*
X62409Y105076D01*
X62497Y105125D01*
X62584Y105177D01*
X62669Y105233D01*
X62752Y105291D01*
X62832Y105353D01*
X62910Y105418D01*
X62986Y105485D01*
X63059Y105555D01*
X63129Y105628D01*
X63196Y105704D01*
X63261Y105782D01*
X63323Y105862D01*
X63381Y105945D01*
X63437Y106030D01*
X63489Y106116D01*
X63538Y106205D01*
X63584Y106296D01*
X63626Y106388D01*
X63665Y106481D01*
X63700Y106576D01*
X63732Y106673D01*
X63760Y106770D01*
X63784Y106868D01*
X63805Y106967D01*
X63822Y107067D01*
X63835Y107168D01*
X63844Y107269D01*
X63850Y107370D01*
X63852Y107471D01*
X63852Y112890D01*
X63850Y112991D01*
X63844Y113092D01*
X63835Y113193D01*
X63822Y113294D01*
X63805Y113394D01*
X63784Y113493D01*
X63760Y113591D01*
X63732Y113688D01*
X63700Y113785D01*
X63665Y113880D01*
X63626Y113973D01*
X63584Y114065D01*
X63538Y114156D01*
X63489Y114245D01*
X63437Y114331D01*
X63381Y114416D01*
X63323Y114499D01*
X63261Y114579D01*
X63196Y114657D01*
X63129Y114733D01*
X63059Y114806D01*
X62986Y114876D01*
X62910Y114943D01*
X62832Y115008D01*
X62752Y115070D01*
X62669Y115128D01*
X62584Y115184D01*
X62498Y115236D01*
X62409Y115285D01*
X62318Y115331D01*
X62226Y115373D01*
X62133Y115412D01*
X62038Y115447D01*
X61941Y115479D01*
X61844Y115507D01*
X61746Y115531D01*
X61647Y115552D01*
X61547Y115569D01*
X61446Y115582D01*
X61345Y115591D01*
X61244Y115597D01*
X61143Y115599D01*
X57531Y115599D01*
X50531Y111084D02*
X46016Y109278D01*
X50532Y111084D02*
X50620Y111121D01*
X50706Y111162D01*
X50791Y111206D01*
X50874Y111254D01*
X50954Y111305D01*
X51033Y111359D01*
X51109Y111417D01*
X51183Y111477D01*
X51255Y111541D01*
X51323Y111607D01*
X51389Y111677D01*
X51452Y111748D01*
X51513Y111823D01*
X51570Y111899D01*
X51623Y111978D01*
X51674Y112059D01*
X51721Y112142D01*
X51765Y112227D01*
X51805Y112314D01*
X51842Y112402D01*
X51875Y112492D01*
X51905Y112583D01*
X51930Y112675D01*
X51952Y112768D01*
X51970Y112862D01*
X51985Y112956D01*
X51995Y113051D01*
X52001Y113147D01*
X52004Y113242D01*
X52003Y113338D01*
X51997Y113433D01*
X51988Y113529D01*
X51975Y113623D01*
X51959Y113717D01*
X51938Y113811D01*
X51913Y113903D01*
X51885Y113994D01*
X51853Y114084D01*
X51818Y114173D01*
X51779Y114260D01*
X51736Y114346D01*
X51690Y114430D01*
X51640Y114511D01*
X51588Y114591D01*
X51532Y114669D01*
X51472Y114744D01*
X51410Y114816D01*
X51345Y114886D01*
X51277Y114954D01*
X51207Y115018D01*
X51134Y115080D01*
X51058Y115138D01*
X50980Y115194D01*
X50900Y115246D01*
X50818Y115295D01*
X50734Y115340D01*
X50648Y115382D01*
X50561Y115421D01*
X50472Y115456D01*
X50381Y115487D01*
X50290Y115514D01*
X50197Y115538D01*
X50104Y115558D01*
X50010Y115574D01*
X49915Y115586D01*
X49820Y115595D01*
X49724Y115599D01*
X49629Y115600D01*
X49382Y115593D01*
X49136Y115581D01*
X48890Y115563D01*
X48644Y115538D01*
X48400Y115508D01*
X48156Y115472D01*
X47913Y115431D01*
X47671Y115383D01*
X47430Y115329D01*
X47191Y115270D01*
X46953Y115205D01*
X46717Y115134D01*
X46482Y115058D01*
X46249Y114976D01*
X46019Y114888D01*
X45791Y114795D01*
X45564Y114697D01*
X46015Y109277D02*
X45927Y109240D01*
X45841Y109199D01*
X45756Y109155D01*
X45673Y109107D01*
X45593Y109056D01*
X45514Y109002D01*
X45438Y108944D01*
X45364Y108884D01*
X45292Y108820D01*
X45224Y108754D01*
X45158Y108684D01*
X45095Y108613D01*
X45034Y108538D01*
X44977Y108462D01*
X44924Y108383D01*
X44873Y108302D01*
X44826Y108219D01*
X44782Y108134D01*
X44742Y108047D01*
X44705Y107959D01*
X44672Y107869D01*
X44642Y107778D01*
X44617Y107686D01*
X44595Y107593D01*
X44577Y107499D01*
X44562Y107405D01*
X44552Y107310D01*
X44546Y107214D01*
X44543Y107119D01*
X44544Y107023D01*
X44550Y106928D01*
X44559Y106832D01*
X44572Y106738D01*
X44588Y106644D01*
X44609Y106550D01*
X44634Y106458D01*
X44662Y106367D01*
X44694Y106277D01*
X44729Y106188D01*
X44768Y106101D01*
X44811Y106015D01*
X44857Y105931D01*
X44907Y105850D01*
X44959Y105770D01*
X45015Y105692D01*
X45075Y105617D01*
X45137Y105545D01*
X45202Y105475D01*
X45270Y105407D01*
X45340Y105343D01*
X45413Y105281D01*
X45489Y105223D01*
X45567Y105167D01*
X45647Y105115D01*
X45729Y105066D01*
X45813Y105021D01*
X45899Y104979D01*
X45986Y104940D01*
X46075Y104905D01*
X46166Y104874D01*
X46257Y104847D01*
X46350Y104823D01*
X46443Y104803D01*
X46537Y104787D01*
X46632Y104775D01*
X46727Y104766D01*
X46823Y104762D01*
X46918Y104761D01*
X46919Y104762D02*
X47281Y104771D01*
X47643Y104789D01*
X48004Y104816D01*
X48364Y104851D01*
X48724Y104894D01*
X49083Y104946D01*
X49440Y105007D01*
X49795Y105076D01*
X50149Y105153D01*
X50501Y105239D01*
X50851Y105333D01*
X51199Y105436D01*
X51544Y105546D01*
X51886Y105665D01*
D11*
X187069Y33275D02*
X187069Y31694D01*
X187068Y33275D02*
X187066Y33354D01*
X187060Y33432D01*
X187050Y33510D01*
X187037Y33588D01*
X187019Y33665D01*
X186998Y33741D01*
X186973Y33815D01*
X186944Y33889D01*
X186912Y33961D01*
X186876Y34031D01*
X186836Y34099D01*
X186793Y34165D01*
X186747Y34229D01*
X186698Y34291D01*
X186646Y34350D01*
X186591Y34406D01*
X186533Y34460D01*
X186473Y34510D01*
X186410Y34558D01*
X186345Y34602D01*
X186278Y34643D01*
X186209Y34681D01*
X186138Y34715D01*
X186065Y34746D01*
X185991Y34773D01*
X185916Y34796D01*
X185840Y34815D01*
X185762Y34831D01*
X185684Y34843D01*
X185606Y34851D01*
X185527Y34855D01*
X185449Y34855D01*
X185370Y34851D01*
X185292Y34843D01*
X185214Y34831D01*
X185136Y34815D01*
X185060Y34796D01*
X184985Y34773D01*
X184911Y34746D01*
X184838Y34715D01*
X184767Y34681D01*
X184698Y34643D01*
X184631Y34602D01*
X184566Y34558D01*
X184503Y34510D01*
X184443Y34460D01*
X184385Y34406D01*
X184330Y34350D01*
X184278Y34291D01*
X184229Y34229D01*
X184183Y34165D01*
X184140Y34099D01*
X184100Y34031D01*
X184064Y33961D01*
X184032Y33889D01*
X184003Y33815D01*
X183978Y33741D01*
X183957Y33665D01*
X183939Y33588D01*
X183926Y33510D01*
X183916Y33432D01*
X183910Y33354D01*
X183908Y33275D01*
X183908Y31694D01*
X183910Y31615D01*
X183916Y31537D01*
X183926Y31459D01*
X183939Y31381D01*
X183957Y31304D01*
X183978Y31228D01*
X184003Y31154D01*
X184032Y31080D01*
X184064Y31008D01*
X184100Y30938D01*
X184140Y30870D01*
X184183Y30804D01*
X184229Y30740D01*
X184278Y30678D01*
X184330Y30619D01*
X184385Y30563D01*
X184443Y30509D01*
X184503Y30459D01*
X184566Y30411D01*
X184631Y30367D01*
X184698Y30326D01*
X184767Y30288D01*
X184838Y30254D01*
X184911Y30223D01*
X184985Y30196D01*
X185060Y30173D01*
X185136Y30154D01*
X185214Y30138D01*
X185292Y30126D01*
X185370Y30118D01*
X185449Y30114D01*
X185527Y30114D01*
X185606Y30118D01*
X185684Y30126D01*
X185762Y30138D01*
X185840Y30154D01*
X185916Y30173D01*
X185991Y30196D01*
X186065Y30223D01*
X186138Y30254D01*
X186209Y30288D01*
X186278Y30326D01*
X186345Y30367D01*
X186410Y30411D01*
X186473Y30459D01*
X186533Y30509D01*
X186591Y30563D01*
X186646Y30619D01*
X186698Y30678D01*
X186747Y30740D01*
X186793Y30804D01*
X186836Y30870D01*
X186876Y30938D01*
X186912Y31008D01*
X186944Y31080D01*
X186973Y31154D01*
X186998Y31228D01*
X187019Y31304D01*
X187037Y31381D01*
X187050Y31459D01*
X187060Y31537D01*
X187066Y31615D01*
X187068Y31694D01*
X180864Y34855D02*
X180864Y27743D01*
X180864Y34855D02*
X178889Y34855D01*
X178823Y34853D01*
X178756Y34848D01*
X178691Y34838D01*
X178625Y34825D01*
X178561Y34809D01*
X178498Y34789D01*
X178436Y34765D01*
X178375Y34738D01*
X178316Y34707D01*
X178259Y34673D01*
X178203Y34636D01*
X178150Y34596D01*
X178099Y34554D01*
X178051Y34508D01*
X178005Y34460D01*
X177963Y34409D01*
X177923Y34356D01*
X177886Y34300D01*
X177852Y34243D01*
X177821Y34184D01*
X177794Y34124D01*
X177771Y34061D01*
X177750Y33998D01*
X177734Y33934D01*
X177721Y33869D01*
X177711Y33803D01*
X177706Y33737D01*
X177704Y33670D01*
X177703Y33670D02*
X177703Y31299D01*
X177704Y31299D02*
X177706Y31233D01*
X177711Y31166D01*
X177721Y31101D01*
X177734Y31035D01*
X177750Y30971D01*
X177771Y30908D01*
X177794Y30846D01*
X177821Y30785D01*
X177852Y30726D01*
X177886Y30669D01*
X177923Y30613D01*
X177963Y30560D01*
X178005Y30509D01*
X178051Y30461D01*
X178099Y30415D01*
X178150Y30373D01*
X178203Y30333D01*
X178259Y30296D01*
X178316Y30262D01*
X178375Y30231D01*
X178436Y30204D01*
X178498Y30180D01*
X178561Y30160D01*
X178625Y30144D01*
X178691Y30131D01*
X178756Y30121D01*
X178823Y30116D01*
X178889Y30114D01*
X180864Y30114D01*
X173768Y30114D02*
X171792Y30114D01*
X173768Y30114D02*
X173834Y30116D01*
X173901Y30121D01*
X173966Y30131D01*
X174032Y30144D01*
X174096Y30160D01*
X174159Y30180D01*
X174221Y30204D01*
X174282Y30231D01*
X174341Y30262D01*
X174398Y30296D01*
X174454Y30333D01*
X174507Y30373D01*
X174558Y30415D01*
X174606Y30461D01*
X174652Y30509D01*
X174694Y30560D01*
X174734Y30613D01*
X174771Y30669D01*
X174805Y30726D01*
X174836Y30785D01*
X174863Y30846D01*
X174887Y30908D01*
X174907Y30971D01*
X174923Y31035D01*
X174936Y31101D01*
X174946Y31166D01*
X174951Y31233D01*
X174953Y31299D01*
X174953Y33275D01*
X174951Y33354D01*
X174945Y33432D01*
X174935Y33510D01*
X174922Y33588D01*
X174904Y33665D01*
X174883Y33741D01*
X174858Y33815D01*
X174829Y33889D01*
X174797Y33961D01*
X174761Y34031D01*
X174721Y34099D01*
X174678Y34165D01*
X174632Y34229D01*
X174583Y34291D01*
X174531Y34350D01*
X174476Y34406D01*
X174418Y34460D01*
X174358Y34510D01*
X174295Y34558D01*
X174230Y34602D01*
X174163Y34643D01*
X174094Y34681D01*
X174023Y34715D01*
X173950Y34746D01*
X173876Y34773D01*
X173801Y34796D01*
X173725Y34815D01*
X173647Y34831D01*
X173569Y34843D01*
X173491Y34851D01*
X173412Y34855D01*
X173334Y34855D01*
X173255Y34851D01*
X173177Y34843D01*
X173099Y34831D01*
X173021Y34815D01*
X172945Y34796D01*
X172870Y34773D01*
X172796Y34746D01*
X172723Y34715D01*
X172652Y34681D01*
X172583Y34643D01*
X172516Y34602D01*
X172451Y34558D01*
X172388Y34510D01*
X172328Y34460D01*
X172270Y34406D01*
X172215Y34350D01*
X172163Y34291D01*
X172114Y34229D01*
X172068Y34165D01*
X172025Y34099D01*
X171985Y34031D01*
X171949Y33961D01*
X171917Y33889D01*
X171888Y33815D01*
X171863Y33741D01*
X171842Y33665D01*
X171824Y33588D01*
X171811Y33510D01*
X171801Y33432D01*
X171795Y33354D01*
X171793Y33275D01*
X171792Y33275D02*
X171792Y32485D01*
X174953Y32485D01*
X168781Y30114D02*
X168781Y34855D01*
X166805Y34855D01*
X166739Y34853D01*
X166672Y34848D01*
X166607Y34838D01*
X166541Y34825D01*
X166477Y34809D01*
X166414Y34789D01*
X166352Y34765D01*
X166291Y34738D01*
X166232Y34707D01*
X166175Y34673D01*
X166119Y34636D01*
X166066Y34596D01*
X166015Y34554D01*
X165967Y34508D01*
X165921Y34460D01*
X165879Y34409D01*
X165839Y34356D01*
X165802Y34300D01*
X165768Y34243D01*
X165737Y34184D01*
X165710Y34124D01*
X165687Y34061D01*
X165666Y33998D01*
X165650Y33934D01*
X165637Y33869D01*
X165627Y33803D01*
X165622Y33737D01*
X165620Y33670D01*
X165620Y30114D01*
X158358Y32880D02*
X156383Y32090D01*
X158358Y32880D02*
X158416Y32905D01*
X158472Y32934D01*
X158527Y32966D01*
X158579Y33002D01*
X158629Y33041D01*
X158676Y33082D01*
X158721Y33127D01*
X158763Y33174D01*
X158802Y33223D01*
X158838Y33275D01*
X158871Y33329D01*
X158900Y33385D01*
X158926Y33443D01*
X158948Y33502D01*
X158966Y33563D01*
X158981Y33624D01*
X158992Y33686D01*
X158999Y33749D01*
X159002Y33812D01*
X159001Y33875D01*
X158996Y33938D01*
X158988Y34001D01*
X158975Y34063D01*
X158959Y34124D01*
X158939Y34184D01*
X158916Y34242D01*
X158889Y34299D01*
X158858Y34354D01*
X158824Y34408D01*
X158787Y34459D01*
X158747Y34507D01*
X158704Y34554D01*
X158658Y34597D01*
X158609Y34637D01*
X158558Y34675D01*
X158505Y34709D01*
X158450Y34740D01*
X158393Y34767D01*
X158335Y34791D01*
X158275Y34811D01*
X158214Y34827D01*
X158152Y34840D01*
X158089Y34849D01*
X158027Y34854D01*
X157963Y34855D01*
X157963Y34856D02*
X157832Y34852D01*
X157701Y34844D01*
X157571Y34833D01*
X157441Y34818D01*
X157311Y34798D01*
X157182Y34776D01*
X157054Y34749D01*
X156926Y34719D01*
X156800Y34685D01*
X156674Y34647D01*
X156550Y34606D01*
X156427Y34561D01*
X156305Y34512D01*
X156185Y34460D01*
X156383Y32089D02*
X156325Y32064D01*
X156269Y32035D01*
X156214Y32003D01*
X156162Y31967D01*
X156112Y31928D01*
X156065Y31887D01*
X156020Y31842D01*
X155978Y31795D01*
X155939Y31746D01*
X155903Y31694D01*
X155870Y31640D01*
X155841Y31584D01*
X155815Y31526D01*
X155793Y31467D01*
X155775Y31406D01*
X155760Y31345D01*
X155749Y31283D01*
X155742Y31220D01*
X155739Y31157D01*
X155740Y31094D01*
X155745Y31031D01*
X155753Y30968D01*
X155766Y30906D01*
X155782Y30845D01*
X155802Y30785D01*
X155825Y30727D01*
X155852Y30670D01*
X155883Y30615D01*
X155917Y30561D01*
X155954Y30510D01*
X155994Y30462D01*
X156037Y30415D01*
X156083Y30372D01*
X156132Y30332D01*
X156183Y30294D01*
X156236Y30260D01*
X156291Y30229D01*
X156348Y30202D01*
X156406Y30178D01*
X156466Y30158D01*
X156527Y30142D01*
X156589Y30129D01*
X156652Y30120D01*
X156714Y30115D01*
X156778Y30114D01*
X156936Y30118D01*
X157094Y30126D01*
X157252Y30137D01*
X157410Y30153D01*
X157568Y30172D01*
X157724Y30195D01*
X157881Y30221D01*
X158036Y30251D01*
X158191Y30285D01*
X158345Y30323D01*
X158498Y30364D01*
X158650Y30409D01*
X158801Y30457D01*
X158951Y30509D01*
X153008Y31694D02*
X153008Y33275D01*
X153007Y33275D02*
X153005Y33354D01*
X152999Y33432D01*
X152989Y33510D01*
X152976Y33588D01*
X152958Y33665D01*
X152937Y33741D01*
X152912Y33815D01*
X152883Y33889D01*
X152851Y33961D01*
X152815Y34031D01*
X152775Y34099D01*
X152732Y34165D01*
X152686Y34229D01*
X152637Y34291D01*
X152585Y34350D01*
X152530Y34406D01*
X152472Y34460D01*
X152412Y34510D01*
X152349Y34558D01*
X152284Y34602D01*
X152217Y34643D01*
X152148Y34681D01*
X152077Y34715D01*
X152004Y34746D01*
X151930Y34773D01*
X151855Y34796D01*
X151779Y34815D01*
X151701Y34831D01*
X151623Y34843D01*
X151545Y34851D01*
X151466Y34855D01*
X151388Y34855D01*
X151309Y34851D01*
X151231Y34843D01*
X151153Y34831D01*
X151075Y34815D01*
X150999Y34796D01*
X150924Y34773D01*
X150850Y34746D01*
X150777Y34715D01*
X150706Y34681D01*
X150637Y34643D01*
X150570Y34602D01*
X150505Y34558D01*
X150442Y34510D01*
X150382Y34460D01*
X150324Y34406D01*
X150269Y34350D01*
X150217Y34291D01*
X150168Y34229D01*
X150122Y34165D01*
X150079Y34099D01*
X150039Y34031D01*
X150003Y33961D01*
X149971Y33889D01*
X149942Y33815D01*
X149917Y33741D01*
X149896Y33665D01*
X149878Y33588D01*
X149865Y33510D01*
X149855Y33432D01*
X149849Y33354D01*
X149847Y33275D01*
X149847Y31694D01*
X149849Y31615D01*
X149855Y31537D01*
X149865Y31459D01*
X149878Y31381D01*
X149896Y31304D01*
X149917Y31228D01*
X149942Y31154D01*
X149971Y31080D01*
X150003Y31008D01*
X150039Y30938D01*
X150079Y30870D01*
X150122Y30804D01*
X150168Y30740D01*
X150217Y30678D01*
X150269Y30619D01*
X150324Y30563D01*
X150382Y30509D01*
X150442Y30459D01*
X150505Y30411D01*
X150570Y30367D01*
X150637Y30326D01*
X150706Y30288D01*
X150777Y30254D01*
X150850Y30223D01*
X150924Y30196D01*
X150999Y30173D01*
X151075Y30154D01*
X151153Y30138D01*
X151231Y30126D01*
X151309Y30118D01*
X151388Y30114D01*
X151466Y30114D01*
X151545Y30118D01*
X151623Y30126D01*
X151701Y30138D01*
X151779Y30154D01*
X151855Y30173D01*
X151930Y30196D01*
X152004Y30223D01*
X152077Y30254D01*
X152148Y30288D01*
X152217Y30326D01*
X152284Y30367D01*
X152349Y30411D01*
X152412Y30459D01*
X152472Y30509D01*
X152530Y30563D01*
X152585Y30619D01*
X152637Y30678D01*
X152686Y30740D01*
X152732Y30804D01*
X152775Y30870D01*
X152815Y30938D01*
X152851Y31008D01*
X152883Y31080D01*
X152912Y31154D01*
X152937Y31228D01*
X152958Y31304D01*
X152976Y31381D01*
X152989Y31459D01*
X152999Y31537D01*
X153005Y31615D01*
X153007Y31694D01*
X146835Y31299D02*
X146835Y34855D01*
X146835Y31299D02*
X146833Y31233D01*
X146828Y31166D01*
X146818Y31101D01*
X146805Y31035D01*
X146789Y30971D01*
X146769Y30908D01*
X146745Y30846D01*
X146718Y30785D01*
X146687Y30726D01*
X146653Y30669D01*
X146616Y30613D01*
X146576Y30560D01*
X146534Y30509D01*
X146488Y30461D01*
X146440Y30415D01*
X146389Y30373D01*
X146336Y30333D01*
X146280Y30296D01*
X146223Y30262D01*
X146164Y30231D01*
X146103Y30204D01*
X146041Y30180D01*
X145978Y30160D01*
X145914Y30144D01*
X145848Y30131D01*
X145783Y30121D01*
X145716Y30116D01*
X145650Y30114D01*
X143674Y30114D01*
X143674Y34855D01*
X140398Y34855D02*
X140398Y30114D01*
X140398Y34855D02*
X138027Y34855D01*
X138027Y34065D01*
X134670Y30114D02*
X133090Y30114D01*
X134670Y30114D02*
X134736Y30116D01*
X134803Y30121D01*
X134868Y30131D01*
X134934Y30144D01*
X134998Y30160D01*
X135061Y30180D01*
X135123Y30204D01*
X135184Y30231D01*
X135243Y30262D01*
X135300Y30296D01*
X135356Y30333D01*
X135409Y30373D01*
X135460Y30415D01*
X135508Y30461D01*
X135554Y30509D01*
X135596Y30560D01*
X135636Y30613D01*
X135673Y30669D01*
X135707Y30726D01*
X135738Y30785D01*
X135765Y30846D01*
X135789Y30908D01*
X135809Y30971D01*
X135825Y31035D01*
X135838Y31101D01*
X135848Y31166D01*
X135853Y31233D01*
X135855Y31299D01*
X135855Y33670D01*
X135853Y33736D01*
X135848Y33803D01*
X135838Y33868D01*
X135825Y33934D01*
X135809Y33998D01*
X135789Y34061D01*
X135765Y34123D01*
X135738Y34184D01*
X135707Y34243D01*
X135673Y34300D01*
X135636Y34356D01*
X135596Y34409D01*
X135554Y34460D01*
X135508Y34508D01*
X135460Y34554D01*
X135409Y34596D01*
X135356Y34636D01*
X135300Y34673D01*
X135243Y34707D01*
X135184Y34738D01*
X135123Y34765D01*
X135061Y34789D01*
X134998Y34809D01*
X134934Y34825D01*
X134868Y34838D01*
X134803Y34848D01*
X134736Y34853D01*
X134670Y34855D01*
X133090Y34855D01*
X129420Y30114D02*
X127444Y30114D01*
X129420Y30114D02*
X129486Y30116D01*
X129553Y30121D01*
X129618Y30131D01*
X129684Y30144D01*
X129748Y30160D01*
X129811Y30180D01*
X129873Y30204D01*
X129934Y30231D01*
X129993Y30262D01*
X130050Y30296D01*
X130106Y30333D01*
X130159Y30373D01*
X130210Y30415D01*
X130258Y30461D01*
X130304Y30509D01*
X130346Y30560D01*
X130386Y30613D01*
X130423Y30669D01*
X130457Y30726D01*
X130488Y30785D01*
X130515Y30846D01*
X130539Y30908D01*
X130559Y30971D01*
X130575Y31035D01*
X130588Y31101D01*
X130598Y31166D01*
X130603Y31233D01*
X130605Y31299D01*
X130605Y33275D01*
X130604Y33275D02*
X130602Y33354D01*
X130596Y33432D01*
X130586Y33510D01*
X130573Y33588D01*
X130555Y33665D01*
X130534Y33741D01*
X130509Y33815D01*
X130480Y33889D01*
X130448Y33961D01*
X130412Y34031D01*
X130372Y34099D01*
X130329Y34165D01*
X130283Y34229D01*
X130234Y34291D01*
X130182Y34350D01*
X130127Y34406D01*
X130069Y34460D01*
X130009Y34510D01*
X129946Y34558D01*
X129881Y34602D01*
X129814Y34643D01*
X129745Y34681D01*
X129674Y34715D01*
X129601Y34746D01*
X129527Y34773D01*
X129452Y34796D01*
X129376Y34815D01*
X129298Y34831D01*
X129220Y34843D01*
X129142Y34851D01*
X129063Y34855D01*
X128985Y34855D01*
X128906Y34851D01*
X128828Y34843D01*
X128750Y34831D01*
X128672Y34815D01*
X128596Y34796D01*
X128521Y34773D01*
X128447Y34746D01*
X128374Y34715D01*
X128303Y34681D01*
X128234Y34643D01*
X128167Y34602D01*
X128102Y34558D01*
X128039Y34510D01*
X127979Y34460D01*
X127921Y34406D01*
X127866Y34350D01*
X127814Y34291D01*
X127765Y34229D01*
X127719Y34165D01*
X127676Y34099D01*
X127636Y34031D01*
X127600Y33961D01*
X127568Y33889D01*
X127539Y33815D01*
X127514Y33741D01*
X127493Y33665D01*
X127475Y33588D01*
X127462Y33510D01*
X127452Y33432D01*
X127446Y33354D01*
X127444Y33275D01*
X127444Y32485D01*
X130605Y32485D01*
X178382Y25796D02*
X178382Y18684D01*
X178382Y23425D02*
X176406Y23425D01*
X176340Y23423D01*
X176273Y23418D01*
X176208Y23408D01*
X176142Y23395D01*
X176078Y23379D01*
X176015Y23359D01*
X175953Y23335D01*
X175892Y23308D01*
X175833Y23277D01*
X175776Y23243D01*
X175720Y23206D01*
X175667Y23166D01*
X175616Y23124D01*
X175568Y23078D01*
X175522Y23030D01*
X175480Y22979D01*
X175440Y22926D01*
X175403Y22870D01*
X175369Y22813D01*
X175338Y22754D01*
X175311Y22694D01*
X175288Y22631D01*
X175267Y22568D01*
X175251Y22504D01*
X175238Y22439D01*
X175228Y22373D01*
X175223Y22307D01*
X175221Y22240D01*
X175221Y18684D01*
X170859Y21450D02*
X169081Y21450D01*
X170859Y21450D02*
X170933Y21448D01*
X171006Y21442D01*
X171079Y21432D01*
X171151Y21419D01*
X171223Y21401D01*
X171293Y21380D01*
X171363Y21355D01*
X171430Y21326D01*
X171497Y21294D01*
X171561Y21259D01*
X171624Y21219D01*
X171684Y21177D01*
X171742Y21132D01*
X171797Y21083D01*
X171850Y21032D01*
X171900Y20978D01*
X171947Y20921D01*
X171991Y20862D01*
X172031Y20801D01*
X172069Y20737D01*
X172103Y20672D01*
X172133Y20605D01*
X172160Y20536D01*
X172183Y20466D01*
X172202Y20395D01*
X172218Y20323D01*
X172230Y20251D01*
X172238Y20177D01*
X172242Y20104D01*
X172242Y20030D01*
X172238Y19957D01*
X172230Y19883D01*
X172218Y19811D01*
X172202Y19739D01*
X172183Y19668D01*
X172160Y19598D01*
X172133Y19529D01*
X172103Y19462D01*
X172069Y19397D01*
X172031Y19333D01*
X171991Y19272D01*
X171947Y19213D01*
X171900Y19156D01*
X171850Y19102D01*
X171797Y19051D01*
X171742Y19002D01*
X171684Y18957D01*
X171624Y18915D01*
X171561Y18875D01*
X171497Y18840D01*
X171430Y18808D01*
X171363Y18779D01*
X171293Y18754D01*
X171223Y18733D01*
X171151Y18715D01*
X171079Y18702D01*
X171006Y18692D01*
X170933Y18686D01*
X170859Y18684D01*
X169081Y18684D01*
X169081Y22240D01*
X169082Y22240D02*
X169084Y22306D01*
X169089Y22373D01*
X169099Y22438D01*
X169112Y22504D01*
X169128Y22568D01*
X169149Y22631D01*
X169172Y22693D01*
X169199Y22754D01*
X169230Y22813D01*
X169264Y22870D01*
X169301Y22926D01*
X169341Y22979D01*
X169383Y23030D01*
X169429Y23078D01*
X169477Y23124D01*
X169528Y23166D01*
X169581Y23206D01*
X169637Y23243D01*
X169694Y23277D01*
X169753Y23308D01*
X169814Y23335D01*
X169876Y23359D01*
X169939Y23379D01*
X170003Y23395D01*
X170069Y23408D01*
X170134Y23418D01*
X170201Y23423D01*
X170267Y23425D01*
X171847Y23425D01*
X165773Y23425D02*
X165773Y18684D01*
X165773Y23425D02*
X163402Y23425D01*
X163402Y22635D01*
X158109Y25796D02*
X158109Y18684D01*
X160084Y18684D01*
X160150Y18686D01*
X160217Y18691D01*
X160282Y18701D01*
X160348Y18714D01*
X160412Y18730D01*
X160475Y18750D01*
X160537Y18774D01*
X160598Y18801D01*
X160657Y18832D01*
X160714Y18866D01*
X160770Y18903D01*
X160823Y18943D01*
X160874Y18985D01*
X160922Y19031D01*
X160968Y19079D01*
X161010Y19130D01*
X161050Y19183D01*
X161087Y19239D01*
X161121Y19296D01*
X161152Y19355D01*
X161179Y19416D01*
X161203Y19478D01*
X161223Y19541D01*
X161239Y19605D01*
X161252Y19671D01*
X161262Y19736D01*
X161267Y19803D01*
X161269Y19869D01*
X161269Y22240D01*
X161267Y22306D01*
X161262Y22373D01*
X161252Y22438D01*
X161239Y22504D01*
X161223Y22568D01*
X161203Y22631D01*
X161179Y22693D01*
X161152Y22754D01*
X161121Y22813D01*
X161087Y22870D01*
X161050Y22926D01*
X161010Y22979D01*
X160968Y23030D01*
X160922Y23078D01*
X160874Y23124D01*
X160823Y23166D01*
X160770Y23206D01*
X160714Y23243D01*
X160657Y23277D01*
X160598Y23308D01*
X160537Y23335D01*
X160475Y23359D01*
X160412Y23379D01*
X160348Y23395D01*
X160282Y23408D01*
X160217Y23418D01*
X160150Y23423D01*
X160084Y23425D01*
X158109Y23425D01*
X155169Y23425D02*
X153984Y18684D01*
X152799Y21845D01*
X151613Y18684D01*
X150428Y23425D01*
X146399Y21450D02*
X144621Y21450D01*
X146399Y21450D02*
X146473Y21448D01*
X146546Y21442D01*
X146619Y21432D01*
X146691Y21419D01*
X146763Y21401D01*
X146833Y21380D01*
X146903Y21355D01*
X146970Y21326D01*
X147037Y21294D01*
X147101Y21259D01*
X147164Y21219D01*
X147224Y21177D01*
X147282Y21132D01*
X147337Y21083D01*
X147390Y21032D01*
X147440Y20978D01*
X147487Y20921D01*
X147531Y20862D01*
X147571Y20801D01*
X147609Y20737D01*
X147643Y20672D01*
X147673Y20605D01*
X147700Y20536D01*
X147723Y20466D01*
X147742Y20395D01*
X147758Y20323D01*
X147770Y20251D01*
X147778Y20177D01*
X147782Y20104D01*
X147782Y20030D01*
X147778Y19957D01*
X147770Y19883D01*
X147758Y19811D01*
X147742Y19739D01*
X147723Y19668D01*
X147700Y19598D01*
X147673Y19529D01*
X147643Y19462D01*
X147609Y19397D01*
X147571Y19333D01*
X147531Y19272D01*
X147487Y19213D01*
X147440Y19156D01*
X147390Y19102D01*
X147337Y19051D01*
X147282Y19002D01*
X147224Y18957D01*
X147164Y18915D01*
X147101Y18875D01*
X147037Y18840D01*
X146970Y18808D01*
X146903Y18779D01*
X146833Y18754D01*
X146763Y18733D01*
X146691Y18715D01*
X146619Y18702D01*
X146546Y18692D01*
X146473Y18686D01*
X146399Y18684D01*
X144621Y18684D01*
X144621Y22240D01*
X144622Y22240D02*
X144624Y22306D01*
X144629Y22373D01*
X144639Y22438D01*
X144652Y22504D01*
X144668Y22568D01*
X144689Y22631D01*
X144712Y22693D01*
X144739Y22754D01*
X144770Y22813D01*
X144804Y22870D01*
X144841Y22926D01*
X144881Y22979D01*
X144923Y23030D01*
X144969Y23078D01*
X145017Y23124D01*
X145068Y23166D01*
X145121Y23206D01*
X145177Y23243D01*
X145234Y23277D01*
X145293Y23308D01*
X145354Y23335D01*
X145416Y23359D01*
X145479Y23379D01*
X145543Y23395D01*
X145609Y23408D01*
X145674Y23418D01*
X145741Y23423D01*
X145807Y23425D01*
X147387Y23425D01*
X141313Y23425D02*
X141313Y18684D01*
X141313Y23425D02*
X138942Y23425D01*
X138942Y22635D01*
X135592Y18684D02*
X133616Y18684D01*
X135592Y18684D02*
X135658Y18686D01*
X135725Y18691D01*
X135790Y18701D01*
X135856Y18714D01*
X135920Y18730D01*
X135983Y18750D01*
X136045Y18774D01*
X136106Y18801D01*
X136165Y18832D01*
X136222Y18866D01*
X136278Y18903D01*
X136331Y18943D01*
X136382Y18985D01*
X136430Y19031D01*
X136476Y19079D01*
X136518Y19130D01*
X136558Y19183D01*
X136595Y19239D01*
X136629Y19296D01*
X136660Y19355D01*
X136687Y19416D01*
X136711Y19478D01*
X136731Y19541D01*
X136747Y19605D01*
X136760Y19671D01*
X136770Y19736D01*
X136775Y19803D01*
X136777Y19869D01*
X136777Y21845D01*
X136775Y21924D01*
X136769Y22002D01*
X136759Y22080D01*
X136746Y22158D01*
X136728Y22235D01*
X136707Y22311D01*
X136682Y22385D01*
X136653Y22459D01*
X136621Y22531D01*
X136585Y22601D01*
X136545Y22669D01*
X136502Y22735D01*
X136456Y22799D01*
X136407Y22861D01*
X136355Y22920D01*
X136300Y22976D01*
X136242Y23030D01*
X136182Y23080D01*
X136119Y23128D01*
X136054Y23172D01*
X135987Y23213D01*
X135918Y23251D01*
X135847Y23285D01*
X135774Y23316D01*
X135700Y23343D01*
X135625Y23366D01*
X135549Y23385D01*
X135471Y23401D01*
X135393Y23413D01*
X135315Y23421D01*
X135236Y23425D01*
X135158Y23425D01*
X135079Y23421D01*
X135001Y23413D01*
X134923Y23401D01*
X134845Y23385D01*
X134769Y23366D01*
X134694Y23343D01*
X134620Y23316D01*
X134547Y23285D01*
X134476Y23251D01*
X134407Y23213D01*
X134340Y23172D01*
X134275Y23128D01*
X134212Y23080D01*
X134152Y23030D01*
X134094Y22976D01*
X134039Y22920D01*
X133987Y22861D01*
X133938Y22799D01*
X133892Y22735D01*
X133849Y22669D01*
X133809Y22601D01*
X133773Y22531D01*
X133741Y22459D01*
X133712Y22385D01*
X133687Y22311D01*
X133666Y22235D01*
X133648Y22158D01*
X133635Y22080D01*
X133625Y22002D01*
X133619Y21924D01*
X133617Y21845D01*
X133616Y21845D02*
X133616Y21055D01*
X136777Y21055D01*
M02*
