G04 EAGLE Gerber RS-274X export*
G75*
%MOMM*%
%FSLAX34Y34*%
%LPD*%
%INSilkscreen Top*%
%IPPOS*%
%AMOC8*
5,1,8,0,0,1.08239X$1,22.5*%
G01*
%ADD10C,0.203200*%
%ADD11C,0.101600*%
%ADD12C,0.200000*%
%ADD13C,0.127000*%
%ADD14C,0.152400*%
%ADD15C,0.076200*%
%ADD16R,0.225000X0.250000*%
%ADD17C,0.406400*%

G36*
X127157Y97903D02*
X127157Y97903D01*
X127159Y97902D01*
X127202Y97922D01*
X127246Y97940D01*
X127246Y97942D01*
X127248Y97943D01*
X127281Y98028D01*
X127281Y100568D01*
X127280Y100570D01*
X127281Y100572D01*
X127261Y100615D01*
X127243Y100659D01*
X127241Y100659D01*
X127240Y100661D01*
X127155Y100694D01*
X123345Y100694D01*
X123343Y100693D01*
X123341Y100694D01*
X123298Y100674D01*
X123254Y100656D01*
X123254Y100654D01*
X123252Y100653D01*
X123219Y100568D01*
X123219Y98028D01*
X123220Y98026D01*
X123219Y98024D01*
X123239Y97981D01*
X123257Y97937D01*
X123259Y97937D01*
X123260Y97935D01*
X123345Y97902D01*
X127155Y97902D01*
X127157Y97903D01*
G37*
G36*
X159657Y21307D02*
X159657Y21307D01*
X159659Y21306D01*
X159702Y21326D01*
X159746Y21344D01*
X159746Y21346D01*
X159748Y21347D01*
X159781Y21432D01*
X159781Y23972D01*
X159780Y23974D01*
X159781Y23976D01*
X159761Y24019D01*
X159743Y24063D01*
X159741Y24063D01*
X159740Y24065D01*
X159655Y24098D01*
X155845Y24098D01*
X155843Y24097D01*
X155841Y24098D01*
X155798Y24078D01*
X155754Y24060D01*
X155754Y24058D01*
X155752Y24057D01*
X155719Y23972D01*
X155719Y21432D01*
X155720Y21430D01*
X155719Y21428D01*
X155739Y21385D01*
X155757Y21341D01*
X155759Y21341D01*
X155760Y21339D01*
X155845Y21306D01*
X159655Y21306D01*
X159657Y21307D01*
G37*
D10*
X251449Y186884D02*
X209751Y186884D01*
X209751Y163516D01*
X251449Y163516D01*
X251449Y186884D01*
D11*
X240101Y171660D02*
X240103Y171776D01*
X240109Y171891D01*
X240119Y172006D01*
X240133Y172121D01*
X240151Y172235D01*
X240173Y172349D01*
X240198Y172461D01*
X240228Y172573D01*
X240261Y172684D01*
X240299Y172793D01*
X240340Y172901D01*
X240384Y173008D01*
X240433Y173113D01*
X240485Y173216D01*
X240540Y173318D01*
X240599Y173417D01*
X240661Y173515D01*
X240727Y173610D01*
X240796Y173703D01*
X240868Y173793D01*
X240943Y173881D01*
X241021Y173966D01*
X241102Y174048D01*
X241186Y174128D01*
X241273Y174205D01*
X241362Y174278D01*
X241454Y174349D01*
X241548Y174416D01*
X241644Y174480D01*
X241742Y174541D01*
X241843Y174598D01*
X241945Y174652D01*
X242049Y174702D01*
X242155Y174749D01*
X242262Y174791D01*
X242371Y174830D01*
X242481Y174866D01*
X242593Y174897D01*
X242705Y174925D01*
X242818Y174949D01*
X242932Y174969D01*
X243046Y174985D01*
X243161Y174997D01*
X243277Y175005D01*
X243392Y175009D01*
X243508Y175009D01*
X243623Y175005D01*
X243739Y174997D01*
X243854Y174985D01*
X243968Y174969D01*
X244082Y174949D01*
X244195Y174925D01*
X244307Y174897D01*
X244419Y174866D01*
X244529Y174830D01*
X244638Y174791D01*
X244745Y174749D01*
X244851Y174702D01*
X244955Y174652D01*
X245057Y174598D01*
X245158Y174541D01*
X245256Y174480D01*
X245352Y174416D01*
X245446Y174349D01*
X245538Y174278D01*
X245627Y174205D01*
X245714Y174128D01*
X245798Y174048D01*
X245879Y173966D01*
X245957Y173881D01*
X246032Y173793D01*
X246104Y173703D01*
X246173Y173610D01*
X246239Y173515D01*
X246301Y173417D01*
X246360Y173318D01*
X246415Y173216D01*
X246467Y173113D01*
X246516Y173008D01*
X246560Y172901D01*
X246601Y172793D01*
X246639Y172684D01*
X246672Y172573D01*
X246702Y172461D01*
X246727Y172349D01*
X246749Y172235D01*
X246767Y172121D01*
X246781Y172006D01*
X246791Y171891D01*
X246797Y171776D01*
X246799Y171660D01*
X246797Y171544D01*
X246791Y171429D01*
X246781Y171314D01*
X246767Y171199D01*
X246749Y171085D01*
X246727Y170971D01*
X246702Y170859D01*
X246672Y170747D01*
X246639Y170636D01*
X246601Y170527D01*
X246560Y170419D01*
X246516Y170312D01*
X246467Y170207D01*
X246415Y170104D01*
X246360Y170002D01*
X246301Y169903D01*
X246239Y169805D01*
X246173Y169710D01*
X246104Y169617D01*
X246032Y169527D01*
X245957Y169439D01*
X245879Y169354D01*
X245798Y169272D01*
X245714Y169192D01*
X245627Y169115D01*
X245538Y169042D01*
X245446Y168971D01*
X245352Y168904D01*
X245256Y168840D01*
X245158Y168779D01*
X245057Y168722D01*
X244955Y168668D01*
X244851Y168618D01*
X244745Y168571D01*
X244638Y168529D01*
X244529Y168490D01*
X244419Y168454D01*
X244307Y168423D01*
X244195Y168395D01*
X244082Y168371D01*
X243968Y168351D01*
X243854Y168335D01*
X243739Y168323D01*
X243623Y168315D01*
X243508Y168311D01*
X243392Y168311D01*
X243277Y168315D01*
X243161Y168323D01*
X243046Y168335D01*
X242932Y168351D01*
X242818Y168371D01*
X242705Y168395D01*
X242593Y168423D01*
X242481Y168454D01*
X242371Y168490D01*
X242262Y168529D01*
X242155Y168571D01*
X242049Y168618D01*
X241945Y168668D01*
X241843Y168722D01*
X241742Y168779D01*
X241644Y168840D01*
X241548Y168904D01*
X241454Y168971D01*
X241362Y169042D01*
X241273Y169115D01*
X241186Y169192D01*
X241102Y169272D01*
X241021Y169354D01*
X240943Y169439D01*
X240868Y169527D01*
X240796Y169617D01*
X240727Y169710D01*
X240661Y169805D01*
X240599Y169903D01*
X240540Y170002D01*
X240485Y170104D01*
X240433Y170207D01*
X240384Y170312D01*
X240340Y170419D01*
X240299Y170527D01*
X240261Y170636D01*
X240228Y170747D01*
X240198Y170859D01*
X240173Y170971D01*
X240151Y171085D01*
X240133Y171199D01*
X240119Y171314D01*
X240109Y171429D01*
X240103Y171544D01*
X240101Y171660D01*
D12*
X260714Y162684D02*
X260716Y162747D01*
X260722Y162809D01*
X260732Y162871D01*
X260745Y162933D01*
X260763Y162993D01*
X260784Y163052D01*
X260809Y163110D01*
X260838Y163166D01*
X260870Y163220D01*
X260905Y163272D01*
X260943Y163321D01*
X260985Y163369D01*
X261029Y163413D01*
X261077Y163455D01*
X261126Y163493D01*
X261178Y163528D01*
X261232Y163560D01*
X261288Y163589D01*
X261346Y163614D01*
X261405Y163635D01*
X261465Y163653D01*
X261527Y163666D01*
X261589Y163676D01*
X261651Y163682D01*
X261714Y163684D01*
X261777Y163682D01*
X261839Y163676D01*
X261901Y163666D01*
X261963Y163653D01*
X262023Y163635D01*
X262082Y163614D01*
X262140Y163589D01*
X262196Y163560D01*
X262250Y163528D01*
X262302Y163493D01*
X262351Y163455D01*
X262399Y163413D01*
X262443Y163369D01*
X262485Y163321D01*
X262523Y163272D01*
X262558Y163220D01*
X262590Y163166D01*
X262619Y163110D01*
X262644Y163052D01*
X262665Y162993D01*
X262683Y162933D01*
X262696Y162871D01*
X262706Y162809D01*
X262712Y162747D01*
X262714Y162684D01*
X262712Y162621D01*
X262706Y162559D01*
X262696Y162497D01*
X262683Y162435D01*
X262665Y162375D01*
X262644Y162316D01*
X262619Y162258D01*
X262590Y162202D01*
X262558Y162148D01*
X262523Y162096D01*
X262485Y162047D01*
X262443Y161999D01*
X262399Y161955D01*
X262351Y161913D01*
X262302Y161875D01*
X262250Y161840D01*
X262196Y161808D01*
X262140Y161779D01*
X262082Y161754D01*
X262023Y161733D01*
X261963Y161715D01*
X261901Y161702D01*
X261839Y161692D01*
X261777Y161686D01*
X261714Y161684D01*
X261651Y161686D01*
X261589Y161692D01*
X261527Y161702D01*
X261465Y161715D01*
X261405Y161733D01*
X261346Y161754D01*
X261288Y161779D01*
X261232Y161808D01*
X261178Y161840D01*
X261126Y161875D01*
X261077Y161913D01*
X261029Y161955D01*
X260985Y161999D01*
X260943Y162047D01*
X260905Y162096D01*
X260870Y162148D01*
X260838Y162202D01*
X260809Y162258D01*
X260784Y162316D01*
X260763Y162375D01*
X260745Y162435D01*
X260732Y162497D01*
X260722Y162559D01*
X260716Y162621D01*
X260714Y162684D01*
D13*
X283104Y51491D02*
X284200Y50395D01*
X334405Y100600D02*
X333309Y101696D01*
X235091Y99504D02*
X233995Y100600D01*
X284200Y150805D02*
X285296Y149709D01*
X285296Y51491D02*
X284200Y50395D01*
X333309Y99504D02*
X334405Y100600D01*
X235091Y101696D02*
X233995Y100600D01*
X283104Y149709D02*
X284200Y150805D01*
D14*
X174402Y104332D02*
X171862Y101792D01*
X174402Y151068D02*
X171862Y153608D01*
X144938Y153608D01*
X142398Y151068D01*
X142398Y104332D02*
X144938Y101792D01*
X171862Y101792D01*
D15*
X194757Y131397D02*
X194757Y135376D01*
X192436Y138361D01*
X194757Y135376D02*
X197079Y138361D01*
X194757Y135376D02*
X191110Y134050D01*
X194757Y135376D02*
X198405Y134050D01*
D14*
X167752Y187756D02*
X148448Y187756D01*
X148448Y155244D02*
X167752Y155244D01*
D15*
X175407Y153014D02*
X175407Y149035D01*
X175407Y153014D02*
X173086Y155999D01*
X175407Y153014D02*
X177729Y155999D01*
X175407Y153014D02*
X171760Y151688D01*
X175407Y153014D02*
X179055Y151688D01*
D14*
X241350Y32100D02*
X254050Y32100D01*
X260400Y25750D01*
X260400Y13050D01*
X254050Y6700D01*
X260400Y25750D02*
X266750Y32100D01*
X279450Y32100D01*
X285800Y25750D01*
X285800Y13050D01*
X279450Y6700D01*
X266750Y6700D01*
X260400Y13050D01*
X235000Y13050D02*
X235000Y25750D01*
X241350Y32100D01*
X235000Y13050D02*
X241350Y6700D01*
X254050Y6700D01*
X285800Y25750D02*
X292150Y32100D01*
X304850Y32100D01*
X311200Y25750D01*
X311200Y13050D01*
X304850Y6700D01*
X292150Y6700D01*
X285800Y13050D01*
D11*
X353500Y188000D02*
X353500Y192000D01*
X346500Y192000D02*
X346500Y188000D01*
D16*
X352875Y191250D03*
D11*
X353500Y142000D02*
X353500Y138000D01*
X346500Y138000D02*
X346500Y142000D01*
D16*
X352875Y141250D03*
D11*
X353500Y92000D02*
X353500Y88000D01*
X346500Y88000D02*
X346500Y92000D01*
D16*
X352875Y91250D03*
D11*
X353500Y42000D02*
X353500Y38000D01*
X346500Y38000D02*
X346500Y42000D01*
D16*
X352875Y41250D03*
D14*
X319150Y182100D02*
X306450Y182100D01*
X300100Y188450D01*
X300100Y201150D01*
X306450Y207500D01*
X300100Y188450D02*
X293750Y182100D01*
X281050Y182100D01*
X274700Y188450D01*
X274700Y201150D01*
X281050Y207500D01*
X293750Y207500D01*
X300100Y201150D01*
X325500Y201150D02*
X325500Y188450D01*
X319150Y182100D01*
X325500Y201150D02*
X319150Y207500D01*
X306450Y207500D01*
X274700Y188450D02*
X268350Y182100D01*
X255650Y182100D01*
X249300Y188450D01*
X249300Y201150D01*
X255650Y207500D01*
X268350Y207500D01*
X274700Y201150D01*
D17*
X70800Y58100D02*
X20800Y58100D01*
X20800Y18100D01*
X70800Y18100D01*
X70800Y58100D01*
X70800Y114900D02*
X20800Y114900D01*
X20800Y74900D01*
X70800Y74900D01*
X70800Y114900D01*
X70800Y210500D02*
X20800Y210500D01*
X20800Y170500D01*
X70800Y170500D01*
X70800Y210500D01*
X70800Y164700D02*
X20800Y164700D01*
X20800Y124700D01*
X70800Y124700D01*
X70800Y164700D01*
D14*
X179958Y82336D02*
X179958Y39664D01*
X179958Y82336D02*
X175894Y82336D01*
X90042Y82336D02*
X90042Y39664D01*
X94106Y39664D01*
X175894Y39664D02*
X179958Y39664D01*
X94106Y82336D02*
X90042Y82336D01*
D15*
X91876Y29469D02*
X87897Y29469D01*
X91876Y29469D02*
X94861Y31790D01*
X91876Y29469D02*
X94861Y27147D01*
X91876Y29469D02*
X90550Y33116D01*
X91876Y29469D02*
X90550Y25821D01*
M02*
